ISO-10303-21;
HEADER;
FILE_DESCRIPTION(('Open CASCADE Model'),'2;1');
FILE_NAME('Open CASCADE Shape Model','2026-10-04T20:47:52',('Author'),(
    'Open CASCADE'),'Open CASCADE STEP processor 7.8','Open CASCADE 7.8'
  ,'Unknown');
FILE_SCHEMA(('AUTOMOTIVE_DESIGN_CC2 { 1 2 10303 214 -1 1 5 4 }'));
ENDSEC;
DATA;
#1 = APPLICATION_PROTOCOL_DEFINITION('committee draft',
  'automotive_design',1997,#2);
#2 = APPLICATION_CONTEXT(
  'core data for automotive mechanical design processes');
#3 = SHAPE_DEFINITION_REPRESENTATION(#4,#10);
#4 = PRODUCT_DEFINITION_SHAPE('','',#5);
#5 = PRODUCT_DEFINITION('design','',#6,#9);
#6 = PRODUCT_DEFINITION_FORMATION('','',#7);
#7 = PRODUCT('Open CASCADE STEP translator 7.8 45',
  'Open CASCADE STEP translator 7.8 45','',(#8));
#8 = MECHANICAL_CONTEXT('',#2,'mechanical');
#9 = PRODUCT_DEFINITION_CONTEXT('part definition',#2,'design');
#10 = ADVANCED_BREP_SHAPE_REPRESENTATION('',(#11,#15),#1533);
#11 = AXIS2_PLACEMENT_3D('',#12,#13,#14);
#12 = CARTESIAN_POINT('',(0.,0.,0.));
#13 = DIRECTION('',(0.,0.,1.));
#14 = DIRECTION('',(1.,0.,-0.));
#15 = MANIFOLD_SOLID_BREP('',#16);
#16 = CLOSED_SHELL('',(#17,#109,#167,#225,#283,#341,#399,#457,#515,#573,
    #631,#682,#740,#793,#846,#904,#935,#981,#1007,#1033,#1064,#1090,
    #1116,#1142,#1148,#1201,#1227,#1253,#1279,#1332,#1385,#1416,#1469,
    #1495,#1521,#1527));
#17 = ADVANCED_FACE('',(#18),#32,.T.);
#18 = FACE_BOUND('',#19,.T.);
#19 = EDGE_LOOP('',(#20,#55,#83));
#20 = ORIENTED_EDGE('',*,*,#21,.T.);
#21 = EDGE_CURVE('',#22,#24,#26,.T.);
#22 = VERTEX_POINT('',#23);
#23 = CARTESIAN_POINT('',(20.656877152622,2.359788410169,11.096768376937
    ));
#24 = VERTEX_POINT('',#25);
#25 = CARTESIAN_POINT('',(29.990672652899,-3.469893369745,
    11.083592106868));
#26 = SURFACE_CURVE('',#27,(#31,#43),.PCURVE_S1.);
#27 = LINE('',#28,#29);
#28 = CARTESIAN_POINT('',(20.656877152622,2.359788410169,11.096768376937
    ));
#29 = VECTOR('',#30,1.);
#30 = DIRECTION('',(0.848158584453,-0.529741051871,-1.197322843616E-03)
  );
#31 = PCURVE('',#32,#37);
#32 = PLANE('',#33);
#33 = AXIS2_PLACEMENT_3D('',#34,#35,#36);
#34 = CARTESIAN_POINT('',(20.656877152622,2.359788410169,11.096768376937
    ));
#35 = DIRECTION('',(0.529706455611,0.848072529491,1.356670948937E-02));
#36 = DIRECTION('',(0.848150586518,-0.529755210063,-1.677142570531E-19)
  );
#37 = DEFINITIONAL_REPRESENTATION('',(#38),#42);
#38 = LINE('',#39,#40);
#39 = CARTESIAN_POINT('',(0.,0.));
#40 = VECTOR('',#41,1.);
#41 = DIRECTION('',(0.999999283077,1.197433045819E-03));
#42 = ( GEOMETRIC_REPRESENTATION_CONTEXT(2) 
PARAMETRIC_REPRESENTATION_CONTEXT() REPRESENTATION_CONTEXT('2D SPACE',''
  ) );
#43 = PCURVE('',#44,#49);
#44 = PLANE('',#45);
#45 = AXIS2_PLACEMENT_3D('',#46,#47,#48);
#46 = CARTESIAN_POINT('',(29.990672652899,-3.469893369745,
    11.083592106868));
#47 = DIRECTION('',(-1.716199431415E-03,-5.007947443575E-03,
    0.999985987463));
#48 = DIRECTION('',(3.256278207621E-22,0.999987460116,5.007954818646E-03
    ));
#49 = DEFINITIONAL_REPRESENTATION('',(#50),#54);
#50 = LINE('',#51,#52);
#51 = CARTESIAN_POINT('',(5.829674662543,9.33380924591));
#52 = VECTOR('',#53,1.);
#53 = DIRECTION('',(-0.529740405118,-0.848159833513));
#54 = ( GEOMETRIC_REPRESENTATION_CONTEXT(2) 
PARAMETRIC_REPRESENTATION_CONTEXT() REPRESENTATION_CONTEXT('2D SPACE',''
  ) );
#55 = ORIENTED_EDGE('',*,*,#56,.T.);
#56 = EDGE_CURVE('',#24,#57,#59,.T.);
#57 = VERTEX_POINT('',#58);
#58 = CARTESIAN_POINT('',(30.050068868778,-3.457989566876,8.020369795518
    ));
#59 = SURFACE_CURVE('',#60,(#64,#71),.PCURVE_S1.);
#60 = LINE('',#61,#62);
#61 = CARTESIAN_POINT('',(29.990672652899,-3.469893369745,
    11.083592106868));
#62 = VECTOR('',#63,1.);
#63 = DIRECTION('',(1.938631904006E-02,3.885279841243E-03,
    -0.999804518511));
#64 = PCURVE('',#32,#65);
#65 = DEFINITIONAL_REPRESENTATION('',(#66),#70);
#66 = LINE('',#67,#68);
#67 = CARTESIAN_POINT('',(11.004768423919,1.317748281963E-02));
#68 = VECTOR('',#69,1.);
#69 = DIRECTION('',(1.438427062581E-02,0.999896541027));
#70 = ( GEOMETRIC_REPRESENTATION_CONTEXT(2) 
PARAMETRIC_REPRESENTATION_CONTEXT() REPRESENTATION_CONTEXT('2D SPACE',''
  ) );
#71 = PCURVE('',#72,#77);
#72 = PLANE('',#73);
#73 = AXIS2_PLACEMENT_3D('',#74,#75,#76);
#74 = CARTESIAN_POINT('',(29.990672652899,-3.469893369745,
    11.083592106868));
#75 = DIRECTION('',(2.427103974223E-02,-0.999699584625,
    -3.414253947013E-03));
#76 = DIRECTION('',(-0.99970541149,-2.42711812088E-02,
    -1.348401404142E-20));
#77 = DEFINITIONAL_REPRESENTATION('',(#78),#82);
#78 = LINE('',#79,#80);
#79 = CARTESIAN_POINT('',(-0.,0.));
#80 = VECTOR('',#81,1.);
#81 = DIRECTION('',(-1.947490838429E-02,0.999810345987));
#82 = ( GEOMETRIC_REPRESENTATION_CONTEXT(2) 
PARAMETRIC_REPRESENTATION_CONTEXT() REPRESENTATION_CONTEXT('2D SPACE',''
  ) );
#83 = ORIENTED_EDGE('',*,*,#84,.F.);
#84 = EDGE_CURVE('',#22,#57,#85,.T.);
#85 = SURFACE_CURVE('',#86,(#90,#97),.PCURVE_S1.);
#86 = LINE('',#87,#88);
#87 = CARTESIAN_POINT('',(20.656877152622,2.359788410169,11.096768376937
    ));
#88 = VECTOR('',#89,1.);
#89 = DIRECTION('',(0.818991912913,-0.507251768973,-0.268231037459));
#90 = PCURVE('',#32,#91);
#91 = DEFINITIONAL_REPRESENTATION('',(#92),#96);
#92 = LINE('',#93,#94);
#93 = CARTESIAN_POINT('',(0.,0.));
#94 = VECTOR('',#95,1.);
#95 = DIRECTION('',(0.963347738718,0.268255725581));
#96 = ( GEOMETRIC_REPRESENTATION_CONTEXT(2) 
PARAMETRIC_REPRESENTATION_CONTEXT() REPRESENTATION_CONTEXT('2D SPACE',''
  ) );
#97 = PCURVE('',#98,#103);
#98 = PLANE('',#99);
#99 = AXIS2_PLACEMENT_3D('',#100,#101,#102);
#100 = CARTESIAN_POINT('',(20.656877152622,2.359788410169,
    11.096768376937));
#101 = DIRECTION('',(0.528238691449,0.849065329686,7.207689109481E-03));
#102 = DIRECTION('',(0.849087385349,-0.52825241319,3.407559524003E-19));
#103 = DEFINITIONAL_REPRESENTATION('',(#104),#108);
#104 = LINE('',#105,#106);
#105 = CARTESIAN_POINT('',(0.,0.));
#106 = VECTOR('',#107,1.);
#107 = DIRECTION('',(0.963352673012,0.268238005137));
#108 = ( GEOMETRIC_REPRESENTATION_CONTEXT(2) 
PARAMETRIC_REPRESENTATION_CONTEXT() REPRESENTATION_CONTEXT('2D SPACE',''
  ) );
#109 = ADVANCED_FACE('',(#110),#98,.T.);
#110 = FACE_BOUND('',#111,.T.);
#111 = EDGE_LOOP('',(#112,#113,#141));
#112 = ORIENTED_EDGE('',*,*,#84,.T.);
#113 = ORIENTED_EDGE('',*,*,#114,.F.);
#114 = EDGE_CURVE('',#115,#57,#117,.T.);
#115 = VERTEX_POINT('',#116);
#116 = CARTESIAN_POINT('',(20.662566554367,2.382351450669,8.021877490675
    ));
#117 = SURFACE_CURVE('',#118,(#122,#129),.PCURVE_S1.);
#118 = LINE('',#119,#120);
#119 = CARTESIAN_POINT('',(20.662566554367,2.382351450669,8.021877490675
    ));
#120 = VECTOR('',#121,1.);
#121 = DIRECTION('',(0.84908789669,-0.528251573683,-1.363691497791E-04)
  );
#122 = PCURVE('',#98,#123);
#123 = DEFINITIONAL_REPRESENTATION('',(#124),#128);
#124 = LINE('',#125,#126);
#125 = CARTESIAN_POINT('',(-7.088181341306E-03,3.074970760868));
#126 = VECTOR('',#127,1.);
#127 = DIRECTION('',(0.999999990701,1.363726921591E-04));
#128 = ( GEOMETRIC_REPRESENTATION_CONTEXT(2) 
PARAMETRIC_REPRESENTATION_CONTEXT() REPRESENTATION_CONTEXT('2D SPACE',''
  ) );
#129 = PCURVE('',#130,#135);
#130 = PLANE('',#131);
#131 = AXIS2_PLACEMENT_3D('',#132,#133,#134);
#132 = CARTESIAN_POINT('',(40.497232373626,48.270512200596,
    7.977485493919));
#133 = DIRECTION('',(6.008776887791E-04,7.076720648707E-04,
    0.999999569073));
#134 = DIRECTION('',(-2.317115057239E-23,0.9999997496,
    -7.076721926247E-04));
#135 = DEFINITIONAL_REPRESENTATION('',(#136),#140);
#136 = LINE('',#137,#138);
#137 = CARTESIAN_POINT('',(-45.88818067451,19.834669399953));
#138 = VECTOR('',#139,1.);
#139 = DIRECTION('',(-0.528251344904,-0.849088049973));
#140 = ( GEOMETRIC_REPRESENTATION_CONTEXT(2) 
PARAMETRIC_REPRESENTATION_CONTEXT() REPRESENTATION_CONTEXT('2D SPACE',''
  ) );
#141 = ORIENTED_EDGE('',*,*,#142,.F.);
#142 = EDGE_CURVE('',#22,#115,#143,.T.);
#143 = SURFACE_CURVE('',#144,(#148,#155),.PCURVE_S1.);
#144 = LINE('',#145,#146);
#145 = CARTESIAN_POINT('',(20.656877152622,2.359788410169,
    11.096768376937));
#146 = VECTOR('',#147,1.);
#147 = DIRECTION('',(1.850224627105E-03,7.337624423013E-03,
    -0.999971367558));
#148 = PCURVE('',#98,#149);
#149 = DEFINITIONAL_REPRESENTATION('',(#150),#154);
#150 = LINE('',#151,#152);
#151 = CARTESIAN_POINT('',(0.,0.));
#152 = VECTOR('',#153,1.);
#153 = DIRECTION('',(-2.305115417602E-03,0.999997343218));
#154 = ( GEOMETRIC_REPRESENTATION_CONTEXT(2) 
PARAMETRIC_REPRESENTATION_CONTEXT() REPRESENTATION_CONTEXT('2D SPACE',''
  ) );
#155 = PCURVE('',#156,#161);
#156 = PLANE('',#157);
#157 = AXIS2_PLACEMENT_3D('',#158,#159,#160);
#158 = CARTESIAN_POINT('',(16.939149829274,-3.732119713148,
    11.059879542799));
#159 = DIRECTION('',(-0.853603867613,0.52091784969,2.243004861323E-03));
#160 = DIRECTION('',(-0.520919160082,-0.853606014892,1.52099355407E-19)
  );
#161 = DEFINITIONAL_REPRESENTATION('',(#162),#166);
#162 = LINE('',#163,#164);
#163 = CARTESIAN_POINT('',(-7.136724810924,3.688892693282E-02));
#164 = VECTOR('',#165,1.);
#165 = DIRECTION('',(-7.227257801216E-03,-0.999973883031));
#166 = ( GEOMETRIC_REPRESENTATION_CONTEXT(2) 
PARAMETRIC_REPRESENTATION_CONTEXT() REPRESENTATION_CONTEXT('2D SPACE',''
  ) );
#167 = ADVANCED_FACE('',(#168),#130,.T.);
#168 = FACE_BOUND('',#169,.T.);
#169 = EDGE_LOOP('',(#170,#198,#199));
#170 = ORIENTED_EDGE('',*,*,#171,.F.);
#171 = EDGE_CURVE('',#115,#172,#174,.T.);
#172 = VERTEX_POINT('',#173);
#173 = CARTESIAN_POINT('',(40.497232373626,48.270512200596,
    7.977485493919));
#174 = SURFACE_CURVE('',#175,(#179,#186),.PCURVE_S1.);
#175 = LINE('',#176,#177);
#176 = CARTESIAN_POINT('',(20.662566554367,2.382351450669,8.021877490675
    ));
#177 = VECTOR('',#178,1.);
#178 = DIRECTION('',(0.396761625904,0.917921251349,-8.879928187607E-04)
  );
#179 = PCURVE('',#130,#180);
#180 = DEFINITIONAL_REPRESENTATION('',(#181),#185);
#181 = LINE('',#182,#183);
#182 = CARTESIAN_POINT('',(-45.88818067451,19.834669399953));
#183 = VECTOR('',#184,1.);
#184 = DIRECTION('',(0.91792164991,-0.396761697531));
#185 = ( GEOMETRIC_REPRESENTATION_CONTEXT(2) 
PARAMETRIC_REPRESENTATION_CONTEXT() REPRESENTATION_CONTEXT('2D SPACE',''
  ) );
#186 = PCURVE('',#187,#192);
#187 = PLANE('',#188);
#188 = AXIS2_PLACEMENT_3D('',#189,#190,#191);
#189 = CARTESIAN_POINT('',(40.497232373626,48.270512200596,
    7.977485493919));
#190 = DIRECTION('',(2.059316712327E-04,8.783832725024E-04,
    0.999999593017));
#191 = DIRECTION('',(1.264057139047E-23,0.999999614221,
    -8.783832911276E-04));
#192 = DEFINITIONAL_REPRESENTATION('',(#193),#197);
#193 = LINE('',#194,#195);
#194 = CARTESIAN_POINT('',(-45.88818204044,19.834666239832));
#195 = VECTOR('',#196,1.);
#196 = DIRECTION('',(0.917921677233,-0.396761634317));
#197 = ( GEOMETRIC_REPRESENTATION_CONTEXT(2) 
PARAMETRIC_REPRESENTATION_CONTEXT() REPRESENTATION_CONTEXT('2D SPACE',''
  ) );
#198 = ORIENTED_EDGE('',*,*,#114,.T.);
#199 = ORIENTED_EDGE('',*,*,#200,.T.);
#200 = EDGE_CURVE('',#57,#172,#201,.T.);
#201 = SURFACE_CURVE('',#202,(#206,#213),.PCURVE_S1.);
#202 = LINE('',#203,#204);
#203 = CARTESIAN_POINT('',(30.050068868778,-3.457989566876,
    8.020369795518));
#204 = VECTOR('',#205,1.);
#205 = DIRECTION('',(0.197964410339,0.980208871562,-8.126191836675E-04)
  );
#206 = PCURVE('',#130,#207);
#207 = DEFINITIONAL_REPRESENTATION('',(#208),#212);
#208 = LINE('',#209,#210);
#209 = CARTESIAN_POINT('',(-51.72851916268,10.447165390844));
#210 = VECTOR('',#211,1.);
#211 = DIRECTION('',(0.980209201186,-0.197964446077));
#212 = ( GEOMETRIC_REPRESENTATION_CONTEXT(2) 
PARAMETRIC_REPRESENTATION_CONTEXT() REPRESENTATION_CONTEXT('2D SPACE',''
  ) );
#213 = PCURVE('',#214,#219);
#214 = PLANE('',#215);
#215 = AXIS2_PLACEMENT_3D('',#216,#217,#218);
#216 = CARTESIAN_POINT('',(40.497232373626,48.270512200596,
    7.977485493919));
#217 = DIRECTION('',(4.376677819748E-03,-5.490160920929E-05,
    0.999990420793));
#218 = DIRECTION('',(0.9999904223,-3.822371515543E-23,
    -4.376677826344E-03));
#219 = DEFINITIONAL_REPRESENTATION('',(#220),#224);
#220 = LINE('',#221,#222);
#221 = CARTESIAN_POINT('',(-10.44725113582,-51.72850184543));
#222 = VECTOR('',#223,1.);
#223 = DIRECTION('',(0.197966070867,0.980208873039));
#224 = ( GEOMETRIC_REPRESENTATION_CONTEXT(2) 
PARAMETRIC_REPRESENTATION_CONTEXT() REPRESENTATION_CONTEXT('2D SPACE',''
  ) );
#225 = ADVANCED_FACE('',(#226),#187,.T.);
#226 = FACE_BOUND('',#227,.T.);
#227 = EDGE_LOOP('',(#228,#256,#282));
#228 = ORIENTED_EDGE('',*,*,#229,.F.);
#229 = EDGE_CURVE('',#230,#172,#232,.T.);
#230 = VERTEX_POINT('',#231);
#231 = CARTESIAN_POINT('',(-3.697760879923,22.267263009059,8.00942747486
    ));
#232 = SURFACE_CURVE('',#233,(#237,#244),.PCURVE_S1.);
#233 = LINE('',#234,#235);
#234 = CARTESIAN_POINT('',(-3.697760879923,22.267263009059,8.00942747486
    ));
#235 = VECTOR('',#236,1.);
#236 = DIRECTION('',(0.861881251211,0.507109771918,-6.229256409615E-04)
  );
#237 = PCURVE('',#187,#238);
#238 = DEFINITIONAL_REPRESENTATION('',(#239),#243);
#239 = LINE('',#240,#241);
#240 = CARTESIAN_POINT('',(-26.00326721734,44.194994190657));
#241 = VECTOR('',#242,1.);
#242 = DIRECTION('',(0.507110123454,-0.861881269486));
#243 = ( GEOMETRIC_REPRESENTATION_CONTEXT(2) 
PARAMETRIC_REPRESENTATION_CONTEXT() REPRESENTATION_CONTEXT('2D SPACE',''
  ) );
#244 = PCURVE('',#245,#250);
#245 = PLANE('',#246);
#246 = AXIS2_PLACEMENT_3D('',#247,#248,#249);
#247 = CARTESIAN_POINT('',(40.497232373626,48.270512200596,
    7.977485493919));
#248 = DIRECTION('',(1.46436463178E-02,-2.366036000607E-02,
    0.999612800532));
#249 = DIRECTION('',(5.087010743992E-21,0.999719994446,
    2.366289723507E-02));
#250 = DEFINITIONAL_REPRESENTATION('',(#251),#255);
#251 = LINE('',#252,#253);
#252 = CARTESIAN_POINT('',(-25.99521229752,44.199732522895));
#253 = VECTOR('',#254,1.);
#254 = DIRECTION('',(0.50695303814,-0.861973675422));
#255 = ( GEOMETRIC_REPRESENTATION_CONTEXT(2) 
PARAMETRIC_REPRESENTATION_CONTEXT() REPRESENTATION_CONTEXT('2D SPACE',''
  ) );
#256 = ORIENTED_EDGE('',*,*,#257,.T.);
#257 = EDGE_CURVE('',#230,#115,#258,.T.);
#258 = SURFACE_CURVE('',#259,(#263,#270),.PCURVE_S1.);
#259 = LINE('',#260,#261);
#260 = CARTESIAN_POINT('',(-3.697760879923,22.267263009059,8.00942747486
    ));
#261 = VECTOR('',#262,1.);
#262 = DIRECTION('',(0.77467780847,-0.632356020223,3.959204157974E-04));
#263 = PCURVE('',#187,#264);
#264 = DEFINITIONAL_REPRESENTATION('',(#265),#269);
#265 = LINE('',#266,#267);
#266 = CARTESIAN_POINT('',(-26.00326721734,44.194994190657));
#267 = VECTOR('',#268,1.);
#268 = DIRECTION('',(-0.632356124043,-0.774677824896));
#269 = ( GEOMETRIC_REPRESENTATION_CONTEXT(2) 
PARAMETRIC_REPRESENTATION_CONTEXT() REPRESENTATION_CONTEXT('2D SPACE',''
  ) );
#270 = PCURVE('',#271,#276);
#271 = PLANE('',#272);
#272 = AXIS2_PLACEMENT_3D('',#273,#274,#275);
#273 = CARTESIAN_POINT('',(20.662566554367,2.382351450669,8.021877490675
    ));
#274 = DIRECTION('',(-8.670379335623E-04,-4.36075261527E-04,
    0.999999529042));
#275 = DIRECTION('',(0.999999624122,3.038838142368E-23,8.67038016001E-04
    ));
#276 = DEFINITIONAL_REPRESENTATION('',(#277),#281);
#277 = LINE('',#278,#279);
#278 = CARTESIAN_POINT('',(-24.36032907242,19.884913449064));
#279 = VECTOR('',#280,1.);
#280 = DIRECTION('',(0.774677860564,-0.632356080347));
#281 = ( GEOMETRIC_REPRESENTATION_CONTEXT(2) 
PARAMETRIC_REPRESENTATION_CONTEXT() REPRESENTATION_CONTEXT('2D SPACE',''
  ) );
#282 = ORIENTED_EDGE('',*,*,#171,.T.);
#283 = ADVANCED_FACE('',(#284),#271,.T.);
#284 = FACE_BOUND('',#285,.T.);
#285 = EDGE_LOOP('',(#286,#287,#315));
#286 = ORIENTED_EDGE('',*,*,#257,.F.);
#287 = ORIENTED_EDGE('',*,*,#288,.T.);
#288 = EDGE_CURVE('',#230,#289,#291,.T.);
#289 = VERTEX_POINT('',#290);
#290 = CARTESIAN_POINT('',(-3.253790908648,20.453173727391,
    8.009021334017));
#291 = SURFACE_CURVE('',#292,(#296,#303),.PCURVE_S1.);
#292 = LINE('',#293,#294);
#293 = CARTESIAN_POINT('',(-3.697760879923,22.267263009059,8.00942747486
    ));
#294 = VECTOR('',#295,1.);
#295 = DIRECTION('',(0.237718798743,-0.97133399273,-2.174636112953E-04)
  );
#296 = PCURVE('',#271,#297);
#297 = DEFINITIONAL_REPRESENTATION('',(#298),#302);
#298 = LINE('',#299,#300);
#299 = CARTESIAN_POINT('',(-24.36032907242,19.884913449064));
#300 = VECTOR('',#301,1.);
#301 = DIRECTION('',(0.237718520841,-0.971334085086));
#302 = ( GEOMETRIC_REPRESENTATION_CONTEXT(2) 
PARAMETRIC_REPRESENTATION_CONTEXT() REPRESENTATION_CONTEXT('2D SPACE',''
  ) );
#303 = PCURVE('',#304,#309);
#304 = PLANE('',#305);
#305 = AXIS2_PLACEMENT_3D('',#306,#307,#308);
#306 = CARTESIAN_POINT('',(-3.209167278354,20.468053561492,
    14.371711825466));
#307 = DIRECTION('',(0.971307268729,0.237713908023,-7.368015156417E-03)
  );
#308 = DIRECTION('',(-0.23772036075,0.971333634795,-2.416859575635E-20)
  );
#309 = DEFINITIONAL_REPRESENTATION('',(#310),#314);
#310 = LINE('',#311,#312);
#311 = CARTESIAN_POINT('',(1.863781299689,-6.362457054363));
#312 = VECTOR('',#313,1.);
#313 = DIRECTION('',(-0.999999976354,-2.174695143295E-04));
#314 = ( GEOMETRIC_REPRESENTATION_CONTEXT(2) 
PARAMETRIC_REPRESENTATION_CONTEXT() REPRESENTATION_CONTEXT('2D SPACE',''
  ) );
#315 = ORIENTED_EDGE('',*,*,#316,.T.);
#316 = EDGE_CURVE('',#289,#115,#317,.T.);
#317 = SURFACE_CURVE('',#318,(#322,#329),.PCURVE_S1.);
#318 = LINE('',#319,#320);
#319 = CARTESIAN_POINT('',(-3.253790908648,20.453173727391,
    8.009021334017));
#320 = VECTOR('',#321,1.);
#321 = DIRECTION('',(0.797856250683,-0.602847592103,4.288849154712E-04)
  );
#322 = PCURVE('',#271,#323);
#323 = DEFINITIONAL_REPRESENTATION('',(#324),#328);
#324 = LINE('',#325,#326);
#325 = CARTESIAN_POINT('',(-23.91635962017,18.070823994911));
#326 = VECTOR('',#327,1.);
#327 = DIRECTION('',(0.797856322646,-0.602847649422));
#328 = ( GEOMETRIC_REPRESENTATION_CONTEXT(2) 
PARAMETRIC_REPRESENTATION_CONTEXT() REPRESENTATION_CONTEXT('2D SPACE',''
  ) );
#329 = PCURVE('',#330,#335);
#330 = PLANE('',#331);
#331 = AXIS2_PLACEMENT_3D('',#332,#333,#334);
#332 = CARTESIAN_POINT('',(20.662566554367,2.382351450669,8.021877490675
    ));
#333 = DIRECTION('',(2.051939229525E-03,3.427124966993E-03,
    0.999992022148));
#334 = DIRECTION('',(-7.508874416701E-22,0.999994127365,
    -3.427132181893E-03));
#335 = DEFINITIONAL_REPRESENTATION('',(#336),#340);
#336 = LINE('',#337,#338);
#337 = CARTESIAN_POINT('',(18.070760213132,23.916407812543));
#338 = VECTOR('',#339,1.);
#339 = DIRECTION('',(-0.602845521645,-0.797857930357));
#340 = ( GEOMETRIC_REPRESENTATION_CONTEXT(2) 
PARAMETRIC_REPRESENTATION_CONTEXT() REPRESENTATION_CONTEXT('2D SPACE',''
  ) );
#341 = ADVANCED_FACE('',(#342),#330,.T.);
#342 = FACE_BOUND('',#343,.T.);
#343 = EDGE_LOOP('',(#344,#345,#373));
#344 = ORIENTED_EDGE('',*,*,#316,.F.);
#345 = ORIENTED_EDGE('',*,*,#346,.T.);
#346 = EDGE_CURVE('',#289,#347,#349,.T.);
#347 = VERTEX_POINT('',#348);
#348 = CARTESIAN_POINT('',(16.956822102267,-3.775974976541,
    8.050587036384));
#349 = SURFACE_CURVE('',#350,(#354,#361),.PCURVE_S1.);
#350 = LINE('',#351,#352);
#351 = CARTESIAN_POINT('',(-3.253790908648,20.453173727391,
    8.009021334017));
#352 = VECTOR('',#353,1.);
#353 = DIRECTION('',(0.640551422869,-0.767914148315,1.317375666913E-03)
  );
#354 = PCURVE('',#330,#355);
#355 = DEFINITIONAL_REPRESENTATION('',(#356),#360);
#356 = LINE('',#357,#358);
#357 = CARTESIAN_POINT('',(18.070760213132,23.916407812543));
#358 = VECTOR('',#359,1.);
#359 = DIRECTION('',(-0.767914153456,-0.640552771379));
#360 = ( GEOMETRIC_REPRESENTATION_CONTEXT(2) 
PARAMETRIC_REPRESENTATION_CONTEXT() REPRESENTATION_CONTEXT('2D SPACE',''
  ) );
#361 = PCURVE('',#362,#367);
#362 = PLANE('',#363);
#363 = AXIS2_PLACEMENT_3D('',#364,#365,#366);
#364 = CARTESIAN_POINT('',(16.956822102267,-3.775974976541,
    8.050587036384));
#365 = DIRECTION('',(7.207909128124E-03,7.727867193982E-03,
    0.999944161498));
#366 = DIRECTION('',(-3.93857327297E-21,0.999970138037,
    -7.728067948433E-03));
#367 = DEFINITIONAL_REPRESENTATION('',(#368),#372);
#368 = LINE('',#369,#370);
#369 = CARTESIAN_POINT('',(24.228746396563,20.211138042003));
#370 = VECTOR('',#371,1.);
#371 = DIRECTION('',(-0.76790139766,-0.640568063107));
#372 = ( GEOMETRIC_REPRESENTATION_CONTEXT(2) 
PARAMETRIC_REPRESENTATION_CONTEXT() REPRESENTATION_CONTEXT('2D SPACE',''
  ) );
#373 = ORIENTED_EDGE('',*,*,#374,.T.);
#374 = EDGE_CURVE('',#347,#115,#375,.T.);
#375 = SURFACE_CURVE('',#376,(#380,#387),.PCURVE_S1.);
#376 = LINE('',#377,#378);
#377 = CARTESIAN_POINT('',(16.956822102267,-3.775974976541,
    8.050587036384));
#378 = VECTOR('',#379,1.);
#379 = DIRECTION('',(0.515590847647,0.856825607846,-3.994441386741E-03)
  );
#380 = PCURVE('',#330,#381);
#381 = DEFINITIONAL_REPRESENTATION('',(#382),#386);
#382 = LINE('',#383,#384);
#383 = CARTESIAN_POINT('',(-6.158388653016,3.705752253559));
#384 = VECTOR('',#385,1.);
#385 = DIRECTION('',(0.856834265501,-0.515591933086));
#386 = ( GEOMETRIC_REPRESENTATION_CONTEXT(2) 
PARAMETRIC_REPRESENTATION_CONTEXT() REPRESENTATION_CONTEXT('2D SPACE',''
  ) );
#387 = PCURVE('',#388,#393);
#388 = PLANE('',#389);
#389 = AXIS2_PLACEMENT_3D('',#390,#391,#392);
#390 = CARTESIAN_POINT('',(16.939149829274,-3.732119713148,
    11.059879542799));
#391 = DIRECTION('',(-0.856790860177,0.515511458246,-1.254425506379E-02)
  );
#392 = DIRECTION('',(-0.515552023046,-0.856858279725,3.339387221453E-19)
  );
#393 = DEFINITIONAL_REPRESENTATION('',(#394),#398);
#394 = LINE('',#395,#396);
#395 = CARTESIAN_POINT('',(2.846676945447E-02,-3.009529302991));
#396 = VECTOR('',#397,1.);
#397 = DIRECTION('',(-0.999992020932,-3.99475570316E-03));
#398 = ( GEOMETRIC_REPRESENTATION_CONTEXT(2) 
PARAMETRIC_REPRESENTATION_CONTEXT() REPRESENTATION_CONTEXT('2D SPACE',''
  ) );
#399 = ADVANCED_FACE('',(#400),#362,.T.);
#400 = FACE_BOUND('',#401,.T.);
#401 = EDGE_LOOP('',(#402,#403,#431));
#402 = ORIENTED_EDGE('',*,*,#346,.F.);
#403 = ORIENTED_EDGE('',*,*,#404,.F.);
#404 = EDGE_CURVE('',#405,#289,#407,.T.);
#405 = VERTEX_POINT('',#406);
#406 = CARTESIAN_POINT('',(-10.60102974471,20.273718394946,
    8.063369405581));
#407 = SURFACE_CURVE('',#408,(#412,#419),.PCURVE_S1.);
#408 = LINE('',#409,#410);
#409 = CARTESIAN_POINT('',(-10.60102974471,20.273718394946,
    8.063369405581));
#410 = VECTOR('',#411,1.);
#411 = DIRECTION('',(0.99967451356,2.441691718078E-02,
    -7.394666651805E-03));
#412 = PCURVE('',#362,#413);
#413 = DEFINITIONAL_REPRESENTATION('',(#414),#418);
#414 = LINE('',#415,#416);
#415 = CARTESIAN_POINT('',(24.048876417416,27.558567744561));
#416 = VECTOR('',#417,1.);
#417 = DIRECTION('',(2.447333453005E-02,-0.999700483093));
#418 = ( GEOMETRIC_REPRESENTATION_CONTEXT(2) 
PARAMETRIC_REPRESENTATION_CONTEXT() REPRESENTATION_CONTEXT('2D SPACE',''
  ) );
#419 = PCURVE('',#420,#425);
#420 = PLANE('',#421);
#421 = AXIS2_PLACEMENT_3D('',#422,#423,#424);
#422 = CARTESIAN_POINT('',(-3.209167278354,20.468053561492,
    14.371711825466));
#423 = DIRECTION('',(2.443354399544E-02,-0.999699108742,
    2.166543142851E-03));
#424 = DIRECTION('',(-0.999701454998,-2.443360134006E-02,
    -1.260773915085E-20));
#425 = DEFINITIONAL_REPRESENTATION('',(#426),#430);
#426 = LINE('',#427,#428);
#427 = CARTESIAN_POINT('',(7.394403970753,6.30835722533));
#428 = VECTOR('',#429,1.);
#429 = DIRECTION('',(-0.99997265895,7.394684006813E-03));
#430 = ( GEOMETRIC_REPRESENTATION_CONTEXT(2) 
PARAMETRIC_REPRESENTATION_CONTEXT() REPRESENTATION_CONTEXT('2D SPACE',''
  ) );
#431 = ORIENTED_EDGE('',*,*,#432,.T.);
#432 = EDGE_CURVE('',#405,#347,#433,.T.);
#433 = SURFACE_CURVE('',#434,(#438,#445),.PCURVE_S1.);
#434 = LINE('',#435,#436);
#435 = CARTESIAN_POINT('',(-10.60102974471,20.273718394946,
    8.063369405581));
#436 = VECTOR('',#437,1.);
#437 = DIRECTION('',(0.753435386151,-0.657521860295,-3.494716977665E-04)
  );
#438 = PCURVE('',#362,#439);
#439 = DEFINITIONAL_REPRESENTATION('',(#440),#444);
#440 = LINE('',#441,#442);
#441 = CARTESIAN_POINT('',(24.048876417416,27.558567744561));
#442 = VECTOR('',#443,1.);
#443 = DIRECTION('',(-0.65749952466,-0.753454958887));
#444 = ( GEOMETRIC_REPRESENTATION_CONTEXT(2) 
PARAMETRIC_REPRESENTATION_CONTEXT() REPRESENTATION_CONTEXT('2D SPACE',''
  ) );
#445 = PCURVE('',#446,#451);
#446 = PLANE('',#447);
#447 = AXIS2_PLACEMENT_3D('',#448,#449,#450);
#448 = CARTESIAN_POINT('',(16.956822102267,-3.775974976541,
    8.050587036384));
#449 = DIRECTION('',(-3.312452313521E-04,-9.11062351726E-04,
    0.999999530121));
#450 = DIRECTION('',(-1.028306701757E-23,0.999999584983,
    9.110624017084E-04));
#451 = DEFINITIONAL_REPRESENTATION('',(#452),#456);
#452 = LINE('',#453,#454);
#453 = CARTESIAN_POINT('',(24.049695035981,27.557853358853));
#454 = VECTOR('',#455,1.);
#455 = DIRECTION('',(-0.657521905802,-0.753435427485));
#456 = ( GEOMETRIC_REPRESENTATION_CONTEXT(2) 
PARAMETRIC_REPRESENTATION_CONTEXT() REPRESENTATION_CONTEXT('2D SPACE',''
  ) );
#457 = ADVANCED_FACE('',(#458),#446,.T.);
#458 = FACE_BOUND('',#459,.T.);
#459 = EDGE_LOOP('',(#460,#461,#489));
#460 = ORIENTED_EDGE('',*,*,#432,.F.);
#461 = ORIENTED_EDGE('',*,*,#462,.F.);
#462 = EDGE_CURVE('',#463,#405,#465,.T.);
#463 = VERTEX_POINT('',#464);
#464 = CARTESIAN_POINT('',(-40.44169447144,-48.27050263643,
    7.991036734493));
#465 = SURFACE_CURVE('',#466,(#470,#477),.PCURVE_S1.);
#466 = LINE('',#467,#468);
#467 = CARTESIAN_POINT('',(-40.44169447144,-48.27050263643,
    7.991036734493));
#468 = VECTOR('',#469,1.);
#469 = DIRECTION('',(0.399162705304,0.91687959871,9.675556807499E-04));
#470 = PCURVE('',#446,#471);
#471 = DEFINITIONAL_REPRESENTATION('',(#472),#476);
#472 = LINE('',#473,#474);
#473 = CARTESIAN_POINT('',(-44.49456344792,57.398519722689));
#474 = VECTOR('',#475,1.);
#475 = DIRECTION('',(0.916880099692,-0.399162727203));
#476 = ( GEOMETRIC_REPRESENTATION_CONTEXT(2) 
PARAMETRIC_REPRESENTATION_CONTEXT() REPRESENTATION_CONTEXT('2D SPACE',''
  ) );
#477 = PCURVE('',#478,#483);
#478 = PLANE('',#479);
#479 = AXIS2_PLACEMENT_3D('',#480,#481,#482);
#480 = CARTESIAN_POINT('',(-10.60102974471,20.273718394946,
    8.063369405581));
#481 = DIRECTION('',(-1.976298556901E-03,-1.948882870171E-04,
    0.999998028129));
#482 = DIRECTION('',(0.99999804712,5.12399731419E-23,1.976298594432E-03)
  );
#483 = DEFINITIONAL_REPRESENTATION('',(#484),#488);
#484 = LINE('',#485,#486);
#485 = CARTESIAN_POINT('',(-29.84074940244,-68.54422233308));
#486 = VECTOR('',#487,1.);
#487 = DIRECTION('',(0.399163837967,0.916879616122));
#488 = ( GEOMETRIC_REPRESENTATION_CONTEXT(2) 
PARAMETRIC_REPRESENTATION_CONTEXT() REPRESENTATION_CONTEXT('2D SPACE',''
  ) );
#489 = ORIENTED_EDGE('',*,*,#490,.T.);
#490 = EDGE_CURVE('',#463,#347,#491,.T.);
#491 = SURFACE_CURVE('',#492,(#496,#503),.PCURVE_S1.);
#492 = LINE('',#493,#494);
#493 = CARTESIAN_POINT('',(-40.44169447144,-48.27050263643,
    7.991036734493));
#494 = VECTOR('',#495,1.);
#495 = DIRECTION('',(0.790343595962,0.612663307182,8.199724060371E-04));
#496 = PCURVE('',#446,#497);
#497 = DEFINITIONAL_REPRESENTATION('',(#498),#502);
#498 = LINE('',#499,#500);
#499 = CARTESIAN_POINT('',(-44.49456344792,57.398519722689));
#500 = VECTOR('',#501,1.);
#501 = DIRECTION('',(0.612663799962,-0.790343639322));
#502 = ( GEOMETRIC_REPRESENTATION_CONTEXT(2) 
PARAMETRIC_REPRESENTATION_CONTEXT() REPRESENTATION_CONTEXT('2D SPACE',''
  ) );
#503 = PCURVE('',#504,#509);
#504 = PLANE('',#505);
#505 = AXIS2_PLACEMENT_3D('',#506,#507,#508);
#506 = CARTESIAN_POINT('',(16.956822102267,-3.775974976541,
    8.050587036384));
#507 = DIRECTION('',(2.318492371641E-04,-1.637460302867E-03,
    0.999998632484));
#508 = DIRECTION('',(-3.936142154386E-23,0.999998659361,
    1.637460346877E-03));
#509 = DEFINITIONAL_REPRESENTATION('',(#510),#514);
#510 = LINE('',#511,#512);
#511 = CARTESIAN_POINT('',(-44.49456552004,57.39851811641));
#512 = VECTOR('',#513,1.);
#513 = DIRECTION('',(0.612663828493,-0.790343617204));
#514 = ( GEOMETRIC_REPRESENTATION_CONTEXT(2) 
PARAMETRIC_REPRESENTATION_CONTEXT() REPRESENTATION_CONTEXT('2D SPACE',''
  ) );
#515 = ADVANCED_FACE('',(#516),#478,.T.);
#516 = FACE_BOUND('',#517,.T.);
#517 = EDGE_LOOP('',(#518,#546,#572));
#518 = ORIENTED_EDGE('',*,*,#519,.F.);
#519 = EDGE_CURVE('',#520,#405,#522,.T.);
#520 = VERTEX_POINT('',#521);
#521 = CARTESIAN_POINT('',(-40.4590159844,48.252249692584,8.009813692897
    ));
#522 = SURFACE_CURVE('',#523,(#527,#534),.PCURVE_S1.);
#523 = LINE('',#524,#525);
#524 = CARTESIAN_POINT('',(-40.4590159844,48.252249692584,8.009813692897
    ));
#525 = VECTOR('',#526,1.);
#526 = DIRECTION('',(0.729699115684,-0.683767129576,1.308847685574E-03)
  );
#527 = PCURVE('',#478,#528);
#528 = DEFINITIONAL_REPRESENTATION('',(#529),#533);
#529 = LINE('',#530,#531);
#530 = CARTESIAN_POINT('',(-29.8580337727,27.97853182897));
#531 = VECTOR('',#532,1.);
#532 = DIRECTION('',(0.729700277343,-0.683767142561));
#533 = ( GEOMETRIC_REPRESENTATION_CONTEXT(2) 
PARAMETRIC_REPRESENTATION_CONTEXT() REPRESENTATION_CONTEXT('2D SPACE',''
  ) );
#534 = PCURVE('',#535,#540);
#535 = PLANE('',#536);
#536 = AXIS2_PLACEMENT_3D('',#537,#538,#539);
#537 = CARTESIAN_POINT('',(40.497232373626,48.270512200596,
    7.977485493919));
#538 = DIRECTION('',(3.988003243696E-04,2.339755998351E-03,
    0.999997183246));
#539 = DIRECTION('',(7.284585350445E-23,0.999997262767,
    -2.33975618441E-03));
#540 = DEFINITIONAL_REPRESENTATION('',(#541),#545);
#541 = LINE('',#542,#543);
#542 = CARTESIAN_POINT('',(-1.833809812751E-02,80.956254795741));
#543 = VECTOR('',#544,1.);
#544 = DIRECTION('',(-0.68376832033,-0.72969917371));
#545 = ( GEOMETRIC_REPRESENTATION_CONTEXT(2) 
PARAMETRIC_REPRESENTATION_CONTEXT() REPRESENTATION_CONTEXT('2D SPACE',''
  ) );
#546 = ORIENTED_EDGE('',*,*,#547,.T.);
#547 = EDGE_CURVE('',#520,#463,#548,.T.);
#548 = SURFACE_CURVE('',#549,(#553,#560),.PCURVE_S1.);
#549 = LINE('',#550,#551);
#550 = CARTESIAN_POINT('',(-40.4590159844,48.252249692584,8.009813692897
    ));
#551 = VECTOR('',#552,1.);
#552 = DIRECTION('',(1.794552262457E-04,-0.999999964976,
    -1.945340066827E-04));
#553 = PCURVE('',#478,#554);
#554 = DEFINITIONAL_REPRESENTATION('',(#555),#559);
#555 = LINE('',#556,#557);
#556 = CARTESIAN_POINT('',(-29.8580337727,27.97853182897));
#557 = VECTOR('',#558,1.);
#558 = DIRECTION('',(1.790704185072E-04,-0.999999983967));
#559 = ( GEOMETRIC_REPRESENTATION_CONTEXT(2) 
PARAMETRIC_REPRESENTATION_CONTEXT() REPRESENTATION_CONTEXT('2D SPACE',''
  ) );
#560 = PCURVE('',#561,#566);
#561 = PLANE('',#562);
#562 = AXIS2_PLACEMENT_3D('',#563,#564,#565);
#563 = CARTESIAN_POINT('',(-40.44169447144,-48.27050263643,
    7.991036734493));
#564 = DIRECTION('',(-0.999999979818,-1.794376499887E-04,
    -9.036425127395E-05));
#565 = DIRECTION('',(1.794376507213E-04,-0.999999983901,
    -1.533864838203E-24));
#566 = DEFINITIONAL_REPRESENTATION('',(#567),#571);
#567 = LINE('',#568,#569);
#568 = CARTESIAN_POINT('',(-96.52275388323,1.87769584809E-02));
#569 = VECTOR('',#570,1.);
#570 = DIRECTION('',(0.999999981078,-1.945340074769E-04));
#571 = ( GEOMETRIC_REPRESENTATION_CONTEXT(2) 
PARAMETRIC_REPRESENTATION_CONTEXT() REPRESENTATION_CONTEXT('2D SPACE',''
  ) );
#572 = ORIENTED_EDGE('',*,*,#462,.T.);
#573 = ADVANCED_FACE('',(#574),#561,.T.);
#574 = FACE_BOUND('',#575,.T.);
#575 = EDGE_LOOP('',(#576,#577,#605));
#576 = ORIENTED_EDGE('',*,*,#547,.F.);
#577 = ORIENTED_EDGE('',*,*,#578,.T.);
#578 = EDGE_CURVE('',#520,#579,#581,.T.);
#579 = VERTEX_POINT('',#580);
#580 = CARTESIAN_POINT('',(-40.45829761808,48.295341729158,
    -2.542843017279E-02));
#581 = SURFACE_CURVE('',#582,(#586,#593),.PCURVE_S1.);
#582 = LINE('',#583,#584);
#583 = CARTESIAN_POINT('',(-40.4590159844,48.252249692584,8.009813692897
    ));
#584 = VECTOR('',#585,1.);
#585 = DIRECTION('',(8.940066460325E-05,5.362802524457E-03,
    -0.999985616075));
#586 = PCURVE('',#561,#587);
#587 = DEFINITIONAL_REPRESENTATION('',(#588),#592);
#588 = LINE('',#589,#590);
#589 = CARTESIAN_POINT('',(-96.52275388323,1.87769584809E-02));
#590 = VECTOR('',#591,1.);
#591 = DIRECTION('',(-5.362786396276E-03,-0.999985620158));
#592 = ( GEOMETRIC_REPRESENTATION_CONTEXT(2) 
PARAMETRIC_REPRESENTATION_CONTEXT() REPRESENTATION_CONTEXT('2D SPACE',''
  ) );
#593 = PCURVE('',#594,#599);
#594 = PLANE('',#595);
#595 = AXIS2_PLACEMENT_3D('',#596,#597,#598);
#596 = CARTESIAN_POINT('',(40.497232373626,48.270512200596,
    7.977485493919));
#597 = DIRECTION('',(-2.234401447012E-04,0.999985595216,
    5.362782436607E-03));
#598 = DIRECTION('',(-2.581390241545E-24,-5.362782570477E-03,
    0.999985620178));
#599 = DEFINITIONAL_REPRESENTATION('',(#600),#604);
#600 = LINE('',#601,#602);
#601 = CARTESIAN_POINT('',(3.24256719641E-02,-80.95625037892));
#602 = VECTOR('',#603,1.);
#603 = DIRECTION('',(-0.999999996004,8.940066683494E-05));
#604 = ( GEOMETRIC_REPRESENTATION_CONTEXT(2) 
PARAMETRIC_REPRESENTATION_CONTEXT() REPRESENTATION_CONTEXT('2D SPACE',''
  ) );
#605 = ORIENTED_EDGE('',*,*,#606,.T.);
#606 = EDGE_CURVE('',#579,#463,#607,.T.);
#607 = SURFACE_CURVE('',#608,(#612,#619),.PCURVE_S1.);
#608 = LINE('',#609,#610);
#609 = CARTESIAN_POINT('',(-40.45829761808,48.295341729158,
    -2.542843017279E-02));
#610 = VECTOR('',#611,1.);
#611 = DIRECTION('',(1.713466037603E-04,-0.99657190443,
    8.273094910975E-02));
#612 = PCURVE('',#561,#613);
#613 = DEFINITIONAL_REPRESENTATION('',(#614),#618);
#614 = LINE('',#615,#616);
#615 = CARTESIAN_POINT('',(-96.56584579021,-8.016465197395));
#616 = VECTOR('',#617,1.);
#617 = DIRECTION('',(0.996571919133,8.273094944753E-02));
#618 = ( GEOMETRIC_REPRESENTATION_CONTEXT(2) 
PARAMETRIC_REPRESENTATION_CONTEXT() REPRESENTATION_CONTEXT('2D SPACE',''
  ) );
#619 = PCURVE('',#620,#625);
#620 = PLANE('',#621);
#621 = AXIS2_PLACEMENT_3D('',#622,#623,#624);
#622 = CARTESIAN_POINT('',(-40.44169447144,-48.27050263643,
    7.991036734493));
#623 = DIRECTION('',(-0.999982864678,3.133505047247E-04,
    5.845695983582E-03));
#624 = DIRECTION('',(-5.845696270573E-03,9.049576224405E-23,
    -0.999982913772));
#625 = DEFINITIONAL_REPRESENTATION('',(#626),#630);
#626 = LINE('',#627,#628);
#627 = CARTESIAN_POINT('',(8.016425250463,-96.56584910641));
#628 = VECTOR('',#629,1.);
#629 = DIRECTION('',(-8.273053719006E-02,0.996571953356));
#630 = ( GEOMETRIC_REPRESENTATION_CONTEXT(2) 
PARAMETRIC_REPRESENTATION_CONTEXT() REPRESENTATION_CONTEXT('2D SPACE',''
  ) );
#631 = ADVANCED_FACE('',(#632),#594,.T.);
#632 = FACE_BOUND('',#633,.T.);
#633 = EDGE_LOOP('',(#634,#660,#661));
#634 = ORIENTED_EDGE('',*,*,#635,.F.);
#635 = EDGE_CURVE('',#579,#172,#636,.T.);
#636 = SURFACE_CURVE('',#637,(#641,#648),.PCURVE_S1.);
#637 = LINE('',#638,#639);
#638 = CARTESIAN_POINT('',(-40.45829761808,48.295341729158,
    -2.542843017279E-02));
#639 = VECTOR('',#640,1.);
#640 = DIRECTION('',(0.995149254547,-3.052180233005E-04,
    9.837615573116E-02));
#641 = PCURVE('',#594,#642);
#642 = DEFINITIONAL_REPRESENTATION('',(#643),#647);
#643 = LINE('',#644,#645);
#644 = CARTESIAN_POINT('',(-8.002931998978,-80.95553201258));
#645 = VECTOR('',#646,1.);
#646 = DIRECTION('',(9.837637791747E-02,0.995149279389));
#647 = ( GEOMETRIC_REPRESENTATION_CONTEXT(2) 
PARAMETRIC_REPRESENTATION_CONTEXT() REPRESENTATION_CONTEXT('2D SPACE',''
  ) );
#648 = PCURVE('',#649,#654);
#649 = PLANE('',#650);
#650 = AXIS2_PLACEMENT_3D('',#651,#652,#653);
#651 = CARTESIAN_POINT('',(40.497232373626,48.270512200596,
    7.977485493919));
#652 = DIRECTION('',(3.543491748359E-04,0.999999821081,
    -4.819495958527E-04));
#653 = DIRECTION('',(1.589627416902E-23,4.819496261103E-04,
    0.999999883862));
#654 = DEFINITIONAL_REPRESENTATION('',(#655),#659);
#655 = LINE('',#656,#657);
#656 = CARTESIAN_POINT('',(-8.002901028069,-80.95553507423));
#657 = VECTOR('',#658,1.);
#658 = DIRECTION('',(9.837599720627E-02,0.995149317024));
#659 = ( GEOMETRIC_REPRESENTATION_CONTEXT(2) 
PARAMETRIC_REPRESENTATION_CONTEXT() REPRESENTATION_CONTEXT('2D SPACE',''
  ) );
#660 = ORIENTED_EDGE('',*,*,#578,.F.);
#661 = ORIENTED_EDGE('',*,*,#662,.T.);
#662 = EDGE_CURVE('',#520,#172,#663,.T.);
#663 = SURFACE_CURVE('',#664,(#668,#675),.PCURVE_S1.);
#664 = LINE('',#665,#666);
#665 = CARTESIAN_POINT('',(-40.4590159844,48.252249692584,8.009813692897
    ));
#666 = VECTOR('',#667,1.);
#667 = DIRECTION('',(0.999999894824,2.255848864341E-04,
    -3.993292208286E-04));
#668 = PCURVE('',#594,#669);
#669 = DEFINITIONAL_REPRESENTATION('',(#670),#674);
#670 = LINE('',#671,#672);
#671 = CARTESIAN_POINT('',(3.24256719641E-02,-80.95625037892));
#672 = VECTOR('',#673,1.);
#673 = DIRECTION('',(-4.005332412427E-04,0.999999919787));
#674 = ( GEOMETRIC_REPRESENTATION_CONTEXT(2) 
PARAMETRIC_REPRESENTATION_CONTEXT() REPRESENTATION_CONTEXT('2D SPACE',''
  ) );
#675 = PCURVE('',#535,#676);
#676 = DEFINITIONAL_REPRESENTATION('',(#677),#681);
#677 = LINE('',#678,#679);
#678 = CARTESIAN_POINT('',(-1.833809812751E-02,80.956254795741));
#679 = VECTOR('',#680,1.);
#680 = DIRECTION('',(2.265186019697E-04,-0.999999974345));
#681 = ( GEOMETRIC_REPRESENTATION_CONTEXT(2) 
PARAMETRIC_REPRESENTATION_CONTEXT() REPRESENTATION_CONTEXT('2D SPACE',''
  ) );
#682 = ADVANCED_FACE('',(#683),#649,.T.);
#683 = FACE_BOUND('',#684,.T.);
#684 = EDGE_LOOP('',(#685,#713,#739));
#685 = ORIENTED_EDGE('',*,*,#686,.F.);
#686 = EDGE_CURVE('',#687,#172,#689,.T.);
#687 = VERTEX_POINT('',#688);
#688 = CARTESIAN_POINT('',(40.435967948172,48.266674293415,
    -3.085298473275E-02));
#689 = SURFACE_CURVE('',#690,(#694,#701),.PCURVE_S1.);
#690 = LINE('',#691,#692);
#691 = CARTESIAN_POINT('',(40.435967948172,48.266674293415,
    -3.085298473275E-02));
#692 = VECTOR('',#693,1.);
#693 = DIRECTION('',(7.649854704666E-03,4.792248044318E-04,
    0.999970624602));
#694 = PCURVE('',#649,#695);
#695 = DEFINITIONAL_REPRESENTATION('',(#696),#700);
#696 = LINE('',#697,#698);
#697 = CARTESIAN_POINT('',(-8.008339398259,-6.126442930064E-02));
#698 = VECTOR('',#699,1.);
#699 = DIRECTION('',(0.99997073943,7.649855184937E-03));
#700 = ( GEOMETRIC_REPRESENTATION_CONTEXT(2) 
PARAMETRIC_REPRESENTATION_CONTEXT() REPRESENTATION_CONTEXT('2D SPACE',''
  ) );
#701 = PCURVE('',#702,#707);
#702 = PLANE('',#703);
#703 = AXIS2_PLACEMENT_3D('',#704,#705,#706);
#704 = CARTESIAN_POINT('',(40.47120561941,-48.25661172273,7.972299860526
    ));
#705 = DIRECTION('',(0.999970704177,-2.69212652454E-04,
    -7.649726296251E-03));
#706 = DIRECTION('',(7.64972657346E-03,-6.326912563765E-23,
    0.999970740414));
#707 = DEFINITIONAL_REPRESENTATION('',(#708),#712);
#708 = LINE('',#709,#710);
#709 = CARTESIAN_POINT('',(-8.003188234867,-96.52328951393));
#710 = VECTOR('',#711,1.);
#711 = DIRECTION('',(0.999999885172,-4.792248217978E-04));
#712 = ( GEOMETRIC_REPRESENTATION_CONTEXT(2) 
PARAMETRIC_REPRESENTATION_CONTEXT() REPRESENTATION_CONTEXT('2D SPACE',''
  ) );
#713 = ORIENTED_EDGE('',*,*,#714,.F.);
#714 = EDGE_CURVE('',#579,#687,#715,.T.);
#715 = SURFACE_CURVE('',#716,(#720,#727),.PCURVE_S1.);
#716 = LINE('',#717,#718);
#717 = CARTESIAN_POINT('',(-40.45829761808,48.295341729158,
    -2.542843017279E-02));
#718 = VECTOR('',#719,1.);
#719 = DIRECTION('',(0.999999934959,-3.543815334517E-04,
    -6.705733922143E-05));
#720 = PCURVE('',#649,#721);
#721 = DEFINITIONAL_REPRESENTATION('',(#722),#726);
#722 = LINE('',#723,#724);
#723 = CARTESIAN_POINT('',(-8.002901028069,-80.95553507423));
#724 = VECTOR('',#725,1.);
#725 = DIRECTION('',(-6.722812548109E-05,0.99999999774));
#726 = ( GEOMETRIC_REPRESENTATION_CONTEXT(2) 
PARAMETRIC_REPRESENTATION_CONTEXT() REPRESENTATION_CONTEXT('2D SPACE',''
  ) );
#727 = PCURVE('',#728,#733);
#728 = PLANE('',#729);
#729 = AXIS2_PLACEMENT_3D('',#730,#731,#732);
#730 = CARTESIAN_POINT('',(40.435967948172,48.266674293415,
    -3.085298473275E-02));
#731 = DIRECTION('',(-6.72216803509E-05,-4.637491066919E-04,
    -0.999999890209));
#732 = DIRECTION('',(-2.559639916149E-24,-0.999999892468,
    4.637491077397E-04));
#733 = DEFINITIONAL_REPRESENTATION('',(#734),#738);
#734 = LINE('',#735,#736);
#735 = CARTESIAN_POINT('',(-2.86649170284E-02,80.894265749028));
#736 = VECTOR('',#737,1.);
#737 = DIRECTION('',(3.543503975633E-04,-0.999999937218));
#738 = ( GEOMETRIC_REPRESENTATION_CONTEXT(2) 
PARAMETRIC_REPRESENTATION_CONTEXT() REPRESENTATION_CONTEXT('2D SPACE',''
  ) );
#739 = ORIENTED_EDGE('',*,*,#635,.T.);
#740 = ADVANCED_FACE('',(#741),#620,.T.);
#741 = FACE_BOUND('',#742,.T.);
#742 = EDGE_LOOP('',(#743,#744,#767));
#743 = ORIENTED_EDGE('',*,*,#606,.F.);
#744 = ORIENTED_EDGE('',*,*,#745,.F.);
#745 = EDGE_CURVE('',#746,#579,#748,.T.);
#746 = VERTEX_POINT('',#747);
#747 = CARTESIAN_POINT('',(-40.48828627986,-48.24148992635,
    1.9342460074E-02));
#748 = SURFACE_CURVE('',#749,(#753,#760),.PCURVE_S1.);
#749 = LINE('',#750,#751);
#750 = CARTESIAN_POINT('',(-40.48828627986,-48.24148992635,
    1.9342460074E-02));
#751 = VECTOR('',#752,1.);
#752 = DIRECTION('',(3.106447206688E-04,0.999999844209,
    -4.637699674217E-04));
#753 = PCURVE('',#620,#754);
#754 = DEFINITIONAL_REPRESENTATION('',(#755),#759);
#755 = LINE('',#756,#757);
#756 = CARTESIAN_POINT('',(7.97183042979,-2.901271150468E-02));
#757 = VECTOR('',#758,1.);
#758 = DIRECTION('',(4.61946108657E-04,-0.999999893303));
#759 = ( GEOMETRIC_REPRESENTATION_CONTEXT(2) 
PARAMETRIC_REPRESENTATION_CONTEXT() REPRESENTATION_CONTEXT('2D SPACE',''
  ) );
#760 = PCURVE('',#728,#761);
#761 = DEFINITIONAL_REPRESENTATION('',(#762),#766);
#762 = LINE('',#763,#764);
#763 = CARTESIAN_POINT('',(96.508177120178,80.924254410872));
#764 = VECTOR('',#765,1.);
#765 = DIRECTION('',(-0.99999995175,-3.106447213707E-04));
#766 = ( GEOMETRIC_REPRESENTATION_CONTEXT(2) 
PARAMETRIC_REPRESENTATION_CONTEXT() REPRESENTATION_CONTEXT('2D SPACE',''
  ) );
#767 = ORIENTED_EDGE('',*,*,#768,.T.);
#768 = EDGE_CURVE('',#746,#463,#769,.T.);
#769 = SURFACE_CURVE('',#770,(#774,#781),.PCURVE_S1.);
#770 = LINE('',#771,#772);
#771 = CARTESIAN_POINT('',(-40.48828627986,-48.24148992635,
    1.9342460074E-02));
#772 = VECTOR('',#773,1.);
#773 = DIRECTION('',(5.844517175029E-03,-3.639379713014E-03,
    0.999976297986));
#774 = PCURVE('',#620,#775);
#775 = DEFINITIONAL_REPRESENTATION('',(#776),#780);
#776 = LINE('',#777,#778);
#777 = CARTESIAN_POINT('',(7.97183042979,-2.901271150468E-02));
#778 = VECTOR('',#779,1.);
#779 = DIRECTION('',(-0.999993377435,3.639379891687E-03));
#780 = ( GEOMETRIC_REPRESENTATION_CONTEXT(2) 
PARAMETRIC_REPRESENTATION_CONTEXT() REPRESENTATION_CONTEXT('2D SPACE',''
  ) );
#781 = PCURVE('',#782,#787);
#782 = PLANE('',#783);
#783 = AXIS2_PLACEMENT_3D('',#784,#785,#786);
#784 = CARTESIAN_POINT('',(40.47120561941,-48.25661172273,7.972299860526
    ));
#785 = DIRECTION('',(1.708332164348E-04,-0.999993358983,
    -3.640440267265E-03));
#786 = DIRECTION('',(1.591673577254E-24,3.640440320387E-03,
    -0.999993373575));
#787 = DEFINITIONAL_REPRESENTATION('',(#788),#792);
#788 = LINE('',#789,#790);
#789 = CARTESIAN_POINT('',(7.952959750775,-80.95949308063));
#790 = VECTOR('',#791,1.);
#791 = DIRECTION('',(-0.999982920663,5.844517260312E-03));
#792 = ( GEOMETRIC_REPRESENTATION_CONTEXT(2) 
PARAMETRIC_REPRESENTATION_CONTEXT() REPRESENTATION_CONTEXT('2D SPACE',''
  ) );
#793 = ADVANCED_FACE('',(#794),#782,.T.);
#794 = FACE_BOUND('',#795,.T.);
#795 = EDGE_LOOP('',(#796,#819,#820));
#796 = ORIENTED_EDGE('',*,*,#797,.F.);
#797 = EDGE_CURVE('',#463,#798,#800,.T.);
#798 = VERTEX_POINT('',#799);
#799 = CARTESIAN_POINT('',(40.47120561941,-48.25661172273,7.972299860526
    ));
#800 = SURFACE_CURVE('',#801,(#805,#812),.PCURVE_S1.);
#801 = LINE('',#802,#803);
#802 = CARTESIAN_POINT('',(-40.44169447144,-48.27050263643,
    7.991036734493));
#803 = VECTOR('',#804,1.);
#804 = DIRECTION('',(0.999999958451,1.716773604839E-04,
    -2.315684293419E-04));
#805 = PCURVE('',#782,#806);
#806 = DEFINITIONAL_REPRESENTATION('',(#807),#811);
#807 = LINE('',#808,#809);
#808 = CARTESIAN_POINT('',(-1.878731884984E-02,-80.91290127153));
#809 = VECTOR('',#810,1.);
#810 = DIRECTION('',(2.321918760563E-04,0.999999973043));
#811 = ( GEOMETRIC_REPRESENTATION_CONTEXT(2) 
PARAMETRIC_REPRESENTATION_CONTEXT() REPRESENTATION_CONTEXT('2D SPACE',''
  ) );
#812 = PCURVE('',#504,#813);
#813 = DEFINITIONAL_REPRESENTATION('',(#814),#818);
#814 = LINE('',#815,#816);
#815 = CARTESIAN_POINT('',(-44.49456552004,57.39851811641));
#816 = VECTOR('',#817,1.);
#817 = DIRECTION('',(1.712979462059E-04,-0.999999985329));
#818 = ( GEOMETRIC_REPRESENTATION_CONTEXT(2) 
PARAMETRIC_REPRESENTATION_CONTEXT() REPRESENTATION_CONTEXT('2D SPACE',''
  ) );
#819 = ORIENTED_EDGE('',*,*,#768,.F.);
#820 = ORIENTED_EDGE('',*,*,#821,.T.);
#821 = EDGE_CURVE('',#746,#798,#822,.T.);
#822 = SURFACE_CURVE('',#823,(#827,#834),.PCURVE_S1.);
#823 = LINE('',#824,#825);
#824 = CARTESIAN_POINT('',(-40.48828627986,-48.24148992635,
    1.9342460074E-02));
#825 = VECTOR('',#826,1.);
#826 = DIRECTION('',(0.995209686036,-1.858875084444E-04,
    9.776321530533E-02));
#827 = PCURVE('',#782,#828);
#828 = DEFINITIONAL_REPRESENTATION('',(#829),#833);
#829 = LINE('',#830,#831);
#830 = CARTESIAN_POINT('',(7.952959750775,-80.95949308063));
#831 = VECTOR('',#832,1.);
#832 = DIRECTION('',(-9.776324419711E-02,0.995209700558));
#833 = ( GEOMETRIC_REPRESENTATION_CONTEXT(2) 
PARAMETRIC_REPRESENTATION_CONTEXT() REPRESENTATION_CONTEXT('2D SPACE',''
  ) );
#834 = PCURVE('',#835,#840);
#835 = PLANE('',#836);
#836 = AXIS2_PLACEMENT_3D('',#837,#838,#839);
#837 = CARTESIAN_POINT('',(40.47120561941,-48.25661172273,7.972299860526
    ));
#838 = DIRECTION('',(-4.897099003402E-04,-0.999995125319,
    3.08375121381E-03));
#839 = DIRECTION('',(-1.471783909135E-22,-3.083751583577E-03,
    -0.999995245227));
#840 = DEFINITIONAL_REPRESENTATION('',(#841),#845);
#841 = LINE('',#842,#843);
#842 = CARTESIAN_POINT('',(7.95287295408,-80.95950160695));
#843 = VECTOR('',#844,1.);
#844 = DIRECTION('',(-9.776217723251E-02,0.995209805369));
#845 = ( GEOMETRIC_REPRESENTATION_CONTEXT(2) 
PARAMETRIC_REPRESENTATION_CONTEXT() REPRESENTATION_CONTEXT('2D SPACE',''
  ) );
#846 = ADVANCED_FACE('',(#847),#835,.T.);
#847 = FACE_BOUND('',#848,.T.);
#848 = EDGE_LOOP('',(#849,#850,#878));
#849 = ORIENTED_EDGE('',*,*,#821,.F.);
#850 = ORIENTED_EDGE('',*,*,#851,.T.);
#851 = EDGE_CURVE('',#746,#852,#854,.T.);
#852 = VERTEX_POINT('',#853);
#853 = CARTESIAN_POINT('',(40.449496219112,-48.28118498861,
    2.633064926398E-04));
#854 = SURFACE_CURVE('',#855,(#859,#866),.PCURVE_S1.);
#855 = LINE('',#856,#857);
#856 = CARTESIAN_POINT('',(-40.48828627986,-48.24148992635,
    1.9342460074E-02));
#857 = VECTOR('',#858,1.);
#858 = DIRECTION('',(0.999999851951,-4.904391393326E-04,
    -2.357261363932E-04));
#859 = PCURVE('',#835,#860);
#860 = DEFINITIONAL_REPRESENTATION('',(#861),#865);
#861 = LINE('',#862,#863);
#862 = CARTESIAN_POINT('',(7.95287295408,-80.95950160695));
#863 = VECTOR('',#864,1.);
#864 = DIRECTION('',(2.372374080415E-04,0.999999971859));
#865 = ( GEOMETRIC_REPRESENTATION_CONTEXT(2) 
PARAMETRIC_REPRESENTATION_CONTEXT() REPRESENTATION_CONTEXT('2D SPACE',''
  ) );
#866 = PCURVE('',#867,#872);
#867 = PLANE('',#868);
#868 = AXIS2_PLACEMENT_3D('',#869,#870,#871);
#869 = CARTESIAN_POINT('',(40.435967948172,48.266674293415,
    -3.085298473275E-02));
#870 = DIRECTION('',(-2.35884231739E-04,-3.223218006134E-04,
    -0.999999920234));
#871 = DIRECTION('',(-2.598485688992E-24,-0.999999948054,
    3.223218095806E-04));
#872 = DEFINITIONAL_REPRESENTATION('',(#873),#877);
#873 = LINE('',#874,#875);
#874 = CARTESIAN_POINT('',(96.50817538567,80.924256479402));
#875 = VECTOR('',#876,1.);
#876 = DIRECTION('',(4.903631341816E-04,-0.999999879772));
#877 = ( GEOMETRIC_REPRESENTATION_CONTEXT(2) 
PARAMETRIC_REPRESENTATION_CONTEXT() REPRESENTATION_CONTEXT('2D SPACE',''
  ) );
#878 = ORIENTED_EDGE('',*,*,#879,.T.);
#879 = EDGE_CURVE('',#852,#798,#880,.T.);
#880 = SURFACE_CURVE('',#881,(#885,#892),.PCURVE_S1.);
#881 = LINE('',#882,#883);
#882 = CARTESIAN_POINT('',(40.449496219112,-48.28118498861,
    2.633064926398E-04));
#883 = VECTOR('',#884,1.);
#884 = DIRECTION('',(2.723170738403E-03,3.082406592038E-03,0.99999154152
    ));
#885 = PCURVE('',#835,#886);
#886 = DEFINITIONAL_REPRESENTATION('',(#887),#891);
#887 = LINE('',#888,#889);
#888 = CARTESIAN_POINT('',(7.972074426656,-2.170940290109E-02));
#889 = VECTOR('',#890,1.);
#890 = DIRECTION('',(-0.999996292163,2.723171064932E-03));
#891 = ( GEOMETRIC_REPRESENTATION_CONTEXT(2) 
PARAMETRIC_REPRESENTATION_CONTEXT() REPRESENTATION_CONTEXT('2D SPACE',''
  ) );
#892 = PCURVE('',#893,#898);
#893 = PLANE('',#894);
#894 = AXIS2_PLACEMENT_3D('',#895,#896,#897);
#895 = CARTESIAN_POINT('',(40.47120561941,-48.25661172273,7.972299860526
    ));
#896 = DIRECTION('',(0.999996281266,1.392415326584E-04,
    -2.723612848298E-03));
#897 = DIRECTION('',(2.723612874701E-03,1.013890765536E-23,0.99999629096
    ));
#898 = DEFINITIONAL_REPRESENTATION('',(#899),#903);
#899 = LINE('',#900,#901);
#900 = CARTESIAN_POINT('',(-7.97206611343,2.457326611682E-02));
#901 = VECTOR('',#902,1.);
#902 = DIRECTION('',(0.999995249373,-3.082406621919E-03));
#903 = ( GEOMETRIC_REPRESENTATION_CONTEXT(2) 
PARAMETRIC_REPRESENTATION_CONTEXT() REPRESENTATION_CONTEXT('2D SPACE',''
  ) );
#904 = ADVANCED_FACE('',(#905),#504,.T.);
#905 = FACE_BOUND('',#906,.T.);
#906 = EDGE_LOOP('',(#907,#908,#909));
#907 = ORIENTED_EDGE('',*,*,#490,.F.);
#908 = ORIENTED_EDGE('',*,*,#797,.T.);
#909 = ORIENTED_EDGE('',*,*,#910,.F.);
#910 = EDGE_CURVE('',#347,#798,#911,.T.);
#911 = SURFACE_CURVE('',#912,(#916,#923),.PCURVE_S1.);
#912 = LINE('',#913,#914);
#913 = CARTESIAN_POINT('',(16.956822102267,-3.775974976541,
    8.050587036384));
#914 = VECTOR('',#915,1.);
#915 = DIRECTION('',(0.46735631295,-0.88406767595,-1.55598405689E-03));
#916 = PCURVE('',#504,#917);
#917 = DEFINITIONAL_REPRESENTATION('',(#918),#922);
#918 = LINE('',#919,#920);
#919 = CARTESIAN_POINT('',(0.,0.));
#920 = VECTOR('',#921,1.);
#921 = DIRECTION('',(-0.884069038596,-0.467356325512));
#922 = ( GEOMETRIC_REPRESENTATION_CONTEXT(2) 
PARAMETRIC_REPRESENTATION_CONTEXT() REPRESENTATION_CONTEXT('2D SPACE',''
  ) );
#923 = PCURVE('',#924,#929);
#924 = PLANE('',#925);
#925 = AXIS2_PLACEMENT_3D('',#926,#927,#928);
#926 = CARTESIAN_POINT('',(30.050068868778,-3.457989566876,
    8.020369795518));
#927 = DIRECTION('',(2.32079106103E-03,-5.331529529119E-04,
    0.999997164834));
#928 = DIRECTION('',(0.99999730696,4.566303899213E-23,
    -2.320791390874E-03));
#929 = DEFINITIONAL_REPRESENTATION('',(#930),#934);
#930 = LINE('',#931,#932);
#931 = CARTESIAN_POINT('',(-13.09328163378,-0.317985454859));
#932 = VECTOR('',#933,1.);
#933 = DIRECTION('',(0.467358665456,-0.884067801599));
#934 = ( GEOMETRIC_REPRESENTATION_CONTEXT(2) 
PARAMETRIC_REPRESENTATION_CONTEXT() REPRESENTATION_CONTEXT('2D SPACE',''
  ) );
#935 = ADVANCED_FACE('',(#936),#924,.T.);
#936 = FACE_BOUND('',#937,.T.);
#937 = EDGE_LOOP('',(#938,#959,#960));
#938 = ORIENTED_EDGE('',*,*,#939,.F.);
#939 = EDGE_CURVE('',#347,#57,#940,.T.);
#940 = SURFACE_CURVE('',#941,(#945,#952),.PCURVE_S1.);
#941 = LINE('',#942,#943);
#942 = CARTESIAN_POINT('',(16.956822102267,-3.775974976541,
    8.050587036384));
#943 = VECTOR('',#944,1.);
#944 = DIRECTION('',(0.999702559548,2.427899157556E-02,
    -2.307162889025E-03));
#945 = PCURVE('',#924,#946);
#946 = DEFINITIONAL_REPRESENTATION('',(#947),#951);
#947 = LINE('',#948,#949);
#948 = CARTESIAN_POINT('',(-13.09328163378,-0.317985454859));
#949 = VECTOR('',#950,1.);
#950 = DIRECTION('',(0.999705221753,2.427899502624E-02));
#951 = ( GEOMETRIC_REPRESENTATION_CONTEXT(2) 
PARAMETRIC_REPRESENTATION_CONTEXT() REPRESENTATION_CONTEXT('2D SPACE',''
  ) );
#952 = PCURVE('',#72,#953);
#953 = DEFINITIONAL_REPRESENTATION('',(#954),#958);
#954 = LINE('',#955,#956);
#955 = CARTESIAN_POINT('',(13.037439890164,3.033022748705));
#956 = VECTOR('',#957,1.);
#957 = DIRECTION('',(-0.999997338465,2.307176336591E-03));
#958 = ( GEOMETRIC_REPRESENTATION_CONTEXT(2) 
PARAMETRIC_REPRESENTATION_CONTEXT() REPRESENTATION_CONTEXT('2D SPACE',''
  ) );
#959 = ORIENTED_EDGE('',*,*,#910,.T.);
#960 = ORIENTED_EDGE('',*,*,#961,.F.);
#961 = EDGE_CURVE('',#57,#798,#962,.T.);
#962 = SURFACE_CURVE('',#963,(#967,#974),.PCURVE_S1.);
#963 = LINE('',#964,#965);
#964 = CARTESIAN_POINT('',(30.050068868778,-3.457989566876,
    8.020369795518));
#965 = VECTOR('',#966,1.);
#966 = DIRECTION('',(0.226572207006,-0.973993810423,-1.045117391923E-03)
  );
#967 = PCURVE('',#924,#968);
#968 = DEFINITIONAL_REPRESENTATION('',(#969),#973);
#969 = LINE('',#970,#971);
#970 = CARTESIAN_POINT('',(0.,0.));
#971 = VECTOR('',#972,1.);
#972 = DIRECTION('',(0.226574022338,-0.973993948853));
#973 = ( GEOMETRIC_REPRESENTATION_CONTEXT(2) 
PARAMETRIC_REPRESENTATION_CONTEXT() REPRESENTATION_CONTEXT('2D SPACE',''
  ) );
#974 = PCURVE('',#214,#975);
#975 = DEFINITIONAL_REPRESENTATION('',(#976),#980);
#976 = LINE('',#977,#978);
#977 = CARTESIAN_POINT('',(-10.44725113582,-51.72850184543));
#978 = VECTOR('',#979,1.);
#979 = DIRECTION('',(0.226574611108,-0.973993811891));
#980 = ( GEOMETRIC_REPRESENTATION_CONTEXT(2) 
PARAMETRIC_REPRESENTATION_CONTEXT() REPRESENTATION_CONTEXT('2D SPACE',''
  ) );
#981 = ADVANCED_FACE('',(#982),#535,.T.);
#982 = FACE_BOUND('',#983,.T.);
#983 = EDGE_LOOP('',(#984,#985,#986));
#984 = ORIENTED_EDGE('',*,*,#662,.F.);
#985 = ORIENTED_EDGE('',*,*,#519,.T.);
#986 = ORIENTED_EDGE('',*,*,#987,.T.);
#987 = EDGE_CURVE('',#405,#172,#988,.T.);
#988 = SURFACE_CURVE('',#989,(#993,#1000),.PCURVE_S1.);
#989 = LINE('',#990,#991);
#990 = CARTESIAN_POINT('',(-10.60102974471,20.273718394946,
    8.063369405581));
#991 = VECTOR('',#992,1.);
#992 = DIRECTION('',(0.87699108866,0.480504378441,-1.474011484246E-03));
#993 = PCURVE('',#535,#994);
#994 = DEFINITIONAL_REPRESENTATION('',(#995),#999);
#995 = LINE('',#996,#997);
#996 = CARTESIAN_POINT('',(-27.9969181193,51.098266181719));
#997 = VECTOR('',#998,1.);
#998 = DIRECTION('',(0.480506512016,-0.876991158399));
#999 = ( GEOMETRIC_REPRESENTATION_CONTEXT(2) 
PARAMETRIC_REPRESENTATION_CONTEXT() REPRESENTATION_CONTEXT('2D SPACE',''
  ) );
#1000 = PCURVE('',#245,#1001);
#1001 = DEFINITIONAL_REPRESENTATION('',(#1002),#1006);
#1002 = LINE('',#1003,#1004);
#1003 = CARTESIAN_POINT('',(-27.9869222857,51.103741662729));
#1004 = VECTOR('',#1005,1.);
#1005 = DIRECTION('',(0.480334955164,-0.877085133181));
#1006 = ( GEOMETRIC_REPRESENTATION_CONTEXT(2) 
PARAMETRIC_REPRESENTATION_CONTEXT() REPRESENTATION_CONTEXT('2D SPACE',''
  ) );
#1007 = ADVANCED_FACE('',(#1008),#214,.T.);
#1008 = FACE_BOUND('',#1009,.T.);
#1009 = EDGE_LOOP('',(#1010,#1011,#1012));
#1010 = ORIENTED_EDGE('',*,*,#200,.F.);
#1011 = ORIENTED_EDGE('',*,*,#961,.T.);
#1012 = ORIENTED_EDGE('',*,*,#1013,.T.);
#1013 = EDGE_CURVE('',#798,#172,#1014,.T.);
#1014 = SURFACE_CURVE('',#1015,(#1019,#1026),.PCURVE_S1.);
#1015 = LINE('',#1016,#1017);
#1016 = CARTESIAN_POINT('',(40.47120561941,-48.25661172273,
    7.972299860526));
#1017 = VECTOR('',#1018,1.);
#1018 = DIRECTION('',(2.696315001936E-04,0.999999962206,
    5.372203154243E-05));
#1019 = PCURVE('',#214,#1020);
#1020 = DEFINITIONAL_REPRESENTATION('',(#1021),#1025);
#1021 = LINE('',#1022,#1023);
#1022 = CARTESIAN_POINT('',(-2.600380909333E-02,-96.5271240688));
#1023 = VECTOR('',#1024,1.);
#1024 = DIRECTION('',(2.693937937197E-04,0.999999963713));
#1025 = ( GEOMETRIC_REPRESENTATION_CONTEXT(2) 
PARAMETRIC_REPRESENTATION_CONTEXT() REPRESENTATION_CONTEXT('2D SPACE',''
  ) );
#1026 = PCURVE('',#702,#1027);
#1027 = DEFINITIONAL_REPRESENTATION('',(#1028),#1032);
#1028 = LINE('',#1029,#1030);
#1029 = CARTESIAN_POINT('',(0.,0.));
#1030 = VECTOR('',#1031,1.);
#1031 = DIRECTION('',(5.578306691008E-05,-0.999999998444));
#1032 = ( GEOMETRIC_REPRESENTATION_CONTEXT(2) 
PARAMETRIC_REPRESENTATION_CONTEXT() REPRESENTATION_CONTEXT('2D SPACE',''
  ) );
#1033 = ADVANCED_FACE('',(#1034),#245,.T.);
#1034 = FACE_BOUND('',#1035,.T.);
#1035 = EDGE_LOOP('',(#1036,#1037,#1063));
#1036 = ORIENTED_EDGE('',*,*,#987,.F.);
#1037 = ORIENTED_EDGE('',*,*,#1038,.T.);
#1038 = EDGE_CURVE('',#405,#230,#1039,.T.);
#1039 = SURFACE_CURVE('',#1040,(#1044,#1051),.PCURVE_S1.);
#1040 = LINE('',#1041,#1042);
#1041 = CARTESIAN_POINT('',(-10.60102974471,20.273718394946,
    8.063369405581));
#1042 = VECTOR('',#1043,1.);
#1043 = DIRECTION('',(0.960714309116,0.277437671073,-7.506992081648E-03)
  );
#1044 = PCURVE('',#245,#1045);
#1045 = DEFINITIONAL_REPRESENTATION('',(#1046),#1050);
#1046 = LINE('',#1047,#1048);
#1047 = CARTESIAN_POINT('',(-27.9869222857,51.103741662729));
#1048 = VECTOR('',#1049,1.);
#1049 = DIRECTION('',(0.277182349802,-0.960817331733));
#1050 = ( GEOMETRIC_REPRESENTATION_CONTEXT(2) 
PARAMETRIC_REPRESENTATION_CONTEXT() REPRESENTATION_CONTEXT('2D SPACE',''
  ) );
#1051 = PCURVE('',#1052,#1057);
#1052 = PLANE('',#1053);
#1053 = AXIS2_PLACEMENT_3D('',#1054,#1055,#1056);
#1054 = CARTESIAN_POINT('',(-10.5692760051,20.277359820714,
    14.34951459674));
#1055 = DIRECTION('',(-0.277439295919,0.96074279763,8.449155116447E-04)
  );
#1056 = DIRECTION('',(0.960743140559,0.277439394949,3.029374748376E-20)
  );
#1057 = DEFINITIONAL_REPRESENTATION('',(#1058),#1062);
#1058 = LINE('',#1059,#1060);
#1059 = CARTESIAN_POINT('',(-3.151746247865E-02,6.286147434943));
#1060 = VECTOR('',#1061,1.);
#1061 = DIRECTION('',(0.999971822118,7.506994761203E-03));
#1062 = ( GEOMETRIC_REPRESENTATION_CONTEXT(2) 
PARAMETRIC_REPRESENTATION_CONTEXT() REPRESENTATION_CONTEXT('2D SPACE',''
  ) );
#1063 = ORIENTED_EDGE('',*,*,#229,.T.);
#1064 = ADVANCED_FACE('',(#1065),#728,.T.);
#1065 = FACE_BOUND('',#1066,.T.);
#1066 = EDGE_LOOP('',(#1067,#1088,#1089));
#1067 = ORIENTED_EDGE('',*,*,#1068,.F.);
#1068 = EDGE_CURVE('',#746,#687,#1069,.T.);
#1069 = SURFACE_CURVE('',#1070,(#1074,#1081),.PCURVE_S1.);
#1070 = LINE('',#1071,#1072);
#1071 = CARTESIAN_POINT('',(-40.48828627986,-48.24148992635,
    1.9342460074E-02));
#1072 = VECTOR('',#1073,1.);
#1073 = DIRECTION('',(0.64252794818,0.766262146377,-3.985452379798E-04)
  );
#1074 = PCURVE('',#728,#1075);
#1075 = DEFINITIONAL_REPRESENTATION('',(#1076),#1080);
#1076 = LINE('',#1077,#1078);
#1077 = CARTESIAN_POINT('',(96.508177120178,80.924254410872));
#1078 = VECTOR('',#1079,1.);
#1079 = DIRECTION('',(-0.766262248804,-0.642527949631));
#1080 = ( GEOMETRIC_REPRESENTATION_CONTEXT(2) 
PARAMETRIC_REPRESENTATION_CONTEXT() REPRESENTATION_CONTEXT('2D SPACE',''
  ) );
#1081 = PCURVE('',#867,#1082);
#1082 = DEFINITIONAL_REPRESENTATION('',(#1083),#1087);
#1083 = LINE('',#1084,#1085);
#1084 = CARTESIAN_POINT('',(96.50817538567,80.924256479402));
#1085 = VECTOR('',#1086,1.);
#1086 = DIRECTION('',(-0.766262235033,-0.642527966055));
#1087 = ( GEOMETRIC_REPRESENTATION_CONTEXT(2) 
PARAMETRIC_REPRESENTATION_CONTEXT() REPRESENTATION_CONTEXT('2D SPACE',''
  ) );
#1088 = ORIENTED_EDGE('',*,*,#745,.T.);
#1089 = ORIENTED_EDGE('',*,*,#714,.T.);
#1090 = ADVANCED_FACE('',(#1091),#867,.T.);
#1091 = FACE_BOUND('',#1092,.T.);
#1092 = EDGE_LOOP('',(#1093,#1114,#1115));
#1093 = ORIENTED_EDGE('',*,*,#1094,.T.);
#1094 = EDGE_CURVE('',#687,#852,#1095,.T.);
#1095 = SURFACE_CURVE('',#1096,(#1100,#1107),.PCURVE_S1.);
#1096 = LINE('',#1097,#1098);
#1097 = CARTESIAN_POINT('',(40.435967948172,48.266674293415,
    -3.085298473275E-02));
#1098 = VECTOR('',#1099,1.);
#1099 = DIRECTION('',(1.401198349207E-04,-0.999999938248,
    3.222887543577E-04));
#1100 = PCURVE('',#867,#1101);
#1101 = DEFINITIONAL_REPRESENTATION('',(#1102),#1106);
#1102 = LINE('',#1103,#1104);
#1103 = CARTESIAN_POINT('',(0.,0.));
#1104 = VECTOR('',#1105,1.);
#1105 = DIRECTION('',(0.999999990183,-1.401198388189E-04));
#1106 = ( GEOMETRIC_REPRESENTATION_CONTEXT(2) 
PARAMETRIC_REPRESENTATION_CONTEXT() REPRESENTATION_CONTEXT('2D SPACE',''
  ) );
#1107 = PCURVE('',#893,#1108);
#1108 = DEFINITIONAL_REPRESENTATION('',(#1109),#1113);
#1109 = LINE('',#1110,#1111);
#1110 = CARTESIAN_POINT('',(-8.003219135017,-96.52328695185));
#1111 = VECTOR('',#1112,1.);
#1112 = DIRECTION('',(3.22669191162E-04,0.999999947942));
#1113 = ( GEOMETRIC_REPRESENTATION_CONTEXT(2) 
PARAMETRIC_REPRESENTATION_CONTEXT() REPRESENTATION_CONTEXT('2D SPACE',''
  ) );
#1114 = ORIENTED_EDGE('',*,*,#851,.F.);
#1115 = ORIENTED_EDGE('',*,*,#1068,.T.);
#1116 = ADVANCED_FACE('',(#1117),#893,.T.);
#1117 = FACE_BOUND('',#1118,.T.);
#1118 = EDGE_LOOP('',(#1119,#1120,#1121));
#1119 = ORIENTED_EDGE('',*,*,#879,.F.);
#1120 = ORIENTED_EDGE('',*,*,#1094,.F.);
#1121 = ORIENTED_EDGE('',*,*,#1122,.T.);
#1122 = EDGE_CURVE('',#687,#798,#1123,.T.);
#1123 = SURFACE_CURVE('',#1124,(#1128,#1135),.PCURVE_S1.);
#1124 = LINE('',#1125,#1126);
#1125 = CARTESIAN_POINT('',(40.435967948172,48.266674293415,
    -3.085298473275E-02));
#1126 = VECTOR('',#1127,1.);
#1127 = DIRECTION('',(3.638206482293E-04,-0.996580172695,
    8.263066637926E-02));
#1128 = PCURVE('',#893,#1129);
#1129 = DEFINITIONAL_REPRESENTATION('',(#1130),#1134);
#1130 = LINE('',#1131,#1132);
#1131 = CARTESIAN_POINT('',(-8.003219135017,-96.52328695185));
#1132 = VECTOR('',#1133,1.);
#1133 = DIRECTION('',(8.263135080538E-02,0.996580182356));
#1134 = ( GEOMETRIC_REPRESENTATION_CONTEXT(2) 
PARAMETRIC_REPRESENTATION_CONTEXT() REPRESENTATION_CONTEXT('2D SPACE',''
  ) );
#1135 = PCURVE('',#702,#1136);
#1136 = DEFINITIONAL_REPRESENTATION('',(#1137),#1141);
#1137 = LINE('',#1138,#1139);
#1138 = CARTESIAN_POINT('',(-8.003188234867,-96.52328951393));
#1139 = VECTOR('',#1140,1.);
#1140 = DIRECTION('',(8.263103176862E-02,0.996580208809));
#1141 = ( GEOMETRIC_REPRESENTATION_CONTEXT(2) 
PARAMETRIC_REPRESENTATION_CONTEXT() REPRESENTATION_CONTEXT('2D SPACE',''
  ) );
#1142 = ADVANCED_FACE('',(#1143),#702,.T.);
#1143 = FACE_BOUND('',#1144,.T.);
#1144 = EDGE_LOOP('',(#1145,#1146,#1147));
#1145 = ORIENTED_EDGE('',*,*,#1122,.F.);
#1146 = ORIENTED_EDGE('',*,*,#686,.T.);
#1147 = ORIENTED_EDGE('',*,*,#1013,.F.);
#1148 = ADVANCED_FACE('',(#1149),#388,.T.);
#1149 = FACE_BOUND('',#1150,.T.);
#1150 = EDGE_LOOP('',(#1151,#1174,#1175));
#1151 = ORIENTED_EDGE('',*,*,#1152,.T.);
#1152 = EDGE_CURVE('',#1153,#115,#1155,.T.);
#1153 = VERTEX_POINT('',#1154);
#1154 = CARTESIAN_POINT('',(16.939149829274,-3.732119713148,
    11.059879542799));
#1155 = SURFACE_CURVE('',#1156,(#1160,#1167),.PCURVE_S1.);
#1156 = LINE('',#1157,#1158);
#1157 = CARTESIAN_POINT('',(16.939149829274,-3.732119713148,
    11.059879542799));
#1158 = VECTOR('',#1159,1.);
#1159 = DIRECTION('',(0.478779545492,0.786235852949,-0.390644762355));
#1160 = PCURVE('',#388,#1161);
#1161 = DEFINITIONAL_REPRESENTATION('',(#1162),#1166);
#1162 = LINE('',#1163,#1164);
#1163 = CARTESIAN_POINT('',(0.,0.));
#1164 = VECTOR('',#1165,1.);
#1165 = DIRECTION('',(-0.920528463688,-0.390675501587));
#1166 = ( GEOMETRIC_REPRESENTATION_CONTEXT(2) 
PARAMETRIC_REPRESENTATION_CONTEXT() REPRESENTATION_CONTEXT('2D SPACE',''
  ) );
#1167 = PCURVE('',#156,#1168);
#1168 = DEFINITIONAL_REPRESENTATION('',(#1169),#1173);
#1169 = LINE('',#1170,#1171);
#1170 = CARTESIAN_POINT('',(0.,0.));
#1171 = VECTOR('',#1172,1.);
#1172 = DIRECTION('',(-0.920541091903,-0.390645745039));
#1173 = ( GEOMETRIC_REPRESENTATION_CONTEXT(2) 
PARAMETRIC_REPRESENTATION_CONTEXT() REPRESENTATION_CONTEXT('2D SPACE',''
  ) );
#1174 = ORIENTED_EDGE('',*,*,#374,.F.);
#1175 = ORIENTED_EDGE('',*,*,#1176,.F.);
#1176 = EDGE_CURVE('',#1153,#347,#1177,.T.);
#1177 = SURFACE_CURVE('',#1178,(#1182,#1189),.PCURVE_S1.);
#1178 = LINE('',#1179,#1180);
#1179 = CARTESIAN_POINT('',(16.939149829274,-3.732119713148,
    11.059879542799));
#1180 = VECTOR('',#1181,1.);
#1181 = DIRECTION('',(5.871842635247E-03,-1.457148186184E-02,
    -0.999876589075));
#1182 = PCURVE('',#388,#1183);
#1183 = DEFINITIONAL_REPRESENTATION('',(#1184),#1188);
#1184 = LINE('',#1185,#1186);
#1185 = CARTESIAN_POINT('',(0.,0.));
#1186 = VECTOR('',#1187,1.);
#1187 = DIRECTION('',(9.458454531571E-03,-0.999955267818));
#1188 = ( GEOMETRIC_REPRESENTATION_CONTEXT(2) 
PARAMETRIC_REPRESENTATION_CONTEXT() REPRESENTATION_CONTEXT('2D SPACE',''
  ) );
#1189 = PCURVE('',#1190,#1195);
#1190 = PLANE('',#1191);
#1191 = AXIS2_PLACEMENT_3D('',#1192,#1193,#1194);
#1192 = CARTESIAN_POINT('',(29.990672652899,-3.469893369745,
    11.083592106868));
#1193 = DIRECTION('',(2.005873520337E-02,-0.999690928103,
    1.468657244636E-02));
#1194 = DIRECTION('',(-0.99979875992,-2.006089884195E-02,
    -4.228687020647E-20));
#1195 = DEFINITIONAL_REPRESENTATION('',(#1196),#1200);
#1196 = LINE('',#1197,#1198);
#1197 = CARTESIAN_POINT('',(13.054156830276,2.371512182767E-02));
#1198 = VECTOR('',#1199,1.);
#1199 = DIRECTION('',(-5.578343961558E-03,0.999984440918));
#1200 = ( GEOMETRIC_REPRESENTATION_CONTEXT(2) 
PARAMETRIC_REPRESENTATION_CONTEXT() REPRESENTATION_CONTEXT('2D SPACE',''
  ) );
#1201 = ADVANCED_FACE('',(#1202),#156,.T.);
#1202 = FACE_BOUND('',#1203,.T.);
#1203 = EDGE_LOOP('',(#1204,#1225,#1226));
#1204 = ORIENTED_EDGE('',*,*,#1205,.T.);
#1205 = EDGE_CURVE('',#1153,#22,#1206,.T.);
#1206 = SURFACE_CURVE('',#1207,(#1211,#1218),.PCURVE_S1.);
#1207 = LINE('',#1208,#1209);
#1208 = CARTESIAN_POINT('',(16.939149829274,-3.732119713148,
    11.059879542799));
#1209 = VECTOR('',#1210,1.);
#1210 = DIRECTION('',(0.520922097858,0.853588572682,5.168805346663E-03)
  );
#1211 = PCURVE('',#156,#1212);
#1212 = DEFINITIONAL_REPRESENTATION('',(#1213),#1217);
#1213 = LINE('',#1214,#1215);
#1214 = CARTESIAN_POINT('',(0.,0.));
#1215 = VECTOR('',#1216,1.);
#1216 = DIRECTION('',(-0.999986641569,5.168818349025E-03));
#1217 = ( GEOMETRIC_REPRESENTATION_CONTEXT(2) 
PARAMETRIC_REPRESENTATION_CONTEXT() REPRESENTATION_CONTEXT('2D SPACE',''
  ) );
#1218 = PCURVE('',#44,#1219);
#1219 = DEFINITIONAL_REPRESENTATION('',(#1220),#1224);
#1220 = LINE('',#1221,#1222);
#1221 = CARTESIAN_POINT('',(-0.262341806565,13.051542044256));
#1222 = VECTOR('',#1223,1.);
#1223 = DIRECTION('',(0.853603753924,-0.520922865007));
#1224 = ( GEOMETRIC_REPRESENTATION_CONTEXT(2) 
PARAMETRIC_REPRESENTATION_CONTEXT() REPRESENTATION_CONTEXT('2D SPACE',''
  ) );
#1225 = ORIENTED_EDGE('',*,*,#142,.T.);
#1226 = ORIENTED_EDGE('',*,*,#1152,.F.);
#1227 = ADVANCED_FACE('',(#1228),#72,.T.);
#1228 = FACE_BOUND('',#1229,.T.);
#1229 = EDGE_LOOP('',(#1230,#1251,#1252));
#1230 = ORIENTED_EDGE('',*,*,#1231,.F.);
#1231 = EDGE_CURVE('',#347,#24,#1232,.T.);
#1232 = SURFACE_CURVE('',#1233,(#1237,#1244),.PCURVE_S1.);
#1233 = LINE('',#1234,#1235);
#1234 = CARTESIAN_POINT('',(16.956822102267,-3.775974976541,
    8.050587036384));
#1235 = VECTOR('',#1236,1.);
#1236 = DIRECTION('',(0.97372240364,2.286649802541E-02,0.226587298666));
#1237 = PCURVE('',#72,#1238);
#1238 = DEFINITIONAL_REPRESENTATION('',(#1239),#1243);
#1239 = LINE('',#1240,#1241);
#1240 = CARTESIAN_POINT('',(13.037439890164,3.033022748705));
#1241 = VECTOR('',#1242,1.);
#1242 = DIRECTION('',(-0.973990553126,-0.226588619356));
#1243 = ( GEOMETRIC_REPRESENTATION_CONTEXT(2) 
PARAMETRIC_REPRESENTATION_CONTEXT() REPRESENTATION_CONTEXT('2D SPACE',''
  ) );
#1244 = PCURVE('',#1190,#1245);
#1245 = DEFINITIONAL_REPRESENTATION('',(#1246),#1250);
#1246 = LINE('',#1247,#1248);
#1247 = CARTESIAN_POINT('',(13.037367889656,3.033332226045));
#1248 = VECTOR('',#1249,1.);
#1249 = DIRECTION('',(-0.97398517417,-0.22661173954));
#1250 = ( GEOMETRIC_REPRESENTATION_CONTEXT(2) 
PARAMETRIC_REPRESENTATION_CONTEXT() REPRESENTATION_CONTEXT('2D SPACE',''
  ) );
#1251 = ORIENTED_EDGE('',*,*,#939,.T.);
#1252 = ORIENTED_EDGE('',*,*,#56,.F.);
#1253 = ADVANCED_FACE('',(#1254),#1190,.T.);
#1254 = FACE_BOUND('',#1255,.T.);
#1255 = EDGE_LOOP('',(#1256,#1277,#1278));
#1256 = ORIENTED_EDGE('',*,*,#1257,.F.);
#1257 = EDGE_CURVE('',#1153,#24,#1258,.T.);
#1258 = SURFACE_CURVE('',#1259,(#1263,#1270),.PCURVE_S1.);
#1259 = LINE('',#1260,#1261);
#1260 = CARTESIAN_POINT('',(16.939149829274,-3.732119713148,
    11.059879542799));
#1261 = VECTOR('',#1262,1.);
#1262 = DIRECTION('',(0.99979657487,2.008754101097E-02,
    1.816473116373E-03));
#1263 = PCURVE('',#1190,#1264);
#1264 = DEFINITIONAL_REPRESENTATION('',(#1265),#1269);
#1265 = LINE('',#1266,#1267);
#1266 = CARTESIAN_POINT('',(13.054156830276,2.371512182767E-02));
#1267 = VECTOR('',#1268,1.);
#1268 = DIRECTION('',(-0.999998349855,-1.816669050527E-03));
#1269 = ( GEOMETRIC_REPRESENTATION_CONTEXT(2) 
PARAMETRIC_REPRESENTATION_CONTEXT() REPRESENTATION_CONTEXT('2D SPACE',''
  ) );
#1270 = PCURVE('',#44,#1271);
#1271 = DEFINITIONAL_REPRESENTATION('',(#1272),#1276);
#1272 = LINE('',#1273,#1274);
#1273 = CARTESIAN_POINT('',(-0.262341806565,13.051542044256));
#1274 = VECTOR('',#1275,1.);
#1275 = DIRECTION('',(2.009638593083E-02,-0.999798047244));
#1276 = ( GEOMETRIC_REPRESENTATION_CONTEXT(2) 
PARAMETRIC_REPRESENTATION_CONTEXT() REPRESENTATION_CONTEXT('2D SPACE',''
  ) );
#1277 = ORIENTED_EDGE('',*,*,#1176,.T.);
#1278 = ORIENTED_EDGE('',*,*,#1231,.T.);
#1279 = ADVANCED_FACE('',(#1280),#304,.T.);
#1280 = FACE_BOUND('',#1281,.T.);
#1281 = EDGE_LOOP('',(#1282,#1305,#1306));
#1282 = ORIENTED_EDGE('',*,*,#1283,.F.);
#1283 = EDGE_CURVE('',#289,#1284,#1286,.T.);
#1284 = VERTEX_POINT('',#1285);
#1285 = CARTESIAN_POINT('',(-3.209167278354,20.468053561492,
    14.371711825466));
#1286 = SURFACE_CURVE('',#1287,(#1291,#1298),.PCURVE_S1.);
#1287 = LINE('',#1288,#1289);
#1288 = CARTESIAN_POINT('',(-3.253790908648,20.453173727391,
    8.009021334017));
#1289 = VECTOR('',#1290,1.);
#1290 = DIRECTION('',(7.013135549048E-03,2.338543341391E-03,
    0.999972673199));
#1291 = PCURVE('',#304,#1292);
#1292 = DEFINITIONAL_REPRESENTATION('',(#1293),#1297);
#1293 = LINE('',#1294,#1295);
#1294 = CARTESIAN_POINT('',(-3.845337850333E-03,-6.36286320623));
#1295 = VECTOR('',#1296,1.);
#1296 = DIRECTION('',(6.04340691209E-04,0.999999817386));
#1297 = ( GEOMETRIC_REPRESENTATION_CONTEXT(2) 
PARAMETRIC_REPRESENTATION_CONTEXT() REPRESENTATION_CONTEXT('2D SPACE',''
  ) );
#1298 = PCURVE('',#420,#1299);
#1299 = DEFINITIONAL_REPRESENTATION('',(#1300),#1304);
#1300 = LINE('',#1301,#1302);
#1301 = CARTESIAN_POINT('',(4.497387606686E-02,6.362705424447));
#1302 = VECTOR('',#1303,1.);
#1303 = DIRECTION('',(-7.068180848203E-03,-0.999975020098));
#1304 = ( GEOMETRIC_REPRESENTATION_CONTEXT(2) 
PARAMETRIC_REPRESENTATION_CONTEXT() REPRESENTATION_CONTEXT('2D SPACE',''
  ) );
#1305 = ORIENTED_EDGE('',*,*,#288,.F.);
#1306 = ORIENTED_EDGE('',*,*,#1307,.T.);
#1307 = EDGE_CURVE('',#230,#1284,#1308,.T.);
#1308 = SURFACE_CURVE('',#1309,(#1313,#1320),.PCURVE_S1.);
#1309 = LINE('',#1310,#1311);
#1310 = CARTESIAN_POINT('',(-3.697760879923,22.267263009059,
    8.00942747486));
#1311 = VECTOR('',#1312,1.);
#1312 = DIRECTION('',(7.369633715662E-02,-0.271381257629,0.959646321776)
  );
#1313 = PCURVE('',#304,#1314);
#1314 = DEFINITIONAL_REPRESENTATION('',(#1315),#1319);
#1315 = LINE('',#1316,#1317);
#1316 = CARTESIAN_POINT('',(1.863781299689,-6.362457054363));
#1317 = VECTOR('',#1318,1.);
#1318 = DIRECTION('',(-0.281120863243,0.959672371307));
#1319 = ( GEOMETRIC_REPRESENTATION_CONTEXT(2) 
PARAMETRIC_REPRESENTATION_CONTEXT() REPRESENTATION_CONTEXT('2D SPACE',''
  ) );
#1320 = PCURVE('',#1321,#1326);
#1321 = PLANE('',#1322);
#1322 = AXIS2_PLACEMENT_3D('',#1323,#1324,#1325);
#1323 = CARTESIAN_POINT('',(-10.5692760051,20.277359820714,
    14.34951459674));
#1324 = DIRECTION('',(-2.573558140432E-02,0.961425002898,0.273860628153)
  );
#1325 = DIRECTION('',(4.38448297386E-19,-0.273951364935,0.961743546716)
  );
#1326 = DEFINITIONAL_REPRESENTATION('',(#1327),#1331);
#1327 = LINE('',#1328,#1329);
#1328 = CARTESIAN_POINT('',(-6.642674569622,6.873791827639));
#1329 = VECTOR('',#1330,1.);
#1330 = DIRECTION('',(0.997278923043,7.372075457095E-02));
#1331 = ( GEOMETRIC_REPRESENTATION_CONTEXT(2) 
PARAMETRIC_REPRESENTATION_CONTEXT() REPRESENTATION_CONTEXT('2D SPACE',''
  ) );
#1332 = ADVANCED_FACE('',(#1333),#1321,.T.);
#1333 = FACE_BOUND('',#1334,.T.);
#1334 = EDGE_LOOP('',(#1335,#1363,#1364));
#1335 = ORIENTED_EDGE('',*,*,#1336,.T.);
#1336 = EDGE_CURVE('',#1337,#1284,#1339,.T.);
#1337 = VERTEX_POINT('',#1338);
#1338 = CARTESIAN_POINT('',(-10.5692760051,20.277359820714,
    14.34951459674));
#1339 = SURFACE_CURVE('',#1340,(#1344,#1351),.PCURVE_S1.);
#1340 = LINE('',#1341,#1342);
#1341 = CARTESIAN_POINT('',(-10.5692760051,20.277359820714,
    14.34951459674));
#1342 = VECTOR('',#1343,1.);
#1343 = DIRECTION('',(0.99965998517,2.590028342718E-02,
    3.014857818471E-03));
#1344 = PCURVE('',#1321,#1345);
#1345 = DEFINITIONAL_REPRESENTATION('',(#1346),#1350);
#1346 = LINE('',#1347,#1348);
#1347 = CARTESIAN_POINT('',(0.,0.));
#1348 = VECTOR('',#1349,1.);
#1349 = DIRECTION('',(-4.195897945892E-03,0.999991197181));
#1350 = ( GEOMETRIC_REPRESENTATION_CONTEXT(2) 
PARAMETRIC_REPRESENTATION_CONTEXT() REPRESENTATION_CONTEXT('2D SPACE',''
  ) );
#1351 = PCURVE('',#1352,#1357);
#1352 = PLANE('',#1353);
#1353 = AXIS2_PLACEMENT_3D('',#1354,#1355,#1356);
#1354 = CARTESIAN_POINT('',(-3.209167278354,20.468053561492,
    14.371711825466));
#1355 = DIRECTION('',(-2.644390215843E-03,-1.432597455755E-02,
    0.999893881196));
#1356 = DIRECTION('',(1.904558202306E-21,0.999897377243,
    1.432602464715E-02));
#1357 = DEFINITIONAL_REPRESENTATION('',(#1358),#1362);
#1358 = LINE('',#1359,#1360);
#1359 = CARTESIAN_POINT('',(-0.190992169306,7.360134460769));
#1360 = VECTOR('',#1361,1.);
#1361 = DIRECTION('',(2.594081639611E-02,-0.9996634804));
#1362 = ( GEOMETRIC_REPRESENTATION_CONTEXT(2) 
PARAMETRIC_REPRESENTATION_CONTEXT() REPRESENTATION_CONTEXT('2D SPACE',''
  ) );
#1363 = ORIENTED_EDGE('',*,*,#1307,.F.);
#1364 = ORIENTED_EDGE('',*,*,#1365,.F.);
#1365 = EDGE_CURVE('',#1337,#230,#1366,.T.);
#1366 = SURFACE_CURVE('',#1367,(#1371,#1378),.PCURVE_S1.);
#1367 = LINE('',#1368,#1369);
#1368 = CARTESIAN_POINT('',(-10.5692760051,20.277359820714,
    14.34951459674));
#1369 = VECTOR('',#1370,1.);
#1370 = DIRECTION('',(0.718854269784,0.20817103322,-0.663259647303));
#1371 = PCURVE('',#1321,#1372);
#1372 = DEFINITIONAL_REPRESENTATION('',(#1373),#1377);
#1373 = LINE('',#1374,#1375);
#1374 = CARTESIAN_POINT('',(0.,0.));
#1375 = VECTOR('',#1376,1.);
#1376 = DIRECTION('',(-0.694914424282,0.719092443935));
#1377 = ( GEOMETRIC_REPRESENTATION_CONTEXT(2) 
PARAMETRIC_REPRESENTATION_CONTEXT() REPRESENTATION_CONTEXT('2D SPACE',''
  ) );
#1378 = PCURVE('',#1052,#1379);
#1379 = DEFINITIONAL_REPRESENTATION('',(#1380),#1384);
#1380 = LINE('',#1381,#1382);
#1381 = CARTESIAN_POINT('',(0.,0.));
#1382 = VECTOR('',#1383,1.);
#1383 = DIRECTION('',(0.748389154259,0.663259884048));
#1384 = ( GEOMETRIC_REPRESENTATION_CONTEXT(2) 
PARAMETRIC_REPRESENTATION_CONTEXT() REPRESENTATION_CONTEXT('2D SPACE',''
  ) );
#1385 = ADVANCED_FACE('',(#1386),#1052,.T.);
#1386 = FACE_BOUND('',#1387,.T.);
#1387 = EDGE_LOOP('',(#1388,#1389,#1390));
#1388 = ORIENTED_EDGE('',*,*,#1365,.T.);
#1389 = ORIENTED_EDGE('',*,*,#1038,.F.);
#1390 = ORIENTED_EDGE('',*,*,#1391,.T.);
#1391 = EDGE_CURVE('',#405,#1337,#1392,.T.);
#1392 = SURFACE_CURVE('',#1393,(#1397,#1404),.PCURVE_S1.);
#1393 = LINE('',#1394,#1395);
#1394 = CARTESIAN_POINT('',(-10.60102974471,20.273718394946,
    8.063369405581));
#1395 = VECTOR('',#1396,1.);
#1396 = DIRECTION('',(5.051319720134E-03,5.792705368527E-04,
    0.999987074224));
#1397 = PCURVE('',#1052,#1398);
#1398 = DEFINITIONAL_REPRESENTATION('',(#1399),#1403);
#1399 = LINE('',#1400,#1401);
#1400 = CARTESIAN_POINT('',(-3.151746247865E-02,6.286147434943));
#1401 = VECTOR('',#1402,1.);
#1402 = DIRECTION('',(5.013733239143E-03,-0.999987431161));
#1403 = ( GEOMETRIC_REPRESENTATION_CONTEXT(2) 
PARAMETRIC_REPRESENTATION_CONTEXT() REPRESENTATION_CONTEXT('2D SPACE',''
  ) );
#1404 = PCURVE('',#1405,#1410);
#1405 = PLANE('',#1406);
#1406 = AXIS2_PLACEMENT_3D('',#1407,#1408,#1409);
#1407 = CARTESIAN_POINT('',(-8.445027153287,17.052932241603,
    14.308934565854));
#1408 = DIRECTION('',(-0.835035465648,-0.550177415599,4.536791323084E-03
    ));
#1409 = DIRECTION('',(0.550183077693,-0.835044059329,-1.141045945889E-19
    ));
#1410 = DEFINITIONAL_REPRESENTATION('',(#1411),#1415);
#1411 = LINE('',#1412,#1413);
#1412 = CARTESIAN_POINT('',(-3.875694484984,-6.245629435861));
#1413 = VECTOR('',#1414,1.);
#1414 = DIRECTION('',(2.295434209491E-03,0.999997365487));
#1415 = ( GEOMETRIC_REPRESENTATION_CONTEXT(2) 
PARAMETRIC_REPRESENTATION_CONTEXT() REPRESENTATION_CONTEXT('2D SPACE',''
  ) );
#1416 = ADVANCED_FACE('',(#1417),#1405,.T.);
#1417 = FACE_BOUND('',#1418,.T.);
#1418 = EDGE_LOOP('',(#1419,#1442,#1443));
#1419 = ORIENTED_EDGE('',*,*,#1420,.F.);
#1420 = EDGE_CURVE('',#1337,#1421,#1423,.T.);
#1421 = VERTEX_POINT('',#1422);
#1422 = CARTESIAN_POINT('',(-8.445027153287,17.052932241603,
    14.308934565854));
#1423 = SURFACE_CURVE('',#1424,(#1428,#1435),.PCURVE_S1.);
#1424 = LINE('',#1425,#1426);
#1425 = CARTESIAN_POINT('',(-10.5692760051,20.277359820714,
    14.34951459674));
#1426 = VECTOR('',#1427,1.);
#1427 = DIRECTION('',(0.550112883051,-0.835024178177,-1.05089372018E-02)
  );
#1428 = PCURVE('',#1405,#1429);
#1429 = DEFINITIONAL_REPRESENTATION('',(#1430),#1434);
#1430 = LINE('',#1431,#1432);
#1431 = CARTESIAN_POINT('',(-3.861264865752,4.058044851078E-02));
#1432 = VECTOR('',#1433,1.);
#1433 = DIRECTION('',(0.999944778458,-1.050904535344E-02));
#1434 = ( GEOMETRIC_REPRESENTATION_CONTEXT(2) 
PARAMETRIC_REPRESENTATION_CONTEXT() REPRESENTATION_CONTEXT('2D SPACE',''
  ) );
#1435 = PCURVE('',#1352,#1436);
#1436 = DEFINITIONAL_REPRESENTATION('',(#1437),#1441);
#1437 = LINE('',#1438,#1439);
#1438 = CARTESIAN_POINT('',(-0.190992169306,7.360134460769));
#1439 = VECTOR('',#1440,1.);
#1440 = DIRECTION('',(-0.835089036987,-0.550114806475));
#1441 = ( GEOMETRIC_REPRESENTATION_CONTEXT(2) 
PARAMETRIC_REPRESENTATION_CONTEXT() REPRESENTATION_CONTEXT('2D SPACE',''
  ) );
#1442 = ORIENTED_EDGE('',*,*,#1391,.F.);
#1443 = ORIENTED_EDGE('',*,*,#1444,.T.);
#1444 = EDGE_CURVE('',#405,#1421,#1445,.T.);
#1445 = SURFACE_CURVE('',#1446,(#1450,#1457),.PCURVE_S1.);
#1446 = LINE('',#1447,#1448);
#1447 = CARTESIAN_POINT('',(-10.60102974471,20.273718394946,
    8.063369405581));
#1448 = VECTOR('',#1449,1.);
#1449 = DIRECTION('',(0.293316326095,-0.43817626444,0.849686468133));
#1450 = PCURVE('',#1405,#1451);
#1451 = DEFINITIONAL_REPRESENTATION('',(#1452),#1456);
#1452 = LINE('',#1453,#1454);
#1453 = CARTESIAN_POINT('',(-3.875694484984,-6.245629435861));
#1454 = VECTOR('',#1455,1.);
#1455 = DIRECTION('',(0.527274165588,0.849695212593));
#1456 = ( GEOMETRIC_REPRESENTATION_CONTEXT(2) 
PARAMETRIC_REPRESENTATION_CONTEXT() REPRESENTATION_CONTEXT('2D SPACE',''
  ) );
#1457 = PCURVE('',#1458,#1463);
#1458 = PLANE('',#1459);
#1459 = AXIS2_PLACEMENT_3D('',#1460,#1461,#1462);
#1460 = CARTESIAN_POINT('',(-3.209167278354,20.468053561492,
    14.371711825466));
#1461 = DIRECTION('',(0.468625597497,-0.708776178761,-0.527282066631));
#1462 = DIRECTION('',(-2.520825734793E-17,0.596880154287,-0.80233040664)
  );
#1463 = DEFINITIONAL_REPRESENTATION('',(#1464),#1468);
#1464 = LINE('',#1465,#1466);
#1465 = CARTESIAN_POINT('',(4.945380134777,-8.367544220835));
#1466 = VECTOR('',#1467,1.);
#1467 = DIRECTION('',(-0.943268005817,0.332032331562));
#1468 = ( GEOMETRIC_REPRESENTATION_CONTEXT(2) 
PARAMETRIC_REPRESENTATION_CONTEXT() REPRESENTATION_CONTEXT('2D SPACE',''
  ) );
#1469 = ADVANCED_FACE('',(#1470),#420,.T.);
#1470 = FACE_BOUND('',#1471,.T.);
#1471 = EDGE_LOOP('',(#1472,#1493,#1494));
#1472 = ORIENTED_EDGE('',*,*,#1473,.F.);
#1473 = EDGE_CURVE('',#405,#1284,#1474,.T.);
#1474 = SURFACE_CURVE('',#1475,(#1479,#1486),.PCURVE_S1.);
#1475 = LINE('',#1476,#1477);
#1476 = CARTESIAN_POINT('',(-10.60102974471,20.273718394946,
    8.063369405581));
#1477 = VECTOR('',#1478,1.);
#1478 = DIRECTION('',(0.760503098107,1.999394562621E-02,0.649026409254)
  );
#1479 = PCURVE('',#420,#1480);
#1480 = DEFINITIONAL_REPRESENTATION('',(#1481),#1485);
#1481 = LINE('',#1482,#1483);
#1482 = CARTESIAN_POINT('',(7.394403970753,6.30835722533));
#1483 = VECTOR('',#1484,1.);
#1484 = DIRECTION('',(-0.760764577804,-0.649027932495));
#1485 = ( GEOMETRIC_REPRESENTATION_CONTEXT(2) 
PARAMETRIC_REPRESENTATION_CONTEXT() REPRESENTATION_CONTEXT('2D SPACE',''
  ) );
#1486 = PCURVE('',#1458,#1487);
#1487 = DEFINITIONAL_REPRESENTATION('',(#1488),#1492);
#1488 = LINE('',#1489,#1490);
#1489 = CARTESIAN_POINT('',(4.945380134777,-8.367544220835));
#1490 = VECTOR('',#1491,1.);
#1491 = DIRECTION('',(-0.508799633506,0.860884970797));
#1492 = ( GEOMETRIC_REPRESENTATION_CONTEXT(2) 
PARAMETRIC_REPRESENTATION_CONTEXT() REPRESENTATION_CONTEXT('2D SPACE',''
  ) );
#1493 = ORIENTED_EDGE('',*,*,#404,.T.);
#1494 = ORIENTED_EDGE('',*,*,#1283,.T.);
#1495 = ADVANCED_FACE('',(#1496),#1458,.T.);
#1496 = FACE_BOUND('',#1497,.T.);
#1497 = EDGE_LOOP('',(#1498,#1519,#1520));
#1498 = ORIENTED_EDGE('',*,*,#1499,.F.);
#1499 = EDGE_CURVE('',#1421,#1284,#1500,.T.);
#1500 = SURFACE_CURVE('',#1501,(#1505,#1512),.PCURVE_S1.);
#1501 = LINE('',#1502,#1503);
#1502 = CARTESIAN_POINT('',(-8.445027153287,17.052932241603,
    14.308934565854));
#1503 = VECTOR('',#1504,1.);
#1504 = DIRECTION('',(0.837536882023,0.546288504718,1.004195519617E-02)
  );
#1505 = PCURVE('',#1458,#1506);
#1506 = DEFINITIONAL_REPRESENTATION('',(#1507),#1511);
#1507 = LINE('',#1508,#1509);
#1508 = CARTESIAN_POINT('',(-1.988050036091,-5.926962147493));
#1509 = VECTOR('',#1510,1.);
#1510 = DIRECTION('',(0.318011800985,0.948086754698));
#1511 = ( GEOMETRIC_REPRESENTATION_CONTEXT(2) 
PARAMETRIC_REPRESENTATION_CONTEXT() REPRESENTATION_CONTEXT('2D SPACE',''
  ) );
#1512 = PCURVE('',#1352,#1513);
#1513 = DEFINITIONAL_REPRESENTATION('',(#1514),#1518);
#1514 = LINE('',#1515,#1516);
#1515 = CARTESIAN_POINT('',(-3.415670199293,5.235878181689));
#1516 = VECTOR('',#1517,1.);
#1517 = DIRECTION('',(0.546376304383,-0.837539810402));
#1518 = ( GEOMETRIC_REPRESENTATION_CONTEXT(2) 
PARAMETRIC_REPRESENTATION_CONTEXT() REPRESENTATION_CONTEXT('2D SPACE',''
  ) );
#1519 = ORIENTED_EDGE('',*,*,#1444,.F.);
#1520 = ORIENTED_EDGE('',*,*,#1473,.T.);
#1521 = ADVANCED_FACE('',(#1522),#44,.T.);
#1522 = FACE_BOUND('',#1523,.T.);
#1523 = EDGE_LOOP('',(#1524,#1525,#1526));
#1524 = ORIENTED_EDGE('',*,*,#21,.F.);
#1525 = ORIENTED_EDGE('',*,*,#1205,.F.);
#1526 = ORIENTED_EDGE('',*,*,#1257,.T.);
#1527 = ADVANCED_FACE('',(#1528),#1352,.T.);
#1528 = FACE_BOUND('',#1529,.T.);
#1529 = EDGE_LOOP('',(#1530,#1531,#1532));
#1530 = ORIENTED_EDGE('',*,*,#1336,.F.);
#1531 = ORIENTED_EDGE('',*,*,#1420,.T.);
#1532 = ORIENTED_EDGE('',*,*,#1499,.T.);
#1533 = ( GEOMETRIC_REPRESENTATION_CONTEXT(3) 
GLOBAL_UNCERTAINTY_ASSIGNED_CONTEXT((#1537)) 
GLOBAL_UNIT_ASSIGNED_CONTEXT((#1534,#1535,#1536)) REPRESENTATION_CONTEXT
('Context #1','3D Context with UNIT and UNCERTAINTY') );
#1534 = ( LENGTH_UNIT() NAMED_UNIT(*) SI_UNIT(.MILLI.,.METRE.) );
#1535 = ( NAMED_UNIT(*) PLANE_ANGLE_UNIT() SI_UNIT($,.RADIAN.) );
#1536 = ( NAMED_UNIT(*) SI_UNIT($,.STERADIAN.) SOLID_ANGLE_UNIT() );
#1537 = UNCERTAINTY_MEASURE_WITH_UNIT(LENGTH_MEASURE(1.E-07),#1534,
  'distance_accuracy_value','confusion accuracy');
#1538 = PRODUCT_TYPE('part',$,(#7));
ENDSEC;
END-ISO-10303-21;
