ISO-10303-21;
HEADER;
FILE_DESCRIPTION(('Open CASCADE Model'),'2;1');
FILE_NAME('Open CASCADE Shape Model','2026-10-04T20:44:43',('Author'),(
    'Open CASCADE'),'Open CASCADE STEP processor 7.8','Open CASCADE 7.8'
  ,'Unknown');
FILE_SCHEMA(('AUTOMOTIVE_DESIGN_CC2 { 1 2 10303 214 -1 1 5 4 }'));
ENDSEC;
DATA;
#1 = APPLICATION_PROTOCOL_DEFINITION('committee draft',
  'automotive_design',1997,#2);
#2 = APPLICATION_CONTEXT(
  'core data for automotive mechanical design processes');
#3 = SHAPE_DEFINITION_REPRESENTATION(#4,#10);
#4 = PRODUCT_DEFINITION_SHAPE('','',#5);
#5 = PRODUCT_DEFINITION('design','',#6,#9);
#6 = PRODUCT_DEFINITION_FORMATION('','',#7);
#7 = PRODUCT('Open CASCADE STEP translator 7.8 124',
  'Open CASCADE STEP translator 7.8 124','',(#8));
#8 = MECHANICAL_CONTEXT('',#2,'mechanical');
#9 = PRODUCT_DEFINITION_CONTEXT('part definition',#2,'design');
#10 = ADVANCED_BREP_SHAPE_REPRESENTATION('',(#11,#15),#861);
#11 = AXIS2_PLACEMENT_3D('',#12,#13,#14);
#12 = CARTESIAN_POINT('',(0.,0.,0.));
#13 = DIRECTION('',(0.,0.,1.));
#14 = DIRECTION('',(1.,0.,-0.));
#15 = MANIFOLD_SOLID_BREP('',#16);
#16 = CLOSED_SHELL('',(#17,#109,#167,#220,#278,#336,#394,#425,#473,#504,
    #562,#588,#619,#672,#703,#751,#777,#803,#829,#855));
#17 = ADVANCED_FACE('',(#18),#32,.T.);
#18 = FACE_BOUND('',#19,.T.);
#19 = EDGE_LOOP('',(#20,#55,#83));
#20 = ORIENTED_EDGE('',*,*,#21,.F.);
#21 = EDGE_CURVE('',#22,#24,#26,.T.);
#22 = VERTEX_POINT('',#23);
#23 = CARTESIAN_POINT('',(-33.76871406998,28.814470535563,
    1.262920220811E-02));
#24 = VERTEX_POINT('',#25);
#25 = CARTESIAN_POINT('',(-33.74221521865,-28.77428261652,
    19.933037002002));
#26 = SURFACE_CURVE('',#27,(#31,#43),.PCURVE_S1.);
#27 = LINE('',#28,#29);
#28 = CARTESIAN_POINT('',(-33.76871406998,28.814470535563,
    1.262920220811E-02));
#29 = VECTOR('',#30,1.);
#30 = DIRECTION('',(4.348582771174E-04,-0.945057794023,0.326903008329));
#31 = PCURVE('',#32,#37);
#32 = PLANE('',#33);
#33 = AXIS2_PLACEMENT_3D('',#34,#35,#36);
#34 = CARTESIAN_POINT('',(-33.74221521865,-28.77428261652,
    19.933037002002));
#35 = DIRECTION('',(-0.999999905068,-4.019408189955E-04,
    1.682484734197E-04));
#36 = DIRECTION('',(4.019408246845E-04,-0.999999919222,
    -5.381791740038E-24));
#37 = DEFINITIONAL_REPRESENTATION('',(#38),#42);
#38 = LINE('',#39,#40);
#39 = CARTESIAN_POINT('',(-57.58875915113,-19.92040808174));
#40 = VECTOR('',#41,1.);
#41 = DIRECTION('',(0.94505789247,0.326903012956));
#42 = ( GEOMETRIC_REPRESENTATION_CONTEXT(2) 
PARAMETRIC_REPRESENTATION_CONTEXT() REPRESENTATION_CONTEXT('2D SPACE',''
  ) );
#43 = PCURVE('',#44,#49);
#44 = PLANE('',#45);
#45 = AXIS2_PLACEMENT_3D('',#46,#47,#48);
#46 = CARTESIAN_POINT('',(-33.74221521865,-28.77428261652,
    19.933037002002));
#47 = DIRECTION('',(-0.999999289973,-4.827267844761E-05,
    1.19068190697E-03));
#48 = DIRECTION('',(-1.190681908357E-03,-1.187902986087E-23,
    -0.999999291138));
#49 = DEFINITIONAL_REPRESENTATION('',(#50),#54);
#50 = LINE('',#51,#52);
#51 = CARTESIAN_POINT('',(19.920425230678,-57.58875321918));
#52 = VECTOR('',#53,1.);
#53 = DIRECTION('',(-0.326903294377,0.945057795124));
#54 = ( GEOMETRIC_REPRESENTATION_CONTEXT(2) 
PARAMETRIC_REPRESENTATION_CONTEXT() REPRESENTATION_CONTEXT('2D SPACE',''
  ) );
#55 = ORIENTED_EDGE('',*,*,#56,.T.);
#56 = EDGE_CURVE('',#22,#57,#59,.T.);
#57 = VERTEX_POINT('',#58);
#58 = CARTESIAN_POINT('',(-33.74555883324,-28.82235978991,
    -5.489142035915E-02));
#59 = SURFACE_CURVE('',#60,(#64,#71),.PCURVE_S1.);
#60 = LINE('',#61,#62);
#61 = CARTESIAN_POINT('',(-33.76871406998,28.814470535563,
    1.262920220811E-02));
#62 = VECTOR('',#63,1.);
#63 = DIRECTION('',(4.017434486535E-04,-0.999999233115,
    -1.171483067431E-03));
#64 = PCURVE('',#32,#65);
#65 = DEFINITIONAL_REPRESENTATION('',(#66),#70);
#66 = LINE('',#67,#68);
#67 = CARTESIAN_POINT('',(-57.58875915113,-19.92040808174));
#68 = VECTOR('',#69,1.);
#69 = DIRECTION('',(0.999999313813,-1.171483084012E-03));
#70 = ( GEOMETRIC_REPRESENTATION_CONTEXT(2) 
PARAMETRIC_REPRESENTATION_CONTEXT() REPRESENTATION_CONTEXT('2D SPACE',''
  ) );
#71 = PCURVE('',#72,#77);
#72 = PLANE('',#73);
#73 = AXIS2_PLACEMENT_3D('',#74,#75,#76);
#74 = CARTESIAN_POINT('',(33.752751221159,-28.79820633185,
    -5.839312751539E-02));
#75 = DIRECTION('',(-5.229759986263E-05,1.171462150161E-03,
    -0.99999931247));
#76 = DIRECTION('',(-4.856030490467E-24,-0.999999313838,
    -1.171462151763E-03));
#77 = DEFINITIONAL_REPRESENTATION('',(#78),#82);
#78 = LINE('',#79,#80);
#79 = CARTESIAN_POINT('',(-57.61272053575,67.521465383478));
#80 = VECTOR('',#81,1.);
#81 = DIRECTION('',(0.999999919301,-4.017434492029E-04));
#82 = ( GEOMETRIC_REPRESENTATION_CONTEXT(2) 
PARAMETRIC_REPRESENTATION_CONTEXT() REPRESENTATION_CONTEXT('2D SPACE',''
  ) );
#83 = ORIENTED_EDGE('',*,*,#84,.T.);
#84 = EDGE_CURVE('',#57,#24,#85,.T.);
#85 = SURFACE_CURVE('',#86,(#90,#97),.PCURVE_S1.);
#86 = LINE('',#87,#88);
#87 = CARTESIAN_POINT('',(-33.74555883324,-28.82235978991,
    -5.489142035915E-02));
#88 = VECTOR('',#89,1.);
#89 = DIRECTION('',(1.672812105981E-04,2.405303472613E-03,0.999997093262
    ));
#90 = PCURVE('',#32,#91);
#91 = DEFINITIONAL_REPRESENTATION('',(#92),#96);
#92 = LINE('',#93,#94);
#93 = CARTESIAN_POINT('',(4.807582557361E-02,-19.98792870526));
#94 = VECTOR('',#95,1.);
#95 = DIRECTION('',(-2.405236041169E-03,0.999997107416));
#96 = ( GEOMETRIC_REPRESENTATION_CONTEXT(2) 
PARAMETRIC_REPRESENTATION_CONTEXT() REPRESENTATION_CONTEXT('2D SPACE',''
  ) );
#97 = PCURVE('',#98,#103);
#98 = PLANE('',#99);
#99 = AXIS2_PLACEMENT_3D('',#100,#101,#102);
#100 = CARTESIAN_POINT('',(33.752751221159,-28.79820633185,
    -5.839312751539E-02));
#101 = DIRECTION('',(3.579616895132E-04,-0.999997043329,
    2.405243472071E-03));
#102 = DIRECTION('',(1.192766123505E-22,-2.405243626171E-03,
    -0.999997107397));
#103 = DEFINITIONAL_REPRESENTATION('',(#104),#108);
#104 = LINE('',#105,#106);
#105 = CARTESIAN_POINT('',(-3.44360207614E-03,-67.4983143789));
#106 = VECTOR('',#107,1.);
#107 = DIRECTION('',(-0.999999986008,1.672812213155E-04));
#108 = ( GEOMETRIC_REPRESENTATION_CONTEXT(2) 
PARAMETRIC_REPRESENTATION_CONTEXT() REPRESENTATION_CONTEXT('2D SPACE',''
  ) );
#109 = ADVANCED_FACE('',(#110),#44,.T.);
#110 = FACE_BOUND('',#111,.T.);
#111 = EDGE_LOOP('',(#112,#140,#166));
#112 = ORIENTED_EDGE('',*,*,#113,.F.);
#113 = EDGE_CURVE('',#114,#24,#116,.T.);
#114 = VERTEX_POINT('',#115);
#115 = CARTESIAN_POINT('',(-33.74496679924,28.79112171221,
    19.955929448672));
#116 = SURFACE_CURVE('',#117,(#121,#128),.PCURVE_S1.);
#117 = LINE('',#118,#119);
#118 = CARTESIAN_POINT('',(-33.74496679924,28.79112171221,
    19.955929448672));
#119 = VECTOR('',#120,1.);
#120 = DIRECTION('',(4.779920154951E-05,-0.999999919784,
    -3.976771309132E-04));
#121 = PCURVE('',#44,#122);
#122 = DEFINITIONAL_REPRESENTATION('',(#123),#127);
#123 = LINE('',#124,#125);
#124 = CARTESIAN_POINT('',(-2.288915418484E-02,-57.5654043958));
#125 = VECTOR('',#126,1.);
#126 = DIRECTION('',(3.976199353705E-04,0.999999920949));
#127 = ( GEOMETRIC_REPRESENTATION_CONTEXT(2) 
PARAMETRIC_REPRESENTATION_CONTEXT() REPRESENTATION_CONTEXT('2D SPACE',''
  ) );
#128 = PCURVE('',#129,#134);
#129 = PLANE('',#130);
#130 = AXIS2_PLACEMENT_3D('',#131,#132,#133);
#131 = CARTESIAN_POINT('',(-28.7317508125,23.794272567334,
    24.850946838736));
#132 = DIRECTION('',(-0.698783905339,-3.178728165032E-04,0.715332756552)
  );
#133 = DIRECTION('',(0.715332792692,-2.740943342381E-21,0.698783940642)
  );
#134 = DEFINITIONAL_REPRESENTATION('',(#135),#139);
#135 = LINE('',#136,#137);
#136 = CARTESIAN_POINT('',(-7.0066773335,4.996849397325));
#137 = VECTOR('',#138,1.);
#138 = DIRECTION('',(-2.4369805631E-04,-0.999999970306));
#139 = ( GEOMETRIC_REPRESENTATION_CONTEXT(2) 
PARAMETRIC_REPRESENTATION_CONTEXT() REPRESENTATION_CONTEXT('2D SPACE',''
  ) );
#140 = ORIENTED_EDGE('',*,*,#141,.F.);
#141 = EDGE_CURVE('',#22,#114,#142,.T.);
#142 = SURFACE_CURVE('',#143,(#147,#154),.PCURVE_S1.);
#143 = LINE('',#144,#145);
#144 = CARTESIAN_POINT('',(-33.76871406998,28.814470535563,
    1.262920220811E-02));
#145 = VECTOR('',#146,1.);
#146 = DIRECTION('',(1.190737607952E-03,-1.17075862616E-03,
    0.999998605733));
#147 = PCURVE('',#44,#148);
#148 = DEFINITIONAL_REPRESENTATION('',(#149),#153);
#149 = LINE('',#150,#151);
#150 = CARTESIAN_POINT('',(19.920425230678,-57.58875321918));
#151 = VECTOR('',#152,1.);
#152 = DIRECTION('',(-0.999999314662,1.170758627524E-03));
#153 = ( GEOMETRIC_REPRESENTATION_CONTEXT(2) 
PARAMETRIC_REPRESENTATION_CONTEXT() REPRESENTATION_CONTEXT('2D SPACE',''
  ) );
#154 = PCURVE('',#155,#160);
#155 = PLANE('',#156);
#156 = AXIS2_PLACEMENT_3D('',#157,#158,#159);
#157 = CARTESIAN_POINT('',(33.760719836861,28.808339093487,
    2.273452401505E-02));
#158 = DIRECTION('',(9.062134368018E-05,0.999999310681,
    1.170651545093E-03));
#159 = DIRECTION('',(4.342207607824E-24,-1.1706515499E-03,0.999999314787
    ));
#160 = DEFINITIONAL_REPRESENTATION('',(#161),#165);
#161 = LINE('',#162,#163);
#162 = CARTESIAN_POINT('',(-1.011249266482E-02,-67.52943418412));
#163 = VECTOR('',#164,1.);
#164 = DIRECTION('',(0.999999291072,1.190737612841E-03));
#165 = ( GEOMETRIC_REPRESENTATION_CONTEXT(2) 
PARAMETRIC_REPRESENTATION_CONTEXT() REPRESENTATION_CONTEXT('2D SPACE',''
  ) );
#166 = ORIENTED_EDGE('',*,*,#21,.T.);
#167 = ADVANCED_FACE('',(#168),#98,.T.);
#168 = FACE_BOUND('',#169,.T.);
#169 = EDGE_LOOP('',(#170,#198,#199));
#170 = ORIENTED_EDGE('',*,*,#171,.F.);
#171 = EDGE_CURVE('',#24,#172,#174,.T.);
#172 = VERTEX_POINT('',#173);
#173 = CARTESIAN_POINT('',(33.752751221159,-28.79820633185,
    -5.839312751539E-02));
#174 = SURFACE_CURVE('',#175,(#179,#186),.PCURVE_S1.);
#175 = LINE('',#176,#177);
#176 = CARTESIAN_POINT('',(-33.74221521865,-28.77428261652,
    19.933037002002));
#177 = VECTOR('',#178,1.);
#178 = DIRECTION('',(0.958825442538,-3.398574463975E-04,-0.28399587187)
  );
#179 = PCURVE('',#98,#180);
#180 = DEFINITIONAL_REPRESENTATION('',(#181),#185);
#181 = LINE('',#182,#183);
#182 = CARTESIAN_POINT('',(-19.99142984461,-67.4949707641));
#183 = VECTOR('',#184,1.);
#184 = DIRECTION('',(0.283995867823,0.958825503968));
#185 = ( GEOMETRIC_REPRESENTATION_CONTEXT(2) 
PARAMETRIC_REPRESENTATION_CONTEXT() REPRESENTATION_CONTEXT('2D SPACE',''
  ) );
#186 = PCURVE('',#187,#192);
#187 = PLANE('',#188);
#188 = AXIS2_PLACEMENT_3D('',#189,#190,#191);
#189 = CARTESIAN_POINT('',(33.693569639203,-28.78692128789,
    19.979757567702));
#190 = DIRECTION('',(-1.878076343726E-04,-0.999999824092,
    5.626231375211E-04));
#191 = DIRECTION('',(-2.709918406448E-24,-5.626231474434E-04,
    -0.999999841728));
#192 = DEFINITIONAL_REPRESENTATION('',(#193),#197);
#193 = LINE('',#194,#195);
#194 = CARTESIAN_POINT('',(4.671344749595E-02,-67.43578604714));
#195 = VECTOR('',#196,1.);
#196 = DIRECTION('',(0.283996018133,0.958825459448));
#197 = ( GEOMETRIC_REPRESENTATION_CONTEXT(2) 
PARAMETRIC_REPRESENTATION_CONTEXT() REPRESENTATION_CONTEXT('2D SPACE',''
  ) );
#198 = ORIENTED_EDGE('',*,*,#84,.F.);
#199 = ORIENTED_EDGE('',*,*,#200,.T.);
#200 = EDGE_CURVE('',#57,#172,#201,.T.);
#201 = SURFACE_CURVE('',#202,(#206,#213),.PCURVE_S1.);
#202 = LINE('',#203,#204);
#203 = CARTESIAN_POINT('',(-33.74555883324,-28.82235978991,
    -5.489142035915E-02));
#204 = VECTOR('',#205,1.);
#205 = DIRECTION('',(0.99999993463,3.578379438467E-04,-5.18784385048E-05
    ));
#206 = PCURVE('',#98,#207);
#207 = DEFINITIONAL_REPRESENTATION('',(#208),#212);
#208 = LINE('',#209,#210);
#209 = CARTESIAN_POINT('',(-3.44360207614E-03,-67.4983143789));
#210 = VECTOR('',#211,1.);
#211 = DIRECTION('',(5.101760100746E-05,0.999999998699));
#212 = ( GEOMETRIC_REPRESENTATION_CONTEXT(2) 
PARAMETRIC_REPRESENTATION_CONTEXT() REPRESENTATION_CONTEXT('2D SPACE',''
  ) );
#213 = PCURVE('',#72,#214);
#214 = DEFINITIONAL_REPRESENTATION('',(#215),#219);
#215 = LINE('',#216,#217);
#216 = CARTESIAN_POINT('',(2.414933937131E-02,67.498310146705));
#217 = VECTOR('',#218,1.);
#218 = DIRECTION('',(-3.577769246847E-04,-0.999999935998));
#219 = ( GEOMETRIC_REPRESENTATION_CONTEXT(2) 
PARAMETRIC_REPRESENTATION_CONTEXT() REPRESENTATION_CONTEXT('2D SPACE',''
  ) );
#220 = ADVANCED_FACE('',(#221),#187,.T.);
#221 = FACE_BOUND('',#222,.T.);
#222 = EDGE_LOOP('',(#223,#251,#252));
#223 = ORIENTED_EDGE('',*,*,#224,.F.);
#224 = EDGE_CURVE('',#24,#225,#227,.T.);
#225 = VERTEX_POINT('',#226);
#226 = CARTESIAN_POINT('',(33.693569639203,-28.78692128789,
    19.979757567702));
#227 = SURFACE_CURVE('',#228,(#232,#239),.PCURVE_S1.);
#228 = LINE('',#229,#230);
#229 = CARTESIAN_POINT('',(-33.74221521865,-28.77428261652,
    19.933037002002));
#230 = VECTOR('',#231,1.);
#231 = DIRECTION('',(0.999999742441,-1.874178249669E-04,
    6.928154505024E-04));
#232 = PCURVE('',#187,#233);
#233 = DEFINITIONAL_REPRESENTATION('',(#234),#238);
#234 = LINE('',#235,#236);
#235 = CARTESIAN_POINT('',(4.671344749595E-02,-67.43578604714));
#236 = VECTOR('',#237,1.);
#237 = DIRECTION('',(-6.927098952423E-04,0.999999760076));
#238 = ( GEOMETRIC_REPRESENTATION_CONTEXT(2) 
PARAMETRIC_REPRESENTATION_CONTEXT() REPRESENTATION_CONTEXT('2D SPACE',''
  ) );
#239 = PCURVE('',#240,#245);
#240 = PLANE('',#241);
#241 = AXIS2_PLACEMENT_3D('',#242,#243,#244);
#242 = CARTESIAN_POINT('',(28.718680170798,-23.83204525726,
    24.987779389658));
#243 = DIRECTION('',(-6.203457218717E-04,-0.711176535231,0.703013193978)
  );
#244 = DIRECTION('',(-2.452373825877E-20,-0.703013329248,-0.711176672072
    ));
#245 = DEFINITIONAL_REPRESENTATION('',(#246),#250);
#246 = LINE('',#247,#248);
#247 = CARTESIAN_POINT('',(7.069273609298,-62.46090740783));
#248 = VECTOR('',#249,1.);
#249 = DIRECTION('',(-3.609569573578E-04,0.999999934855));
#250 = ( GEOMETRIC_REPRESENTATION_CONTEXT(2) 
PARAMETRIC_REPRESENTATION_CONTEXT() REPRESENTATION_CONTEXT('2D SPACE',''
  ) );
#251 = ORIENTED_EDGE('',*,*,#171,.T.);
#252 = ORIENTED_EDGE('',*,*,#253,.F.);
#253 = EDGE_CURVE('',#225,#172,#254,.T.);
#254 = SURFACE_CURVE('',#255,(#259,#266),.PCURVE_S1.);
#255 = LINE('',#256,#257);
#256 = CARTESIAN_POINT('',(33.693569639203,-28.78692128789,
    19.979757567702));
#257 = VECTOR('',#258,1.);
#258 = DIRECTION('',(2.953431948759E-03,-5.631753706142E-04,
    -0.999995480026));
#259 = PCURVE('',#187,#260);
#260 = DEFINITIONAL_REPRESENTATION('',(#261),#265);
#261 = LINE('',#262,#263);
#262 = CARTESIAN_POINT('',(-0.,0.));
#263 = VECTOR('',#264,1.);
#264 = DIRECTION('',(0.99999563861,2.953432000845E-03));
#265 = ( GEOMETRIC_REPRESENTATION_CONTEXT(2) 
PARAMETRIC_REPRESENTATION_CONTEXT() REPRESENTATION_CONTEXT('2D SPACE',''
  ) );
#266 = PCURVE('',#267,#272);
#267 = PLANE('',#268);
#268 = AXIS2_PLACEMENT_3D('',#269,#270,#271);
#269 = CARTESIAN_POINT('',(33.693569639203,-28.78692128789,
    19.979757567702));
#270 = DIRECTION('',(0.999995628221,-1.4248714877E-04,2.953512632058E-03
    ));
#271 = DIRECTION('',(-2.95351266204E-03,-4.605077669993E-23,
    0.999995638372));
#272 = DEFINITIONAL_REPRESENTATION('',(#273),#277);
#273 = LINE('',#274,#275);
#274 = CARTESIAN_POINT('',(0.,-0.));
#275 = VECTOR('',#276,1.);
#276 = DIRECTION('',(-0.999999841417,5.631753763311E-04));
#277 = ( GEOMETRIC_REPRESENTATION_CONTEXT(2) 
PARAMETRIC_REPRESENTATION_CONTEXT() REPRESENTATION_CONTEXT('2D SPACE',''
  ) );
#278 = ADVANCED_FACE('',(#279),#129,.T.);
#279 = FACE_BOUND('',#280,.T.);
#280 = EDGE_LOOP('',(#281,#309,#310));
#281 = ORIENTED_EDGE('',*,*,#282,.F.);
#282 = EDGE_CURVE('',#114,#283,#285,.T.);
#283 = VERTEX_POINT('',#284);
#284 = CARTESIAN_POINT('',(-28.7317508125,23.794272567334,
    24.850946838736));
#285 = SURFACE_CURVE('',#286,(#290,#297),.PCURVE_S1.);
#286 = LINE('',#287,#288);
#287 = CARTESIAN_POINT('',(-33.74496679924,28.79112171221,
    19.955929448672));
#288 = VECTOR('',#289,1.);
#289 = DIRECTION('',(0.582530416475,-0.580628606693,0.568795864059));
#290 = PCURVE('',#129,#291);
#291 = DEFINITIONAL_REPRESENTATION('',(#292),#296);
#292 = LINE('',#293,#294);
#293 = CARTESIAN_POINT('',(-7.0066773335,4.996849397325));
#294 = VECTOR('',#295,1.);
#295 = DIRECTION('',(0.814168524953,-0.580628636027));
#296 = ( GEOMETRIC_REPRESENTATION_CONTEXT(2) 
PARAMETRIC_REPRESENTATION_CONTEXT() REPRESENTATION_CONTEXT('2D SPACE',''
  ) );
#297 = PCURVE('',#298,#303);
#298 = PLANE('',#299);
#299 = AXIS2_PLACEMENT_3D('',#300,#301,#302);
#300 = CARTESIAN_POINT('',(28.715986184712,23.804325666136,
    24.936873190623));
#301 = DIRECTION('',(-1.191718824861E-03,0.699179525083,0.714945152799)
  );
#302 = DIRECTION('',(-1.245893519654E-19,0.71494566048,-0.699180021569)
  );
#303 = DEFINITIONAL_REPRESENTATION('',(#304),#308);
#304 = LINE('',#305,#306);
#305 = CARTESIAN_POINT('',(7.04786454577,62.460997337329));
#306 = VECTOR('',#307,1.);
#307 = DIRECTION('',(-0.812808607207,-0.582530830129));
#308 = ( GEOMETRIC_REPRESENTATION_CONTEXT(2) 
PARAMETRIC_REPRESENTATION_CONTEXT() REPRESENTATION_CONTEXT('2D SPACE',''
  ) );
#309 = ORIENTED_EDGE('',*,*,#113,.T.);
#310 = ORIENTED_EDGE('',*,*,#311,.T.);
#311 = EDGE_CURVE('',#24,#283,#312,.T.);
#312 = SURFACE_CURVE('',#313,(#317,#324),.PCURVE_S1.);
#313 = LINE('',#314,#315);
#314 = CARTESIAN_POINT('',(-33.74221521865,-28.77428261652,
    19.933037002002));
#315 = VECTOR('',#316,1.);
#316 = DIRECTION('',(9.447413187623E-02,0.991199260669,
    9.272898174882E-02));
#317 = PCURVE('',#129,#318);
#318 = DEFINITIONAL_REPRESENTATION('',(#319),#323);
#319 = LINE('',#320,#321);
#320 = CARTESIAN_POINT('',(-7.020705911771,-52.5685578397));
#321 = VECTOR('',#322,1.);
#322 = DIRECTION('',(0.13237796787,0.991199310746));
#323 = ( GEOMETRIC_REPRESENTATION_CONTEXT(2) 
PARAMETRIC_REPRESENTATION_CONTEXT() REPRESENTATION_CONTEXT('2D SPACE',''
  ) );
#324 = PCURVE('',#325,#330);
#325 = PLANE('',#326);
#326 = AXIS2_PLACEMENT_3D('',#327,#328,#329);
#327 = CARTESIAN_POINT('',(-28.72123131156,-23.84173293552,
    24.906289374059));
#328 = DIRECTION('',(0.704053468752,-6.695570841566E-04,-0.710146650229)
  );
#329 = DIRECTION('',(-0.71014680941,1.123199500922E-20,-0.704053626568)
  );
#330 = DEFINITIONAL_REPRESENTATION('',(#331),#335);
#331 = LINE('',#332,#333);
#332 = CARTESIAN_POINT('',(7.067072070111,-4.932550786647));
#333 = VECTOR('',#334,1.);
#334 = DIRECTION('',(-0.132376679212,0.991199482849));
#335 = ( GEOMETRIC_REPRESENTATION_CONTEXT(2) 
PARAMETRIC_REPRESENTATION_CONTEXT() REPRESENTATION_CONTEXT('2D SPACE',''
  ) );
#336 = ADVANCED_FACE('',(#337),#325,.F.);
#337 = FACE_BOUND('',#338,.F.);
#338 = EDGE_LOOP('',(#339,#367,#368));
#339 = ORIENTED_EDGE('',*,*,#340,.F.);
#340 = EDGE_CURVE('',#24,#341,#343,.T.);
#341 = VERTEX_POINT('',#342);
#342 = CARTESIAN_POINT('',(-28.72123131156,-23.84173293552,
    24.906289374059));
#343 = SURFACE_CURVE('',#344,(#348,#355),.PCURVE_S1.);
#344 = LINE('',#345,#346);
#345 = CARTESIAN_POINT('',(-33.74221521865,-28.77428261652,
    19.933037002002));
#346 = VECTOR('',#347,1.);
#347 = DIRECTION('',(0.58260162923,0.572340308908,0.577063178879));
#348 = PCURVE('',#325,#349);
#349 = DEFINITIONAL_REPRESENTATION('',(#350),#354);
#350 = LINE('',#351,#352);
#351 = CARTESIAN_POINT('',(7.067072070111,-4.932550786647));
#352 = VECTOR('',#353,1.);
#353 = DIRECTION('',(-0.820016112004,0.5723404372));
#354 = ( GEOMETRIC_REPRESENTATION_CONTEXT(2) 
PARAMETRIC_REPRESENTATION_CONTEXT() REPRESENTATION_CONTEXT('2D SPACE',''
  ) );
#355 = PCURVE('',#356,#361);
#356 = PLANE('',#357);
#357 = AXIS2_PLACEMENT_3D('',#358,#359,#360);
#358 = CARTESIAN_POINT('',(28.718680170798,-23.83204525726,
    24.987779389658));
#359 = DIRECTION('',(-8.800039516869E-04,-0.709561645264,0.704642815307)
  );
#360 = DIRECTION('',(4.008251022821E-20,-0.704643088147,-0.709561920009)
  );
#361 = DEFINITIONAL_REPRESENTATION('',(#362),#366);
#362 = LINE('',#363,#364);
#363 = CARTESIAN_POINT('',(7.069166108916,-62.46091957454));
#364 = VECTOR('',#365,1.);
#365 = DIRECTION('',(-0.812757699912,0.582601854815));
#366 = ( GEOMETRIC_REPRESENTATION_CONTEXT(2) 
PARAMETRIC_REPRESENTATION_CONTEXT() REPRESENTATION_CONTEXT('2D SPACE',''
  ) );
#367 = ORIENTED_EDGE('',*,*,#311,.T.);
#368 = ORIENTED_EDGE('',*,*,#369,.T.);
#369 = EDGE_CURVE('',#283,#341,#370,.T.);
#370 = SURFACE_CURVE('',#371,(#375,#382),.PCURVE_S1.);
#371 = LINE('',#372,#373);
#372 = CARTESIAN_POINT('',(-28.7317508125,23.794272567334,
    24.850946838736));
#373 = VECTOR('',#374,1.);
#374 = DIRECTION('',(2.208307241086E-04,-0.999999300752,
    1.161778701653E-03));
#375 = PCURVE('',#325,#376);
#376 = DEFINITIONAL_REPRESENTATION('',(#377),#381);
#377 = LINE('',#378,#379);
#378 = CARTESIAN_POINT('',(4.643450273018E-02,47.636016180629));
#379 = VECTOR('',#380,1.);
#380 = DIRECTION('',(-9.747767423141E-04,-0.999999524905));
#381 = ( GEOMETRIC_REPRESENTATION_CONTEXT(2) 
PARAMETRIC_REPRESENTATION_CONTEXT() REPRESENTATION_CONTEXT('2D SPACE',''
  ) );
#382 = PCURVE('',#383,#388);
#383 = PLANE('',#384);
#384 = AXIS2_PLACEMENT_3D('',#385,#386,#387);
#385 = CARTESIAN_POINT('',(28.715986184712,23.804325666136,
    24.936873190623));
#386 = DIRECTION('',(-1.495931405173E-03,1.161447082659E-03,
    0.999998206613));
#387 = DIRECTION('',(0.999998881092,-4.995939298707E-23,
    1.495932414149E-03));
#388 = DEFINITIONAL_REPRESENTATION('',(#389),#393);
#389 = LINE('',#390,#391);
#390 = CARTESIAN_POINT('',(-57.44780125852,-1.005310558241E-02));
#391 = VECTOR('',#392,1.);
#392 = DIRECTION('',(2.225684194373E-04,-0.999999975232));
#393 = ( GEOMETRIC_REPRESENTATION_CONTEXT(2) 
PARAMETRIC_REPRESENTATION_CONTEXT() REPRESENTATION_CONTEXT('2D SPACE',''
  ) );
#394 = ADVANCED_FACE('',(#395),#72,.T.);
#395 = FACE_BOUND('',#396,.T.);
#396 = EDGE_LOOP('',(#397,#398,#399));
#397 = ORIENTED_EDGE('',*,*,#200,.F.);
#398 = ORIENTED_EDGE('',*,*,#56,.F.);
#399 = ORIENTED_EDGE('',*,*,#400,.T.);
#400 = EDGE_CURVE('',#22,#172,#401,.T.);
#401 = SURFACE_CURVE('',#402,(#406,#413),.PCURVE_S1.);
#402 = LINE('',#403,#404);
#403 = CARTESIAN_POINT('',(-33.76871406998,28.814470535563,
    1.262920220811E-02));
#404 = VECTOR('',#405,1.);
#405 = DIRECTION('',(0.760717777482,-0.649082292755,-8.001596023704E-04)
  );
#406 = PCURVE('',#72,#407);
#407 = DEFINITIONAL_REPRESENTATION('',(#408),#412);
#408 = LINE('',#409,#410);
#409 = CARTESIAN_POINT('',(-57.61272053575,67.521465383478));
#410 = VECTOR('',#411,1.);
#411 = DIRECTION('',(0.649082784736,-0.760717778522));
#412 = ( GEOMETRIC_REPRESENTATION_CONTEXT(2) 
PARAMETRIC_REPRESENTATION_CONTEXT() REPRESENTATION_CONTEXT('2D SPACE',''
  ) );
#413 = PCURVE('',#414,#419);
#414 = PLANE('',#415);
#415 = AXIS2_PLACEMENT_3D('',#416,#417,#418);
#416 = CARTESIAN_POINT('',(33.760719836861,28.808339093487,
    2.273452401505E-02));
#417 = DIRECTION('',(1.497709354208E-04,1.408284008453E-03,
    -0.999998997152));
#418 = DIRECTION('',(5.395376975935E-24,-0.999999008368,
    -1.408284024247E-03));
#419 = DEFINITIONAL_REPRESENTATION('',(#420),#424);
#420 = LINE('',#421,#422);
#421 = CARTESIAN_POINT('',(-6.117204832308E-03,67.529434664231));
#422 = VECTOR('',#423,1.);
#423 = DIRECTION('',(0.649082775956,-0.760717786014));
#424 = ( GEOMETRIC_REPRESENTATION_CONTEXT(2) 
PARAMETRIC_REPRESENTATION_CONTEXT() REPRESENTATION_CONTEXT('2D SPACE',''
  ) );
#425 = ADVANCED_FACE('',(#426),#414,.T.);
#426 = FACE_BOUND('',#427,.T.);
#427 = EDGE_LOOP('',(#428,#451,#452));
#428 = ORIENTED_EDGE('',*,*,#429,.F.);
#429 = EDGE_CURVE('',#172,#430,#432,.T.);
#430 = VERTEX_POINT('',#431);
#431 = CARTESIAN_POINT('',(33.760719836861,28.808339093487,
    2.273452401505E-02));
#432 = SURFACE_CURVE('',#433,(#437,#444),.PCURVE_S1.);
#433 = LINE('',#434,#435);
#434 = CARTESIAN_POINT('',(33.752751221159,-28.79820633185,
    -5.839312751539E-02));
#435 = VECTOR('',#436,1.);
#436 = DIRECTION('',(1.383281650432E-04,0.999998998771,
    1.408304728292E-03));
#437 = PCURVE('',#414,#438);
#438 = DEFINITIONAL_REPRESENTATION('',(#439),#443);
#439 = LINE('',#440,#441);
#440 = CARTESIAN_POINT('',(57.606602551594,7.968615790945E-03));
#441 = VECTOR('',#442,1.);
#442 = DIRECTION('',(-0.999999990433,-1.383281665946E-04));
#443 = ( GEOMETRIC_REPRESENTATION_CONTEXT(2) 
PARAMETRIC_REPRESENTATION_CONTEXT() REPRESENTATION_CONTEXT('2D SPACE',''
  ) );
#444 = PCURVE('',#267,#445);
#445 = DEFINITIONAL_REPRESENTATION('',(#446),#450);
#446 = LINE('',#447,#448);
#447 = CARTESIAN_POINT('',(-20.0382380898,1.128504406686E-02));
#448 = VECTOR('',#449,1.);
#449 = DIRECTION('',(1.407890031804E-03,-0.999999008922));
#450 = ( GEOMETRIC_REPRESENTATION_CONTEXT(2) 
PARAMETRIC_REPRESENTATION_CONTEXT() REPRESENTATION_CONTEXT('2D SPACE',''
  ) );
#451 = ORIENTED_EDGE('',*,*,#400,.F.);
#452 = ORIENTED_EDGE('',*,*,#453,.T.);
#453 = EDGE_CURVE('',#22,#430,#454,.T.);
#454 = SURFACE_CURVE('',#455,(#459,#466),.PCURVE_S1.);
#455 = LINE('',#456,#457);
#456 = CARTESIAN_POINT('',(-33.76871406998,28.814470535563,
    1.262920220811E-02));
#457 = VECTOR('',#458,1.);
#458 = DIRECTION('',(0.999999984681,-9.07965849416E-05,
    1.496432158173E-04));
#459 = PCURVE('',#414,#460);
#460 = DEFINITIONAL_REPRESENTATION('',(#461),#465);
#461 = LINE('',#462,#463);
#462 = CARTESIAN_POINT('',(-6.117204832308E-03,67.529434664231));
#463 = VECTOR('',#464,1.);
#464 = DIRECTION('',(9.058575475459E-05,-0.999999995897));
#465 = ( GEOMETRIC_REPRESENTATION_CONTEXT(2) 
PARAMETRIC_REPRESENTATION_CONTEXT() REPRESENTATION_CONTEXT('2D SPACE',''
  ) );
#466 = PCURVE('',#155,#467);
#467 = DEFINITIONAL_REPRESENTATION('',(#468),#472);
#468 = LINE('',#469,#470);
#469 = CARTESIAN_POINT('',(-1.011249266482E-02,-67.52943418412));
#470 = VECTOR('',#471,1.);
#471 = DIRECTION('',(1.497494044428E-04,0.999999988788));
#472 = ( GEOMETRIC_REPRESENTATION_CONTEXT(2) 
PARAMETRIC_REPRESENTATION_CONTEXT() REPRESENTATION_CONTEXT('2D SPACE',''
  ) );
#473 = ADVANCED_FACE('',(#474),#155,.T.);
#474 = FACE_BOUND('',#475,.T.);
#475 = EDGE_LOOP('',(#476,#477,#478));
#476 = ORIENTED_EDGE('',*,*,#453,.F.);
#477 = ORIENTED_EDGE('',*,*,#141,.T.);
#478 = ORIENTED_EDGE('',*,*,#479,.T.);
#479 = EDGE_CURVE('',#114,#430,#480,.T.);
#480 = SURFACE_CURVE('',#481,(#485,#492),.PCURVE_S1.);
#481 = LINE('',#482,#483);
#482 = CARTESIAN_POINT('',(-33.74496679924,28.79112171221,
    19.955929448672));
#483 = VECTOR('',#484,1.);
#484 = DIRECTION('',(0.959062708572,2.446097379989E-04,-0.283193681415)
  );
#485 = PCURVE('',#155,#486);
#486 = DEFINITIONAL_REPRESENTATION('',(#487),#491);
#487 = LINE('',#488,#489);
#488 = CARTESIAN_POINT('',(19.933201421732,-67.50568691328));
#489 = VECTOR('',#490,1.);
#490 = DIRECTION('',(-0.28319377372,0.95906271251));
#491 = ( GEOMETRIC_REPRESENTATION_CONTEXT(2) 
PARAMETRIC_REPRESENTATION_CONTEXT() REPRESENTATION_CONTEXT('2D SPACE',''
  ) );
#492 = PCURVE('',#493,#498);
#493 = PLANE('',#494);
#494 = AXIS2_PLACEMENT_3D('',#495,#496,#497);
#495 = CARTESIAN_POINT('',(33.773617909157,28.849583825556,
    19.949296616019));
#496 = DIRECTION('',(-8.660680853576E-04,0.999997484019,
    -2.06927103125E-03));
#497 = DIRECTION('',(1.031133629479E-22,2.069271807304E-03,
    0.999997859055));
#498 = DEFINITIONAL_REPRESENTATION('',(#499),#503);
#499 = LINE('',#500,#501);
#500 = CARTESIAN_POINT('',(6.511844449563E-03,-67.51861003037));
#501 = VECTOR('',#502,1.);
#502 = DIRECTION('',(-0.283192568949,0.959063068256));
#503 = ( GEOMETRIC_REPRESENTATION_CONTEXT(2) 
PARAMETRIC_REPRESENTATION_CONTEXT() REPRESENTATION_CONTEXT('2D SPACE',''
  ) );
#504 = ADVANCED_FACE('',(#505),#493,.T.);
#505 = FACE_BOUND('',#506,.T.);
#506 = EDGE_LOOP('',(#507,#535,#536));
#507 = ORIENTED_EDGE('',*,*,#508,.F.);
#508 = EDGE_CURVE('',#430,#509,#511,.T.);
#509 = VERTEX_POINT('',#510);
#510 = CARTESIAN_POINT('',(33.773617909157,28.849583825556,
    19.949296616019));
#511 = SURFACE_CURVE('',#512,(#516,#523),.PCURVE_S1.);
#512 = LINE('',#513,#514);
#513 = CARTESIAN_POINT('',(33.760719836861,28.808339093487,
    2.273452401505E-02));
#514 = VECTOR('',#515,1.);
#515 = DIRECTION('',(6.472788384759E-04,2.069831960376E-03,0.99999764841
    ));
#516 = PCURVE('',#493,#517);
#517 = DEFINITIONAL_REPRESENTATION('',(#518),#522);
#518 = LINE('',#519,#520);
#519 = CARTESIAN_POINT('',(-19.92660477688,-1.289807713396E-02));
#520 = VECTOR('',#521,1.);
#521 = DIRECTION('',(0.999999790515,6.472790812296E-04));
#522 = ( GEOMETRIC_REPRESENTATION_CONTEXT(2) 
PARAMETRIC_REPRESENTATION_CONTEXT() REPRESENTATION_CONTEXT('2D SPACE',''
  ) );
#523 = PCURVE('',#524,#529);
#524 = PLANE('',#525);
#525 = AXIS2_PLACEMENT_3D('',#526,#527,#528);
#526 = CARTESIAN_POINT('',(33.693569639203,-28.78692128789,
    19.979757567702));
#527 = DIRECTION('',(0.999998827453,-1.389185640288E-03,
    -6.44404214048E-04));
#528 = DIRECTION('',(1.389185928723E-03,0.999999035081,1.38374810055E-22
    ));
#529 = DEFINITIONAL_REPRESENTATION('',(#530),#534);
#530 = LINE('',#531,#532);
#531 = CARTESIAN_POINT('',(57.59529809072,-19.95702718733));
#532 = VECTOR('',#533,1.);
#533 = DIRECTION('',(2.07072915381E-03,0.999997856038));
#534 = ( GEOMETRIC_REPRESENTATION_CONTEXT(2) 
PARAMETRIC_REPRESENTATION_CONTEXT() REPRESENTATION_CONTEXT('2D SPACE',''
  ) );
#535 = ORIENTED_EDGE('',*,*,#479,.F.);
#536 = ORIENTED_EDGE('',*,*,#537,.T.);
#537 = EDGE_CURVE('',#114,#509,#538,.T.);
#538 = SURFACE_CURVE('',#539,(#543,#550),.PCURVE_S1.);
#539 = LINE('',#540,#541);
#540 = CARTESIAN_POINT('',(-33.74496679924,28.79112171221,
    19.955929448672));
#541 = VECTOR('',#542,1.);
#542 = DIRECTION('',(0.999999620312,8.658666558359E-04,
    -9.823710261813E-05));
#543 = PCURVE('',#493,#544);
#544 = DEFINITIONAL_REPRESENTATION('',(#545),#549);
#545 = LINE('',#546,#547);
#546 = CARTESIAN_POINT('',(6.511844449563E-03,-67.51861003037));
#547 = VECTOR('',#548,1.);
#548 = DIRECTION('',(-9.644517883807E-05,0.999999995349));
#549 = ( GEOMETRIC_REPRESENTATION_CONTEXT(2) 
PARAMETRIC_REPRESENTATION_CONTEXT() REPRESENTATION_CONTEXT('2D SPACE',''
  ) );
#550 = PCURVE('',#551,#556);
#551 = PLANE('',#552);
#552 = AXIS2_PLACEMENT_3D('',#553,#554,#555);
#553 = CARTESIAN_POINT('',(-33.74496679924,28.79112171221,
    19.955929448672));
#554 = DIRECTION('',(5.391310338433E-04,-0.703302986383,-0.710890018697)
  );
#555 = DIRECTION('',(3.629309031039E-20,-0.710890122011,0.703303088595)
  );
#556 = DEFINITIONAL_REPRESENTATION('',(#557),#561);
#557 = LINE('',#558,#559);
#558 = CARTESIAN_POINT('',(0.,-0.));
#559 = VECTOR('',#560,1.);
#560 = DIRECTION('',(-6.846265102986E-04,-0.999999765643));
#561 = ( GEOMETRIC_REPRESENTATION_CONTEXT(2) 
PARAMETRIC_REPRESENTATION_CONTEXT() REPRESENTATION_CONTEXT('2D SPACE',''
  ) );
#562 = ADVANCED_FACE('',(#563),#267,.T.);
#563 = FACE_BOUND('',#564,.T.);
#564 = EDGE_LOOP('',(#565,#566,#567));
#565 = ORIENTED_EDGE('',*,*,#253,.T.);
#566 = ORIENTED_EDGE('',*,*,#429,.T.);
#567 = ORIENTED_EDGE('',*,*,#568,.F.);
#568 = EDGE_CURVE('',#225,#430,#569,.T.);
#569 = SURFACE_CURVE('',#570,(#574,#581),.PCURVE_S1.);
#570 = LINE('',#571,#572);
#571 = CARTESIAN_POINT('',(33.693569639203,-28.78692128789,
    19.979757567702));
#572 = VECTOR('',#573,1.);
#573 = DIRECTION('',(1.101637184934E-03,0.944883004443,-0.32740631379));
#574 = PCURVE('',#267,#575);
#575 = DEFINITIONAL_REPRESENTATION('',(#576),#580);
#576 = LINE('',#577,#578);
#577 = CARTESIAN_POINT('',(0.,-0.));
#578 = VECTOR('',#579,1.);
#579 = DIRECTION('',(-0.327408139465,-0.944883014035));
#580 = ( GEOMETRIC_REPRESENTATION_CONTEXT(2) 
PARAMETRIC_REPRESENTATION_CONTEXT() REPRESENTATION_CONTEXT('2D SPACE',''
  ) );
#581 = PCURVE('',#524,#582);
#582 = DEFINITIONAL_REPRESENTATION('',(#583),#587);
#583 = LINE('',#584,#585);
#584 = CARTESIAN_POINT('',(0.,0.));
#585 = VECTOR('',#586,1.);
#586 = DIRECTION('',(0.944883623086,-0.327406381769));
#587 = ( GEOMETRIC_REPRESENTATION_CONTEXT(2) 
PARAMETRIC_REPRESENTATION_CONTEXT() REPRESENTATION_CONTEXT('2D SPACE',''
  ) );
#588 = ADVANCED_FACE('',(#589),#524,.T.);
#589 = FACE_BOUND('',#590,.T.);
#590 = EDGE_LOOP('',(#591,#592,#593));
#591 = ORIENTED_EDGE('',*,*,#568,.T.);
#592 = ORIENTED_EDGE('',*,*,#508,.T.);
#593 = ORIENTED_EDGE('',*,*,#594,.F.);
#594 = EDGE_CURVE('',#225,#509,#595,.T.);
#595 = SURFACE_CURVE('',#596,(#600,#607),.PCURVE_S1.);
#596 = LINE('',#597,#598);
#597 = CARTESIAN_POINT('',(33.693569639203,-28.78692128789,
    19.979757567702));
#598 = VECTOR('',#599,1.);
#599 = DIRECTION('',(1.388845167064E-03,0.999998895898,
    -5.285004354622E-04));
#600 = PCURVE('',#524,#601);
#601 = DEFINITIONAL_REPRESENTATION('',(#602),#606);
#602 = LINE('',#603,#604);
#603 = CARTESIAN_POINT('',(0.,0.));
#604 = VECTOR('',#605,1.);
#605 = DIRECTION('',(0.999999860344,-5.285005451939E-04));
#606 = ( GEOMETRIC_REPRESENTATION_CONTEXT(2) 
PARAMETRIC_REPRESENTATION_CONTEXT() REPRESENTATION_CONTEXT('2D SPACE',''
  ) );
#607 = PCURVE('',#608,#613);
#608 = PLANE('',#609);
#609 = AXIS2_PLACEMENT_3D('',#610,#611,#612);
#610 = CARTESIAN_POINT('',(28.715986184712,23.804325666136,
    24.936873190623));
#611 = DIRECTION('',(0.702461332656,-5.994654832307E-04,0.711721656804)
  );
#612 = DIRECTION('',(0.711721784686,-1.93263140317E-21,-0.702461458874)
  );
#613 = DEFINITIONAL_REPRESENTATION('',(#614),#618);
#614 = LINE('',#615,#616);
#615 = CARTESIAN_POINT('',(7.024837251938,-52.5912564036));
#616 = VECTOR('',#617,1.);
#617 = DIRECTION('',(1.359722547866E-03,0.999999075577));
#618 = ( GEOMETRIC_REPRESENTATION_CONTEXT(2) 
PARAMETRIC_REPRESENTATION_CONTEXT() REPRESENTATION_CONTEXT('2D SPACE',''
  ) );
#619 = ADVANCED_FACE('',(#620),#356,.T.);
#620 = FACE_BOUND('',#621,.T.);
#621 = EDGE_LOOP('',(#622,#650,#651));
#622 = ORIENTED_EDGE('',*,*,#623,.F.);
#623 = EDGE_CURVE('',#341,#624,#626,.T.);
#624 = VERTEX_POINT('',#625);
#625 = CARTESIAN_POINT('',(28.718680170798,-23.83204525726,
    24.987779389658));
#626 = SURFACE_CURVE('',#627,(#631,#638),.PCURVE_S1.);
#627 = LINE('',#628,#629);
#628 = CARTESIAN_POINT('',(-28.72123131156,-23.84173293552,
    24.906289374059));
#629 = VECTOR('',#630,1.);
#630 = DIRECTION('',(0.999998979424,1.68657439025E-04,1.41869878154E-03)
  );
#631 = PCURVE('',#356,#632);
#632 = DEFINITIONAL_REPRESENTATION('',(#633),#637);
#633 = LINE('',#634,#635);
#634 = CARTESIAN_POINT('',(6.464856745258E-02,-57.4399337233));
#635 = VECTOR('',#636,1.);
#636 = DIRECTION('',(-1.125497930017E-03,0.999999366627));
#637 = ( GEOMETRIC_REPRESENTATION_CONTEXT(2) 
PARAMETRIC_REPRESENTATION_CONTEXT() REPRESENTATION_CONTEXT('2D SPACE',''
  ) );
#638 = PCURVE('',#639,#644);
#639 = PLANE('',#640);
#640 = AXIS2_PLACEMENT_3D('',#641,#642,#643);
#641 = CARTESIAN_POINT('',(28.715986184712,23.804325666136,
    24.936873190623));
#642 = DIRECTION('',(-1.418878212097E-03,1.068559491503E-03,
    0.999998422481));
#643 = DIRECTION('',(0.999998993391,1.739379691044E-22,
    1.418879022149E-03));
#644 = DEFINITIONAL_REPRESENTATION('',(#645),#649);
#645 = LINE('',#646,#647);
#646 = CARTESIAN_POINT('',(-57.43720307417,-47.64608580327));
#647 = VECTOR('',#648,1.);
#648 = DIRECTION('',(0.999999985777,1.686575353133E-04));
#649 = ( GEOMETRIC_REPRESENTATION_CONTEXT(2) 
PARAMETRIC_REPRESENTATION_CONTEXT() REPRESENTATION_CONTEXT('2D SPACE',''
  ) );
#650 = ORIENTED_EDGE('',*,*,#340,.F.);
#651 = ORIENTED_EDGE('',*,*,#652,.T.);
#652 = EDGE_CURVE('',#24,#624,#653,.T.);
#653 = SURFACE_CURVE('',#654,(#658,#665),.PCURVE_S1.);
#654 = LINE('',#655,#656);
#655 = CARTESIAN_POINT('',(-33.74221521865,-28.77428261652,
    19.933037002002));
#656 = VECTOR('',#657,1.);
#657 = DIRECTION('',(0.993655928555,7.86233277914E-02,8.041310822547E-02
    ));
#658 = PCURVE('',#356,#659);
#659 = DEFINITIONAL_REPRESENTATION('',(#660),#664);
#660 = LINE('',#661,#662);
#661 = CARTESIAN_POINT('',(7.069166108916,-62.46091957454));
#662 = VECTOR('',#663,1.);
#663 = DIRECTION('',(-0.112459463962,0.993656313302));
#664 = ( GEOMETRIC_REPRESENTATION_CONTEXT(2) 
PARAMETRIC_REPRESENTATION_CONTEXT() REPRESENTATION_CONTEXT('2D SPACE',''
  ) );
#665 = PCURVE('',#240,#666);
#666 = DEFINITIONAL_REPRESENTATION('',(#667),#671);
#667 = LINE('',#668,#669);
#668 = CARTESIAN_POINT('',(7.069273609298,-62.46090740783));
#669 = VECTOR('',#670,1.);
#670 = DIRECTION('',(-0.112461174126,0.993656119749));
#671 = ( GEOMETRIC_REPRESENTATION_CONTEXT(2) 
PARAMETRIC_REPRESENTATION_CONTEXT() REPRESENTATION_CONTEXT('2D SPACE',''
  ) );
#672 = ADVANCED_FACE('',(#673),#240,.T.);
#673 = FACE_BOUND('',#674,.T.);
#674 = EDGE_LOOP('',(#675,#676,#677));
#675 = ORIENTED_EDGE('',*,*,#652,.F.);
#676 = ORIENTED_EDGE('',*,*,#224,.T.);
#677 = ORIENTED_EDGE('',*,*,#678,.F.);
#678 = EDGE_CURVE('',#624,#225,#679,.T.);
#679 = SURFACE_CURVE('',#680,(#684,#691),.PCURVE_S1.);
#680 = LINE('',#681,#682);
#681 = CARTESIAN_POINT('',(28.718680170798,-23.83204525726,
    24.987779389658));
#682 = VECTOR('',#683,1.);
#683 = DIRECTION('',(0.576837631477,-0.574517076596,-0.580679322528));
#684 = PCURVE('',#240,#685);
#685 = DEFINITIONAL_REPRESENTATION('',(#686),#690);
#686 = LINE('',#687,#688);
#687 = CARTESIAN_POINT('',(-0.,0.));
#688 = VECTOR('',#689,1.);
#689 = DIRECTION('',(0.816858750864,0.576837742469));
#690 = ( GEOMETRIC_REPRESENTATION_CONTEXT(2) 
PARAMETRIC_REPRESENTATION_CONTEXT() REPRESENTATION_CONTEXT('2D SPACE',''
  ) );
#691 = PCURVE('',#692,#697);
#692 = PLANE('',#693);
#693 = AXIS2_PLACEMENT_3D('',#694,#695,#696);
#694 = CARTESIAN_POINT('',(28.715986184712,23.804325666136,
    24.936873190623));
#695 = DIRECTION('',(0.709841573546,7.928530238863E-04,0.70436092442));
#696 = DIRECTION('',(-0.704361145806,-4.587102292206E-20,0.709841796655)
  );
#697 = DEFINITIONAL_REPRESENTATION('',(#698),#702);
#698 = LINE('',#699,#700);
#699 = CARTESIAN_POINT('',(3.423780865684E-02,47.6363858959));
#700 = VECTOR('',#701,1.);
#701 = DIRECTION('',(-0.818492468635,0.574517257171));
#702 = ( GEOMETRIC_REPRESENTATION_CONTEXT(2) 
PARAMETRIC_REPRESENTATION_CONTEXT() REPRESENTATION_CONTEXT('2D SPACE',''
  ) );
#703 = ADVANCED_FACE('',(#704),#383,.T.);
#704 = FACE_BOUND('',#705,.T.);
#705 = EDGE_LOOP('',(#706,#729,#730));
#706 = ORIENTED_EDGE('',*,*,#707,.F.);
#707 = EDGE_CURVE('',#283,#708,#710,.T.);
#708 = VERTEX_POINT('',#709);
#709 = CARTESIAN_POINT('',(28.715986184712,23.804325666136,
    24.936873190623));
#710 = SURFACE_CURVE('',#711,(#715,#722),.PCURVE_S1.);
#711 = LINE('',#712,#713);
#712 = CARTESIAN_POINT('',(-28.7317508125,23.794272567334,
    24.850946838736));
#713 = VECTOR('',#714,1.);
#714 = DIRECTION('',(0.999998866085,1.749953597462E-04,
    1.495729143484E-03));
#715 = PCURVE('',#383,#716);
#716 = DEFINITIONAL_REPRESENTATION('',(#717),#721);
#717 = LINE('',#718,#719);
#718 = CARTESIAN_POINT('',(-57.44780125852,-1.005310558241E-02));
#719 = VECTOR('',#720,1.);
#720 = DIRECTION('',(0.999999984688,1.749954777771E-04));
#721 = ( GEOMETRIC_REPRESENTATION_CONTEXT(2) 
PARAMETRIC_REPRESENTATION_CONTEXT() REPRESENTATION_CONTEXT('2D SPACE',''
  ) );
#722 = PCURVE('',#298,#723);
#723 = DEFINITIONAL_REPRESENTATION('',(#724),#728);
#724 = LINE('',#725,#726);
#725 = CARTESIAN_POINT('',(5.28905692031E-02,57.447777790721));
#726 = VECTOR('',#727,1.);
#727 = DIRECTION('',(-9.206717617482E-04,-0.999999576182));
#728 = ( GEOMETRIC_REPRESENTATION_CONTEXT(2) 
PARAMETRIC_REPRESENTATION_CONTEXT() REPRESENTATION_CONTEXT('2D SPACE',''
  ) );
#729 = ORIENTED_EDGE('',*,*,#369,.T.);
#730 = ORIENTED_EDGE('',*,*,#731,.T.);
#731 = EDGE_CURVE('',#341,#708,#732,.T.);
#732 = SURFACE_CURVE('',#733,(#737,#744),.PCURVE_S1.);
#733 = LINE('',#734,#735);
#734 = CARTESIAN_POINT('',(-28.72123131156,-23.84173293552,
    24.906289374059));
#735 = VECTOR('',#736,1.);
#736 = DIRECTION('',(0.769657836234,0.638456456753,4.098226743297E-04));
#737 = PCURVE('',#383,#738);
#738 = DEFINITIONAL_REPRESENTATION('',(#739),#743);
#739 = LINE('',#740,#741);
#740 = CARTESIAN_POINT('',(-57.43719898066,-47.64609073798));
#741 = VECTOR('',#742,1.);
#742 = DIRECTION('',(0.769657588125,0.638456887379));
#743 = ( GEOMETRIC_REPRESENTATION_CONTEXT(2) 
PARAMETRIC_REPRESENTATION_CONTEXT() REPRESENTATION_CONTEXT('2D SPACE',''
  ) );
#744 = PCURVE('',#639,#745);
#745 = DEFINITIONAL_REPRESENTATION('',(#746),#750);
#746 = LINE('',#747,#748);
#747 = CARTESIAN_POINT('',(-57.43720307417,-47.64608580327));
#748 = VECTOR('',#749,1.);
#749 = DIRECTION('',(0.769657642978,0.638456821254));
#750 = ( GEOMETRIC_REPRESENTATION_CONTEXT(2) 
PARAMETRIC_REPRESENTATION_CONTEXT() REPRESENTATION_CONTEXT('2D SPACE',''
  ) );
#751 = ADVANCED_FACE('',(#752),#639,.T.);
#752 = FACE_BOUND('',#753,.T.);
#753 = EDGE_LOOP('',(#754,#755,#756));
#754 = ORIENTED_EDGE('',*,*,#731,.F.);
#755 = ORIENTED_EDGE('',*,*,#623,.T.);
#756 = ORIENTED_EDGE('',*,*,#757,.F.);
#757 = EDGE_CURVE('',#708,#624,#758,.T.);
#758 = SURFACE_CURVE('',#759,(#763,#770),.PCURVE_S1.);
#759 = LINE('',#760,#761);
#760 = CARTESIAN_POINT('',(28.715986184712,23.804325666136,
    24.936873190623));
#761 = VECTOR('',#762,1.);
#762 = DIRECTION('',(5.655310200754E-05,-0.999999427404,
    1.068640807416E-03));
#763 = PCURVE('',#639,#764);
#764 = DEFINITIONAL_REPRESENTATION('',(#765),#769);
#765 = LINE('',#766,#767);
#766 = CARTESIAN_POINT('',(0.,0.));
#767 = VECTOR('',#768,1.);
#768 = DIRECTION('',(5.806931710451E-05,-0.999999998314));
#769 = ( GEOMETRIC_REPRESENTATION_CONTEXT(2) 
PARAMETRIC_REPRESENTATION_CONTEXT() REPRESENTATION_CONTEXT('2D SPACE',''
  ) );
#770 = PCURVE('',#692,#771);
#771 = DEFINITIONAL_REPRESENTATION('',(#772),#776);
#772 = LINE('',#773,#774);
#773 = CARTESIAN_POINT('',(0.,0.));
#774 = VECTOR('',#775,1.);
#775 = DIRECTION('',(7.187321029862E-04,0.999999741712));
#776 = ( GEOMETRIC_REPRESENTATION_CONTEXT(2) 
PARAMETRIC_REPRESENTATION_CONTEXT() REPRESENTATION_CONTEXT('2D SPACE',''
  ) );
#777 = ADVANCED_FACE('',(#778),#298,.T.);
#778 = FACE_BOUND('',#779,.T.);
#779 = EDGE_LOOP('',(#780,#801,#802));
#780 = ORIENTED_EDGE('',*,*,#781,.F.);
#781 = EDGE_CURVE('',#114,#708,#782,.T.);
#782 = SURFACE_CURVE('',#783,(#787,#794),.PCURVE_S1.);
#783 = LINE('',#784,#785);
#784 = CARTESIAN_POINT('',(-33.74496679924,28.79112171221,
    19.955929448672));
#785 = VECTOR('',#786,1.);
#786 = DIRECTION('',(0.993693436265,-7.933510877186E-02,
    7.924200426551E-02));
#787 = PCURVE('',#298,#788);
#788 = DEFINITIONAL_REPRESENTATION('',(#789),#793);
#789 = LINE('',#790,#791);
#790 = CARTESIAN_POINT('',(7.04786454577,62.460997337329));
#791 = VECTOR('',#792,1.);
#792 = DIRECTION('',(-0.112124717992,-0.993694141884));
#793 = ( GEOMETRIC_REPRESENTATION_CONTEXT(2) 
PARAMETRIC_REPRESENTATION_CONTEXT() REPRESENTATION_CONTEXT('2D SPACE',''
  ) );
#794 = PCURVE('',#551,#795);
#795 = DEFINITIONAL_REPRESENTATION('',(#796),#800);
#796 = LINE('',#797,#798);
#797 = CARTESIAN_POINT('',(0.,-0.));
#798 = VECTOR('',#799,1.);
#799 = DIRECTION('',(0.112129691501,-0.99369358068));
#800 = ( GEOMETRIC_REPRESENTATION_CONTEXT(2) 
PARAMETRIC_REPRESENTATION_CONTEXT() REPRESENTATION_CONTEXT('2D SPACE',''
  ) );
#801 = ORIENTED_EDGE('',*,*,#282,.T.);
#802 = ORIENTED_EDGE('',*,*,#707,.T.);
#803 = ADVANCED_FACE('',(#804),#551,.F.);
#804 = FACE_BOUND('',#805,.F.);
#805 = EDGE_LOOP('',(#806,#807,#828));
#806 = ORIENTED_EDGE('',*,*,#537,.T.);
#807 = ORIENTED_EDGE('',*,*,#808,.F.);
#808 = EDGE_CURVE('',#708,#509,#809,.T.);
#809 = SURFACE_CURVE('',#810,(#814,#821),.PCURVE_S1.);
#810 = LINE('',#811,#812);
#811 = CARTESIAN_POINT('',(28.715986184712,23.804325666136,
    24.936873190623));
#812 = VECTOR('',#813,1.);
#813 = DIRECTION('',(0.580493240916,0.579073056281,-0.572452611786));
#814 = PCURVE('',#551,#815);
#815 = DEFINITIONAL_REPRESENTATION('',(#816),#820);
#816 = LINE('',#817,#818);
#817 = CARTESIAN_POINT('',(7.04817716747,-62.46096206147));
#818 = VECTOR('',#819,1.);
#819 = DIRECTION('',(-0.814265005576,-0.58049332528));
#820 = ( GEOMETRIC_REPRESENTATION_CONTEXT(2) 
PARAMETRIC_REPRESENTATION_CONTEXT() REPRESENTATION_CONTEXT('2D SPACE',''
  ) );
#821 = PCURVE('',#608,#822);
#822 = DEFINITIONAL_REPRESENTATION('',(#823),#827);
#823 = LINE('',#824,#825);
#824 = CARTESIAN_POINT('',(0.,0.));
#825 = VECTOR('',#826,1.);
#826 = DIRECTION('',(0.815275582234,0.579073160329));
#827 = ( GEOMETRIC_REPRESENTATION_CONTEXT(2) 
PARAMETRIC_REPRESENTATION_CONTEXT() REPRESENTATION_CONTEXT('2D SPACE',''
  ) );
#828 = ORIENTED_EDGE('',*,*,#781,.F.);
#829 = ADVANCED_FACE('',(#830),#692,.T.);
#830 = FACE_BOUND('',#831,.T.);
#831 = EDGE_LOOP('',(#832,#833,#834));
#832 = ORIENTED_EDGE('',*,*,#757,.T.);
#833 = ORIENTED_EDGE('',*,*,#678,.T.);
#834 = ORIENTED_EDGE('',*,*,#835,.F.);
#835 = EDGE_CURVE('',#708,#225,#836,.T.);
#836 = SURFACE_CURVE('',#837,(#841,#848),.PCURVE_S1.);
#837 = LINE('',#838,#839);
#838 = CARTESIAN_POINT('',(28.715986184712,23.804325666136,
    24.936873190623));
#839 = VECTOR('',#840,1.);
#840 = DIRECTION('',(9.381338432884E-02,-0.991196412464,
    -9.342762353407E-02));
#841 = PCURVE('',#692,#842);
#842 = DEFINITIONAL_REPRESENTATION('',(#843),#847);
#843 = LINE('',#844,#845);
#844 = CARTESIAN_POINT('',(0.,0.));
#845 = VECTOR('',#846,1.);
#846 = DIRECTION('',(-0.132397335024,0.991196724005));
#847 = ( GEOMETRIC_REPRESENTATION_CONTEXT(2) 
PARAMETRIC_REPRESENTATION_CONTEXT() REPRESENTATION_CONTEXT('2D SPACE',''
  ) );
#848 = PCURVE('',#608,#849);
#849 = DEFINITIONAL_REPRESENTATION('',(#850),#854);
#850 = LINE('',#851,#852);
#851 = CARTESIAN_POINT('',(0.,0.));
#852 = VECTOR('',#853,1.);
#853 = DIRECTION('',(0.132398334049,-0.991196590562));
#854 = ( GEOMETRIC_REPRESENTATION_CONTEXT(2) 
PARAMETRIC_REPRESENTATION_CONTEXT() REPRESENTATION_CONTEXT('2D SPACE',''
  ) );
#855 = ADVANCED_FACE('',(#856),#608,.T.);
#856 = FACE_BOUND('',#857,.T.);
#857 = EDGE_LOOP('',(#858,#859,#860));
#858 = ORIENTED_EDGE('',*,*,#835,.T.);
#859 = ORIENTED_EDGE('',*,*,#594,.T.);
#860 = ORIENTED_EDGE('',*,*,#808,.F.);
#861 = ( GEOMETRIC_REPRESENTATION_CONTEXT(3) 
GLOBAL_UNCERTAINTY_ASSIGNED_CONTEXT((#865)) GLOBAL_UNIT_ASSIGNED_CONTEXT
((#862,#863,#864)) REPRESENTATION_CONTEXT('Context #1',
  '3D Context with UNIT and UNCERTAINTY') );
#862 = ( LENGTH_UNIT() NAMED_UNIT(*) SI_UNIT(.MILLI.,.METRE.) );
#863 = ( NAMED_UNIT(*) PLANE_ANGLE_UNIT() SI_UNIT($,.RADIAN.) );
#864 = ( NAMED_UNIT(*) SI_UNIT($,.STERADIAN.) SOLID_ANGLE_UNIT() );
#865 = UNCERTAINTY_MEASURE_WITH_UNIT(LENGTH_MEASURE(1.E-07),#862,
  'distance_accuracy_value','confusion accuracy');
#866 = PRODUCT_TYPE('part',$,(#7));
ENDSEC;
END-ISO-10303-21;
