ISO-10303-21;
HEADER;
FILE_DESCRIPTION(('Open CASCADE Model'),'2;1');
FILE_NAME('Open CASCADE Shape Model','2026-10-04T20:44:42',('Author'),(
    'Open CASCADE'),'Open CASCADE STEP processor 7.8','Open CASCADE 7.8'
  ,'Unknown');
FILE_SCHEMA(('AUTOMOTIVE_DESIGN_CC2 { 1 2 10303 214 -1 1 5 4 }'));
ENDSEC;
DATA;
#1 = APPLICATION_PROTOCOL_DEFINITION('committee draft',
  'automotive_design',1997,#2);
#2 = APPLICATION_CONTEXT(
  'core data for automotive mechanical design processes');
#3 = SHAPE_DEFINITION_REPRESENTATION(#4,#10);
#4 = PRODUCT_DEFINITION_SHAPE('','',#5);
#5 = PRODUCT_DEFINITION('design','',#6,#9);
#6 = PRODUCT_DEFINITION_FORMATION('','',#7);
#7 = PRODUCT('Open CASCADE STEP translator 7.8 108',
  'Open CASCADE STEP translator 7.8 108','',(#8));
#8 = MECHANICAL_CONTEXT('',#2,'mechanical');
#9 = PRODUCT_DEFINITION_CONTEXT('part definition',#2,'design');
#10 = ADVANCED_BREP_SHAPE_REPRESENTATION('',(#11,#15),#861);
#11 = AXIS2_PLACEMENT_3D('',#12,#13,#14);
#12 = CARTESIAN_POINT('',(0.,0.,0.));
#13 = DIRECTION('',(0.,0.,1.));
#14 = DIRECTION('',(1.,0.,-0.));
#15 = MANIFOLD_SOLID_BREP('',#16);
#16 = CLOSED_SHELL('',(#17,#109,#167,#225,#283,#341,#399,#452,#483,#531,
    #562,#588,#619,#667,#698,#729,#777,#803,#829,#855));
#17 = ADVANCED_FACE('',(#18),#32,.T.);
#18 = FACE_BOUND('',#19,.T.);
#19 = EDGE_LOOP('',(#20,#55,#83));
#20 = ORIENTED_EDGE('',*,*,#21,.T.);
#21 = EDGE_CURVE('',#22,#24,#26,.T.);
#22 = VERTEX_POINT('',#23);
#23 = CARTESIAN_POINT('',(-31.97745953506,-43.47716190401,
    5.196395218807E-02));
#24 = VERTEX_POINT('',#25);
#25 = CARTESIAN_POINT('',(-31.97246506284,43.487729881196,
    10.236733317007));
#26 = SURFACE_CURVE('',#27,(#31,#43),.PCURVE_S1.);
#27 = LINE('',#28,#29);
#28 = CARTESIAN_POINT('',(-31.97745953506,-43.47716190401,
    5.196395218807E-02));
#29 = VECTOR('',#30,1.);
#30 = DIRECTION('',(5.704105874707E-05,0.993211950962,0.116318602177));
#31 = PCURVE('',#32,#37);
#32 = PLANE('',#33);
#33 = AXIS2_PLACEMENT_3D('',#34,#35,#36);
#34 = CARTESIAN_POINT('',(-31.97745953506,-43.47716190401,
    5.196395218807E-02));
#35 = DIRECTION('',(-0.999997191208,3.322655526624E-04,
    -2.346737444896E-03));
#36 = DIRECTION('',(2.346737574436E-03,2.208157852626E-23,
    -0.999997246408));
#37 = DEFINITIONAL_REPRESENTATION('',(#38),#42);
#38 = LINE('',#39,#40);
#39 = CARTESIAN_POINT('',(0.,-0.));
#40 = VECTOR('',#41,1.);
#41 = DIRECTION('',(-0.116318148023,-0.993212005788));
#42 = ( GEOMETRIC_REPRESENTATION_CONTEXT(2) 
PARAMETRIC_REPRESENTATION_CONTEXT() REPRESENTATION_CONTEXT('2D SPACE',''
  ) );
#43 = PCURVE('',#44,#49);
#44 = PLANE('',#45);
#45 = AXIS2_PLACEMENT_3D('',#46,#47,#48);
#46 = CARTESIAN_POINT('',(-31.9221811945,-43.50817783579,10.254141882783
    ));
#47 = DIRECTION('',(-0.99998516449,-5.769102359977E-04,5.41645396134E-03
    ));
#48 = DIRECTION('',(-5.416454862707E-03,-3.217735751717E-22,
    -0.999985330901));
#49 = DEFINITIONAL_REPRESENTATION('',(#50),#54);
#50 = LINE('',#51,#52);
#51 = CARTESIAN_POINT('',(10.202327686471,-3.101593694568E-02));
#52 = VECTOR('',#53,1.);
#53 = DIRECTION('',(-0.116317204848,-0.993212116245));
#54 = ( GEOMETRIC_REPRESENTATION_CONTEXT(2) 
PARAMETRIC_REPRESENTATION_CONTEXT() REPRESENTATION_CONTEXT('2D SPACE',''
  ) );
#55 = ORIENTED_EDGE('',*,*,#56,.T.);
#56 = EDGE_CURVE('',#24,#57,#59,.T.);
#57 = VERTEX_POINT('',#58);
#58 = CARTESIAN_POINT('',(-31.94848063659,43.528920617357,
    2.226613431249E-02));
#59 = SURFACE_CURVE('',#60,(#64,#71),.PCURVE_S1.);
#60 = LINE('',#61,#62);
#61 = CARTESIAN_POINT('',(-31.97246506284,43.487729881196,
    10.236733317007));
#62 = VECTOR('',#63,1.);
#63 = DIRECTION('',(2.348058365549E-03,4.032543936118E-03,
    -0.999989112546));
#64 = PCURVE('',#32,#65);
#65 = DEFINITIONAL_REPRESENTATION('',(#66),#70);
#66 = LINE('',#67,#68);
#67 = CARTESIAN_POINT('',(-10.1847295994,-86.96489658569));
#68 = VECTOR('',#69,1.);
#69 = DIRECTION('',(0.999991869261,-4.032544158715E-03));
#70 = ( GEOMETRIC_REPRESENTATION_CONTEXT(2) 
PARAMETRIC_REPRESENTATION_CONTEXT() REPRESENTATION_CONTEXT('2D SPACE',''
  ) );
#71 = PCURVE('',#72,#77);
#72 = PLANE('',#73);
#73 = AXIS2_PLACEMENT_3D('',#74,#75,#76);
#74 = CARTESIAN_POINT('',(-31.97246506284,43.487729881196,
    10.236733317007));
#75 = DIRECTION('',(4.365791555167E-04,-0.99999177805,
    -4.031529560497E-03));
#76 = DIRECTION('',(1.545618445824E-22,4.031529944705E-03,-0.99999187335
    ));
#77 = DEFINITIONAL_REPRESENTATION('',(#78),#82);
#78 = LINE('',#79,#80);
#79 = CARTESIAN_POINT('',(0.,0.));
#80 = VECTOR('',#81,1.);
#81 = DIRECTION('',(0.999997243307,2.348058589321E-03));
#82 = ( GEOMETRIC_REPRESENTATION_CONTEXT(2) 
PARAMETRIC_REPRESENTATION_CONTEXT() REPRESENTATION_CONTEXT('2D SPACE',''
  ) );
#83 = ORIENTED_EDGE('',*,*,#84,.F.);
#84 = EDGE_CURVE('',#22,#57,#85,.T.);
#85 = SURFACE_CURVE('',#86,(#90,#97),.PCURVE_S1.);
#86 = LINE('',#87,#88);
#87 = CARTESIAN_POINT('',(-31.97745953506,-43.47716190401,
    5.196395218807E-02));
#88 = VECTOR('',#89,1.);
#89 = DIRECTION('',(3.330674630513E-04,0.99999988628,-3.413303258544E-04
    ));
#90 = PCURVE('',#32,#91);
#91 = DEFINITIONAL_REPRESENTATION('',(#92),#96);
#92 = LINE('',#93,#94);
#93 = CARTESIAN_POINT('',(0.,-0.));
#94 = VECTOR('',#95,1.);
#95 = DIRECTION('',(3.421110079002E-04,-0.99999994148));
#96 = ( GEOMETRIC_REPRESENTATION_CONTEXT(2) 
PARAMETRIC_REPRESENTATION_CONTEXT() REPRESENTATION_CONTEXT('2D SPACE',''
  ) );
#97 = PCURVE('',#98,#103);
#98 = PLANE('',#99);
#99 = AXIS2_PLACEMENT_3D('',#100,#101,#102);
#100 = CARTESIAN_POINT('',(31.9359411593,43.472120215887,
    -2.753804771873E-02));
#101 = DIRECTION('',(-7.799011954312E-04,-3.410704812687E-04,
    -0.999999637712));
#102 = DIRECTION('',(-0.999999695877,-2.554251056916E-23,
    7.799012407938E-04));
#103 = DEFINITIONAL_REPRESENTATION('',(#104),#108);
#104 = LINE('',#105,#106);
#105 = CARTESIAN_POINT('',(63.913443260538,-86.94928717726));
#106 = VECTOR('',#107,1.);
#107 = DIRECTION('',(-3.333335657024E-04,0.999999944444));
#108 = ( GEOMETRIC_REPRESENTATION_CONTEXT(2) 
PARAMETRIC_REPRESENTATION_CONTEXT() REPRESENTATION_CONTEXT('2D SPACE',''
  ) );
#109 = ADVANCED_FACE('',(#110),#44,.T.);
#110 = FACE_BOUND('',#111,.T.);
#111 = EDGE_LOOP('',(#112,#140,#141));
#112 = ORIENTED_EDGE('',*,*,#113,.F.);
#113 = EDGE_CURVE('',#24,#114,#116,.T.);
#114 = VERTEX_POINT('',#115);
#115 = CARTESIAN_POINT('',(-31.9221811945,-43.50817783579,
    10.254141882783));
#116 = SURFACE_CURVE('',#117,(#121,#128),.PCURVE_S1.);
#117 = LINE('',#118,#119);
#118 = CARTESIAN_POINT('',(-31.97246506284,43.487729881196,
    10.236733317007));
#119 = VECTOR('',#120,1.);
#120 = DIRECTION('',(5.78002577902E-04,-0.999999812935,
    2.001078323802E-04));
#121 = PCURVE('',#44,#122);
#122 = DEFINITIONAL_REPRESENTATION('',(#123),#127);
#123 = LINE('',#124,#125);
#124 = CARTESIAN_POINT('',(1.76806707109E-02,-86.99592219422));
#125 = VECTOR('',#126,1.);
#126 = DIRECTION('',(-2.032356218523E-04,0.999999979348));
#127 = ( GEOMETRIC_REPRESENTATION_CONTEXT(2) 
PARAMETRIC_REPRESENTATION_CONTEXT() REPRESENTATION_CONTEXT('2D SPACE',''
  ) );
#128 = PCURVE('',#129,#134);
#129 = PLANE('',#130);
#130 = AXIS2_PLACEMENT_3D('',#131,#132,#133);
#131 = CARTESIAN_POINT('',(-29.39525281399,40.964368581283,
    12.751856748271));
#132 = DIRECTION('',(-0.698564042955,-2.60585209279E-04,0.715547489679)
  );
#133 = DIRECTION('',(0.715547513974,-1.400220519823E-20,0.698564066672)
  );
#134 = DEFINITIONAL_REPRESENTATION('',(#135),#139);
#135 = LINE('',#136,#137);
#136 = CARTESIAN_POINT('',(-3.601092669973,2.523361385587));
#137 = VECTOR('',#138,1.);
#138 = DIRECTION('',(5.533764488487E-04,-0.999999846887));
#139 = ( GEOMETRIC_REPRESENTATION_CONTEXT(2) 
PARAMETRIC_REPRESENTATION_CONTEXT() REPRESENTATION_CONTEXT('2D SPACE',''
  ) );
#140 = ORIENTED_EDGE('',*,*,#21,.F.);
#141 = ORIENTED_EDGE('',*,*,#142,.T.);
#142 = EDGE_CURVE('',#22,#114,#143,.T.);
#143 = SURFACE_CURVE('',#144,(#148,#155),.PCURVE_S1.);
#144 = LINE('',#145,#146);
#145 = CARTESIAN_POINT('',(-31.97745953506,-43.47716190401,
    5.196395218807E-02));
#146 = VECTOR('',#147,1.);
#147 = DIRECTION('',(5.418183655096E-03,-3.040069816615E-03,
    0.999980700444));
#148 = PCURVE('',#44,#149);
#149 = DEFINITIONAL_REPRESENTATION('',(#150),#154);
#150 = LINE('',#151,#152);
#151 = CARTESIAN_POINT('',(10.202327686471,-3.101593694568E-02));
#152 = VECTOR('',#153,1.);
#153 = DIRECTION('',(-0.999995378976,3.040070322521E-03));
#154 = ( GEOMETRIC_REPRESENTATION_CONTEXT(2) 
PARAMETRIC_REPRESENTATION_CONTEXT() REPRESENTATION_CONTEXT('2D SPACE',''
  ) );
#155 = PCURVE('',#156,#161);
#156 = PLANE('',#157);
#157 = AXIS2_PLACEMENT_3D('',#158,#159,#160);
#158 = CARTESIAN_POINT('',(31.914727069419,-43.46380519126,
    10.275517386465));
#159 = DIRECTION('',(6.961097274034E-04,-0.999995125085,
    -3.043885392514E-03));
#160 = DIRECTION('',(1.384553937471E-22,3.04388613E-03,-0.999995367368)
  );
#161 = DEFINITIONAL_REPRESENTATION('',(#162),#166);
#162 = LINE('',#163,#164);
#163 = CARTESIAN_POINT('',(10.223465416002,-63.89220208456));
#164 = VECTOR('',#165,1.);
#165 = DIRECTION('',(-0.999985321528,5.418184967838E-03));
#166 = ( GEOMETRIC_REPRESENTATION_CONTEXT(2) 
PARAMETRIC_REPRESENTATION_CONTEXT() REPRESENTATION_CONTEXT('2D SPACE',''
  ) );
#167 = ADVANCED_FACE('',(#168),#156,.T.);
#168 = FACE_BOUND('',#169,.T.);
#169 = EDGE_LOOP('',(#170,#198,#199));
#170 = ORIENTED_EDGE('',*,*,#171,.F.);
#171 = EDGE_CURVE('',#114,#172,#174,.T.);
#172 = VERTEX_POINT('',#173);
#173 = CARTESIAN_POINT('',(31.914727069419,-43.46380519126,
    10.275517386465));
#174 = SURFACE_CURVE('',#175,(#179,#186),.PCURVE_S1.);
#175 = LINE('',#176,#177);
#176 = CARTESIAN_POINT('',(-31.9221811945,-43.50817783579,
    10.254141882783));
#177 = VECTOR('',#178,1.);
#178 = DIRECTION('',(0.999999702362,6.950936776088E-04,
    3.348454350552E-04));
#179 = PCURVE('',#156,#180);
#180 = DEFINITIONAL_REPRESENTATION('',(#181),#185);
#181 = LINE('',#182,#183);
#182 = CARTESIAN_POINT('',(2.124033938027E-02,-63.83692373061));
#183 = VECTOR('',#184,1.);
#184 = DIRECTION('',(-3.327280978352E-04,0.999999944646));
#185 = ( GEOMETRIC_REPRESENTATION_CONTEXT(2) 
PARAMETRIC_REPRESENTATION_CONTEXT() REPRESENTATION_CONTEXT('2D SPACE',''
  ) );
#186 = PCURVE('',#187,#192);
#187 = PLANE('',#188);
#188 = AXIS2_PLACEMENT_3D('',#189,#190,#191);
#189 = CARTESIAN_POINT('',(31.914727069419,-43.46380519126,
    10.275517386465));
#190 = DIRECTION('',(-2.589014418179E-04,0.711145471493,-0.703044843054)
  );
#191 = DIRECTION('',(-9.753411761417E-21,0.703044866617,0.711145495327)
  );
#192 = DEFINITIONAL_REPRESENTATION('',(#193),#197);
#193 = LINE('',#194,#195);
#194 = CARTESIAN_POINT('',(-4.639705311568E-02,-63.83691040342));
#195 = VECTOR('',#196,1.);
#196 = DIRECTION('',(7.26805864631E-04,0.999999735877));
#197 = ( GEOMETRIC_REPRESENTATION_CONTEXT(2) 
PARAMETRIC_REPRESENTATION_CONTEXT() REPRESENTATION_CONTEXT('2D SPACE',''
  ) );
#198 = ORIENTED_EDGE('',*,*,#142,.F.);
#199 = ORIENTED_EDGE('',*,*,#200,.T.);
#200 = EDGE_CURVE('',#22,#172,#201,.T.);
#201 = SURFACE_CURVE('',#202,(#206,#213),.PCURVE_S1.);
#202 = LINE('',#203,#204);
#203 = CARTESIAN_POINT('',(-31.97745953506,-43.47716190401,
    5.196395218807E-02));
#204 = VECTOR('',#205,1.);
#205 = DIRECTION('',(0.987438673347,2.064248451041E-04,0.158002606837));
#206 = PCURVE('',#156,#207);
#207 = DEFINITIONAL_REPRESENTATION('',(#208),#212);
#208 = LINE('',#209,#210);
#209 = CARTESIAN_POINT('',(10.223465416002,-63.89220208456));
#210 = VECTOR('',#211,1.);
#211 = DIRECTION('',(-0.158001246535,0.987438912588));
#212 = ( GEOMETRIC_REPRESENTATION_CONTEXT(2) 
PARAMETRIC_REPRESENTATION_CONTEXT() REPRESENTATION_CONTEXT('2D SPACE',''
  ) );
#213 = PCURVE('',#214,#219);
#214 = PLANE('',#215);
#215 = AXIS2_PLACEMENT_3D('',#216,#217,#218);
#216 = CARTESIAN_POINT('',(31.914727069419,-43.46380519126,
    10.275517386465));
#217 = DIRECTION('',(-8.985497341236E-04,-0.999975639468,
    6.921927402195E-03));
#218 = DIRECTION('',(1.891467605808E-22,-6.921930196549E-03,
    -0.999976043154));
#219 = DEFINITIONAL_REPRESENTATION('',(#220),#224);
#220 = LINE('',#221,#222);
#221 = CARTESIAN_POINT('',(10.223400964417,-63.8922123975));
#222 = VECTOR('',#223,1.);
#223 = DIRECTION('',(-0.158000250451,0.987439071972));
#224 = ( GEOMETRIC_REPRESENTATION_CONTEXT(2) 
PARAMETRIC_REPRESENTATION_CONTEXT() REPRESENTATION_CONTEXT('2D SPACE',''
  ) );
#225 = ADVANCED_FACE('',(#226),#214,.T.);
#226 = FACE_BOUND('',#227,.T.);
#227 = EDGE_LOOP('',(#228,#229,#257));
#228 = ORIENTED_EDGE('',*,*,#200,.F.);
#229 = ORIENTED_EDGE('',*,*,#230,.T.);
#230 = EDGE_CURVE('',#22,#231,#233,.T.);
#231 = VERTEX_POINT('',#232);
#232 = CARTESIAN_POINT('',(31.927893933801,-43.53461725728,
    4.736765122427E-02));
#233 = SURFACE_CURVE('',#234,(#238,#245),.PCURVE_S1.);
#234 = LINE('',#235,#236);
#235 = CARTESIAN_POINT('',(-31.97745953506,-43.47716190401,
    5.196395218807E-02));
#236 = VECTOR('',#237,1.);
#237 = DIRECTION('',(0.999999593251,-8.990691199471E-04,
    -7.192353761874E-05));
#238 = PCURVE('',#214,#239);
#239 = DEFINITIONAL_REPRESENTATION('',(#240),#244);
#240 = LINE('',#241,#242);
#241 = CARTESIAN_POINT('',(10.223400964417,-63.8922123975));
#242 = VECTOR('',#243,1.);
#243 = DIRECTION('',(7.814510824779E-05,0.999999996947));
#244 = ( GEOMETRIC_REPRESENTATION_CONTEXT(2) 
PARAMETRIC_REPRESENTATION_CONTEXT() REPRESENTATION_CONTEXT('2D SPACE',''
  ) );
#245 = PCURVE('',#246,#251);
#246 = PLANE('',#247);
#247 = AXIS2_PLACEMENT_3D('',#248,#249,#250);
#248 = CARTESIAN_POINT('',(31.9359411593,43.472120215887,
    -2.753804771873E-02));
#249 = DIRECTION('',(-7.269755913537E-05,-8.609113287995E-04,
    -0.999999626773));
#250 = DIRECTION('',(4.875790627678E-24,-0.999999629416,
    8.609113310745E-04));
#251 = DEFINITIONAL_REPRESENTATION('',(#252),#256);
#252 = LINE('',#253,#254);
#253 = CARTESIAN_POINT('',(86.949318342042,63.913400863255));
#254 = VECTOR('',#255,1.);
#255 = DIRECTION('',(8.990068669778E-04,-0.999999595893));
#256 = ( GEOMETRIC_REPRESENTATION_CONTEXT(2) 
PARAMETRIC_REPRESENTATION_CONTEXT() REPRESENTATION_CONTEXT('2D SPACE',''
  ) );
#257 = ORIENTED_EDGE('',*,*,#258,.F.);
#258 = EDGE_CURVE('',#172,#231,#259,.T.);
#259 = SURFACE_CURVE('',#260,(#264,#271),.PCURVE_S1.);
#260 = LINE('',#261,#262);
#261 = CARTESIAN_POINT('',(31.914727069419,-43.46380519126,
    10.275517386465));
#262 = VECTOR('',#263,1.);
#263 = DIRECTION('',(1.287284432817E-03,-6.923081123214E-03,
    -0.999975206616));
#264 = PCURVE('',#214,#265);
#265 = DEFINITIONAL_REPRESENTATION('',(#266),#270);
#266 = LINE('',#267,#268);
#267 = CARTESIAN_POINT('',(0.,0.));
#268 = VECTOR('',#269,1.);
#269 = DIRECTION('',(0.999999171448,1.287284952489E-03));
#270 = ( GEOMETRIC_REPRESENTATION_CONTEXT(2) 
PARAMETRIC_REPRESENTATION_CONTEXT() REPRESENTATION_CONTEXT('2D SPACE',''
  ) );
#271 = PCURVE('',#272,#277);
#272 = PLANE('',#273);
#273 = AXIS2_PLACEMENT_3D('',#274,#275,#276);
#274 = CARTESIAN_POINT('',(31.914727069419,-43.46380519126,
    10.275517386465));
#275 = DIRECTION('',(0.999999111641,3.547585931819E-04,
    1.284859122733E-03));
#276 = DIRECTION('',(-1.284859203585E-03,8.798093713226E-25,
    0.999999174568));
#277 = DEFINITIONAL_REPRESENTATION('',(#278),#282);
#278 = LINE('',#279,#280);
#279 = CARTESIAN_POINT('',(0.,0.));
#280 = VECTOR('',#281,1.);
#281 = DIRECTION('',(-0.999976035184,6.923081558862E-03));
#282 = ( GEOMETRIC_REPRESENTATION_CONTEXT(2) 
PARAMETRIC_REPRESENTATION_CONTEXT() REPRESENTATION_CONTEXT('2D SPACE',''
  ) );
#283 = ADVANCED_FACE('',(#284),#129,.T.);
#284 = FACE_BOUND('',#285,.T.);
#285 = EDGE_LOOP('',(#286,#314,#315));
#286 = ORIENTED_EDGE('',*,*,#287,.F.);
#287 = EDGE_CURVE('',#24,#288,#290,.T.);
#288 = VERTEX_POINT('',#289);
#289 = CARTESIAN_POINT('',(-29.39525281399,40.964368581283,
    12.751856748271));
#290 = SURFACE_CURVE('',#291,(#295,#302),.PCURVE_S1.);
#291 = LINE('',#292,#293);
#292 = CARTESIAN_POINT('',(-31.97246506284,43.487729881196,
    10.236733317007));
#293 = VECTOR('',#294,1.);
#294 = DIRECTION('',(0.586105255252,-0.57385856343,0.571985121261));
#295 = PCURVE('',#129,#296);
#296 = DEFINITIONAL_REPRESENTATION('',(#297),#301);
#297 = LINE('',#298,#299);
#298 = CARTESIAN_POINT('',(-3.601092669973,2.523361385587));
#299 = VECTOR('',#300,1.);
#300 = DIRECTION('',(0.818954410707,-0.573858582914));
#301 = ( GEOMETRIC_REPRESENTATION_CONTEXT(2) 
PARAMETRIC_REPRESENTATION_CONTEXT() REPRESENTATION_CONTEXT('2D SPACE',''
  ) );
#302 = PCURVE('',#303,#308);
#303 = PLANE('',#304);
#304 = AXIS2_PLACEMENT_3D('',#305,#306,#307);
#305 = CARTESIAN_POINT('',(29.412723889422,40.940848627247,
    12.794287726169));
#306 = DIRECTION('',(-2.288134592199E-04,0.705832467074,0.708378765964)
  );
#307 = DIRECTION('',(2.253120864946E-20,0.708378784508,-0.705832485551)
  );
#308 = DEFINITIONAL_REPRESENTATION('',(#309),#313);
#309 = LINE('',#310,#311);
#310 = CARTESIAN_POINT('',(3.60936163251,61.385190559193));
#311 = VECTOR('',#312,1.);
#312 = DIRECTION('',(-0.81023491148,-0.586105270595));
#313 = ( GEOMETRIC_REPRESENTATION_CONTEXT(2) 
PARAMETRIC_REPRESENTATION_CONTEXT() REPRESENTATION_CONTEXT('2D SPACE',''
  ) );
#314 = ORIENTED_EDGE('',*,*,#113,.T.);
#315 = ORIENTED_EDGE('',*,*,#316,.T.);
#316 = EDGE_CURVE('',#114,#288,#317,.T.);
#317 = SURFACE_CURVE('',#318,(#322,#329),.PCURVE_S1.);
#318 = LINE('',#319,#320);
#319 = CARTESIAN_POINT('',(-31.9221811945,-43.50817783579,
    10.254141882783));
#320 = VECTOR('',#321,1.);
#321 = DIRECTION('',(2.988777058269E-02,0.999116598364,
    2.954224166239E-02));
#322 = PCURVE('',#129,#323);
#323 = DEFINITIONAL_REPRESENTATION('',(#324),#328);
#324 = LINE('',#325,#326);
#325 = CARTESIAN_POINT('',(-3.552951174491,-84.47254928512));
#326 = VECTOR('',#327,1.);
#327 = DIRECTION('',(4.202326841297E-02,0.999116632287));
#328 = ( GEOMETRIC_REPRESENTATION_CONTEXT(2) 
PARAMETRIC_REPRESENTATION_CONTEXT() REPRESENTATION_CONTEXT('2D SPACE',''
  ) );
#329 = PCURVE('',#330,#335);
#330 = PLANE('',#331);
#331 = AXIS2_PLACEMENT_3D('',#332,#333,#334);
#332 = CARTESIAN_POINT('',(-29.39525281399,40.964368581283,
    12.751856748271));
#333 = DIRECTION('',(-0.708287554586,3.148377694756E-04,0.705923962545)
  );
#334 = DIRECTION('',(-0.705923997532,-5.070389845394E-21,-0.70828758969)
  );
#335 = DEFINITIONAL_REPRESENTATION('',(#336),#340);
#336 = LINE('',#337,#338);
#337 = CARTESIAN_POINT('',(3.552919825659,84.472550603662));
#338 = VECTOR('',#339,1.);
#339 = DIRECTION('',(-4.202289762814E-02,-0.999116647882));
#340 = ( GEOMETRIC_REPRESENTATION_CONTEXT(2) 
PARAMETRIC_REPRESENTATION_CONTEXT() REPRESENTATION_CONTEXT('2D SPACE',''
  ) );
#341 = ADVANCED_FACE('',(#342),#330,.T.);
#342 = FACE_BOUND('',#343,.T.);
#343 = EDGE_LOOP('',(#344,#345,#373));
#344 = ORIENTED_EDGE('',*,*,#316,.F.);
#345 = ORIENTED_EDGE('',*,*,#346,.T.);
#346 = EDGE_CURVE('',#114,#347,#349,.T.);
#347 = VERTEX_POINT('',#348);
#348 = CARTESIAN_POINT('',(-29.40345059316,-40.92422310813,
    12.78015333211));
#349 = SURFACE_CURVE('',#350,(#354,#361),.PCURVE_S1.);
#350 = LINE('',#351,#352);
#351 = CARTESIAN_POINT('',(-31.9221811945,-43.50817783579,
    10.254141882783));
#352 = VECTOR('',#353,1.);
#353 = DIRECTION('',(0.571825339145,0.586633118958,0.573478304082));
#354 = PCURVE('',#330,#355);
#355 = DEFINITIONAL_REPRESENTATION('',(#356),#360);
#356 = LINE('',#357,#358);
#357 = CARTESIAN_POINT('',(3.552919825659,84.472550603662));
#358 = VECTOR('',#359,1.);
#359 = DIRECTION('',(-0.809852795037,-0.586633148033));
#360 = ( GEOMETRIC_REPRESENTATION_CONTEXT(2) 
PARAMETRIC_REPRESENTATION_CONTEXT() REPRESENTATION_CONTEXT('2D SPACE',''
  ) );
#361 = PCURVE('',#362,#367);
#362 = PLANE('',#363);
#363 = AXIS2_PLACEMENT_3D('',#364,#365,#366);
#364 = CARTESIAN_POINT('',(29.370104286319,-40.98228582761,
    12.786566406778));
#365 = DIRECTION('',(-7.682772181182E-04,-0.698660528388,0.715452916565)
  );
#366 = DIRECTION('',(8.599782609858E-21,0.715453127714,0.698660734581));
#367 = DEFINITIONAL_REPRESENTATION('',(#368),#372);
#368 = LINE('',#369,#370);
#369 = CARTESIAN_POINT('',(-3.57646291573,61.292303569718));
#370 = VECTOR('',#371,1.);
#371 = DIRECTION('',(0.820375272975,-0.571825507905));
#372 = ( GEOMETRIC_REPRESENTATION_CONTEXT(2) 
PARAMETRIC_REPRESENTATION_CONTEXT() REPRESENTATION_CONTEXT('2D SPACE',''
  ) );
#373 = ORIENTED_EDGE('',*,*,#374,.T.);
#374 = EDGE_CURVE('',#347,#288,#375,.T.);
#375 = SURFACE_CURVE('',#376,(#380,#387),.PCURVE_S1.);
#376 = LINE('',#377,#378);
#377 = CARTESIAN_POINT('',(-29.40345059316,-40.92422310813,
    12.78015333211));
#378 = VECTOR('',#379,1.);
#379 = DIRECTION('',(1.001089220469E-04,0.999999935287,
    -3.455497453765E-04));
#380 = PCURVE('',#330,#381);
#381 = DEFINITIONAL_REPRESENTATION('',(#382),#386);
#382 = LINE('',#383,#384);
#383 = CARTESIAN_POINT('',(-1.425511011925E-02,81.888595747936));
#384 = VECTOR('',#385,1.);
#385 = DIRECTION('',(1.740793058309E-04,-0.999999984848));
#386 = ( GEOMETRIC_REPRESENTATION_CONTEXT(2) 
PARAMETRIC_REPRESENTATION_CONTEXT() REPRESENTATION_CONTEXT('2D SPACE',''
  ) );
#387 = PCURVE('',#388,#393);
#388 = PLANE('',#389);
#389 = AXIS2_PLACEMENT_3D('',#390,#391,#392);
#390 = CARTESIAN_POINT('',(-29.39525281399,40.964368581283,
    12.751856748271));
#391 = DIRECTION('',(-1.087735814153E-04,3.455606342692E-04,
    0.999999934378));
#392 = DIRECTION('',(4.682613901593E-24,0.999999940294,
    -3.455606363135E-04));
#393 = DEFINITIONAL_REPRESENTATION('',(#394),#398);
#394 = LINE('',#395,#396);
#395 = CARTESIAN_POINT('',(-81.88859657836,8.197779220966E-03));
#396 = VECTOR('',#397,1.);
#397 = DIRECTION('',(0.999999994989,-1.001089226391E-04));
#398 = ( GEOMETRIC_REPRESENTATION_CONTEXT(2) 
PARAMETRIC_REPRESENTATION_CONTEXT() REPRESENTATION_CONTEXT('2D SPACE',''
  ) );
#399 = ADVANCED_FACE('',(#400),#98,.T.);
#400 = FACE_BOUND('',#401,.T.);
#401 = EDGE_LOOP('',(#402,#425,#426));
#402 = ORIENTED_EDGE('',*,*,#403,.F.);
#403 = EDGE_CURVE('',#22,#404,#406,.T.);
#404 = VERTEX_POINT('',#405);
#405 = CARTESIAN_POINT('',(31.9359411593,43.472120215887,
    -2.753804771873E-02));
#406 = SURFACE_CURVE('',#407,(#411,#418),.PCURVE_S1.);
#407 = LINE('',#408,#409);
#408 = CARTESIAN_POINT('',(-31.97745953506,-43.47716190401,
    5.196395218807E-02));
#409 = VECTOR('',#410,1.);
#410 = DIRECTION('',(0.592270618569,0.805738773806,-7.367265417062E-04)
  );
#411 = PCURVE('',#98,#412);
#412 = DEFINITIONAL_REPRESENTATION('',(#413),#417);
#413 = LINE('',#414,#415);
#414 = CARTESIAN_POINT('',(63.913443260538,-86.94928717726));
#415 = VECTOR('',#416,1.);
#416 = DIRECTION('',(-0.592271013019,0.805738820671));
#417 = ( GEOMETRIC_REPRESENTATION_CONTEXT(2) 
PARAMETRIC_REPRESENTATION_CONTEXT() REPRESENTATION_CONTEXT('2D SPACE',''
  ) );
#418 = PCURVE('',#246,#419);
#419 = DEFINITIONAL_REPRESENTATION('',(#420),#424);
#420 = LINE('',#421,#422);
#421 = CARTESIAN_POINT('',(86.949318342042,63.913400863255));
#422 = VECTOR('',#423,1.);
#423 = DIRECTION('',(-0.805739109468,-0.592270620134));
#424 = ( GEOMETRIC_REPRESENTATION_CONTEXT(2) 
PARAMETRIC_REPRESENTATION_CONTEXT() REPRESENTATION_CONTEXT('2D SPACE',''
  ) );
#425 = ORIENTED_EDGE('',*,*,#84,.T.);
#426 = ORIENTED_EDGE('',*,*,#427,.T.);
#427 = EDGE_CURVE('',#57,#404,#428,.T.);
#428 = SURFACE_CURVE('',#429,(#433,#440),.PCURVE_S1.);
#429 = LINE('',#430,#431);
#430 = CARTESIAN_POINT('',(-31.94848063659,43.528920617357,
    2.226613431249E-02));
#431 = VECTOR('',#432,1.);
#432 = DIRECTION('',(0.999999300854,-8.89111306971E-04,
    -7.795976829836E-04));
#433 = PCURVE('',#98,#434);
#434 = DEFINITIONAL_REPRESENTATION('',(#435),#439);
#435 = LINE('',#436,#437);
#436 = CARTESIAN_POINT('',(63.884441209515,5.680040477358E-02));
#437 = VECTOR('',#438,1.);
#438 = DIRECTION('',(-0.99999960474,-8.891113586858E-04));
#439 = ( GEOMETRIC_REPRESENTATION_CONTEXT(2) 
PARAMETRIC_REPRESENTATION_CONTEXT() REPRESENTATION_CONTEXT('2D SPACE',''
  ) );
#440 = PCURVE('',#441,#446);
#441 = PLANE('',#442);
#442 = AXIS2_PLACEMENT_3D('',#443,#444,#445);
#443 = CARTESIAN_POINT('',(31.883914072388,43.515589289986,
    10.241491894483));
#444 = DIRECTION('',(8.858071006786E-04,0.999990667528,
    -4.228498963085E-03));
#445 = DIRECTION('',(2.642450510345E-22,4.228500622041E-03,
    0.999991059851));
#446 = DEFINITIONAL_REPRESENTATION('',(#447),#451);
#447 = LINE('',#448,#449);
#448 = CARTESIAN_POINT('',(-10.21907802724,-63.83241975217));
#449 = VECTOR('',#450,1.);
#450 = DIRECTION('',(-7.83350320979E-04,0.999999693181));
#451 = ( GEOMETRIC_REPRESENTATION_CONTEXT(2) 
PARAMETRIC_REPRESENTATION_CONTEXT() REPRESENTATION_CONTEXT('2D SPACE',''
  ) );
#452 = ADVANCED_FACE('',(#453),#246,.T.);
#453 = FACE_BOUND('',#454,.T.);
#454 = EDGE_LOOP('',(#455,#481,#482));
#455 = ORIENTED_EDGE('',*,*,#456,.F.);
#456 = EDGE_CURVE('',#231,#404,#457,.T.);
#457 = SURFACE_CURVE('',#458,(#462,#469),.PCURVE_S1.);
#458 = LINE('',#459,#460);
#459 = CARTESIAN_POINT('',(31.927893933801,-43.53461725728,
    4.736765122427E-02));
#460 = VECTOR('',#461,1.);
#461 = DIRECTION('',(9.248964753833E-05,0.999999625133,
    -8.609180511613E-04));
#462 = PCURVE('',#246,#463);
#463 = DEFINITIONAL_REPRESENTATION('',(#464),#468);
#464 = LINE('',#465,#466);
#465 = CARTESIAN_POINT('',(87.006769717015,8.047225520259E-03));
#466 = VECTOR('',#467,1.);
#467 = DIRECTION('',(-0.999999995723,-9.248964778273E-05));
#468 = ( GEOMETRIC_REPRESENTATION_CONTEXT(2) 
PARAMETRIC_REPRESENTATION_CONTEXT() REPRESENTATION_CONTEXT('2D SPACE',''
  ) );
#469 = PCURVE('',#470,#475);
#470 = PLANE('',#471);
#471 = AXIS2_PLACEMENT_3D('',#472,#473,#474);
#472 = CARTESIAN_POINT('',(31.927893933801,-43.53461725728,
    4.736765122427E-02));
#473 = DIRECTION('',(0.999987160233,-8.812646648841E-05,
    5.066715158599E-03));
#474 = DIRECTION('',(-5.066715178273E-03,-1.396969841121E-23,
    0.999987164116));
#475 = DEFINITIONAL_REPRESENTATION('',(#476),#480);
#476 = LINE('',#477,#478);
#477 = CARTESIAN_POINT('',(0.,-0.));
#478 = VECTOR('',#479,1.);
#479 = DIRECTION('',(-8.613756192184E-04,-0.999999629016));
#480 = ( GEOMETRIC_REPRESENTATION_CONTEXT(2) 
PARAMETRIC_REPRESENTATION_CONTEXT() REPRESENTATION_CONTEXT('2D SPACE',''
  ) );
#481 = ORIENTED_EDGE('',*,*,#230,.F.);
#482 = ORIENTED_EDGE('',*,*,#403,.T.);
#483 = ADVANCED_FACE('',(#484),#441,.T.);
#484 = FACE_BOUND('',#485,.T.);
#485 = EDGE_LOOP('',(#486,#509,#510));
#486 = ORIENTED_EDGE('',*,*,#487,.T.);
#487 = EDGE_CURVE('',#488,#404,#490,.T.);
#488 = VERTEX_POINT('',#489);
#489 = CARTESIAN_POINT('',(31.883914072388,43.515589289986,
    10.241491894483));
#490 = SURFACE_CURVE('',#491,(#495,#502),.PCURVE_S1.);
#491 = LINE('',#492,#493);
#492 = CARTESIAN_POINT('',(31.883914072388,43.515589289986,
    10.241491894483));
#493 = VECTOR('',#494,1.);
#494 = DIRECTION('',(5.066296757314E-03,-4.232934077702E-03,
    -0.999978207216));
#495 = PCURVE('',#441,#496);
#496 = DEFINITIONAL_REPRESENTATION('',(#497),#501);
#497 = LINE('',#498,#499);
#498 = CARTESIAN_POINT('',(0.,0.));
#499 = VECTOR('',#500,1.);
#500 = DIRECTION('',(-0.999987166226,5.066298744961E-03));
#501 = ( GEOMETRIC_REPRESENTATION_CONTEXT(2) 
PARAMETRIC_REPRESENTATION_CONTEXT() REPRESENTATION_CONTEXT('2D SPACE',''
  ) );
#502 = PCURVE('',#470,#503);
#503 = DEFINITIONAL_REPRESENTATION('',(#504),#508);
#504 = LINE('',#505,#506);
#505 = CARTESIAN_POINT('',(10.194216226097,-87.0502068853));
#506 = VECTOR('',#507,1.);
#507 = DIRECTION('',(-0.999991041094,4.232934094139E-03));
#508 = ( GEOMETRIC_REPRESENTATION_CONTEXT(2) 
PARAMETRIC_REPRESENTATION_CONTEXT() REPRESENTATION_CONTEXT('2D SPACE',''
  ) );
#509 = ORIENTED_EDGE('',*,*,#427,.F.);
#510 = ORIENTED_EDGE('',*,*,#511,.T.);
#511 = EDGE_CURVE('',#57,#488,#512,.T.);
#512 = SURFACE_CURVE('',#513,(#517,#524),.PCURVE_S1.);
#513 = LINE('',#514,#515);
#514 = CARTESIAN_POINT('',(-31.94848063659,43.528920617357,
    2.226613431249E-02));
#515 = VECTOR('',#516,1.);
#516 = DIRECTION('',(0.987426024289,-2.062228691848E-04,0.158081637226)
  );
#517 = PCURVE('',#441,#518);
#518 = DEFINITIONAL_REPRESENTATION('',(#519),#523);
#519 = LINE('',#520,#521);
#520 = CARTESIAN_POINT('',(-10.21907802724,-63.83241975217));
#521 = VECTOR('',#522,1.);
#522 = DIRECTION('',(0.15807935194,0.987426411684));
#523 = ( GEOMETRIC_REPRESENTATION_CONTEXT(2) 
PARAMETRIC_REPRESENTATION_CONTEXT() REPRESENTATION_CONTEXT('2D SPACE',''
  ) );
#524 = PCURVE('',#72,#525);
#525 = DEFINITIONAL_REPRESENTATION('',(#526),#530);
#526 = LINE('',#527,#528);
#527 = CARTESIAN_POINT('',(10.214550234982,2.398442853301E-02));
#528 = VECTOR('',#529,1.);
#529 = DIRECTION('',(-0.158081183946,0.987426118392));
#530 = ( GEOMETRIC_REPRESENTATION_CONTEXT(2) 
PARAMETRIC_REPRESENTATION_CONTEXT() REPRESENTATION_CONTEXT('2D SPACE',''
  ) );
#531 = ADVANCED_FACE('',(#532),#72,.F.);
#532 = FACE_BOUND('',#533,.F.);
#533 = EDGE_LOOP('',(#534,#535,#536));
#534 = ORIENTED_EDGE('',*,*,#56,.T.);
#535 = ORIENTED_EDGE('',*,*,#511,.T.);
#536 = ORIENTED_EDGE('',*,*,#537,.F.);
#537 = EDGE_CURVE('',#24,#488,#538,.T.);
#538 = SURFACE_CURVE('',#539,(#543,#550),.PCURVE_S1.);
#539 = LINE('',#540,#541);
#540 = CARTESIAN_POINT('',(-31.97246506284,43.487729881196,
    10.236733317007));
#541 = VECTOR('',#542,1.);
#542 = DIRECTION('',(0.999999902052,4.362822702858E-04,
    7.451999431372E-05));
#543 = PCURVE('',#72,#544);
#544 = DEFINITIONAL_REPRESENTATION('',(#545),#549);
#545 = LINE('',#546,#547);
#546 = CARTESIAN_POINT('',(0.,0.));
#547 = VECTOR('',#548,1.);
#548 = DIRECTION('',(-7.276050367882E-05,0.999999997353));
#549 = ( GEOMETRIC_REPRESENTATION_CONTEXT(2) 
PARAMETRIC_REPRESENTATION_CONTEXT() REPRESENTATION_CONTEXT('2D SPACE',''
  ) );
#550 = PCURVE('',#551,#556);
#551 = PLANE('',#552);
#552 = AXIS2_PLACEMENT_3D('',#553,#554,#555);
#553 = CARTESIAN_POINT('',(29.412723889422,40.940848627247,
    12.794287726169));
#554 = DIRECTION('',(-3.601568274651E-04,0.704248305966,0.709953656115)
  );
#555 = DIRECTION('',(2.106621162607E-20,0.70995370216,-0.704248351641));
#556 = DEFINITIONAL_REPRESENTATION('',(#557),#561);
#557 = LINE('',#558,#559);
#558 = CARTESIAN_POINT('',(3.609321252088,61.38519293349));
#559 = VECTOR('',#560,1.);
#560 = DIRECTION('',(2.572596298163E-04,-0.999999966909));
#561 = ( GEOMETRIC_REPRESENTATION_CONTEXT(2) 
PARAMETRIC_REPRESENTATION_CONTEXT() REPRESENTATION_CONTEXT('2D SPACE',''
  ) );
#562 = ADVANCED_FACE('',(#563),#470,.T.);
#563 = FACE_BOUND('',#564,.T.);
#564 = EDGE_LOOP('',(#565,#566,#567));
#565 = ORIENTED_EDGE('',*,*,#456,.T.);
#566 = ORIENTED_EDGE('',*,*,#487,.F.);
#567 = ORIENTED_EDGE('',*,*,#568,.T.);
#568 = EDGE_CURVE('',#488,#231,#569,.T.);
#569 = SURFACE_CURVE('',#570,(#574,#581),.PCURVE_S1.);
#570 = LINE('',#571,#572);
#571 = CARTESIAN_POINT('',(31.883914072388,43.515589289986,
    10.241491894483));
#572 = VECTOR('',#573,1.);
#573 = DIRECTION('',(5.01794966E-04,-0.99321266669,-0.116311422176));
#574 = PCURVE('',#470,#575);
#575 = DEFINITIONAL_REPRESENTATION('',(#576),#580);
#576 = LINE('',#577,#578);
#577 = CARTESIAN_POINT('',(10.194216226097,-87.0502068853));
#578 = VECTOR('',#579,1.);
#579 = DIRECTION('',(-0.116312471668,0.993212670547));
#580 = ( GEOMETRIC_REPRESENTATION_CONTEXT(2) 
PARAMETRIC_REPRESENTATION_CONTEXT() REPRESENTATION_CONTEXT('2D SPACE',''
  ) );
#581 = PCURVE('',#272,#582);
#582 = DEFINITIONAL_REPRESENTATION('',(#583),#587);
#583 = LINE('',#584,#585);
#584 = CARTESIAN_POINT('',(-3.398587353341E-02,-86.97939995458));
#585 = VECTOR('',#586,1.);
#586 = DIRECTION('',(-0.116311970905,0.99321272919));
#587 = ( GEOMETRIC_REPRESENTATION_CONTEXT(2) 
PARAMETRIC_REPRESENTATION_CONTEXT() REPRESENTATION_CONTEXT('2D SPACE',''
  ) );
#588 = ADVANCED_FACE('',(#589),#272,.T.);
#589 = FACE_BOUND('',#590,.T.);
#590 = EDGE_LOOP('',(#591,#592,#593));
#591 = ORIENTED_EDGE('',*,*,#258,.T.);
#592 = ORIENTED_EDGE('',*,*,#568,.F.);
#593 = ORIENTED_EDGE('',*,*,#594,.T.);
#594 = EDGE_CURVE('',#488,#172,#595,.T.);
#595 = SURFACE_CURVE('',#596,(#600,#607),.PCURVE_S1.);
#596 = LINE('',#597,#598);
#597 = CARTESIAN_POINT('',(31.883914072388,43.515589289986,
    10.241491894483));
#598 = VECTOR('',#599,1.);
#599 = DIRECTION('',(3.542562341787E-04,-0.999999860736,
    3.911902059837E-04));
#600 = PCURVE('',#272,#601);
#601 = DEFINITIONAL_REPRESENTATION('',(#602),#606);
#602 = LINE('',#603,#604);
#603 = CARTESIAN_POINT('',(-3.398587353341E-02,-86.97939995458));
#604 = VECTOR('',#605,1.);
#605 = DIRECTION('',(3.907347136999E-04,0.999999923663));
#606 = ( GEOMETRIC_REPRESENTATION_CONTEXT(2) 
PARAMETRIC_REPRESENTATION_CONTEXT() REPRESENTATION_CONTEXT('2D SPACE',''
  ) );
#607 = PCURVE('',#608,#613);
#608 = PLANE('',#609);
#609 = AXIS2_PLACEMENT_3D('',#610,#611,#612);
#610 = CARTESIAN_POINT('',(29.412723889422,40.940848627247,
    12.794287726169));
#611 = DIRECTION('',(0.718232094662,5.266297484761E-04,0.695803406759));
#612 = DIRECTION('',(-0.695803503246,1.021047411849E-20,0.718232194259)
  );
#613 = DEFINITIONAL_REPRESENTATION('',(#614),#618);
#614 = LINE('',#615,#616);
#615 = CARTESIAN_POINT('',(-3.552962938184,-2.574741019777));
#616 = VECTOR('',#617,1.);
#617 = DIRECTION('',(3.447267122805E-05,0.999999999406));
#618 = ( GEOMETRIC_REPRESENTATION_CONTEXT(2) 
PARAMETRIC_REPRESENTATION_CONTEXT() REPRESENTATION_CONTEXT('2D SPACE',''
  ) );
#619 = ADVANCED_FACE('',(#620),#362,.T.);
#620 = FACE_BOUND('',#621,.T.);
#621 = EDGE_LOOP('',(#622,#645,#646));
#622 = ORIENTED_EDGE('',*,*,#623,.F.);
#623 = EDGE_CURVE('',#347,#624,#626,.T.);
#624 = VERTEX_POINT('',#625);
#625 = CARTESIAN_POINT('',(29.370104286319,-40.98228582761,
    12.786566406778));
#626 = SURFACE_CURVE('',#627,(#631,#638),.PCURVE_S1.);
#627 = LINE('',#628,#629);
#628 = CARTESIAN_POINT('',(-29.40345059316,-40.92422310813,
    12.78015333211));
#629 = VECTOR('',#630,1.);
#630 = DIRECTION('',(0.999999506069,-9.879050350595E-04,
    1.091149159395E-04));
#631 = PCURVE('',#362,#632);
#632 = DEFINITIONAL_REPRESENTATION('',(#633),#637);
#633 = LINE('',#634,#635);
#634 = CARTESIAN_POINT('',(3.706059079206E-02,58.773572225035));
#635 = VECTOR('',#636,1.);
#636 = DIRECTION('',(-6.305654398933E-04,-0.999999801194));
#637 = ( GEOMETRIC_REPRESENTATION_CONTEXT(2) 
PARAMETRIC_REPRESENTATION_CONTEXT() REPRESENTATION_CONTEXT('2D SPACE',''
  ) );
#638 = PCURVE('',#388,#639);
#639 = DEFINITIONAL_REPRESENTATION('',(#640),#644);
#640 = LINE('',#641,#642);
#641 = CARTESIAN_POINT('',(-81.88859657836,8.197779220966E-03));
#642 = VECTOR('',#643,1.);
#643 = DIRECTION('',(-9.879426818954E-04,-0.999999511985));
#644 = ( GEOMETRIC_REPRESENTATION_CONTEXT(2) 
PARAMETRIC_REPRESENTATION_CONTEXT() REPRESENTATION_CONTEXT('2D SPACE',''
  ) );
#645 = ORIENTED_EDGE('',*,*,#346,.F.);
#646 = ORIENTED_EDGE('',*,*,#647,.T.);
#647 = EDGE_CURVE('',#114,#624,#648,.T.);
#648 = SURFACE_CURVE('',#649,(#653,#660),.PCURVE_S1.);
#649 = LINE('',#650,#651);
#650 = CARTESIAN_POINT('',(-31.9221811945,-43.50817783579,
    10.254141882783));
#651 = VECTOR('',#652,1.);
#652 = DIRECTION('',(0.998301624889,4.11406113557E-02,4.124701008261E-02
    ));
#653 = PCURVE('',#362,#654);
#654 = DEFINITIONAL_REPRESENTATION('',(#655),#659);
#655 = LINE('',#656,#657);
#656 = CARTESIAN_POINT('',(-3.57646291573,61.292303569718));
#657 = VECTOR('',#658,1.);
#658 = DIRECTION('',(5.825184543406E-02,-0.998301919513));
#659 = ( GEOMETRIC_REPRESENTATION_CONTEXT(2) 
PARAMETRIC_REPRESENTATION_CONTEXT() REPRESENTATION_CONTEXT('2D SPACE',''
  ) );
#660 = PCURVE('',#187,#661);
#661 = DEFINITIONAL_REPRESENTATION('',(#662),#666);
#662 = LINE('',#663,#664);
#663 = CARTESIAN_POINT('',(-4.639705311568E-02,-63.83691040342));
#664 = VECTOR('',#665,1.);
#665 = DIRECTION('',(5.825632103905E-02,0.998301658347));
#666 = ( GEOMETRIC_REPRESENTATION_CONTEXT(2) 
PARAMETRIC_REPRESENTATION_CONTEXT() REPRESENTATION_CONTEXT('2D SPACE',''
  ) );
#667 = ADVANCED_FACE('',(#668),#187,.F.);
#668 = FACE_BOUND('',#669,.F.);
#669 = EDGE_LOOP('',(#670,#671,#672));
#670 = ORIENTED_EDGE('',*,*,#171,.F.);
#671 = ORIENTED_EDGE('',*,*,#647,.T.);
#672 = ORIENTED_EDGE('',*,*,#673,.T.);
#673 = EDGE_CURVE('',#624,#172,#674,.T.);
#674 = SURFACE_CURVE('',#675,(#679,#686),.PCURVE_S1.);
#675 = LINE('',#676,#677);
#676 = CARTESIAN_POINT('',(29.370104286319,-40.98228582761,
    12.786566406778));
#677 = VECTOR('',#678,1.);
#678 = DIRECTION('',(0.584724978663,-0.57022454039,-0.577010115045));
#679 = PCURVE('',#187,#680);
#680 = DEFINITIONAL_REPRESENTATION('',(#681),#685);
#681 = LINE('',#682,#683);
#682 = CARTESIAN_POINT('',(3.530340649364,-2.544622868383));
#683 = VECTOR('',#684,1.);
#684 = DIRECTION('',(-0.811231580013,0.58472499826));
#685 = ( GEOMETRIC_REPRESENTATION_CONTEXT(2) 
PARAMETRIC_REPRESENTATION_CONTEXT() REPRESENTATION_CONTEXT('2D SPACE',''
  ) );
#686 = PCURVE('',#687,#692);
#687 = PLANE('',#688);
#688 = AXIS2_PLACEMENT_3D('',#689,#690,#691);
#689 = CARTESIAN_POINT('',(29.412723889422,40.940848627247,
    12.794287726169));
#690 = DIRECTION('',(0.702181790418,-4.324086246026E-04,0.711997574594)
  );
#691 = DIRECTION('',(0.711997641158,8.211346281747E-21,-0.702181856064)
  );
#692 = DEFINITIONAL_REPRESENTATION('',(#693),#697);
#693 = LINE('',#694,#695);
#694 = CARTESIAN_POINT('',(-2.492328649438E-02,-81.92314211373));
#695 = VECTOR('',#696,1.);
#696 = DIRECTION('',(0.821488839084,-0.5702245937));
#697 = ( GEOMETRIC_REPRESENTATION_CONTEXT(2) 
PARAMETRIC_REPRESENTATION_CONTEXT() REPRESENTATION_CONTEXT('2D SPACE',''
  ) );
#698 = ADVANCED_FACE('',(#699),#388,.T.);
#699 = FACE_BOUND('',#700,.T.);
#700 = EDGE_LOOP('',(#701,#702,#703));
#701 = ORIENTED_EDGE('',*,*,#374,.F.);
#702 = ORIENTED_EDGE('',*,*,#623,.T.);
#703 = ORIENTED_EDGE('',*,*,#704,.F.);
#704 = EDGE_CURVE('',#288,#624,#705,.T.);
#705 = SURFACE_CURVE('',#706,(#710,#717),.PCURVE_S1.);
#706 = LINE('',#707,#708);
#707 = CARTESIAN_POINT('',(-29.39525281399,40.964368581283,
    12.751856748271));
#708 = VECTOR('',#709,1.);
#709 = DIRECTION('',(0.582760779675,-0.8126436828,3.442066661643E-04));
#710 = PCURVE('',#388,#711);
#711 = DEFINITIONAL_REPRESENTATION('',(#712),#716);
#712 = LINE('',#713,#714);
#713 = CARTESIAN_POINT('',(0.,-0.));
#714 = VECTOR('',#715,1.);
#715 = DIRECTION('',(-0.812643753225,-0.582760783122));
#716 = ( GEOMETRIC_REPRESENTATION_CONTEXT(2) 
PARAMETRIC_REPRESENTATION_CONTEXT() REPRESENTATION_CONTEXT('2D SPACE',''
  ) );
#717 = PCURVE('',#718,#723);
#718 = PLANE('',#719);
#719 = AXIS2_PLACEMENT_3D('',#720,#721,#722);
#720 = CARTESIAN_POINT('',(29.412723889422,40.940848627247,
    12.794287726169));
#721 = DIRECTION('',(-7.215547445859E-04,-9.387537503083E-05,
    0.999999735273));
#722 = DIRECTION('',(0.999999739679,5.398865543213E-24,
    7.215547477653E-04));
#723 = DEFINITIONAL_REPRESENTATION('',(#724),#728);
#724 = LINE('',#725,#726);
#725 = CARTESIAN_POINT('',(-58.80799201075,2.351995413975E-02));
#726 = VECTOR('',#727,1.);
#727 = DIRECTION('',(0.582760876334,-0.812643686381));
#728 = ( GEOMETRIC_REPRESENTATION_CONTEXT(2) 
PARAMETRIC_REPRESENTATION_CONTEXT() REPRESENTATION_CONTEXT('2D SPACE',''
  ) );
#729 = ADVANCED_FACE('',(#730),#718,.T.);
#730 = FACE_BOUND('',#731,.T.);
#731 = EDGE_LOOP('',(#732,#755,#756));
#732 = ORIENTED_EDGE('',*,*,#733,.F.);
#733 = EDGE_CURVE('',#288,#734,#736,.T.);
#734 = VERTEX_POINT('',#735);
#735 = CARTESIAN_POINT('',(29.412723889422,40.940848627247,
    12.794287726169));
#736 = SURFACE_CURVE('',#737,(#741,#748),.PCURVE_S1.);
#737 = LINE('',#738,#739);
#738 = CARTESIAN_POINT('',(-29.39525281399,40.964368581283,
    12.751856748271));
#739 = VECTOR('',#740,1.);
#740 = DIRECTION('',(0.999999659729,-3.999448263891E-04,
    7.215171450959E-04));
#741 = PCURVE('',#718,#742);
#742 = DEFINITIONAL_REPRESENTATION('',(#743),#747);
#743 = LINE('',#744,#745);
#744 = CARTESIAN_POINT('',(-58.80799201075,2.351995413975E-02));
#745 = VECTOR('',#746,1.);
#746 = DIRECTION('',(0.999999920022,-3.999448281514E-04));
#747 = ( GEOMETRIC_REPRESENTATION_CONTEXT(2) 
PARAMETRIC_REPRESENTATION_CONTEXT() REPRESENTATION_CONTEXT('2D SPACE',''
  ) );
#748 = PCURVE('',#303,#749);
#749 = DEFINITIONAL_REPRESENTATION('',(#750),#754);
#750 = LINE('',#751,#752);
#751 = CARTESIAN_POINT('',(4.661019904587E-02,58.807978242879));
#752 = VECTOR('',#753,1.);
#753 = DIRECTION('',(-7.925826698785E-04,-0.999999685906));
#754 = ( GEOMETRIC_REPRESENTATION_CONTEXT(2) 
PARAMETRIC_REPRESENTATION_CONTEXT() REPRESENTATION_CONTEXT('2D SPACE',''
  ) );
#755 = ORIENTED_EDGE('',*,*,#704,.T.);
#756 = ORIENTED_EDGE('',*,*,#757,.T.);
#757 = EDGE_CURVE('',#624,#734,#758,.T.);
#758 = SURFACE_CURVE('',#759,(#763,#770),.PCURVE_S1.);
#759 = LINE('',#760,#761);
#760 = CARTESIAN_POINT('',(29.370104286319,-40.98228582761,
    12.786566406778));
#761 = VECTOR('',#762,1.);
#762 = DIRECTION('',(5.202388486379E-04,0.999999860234,
    9.425076767053E-05));
#763 = PCURVE('',#718,#764);
#764 = DEFINITIONAL_REPRESENTATION('',(#765),#769);
#765 = LINE('',#766,#767);
#766 = CARTESIAN_POINT('',(-4.262516336227E-02,-81.92313481583));
#767 = VECTOR('',#768,1.);
#768 = DIRECTION('',(5.203067202979E-04,0.99999986464));
#769 = ( GEOMETRIC_REPRESENTATION_CONTEXT(2) 
PARAMETRIC_REPRESENTATION_CONTEXT() REPRESENTATION_CONTEXT('2D SPACE',''
  ) );
#770 = PCURVE('',#687,#771);
#771 = DEFINITIONAL_REPRESENTATION('',(#772),#776);
#772 = LINE('',#773,#774);
#773 = CARTESIAN_POINT('',(-2.492328649438E-02,-81.92314211373));
#774 = VECTOR('',#775,1.);
#775 = DIRECTION('',(3.042276540907E-04,0.999999953723));
#776 = ( GEOMETRIC_REPRESENTATION_CONTEXT(2) 
PARAMETRIC_REPRESENTATION_CONTEXT() REPRESENTATION_CONTEXT('2D SPACE',''
  ) );
#777 = ADVANCED_FACE('',(#778),#303,.T.);
#778 = FACE_BOUND('',#779,.T.);
#779 = EDGE_LOOP('',(#780,#801,#802));
#780 = ORIENTED_EDGE('',*,*,#781,.F.);
#781 = EDGE_CURVE('',#24,#734,#782,.T.);
#782 = SURFACE_CURVE('',#783,(#787,#794),.PCURVE_S1.);
#783 = LINE('',#784,#785);
#784 = CARTESIAN_POINT('',(-31.97246506284,43.487729881196,
    10.236733317007));
#785 = VECTOR('',#786,1.);
#786 = DIRECTION('',(0.99827580715,-4.141862203077E-02,
    4.159219407344E-02));
#787 = PCURVE('',#303,#788);
#788 = DEFINITIONAL_REPRESENTATION('',(#789),#793);
#789 = LINE('',#790,#791);
#790 = CARTESIAN_POINT('',(3.60936163251,61.385190559193));
#791 = VECTOR('',#792,1.);
#792 = DIRECTION('',(-5.869719485253E-02,-0.998275833283));
#793 = ( GEOMETRIC_REPRESENTATION_CONTEXT(2) 
PARAMETRIC_REPRESENTATION_CONTEXT() REPRESENTATION_CONTEXT('2D SPACE',''
  ) );
#794 = PCURVE('',#551,#795);
#795 = DEFINITIONAL_REPRESENTATION('',(#796),#800);
#796 = LINE('',#797,#798);
#797 = CARTESIAN_POINT('',(3.609321252088,61.38519293349));
#798 = VECTOR('',#799,1.);
#799 = DIRECTION('',(-5.869653816647E-02,-0.998275871895));
#800 = ( GEOMETRIC_REPRESENTATION_CONTEXT(2) 
PARAMETRIC_REPRESENTATION_CONTEXT() REPRESENTATION_CONTEXT('2D SPACE',''
  ) );
#801 = ORIENTED_EDGE('',*,*,#287,.T.);
#802 = ORIENTED_EDGE('',*,*,#733,.T.);
#803 = ADVANCED_FACE('',(#804),#551,.T.);
#804 = FACE_BOUND('',#805,.T.);
#805 = EDGE_LOOP('',(#806,#827,#828));
#806 = ORIENTED_EDGE('',*,*,#807,.T.);
#807 = EDGE_CURVE('',#734,#488,#808,.T.);
#808 = SURFACE_CURVE('',#809,(#813,#820),.PCURVE_S1.);
#809 = LINE('',#810,#811);
#810 = CARTESIAN_POINT('',(29.412723889422,40.940848627247,
    12.794287726169));
#811 = VECTOR('',#812,1.);
#812 = DIRECTION('',(0.563195016823,0.586794622632,-0.581793299958));
#813 = PCURVE('',#551,#814);
#814 = DEFINITIONAL_REPRESENTATION('',(#815),#819);
#815 = LINE('',#816,#817);
#816 = CARTESIAN_POINT('',(0.,-0.));
#817 = VECTOR('',#818,1.);
#818 = DIRECTION('',(0.826323987236,-0.56319505335));
#819 = ( GEOMETRIC_REPRESENTATION_CONTEXT(2) 
PARAMETRIC_REPRESENTATION_CONTEXT() REPRESENTATION_CONTEXT('2D SPACE',''
  ) );
#820 = PCURVE('',#608,#821);
#821 = DEFINITIONAL_REPRESENTATION('',(#822),#826);
#822 = LINE('',#823,#824);
#823 = CARTESIAN_POINT('',(0.,0.));
#824 = VECTOR('',#825,1.);
#825 = DIRECTION('',(-0.80973574415,-0.586794704003));
#826 = ( GEOMETRIC_REPRESENTATION_CONTEXT(2) 
PARAMETRIC_REPRESENTATION_CONTEXT() REPRESENTATION_CONTEXT('2D SPACE',''
  ) );
#827 = ORIENTED_EDGE('',*,*,#537,.F.);
#828 = ORIENTED_EDGE('',*,*,#781,.T.);
#829 = ADVANCED_FACE('',(#830),#687,.T.);
#830 = FACE_BOUND('',#831,.T.);
#831 = EDGE_LOOP('',(#832,#833,#834));
#832 = ORIENTED_EDGE('',*,*,#757,.F.);
#833 = ORIENTED_EDGE('',*,*,#673,.T.);
#834 = ORIENTED_EDGE('',*,*,#835,.F.);
#835 = EDGE_CURVE('',#734,#172,#836,.T.);
#836 = SURFACE_CURVE('',#837,(#841,#848),.PCURVE_S1.);
#837 = LINE('',#838,#839);
#838 = CARTESIAN_POINT('',(29.412723889422,40.940848627247,
    12.794287726169));
#839 = VECTOR('',#840,1.);
#840 = DIRECTION('',(2.961676512919E-02,-0.999116559059,
    -2.981524170783E-02));
#841 = PCURVE('',#687,#842);
#842 = DEFINITIONAL_REPRESENTATION('',(#843),#847);
#843 = LINE('',#844,#845);
#844 = CARTESIAN_POINT('',(0.,0.));
#845 = VECTOR('',#846,1.);
#846 = DIRECTION('',(4.202278867211E-02,-0.999116652465));
#847 = ( GEOMETRIC_REPRESENTATION_CONTEXT(2) 
PARAMETRIC_REPRESENTATION_CONTEXT() REPRESENTATION_CONTEXT('2D SPACE',''
  ) );
#848 = PCURVE('',#608,#849);
#849 = DEFINITIONAL_REPRESENTATION('',(#850),#854);
#850 = LINE('',#851,#852);
#851 = CARTESIAN_POINT('',(0.,0.));
#852 = VECTOR('',#853,1.);
#853 = DIRECTION('',(-4.202171540589E-02,0.999116697606));
#854 = ( GEOMETRIC_REPRESENTATION_CONTEXT(2) 
PARAMETRIC_REPRESENTATION_CONTEXT() REPRESENTATION_CONTEXT('2D SPACE',''
  ) );
#855 = ADVANCED_FACE('',(#856),#608,.T.);
#856 = FACE_BOUND('',#857,.T.);
#857 = EDGE_LOOP('',(#858,#859,#860));
#858 = ORIENTED_EDGE('',*,*,#835,.T.);
#859 = ORIENTED_EDGE('',*,*,#594,.F.);
#860 = ORIENTED_EDGE('',*,*,#807,.F.);
#861 = ( GEOMETRIC_REPRESENTATION_CONTEXT(3) 
GLOBAL_UNCERTAINTY_ASSIGNED_CONTEXT((#865)) GLOBAL_UNIT_ASSIGNED_CONTEXT
((#862,#863,#864)) REPRESENTATION_CONTEXT('Context #1',
  '3D Context with UNIT and UNCERTAINTY') );
#862 = ( LENGTH_UNIT() NAMED_UNIT(*) SI_UNIT(.MILLI.,.METRE.) );
#863 = ( NAMED_UNIT(*) PLANE_ANGLE_UNIT() SI_UNIT($,.RADIAN.) );
#864 = ( NAMED_UNIT(*) SI_UNIT($,.STERADIAN.) SOLID_ANGLE_UNIT() );
#865 = UNCERTAINTY_MEASURE_WITH_UNIT(LENGTH_MEASURE(1.E-07),#862,
  'distance_accuracy_value','confusion accuracy');
#866 = PRODUCT_TYPE('part',$,(#7));
ENDSEC;
END-ISO-10303-21;
