ISO-10303-21;
HEADER;
FILE_DESCRIPTION(('Open CASCADE Model'),'2;1');
FILE_NAME('Open CASCADE Shape Model','2026-10-04T20:47:59',('Author'),(
    'Open CASCADE'),'Open CASCADE STEP processor 7.8','Open CASCADE 7.8'
  ,'Unknown');
FILE_SCHEMA(('AUTOMOTIVE_DESIGN_CC2 { 1 2 10303 214 -1 1 5 4 }'));
ENDSEC;
DATA;
#1 = APPLICATION_PROTOCOL_DEFINITION('committee draft',
  'automotive_design',1997,#2);
#2 = APPLICATION_CONTEXT(
  'core data for automotive mechanical design processes');
#3 = SHAPE_DEFINITION_REPRESENTATION(#4,#10);
#4 = PRODUCT_DEFINITION_SHAPE('','',#5);
#5 = PRODUCT_DEFINITION('design','',#6,#9);
#6 = PRODUCT_DEFINITION_FORMATION('','',#7);
#7 = PRODUCT('Open CASCADE STEP translator 7.8 63',
  'Open CASCADE STEP translator 7.8 63','',(#8));
#8 = MECHANICAL_CONTEXT('',#2,'mechanical');
#9 = PRODUCT_DEFINITION_CONTEXT('part definition',#2,'design');
#10 = ADVANCED_BREP_SHAPE_REPRESENTATION('',(#11,#15),#1029);
#11 = AXIS2_PLACEMENT_3D('',#12,#13,#14);
#12 = CARTESIAN_POINT('',(0.,0.,0.));
#13 = DIRECTION('',(0.,0.,1.));
#14 = DIRECTION('',(1.,0.,-0.));
#15 = MANIFOLD_SOLID_BREP('',#16);
#16 = CLOSED_SHELL('',(#17,#109,#167,#225,#283,#341,#394,#442,#473,#531,
    #582,#640,#691,#697,#723,#749,#775,#781,#839,#892,#923,#971,#997,
    #1023));
#17 = ADVANCED_FACE('',(#18),#32,.T.);
#18 = FACE_BOUND('',#19,.T.);
#19 = EDGE_LOOP('',(#20,#55,#83));
#20 = ORIENTED_EDGE('',*,*,#21,.T.);
#21 = EDGE_CURVE('',#22,#24,#26,.T.);
#22 = VERTEX_POINT('',#23);
#23 = CARTESIAN_POINT('',(57.724120269351,32.898668767458,19.68571048108
    ));
#24 = VERTEX_POINT('',#25);
#25 = CARTESIAN_POINT('',(57.75255686652,32.889184570032,
    -1.691477097912E-02));
#26 = SURFACE_CURVE('',#27,(#31,#43),.PCURVE_S1.);
#27 = LINE('',#28,#29);
#28 = CARTESIAN_POINT('',(57.724120269351,32.898668767458,19.68571048108
    ));
#29 = VECTOR('',#30,1.);
#30 = DIRECTION('',(1.443288084356E-03,-4.813666365597E-04,
    -0.999998842602));
#31 = PCURVE('',#32,#37);
#32 = PLANE('',#33);
#33 = AXIS2_PLACEMENT_3D('',#34,#35,#36);
#34 = CARTESIAN_POINT('',(57.724120269351,32.898668767458,19.68571048108
    ));
#35 = DIRECTION('',(-2.104976001941E-04,0.999999861842,
    -4.81670936218E-04));
#36 = DIRECTION('',(3.649006453334E-24,4.816709468893E-04,0.999999883997
    ));
#37 = DEFINITIONAL_REPRESENTATION('',(#38),#42);
#38 = LINE('',#39,#40);
#39 = CARTESIAN_POINT('',(0.,0.));
#40 = VECTOR('',#41,1.);
#41 = DIRECTION('',(-0.999998958459,1.443288116331E-03));
#42 = ( GEOMETRIC_REPRESENTATION_CONTEXT(2) 
PARAMETRIC_REPRESENTATION_CONTEXT() REPRESENTATION_CONTEXT('2D SPACE',''
  ) );
#43 = PCURVE('',#44,#49);
#44 = PLANE('',#45);
#45 = AXIS2_PLACEMENT_3D('',#46,#47,#48);
#46 = CARTESIAN_POINT('',(57.716395670865,-32.87656314176,
    1.656572072499E-02));
#47 = DIRECTION('',(0.999998807315,-5.491129188045E-04,
    1.443552358371E-03));
#48 = DIRECTION('',(-1.443552576005E-03,1.693974453173E-23,
    0.999998958077));
#49 = DEFINITIONAL_REPRESENTATION('',(#50),#54);
#50 = LINE('',#51,#52);
#51 = CARTESIAN_POINT('',(19.669113115766,-65.77524182566));
#52 = VECTOR('',#53,1.);
#53 = DIRECTION('',(-0.999999884143,4.813667091317E-04));
#54 = ( GEOMETRIC_REPRESENTATION_CONTEXT(2) 
PARAMETRIC_REPRESENTATION_CONTEXT() REPRESENTATION_CONTEXT('2D SPACE',''
  ) );
#55 = ORIENTED_EDGE('',*,*,#56,.F.);
#56 = EDGE_CURVE('',#57,#24,#59,.T.);
#57 = VERTEX_POINT('',#58);
#58 = CARTESIAN_POINT('',(-57.72288837917,32.864892641708,
    1.501395113158E-02));
#59 = SURFACE_CURVE('',#60,(#64,#71),.PCURVE_S1.);
#60 = LINE('',#61,#62);
#61 = CARTESIAN_POINT('',(-57.72288837917,32.864892641708,
    1.501395113158E-02));
#62 = VECTOR('',#63,1.);
#63 = DIRECTION('',(0.999999939648,2.103644355427E-04,
    -2.764979179409E-04));
#64 = PCURVE('',#32,#65);
#65 = DEFINITIONAL_REPRESENTATION('',(#66),#70);
#66 = LINE('',#67,#68);
#67 = CARTESIAN_POINT('',(-19.67071051705,-115.4470112062));
#68 = VECTOR('',#69,1.);
#69 = DIRECTION('',(-2.763965594294E-04,0.999999961802));
#70 = ( GEOMETRIC_REPRESENTATION_CONTEXT(2) 
PARAMETRIC_REPRESENTATION_CONTEXT() REPRESENTATION_CONTEXT('2D SPACE',''
  ) );
#71 = PCURVE('',#72,#77);
#72 = PLANE('',#73);
#73 = AXIS2_PLACEMENT_3D('',#74,#75,#76);
#74 = CARTESIAN_POINT('',(57.75255686652,32.889184570032,
    -1.691477097912E-02));
#75 = DIRECTION('',(-2.76390826426E-04,-5.089350099575E-04,
    -0.999999832297));
#76 = DIRECTION('',(-1.834103426344E-23,-0.999999870493,
    5.089350293967E-04));
#77 = DEFINITIONAL_REPRESENTATION('',(#78),#82);
#78 = LINE('',#79,#80);
#79 = CARTESIAN_POINT('',(2.430817482336E-02,115.47544965638));
#80 = VECTOR('',#81,1.);
#81 = DIRECTION('',(-2.105051277749E-04,-0.999999977844));
#82 = ( GEOMETRIC_REPRESENTATION_CONTEXT(2) 
PARAMETRIC_REPRESENTATION_CONTEXT() REPRESENTATION_CONTEXT('2D SPACE',''
  ) );
#83 = ORIENTED_EDGE('',*,*,#84,.T.);
#84 = EDGE_CURVE('',#57,#22,#85,.T.);
#85 = SURFACE_CURVE('',#86,(#90,#97),.PCURVE_S1.);
#86 = LINE('',#87,#88);
#87 = CARTESIAN_POINT('',(-57.72288837917,32.864892641708,
    1.501395113158E-02));
#88 = VECTOR('',#89,1.);
#89 = DIRECTION('',(0.98579266404,2.884116043717E-04,0.167966485774));
#90 = PCURVE('',#32,#91);
#91 = DEFINITIONAL_REPRESENTATION('',(#92),#96);
#92 = LINE('',#93,#94);
#93 = CARTESIAN_POINT('',(-19.67071051705,-115.4470112062));
#94 = VECTOR('',#95,1.);
#95 = DIRECTION('',(0.167966605209,0.98579268588));
#96 = ( GEOMETRIC_REPRESENTATION_CONTEXT(2) 
PARAMETRIC_REPRESENTATION_CONTEXT() REPRESENTATION_CONTEXT('2D SPACE',''
  ) );
#97 = PCURVE('',#98,#103);
#98 = PLANE('',#99);
#99 = AXIS2_PLACEMENT_3D('',#100,#101,#102);
#100 = CARTESIAN_POINT('',(57.724120269351,32.898668767458,
    19.68571048108));
#101 = DIRECTION('',(3.956503710248E-05,0.999998099366,
    -1.949281596425E-03));
#102 = DIRECTION('',(6.200568219409E-24,1.949281597951E-03,
    0.999998100149));
#103 = DEFINITIONAL_REPRESENTATION('',(#104),#108);
#104 = LINE('',#105,#106);
#105 = CARTESIAN_POINT('',(-19.67072499773,-115.4470087388));
#106 = VECTOR('',#107,1.);
#107 = DIRECTION('',(0.167966728858,0.985792664812));
#108 = ( GEOMETRIC_REPRESENTATION_CONTEXT(2) 
PARAMETRIC_REPRESENTATION_CONTEXT() REPRESENTATION_CONTEXT('2D SPACE',''
  ) );
#109 = ADVANCED_FACE('',(#110),#98,.T.);
#110 = FACE_BOUND('',#111,.T.);
#111 = EDGE_LOOP('',(#112,#113,#141));
#112 = ORIENTED_EDGE('',*,*,#84,.F.);
#113 = ORIENTED_EDGE('',*,*,#114,.F.);
#114 = EDGE_CURVE('',#115,#57,#117,.T.);
#115 = VERTEX_POINT('',#116);
#116 = CARTESIAN_POINT('',(-57.75998119496,32.903262726591,
    19.698442167382));
#117 = SURFACE_CURVE('',#118,(#122,#129),.PCURVE_S1.);
#118 = LINE('',#119,#120);
#119 = CARTESIAN_POINT('',(-57.75998119496,32.903262726591,
    19.698442167382));
#120 = VECTOR('',#121,1.);
#121 = DIRECTION('',(1.884462352922E-03,-1.949352695486E-03,
    -0.999996324406));
#122 = PCURVE('',#98,#123);
#123 = DEFINITIONAL_REPRESENTATION('',(#124),#128);
#124 = LINE('',#125,#126);
#125 = CARTESIAN_POINT('',(1.274061703284E-02,-115.4841015547));
#126 = VECTOR('',#127,1.);
#127 = DIRECTION('',(-0.999998224399,1.884462354397E-03));
#128 = ( GEOMETRIC_REPRESENTATION_CONTEXT(2) 
PARAMETRIC_REPRESENTATION_CONTEXT() REPRESENTATION_CONTEXT('2D SPACE',''
  ) );
#129 = PCURVE('',#130,#135);
#130 = PLANE('',#131);
#131 = AXIS2_PLACEMENT_3D('',#132,#133,#134);
#132 = CARTESIAN_POINT('',(-57.73039075148,-32.8865940855,
    -3.366306135774E-03));
#133 = DIRECTION('',(-0.999998217402,1.146285868531E-04,
    -1.88468937258E-03));
#134 = DIRECTION('',(1.884689384962E-03,-6.508253726503E-24,
    -0.999998223971));
#135 = DEFINITIONAL_REPRESENTATION('',(#136),#140);
#136 = LINE('',#137,#138);
#137 = CARTESIAN_POINT('',(-19.70182925133,-65.78985724432));
#138 = VECTOR('',#139,1.);
#139 = DIRECTION('',(0.99999810001,1.949352708293E-03));
#140 = ( GEOMETRIC_REPRESENTATION_CONTEXT(2) 
PARAMETRIC_REPRESENTATION_CONTEXT() REPRESENTATION_CONTEXT('2D SPACE',''
  ) );
#141 = ORIENTED_EDGE('',*,*,#142,.T.);
#142 = EDGE_CURVE('',#115,#22,#143,.T.);
#143 = SURFACE_CURVE('',#144,(#148,#155),.PCURVE_S1.);
#144 = LINE('',#145,#146);
#145 = CARTESIAN_POINT('',(-57.75998119496,32.903262726591,
    19.698442167382));
#146 = VECTOR('',#147,1.);
#147 = DIRECTION('',(0.999999993132,-3.97800133751E-05,
    -1.102462248246E-04));
#148 = PCURVE('',#98,#149);
#149 = DEFINITIONAL_REPRESENTATION('',(#150),#154);
#150 = LINE('',#151,#152);
#151 = CARTESIAN_POINT('',(1.274061703284E-02,-115.4841015547));
#152 = VECTOR('',#153,1.);
#153 = DIRECTION('',(-1.103235578213E-04,0.999999993914));
#154 = ( GEOMETRIC_REPRESENTATION_CONTEXT(2) 
PARAMETRIC_REPRESENTATION_CONTEXT() REPRESENTATION_CONTEXT('2D SPACE',''
  ) );
#155 = PCURVE('',#156,#161);
#156 = PLANE('',#157);
#157 = AXIS2_PLACEMENT_3D('',#158,#159,#160);
#158 = CARTESIAN_POINT('',(57.724120269351,32.898668767458,
    19.68571048108));
#159 = DIRECTION('',(1.10235835079E-04,-2.610877804057E-04,
    0.999999959841));
#160 = DIRECTION('',(-4.998319867774E-24,0.999999965917,
    2.61087781992E-04));
#161 = DEFINITIONAL_REPRESENTATION('',(#162),#166);
#162 = LINE('',#163,#164);
#163 = CARTESIAN_POINT('',(4.597283063574E-03,115.48410216599));
#164 = VECTOR('',#165,1.);
#165 = DIRECTION('',(-3.980879596157E-05,-0.999999999208));
#166 = ( GEOMETRIC_REPRESENTATION_CONTEXT(2) 
PARAMETRIC_REPRESENTATION_CONTEXT() REPRESENTATION_CONTEXT('2D SPACE',''
  ) );
#167 = ADVANCED_FACE('',(#168),#130,.T.);
#168 = FACE_BOUND('',#169,.T.);
#169 = EDGE_LOOP('',(#170,#198,#199));
#170 = ORIENTED_EDGE('',*,*,#171,.F.);
#171 = EDGE_CURVE('',#115,#172,#174,.T.);
#172 = VERTEX_POINT('',#173);
#173 = CARTESIAN_POINT('',(-57.73039075148,-32.8865940855,
    -3.366306135774E-03));
#174 = SURFACE_CURVE('',#175,(#179,#186),.PCURVE_S1.);
#175 = LINE('',#176,#177);
#176 = CARTESIAN_POINT('',(-57.75998119496,32.903262726591,
    19.698442167382));
#177 = VECTOR('',#178,1.);
#178 = DIRECTION('',(4.30866824568E-04,-0.957966943274,-0.286878284205)
  );
#179 = PCURVE('',#130,#180);
#180 = DEFINITIONAL_REPRESENTATION('',(#181),#185);
#181 = LINE('',#182,#183);
#182 = CARTESIAN_POINT('',(-19.70182925133,-65.78985724432));
#183 = VECTOR('',#184,1.);
#184 = DIRECTION('',(0.286878586751,0.957966949568));
#185 = ( GEOMETRIC_REPRESENTATION_CONTEXT(2) 
PARAMETRIC_REPRESENTATION_CONTEXT() REPRESENTATION_CONTEXT('2D SPACE',''
  ) );
#186 = PCURVE('',#187,#192);
#187 = PLANE('',#188);
#188 = AXIS2_PLACEMENT_3D('',#189,#190,#191);
#189 = CARTESIAN_POINT('',(-57.74053044089,-32.88077999317,
    19.681871414248));
#190 = DIRECTION('',(-0.999999823712,-2.955460904745E-04,
    -5.15003650877E-04));
#191 = DIRECTION('',(5.150036733692E-04,1.419800362244E-23,
    -0.999999867386));
#192 = DEFINITIONAL_REPRESENTATION('',(#193),#197);
#193 = LINE('',#194,#195);
#194 = CARTESIAN_POINT('',(-1.658076814629E-02,-65.7840455928));
#195 = VECTOR('',#196,1.);
#196 = DIRECTION('',(0.286878468059,0.957966985112));
#197 = ( GEOMETRIC_REPRESENTATION_CONTEXT(2) 
PARAMETRIC_REPRESENTATION_CONTEXT() REPRESENTATION_CONTEXT('2D SPACE',''
  ) );
#198 = ORIENTED_EDGE('',*,*,#114,.T.);
#199 = ORIENTED_EDGE('',*,*,#200,.F.);
#200 = EDGE_CURVE('',#172,#57,#201,.T.);
#201 = SURFACE_CURVE('',#202,(#206,#213),.PCURVE_S1.);
#202 = LINE('',#203,#204);
#203 = CARTESIAN_POINT('',(-57.73039075148,-32.8865940855,
    -3.366306135774E-03));
#204 = VECTOR('',#205,1.);
#205 = DIRECTION('',(1.141019364987E-04,0.999999954419,
    2.795413053672E-04));
#206 = PCURVE('',#130,#207);
#207 = DEFINITIONAL_REPRESENTATION('',(#208),#212);
#208 = LINE('',#209,#210);
#209 = CARTESIAN_POINT('',(0.,-0.));
#210 = VECTOR('',#211,1.);
#211 = DIRECTION('',(-2.793257621853E-04,-0.999999960989));
#212 = ( GEOMETRIC_REPRESENTATION_CONTEXT(2) 
PARAMETRIC_REPRESENTATION_CONTEXT() REPRESENTATION_CONTEXT('2D SPACE',''
  ) );
#213 = PCURVE('',#214,#219);
#214 = PLANE('',#215);
#215 = AXIS2_PLACEMENT_3D('',#216,#217,#218);
#216 = CARTESIAN_POINT('',(57.716395670865,-32.87656314176,
    1.656572072499E-02));
#217 = DIRECTION('',(1.726269092211E-04,2.795216059577E-04,
    -0.999999946034));
#218 = DIRECTION('',(4.541138899065E-25,-0.999999960934,
    -2.795216101226E-04));
#219 = DEFINITIONAL_REPRESENTATION('',(#220),#224);
#220 = LINE('',#221,#222);
#221 = CARTESIAN_POINT('',(1.00365147875E-02,115.4467881425));
#222 = VECTOR('',#223,1.);
#223 = DIRECTION('',(-0.99999999349,-1.141019381988E-04));
#224 = ( GEOMETRIC_REPRESENTATION_CONTEXT(2) 
PARAMETRIC_REPRESENTATION_CONTEXT() REPRESENTATION_CONTEXT('2D SPACE',''
  ) );
#225 = ADVANCED_FACE('',(#226),#187,.T.);
#226 = FACE_BOUND('',#227,.T.);
#227 = EDGE_LOOP('',(#228,#256,#257));
#228 = ORIENTED_EDGE('',*,*,#229,.F.);
#229 = EDGE_CURVE('',#115,#230,#232,.T.);
#230 = VERTEX_POINT('',#231);
#231 = CARTESIAN_POINT('',(-57.74053044089,-32.88077999317,
    19.681871414248));
#232 = SURFACE_CURVE('',#233,(#237,#244),.PCURVE_S1.);
#233 = LINE('',#234,#235);
#234 = CARTESIAN_POINT('',(-57.75998119496,32.903262726591,
    19.698442167382));
#235 = VECTOR('',#236,1.);
#236 = DIRECTION('',(2.956758477777E-04,-0.999999924562,
    -2.518962228353E-04));
#237 = PCURVE('',#187,#238);
#238 = DEFINITIONAL_REPRESENTATION('',(#239),#243);
#239 = LINE('',#240,#241);
#240 = CARTESIAN_POINT('',(-1.658076814629E-02,-65.7840455928));
#241 = VECTOR('',#242,1.);
#242 = DIRECTION('',(2.52048463578E-04,0.999999968236));
#243 = ( GEOMETRIC_REPRESENTATION_CONTEXT(2) 
PARAMETRIC_REPRESENTATION_CONTEXT() REPRESENTATION_CONTEXT('2D SPACE',''
  ) );
#244 = PCURVE('',#245,#250);
#245 = PLANE('',#246);
#246 = AXIS2_PLACEMENT_3D('',#247,#248,#249);
#247 = CARTESIAN_POINT('',(-10.97210969546,-0.340244278045,
    19.684604993283));
#248 = DIRECTION('',(1.167911086416E-04,-2.518616998178E-04,
    0.999999961463));
#249 = DIRECTION('',(-8.638508137653E-25,0.999999968283,
    2.518617015356E-04));
#250 = DEFINITIONAL_REPRESENTATION('',(#251),#255);
#251 = LINE('',#252,#253);
#252 = CARTESIAN_POINT('',(33.2435094353,46.787871818594));
#253 = VECTOR('',#254,1.);
#254 = DIRECTION('',(-0.999999956288,-2.956758497942E-04));
#255 = ( GEOMETRIC_REPRESENTATION_CONTEXT(2) 
PARAMETRIC_REPRESENTATION_CONTEXT() REPRESENTATION_CONTEXT('2D SPACE',''
  ) );
#256 = ORIENTED_EDGE('',*,*,#171,.T.);
#257 = ORIENTED_EDGE('',*,*,#258,.F.);
#258 = EDGE_CURVE('',#230,#172,#259,.T.);
#259 = SURFACE_CURVE('',#260,(#264,#271),.PCURVE_S1.);
#260 = LINE('',#261,#262);
#261 = CARTESIAN_POINT('',(-57.74053044089,-32.88077999317,
    19.681871414248));
#262 = VECTOR('',#263,1.);
#263 = DIRECTION('',(5.150909412825E-04,-2.95352862464E-04,
    -0.999999823724));
#264 = PCURVE('',#187,#265);
#265 = DEFINITIONAL_REPRESENTATION('',(#266),#270);
#266 = LINE('',#267,#268);
#267 = CARTESIAN_POINT('',(0.,0.));
#268 = VECTOR('',#269,1.);
#269 = DIRECTION('',(0.999999956383,2.953528753632E-04));
#270 = ( GEOMETRIC_REPRESENTATION_CONTEXT(2) 
PARAMETRIC_REPRESENTATION_CONTEXT() REPRESENTATION_CONTEXT('2D SPACE',''
  ) );
#271 = PCURVE('',#272,#277);
#272 = PLANE('',#273);
#273 = AXIS2_PLACEMENT_3D('',#274,#275,#276);
#274 = CARTESIAN_POINT('',(57.720613528823,-32.92975683284,
    19.669553841255));
#275 = DIRECTION('',(-4.241530623309E-04,-0.999999866495,
    2.951343976579E-04));
#276 = DIRECTION('',(-0.999999910047,4.241530808037E-04,
    8.55150892152E-24));
#277 = DEFINITIONAL_REPRESENTATION('',(#278),#282);
#278 = LINE('',#279,#280);
#279 = CARTESIAN_POINT('',(115.46115435732,-1.231757352942E-02));
#280 = VECTOR('',#281,1.);
#281 = DIRECTION('',(-5.152161697751E-04,0.999999867276));
#282 = ( GEOMETRIC_REPRESENTATION_CONTEXT(2) 
PARAMETRIC_REPRESENTATION_CONTEXT() REPRESENTATION_CONTEXT('2D SPACE',''
  ) );
#283 = ADVANCED_FACE('',(#284),#272,.T.);
#284 = FACE_BOUND('',#285,.T.);
#285 = EDGE_LOOP('',(#286,#314,#315));
#286 = ORIENTED_EDGE('',*,*,#287,.F.);
#287 = EDGE_CURVE('',#230,#288,#290,.T.);
#288 = VERTEX_POINT('',#289);
#289 = CARTESIAN_POINT('',(57.720613528823,-32.92975683284,
    19.669553841255));
#290 = SURFACE_CURVE('',#291,(#295,#302),.PCURVE_S1.);
#291 = LINE('',#292,#293);
#292 = CARTESIAN_POINT('',(-57.74053044089,-32.88077999317,
    19.681871414248));
#293 = VECTOR('',#294,1.);
#294 = DIRECTION('',(0.999999904343,-4.241845637785E-04,
    -1.066815327755E-04));
#295 = PCURVE('',#272,#296);
#296 = DEFINITIONAL_REPRESENTATION('',(#297),#301);
#297 = LINE('',#298,#299);
#298 = CARTESIAN_POINT('',(115.46115435732,-1.231757352942E-02));
#299 = VECTOR('',#300,1.);
#300 = DIRECTION('',(-0.99999999431,1.066815374217E-04));
#301 = ( GEOMETRIC_REPRESENTATION_CONTEXT(2) 
PARAMETRIC_REPRESENTATION_CONTEXT() REPRESENTATION_CONTEXT('2D SPACE',''
  ) );
#302 = PCURVE('',#303,#308);
#303 = PLANE('',#304);
#304 = AXIS2_PLACEMENT_3D('',#305,#306,#307);
#305 = CARTESIAN_POINT('',(57.720613528823,-32.92975683284,
    19.669553841255));
#306 = DIRECTION('',(1.065809281878E-04,-2.371872640125E-04,
    0.999999966191));
#307 = DIRECTION('',(4.738708840573E-25,0.999999971871,
    2.371872653597E-04));
#308 = DEFINITIONAL_REPRESENTATION('',(#309),#313);
#309 = LINE('',#310,#311);
#310 = CARTESIAN_POINT('',(4.897975986691E-02,115.4611446255));
#311 = VECTOR('',#312,1.);
#312 = DIRECTION('',(-4.242098553477E-04,-0.999999910023));
#313 = ( GEOMETRIC_REPRESENTATION_CONTEXT(2) 
PARAMETRIC_REPRESENTATION_CONTEXT() REPRESENTATION_CONTEXT('2D SPACE',''
  ) );
#314 = ORIENTED_EDGE('',*,*,#258,.T.);
#315 = ORIENTED_EDGE('',*,*,#316,.T.);
#316 = EDGE_CURVE('',#172,#288,#317,.T.);
#317 = SURFACE_CURVE('',#318,(#322,#329),.PCURVE_S1.);
#318 = LINE('',#319,#320);
#319 = CARTESIAN_POINT('',(-57.73039075148,-32.8865940855,
    -3.366306135774E-03));
#320 = VECTOR('',#321,1.);
#321 = DIRECTION('',(0.985790456743,-3.685496256967E-04,0.167979283147)
  );
#322 = PCURVE('',#272,#323);
#323 = DEFINITIONAL_REPRESENTATION('',(#324),#328);
#324 = LINE('',#325,#326);
#325 = CARTESIAN_POINT('',(115.45101220276,19.672921004189));
#326 = VECTOR('',#327,1.);
#327 = DIRECTION('',(-0.985790524389,-0.167979290462));
#328 = ( GEOMETRIC_REPRESENTATION_CONTEXT(2) 
PARAMETRIC_REPRESENTATION_CONTEXT() REPRESENTATION_CONTEXT('2D SPACE',''
  ) );
#329 = PCURVE('',#330,#335);
#330 = PLANE('',#331);
#331 = AXIS2_PLACEMENT_3D('',#332,#333,#334);
#332 = CARTESIAN_POINT('',(57.720613528823,-32.92975683284,
    19.669553841255));
#333 = DIRECTION('',(8.735501787639E-05,-0.999996333186,
    -2.706655301465E-03));
#334 = DIRECTION('',(3.728075288833E-23,2.706655311793E-03,
    -0.999996337002));
#335 = DEFINITIONAL_REPRESENTATION('',(#336),#340);
#336 = LINE('',#337,#338);
#337 = CARTESIAN_POINT('',(19.672964912199,-115.4510047208));
#338 = VECTOR('',#339,1.);
#339 = DIRECTION('',(-0.167979665376,0.985790460504));
#340 = ( GEOMETRIC_REPRESENTATION_CONTEXT(2) 
PARAMETRIC_REPRESENTATION_CONTEXT() REPRESENTATION_CONTEXT('2D SPACE',''
  ) );
#341 = ADVANCED_FACE('',(#342),#330,.T.);
#342 = FACE_BOUND('',#343,.T.);
#343 = EDGE_LOOP('',(#344,#345,#368));
#344 = ORIENTED_EDGE('',*,*,#316,.F.);
#345 = ORIENTED_EDGE('',*,*,#346,.T.);
#346 = EDGE_CURVE('',#172,#347,#349,.T.);
#347 = VERTEX_POINT('',#348);
#348 = CARTESIAN_POINT('',(57.716395670865,-32.87656314176,
    1.656572072499E-02));
#349 = SURFACE_CURVE('',#350,(#354,#361),.PCURVE_S1.);
#350 = LINE('',#351,#352);
#351 = CARTESIAN_POINT('',(-57.73039075148,-32.8865940855,
    -3.366306135774E-03));
#352 = VECTOR('',#353,1.);
#353 = DIRECTION('',(0.999999981321,8.688802755462E-05,
    1.726512023949E-04));
#354 = PCURVE('',#330,#355);
#355 = DEFINITIONAL_REPRESENTATION('',(#356),#360);
#356 = LINE('',#357,#358);
#357 = CARTESIAN_POINT('',(19.672964912199,-115.4510047208));
#358 = VECTOR('',#359,1.);
#359 = DIRECTION('',(-1.724153940326E-04,0.999999985136));
#360 = ( GEOMETRIC_REPRESENTATION_CONTEXT(2) 
PARAMETRIC_REPRESENTATION_CONTEXT() REPRESENTATION_CONTEXT('2D SPACE',''
  ) );
#361 = PCURVE('',#214,#362);
#362 = DEFINITIONAL_REPRESENTATION('',(#363),#367);
#363 = LINE('',#364,#365);
#364 = CARTESIAN_POINT('',(1.00365147875E-02,115.4467881425));
#365 = VECTOR('',#366,1.);
#366 = DIRECTION('',(-8.693628390232E-05,-0.999999996221));
#367 = ( GEOMETRIC_REPRESENTATION_CONTEXT(2) 
PARAMETRIC_REPRESENTATION_CONTEXT() REPRESENTATION_CONTEXT('2D SPACE',''
  ) );
#368 = ORIENTED_EDGE('',*,*,#369,.T.);
#369 = EDGE_CURVE('',#347,#288,#370,.T.);
#370 = SURFACE_CURVE('',#371,(#375,#382),.PCURVE_S1.);
#371 = LINE('',#372,#373);
#372 = CARTESIAN_POINT('',(57.716395670865,-32.87656314176,
    1.656572072499E-02));
#373 = VECTOR('',#374,1.);
#374 = DIRECTION('',(2.14615832714E-04,-2.706636501757E-03,
    0.999996314023));
#375 = PCURVE('',#330,#376);
#376 = DEFINITIONAL_REPRESENTATION('',(#377),#381);
#377 = LINE('',#378,#379);
#378 = CARTESIAN_POINT('',(19.653060108656,-4.217857973827E-03));
#379 = VECTOR('',#380,1.);
#380 = DIRECTION('',(-0.99999997697,2.146158335328E-04));
#381 = ( GEOMETRIC_REPRESENTATION_CONTEXT(2) 
PARAMETRIC_REPRESENTATION_CONTEXT() REPRESENTATION_CONTEXT('2D SPACE',''
  ) );
#382 = PCURVE('',#383,#388);
#383 = PLANE('',#384);
#384 = AXIS2_PLACEMENT_3D('',#385,#386,#387);
#385 = CARTESIAN_POINT('',(57.720613528823,-32.92975683284,
    19.669553841255));
#386 = DIRECTION('',(0.999999975523,-5.321820474364E-05,
    -2.147606613992E-04));
#387 = DIRECTION('',(2.147606617033E-04,-7.315676149582E-25,
    0.999999976939));
#388 = DEFINITIONAL_REPRESENTATION('',(#389),#393);
#389 = LINE('',#390,#391);
#390 = CARTESIAN_POINT('',(-19.65298857314,-5.319369116169E-02));
#391 = VECTOR('',#392,1.);
#392 = DIRECTION('',(0.999996337053,2.70663650559E-03));
#393 = ( GEOMETRIC_REPRESENTATION_CONTEXT(2) 
PARAMETRIC_REPRESENTATION_CONTEXT() REPRESENTATION_CONTEXT('2D SPACE',''
  ) );
#394 = ADVANCED_FACE('',(#395),#245,.T.);
#395 = FACE_BOUND('',#396,.T.);
#396 = EDGE_LOOP('',(#397,#420,#421));
#397 = ORIENTED_EDGE('',*,*,#398,.F.);
#398 = EDGE_CURVE('',#115,#399,#401,.T.);
#399 = VERTEX_POINT('',#400);
#400 = CARTESIAN_POINT('',(-10.97210969546,-0.340244278045,
    19.684604993283));
#401 = SURFACE_CURVE('',#402,(#406,#413),.PCURVE_S1.);
#402 = LINE('',#403,#404);
#403 = CARTESIAN_POINT('',(-57.75998119496,32.903262726591,
    19.698442167382));
#404 = VECTOR('',#405,1.);
#405 = DIRECTION('',(0.815184554979,-0.579201245857,-2.410849275324E-04)
  );
#406 = PCURVE('',#245,#407);
#407 = DEFINITIONAL_REPRESENTATION('',(#408),#412);
#408 = LINE('',#409,#410);
#409 = CARTESIAN_POINT('',(33.2435094353,46.787871818594));
#410 = VECTOR('',#411,1.);
#411 = DIRECTION('',(-0.579201288206,-0.815184560538));
#412 = ( GEOMETRIC_REPRESENTATION_CONTEXT(2) 
PARAMETRIC_REPRESENTATION_CONTEXT() REPRESENTATION_CONTEXT('2D SPACE',''
  ) );
#413 = PCURVE('',#156,#414);
#414 = DEFINITIONAL_REPRESENTATION('',(#415),#419);
#415 = LINE('',#416,#417);
#416 = CARTESIAN_POINT('',(4.597283063574E-03,115.48410216599));
#417 = VECTOR('',#418,1.);
#418 = DIRECTION('',(-0.57920128906,-0.815184559932));
#419 = ( GEOMETRIC_REPRESENTATION_CONTEXT(2) 
PARAMETRIC_REPRESENTATION_CONTEXT() REPRESENTATION_CONTEXT('2D SPACE',''
  ) );
#420 = ORIENTED_EDGE('',*,*,#229,.T.);
#421 = ORIENTED_EDGE('',*,*,#422,.T.);
#422 = EDGE_CURVE('',#230,#399,#423,.T.);
#423 = SURFACE_CURVE('',#424,(#428,#435),.PCURVE_S1.);
#424 = LINE('',#425,#426);
#425 = CARTESIAN_POINT('',(-57.74053044089,-32.88077999317,
    19.681871414248));
#426 = VECTOR('',#427,1.);
#427 = DIRECTION('',(0.820855976847,0.571135240528,4.797841478322E-05));
#428 = PCURVE('',#245,#429);
#429 = DEFINITIONAL_REPRESENTATION('',(#430),#434);
#430 = LINE('',#431,#432);
#431 = CARTESIAN_POINT('',(-32.54053537152,46.768421064393));
#432 = VECTOR('',#433,1.);
#433 = DIRECTION('',(0.571135234497,-0.820855982445));
#434 = ( GEOMETRIC_REPRESENTATION_CONTEXT(2) 
PARAMETRIC_REPRESENTATION_CONTEXT() REPRESENTATION_CONTEXT('2D SPACE',''
  ) );
#435 = PCURVE('',#303,#436);
#436 = DEFINITIONAL_REPRESENTATION('',(#437),#441);
#437 = LINE('',#438,#439);
#438 = CARTESIAN_POINT('',(4.897975986691E-02,115.4611446255));
#439 = VECTOR('',#440,1.);
#440 = DIRECTION('',(0.571135235843,-0.820855981509));
#441 = ( GEOMETRIC_REPRESENTATION_CONTEXT(2) 
PARAMETRIC_REPRESENTATION_CONTEXT() REPRESENTATION_CONTEXT('2D SPACE',''
  ) );
#442 = ADVANCED_FACE('',(#443),#303,.T.);
#443 = FACE_BOUND('',#444,.T.);
#444 = EDGE_LOOP('',(#445,#471,#472));
#445 = ORIENTED_EDGE('',*,*,#446,.F.);
#446 = EDGE_CURVE('',#399,#288,#447,.T.);
#447 = SURFACE_CURVE('',#448,(#452,#459),.PCURVE_S1.);
#448 = LINE('',#449,#450);
#449 = CARTESIAN_POINT('',(-10.97210969546,-0.340244278045,
    19.684604993283));
#450 = VECTOR('',#451,1.);
#451 = DIRECTION('',(0.903478889717,-0.428632542683,-1.979598054226E-04)
  );
#452 = PCURVE('',#303,#453);
#453 = DEFINITIONAL_REPRESENTATION('',(#454),#458);
#454 = LINE('',#455,#456);
#455 = CARTESIAN_POINT('',(32.589515208037,68.692723614446));
#456 = VECTOR('',#457,1.);
#457 = DIRECTION('',(-0.42863257758,-0.903478894849));
#458 = ( GEOMETRIC_REPRESENTATION_CONTEXT(2) 
PARAMETRIC_REPRESENTATION_CONTEXT() REPRESENTATION_CONTEXT('2D SPACE',''
  ) );
#459 = PCURVE('',#460,#465);
#460 = PLANE('',#461);
#461 = AXIS2_PLACEMENT_3D('',#462,#463,#464);
#462 = CARTESIAN_POINT('',(57.720613528823,-32.92975683284,
    19.669553841255));
#463 = DIRECTION('',(1.699619796108E-03,3.120649781683E-03,
    0.999993686399));
#464 = DIRECTION('',(-8.001592158418E-22,0.999995130747,
    -3.120654289015E-03));
#465 = DEFINITIONAL_REPRESENTATION('',(#466),#470);
#466 = LINE('',#467,#468);
#467 = CARTESIAN_POINT('',(32.589306898764,68.692822441094));
#468 = VECTOR('',#469,1.);
#469 = DIRECTION('',(-0.428629837798,-0.903480194663));
#470 = ( GEOMETRIC_REPRESENTATION_CONTEXT(2) 
PARAMETRIC_REPRESENTATION_CONTEXT() REPRESENTATION_CONTEXT('2D SPACE',''
  ) );
#471 = ORIENTED_EDGE('',*,*,#422,.F.);
#472 = ORIENTED_EDGE('',*,*,#287,.T.);
#473 = ADVANCED_FACE('',(#474),#460,.T.);
#474 = FACE_BOUND('',#475,.T.);
#475 = EDGE_LOOP('',(#476,#504,#530));
#476 = ORIENTED_EDGE('',*,*,#477,.F.);
#477 = EDGE_CURVE('',#478,#288,#480,.T.);
#478 = VERTEX_POINT('',#479);
#479 = CARTESIAN_POINT('',(10.994404266798,2.265988291409E-02,
    19.646137531642));
#480 = SURFACE_CURVE('',#481,(#485,#492),.PCURVE_S1.);
#481 = LINE('',#482,#483);
#482 = CARTESIAN_POINT('',(10.994404266798,2.265988291409E-02,
    19.646137531642));
#483 = VECTOR('',#484,1.);
#484 = DIRECTION('',(0.817221420468,-0.57632367833,4.095412426087E-04));
#485 = PCURVE('',#460,#486);
#486 = DEFINITIONAL_REPRESENTATION('',(#487),#491);
#487 = LINE('',#488,#489);
#488 = CARTESIAN_POINT('',(32.9523293363,46.726276751346));
#489 = VECTOR('',#490,1.);
#490 = DIRECTION('',(-0.576322150101,-0.817222600828));
#491 = ( GEOMETRIC_REPRESENTATION_CONTEXT(2) 
PARAMETRIC_REPRESENTATION_CONTEXT() REPRESENTATION_CONTEXT('2D SPACE',''
  ) );
#492 = PCURVE('',#493,#498);
#493 = PLANE('',#494);
#494 = AXIS2_PLACEMENT_3D('',#495,#496,#497);
#495 = CARTESIAN_POINT('',(57.724120269351,32.898668767458,
    19.68571048108));
#496 = DIRECTION('',(-6.74200090722E-04,-2.45399632078E-04,
    0.999999742617));
#497 = DIRECTION('',(0.999999772727,-8.967497626954E-24,
    6.742001110225E-04));
#498 = DEFINITIONAL_REPRESENTATION('',(#499),#503);
#499 = LINE('',#500,#501);
#500 = CARTESIAN_POINT('',(-46.72973206224,-32.87600987445));
#501 = VECTOR('',#502,1.);
#502 = DIRECTION('',(0.817221510849,-0.576323695684));
#503 = ( GEOMETRIC_REPRESENTATION_CONTEXT(2) 
PARAMETRIC_REPRESENTATION_CONTEXT() REPRESENTATION_CONTEXT('2D SPACE',''
  ) );
#504 = ORIENTED_EDGE('',*,*,#505,.F.);
#505 = EDGE_CURVE('',#399,#478,#506,.T.);
#506 = SURFACE_CURVE('',#507,(#511,#518),.PCURVE_S1.);
#507 = LINE('',#508,#509);
#508 = CARTESIAN_POINT('',(-10.97210969546,-0.340244278045,
    19.684604993283));
#509 = VECTOR('',#510,1.);
#510 = DIRECTION('',(0.999862026984,1.651851042915E-02,
    -1.750944835171E-03));
#511 = PCURVE('',#460,#512);
#512 = DEFINITIONAL_REPRESENTATION('',(#513),#517);
#513 = LINE('',#514,#515);
#514 = CARTESIAN_POINT('',(32.589306898764,68.692822441094));
#515 = VECTOR('',#516,1.);
#516 = DIRECTION('',(1.652389408984E-02,-0.999863471142));
#517 = ( GEOMETRIC_REPRESENTATION_CONTEXT(2) 
PARAMETRIC_REPRESENTATION_CONTEXT() REPRESENTATION_CONTEXT('2D SPACE',''
  ) );
#518 = PCURVE('',#519,#524);
#519 = PLANE('',#520);
#520 = AXIS2_PLACEMENT_3D('',#521,#522,#523);
#521 = CARTESIAN_POINT('',(7.294229188199,-8.155413429184,
    23.048169395158));
#522 = DIRECTION('',(4.760151437821E-03,-0.385917257948,-0.922521116819)
  );
#523 = DIRECTION('',(-1.317357601309E-19,-0.922531568718,0.38592163028)
  );
#524 = DEFINITIONAL_REPRESENTATION('',(#525),#529);
#525 = LINE('',#526,#527);
#526 = CARTESIAN_POINT('',(-8.507812514324,18.266545836049));
#527 = VECTOR('',#528,1.);
#528 = DIRECTION('',(-1.591457482441E-02,-0.999873355135));
#529 = ( GEOMETRIC_REPRESENTATION_CONTEXT(2) 
PARAMETRIC_REPRESENTATION_CONTEXT() REPRESENTATION_CONTEXT('2D SPACE',''
  ) );
#530 = ORIENTED_EDGE('',*,*,#446,.T.);
#531 = ADVANCED_FACE('',(#532),#493,.T.);
#532 = FACE_BOUND('',#533,.T.);
#533 = EDGE_LOOP('',(#534,#560,#561));
#534 = ORIENTED_EDGE('',*,*,#535,.F.);
#535 = EDGE_CURVE('',#478,#22,#536,.T.);
#536 = SURFACE_CURVE('',#537,(#541,#548),.PCURVE_S1.);
#537 = LINE('',#538,#539);
#538 = CARTESIAN_POINT('',(10.994404266798,2.265988291409E-02,
    19.646137531642));
#539 = VECTOR('',#540,1.);
#540 = DIRECTION('',(0.817871006774,0.575401196182,6.926121270729E-04));
#541 = PCURVE('',#493,#542);
#542 = DEFINITIONAL_REPRESENTATION('',(#543),#547);
#543 = LINE('',#544,#545);
#544 = CARTESIAN_POINT('',(-46.72973206224,-32.87600987445));
#545 = VECTOR('',#546,1.);
#546 = DIRECTION('',(0.817871287853,0.575401213507));
#547 = ( GEOMETRIC_REPRESENTATION_CONTEXT(2) 
PARAMETRIC_REPRESENTATION_CONTEXT() REPRESENTATION_CONTEXT('2D SPACE',''
  ) );
#548 = PCURVE('',#549,#554);
#549 = PLANE('',#550);
#550 = AXIS2_PLACEMENT_3D('',#551,#552,#553);
#551 = CARTESIAN_POINT('',(57.724120269351,32.898668767458,
    19.68571048108));
#552 = DIRECTION('',(2.431786687717E-04,-1.549353848856E-03,
    0.999998770183));
#553 = DIRECTION('',(-1.407473722546E-24,0.999998799751,
    1.549353894667E-03));
#554 = DEFINITIONAL_REPRESENTATION('',(#555),#559);
#555 = LINE('',#556,#557);
#556 = CARTESIAN_POINT('',(-32.87603073763,46.729717384254));
#557 = VECTOR('',#558,1.);
#558 = DIRECTION('',(0.575401578658,-0.817871030956));
#559 = ( GEOMETRIC_REPRESENTATION_CONTEXT(2) 
PARAMETRIC_REPRESENTATION_CONTEXT() REPRESENTATION_CONTEXT('2D SPACE',''
  ) );
#560 = ORIENTED_EDGE('',*,*,#477,.T.);
#561 = ORIENTED_EDGE('',*,*,#562,.T.);
#562 = EDGE_CURVE('',#288,#22,#563,.T.);
#563 = SURFACE_CURVE('',#564,(#568,#575),.PCURVE_S1.);
#564 = LINE('',#565,#566);
#565 = CARTESIAN_POINT('',(57.720613528823,-32.92975683284,
    19.669553841255));
#566 = VECTOR('',#567,1.);
#567 = DIRECTION('',(5.327091428154E-05,0.999999968462,
    2.454356027648E-04));
#568 = PCURVE('',#493,#569);
#569 = DEFINITIONAL_REPRESENTATION('',(#570),#574);
#570 = LINE('',#571,#572);
#571 = CARTESIAN_POINT('',(-3.517632539416E-03,-65.82842758243));
#572 = VECTOR('',#573,1.);
#573 = DIRECTION('',(5.343637488513E-05,0.999999998572));
#574 = ( GEOMETRIC_REPRESENTATION_CONTEXT(2) 
PARAMETRIC_REPRESENTATION_CONTEXT() REPRESENTATION_CONTEXT('2D SPACE',''
  ) );
#575 = PCURVE('',#383,#576);
#576 = DEFINITIONAL_REPRESENTATION('',(#577),#581);
#577 = LINE('',#578,#579);
#578 = CARTESIAN_POINT('',(0.,0.));
#579 = VECTOR('',#580,1.);
#580 = DIRECTION('',(2.454470376016E-04,-0.999999969878));
#581 = ( GEOMETRIC_REPRESENTATION_CONTEXT(2) 
PARAMETRIC_REPRESENTATION_CONTEXT() REPRESENTATION_CONTEXT('2D SPACE',''
  ) );
#582 = ADVANCED_FACE('',(#583),#549,.T.);
#583 = FACE_BOUND('',#584,.T.);
#584 = EDGE_LOOP('',(#585,#613,#639));
#585 = ORIENTED_EDGE('',*,*,#586,.F.);
#586 = EDGE_CURVE('',#587,#22,#589,.T.);
#587 = VERTEX_POINT('',#588);
#588 = CARTESIAN_POINT('',(8.675158385631,6.660590641727,19.656986039679
    ));
#589 = SURFACE_CURVE('',#590,(#594,#601),.PCURVE_S1.);
#590 = LINE('',#591,#592);
#591 = CARTESIAN_POINT('',(8.675158385631,6.660590641727,19.656986039679
    ));
#592 = VECTOR('',#593,1.);
#593 = DIRECTION('',(0.881765182366,0.471688346806,5.163863074279E-04));
#594 = PCURVE('',#549,#595);
#595 = DEFINITIONAL_REPRESENTATION('',(#596),#600);
#596 = LINE('',#597,#598);
#597 = CARTESIAN_POINT('',(-26.23809113781,49.048963333996));
#598 = VECTOR('',#599,1.);
#599 = DIRECTION('',(0.471688580727,-0.881765208438));
#600 = ( GEOMETRIC_REPRESENTATION_CONTEXT(2) 
PARAMETRIC_REPRESENTATION_CONTEXT() REPRESENTATION_CONTEXT('2D SPACE',''
  ) );
#601 = PCURVE('',#602,#607);
#602 = PLANE('',#603);
#603 = AXIS2_PLACEMENT_3D('',#604,#605,#606);
#604 = CARTESIAN_POINT('',(57.724120269351,32.898668767458,
    19.68571048108));
#605 = DIRECTION('',(5.378090751852E-03,-1.114837785646E-02,
    0.999923391971));
#606 = DIRECTION('',(-2.283605767023E-21,0.999937853107,
    1.114853908702E-02));
#607 = DEFINITIONAL_REPRESENTATION('',(#608),#612);
#608 = LINE('',#609,#610);
#609 = CARTESIAN_POINT('',(-26.23676774625,49.049671241764));
#610 = VECTOR('',#611,1.);
#611 = DIRECTION('',(0.471664789793,-0.881777934669));
#612 = ( GEOMETRIC_REPRESENTATION_CONTEXT(2) 
PARAMETRIC_REPRESENTATION_CONTEXT() REPRESENTATION_CONTEXT('2D SPACE',''
  ) );
#613 = ORIENTED_EDGE('',*,*,#614,.T.);
#614 = EDGE_CURVE('',#587,#478,#615,.T.);
#615 = SURFACE_CURVE('',#616,(#620,#627),.PCURVE_S1.);
#616 = LINE('',#617,#618);
#617 = CARTESIAN_POINT('',(8.675158385631,6.660590641727,19.656986039679
    ));
#618 = VECTOR('',#619,1.);
#619 = DIRECTION('',(0.329839405341,-0.944035797137,-1.542857300684E-03)
  );
#620 = PCURVE('',#549,#621);
#621 = DEFINITIONAL_REPRESENTATION('',(#622),#626);
#622 = LINE('',#623,#624);
#623 = CARTESIAN_POINT('',(-26.23809113781,49.048963333996));
#624 = VECTOR('',#625,1.);
#625 = DIRECTION('',(-0.94403705449,-0.329839415094));
#626 = ( GEOMETRIC_REPRESENTATION_CONTEXT(2) 
PARAMETRIC_REPRESENTATION_CONTEXT() REPRESENTATION_CONTEXT('2D SPACE',''
  ) );
#627 = PCURVE('',#628,#633);
#628 = PLANE('',#629);
#629 = AXIS2_PLACEMENT_3D('',#630,#631,#632);
#630 = CARTESIAN_POINT('',(10.98051501439,9.015899162558E-03,
    23.02435867736));
#631 = DIRECTION('',(0.944026744489,0.329827722056,5.213391620813E-03));
#632 = DIRECTION('',(-0.329832204416,0.944039573816,1.012011963889E-19)
  );
#633 = DEFINITIONAL_REPRESENTATION('',(#634),#638);
#634 = LINE('',#635,#636);
#635 = CARTESIAN_POINT('',(7.039730644002,-3.367418400285));
#636 = VECTOR('',#637,1.);
#637 = DIRECTION('',(-0.999998809763,-1.542878268119E-03));
#638 = ( GEOMETRIC_REPRESENTATION_CONTEXT(2) 
PARAMETRIC_REPRESENTATION_CONTEXT() REPRESENTATION_CONTEXT('2D SPACE',''
  ) );
#639 = ORIENTED_EDGE('',*,*,#535,.T.);
#640 = ADVANCED_FACE('',(#641),#602,.T.);
#641 = FACE_BOUND('',#642,.T.);
#642 = EDGE_LOOP('',(#643,#664,#690));
#643 = ORIENTED_EDGE('',*,*,#644,.F.);
#644 = EDGE_CURVE('',#399,#22,#645,.T.);
#645 = SURFACE_CURVE('',#646,(#650,#657),.PCURVE_S1.);
#646 = LINE('',#647,#648);
#647 = CARTESIAN_POINT('',(-10.97210969546,-0.340244278045,
    19.684604993283));
#648 = VECTOR('',#649,1.);
#649 = DIRECTION('',(0.900165407209,0.43554820566,1.448582948434E-05));
#650 = PCURVE('',#602,#651);
#651 = DEFINITIONAL_REPRESENTATION('',(#652),#656);
#652 = LINE('',#653,#654);
#653 = CARTESIAN_POINT('',(-33.2368596749,68.697223466442));
#654 = VECTOR('',#655,1.);
#655 = DIRECTION('',(0.435521299188,-0.900178425621));
#656 = ( GEOMETRIC_REPRESENTATION_CONTEXT(2) 
PARAMETRIC_REPRESENTATION_CONTEXT() REPRESENTATION_CONTEXT('2D SPACE',''
  ) );
#657 = PCURVE('',#156,#658);
#658 = DEFINITIONAL_REPRESENTATION('',(#659),#663);
#659 = LINE('',#660,#661);
#660 = CARTESIAN_POINT('',(-33.23891220123,68.696230382213));
#661 = VECTOR('',#662,1.);
#662 = DIRECTION('',(0.435548194597,-0.900165412679));
#663 = ( GEOMETRIC_REPRESENTATION_CONTEXT(2) 
PARAMETRIC_REPRESENTATION_CONTEXT() REPRESENTATION_CONTEXT('2D SPACE',''
  ) );
#664 = ORIENTED_EDGE('',*,*,#665,.T.);
#665 = EDGE_CURVE('',#399,#587,#666,.T.);
#666 = SURFACE_CURVE('',#667,(#671,#678),.PCURVE_S1.);
#667 = LINE('',#668,#669);
#668 = CARTESIAN_POINT('',(-10.97210969546,-0.340244278045,
    19.684604993283));
#669 = VECTOR('',#670,1.);
#670 = DIRECTION('',(0.941984523707,0.335653695986,-1.324185466803E-03)
  );
#671 = PCURVE('',#602,#672);
#672 = DEFINITIONAL_REPRESENTATION('',(#673),#677);
#673 = LINE('',#674,#675);
#674 = CARTESIAN_POINT('',(-33.2368596749,68.697223466442));
#675 = VECTOR('',#676,1.);
#676 = DIRECTION('',(0.335618073419,-0.941998146917));
#677 = ( GEOMETRIC_REPRESENTATION_CONTEXT(2) 
PARAMETRIC_REPRESENTATION_CONTEXT() REPRESENTATION_CONTEXT('2D SPACE',''
  ) );
#678 = PCURVE('',#679,#684);
#679 = PLANE('',#680);
#680 = AXIS2_PLACEMENT_3D('',#681,#682,#683);
#681 = CARTESIAN_POINT('',(-10.97084560514,-0.315396981485,23.0435024026
    ));
#682 = DIRECTION('',(-0.335654668369,0.941960261116,-6.841789235888E-03)
  );
#683 = DIRECTION('',(0.941982308508,0.335662524656,-1.678025603536E-20)
  );
#684 = DEFINITIONAL_REPRESENTATION('',(#685),#689);
#685 = LINE('',#686,#687);
#686 = CARTESIAN_POINT('',(-9.531057009461E-03,3.358976027205));
#687 = VECTOR('',#688,1.);
#688 = DIRECTION('',(0.999999123225,1.324216460505E-03));
#689 = ( GEOMETRIC_REPRESENTATION_CONTEXT(2) 
PARAMETRIC_REPRESENTATION_CONTEXT() REPRESENTATION_CONTEXT('2D SPACE',''
  ) );
#690 = ORIENTED_EDGE('',*,*,#586,.T.);
#691 = ADVANCED_FACE('',(#692),#156,.T.);
#692 = FACE_BOUND('',#693,.T.);
#693 = EDGE_LOOP('',(#694,#695,#696));
#694 = ORIENTED_EDGE('',*,*,#142,.F.);
#695 = ORIENTED_EDGE('',*,*,#398,.T.);
#696 = ORIENTED_EDGE('',*,*,#644,.T.);
#697 = ADVANCED_FACE('',(#698),#214,.T.);
#698 = FACE_BOUND('',#699,.T.);
#699 = EDGE_LOOP('',(#700,#701,#702));
#700 = ORIENTED_EDGE('',*,*,#346,.F.);
#701 = ORIENTED_EDGE('',*,*,#200,.T.);
#702 = ORIENTED_EDGE('',*,*,#703,.T.);
#703 = EDGE_CURVE('',#57,#347,#704,.T.);
#704 = SURFACE_CURVE('',#705,(#709,#716),.PCURVE_S1.);
#705 = LINE('',#706,#707);
#706 = CARTESIAN_POINT('',(-57.72288837917,32.864892641708,
    1.501395113158E-02));
#707 = VECTOR('',#708,1.);
#708 = DIRECTION('',(0.868968069387,-0.494868158452,1.168093027264E-05)
  );
#709 = PCURVE('',#214,#710);
#710 = DEFINITIONAL_REPRESENTATION('',(#711),#715);
#711 = LINE('',#712,#713);
#712 = CARTESIAN_POINT('',(-65.74145278145,115.43928577008));
#713 = VECTOR('',#714,1.);
#714 = DIRECTION('',(0.494868135854,-0.868968082335));
#715 = ( GEOMETRIC_REPRESENTATION_CONTEXT(2) 
PARAMETRIC_REPRESENTATION_CONTEXT() REPRESENTATION_CONTEXT('2D SPACE',''
  ) );
#716 = PCURVE('',#72,#717);
#717 = DEFINITIONAL_REPRESENTATION('',(#718),#722);
#718 = LINE('',#719,#720);
#719 = CARTESIAN_POINT('',(2.430817482336E-02,115.47544965638));
#720 = VECTOR('',#721,1.);
#721 = DIRECTION('',(0.494868100308,-0.868968102578));
#722 = ( GEOMETRIC_REPRESENTATION_CONTEXT(2) 
PARAMETRIC_REPRESENTATION_CONTEXT() REPRESENTATION_CONTEXT('2D SPACE',''
  ) );
#723 = ADVANCED_FACE('',(#724),#72,.T.);
#724 = FACE_BOUND('',#725,.T.);
#725 = EDGE_LOOP('',(#726,#747,#748));
#726 = ORIENTED_EDGE('',*,*,#727,.F.);
#727 = EDGE_CURVE('',#347,#24,#728,.T.);
#728 = SURFACE_CURVE('',#729,(#733,#740),.PCURVE_S1.);
#729 = LINE('',#730,#731);
#730 = CARTESIAN_POINT('',(57.716395670865,-32.87656314176,
    1.656572072499E-02));
#731 = VECTOR('',#732,1.);
#732 = DIRECTION('',(5.49848314068E-04,0.999999719249,
    -5.090869254788E-04));
#733 = PCURVE('',#72,#734);
#734 = DEFINITIONAL_REPRESENTATION('',(#735),#739);
#735 = LINE('',#736,#737);
#736 = CARTESIAN_POINT('',(65.765756234035,3.616119703627E-02));
#737 = VECTOR('',#738,1.);
#738 = DIRECTION('',(-0.999999848833,-5.4984833507E-04));
#739 = ( GEOMETRIC_REPRESENTATION_CONTEXT(2) 
PARAMETRIC_REPRESENTATION_CONTEXT() REPRESENTATION_CONTEXT('2D SPACE',''
  ) );
#740 = PCURVE('',#44,#741);
#741 = DEFINITIONAL_REPRESENTATION('',(#742),#746);
#742 = LINE('',#743,#744);
#743 = CARTESIAN_POINT('',(0.,-0.));
#744 = VECTOR('',#745,1.);
#745 = DIRECTION('',(-5.098801299999E-04,-0.999999870011));
#746 = ( GEOMETRIC_REPRESENTATION_CONTEXT(2) 
PARAMETRIC_REPRESENTATION_CONTEXT() REPRESENTATION_CONTEXT('2D SPACE',''
  ) );
#747 = ORIENTED_EDGE('',*,*,#703,.F.);
#748 = ORIENTED_EDGE('',*,*,#56,.T.);
#749 = ADVANCED_FACE('',(#750),#44,.T.);
#750 = FACE_BOUND('',#751,.T.);
#751 = EDGE_LOOP('',(#752,#753,#754));
#752 = ORIENTED_EDGE('',*,*,#727,.T.);
#753 = ORIENTED_EDGE('',*,*,#21,.F.);
#754 = ORIENTED_EDGE('',*,*,#755,.F.);
#755 = EDGE_CURVE('',#347,#22,#756,.T.);
#756 = SURFACE_CURVE('',#757,(#761,#768),.PCURVE_S1.);
#757 = LINE('',#758,#759);
#758 = CARTESIAN_POINT('',(57.716395670865,-32.87656314176,
    1.656572072499E-02));
#759 = VECTOR('',#760,1.);
#760 = DIRECTION('',(1.125162837138E-04,0.95808017316,0.286500207919));
#761 = PCURVE('',#44,#762);
#762 = DEFINITIONAL_REPRESENTATION('',(#763),#767);
#763 = LINE('',#764,#765);
#764 = CARTESIAN_POINT('',(0.,-0.));
#765 = VECTOR('',#766,1.);
#766 = DIRECTION('',(0.286499746985,-0.958080317603));
#767 = ( GEOMETRIC_REPRESENTATION_CONTEXT(2) 
PARAMETRIC_REPRESENTATION_CONTEXT() REPRESENTATION_CONTEXT('2D SPACE',''
  ) );
#768 = PCURVE('',#383,#769);
#769 = DEFINITIONAL_REPRESENTATION('',(#770),#774);
#770 = LINE('',#771,#772);
#771 = CARTESIAN_POINT('',(-19.65298857314,-5.319369116169E-02));
#772 = VECTOR('',#773,1.);
#773 = DIRECTION('',(0.286500225476,-0.958080174517));
#774 = ( GEOMETRIC_REPRESENTATION_CONTEXT(2) 
PARAMETRIC_REPRESENTATION_CONTEXT() REPRESENTATION_CONTEXT('2D SPACE',''
  ) );
#775 = ADVANCED_FACE('',(#776),#383,.T.);
#776 = FACE_BOUND('',#777,.T.);
#777 = EDGE_LOOP('',(#778,#779,#780));
#778 = ORIENTED_EDGE('',*,*,#369,.F.);
#779 = ORIENTED_EDGE('',*,*,#755,.T.);
#780 = ORIENTED_EDGE('',*,*,#562,.F.);
#781 = ADVANCED_FACE('',(#782),#628,.T.);
#782 = FACE_BOUND('',#783,.T.);
#783 = EDGE_LOOP('',(#784,#812,#813));
#784 = ORIENTED_EDGE('',*,*,#785,.T.);
#785 = EDGE_CURVE('',#786,#478,#788,.T.);
#786 = VERTEX_POINT('',#787);
#787 = CARTESIAN_POINT('',(10.98051501439,9.015899162558E-03,
    23.02435867736));
#788 = SURFACE_CURVE('',#789,(#793,#800),.PCURVE_S1.);
#789 = LINE('',#790,#791);
#790 = CARTESIAN_POINT('',(10.98051501439,9.015899162558E-03,
    23.02435867736));
#791 = VECTOR('',#792,1.);
#792 = DIRECTION('',(4.11134178137E-03,4.0387400859E-03,-0.999983392586)
  );
#793 = PCURVE('',#628,#794);
#794 = DEFINITIONAL_REPRESENTATION('',(#795),#799);
#795 = LINE('',#796,#797);
#796 = CARTESIAN_POINT('',(0.,0.));
#797 = VECTOR('',#798,1.);
#798 = DIRECTION('',(2.456677546588E-03,-0.999996982363));
#799 = ( GEOMETRIC_REPRESENTATION_CONTEXT(2) 
PARAMETRIC_REPRESENTATION_CONTEXT() REPRESENTATION_CONTEXT('2D SPACE',''
  ) );
#800 = PCURVE('',#801,#806);
#801 = PLANE('',#802);
#802 = AXIS2_PLACEMENT_3D('',#803,#804,#805);
#803 = CARTESIAN_POINT('',(10.98051501439,9.015899162558E-03,
    23.02435867736));
#804 = DIRECTION('',(0.91140756875,-0.411499569324,2.085202841128E-03));
#805 = DIRECTION('',(0.411500463942,0.911409550189,-3.536008854044E-20)
  );
#806 = DEFINITIONAL_REPRESENTATION('',(#807),#811);
#807 = LINE('',#808,#809);
#808 = CARTESIAN_POINT('',(0.,0.));
#809 = VECTOR('',#810,1.);
#810 = DIRECTION('',(5.372765335477E-03,-0.999985566592));
#811 = ( GEOMETRIC_REPRESENTATION_CONTEXT(2) 
PARAMETRIC_REPRESENTATION_CONTEXT() REPRESENTATION_CONTEXT('2D SPACE',''
  ) );
#812 = ORIENTED_EDGE('',*,*,#614,.F.);
#813 = ORIENTED_EDGE('',*,*,#814,.T.);
#814 = EDGE_CURVE('',#587,#786,#815,.T.);
#815 = SURFACE_CURVE('',#816,(#820,#827),.PCURVE_S1.);
#816 = LINE('',#817,#818);
#817 = CARTESIAN_POINT('',(8.675158385631,6.660590641727,19.656986039679
    ));
#818 = VECTOR('',#819,1.);
#819 = DIRECTION('',(0.295419425211,-0.852364602805,0.431511236346));
#820 = PCURVE('',#628,#821);
#821 = DEFINITIONAL_REPRESENTATION('',(#822),#826);
#822 = LINE('',#823,#824);
#823 = CARTESIAN_POINT('',(7.039730644002,-3.367418400285));
#824 = VECTOR('',#825,1.);
#825 = DIRECTION('',(-0.902104756612,0.431517100585));
#826 = ( GEOMETRIC_REPRESENTATION_CONTEXT(2) 
PARAMETRIC_REPRESENTATION_CONTEXT() REPRESENTATION_CONTEXT('2D SPACE',''
  ) );
#827 = PCURVE('',#828,#833);
#828 = PLANE('',#829);
#829 = AXIS2_PLACEMENT_3D('',#830,#831,#832);
#830 = CARTESIAN_POINT('',(-10.97084560514,-0.315396981485,23.0435024026
    ));
#831 = DIRECTION('',(-5.872265688226E-03,0.45004175642,0.892988204835));
#832 = DIRECTION('',(-4.08952107404E-20,0.893003601914,-0.450049516129)
  );
#833 = DEFINITIONAL_REPRESENTATION('',(#834),#838);
#834 = LINE('',#835,#836);
#835 = CARTESIAN_POINT('',(7.753682124934,-19.64634273107));
#836 = VECTOR('',#837,1.);
#837 = DIRECTION('',(-0.955366083571,-0.295424518891));
#838 = ( GEOMETRIC_REPRESENTATION_CONTEXT(2) 
PARAMETRIC_REPRESENTATION_CONTEXT() REPRESENTATION_CONTEXT('2D SPACE',''
  ) );
#839 = ADVANCED_FACE('',(#840),#679,.T.);
#840 = FACE_BOUND('',#841,.T.);
#841 = EDGE_LOOP('',(#842,#865,#866));
#842 = ORIENTED_EDGE('',*,*,#843,.T.);
#843 = EDGE_CURVE('',#844,#587,#846,.T.);
#844 = VERTEX_POINT('',#845);
#845 = CARTESIAN_POINT('',(-10.97084560514,-0.315396981485,23.0435024026
    ));
#846 = SURFACE_CURVE('',#847,(#851,#858),.PCURVE_S1.);
#847 = LINE('',#848,#849);
#848 = CARTESIAN_POINT('',(-10.97084560514,-0.315396981485,23.0435024026
    ));
#849 = VECTOR('',#850,1.);
#850 = DIRECTION('',(0.930162678665,0.330286165929,-0.160338516319));
#851 = PCURVE('',#679,#852);
#852 = DEFINITIONAL_REPRESENTATION('',(#853),#857);
#853 = LINE('',#854,#855);
#854 = CARTESIAN_POINT('',(0.,0.));
#855 = VECTOR('',#856,1.);
#856 = DIRECTION('',(0.987061475651,0.16034226918));
#857 = ( GEOMETRIC_REPRESENTATION_CONTEXT(2) 
PARAMETRIC_REPRESENTATION_CONTEXT() REPRESENTATION_CONTEXT('2D SPACE',''
  ) );
#858 = PCURVE('',#828,#859);
#859 = DEFINITIONAL_REPRESENTATION('',(#860),#864);
#860 = LINE('',#861,#862);
#861 = CARTESIAN_POINT('',(0.,-0.));
#862 = VECTOR('',#863,1.);
#863 = DIRECTION('',(0.367107007523,-0.930178716714));
#864 = ( GEOMETRIC_REPRESENTATION_CONTEXT(2) 
PARAMETRIC_REPRESENTATION_CONTEXT() REPRESENTATION_CONTEXT('2D SPACE',''
  ) );
#865 = ORIENTED_EDGE('',*,*,#665,.F.);
#866 = ORIENTED_EDGE('',*,*,#867,.T.);
#867 = EDGE_CURVE('',#399,#844,#868,.T.);
#868 = SURFACE_CURVE('',#869,(#873,#880),.PCURVE_S1.);
#869 = LINE('',#870,#871);
#870 = CARTESIAN_POINT('',(-10.97210969546,-0.340244278045,
    19.684604993283));
#871 = VECTOR('',#872,1.);
#872 = DIRECTION('',(3.763305299775E-04,7.397253309454E-03,
    0.999972569133));
#873 = PCURVE('',#679,#874);
#874 = DEFINITIONAL_REPRESENTATION('',(#875),#879);
#875 = LINE('',#876,#877);
#876 = CARTESIAN_POINT('',(-9.531057009461E-03,3.358976027205));
#877 = VECTOR('',#878,1.);
#878 = DIRECTION('',(2.83747742276E-03,-0.999995974353));
#879 = ( GEOMETRIC_REPRESENTATION_CONTEXT(2) 
PARAMETRIC_REPRESENTATION_CONTEXT() REPRESENTATION_CONTEXT('2D SPACE',''
  ) );
#880 = PCURVE('',#881,#886);
#881 = PLANE('',#882);
#882 = AXIS2_PLACEMENT_3D('',#883,#884,#885);
#883 = CARTESIAN_POINT('',(7.294229188199,-8.155413429184,
    23.048169395158));
#884 = DIRECTION('',(-0.39442667255,-0.918901166329,6.945970026387E-03)
  );
#885 = DIRECTION('',(-0.918923334014,0.394436187748,5.058417112976E-19)
  );
#886 = DEFINITIONAL_REPRESENTATION('',(#887),#891);
#887 = LINE('',#888,#889);
#888 = CARTESIAN_POINT('',(19.867950553782,3.363645544915));
#889 = VECTOR('',#890,1.);
#890 = DIRECTION('',(2.571925489887E-03,-0.999996692594));
#891 = ( GEOMETRIC_REPRESENTATION_CONTEXT(2) 
PARAMETRIC_REPRESENTATION_CONTEXT() REPRESENTATION_CONTEXT('2D SPACE',''
  ) );
#892 = ADVANCED_FACE('',(#893),#828,.T.);
#893 = FACE_BOUND('',#894,.T.);
#894 = EDGE_LOOP('',(#895,#921,#922));
#895 = ORIENTED_EDGE('',*,*,#896,.T.);
#896 = EDGE_CURVE('',#844,#786,#897,.T.);
#897 = SURFACE_CURVE('',#898,(#902,#909),.PCURVE_S1.);
#898 = LINE('',#899,#900);
#899 = CARTESIAN_POINT('',(-10.97084560514,-0.315396981485,23.0435024026
    ));
#900 = VECTOR('',#901,1.);
#901 = DIRECTION('',(0.999890432539,1.477709474023E-02,
    -8.720018791686E-04));
#902 = PCURVE('',#828,#903);
#903 = DEFINITIONAL_REPRESENTATION('',(#904),#908);
#904 = LINE('',#905,#906);
#905 = CARTESIAN_POINT('',(0.,-0.));
#906 = VECTOR('',#907,1.);
#907 = DIRECTION('',(1.358844285264E-02,-0.999907672848));
#908 = ( GEOMETRIC_REPRESENTATION_CONTEXT(2) 
PARAMETRIC_REPRESENTATION_CONTEXT() REPRESENTATION_CONTEXT('2D SPACE',''
  ) );
#909 = PCURVE('',#910,#915);
#910 = PLANE('',#911);
#911 = AXIS2_PLACEMENT_3D('',#912,#913,#914);
#912 = CARTESIAN_POINT('',(-10.97084560514,-0.315396981485,23.0435024026
    ));
#913 = DIRECTION('',(8.34562635649E-04,2.539576922488E-03,0.999996427021
    ));
#914 = DIRECTION('',(-8.447069864111E-23,0.999996775267,
    -2.539577806889E-03));
#915 = DEFINITIONAL_REPRESENTATION('',(#916),#920);
#916 = LINE('',#917,#918);
#917 = CARTESIAN_POINT('',(0.,0.));
#918 = VECTOR('',#919,1.);
#919 = DIRECTION('',(1.477926160467E-02,-0.999890780749));
#920 = ( GEOMETRIC_REPRESENTATION_CONTEXT(2) 
PARAMETRIC_REPRESENTATION_CONTEXT() REPRESENTATION_CONTEXT('2D SPACE',''
  ) );
#921 = ORIENTED_EDGE('',*,*,#814,.F.);
#922 = ORIENTED_EDGE('',*,*,#843,.F.);
#923 = ADVANCED_FACE('',(#924),#881,.T.);
#924 = FACE_BOUND('',#925,.T.);
#925 = EDGE_LOOP('',(#926,#949,#950));
#926 = ORIENTED_EDGE('',*,*,#927,.F.);
#927 = EDGE_CURVE('',#844,#928,#930,.T.);
#928 = VERTEX_POINT('',#929);
#929 = CARTESIAN_POINT('',(7.294229188199,-8.155413429184,
    23.048169395158));
#930 = SURFACE_CURVE('',#931,(#935,#942),.PCURVE_S1.);
#931 = LINE('',#932,#933);
#932 = CARTESIAN_POINT('',(-10.97084560514,-0.315396981485,23.0435024026
    ));
#933 = VECTOR('',#934,1.);
#934 = DIRECTION('',(0.918923951985,-0.394434678164,2.347984496935E-04)
  );
#935 = PCURVE('',#881,#936);
#936 = DEFINITIONAL_REPRESENTATION('',(#937),#941);
#937 = LINE('',#938,#939);
#938 = CARTESIAN_POINT('',(19.876589624624,4.66710514481E-03));
#939 = VECTOR('',#940,1.);
#940 = DIRECTION('',(-0.999999972434,-2.348041140002E-04));
#941 = ( GEOMETRIC_REPRESENTATION_CONTEXT(2) 
PARAMETRIC_REPRESENTATION_CONTEXT() REPRESENTATION_CONTEXT('2D SPACE',''
  ) );
#942 = PCURVE('',#910,#943);
#943 = DEFINITIONAL_REPRESENTATION('',(#944),#948);
#944 = LINE('',#945,#946);
#945 = CARTESIAN_POINT('',(0.,0.));
#946 = VECTOR('',#947,1.);
#947 = DIRECTION('',(-0.394434002506,-0.918924271998));
#948 = ( GEOMETRIC_REPRESENTATION_CONTEXT(2) 
PARAMETRIC_REPRESENTATION_CONTEXT() REPRESENTATION_CONTEXT('2D SPACE',''
  ) );
#949 = ORIENTED_EDGE('',*,*,#867,.F.);
#950 = ORIENTED_EDGE('',*,*,#951,.T.);
#951 = EDGE_CURVE('',#399,#928,#952,.T.);
#952 = SURFACE_CURVE('',#953,(#957,#964),.PCURVE_S1.);
#953 = LINE('',#954,#955);
#954 = CARTESIAN_POINT('',(-10.97210969546,-0.340244278045,
    19.684604993283));
#955 = VECTOR('',#956,1.);
#956 = DIRECTION('',(0.906487840314,-0.387836656849,0.166920708623));
#957 = PCURVE('',#881,#958);
#958 = DEFINITIONAL_REPRESENTATION('',(#959),#963);
#959 = LINE('',#960,#961);
#960 = CARTESIAN_POINT('',(19.867950553782,3.363645544915));
#961 = VECTOR('',#962,1.);
#962 = DIRECTION('',(-0.985969640861,-0.166924735439));
#963 = ( GEOMETRIC_REPRESENTATION_CONTEXT(2) 
PARAMETRIC_REPRESENTATION_CONTEXT() REPRESENTATION_CONTEXT('2D SPACE',''
  ) );
#964 = PCURVE('',#519,#965);
#965 = DEFINITIONAL_REPRESENTATION('',(#966),#970);
#966 = LINE('',#967,#968);
#967 = CARTESIAN_POINT('',(-8.507812514324,18.266545836049));
#968 = VECTOR('',#969,1.);
#969 = DIRECTION('',(0.422209871448,-0.906498110561));
#970 = ( GEOMETRIC_REPRESENTATION_CONTEXT(2) 
PARAMETRIC_REPRESENTATION_CONTEXT() REPRESENTATION_CONTEXT('2D SPACE',''
  ) );
#971 = ADVANCED_FACE('',(#972),#519,.T.);
#972 = FACE_BOUND('',#973,.T.);
#973 = EDGE_LOOP('',(#974,#975,#976));
#974 = ORIENTED_EDGE('',*,*,#951,.F.);
#975 = ORIENTED_EDGE('',*,*,#505,.T.);
#976 = ORIENTED_EDGE('',*,*,#977,.F.);
#977 = EDGE_CURVE('',#928,#478,#978,.T.);
#978 = SURFACE_CURVE('',#979,(#983,#990),.PCURVE_S1.);
#979 = LINE('',#980,#981);
#980 = CARTESIAN_POINT('',(7.294229188199,-8.155413429184,
    23.048169395158));
#981 = VECTOR('',#982,1.);
#982 = DIRECTION('',(0.385464184035,0.851947350939,-0.35440523988));
#983 = PCURVE('',#519,#984);
#984 = DEFINITIONAL_REPRESENTATION('',(#985),#989);
#985 = LINE('',#986,#987);
#986 = CARTESIAN_POINT('',(0.,-0.));
#987 = VECTOR('',#988,1.);
#988 = DIRECTION('',(-0.922720974082,-0.385468551233));
#989 = ( GEOMETRIC_REPRESENTATION_CONTEXT(2) 
PARAMETRIC_REPRESENTATION_CONTEXT() REPRESENTATION_CONTEXT('2D SPACE',''
  ) );
#990 = PCURVE('',#801,#991);
#991 = DEFINITIONAL_REPRESENTATION('',(#992),#996);
#992 = LINE('',#993,#994);
#993 = CARTESIAN_POINT('',(-8.958047189398,2.381076956313E-02));
#994 = VECTOR('',#995,1.);
#995 = DIRECTION('',(0.935091642467,-0.354406010372));
#996 = ( GEOMETRIC_REPRESENTATION_CONTEXT(2) 
PARAMETRIC_REPRESENTATION_CONTEXT() REPRESENTATION_CONTEXT('2D SPACE',''
  ) );
#997 = ADVANCED_FACE('',(#998),#801,.T.);
#998 = FACE_BOUND('',#999,.T.);
#999 = EDGE_LOOP('',(#1000,#1021,#1022));
#1000 = ORIENTED_EDGE('',*,*,#1001,.F.);
#1001 = EDGE_CURVE('',#928,#786,#1002,.T.);
#1002 = SURFACE_CURVE('',#1003,(#1007,#1014),.PCURVE_S1.);
#1003 = LINE('',#1004,#1005);
#1004 = CARTESIAN_POINT('',(7.294229188199,-8.155413429184,
    23.048169395158));
#1005 = VECTOR('',#1006,1.);
#1006 = DIRECTION('',(0.411504061798,0.911404049845,-2.65801610348E-03)
  );
#1007 = PCURVE('',#801,#1008);
#1008 = DEFINITIONAL_REPRESENTATION('',(#1009),#1013);
#1009 = LINE('',#1010,#1011);
#1010 = CARTESIAN_POINT('',(-8.958047189398,2.381076956313E-02));
#1011 = VECTOR('',#1012,1.);
#1012 = DIRECTION('',(0.999996467454,-2.65802188212E-03));
#1013 = ( GEOMETRIC_REPRESENTATION_CONTEXT(2) 
PARAMETRIC_REPRESENTATION_CONTEXT() REPRESENTATION_CONTEXT('2D SPACE',''
  ) );
#1014 = PCURVE('',#910,#1015);
#1015 = DEFINITIONAL_REPRESENTATION('',(#1016),#1020);
#1016 = LINE('',#1017,#1018);
#1017 = CARTESIAN_POINT('',(-7.840003017931,-18.26508115411));
#1018 = VECTOR('',#1019,1.);
#1019 = DIRECTION('',(0.911407861049,-0.411504205103));
#1020 = ( GEOMETRIC_REPRESENTATION_CONTEXT(2) 
PARAMETRIC_REPRESENTATION_CONTEXT() REPRESENTATION_CONTEXT('2D SPACE',''
  ) );
#1021 = ORIENTED_EDGE('',*,*,#977,.T.);
#1022 = ORIENTED_EDGE('',*,*,#785,.F.);
#1023 = ADVANCED_FACE('',(#1024),#910,.T.);
#1024 = FACE_BOUND('',#1025,.T.);
#1025 = EDGE_LOOP('',(#1026,#1027,#1028));
#1026 = ORIENTED_EDGE('',*,*,#927,.T.);
#1027 = ORIENTED_EDGE('',*,*,#1001,.T.);
#1028 = ORIENTED_EDGE('',*,*,#896,.F.);
#1029 = ( GEOMETRIC_REPRESENTATION_CONTEXT(3) 
GLOBAL_UNCERTAINTY_ASSIGNED_CONTEXT((#1033)) 
GLOBAL_UNIT_ASSIGNED_CONTEXT((#1030,#1031,#1032)) REPRESENTATION_CONTEXT
('Context #1','3D Context with UNIT and UNCERTAINTY') );
#1030 = ( LENGTH_UNIT() NAMED_UNIT(*) SI_UNIT(.MILLI.,.METRE.) );
#1031 = ( NAMED_UNIT(*) PLANE_ANGLE_UNIT() SI_UNIT($,.RADIAN.) );
#1032 = ( NAMED_UNIT(*) SI_UNIT($,.STERADIAN.) SOLID_ANGLE_UNIT() );
#1033 = UNCERTAINTY_MEASURE_WITH_UNIT(LENGTH_MEASURE(1.E-07),#1030,
  'distance_accuracy_value','confusion accuracy');
#1034 = PRODUCT_TYPE('part',$,(#7));
ENDSEC;
END-ISO-10303-21;
