ISO-10303-21;
HEADER;
FILE_DESCRIPTION(('Open CASCADE Model'),'2;1');
FILE_NAME('Open CASCADE Shape Model','2026-10-04T20:44:42',('Author'),(
    'Open CASCADE'),'Open CASCADE STEP processor 7.8','Open CASCADE 7.8'
  ,'Unknown');
FILE_SCHEMA(('AUTOMOTIVE_DESIGN_CC2 { 1 2 10303 214 -1 1 5 4 }'));
ENDSEC;
DATA;
#1 = APPLICATION_PROTOCOL_DEFINITION('committee draft',
  'automotive_design',1997,#2);
#2 = APPLICATION_CONTEXT(
  'core data for automotive mechanical design processes');
#3 = SHAPE_DEFINITION_REPRESENTATION(#4,#10);
#4 = PRODUCT_DEFINITION_SHAPE('','',#5);
#5 = PRODUCT_DEFINITION('design','',#6,#9);
#6 = PRODUCT_DEFINITION_FORMATION('','',#7);
#7 = PRODUCT('Open CASCADE STEP translator 7.8 101',
  'Open CASCADE STEP translator 7.8 101','',(#8));
#8 = MECHANICAL_CONTEXT('',#2,'mechanical');
#9 = PRODUCT_DEFINITION_CONTEXT('part definition',#2,'design');
#10 = ADVANCED_BREP_SHAPE_REPRESENTATION('',(#11,#15),#861);
#11 = AXIS2_PLACEMENT_3D('',#12,#13,#14);
#12 = CARTESIAN_POINT('',(0.,0.,0.));
#13 = DIRECTION('',(0.,0.,1.));
#14 = DIRECTION('',(1.,0.,-0.));
#15 = MANIFOLD_SOLID_BREP('',#16);
#16 = CLOSED_SHELL('',(#17,#109,#167,#225,#283,#341,#399,#452,#483,#531,
    #562,#588,#619,#672,#703,#751,#777,#803,#829,#855));
#17 = ADVANCED_FACE('',(#18),#32,.T.);
#18 = FACE_BOUND('',#19,.T.);
#19 = EDGE_LOOP('',(#20,#55,#83));
#20 = ORIENTED_EDGE('',*,*,#21,.F.);
#21 = EDGE_CURVE('',#22,#24,#26,.T.);
#22 = VERTEX_POINT('',#23);
#23 = CARTESIAN_POINT('',(-58.0111406406,20.605171456205,25.401050079366
    ));
#24 = VERTEX_POINT('',#25);
#25 = CARTESIAN_POINT('',(-57.97885972652,-20.6061999488,
    -1.493450507198E-02));
#26 = SURFACE_CURVE('',#27,(#31,#43),.PCURVE_S1.);
#27 = LINE('',#28,#29);
#28 = CARTESIAN_POINT('',(-58.0111406406,20.605171456205,25.401050079366
    ));
#29 = VECTOR('',#30,1.);
#30 = DIRECTION('',(6.667062975896E-04,-0.851149405934,-0.524923084157)
  );
#31 = PCURVE('',#32,#37);
#32 = PLANE('',#33);
#33 = AXIS2_PLACEMENT_3D('',#34,#35,#36);
#34 = CARTESIAN_POINT('',(-57.97885972652,-20.6061999488,
    -1.493450507198E-02));
#35 = DIRECTION('',(-0.99999966222,-8.197919365914E-04,
    5.916933045434E-05));
#36 = DIRECTION('',(8.197919380265E-04,-0.999999663971,
    -1.238503062761E-24));
#37 = DEFINITIONAL_REPRESENTATION('',(#38),#42);
#38 = LINE('',#39,#40);
#39 = CARTESIAN_POINT('',(-41.2113840204,25.415984628929));
#40 = VECTOR('',#41,1.);
#41 = DIRECTION('',(0.851149666483,-0.524923085076));
#42 = ( GEOMETRIC_REPRESENTATION_CONTEXT(2) 
PARAMETRIC_REPRESENTATION_CONTEXT() REPRESENTATION_CONTEXT('2D SPACE',''
  ) );
#43 = PCURVE('',#44,#49);
#44 = PLANE('',#45);
#45 = AXIS2_PLACEMENT_3D('',#46,#47,#48);
#46 = CARTESIAN_POINT('',(-58.01135671362,-20.59632251764,
    25.380450443473));
#47 = DIRECTION('',(-0.99999918124,5.884083055901E-06,
    -1.279642686305E-03));
#48 = DIRECTION('',(1.279642686327E-03,5.655663313353E-25,
    -0.999999181257));
#49 = DEFINITIONAL_REPRESENTATION('',(#50),#54);
#50 = LINE('',#51,#52);
#51 = CARTESIAN_POINT('',(-2.059934253151E-02,-41.20149397456));
#52 = VECTOR('',#53,1.);
#53 = DIRECTION('',(0.524923507526,0.851149405949));
#54 = ( GEOMETRIC_REPRESENTATION_CONTEXT(2) 
PARAMETRIC_REPRESENTATION_CONTEXT() REPRESENTATION_CONTEXT('2D SPACE',''
  ) );
#55 = ORIENTED_EDGE('',*,*,#56,.F.);
#56 = EDGE_CURVE('',#57,#22,#59,.T.);
#57 = VERTEX_POINT('',#58);
#58 = CARTESIAN_POINT('',(-58.0126490603,20.608344151602,
    -4.825313822877E-02));
#59 = SURFACE_CURVE('',#60,(#64,#71),.PCURVE_S1.);
#60 = LINE('',#61,#62);
#61 = CARTESIAN_POINT('',(-58.0126490603,20.608344151602,
    -4.825313822877E-02));
#62 = VECTOR('',#63,1.);
#63 = DIRECTION('',(5.927155114086E-05,-1.246672783074E-04,
    0.999999990472));
#64 = PCURVE('',#32,#65);
#65 = DEFINITIONAL_REPRESENTATION('',(#66),#70);
#66 = LINE('',#67,#68);
#67 = CARTESIAN_POINT('',(-41.21455795132,-3.331863321512E-02));
#68 = VECTOR('',#69,1.);
#69 = DIRECTION('',(1.247158267553E-04,0.999999992223));
#70 = ( GEOMETRIC_REPRESENTATION_CONTEXT(2) 
PARAMETRIC_REPRESENTATION_CONTEXT() REPRESENTATION_CONTEXT('2D SPACE',''
  ) );
#71 = PCURVE('',#72,#77);
#72 = PLANE('',#73);
#73 = AXIS2_PLACEMENT_3D('',#74,#75,#76);
#74 = CARTESIAN_POINT('',(58.005455420123,20.604594749032,
    25.422213765216));
#75 = DIRECTION('',(4.948160651543E-06,0.999999992217,1.246669852397E-04
    ));
#76 = DIRECTION('',(-1.680598010983E-26,-1.246669852413E-04,
    0.999999992229));
#77 = DEFINITIONAL_REPRESENTATION('',(#78),#82);
#78 = LINE('',#79,#80);
#79 = CARTESIAN_POINT('',(-25.47046717294,-116.0181044818));
#80 = VECTOR('',#81,1.);
#81 = DIRECTION('',(0.999999998243,5.927155114159E-05));
#82 = ( GEOMETRIC_REPRESENTATION_CONTEXT(2) 
PARAMETRIC_REPRESENTATION_CONTEXT() REPRESENTATION_CONTEXT('2D SPACE',''
  ) );
#83 = ORIENTED_EDGE('',*,*,#84,.T.);
#84 = EDGE_CURVE('',#57,#24,#85,.T.);
#85 = SURFACE_CURVE('',#86,(#90,#97),.PCURVE_S1.);
#86 = LINE('',#87,#88);
#87 = CARTESIAN_POINT('',(-58.0126490603,20.608344151602,
    -4.825313822877E-02));
#88 = VECTOR('',#89,1.);
#89 = DIRECTION('',(8.19839503724E-04,-0.999999337161,8.084187705857E-04
    ));
#90 = PCURVE('',#32,#91);
#91 = DEFINITIONAL_REPRESENTATION('',(#92),#96);
#92 = LINE('',#93,#94);
#93 = CARTESIAN_POINT('',(-41.21455795132,-3.331863321512E-02));
#94 = VECTOR('',#95,1.);
#95 = DIRECTION('',(0.999999673229,8.084187720008E-04));
#96 = ( GEOMETRIC_REPRESENTATION_CONTEXT(2) 
PARAMETRIC_REPRESENTATION_CONTEXT() REPRESENTATION_CONTEXT('2D SPACE',''
  ) );
#97 = PCURVE('',#98,#103);
#98 = PLANE('',#99);
#99 = AXIS2_PLACEMENT_3D('',#100,#101,#102);
#100 = CARTESIAN_POINT('',(57.999365036922,20.601459379549,
    -1.569693136548E-03));
#101 = DIRECTION('',(4.023536952189E-04,-8.08089111376E-04,
    -0.999999592552));
#102 = DIRECTION('',(3.212799708401E-23,-0.999999673496,
    8.080891767862E-04));
#103 = DEFINITIONAL_REPRESENTATION('',(#104),#108);
#104 = LINE('',#105,#106);
#105 = CARTESIAN_POINT('',(-6.922494191792E-03,116.01202348772));
#106 = VECTOR('',#107,1.);
#107 = DIRECTION('',(0.999999663931,-8.198395700853E-04));
#108 = ( GEOMETRIC_REPRESENTATION_CONTEXT(2) 
PARAMETRIC_REPRESENTATION_CONTEXT() REPRESENTATION_CONTEXT('2D SPACE',''
  ) );
#109 = ADVANCED_FACE('',(#110),#44,.T.);
#110 = FACE_BOUND('',#111,.T.);
#111 = EDGE_LOOP('',(#112,#140,#141));
#112 = ORIENTED_EDGE('',*,*,#113,.T.);
#113 = EDGE_CURVE('',#114,#22,#116,.T.);
#114 = VERTEX_POINT('',#115);
#115 = CARTESIAN_POINT('',(-58.01135671362,-20.59632251764,
    25.380450443473));
#116 = SURFACE_CURVE('',#117,(#121,#128),.PCURVE_S1.);
#117 = LINE('',#118,#119);
#118 = CARTESIAN_POINT('',(-58.01135671362,-20.59632251764,
    25.380450443473));
#119 = VECTOR('',#120,1.);
#120 = DIRECTION('',(5.244299859553E-06,0.999999875,4.999729701959E-04)
  );
#121 = PCURVE('',#44,#122);
#122 = DEFINITIONAL_REPRESENTATION('',(#123),#127);
#123 = LINE('',#124,#125);
#124 = CARTESIAN_POINT('',(0.,-0.));
#125 = VECTOR('',#126,1.);
#126 = DIRECTION('',(-4.999658500165E-04,-0.999999875017));
#127 = ( GEOMETRIC_REPRESENTATION_CONTEXT(2) 
PARAMETRIC_REPRESENTATION_CONTEXT() REPRESENTATION_CONTEXT('2D SPACE',''
  ) );
#128 = PCURVE('',#129,#134);
#129 = PLANE('',#130);
#130 = AXIS2_PLACEMENT_3D('',#131,#132,#133);
#131 = CARTESIAN_POINT('',(-58.0111406406,20.605171456205,
    25.401050079366));
#132 = DIRECTION('',(-0.706831372262,-3.499650858403E-04,0.707381996315)
  );
#133 = DIRECTION('',(0.707382039634,-2.364815675028E-21,0.706831415547)
  );
#134 = DEFINITIONAL_REPRESENTATION('',(#135),#139);
#135 = LINE('',#136,#137);
#136 = CARTESIAN_POINT('',(-1.471331596922E-02,-41.20149649694));
#137 = VECTOR('',#138,1.);
#138 = DIRECTION('',(3.571063257897E-04,0.999999936238));
#139 = ( GEOMETRIC_REPRESENTATION_CONTEXT(2) 
PARAMETRIC_REPRESENTATION_CONTEXT() REPRESENTATION_CONTEXT('2D SPACE',''
  ) );
#140 = ORIENTED_EDGE('',*,*,#21,.T.);
#141 = ORIENTED_EDGE('',*,*,#142,.F.);
#142 = EDGE_CURVE('',#114,#24,#143,.T.);
#143 = SURFACE_CURVE('',#144,(#148,#155),.PCURVE_S1.);
#144 = LINE('',#145,#146);
#145 = CARTESIAN_POINT('',(-58.01135671362,-20.59632251764,
    25.380450443473));
#146 = VECTOR('',#147,1.);
#147 = DIRECTION('',(1.279640300949E-03,-3.889455639694E-04,
    -0.999999105621));
#148 = PCURVE('',#44,#149);
#149 = DEFINITIONAL_REPRESENTATION('',(#150),#154);
#150 = LINE('',#151,#152);
#151 = CARTESIAN_POINT('',(0.,-0.));
#152 = VECTOR('',#153,1.);
#153 = DIRECTION('',(0.999999924361,3.889455639762E-04));
#154 = ( GEOMETRIC_REPRESENTATION_CONTEXT(2) 
PARAMETRIC_REPRESENTATION_CONTEXT() REPRESENTATION_CONTEXT('2D SPACE',''
  ) );
#155 = PCURVE('',#156,#161);
#156 = PLANE('',#157);
#157 = AXIS2_PLACEMENT_3D('',#158,#159,#160);
#158 = CARTESIAN_POINT('',(58.060538594745,-20.58218274822,
    25.425185664787));
#159 = DIRECTION('',(1.216690884948E-04,-0.999999916898,
    3.891015723208E-04));
#160 = DIRECTION('',(-4.734401814852E-24,-3.891015752008E-04,
    -0.9999999243));
#161 = DEFINITIONAL_REPRESENTATION('',(#162),#166);
#162 = LINE('',#163,#164);
#163 = CARTESIAN_POINT('',(4.474071973397E-02,-116.0718961674));
#164 = VECTOR('',#165,1.);
#165 = DIRECTION('',(0.99999918126,1.279640310421E-03));
#166 = ( GEOMETRIC_REPRESENTATION_CONTEXT(2) 
PARAMETRIC_REPRESENTATION_CONTEXT() REPRESENTATION_CONTEXT('2D SPACE',''
  ) );
#167 = ADVANCED_FACE('',(#168),#156,.T.);
#168 = FACE_BOUND('',#169,.T.);
#169 = EDGE_LOOP('',(#170,#198,#199));
#170 = ORIENTED_EDGE('',*,*,#171,.F.);
#171 = EDGE_CURVE('',#114,#172,#174,.T.);
#172 = VERTEX_POINT('',#173);
#173 = CARTESIAN_POINT('',(58.060538594745,-20.58218274822,
    25.425185664787));
#174 = SURFACE_CURVE('',#175,(#179,#186),.PCURVE_S1.);
#175 = LINE('',#176,#177);
#176 = CARTESIAN_POINT('',(-58.01135671362,-20.59632251764,
    25.380450443473));
#177 = VECTOR('',#178,1.);
#178 = DIRECTION('',(0.99999991831,1.218190521433E-04,3.854095562117E-04
    ));
#179 = PCURVE('',#156,#180);
#180 = DEFINITIONAL_REPRESENTATION('',(#181),#185);
#181 = LINE('',#182,#183);
#182 = CARTESIAN_POINT('',(4.474071973397E-02,-116.0718961674));
#183 = VECTOR('',#184,1.);
#184 = DIRECTION('',(-3.854569270212E-04,0.999999925711));
#185 = ( GEOMETRIC_REPRESENTATION_CONTEXT(2) 
PARAMETRIC_REPRESENTATION_CONTEXT() REPRESENTATION_CONTEXT('2D SPACE',''
  ) );
#186 = PCURVE('',#187,#192);
#187 = PLANE('',#188);
#188 = AXIS2_PLACEMENT_3D('',#189,#190,#191);
#189 = CARTESIAN_POINT('',(53.901462530156,-16.44600554094,
    29.536352555024));
#190 = DIRECTION('',(-1.874255769565E-04,-0.705054001737,0.709153593734)
  );
#191 = DIRECTION('',(1.007016665061E-20,0.70915360619,0.705054014121));
#192 = DEFINITIONAL_REPRESENTATION('',(#193),#197);
#193 = LINE('',#194,#195);
#194 = CARTESIAN_POINT('',(-5.873347716901,111.91282120943));
#195 = VECTOR('',#196,1.);
#196 = DIRECTION('',(3.581229748175E-04,-0.999999935874));
#197 = ( GEOMETRIC_REPRESENTATION_CONTEXT(2) 
PARAMETRIC_REPRESENTATION_CONTEXT() REPRESENTATION_CONTEXT('2D SPACE',''
  ) );
#198 = ORIENTED_EDGE('',*,*,#142,.T.);
#199 = ORIENTED_EDGE('',*,*,#200,.T.);
#200 = EDGE_CURVE('',#24,#172,#201,.T.);
#201 = SURFACE_CURVE('',#202,(#206,#213),.PCURVE_S1.);
#202 = LINE('',#203,#204);
#203 = CARTESIAN_POINT('',(-57.97885972652,-20.6061999488,
    -1.493450507198E-02));
#204 = VECTOR('',#205,1.);
#205 = DIRECTION('',(0.976800600743,2.021728506988E-04,0.214150754178));
#206 = PCURVE('',#156,#207);
#207 = DEFINITIONAL_REPRESENTATION('',(#208),#212);
#208 = LINE('',#209,#210);
#209 = CARTESIAN_POINT('',(25.440127589172,-116.0393991801));
#210 = VECTOR('',#211,1.);
#211 = DIRECTION('',(-0.214150816633,0.976800607973));
#212 = ( GEOMETRIC_REPRESENTATION_CONTEXT(2) 
PARAMETRIC_REPRESENTATION_CONTEXT() REPRESENTATION_CONTEXT('2D SPACE',''
  ) );
#213 = PCURVE('',#214,#219);
#214 = PLANE('',#215);
#215 = AXIS2_PLACEMENT_3D('',#216,#217,#218);
#216 = CARTESIAN_POINT('',(58.060538594745,-20.58218274822,
    25.425185664787));
#217 = DIRECTION('',(-1.488736983049E-04,-0.999998671657,
    1.623120597529E-03));
#218 = DIRECTION('',(1.660363182903E-23,-1.623120615516E-03,
    -0.999998682739));
#219 = DEFINITIONAL_REPRESENTATION('',(#220),#224);
#220 = LINE('',#221,#222);
#221 = CARTESIAN_POINT('',(25.44012564139,-116.0393996071));
#222 = VECTOR('',#223,1.);
#223 = DIRECTION('',(-0.214150800237,0.976800611567));
#224 = ( GEOMETRIC_REPRESENTATION_CONTEXT(2) 
PARAMETRIC_REPRESENTATION_CONTEXT() REPRESENTATION_CONTEXT('2D SPACE',''
  ) );
#225 = ADVANCED_FACE('',(#226),#214,.T.);
#226 = FACE_BOUND('',#227,.T.);
#227 = EDGE_LOOP('',(#228,#229,#257));
#228 = ORIENTED_EDGE('',*,*,#200,.F.);
#229 = ORIENTED_EDGE('',*,*,#230,.T.);
#230 = EDGE_CURVE('',#24,#231,#233,.T.);
#231 = VERTEX_POINT('',#232);
#232 = CARTESIAN_POINT('',(58.055964587657,-20.62343673628,
    8.334774356494E-03));
#233 = SURFACE_CURVE('',#234,(#238,#245),.PCURVE_S1.);
#234 = LINE('',#235,#236);
#235 = CARTESIAN_POINT('',(-57.97885972652,-20.6061999488,
    -1.493450507198E-02));
#236 = VECTOR('',#237,1.);
#237 = DIRECTION('',(0.999999968859,-1.485483952128E-04,
    2.005370270639E-04));
#238 = PCURVE('',#214,#239);
#239 = DEFINITIONAL_REPRESENTATION('',(#240),#244);
#240 = LINE('',#241,#242);
#241 = CARTESIAN_POINT('',(25.44012564139,-116.0393996071));
#242 = VECTOR('',#243,1.);
#243 = DIRECTION('',(-2.002956509416E-04,0.999999979941));
#244 = ( GEOMETRIC_REPRESENTATION_CONTEXT(2) 
PARAMETRIC_REPRESENTATION_CONTEXT() REPRESENTATION_CONTEXT('2D SPACE',''
  ) );
#245 = PCURVE('',#246,#251);
#246 = PLANE('',#247);
#247 = AXIS2_PLACEMENT_3D('',#248,#249,#250);
#248 = CARTESIAN_POINT('',(57.999365036922,20.601459379549,
    -1.569693136548E-03));
#249 = DIRECTION('',(2.005013749733E-04,-2.399792274362E-04,
    -0.999999951105));
#250 = DIRECTION('',(1.862532770789E-24,-0.999999971205,
    2.399792322599E-04));
#251 = DEFINITIONAL_REPRESENTATION('',(#252),#256);
#252 = LINE('',#253,#254);
#253 = CARTESIAN_POINT('',(41.2076549345,115.97822709465));
#254 = VECTOR('',#255,1.);
#255 = DIRECTION('',(1.485965156572E-04,-0.99999998896));
#256 = ( GEOMETRIC_REPRESENTATION_CONTEXT(2) 
PARAMETRIC_REPRESENTATION_CONTEXT() REPRESENTATION_CONTEXT('2D SPACE',''
  ) );
#257 = ORIENTED_EDGE('',*,*,#258,.T.);
#258 = EDGE_CURVE('',#231,#172,#259,.T.);
#259 = SURFACE_CURVE('',#260,(#264,#271),.PCURVE_S1.);
#260 = LINE('',#261,#262);
#261 = CARTESIAN_POINT('',(58.055964587657,-20.62343673628,
    8.334774356494E-03));
#262 = VECTOR('',#263,1.);
#263 = DIRECTION('',(1.799593902907E-04,1.623093798048E-03,0.99999866659
    ));
#264 = PCURVE('',#214,#265);
#265 = DEFINITIONAL_REPRESENTATION('',(#266),#270);
#266 = LINE('',#267,#268);
#267 = CARTESIAN_POINT('',(25.416884369999,-4.574007139067E-03));
#268 = VECTOR('',#269,1.);
#269 = DIRECTION('',(-0.999999983807,1.799593922849E-04));
#270 = ( GEOMETRIC_REPRESENTATION_CONTEXT(2) 
PARAMETRIC_REPRESENTATION_CONTEXT() REPRESENTATION_CONTEXT('2D SPACE',''
  ) );
#271 = PCURVE('',#272,#277);
#272 = PLANE('',#273);
#273 = AXIS2_PLACEMENT_3D('',#274,#275,#276);
#274 = CARTESIAN_POINT('',(58.060538594745,-20.58218274822,
    25.425185664787));
#275 = DIRECTION('',(0.999999089114,1.337385115369E-03,
    -1.821301707089E-04));
#276 = DIRECTION('',(-1.33738513755E-03,0.9999991057,-3.984338208609E-23
    ));
#277 = DEFINITIONAL_REPRESENTATION('',(#278),#282);
#278 = LINE('',#279,#280);
#279 = CARTESIAN_POINT('',(-4.124783395213E-02,-25.41685131198));
#280 = VECTOR('',#281,1.);
#281 = DIRECTION('',(1.622851671502E-03,0.999998683175));
#282 = ( GEOMETRIC_REPRESENTATION_CONTEXT(2) 
PARAMETRIC_REPRESENTATION_CONTEXT() REPRESENTATION_CONTEXT('2D SPACE',''
  ) );
#283 = ADVANCED_FACE('',(#284),#129,.T.);
#284 = FACE_BOUND('',#285,.T.);
#285 = EDGE_LOOP('',(#286,#287,#315));
#286 = ORIENTED_EDGE('',*,*,#113,.F.);
#287 = ORIENTED_EDGE('',*,*,#288,.T.);
#288 = EDGE_CURVE('',#114,#289,#291,.T.);
#289 = VERTEX_POINT('',#290);
#290 = CARTESIAN_POINT('',(-53.85041547679,-16.47758783879,
    29.540190489154));
#291 = SURFACE_CURVE('',#292,(#296,#303),.PCURVE_S1.);
#292 = LINE('',#293,#294);
#293 = CARTESIAN_POINT('',(-58.01135671362,-20.59632251764,
    25.380450443473));
#294 = VECTOR('',#295,1.);
#295 = DIRECTION('',(0.579358466589,0.573481736945,0.579191215906));
#296 = PCURVE('',#129,#297);
#297 = DEFINITIONAL_REPRESENTATION('',(#298),#302);
#298 = LINE('',#299,#300);
#299 = CARTESIAN_POINT('',(-1.471331596922E-02,-41.20149649694));
#300 = VECTOR('',#301,1.);
#301 = DIRECTION('',(0.819218320785,0.573481772064));
#302 = ( GEOMETRIC_REPRESENTATION_CONTEXT(2) 
PARAMETRIC_REPRESENTATION_CONTEXT() REPRESENTATION_CONTEXT('2D SPACE',''
  ) );
#303 = PCURVE('',#304,#309);
#304 = PLANE('',#305);
#305 = AXIS2_PLACEMENT_3D('',#306,#307,#308);
#306 = CARTESIAN_POINT('',(53.901462530156,-16.44600554094,
    29.536352555024));
#307 = DIRECTION('',(2.333693379273E-04,-0.710717225244,0.70347776886));
#308 = DIRECTION('',(7.140174794182E-22,-0.703477788016,-0.710717244598)
  );
#309 = DEFINITIONAL_REPRESENTATION('',(#310),#314);
#310 = LINE('',#311,#312);
#311 = CARTESIAN_POINT('',(5.873327103873,-111.9128222912));
#312 = VECTOR('',#313,1.);
#313 = DIRECTION('',(-0.815072848837,0.579358482365));
#314 = ( GEOMETRIC_REPRESENTATION_CONTEXT(2) 
PARAMETRIC_REPRESENTATION_CONTEXT() REPRESENTATION_CONTEXT('2D SPACE',''
  ) );
#315 = ORIENTED_EDGE('',*,*,#316,.F.);
#316 = EDGE_CURVE('',#22,#289,#317,.T.);
#317 = SURFACE_CURVE('',#318,(#322,#329),.PCURVE_S1.);
#318 = LINE('',#319,#320);
#319 = CARTESIAN_POINT('',(-58.0111406406,20.605171456205,
    25.401050079366));
#320 = VECTOR('',#321,1.);
#321 = DIRECTION('',(0.110821726414,-0.987706527941,0.11024681228));
#322 = PCURVE('',#129,#323);
#323 = DEFINITIONAL_REPRESENTATION('',(#324),#328);
#324 = LINE('',#325,#326);
#325 = CARTESIAN_POINT('',(0.,0.));
#326 = VECTOR('',#327,1.);
#327 = DIRECTION('',(0.15631920925,-0.987706588426));
#328 = ( GEOMETRIC_REPRESENTATION_CONTEXT(2) 
PARAMETRIC_REPRESENTATION_CONTEXT() REPRESENTATION_CONTEXT('2D SPACE',''
  ) );
#329 = PCURVE('',#330,#335);
#330 = PLANE('',#331);
#331 = AXIS2_PLACEMENT_3D('',#332,#333,#334);
#332 = CARTESIAN_POINT('',(-53.87986785225,16.444933906119,
    29.529761152463));
#333 = DIRECTION('',(-0.707093198375,-4.085585953281E-04,0.707120245709)
  );
#334 = DIRECTION('',(0.707120304725,-2.034219700821E-20,0.707093257389)
  );
#335 = DEFINITIONAL_REPRESENTATION('',(#336),#340);
#336 = LINE('',#337,#338);
#337 = CARTESIAN_POINT('',(-5.840690634502,4.160237897299));
#338 = VECTOR('',#339,1.);
#339 = DIRECTION('',(0.156319070564,-0.987706610375));
#340 = ( GEOMETRIC_REPRESENTATION_CONTEXT(2) 
PARAMETRIC_REPRESENTATION_CONTEXT() REPRESENTATION_CONTEXT('2D SPACE',''
  ) );
#341 = ADVANCED_FACE('',(#342),#330,.T.);
#342 = FACE_BOUND('',#343,.T.);
#343 = EDGE_LOOP('',(#344,#372,#373));
#344 = ORIENTED_EDGE('',*,*,#345,.F.);
#345 = EDGE_CURVE('',#22,#346,#348,.T.);
#346 = VERTEX_POINT('',#347);
#347 = CARTESIAN_POINT('',(-53.87986785225,16.444933906119,
    29.529761152463));
#348 = SURFACE_CURVE('',#349,(#353,#360),.PCURVE_S1.);
#349 = LINE('',#350,#351);
#350 = CARTESIAN_POINT('',(-58.0111406406,20.605171456205,
    25.401050079366));
#351 = VECTOR('',#352,1.);
#352 = DIRECTION('',(0.576119496638,-0.580158727355,0.57576225707));
#353 = PCURVE('',#330,#354);
#354 = DEFINITIONAL_REPRESENTATION('',(#355),#359);
#355 = LINE('',#356,#357);
#356 = CARTESIAN_POINT('',(-5.840690634502,4.160237897299));
#357 = VECTOR('',#358,1.);
#358 = DIRECTION('',(0.814503403855,-0.580158775775));
#359 = ( GEOMETRIC_REPRESENTATION_CONTEXT(2) 
PARAMETRIC_REPRESENTATION_CONTEXT() REPRESENTATION_CONTEXT('2D SPACE',''
  ) );
#360 = PCURVE('',#361,#366);
#361 = PLANE('',#362);
#362 = AXIS2_PLACEMENT_3D('',#363,#364,#365);
#363 = CARTESIAN_POINT('',(53.86405658902,16.494224610483,29.53233202218
    ));
#364 = DIRECTION('',(-3.391172517501E-04,0.704242531948,0.709959394047)
  );
#365 = DIRECTION('',(-5.604808158096E-21,0.70995943487,-0.704242572442)
  );
#366 = DEFINITIONAL_REPRESENTATION('',(#367),#371);
#367 = LINE('',#368,#369);
#368 = CARTESIAN_POINT('',(5.828030122257,111.87520366248));
#369 = VECTOR('',#370,1.);
#370 = DIRECTION('',(-0.817365455242,-0.576119529765));
#371 = ( GEOMETRIC_REPRESENTATION_CONTEXT(2) 
PARAMETRIC_REPRESENTATION_CONTEXT() REPRESENTATION_CONTEXT('2D SPACE',''
  ) );
#372 = ORIENTED_EDGE('',*,*,#316,.T.);
#373 = ORIENTED_EDGE('',*,*,#374,.F.);
#374 = EDGE_CURVE('',#346,#289,#375,.T.);
#375 = SURFACE_CURVE('',#376,(#380,#387),.PCURVE_S1.);
#376 = LINE('',#377,#378);
#377 = CARTESIAN_POINT('',(-53.87986785225,16.444933906119,
    29.529761152463));
#378 = VECTOR('',#379,1.);
#379 = DIRECTION('',(8.945961801574E-04,-0.999999549673,
    3.167841174084E-04));
#380 = PCURVE('',#330,#381);
#381 = DEFINITIONAL_REPRESENTATION('',(#382),#386);
#382 = LINE('',#383,#384);
#383 = CARTESIAN_POINT('',(0.,0.));
#384 = VECTOR('',#385,1.);
#385 = DIRECTION('',(8.565830369865E-04,-0.999999633133));
#386 = ( GEOMETRIC_REPRESENTATION_CONTEXT(2) 
PARAMETRIC_REPRESENTATION_CONTEXT() REPRESENTATION_CONTEXT('2D SPACE',''
  ) );
#387 = PCURVE('',#388,#393);
#388 = PLANE('',#389);
#389 = AXIS2_PLACEMENT_3D('',#390,#391,#392);
#390 = CARTESIAN_POINT('',(53.86405658902,16.494224610483,29.53233202218
    ));
#391 = DIRECTION('',(-2.400583662067E-05,3.167627685414E-04,
    0.999999949543));
#392 = DIRECTION('',(8.245221898164E-25,0.999999949831,
    -3.167627686327E-04));
#393 = DEFINITIONAL_REPRESENTATION('',(#394),#398);
#394 = LINE('',#395,#396);
#395 = CARTESIAN_POINT('',(-4.928988753564E-02,107.74392447231));
#396 = VECTOR('',#397,1.);
#397 = DIRECTION('',(-0.999999599849,-8.945961804152E-04));
#398 = ( GEOMETRIC_REPRESENTATION_CONTEXT(2) 
PARAMETRIC_REPRESENTATION_CONTEXT() REPRESENTATION_CONTEXT('2D SPACE',''
  ) );
#399 = ADVANCED_FACE('',(#400),#98,.T.);
#400 = FACE_BOUND('',#401,.T.);
#401 = EDGE_LOOP('',(#402,#425,#426));
#402 = ORIENTED_EDGE('',*,*,#403,.F.);
#403 = EDGE_CURVE('',#24,#404,#406,.T.);
#404 = VERTEX_POINT('',#405);
#405 = CARTESIAN_POINT('',(57.999365036922,20.601459379549,
    -1.569693136548E-03));
#406 = SURFACE_CURVE('',#407,(#411,#418),.PCURVE_S1.);
#407 = LINE('',#408,#409);
#408 = CARTESIAN_POINT('',(-57.97885972652,-20.6061999488,
    -1.493450507198E-02));
#409 = VECTOR('',#410,1.);
#410 = DIRECTION('',(0.942289143822,0.334800175694,1.085851867596E-04));
#411 = PCURVE('',#98,#412);
#412 = DEFINITIONAL_REPRESENTATION('',(#413),#417);
#413 = LINE('',#414,#415);
#414 = CARTESIAN_POINT('',(41.207635073923,115.97823415121));
#415 = VECTOR('',#416,1.);
#416 = DIRECTION('',(-0.334799978633,-0.942289220095));
#417 = ( GEOMETRIC_REPRESENTATION_CONTEXT(2) 
PARAMETRIC_REPRESENTATION_CONTEXT() REPRESENTATION_CONTEXT('2D SPACE',''
  ) );
#418 = PCURVE('',#246,#419);
#419 = DEFINITIONAL_REPRESENTATION('',(#420),#424);
#420 = LINE('',#421,#422);
#421 = CARTESIAN_POINT('',(41.2076549345,115.97822709465));
#422 = VECTOR('',#423,1.);
#423 = DIRECTION('',(-0.334800139995,-0.942289162762));
#424 = ( GEOMETRIC_REPRESENTATION_CONTEXT(2) 
PARAMETRIC_REPRESENTATION_CONTEXT() REPRESENTATION_CONTEXT('2D SPACE',''
  ) );
#425 = ORIENTED_EDGE('',*,*,#84,.F.);
#426 = ORIENTED_EDGE('',*,*,#427,.T.);
#427 = EDGE_CURVE('',#57,#404,#428,.T.);
#428 = SURFACE_CURVE('',#429,(#433,#440),.PCURVE_S1.);
#429 = LINE('',#430,#431);
#430 = CARTESIAN_POINT('',(-58.0126490603,20.608344151602,
    -4.825313822877E-02));
#431 = VECTOR('',#432,1.);
#432 = DIRECTION('',(0.999999917275,-5.934533192119E-05,
    4.024017822088E-04));
#433 = PCURVE('',#98,#434);
#434 = DEFINITIONAL_REPRESENTATION('',(#435),#439);
#435 = LINE('',#436,#437);
#436 = CARTESIAN_POINT('',(-6.922494191792E-03,116.01202348772));
#437 = VECTOR('',#438,1.);
#438 = DIRECTION('',(5.967048906961E-05,-0.99999999822));
#439 = ( GEOMETRIC_REPRESENTATION_CONTEXT(2) 
PARAMETRIC_REPRESENTATION_CONTEXT() REPRESENTATION_CONTEXT('2D SPACE',''
  ) );
#440 = PCURVE('',#441,#446);
#441 = PLANE('',#442);
#442 = AXIS2_PLACEMENT_3D('',#443,#444,#445);
#443 = CARTESIAN_POINT('',(58.005455420123,20.604594749032,
    25.422213765216));
#444 = DIRECTION('',(5.939496790878E-05,0.99999999063,
    -1.233384951031E-04));
#445 = DIRECTION('',(-6.493071019653E-25,1.233384953207E-04,
    0.999999992394));
#446 = DEFINITIONAL_REPRESENTATION('',(#447),#451);
#447 = LINE('',#448,#449);
#448 = CARTESIAN_POINT('',(-25.47046624726,-116.018104685));
#449 = VECTOR('',#450,1.);
#450 = DIRECTION('',(4.023944595842E-04,0.999999919039));
#451 = ( GEOMETRIC_REPRESENTATION_CONTEXT(2) 
PARAMETRIC_REPRESENTATION_CONTEXT() REPRESENTATION_CONTEXT('2D SPACE',''
  ) );
#452 = ADVANCED_FACE('',(#453),#246,.T.);
#453 = FACE_BOUND('',#454,.T.);
#454 = EDGE_LOOP('',(#455,#481,#482));
#455 = ORIENTED_EDGE('',*,*,#456,.T.);
#456 = EDGE_CURVE('',#404,#231,#457,.T.);
#457 = SURFACE_CURVE('',#458,(#462,#469),.PCURVE_S1.);
#458 = LINE('',#459,#460);
#459 = CARTESIAN_POINT('',(57.999365036922,20.601459379549,
    -1.569693136548E-03));
#460 = VECTOR('',#461,1.);
#461 = DIRECTION('',(1.372944533256E-03,-0.99999902865,
    2.402542833464E-04));
#462 = PCURVE('',#246,#463);
#463 = DEFINITIONAL_REPRESENTATION('',(#464),#468);
#464 = LINE('',#465,#466);
#465 = CARTESIAN_POINT('',(0.,-0.));
#466 = VECTOR('',#467,1.);
#467 = DIRECTION('',(0.999999057511,-1.372944560853E-03));
#468 = ( GEOMETRIC_REPRESENTATION_CONTEXT(2) 
PARAMETRIC_REPRESENTATION_CONTEXT() REPRESENTATION_CONTEXT('2D SPACE',''
  ) );
#469 = PCURVE('',#470,#475);
#470 = PLANE('',#471);
#471 = AXIS2_PLACEMENT_3D('',#472,#473,#474);
#472 = CARTESIAN_POINT('',(58.055964587657,-20.62343673628,
    8.334774356494E-03));
#473 = DIRECTION('',(0.999999028857,1.372886938853E-03,
    -2.39723635308E-04));
#474 = DIRECTION('',(-1.372886978302E-03,0.99999905759,
    2.562314353668E-23));
#475 = DEFINITIONAL_REPRESENTATION('',(#476),#480);
#476 = LINE('',#477,#478);
#477 = CARTESIAN_POINT('',(41.224934969871,-9.904467777634E-03));
#478 = VECTOR('',#479,1.);
#479 = DIRECTION('',(-0.999999971139,2.402542902498E-04));
#480 = ( GEOMETRIC_REPRESENTATION_CONTEXT(2) 
PARAMETRIC_REPRESENTATION_CONTEXT() REPRESENTATION_CONTEXT('2D SPACE',''
  ) );
#481 = ORIENTED_EDGE('',*,*,#230,.F.);
#482 = ORIENTED_EDGE('',*,*,#403,.T.);
#483 = ADVANCED_FACE('',(#484),#441,.T.);
#484 = FACE_BOUND('',#485,.T.);
#485 = EDGE_LOOP('',(#486,#509,#510));
#486 = ORIENTED_EDGE('',*,*,#487,.F.);
#487 = EDGE_CURVE('',#404,#488,#490,.T.);
#488 = VERTEX_POINT('',#489);
#489 = CARTESIAN_POINT('',(58.005455420123,20.604594749032,
    25.422213765216));
#490 = SURFACE_CURVE('',#491,(#495,#502),.PCURVE_S1.);
#491 = LINE('',#492,#493);
#492 = CARTESIAN_POINT('',(57.999365036922,20.601459379549,
    -1.569693136548E-03));
#493 = VECTOR('',#494,1.);
#494 = DIRECTION('',(2.395545489779E-04,1.23324263447E-04,0.999999963702
    ));
#495 = PCURVE('',#441,#496);
#496 = DEFINITIONAL_REPRESENTATION('',(#497),#501);
#497 = LINE('',#498,#499);
#498 = CARTESIAN_POINT('',(-25.42378365168,-6.090383211485E-03));
#499 = VECTOR('',#500,1.);
#500 = DIRECTION('',(0.999999971307,2.395545494004E-04));
#501 = ( GEOMETRIC_REPRESENTATION_CONTEXT(2) 
PARAMETRIC_REPRESENTATION_CONTEXT() REPRESENTATION_CONTEXT('2D SPACE',''
  ) );
#502 = PCURVE('',#470,#503);
#503 = DEFINITIONAL_REPRESENTATION('',(#504),#508);
#504 = LINE('',#505,#506);
#505 = CARTESIAN_POINT('',(41.224934969871,-9.904467777634E-03));
#506 = VECTOR('',#507,1.);
#507 = DIRECTION('',(1.229952659042E-04,0.999999992436));
#508 = ( GEOMETRIC_REPRESENTATION_CONTEXT(2) 
PARAMETRIC_REPRESENTATION_CONTEXT() REPRESENTATION_CONTEXT('2D SPACE',''
  ) );
#509 = ORIENTED_EDGE('',*,*,#427,.F.);
#510 = ORIENTED_EDGE('',*,*,#511,.T.);
#511 = EDGE_CURVE('',#57,#488,#512,.T.);
#512 = SURFACE_CURVE('',#513,(#517,#524),.PCURVE_S1.);
#513 = LINE('',#514,#515);
#514 = CARTESIAN_POINT('',(-58.0126490603,20.608344151602,
    -4.825313822877E-02));
#515 = VECTOR('',#516,1.);
#516 = DIRECTION('',(0.976738915395,-3.156565448244E-05,0.214432017566)
  );
#517 = PCURVE('',#441,#518);
#518 = DEFINITIONAL_REPRESENTATION('',(#519),#523);
#519 = LINE('',#520,#521);
#520 = CARTESIAN_POINT('',(-25.47046624726,-116.018104685));
#521 = VECTOR('',#522,1.);
#522 = DIRECTION('',(0.214432012041,0.976738917118));
#523 = ( GEOMETRIC_REPRESENTATION_CONTEXT(2) 
PARAMETRIC_REPRESENTATION_CONTEXT() REPRESENTATION_CONTEXT('2D SPACE',''
  ) );
#524 = PCURVE('',#72,#525);
#525 = DEFINITIONAL_REPRESENTATION('',(#526),#530);
#526 = LINE('',#527,#528);
#527 = CARTESIAN_POINT('',(-25.47046717294,-116.0181044818));
#528 = VECTOR('',#529,1.);
#529 = DIRECTION('',(0.214432019834,0.976738915407));
#530 = ( GEOMETRIC_REPRESENTATION_CONTEXT(2) 
PARAMETRIC_REPRESENTATION_CONTEXT() REPRESENTATION_CONTEXT('2D SPACE',''
  ) );
#531 = ADVANCED_FACE('',(#532),#72,.T.);
#532 = FACE_BOUND('',#533,.T.);
#533 = EDGE_LOOP('',(#534,#535,#536));
#534 = ORIENTED_EDGE('',*,*,#511,.F.);
#535 = ORIENTED_EDGE('',*,*,#56,.T.);
#536 = ORIENTED_EDGE('',*,*,#537,.T.);
#537 = EDGE_CURVE('',#22,#488,#538,.T.);
#538 = SURFACE_CURVE('',#539,(#543,#550),.PCURVE_S1.);
#539 = LINE('',#540,#541);
#540 = CARTESIAN_POINT('',(-58.0111406406,20.605171456205,
    25.401050079366));
#541 = VECTOR('',#542,1.);
#542 = DIRECTION('',(0.999999983349,-4.970902292713E-06,
    1.824194659682E-04));
#543 = PCURVE('',#72,#544);
#544 = DEFINITIONAL_REPRESENTATION('',(#545),#549);
#545 = LINE('',#546,#547);
#546 = CARTESIAN_POINT('',(-2.116375758112E-02,-116.0165960621));
#547 = VECTOR('',#548,1.);
#548 = DIRECTION('',(1.82420084258E-04,0.999999983361));
#549 = ( GEOMETRIC_REPRESENTATION_CONTEXT(2) 
PARAMETRIC_REPRESENTATION_CONTEXT() REPRESENTATION_CONTEXT('2D SPACE',''
  ) );
#550 = PCURVE('',#551,#556);
#551 = PLANE('',#552);
#552 = AXIS2_PLACEMENT_3D('',#553,#554,#555);
#553 = CARTESIAN_POINT('',(53.86405658902,16.494224610483,29.53233202218
    ));
#554 = DIRECTION('',(-1.254672988319E-04,0.707148317303,0.707065231498)
  );
#555 = DIRECTION('',(1.183430643301E-20,-0.707065237063,0.707148322869)
  );
#556 = DEFINITIONAL_REPRESENTATION('',(#557),#561);
#557 = LINE('',#558,#559);
#558 = CARTESIAN_POINT('',(-5.828136703185,-111.8751981102));
#559 = VECTOR('',#560,1.);
#560 = DIRECTION('',(1.325123716261E-04,0.99999999122));
#561 = ( GEOMETRIC_REPRESENTATION_CONTEXT(2) 
PARAMETRIC_REPRESENTATION_CONTEXT() REPRESENTATION_CONTEXT('2D SPACE',''
  ) );
#562 = ADVANCED_FACE('',(#563),#470,.T.);
#563 = FACE_BOUND('',#564,.T.);
#564 = EDGE_LOOP('',(#565,#566,#567));
#565 = ORIENTED_EDGE('',*,*,#456,.F.);
#566 = ORIENTED_EDGE('',*,*,#487,.T.);
#567 = ORIENTED_EDGE('',*,*,#568,.T.);
#568 = EDGE_CURVE('',#488,#231,#569,.T.);
#569 = SURFACE_CURVE('',#570,(#574,#581),.PCURVE_S1.);
#570 = LINE('',#571,#572);
#571 = CARTESIAN_POINT('',(58.005455420123,20.604594749032,
    25.422213765216));
#572 = VECTOR('',#573,1.);
#573 = DIRECTION('',(1.042897275821E-03,-0.851263321554,-0.524737715189)
  );
#574 = PCURVE('',#470,#575);
#575 = DEFINITIONAL_REPRESENTATION('',(#576),#580);
#576 = LINE('',#577,#578);
#577 = CARTESIAN_POINT('',(41.228061974992,25.413879721094));
#578 = VECTOR('',#579,1.);
#579 = DIRECTION('',(-0.851263951096,-0.524737730267));
#580 = ( GEOMETRIC_REPRESENTATION_CONTEXT(2) 
PARAMETRIC_REPRESENTATION_CONTEXT() REPRESENTATION_CONTEXT('2D SPACE',''
  ) );
#581 = PCURVE('',#272,#582);
#582 = DEFINITIONAL_REPRESENTATION('',(#583),#587);
#583 = LINE('',#584,#585);
#584 = CARTESIAN_POINT('',(41.186814331346,-2.971899620353E-03));
#585 = VECTOR('',#586,1.);
#586 = DIRECTION('',(-0.851263955025,-0.524737723892));
#587 = ( GEOMETRIC_REPRESENTATION_CONTEXT(2) 
PARAMETRIC_REPRESENTATION_CONTEXT() REPRESENTATION_CONTEXT('2D SPACE',''
  ) );
#588 = ADVANCED_FACE('',(#589),#272,.T.);
#589 = FACE_BOUND('',#590,.T.);
#590 = EDGE_LOOP('',(#591,#592,#593));
#591 = ORIENTED_EDGE('',*,*,#258,.F.);
#592 = ORIENTED_EDGE('',*,*,#568,.F.);
#593 = ORIENTED_EDGE('',*,*,#594,.T.);
#594 = EDGE_CURVE('',#488,#172,#595,.T.);
#595 = SURFACE_CURVE('',#596,(#600,#607),.PCURVE_S1.);
#596 = LINE('',#597,#598);
#597 = CARTESIAN_POINT('',(58.005455420123,20.604594749032,
    25.422213765216));
#598 = VECTOR('',#599,1.);
#599 = DIRECTION('',(1.337398275947E-03,-0.999999103079,
    7.215657757398E-05));
#600 = PCURVE('',#272,#601);
#601 = DEFINITIONAL_REPRESENTATION('',(#602),#606);
#602 = LINE('',#603,#604);
#603 = CARTESIAN_POINT('',(41.186814331346,-2.971899620353E-03));
#604 = VECTOR('',#605,1.);
#605 = DIRECTION('',(-0.999999997397,7.215657877075E-05));
#606 = ( GEOMETRIC_REPRESENTATION_CONTEXT(2) 
PARAMETRIC_REPRESENTATION_CONTEXT() REPRESENTATION_CONTEXT('2D SPACE',''
  ) );
#607 = PCURVE('',#608,#613);
#608 = PLANE('',#609);
#609 = AXIS2_PLACEMENT_3D('',#610,#611,#612);
#610 = CARTESIAN_POINT('',(53.86405658902,16.494224610483,29.53233202218
    ));
#611 = DIRECTION('',(0.703924282336,9.926789765096E-04,0.71027432681));
#612 = DIRECTION('',(0.710274676767,1.983247045937E-20,-0.703924629164)
  );
#613 = DEFINITIONAL_REPRESENTATION('',(#614),#618);
#614 = LINE('',#615,#616);
#615 = CARTESIAN_POINT('',(5.834744185978,4.110372163753));
#616 = VECTOR('',#617,1.);
#617 = DIRECTION('',(8.991273360459E-04,-0.999999595785));
#618 = ( GEOMETRIC_REPRESENTATION_CONTEXT(2) 
PARAMETRIC_REPRESENTATION_CONTEXT() REPRESENTATION_CONTEXT('2D SPACE',''
  ) );
#619 = ADVANCED_FACE('',(#620),#304,.T.);
#620 = FACE_BOUND('',#621,.T.);
#621 = EDGE_LOOP('',(#622,#650,#651));
#622 = ORIENTED_EDGE('',*,*,#623,.F.);
#623 = EDGE_CURVE('',#289,#624,#626,.T.);
#624 = VERTEX_POINT('',#625);
#625 = CARTESIAN_POINT('',(53.901462530156,-16.44600554094,
    29.536352555024));
#626 = SURFACE_CURVE('',#627,(#631,#638),.PCURVE_S1.);
#627 = LINE('',#628,#629);
#628 = CARTESIAN_POINT('',(-53.85041547679,-16.47758783879,
    29.540190489154));
#629 = VECTOR('',#630,1.);
#630 = DIRECTION('',(0.999999956411,2.931020512542E-04,
    -3.561825587587E-05));
#631 = PCURVE('',#304,#632);
#632 = DEFINITIONAL_REPRESENTATION('',(#633),#637);
#633 = LINE('',#634,#635);
#634 = CARTESIAN_POINT('',(1.948975906055E-02,-107.7518809411));
#635 = VECTOR('',#636,1.);
#636 = DIRECTION('',(-1.808762740057E-04,0.999999983642));
#637 = ( GEOMETRIC_REPRESENTATION_CONTEXT(2) 
PARAMETRIC_REPRESENTATION_CONTEXT() REPRESENTATION_CONTEXT('2D SPACE',''
  ) );
#638 = PCURVE('',#639,#644);
#639 = PLANE('',#640);
#640 = AXIS2_PLACEMENT_3D('',#641,#642,#643);
#641 = CARTESIAN_POINT('',(53.86405658902,16.494224610483,29.53233202218
    ));
#642 = DIRECTION('',(3.558247060891E-05,1.220958016759E-04,
    0.999999991913));
#643 = DIRECTION('',(-3.730163808864E-25,0.999999992546,
    -1.220958017532E-04));
#644 = DEFINITIONAL_REPRESENTATION('',(#645),#649);
#645 = LINE('',#646,#647);
#646 = CARTESIAN_POINT('',(-32.971813163,107.714472134));
#647 = VECTOR('',#648,1.);
#648 = DIRECTION('',(2.93106397909E-04,-0.999999957044));
#649 = ( GEOMETRIC_REPRESENTATION_CONTEXT(2) 
PARAMETRIC_REPRESENTATION_CONTEXT() REPRESENTATION_CONTEXT('2D SPACE',''
  ) );
#650 = ORIENTED_EDGE('',*,*,#288,.F.);
#651 = ORIENTED_EDGE('',*,*,#652,.T.);
#652 = EDGE_CURVE('',#114,#624,#653,.T.);
#653 = SURFACE_CURVE('',#654,(#658,#665),.PCURVE_S1.);
#654 = LINE('',#655,#656);
#655 = CARTESIAN_POINT('',(-58.01135671362,-20.59632251764,
    25.380450443473));
#656 = VECTOR('',#657,1.);
#657 = DIRECTION('',(0.998625669194,3.703430130909E-02,
    3.708413884393E-02));
#658 = PCURVE('',#304,#659);
#659 = DEFINITIONAL_REPRESENTATION('',(#660),#664);
#660 = LINE('',#661,#662);
#661 = CARTESIAN_POINT('',(5.873327103873,-111.9128222912));
#662 = VECTOR('',#663,1.);
#663 = DIRECTION('',(-5.240914534306E-02,0.998625696387));
#664 = ( GEOMETRIC_REPRESENTATION_CONTEXT(2) 
PARAMETRIC_REPRESENTATION_CONTEXT() REPRESENTATION_CONTEXT('2D SPACE',''
  ) );
#665 = PCURVE('',#187,#666);
#666 = DEFINITIONAL_REPRESENTATION('',(#667),#671);
#667 = LINE('',#668,#669);
#668 = CARTESIAN_POINT('',(-5.873347716901,111.91282120943));
#669 = VECTOR('',#670,1.);
#670 = DIRECTION('',(5.240932927819E-02,-0.998625686734));
#671 = ( GEOMETRIC_REPRESENTATION_CONTEXT(2) 
PARAMETRIC_REPRESENTATION_CONTEXT() REPRESENTATION_CONTEXT('2D SPACE',''
  ) );
#672 = ADVANCED_FACE('',(#673),#187,.T.);
#673 = FACE_BOUND('',#674,.T.);
#674 = EDGE_LOOP('',(#675,#676,#677));
#675 = ORIENTED_EDGE('',*,*,#652,.F.);
#676 = ORIENTED_EDGE('',*,*,#171,.T.);
#677 = ORIENTED_EDGE('',*,*,#678,.F.);
#678 = EDGE_CURVE('',#624,#172,#679,.T.);
#679 = SURFACE_CURVE('',#680,(#684,#691),.PCURVE_S1.);
#680 = LINE('',#681,#682);
#681 = CARTESIAN_POINT('',(53.901462530156,-16.44600554094,
    29.536352555024));
#682 = VECTOR('',#683,1.);
#683 = DIRECTION('',(0.5806389227,-0.577442066564,-0.573950434452));
#684 = PCURVE('',#187,#685);
#685 = DEFINITIONAL_REPRESENTATION('',(#686),#690);
#686 = LINE('',#687,#688);
#687 = CARTESIAN_POINT('',(0.,0.));
#688 = VECTOR('',#689,1.);
#689 = DIRECTION('',(-0.814161181586,-0.580638932899));
#690 = ( GEOMETRIC_REPRESENTATION_CONTEXT(2) 
PARAMETRIC_REPRESENTATION_CONTEXT() REPRESENTATION_CONTEXT('2D SPACE',''
  ) );
#691 = PCURVE('',#692,#697);
#692 = PLANE('',#693);
#693 = AXIS2_PLACEMENT_3D('',#694,#695,#696);
#694 = CARTESIAN_POINT('',(53.86405658902,16.494224610483,29.53233202218
    ));
#695 = DIRECTION('',(0.703443775832,8.855606500501E-04,0.710750357035));
#696 = DIRECTION('',(0.710750635727,-4.901524003645E-20,-0.703444051658)
  );
#697 = DEFINITIONAL_REPRESENTATION('',(#698),#702);
#698 = LINE('',#699,#700);
#699 = CARTESIAN_POINT('',(2.375807652826E-02,-32.94024306759));
#700 = VECTOR('',#701,1.);
#701 = DIRECTION('',(0.816431502499,-0.577442292984));
#702 = ( GEOMETRIC_REPRESENTATION_CONTEXT(2) 
PARAMETRIC_REPRESENTATION_CONTEXT() REPRESENTATION_CONTEXT('2D SPACE',''
  ) );
#703 = ADVANCED_FACE('',(#704),#388,.T.);
#704 = FACE_BOUND('',#705,.T.);
#705 = EDGE_LOOP('',(#706,#729,#730));
#706 = ORIENTED_EDGE('',*,*,#707,.F.);
#707 = EDGE_CURVE('',#346,#708,#710,.T.);
#708 = VERTEX_POINT('',#709);
#709 = CARTESIAN_POINT('',(53.86405658902,16.494224610483,29.53233202218
    ));
#710 = SURFACE_CURVE('',#711,(#715,#722),.PCURVE_S1.);
#711 = LINE('',#712,#713);
#712 = CARTESIAN_POINT('',(-53.87986785225,16.444933906119,
    29.529761152463));
#713 = VECTOR('',#714,1.);
#714 = DIRECTION('',(0.999999895071,4.574800801802E-04,
    2.386092264898E-05));
#715 = PCURVE('',#388,#716);
#716 = DEFINITIONAL_REPRESENTATION('',(#717),#721);
#717 = LINE('',#718,#719);
#718 = CARTESIAN_POINT('',(-4.928988753564E-02,107.74392447231));
#719 = VECTOR('',#720,1.);
#720 = DIRECTION('',(4.574724989768E-04,-0.999999895359));
#721 = ( GEOMETRIC_REPRESENTATION_CONTEXT(2) 
PARAMETRIC_REPRESENTATION_CONTEXT() REPRESENTATION_CONTEXT('2D SPACE',''
  ) );
#722 = PCURVE('',#361,#723);
#723 = DEFINITIONAL_REPRESENTATION('',(#724),#728);
#724 = LINE('',#725,#726);
#725 = CARTESIAN_POINT('',(-3.318388471209E-02,107.74393063657));
#726 = VECTOR('',#727,1.);
#727 = DIRECTION('',(3.079884216417E-04,-0.999999952572));
#728 = ( GEOMETRIC_REPRESENTATION_CONTEXT(2) 
PARAMETRIC_REPRESENTATION_CONTEXT() REPRESENTATION_CONTEXT('2D SPACE',''
  ) );
#729 = ORIENTED_EDGE('',*,*,#374,.T.);
#730 = ORIENTED_EDGE('',*,*,#731,.T.);
#731 = EDGE_CURVE('',#289,#708,#732,.T.);
#732 = SURFACE_CURVE('',#733,(#737,#744),.PCURVE_S1.);
#733 = LINE('',#734,#735);
#734 = CARTESIAN_POINT('',(-53.85041547679,-16.47758783879,
    29.540190489154));
#735 = VECTOR('',#736,1.);
#736 = DIRECTION('',(0.956204936132,0.292697993246,-6.976133073445E-05)
  );
#737 = PCURVE('',#388,#738);
#738 = DEFINITIONAL_REPRESENTATION('',(#739),#743);
#739 = LINE('',#740,#741);
#740 = CARTESIAN_POINT('',(-32.97181328437,107.71447209685));
#741 = VECTOR('',#742,1.);
#742 = DIRECTION('',(0.292698000659,-0.956204936407));
#743 = ( GEOMETRIC_REPRESENTATION_CONTEXT(2) 
PARAMETRIC_REPRESENTATION_CONTEXT() REPRESENTATION_CONTEXT('2D SPACE',''
  ) );
#744 = PCURVE('',#639,#745);
#745 = DEFINITIONAL_REPRESENTATION('',(#746),#750);
#746 = LINE('',#747,#748);
#747 = CARTESIAN_POINT('',(-32.971813163,107.714472134));
#748 = VECTOR('',#749,1.);
#749 = DIRECTION('',(0.292697999582,-0.956204936737));
#750 = ( GEOMETRIC_REPRESENTATION_CONTEXT(2) 
PARAMETRIC_REPRESENTATION_CONTEXT() REPRESENTATION_CONTEXT('2D SPACE',''
  ) );
#751 = ADVANCED_FACE('',(#752),#639,.T.);
#752 = FACE_BOUND('',#753,.T.);
#753 = EDGE_LOOP('',(#754,#755,#756));
#754 = ORIENTED_EDGE('',*,*,#731,.F.);
#755 = ORIENTED_EDGE('',*,*,#623,.T.);
#756 = ORIENTED_EDGE('',*,*,#757,.F.);
#757 = EDGE_CURVE('',#708,#624,#758,.T.);
#758 = SURFACE_CURVE('',#759,(#763,#770),.PCURVE_S1.);
#759 = LINE('',#760,#761);
#760 = CARTESIAN_POINT('',(53.86405658902,16.494224610483,29.53233202218
    ));
#761 = VECTOR('',#762,1.);
#762 = DIRECTION('',(1.135569380278E-03,-0.999999347792,
    1.22055316667E-04));
#763 = PCURVE('',#639,#764);
#764 = DEFINITIONAL_REPRESENTATION('',(#765),#769);
#765 = LINE('',#766,#767);
#766 = CARTESIAN_POINT('',(0.,0.));
#767 = VECTOR('',#768,1.);
#768 = DIRECTION('',(-0.999999355241,-1.135569380997E-03));
#769 = ( GEOMETRIC_REPRESENTATION_CONTEXT(2) 
PARAMETRIC_REPRESENTATION_CONTEXT() REPRESENTATION_CONTEXT('2D SPACE',''
  ) );
#770 = PCURVE('',#692,#771);
#771 = DEFINITIONAL_REPRESENTATION('',(#772),#776);
#772 = LINE('',#773,#774);
#773 = CARTESIAN_POINT('',(0.,0.));
#774 = VECTOR('',#775,1.);
#775 = DIRECTION('',(7.21247572462E-04,-0.999999739901));
#776 = ( GEOMETRIC_REPRESENTATION_CONTEXT(2) 
PARAMETRIC_REPRESENTATION_CONTEXT() REPRESENTATION_CONTEXT('2D SPACE',''
  ) );
#777 = ADVANCED_FACE('',(#778),#361,.T.);
#778 = FACE_BOUND('',#779,.T.);
#779 = EDGE_LOOP('',(#780,#801,#802));
#780 = ORIENTED_EDGE('',*,*,#781,.F.);
#781 = EDGE_CURVE('',#22,#708,#782,.T.);
#782 = SURFACE_CURVE('',#783,(#787,#794),.PCURVE_S1.);
#783 = LINE('',#784,#785);
#784 = CARTESIAN_POINT('',(-58.0111406406,20.605171456205,
    25.401050079366));
#785 = VECTOR('',#786,1.);
#786 = DIRECTION('',(0.998645804151,-3.669606776328E-02,
    3.687758752718E-02));
#787 = PCURVE('',#361,#788);
#788 = DEFINITIONAL_REPRESENTATION('',(#789),#793);
#789 = LINE('',#790,#791);
#790 = CARTESIAN_POINT('',(5.828030122257,111.87520366248));
#791 = VECTOR('',#792,1.);
#792 = DIRECTION('',(-5.202348663675E-02,-0.998645861574));
#793 = ( GEOMETRIC_REPRESENTATION_CONTEXT(2) 
PARAMETRIC_REPRESENTATION_CONTEXT() REPRESENTATION_CONTEXT('2D SPACE',''
  ) );
#794 = PCURVE('',#551,#795);
#795 = DEFINITIONAL_REPRESENTATION('',(#796),#800);
#796 = LINE('',#797,#798);
#797 = CARTESIAN_POINT('',(-5.828136703185,-111.8751981102));
#798 = VECTOR('',#799,1.);
#799 = DIRECTION('',(5.202443802364E-02,0.998645812012));
#800 = ( GEOMETRIC_REPRESENTATION_CONTEXT(2) 
PARAMETRIC_REPRESENTATION_CONTEXT() REPRESENTATION_CONTEXT('2D SPACE',''
  ) );
#801 = ORIENTED_EDGE('',*,*,#345,.T.);
#802 = ORIENTED_EDGE('',*,*,#707,.T.);
#803 = ADVANCED_FACE('',(#804),#551,.T.);
#804 = FACE_BOUND('',#805,.T.);
#805 = EDGE_LOOP('',(#806,#827,#828));
#806 = ORIENTED_EDGE('',*,*,#807,.T.);
#807 = EDGE_CURVE('',#708,#488,#808,.T.);
#808 = SURFACE_CURVE('',#809,(#813,#820),.PCURVE_S1.);
#809 = LINE('',#810,#811);
#810 = CARTESIAN_POINT('',(53.86405658902,16.494224610483,29.53233202218
    ));
#811 = VECTOR('',#812,1.);
#812 = DIRECTION('',(0.580256678985,0.575909209247,-0.575873917796));
#813 = PCURVE('',#551,#814);
#814 = DEFINITIONAL_REPRESENTATION('',(#815),#819);
#815 = LINE('',#816,#817);
#816 = CARTESIAN_POINT('',(0.,0.));
#817 = VECTOR('',#818,1.);
#818 = DIRECTION('',(-0.814433656716,0.580256683553));
#819 = ( GEOMETRIC_REPRESENTATION_CONTEXT(2) 
PARAMETRIC_REPRESENTATION_CONTEXT() REPRESENTATION_CONTEXT('2D SPACE',''
  ) );
#820 = PCURVE('',#608,#821);
#821 = DEFINITIONAL_REPRESENTATION('',(#822),#826);
#822 = LINE('',#823,#824);
#823 = CARTESIAN_POINT('',(0.,0.));
#824 = VECTOR('',#825,1.);
#825 = DIRECTION('',(0.817513459138,0.575909493001));
#826 = ( GEOMETRIC_REPRESENTATION_CONTEXT(2) 
PARAMETRIC_REPRESENTATION_CONTEXT() REPRESENTATION_CONTEXT('2D SPACE',''
  ) );
#827 = ORIENTED_EDGE('',*,*,#537,.F.);
#828 = ORIENTED_EDGE('',*,*,#781,.T.);
#829 = ADVANCED_FACE('',(#830),#692,.T.);
#830 = FACE_BOUND('',#831,.T.);
#831 = EDGE_LOOP('',(#832,#833,#834));
#832 = ORIENTED_EDGE('',*,*,#757,.T.);
#833 = ORIENTED_EDGE('',*,*,#678,.T.);
#834 = ORIENTED_EDGE('',*,*,#835,.F.);
#835 = EDGE_CURVE('',#708,#172,#836,.T.);
#836 = SURFACE_CURVE('',#837,(#841,#848),.PCURVE_S1.);
#837 = LINE('',#838,#839);
#838 = CARTESIAN_POINT('',(53.86405658902,16.494224610483,29.53233202218
    ));
#839 = VECTOR('',#840,1.);
#840 = DIRECTION('',(0.111791409826,-0.987690128127,-0.109411569269));
#841 = PCURVE('',#692,#842);
#842 = DEFINITIONAL_REPRESENTATION('',(#843),#847);
#843 = LINE('',#844,#845);
#844 = CARTESIAN_POINT('',(0.,0.));
#845 = VECTOR('',#846,1.);
#846 = DIRECTION('',(0.156420733188,-0.987690515409));
#847 = ( GEOMETRIC_REPRESENTATION_CONTEXT(2) 
PARAMETRIC_REPRESENTATION_CONTEXT() REPRESENTATION_CONTEXT('2D SPACE',''
  ) );
#848 = PCURVE('',#608,#849);
#849 = DEFINITIONAL_REPRESENTATION('',(#850),#854);
#850 = LINE('',#851,#852);
#851 = CARTESIAN_POINT('',(0.,0.));
#852 = VECTOR('',#853,1.);
#853 = DIRECTION('',(0.156420105803,-0.987690614768));
#854 = ( GEOMETRIC_REPRESENTATION_CONTEXT(2) 
PARAMETRIC_REPRESENTATION_CONTEXT() REPRESENTATION_CONTEXT('2D SPACE',''
  ) );
#855 = ADVANCED_FACE('',(#856),#608,.T.);
#856 = FACE_BOUND('',#857,.T.);
#857 = EDGE_LOOP('',(#858,#859,#860));
#858 = ORIENTED_EDGE('',*,*,#835,.T.);
#859 = ORIENTED_EDGE('',*,*,#594,.F.);
#860 = ORIENTED_EDGE('',*,*,#807,.F.);
#861 = ( GEOMETRIC_REPRESENTATION_CONTEXT(3) 
GLOBAL_UNCERTAINTY_ASSIGNED_CONTEXT((#865)) GLOBAL_UNIT_ASSIGNED_CONTEXT
((#862,#863,#864)) REPRESENTATION_CONTEXT('Context #1',
  '3D Context with UNIT and UNCERTAINTY') );
#862 = ( LENGTH_UNIT() NAMED_UNIT(*) SI_UNIT(.MILLI.,.METRE.) );
#863 = ( NAMED_UNIT(*) PLANE_ANGLE_UNIT() SI_UNIT($,.RADIAN.) );
#864 = ( NAMED_UNIT(*) SI_UNIT($,.STERADIAN.) SOLID_ANGLE_UNIT() );
#865 = UNCERTAINTY_MEASURE_WITH_UNIT(LENGTH_MEASURE(1.E-07),#862,
  'distance_accuracy_value','confusion accuracy');
#866 = PRODUCT_TYPE('part',$,(#7));
ENDSEC;
END-ISO-10303-21;
