ISO-10303-21;
HEADER;
FILE_DESCRIPTION(('Open CASCADE Model'),'2;1');
FILE_NAME('Open CASCADE Shape Model','2026-10-04T20:44:43',('Author'),(
    'Open CASCADE'),'Open CASCADE STEP processor 7.8','Open CASCADE 7.8'
  ,'Unknown');
FILE_SCHEMA(('AUTOMOTIVE_DESIGN_CC2 { 1 2 10303 214 -1 1 5 4 }'));
ENDSEC;
DATA;
#1 = APPLICATION_PROTOCOL_DEFINITION('committee draft',
  'automotive_design',1997,#2);
#2 = APPLICATION_CONTEXT(
  'core data for automotive mechanical design processes');
#3 = SHAPE_DEFINITION_REPRESENTATION(#4,#10);
#4 = PRODUCT_DEFINITION_SHAPE('','',#5);
#5 = PRODUCT_DEFINITION('design','',#6,#9);
#6 = PRODUCT_DEFINITION_FORMATION('','',#7);
#7 = PRODUCT('Open CASCADE STEP translator 7.8 116',
  'Open CASCADE STEP translator 7.8 116','',(#8));
#8 = MECHANICAL_CONTEXT('',#2,'mechanical');
#9 = PRODUCT_DEFINITION_CONTEXT('part definition',#2,'design');
#10 = ADVANCED_BREP_SHAPE_REPRESENTATION('',(#11,#15),#861);
#11 = AXIS2_PLACEMENT_3D('',#12,#13,#14);
#12 = CARTESIAN_POINT('',(0.,0.,0.));
#13 = DIRECTION('',(0.,0.,1.));
#14 = DIRECTION('',(1.,0.,-0.));
#15 = MANIFOLD_SOLID_BREP('',#16);
#16 = CLOSED_SHELL('',(#17,#109,#167,#220,#278,#336,#389,#420,#473,#504,
    #557,#583,#614,#645,#698,#746,#777,#803,#829,#855));
#17 = ADVANCED_FACE('',(#18),#32,.F.);
#18 = FACE_BOUND('',#19,.F.);
#19 = EDGE_LOOP('',(#20,#55,#83));
#20 = ORIENTED_EDGE('',*,*,#21,.F.);
#21 = EDGE_CURVE('',#22,#24,#26,.T.);
#22 = VERTEX_POINT('',#23);
#23 = CARTESIAN_POINT('',(-44.54105202111,49.495422723707,
    30.565623140004));
#24 = VERTEX_POINT('',#25);
#25 = CARTESIAN_POINT('',(-44.5099702631,49.453793530964,
    6.274926355886E-03));
#26 = SURFACE_CURVE('',#27,(#31,#43),.PCURVE_S1.);
#27 = LINE('',#28,#29);
#28 = CARTESIAN_POINT('',(-44.54105202111,49.495422723707,
    30.565623140004));
#29 = VECTOR('',#30,1.);
#30 = DIRECTION('',(1.017093456257E-03,-1.362238889877E-03,
    -0.999998554912));
#31 = PCURVE('',#32,#37);
#32 = PLANE('',#33);
#33 = AXIS2_PLACEMENT_3D('',#34,#35,#36);
#34 = CARTESIAN_POINT('',(-44.5099702631,49.453793530964,
    6.274926355886E-03));
#35 = DIRECTION('',(0.999999463167,1.993416610697E-04,1.016822828683E-03
    ));
#36 = DIRECTION('',(-1.016822848886E-03,3.407711744913E-24,
    0.999999483036));
#37 = DEFINITIONAL_REPRESENTATION('',(#38),#42);
#38 = LINE('',#39,#40);
#39 = CARTESIAN_POINT('',(30.559364020192,-4.162919357087E-02));
#40 = VECTOR('',#41,1.);
#41 = DIRECTION('',(-0.999999072152,1.362238916942E-03));
#42 = ( GEOMETRIC_REPRESENTATION_CONTEXT(2) 
PARAMETRIC_REPRESENTATION_CONTEXT() REPRESENTATION_CONTEXT('2D SPACE',''
  ) );
#43 = PCURVE('',#44,#49);
#44 = PLANE('',#45);
#45 = AXIS2_PLACEMENT_3D('',#46,#47,#48);
#46 = CARTESIAN_POINT('',(44.522050964874,49.433964277853,
    2.634209726341E-03));
#47 = DIRECTION('',(2.226645565244E-04,0.99999904767,-1.362013090141E-03
    ));
#48 = DIRECTION('',(2.185371106098E-23,1.362013123905E-03,0.99999907246)
  );
#49 = DEFINITIONAL_REPRESENTATION('',(#50),#54);
#50 = LINE('',#51,#52);
#51 = CARTESIAN_POINT('',(30.563044289084,-89.06310519384));
#52 = VECTOR('',#53,1.);
#53 = DIRECTION('',(-0.99999948276,1.017093481471E-03));
#54 = ( GEOMETRIC_REPRESENTATION_CONTEXT(2) 
PARAMETRIC_REPRESENTATION_CONTEXT() REPRESENTATION_CONTEXT('2D SPACE',''
  ) );
#55 = ORIENTED_EDGE('',*,*,#56,.T.);
#56 = EDGE_CURVE('',#22,#57,#59,.T.);
#57 = VERTEX_POINT('',#58);
#58 = CARTESIAN_POINT('',(-44.49024344789,-49.48727776944,
    2.609467067609E-03));
#59 = SURFACE_CURVE('',#60,(#64,#71),.PCURVE_S1.);
#60 = LINE('',#61,#62);
#61 = CARTESIAN_POINT('',(-44.54105202111,49.495422723707,
    30.565623140004));
#62 = VECTOR('',#63,1.);
#63 = DIRECTION('',(4.904595956637E-04,-0.955488654373,-0.29502744078));
#64 = PCURVE('',#32,#65);
#65 = DEFINITIONAL_REPRESENTATION('',(#66),#70);
#66 = LINE('',#67,#68);
#67 = CARTESIAN_POINT('',(30.559364020192,-4.162919357087E-02));
#68 = VECTOR('',#69,1.);
#69 = DIRECTION('',(-0.295027786971,0.955488673358));
#70 = ( GEOMETRIC_REPRESENTATION_CONTEXT(2) 
PARAMETRIC_REPRESENTATION_CONTEXT() REPRESENTATION_CONTEXT('2D SPACE',''
  ) );
#71 = PCURVE('',#72,#77);
#72 = PLANE('',#73);
#73 = AXIS2_PLACEMENT_3D('',#74,#75,#76);
#74 = CARTESIAN_POINT('',(-44.49024344789,-49.48727776944,
    2.609467067609E-03));
#75 = DIRECTION('',(0.999997056861,-2.323793701068E-04,
    2.415009268078E-03));
#76 = DIRECTION('',(-2.415009333284E-03,1.832701938554E-23,
    0.999997083861));
#77 = DEFINITIONAL_REPRESENTATION('',(#78),#82);
#78 = LINE('',#79,#80);
#79 = CARTESIAN_POINT('',(30.56304725011,-98.98270316569));
#80 = VECTOR('',#81,1.);
#81 = DIRECTION('',(-0.295027764903,0.955488680172));
#82 = ( GEOMETRIC_REPRESENTATION_CONTEXT(2) 
PARAMETRIC_REPRESENTATION_CONTEXT() REPRESENTATION_CONTEXT('2D SPACE',''
  ) );
#83 = ORIENTED_EDGE('',*,*,#84,.F.);
#84 = EDGE_CURVE('',#24,#57,#85,.T.);
#85 = SURFACE_CURVE('',#86,(#90,#97),.PCURVE_S1.);
#86 = LINE('',#87,#88);
#87 = CARTESIAN_POINT('',(-44.5099702631,49.453793530964,
    6.274926355886E-03));
#88 = VECTOR('',#89,1.);
#89 = DIRECTION('',(1.993794341301E-04,-0.999999979438,
    -3.704689230398E-05));
#90 = PCURVE('',#32,#91);
#91 = DEFINITIONAL_REPRESENTATION('',(#92),#96);
#92 = LINE('',#93,#94);
#93 = CARTESIAN_POINT('',(0.,0.));
#94 = VECTOR('',#95,1.);
#95 = DIRECTION('',(-3.724960671627E-05,0.999999999306));
#96 = ( GEOMETRIC_REPRESENTATION_CONTEXT(2) 
PARAMETRIC_REPRESENTATION_CONTEXT() REPRESENTATION_CONTEXT('2D SPACE',''
  ) );
#97 = PCURVE('',#98,#103);
#98 = PLANE('',#99);
#99 = AXIS2_PLACEMENT_3D('',#100,#101,#102);
#100 = CARTESIAN_POINT('',(-44.5099702631,49.453793530964,
    6.274926355886E-03));
#101 = DIRECTION('',(1.189061568902E-04,3.707060022116E-05,
    -0.999999992244));
#102 = DIRECTION('',(-0.999999992931,4.289574061785E-25,
    -1.189061569719E-04));
#103 = DEFINITIONAL_REPRESENTATION('',(#104),#108);
#104 = LINE('',#105,#106);
#105 = CARTESIAN_POINT('',(0.,0.));
#106 = VECTOR('',#107,1.);
#107 = DIRECTION('',(-1.99375027617E-04,-0.999999980125));
#108 = ( GEOMETRIC_REPRESENTATION_CONTEXT(2) 
PARAMETRIC_REPRESENTATION_CONTEXT() REPRESENTATION_CONTEXT('2D SPACE',''
  ) );
#109 = ADVANCED_FACE('',(#110),#72,.F.);
#110 = FACE_BOUND('',#111,.F.);
#111 = EDGE_LOOP('',(#112,#113,#141));
#112 = ORIENTED_EDGE('',*,*,#56,.F.);
#113 = ORIENTED_EDGE('',*,*,#114,.F.);
#114 = EDGE_CURVE('',#115,#22,#117,.T.);
#115 = VERTEX_POINT('',#116);
#116 = CARTESIAN_POINT('',(-44.56402292111,-49.50139576812,
    30.551550342563));
#117 = SURFACE_CURVE('',#118,(#122,#129),.PCURVE_S1.);
#118 = LINE('',#119,#120);
#119 = CARTESIAN_POINT('',(-44.56402292111,-49.50139576812,
    30.551550342563));
#120 = VECTOR('',#121,1.);
#121 = DIRECTION('',(2.320367411143E-04,0.999999962976,
    1.421540321692E-04));
#122 = PCURVE('',#72,#123);
#123 = DEFINITIONAL_REPRESENTATION('',(#124),#128);
#124 = LINE('',#125,#126);
#125 = CARTESIAN_POINT('',(30.549029968645,1.411799905661E-02));
#126 = VECTOR('',#127,1.);
#127 = DIRECTION('',(1.415932467328E-04,-0.999999989976));
#128 = ( GEOMETRIC_REPRESENTATION_CONTEXT(2) 
PARAMETRIC_REPRESENTATION_CONTEXT() REPRESENTATION_CONTEXT('2D SPACE',''
  ) );
#129 = PCURVE('',#130,#135);
#130 = PLANE('',#131);
#131 = AXIS2_PLACEMENT_3D('',#132,#133,#134);
#132 = CARTESIAN_POINT('',(-36.87707921325,41.894197507752,
    38.209541598858));
#133 = DIRECTION('',(-0.706148393955,6.319824049099E-05,0.708063868391)
  );
#134 = DIRECTION('',(0.708063869805,4.544235003892E-22,0.706148395365));
#135 = DEFINITIONAL_REPRESENTATION('',(#136),#140);
#136 = LINE('',#137,#138);
#137 = CARTESIAN_POINT('',(-10.85052534611,-91.39559345839));
#138 = VECTOR('',#139,1.);
#139 = DIRECTION('',(2.646786745614E-04,0.999999964973));
#140 = ( GEOMETRIC_REPRESENTATION_CONTEXT(2) 
PARAMETRIC_REPRESENTATION_CONTEXT() REPRESENTATION_CONTEXT('2D SPACE',''
  ) );
#141 = ORIENTED_EDGE('',*,*,#142,.T.);
#142 = EDGE_CURVE('',#115,#57,#143,.T.);
#143 = SURFACE_CURVE('',#144,(#148,#155),.PCURVE_S1.);
#144 = LINE('',#145,#146);
#145 = CARTESIAN_POINT('',(-44.56402292111,-49.50139576812,
    30.551550342563));
#146 = VECTOR('',#147,1.);
#147 = DIRECTION('',(2.415116467403E-03,4.62142240925E-04,
    -0.999996976814));
#148 = PCURVE('',#72,#149);
#149 = DEFINITIONAL_REPRESENTATION('',(#150),#154);
#150 = LINE('',#151,#152);
#151 = CARTESIAN_POINT('',(30.549029968645,1.411799905661E-02));
#152 = VECTOR('',#153,1.);
#153 = DIRECTION('',(-0.999999893212,-4.621422534029E-04));
#154 = ( GEOMETRIC_REPRESENTATION_CONTEXT(2) 
PARAMETRIC_REPRESENTATION_CONTEXT() REPRESENTATION_CONTEXT('2D SPACE',''
  ) );
#155 = PCURVE('',#156,#161);
#156 = PLANE('',#157);
#157 = AXIS2_PLACEMENT_3D('',#158,#159,#160);
#158 = CARTESIAN_POINT('',(44.504992239262,-49.48061394763,
    1.319179563866E-02));
#159 = DIRECTION('',(7.493333401627E-05,-0.999999890488,
    -4.619626141848E-04));
#160 = DIRECTION('',(3.533454028253E-24,4.619626154817E-04,
    -0.999999893295));
#161 = DEFINITIONAL_REPRESENTATION('',(#162),#166);
#162 = LINE('',#163,#164);
#163 = CARTESIAN_POINT('',(-30.53836488876,-89.06901541043));
#164 = VECTOR('',#165,1.);
#165 = DIRECTION('',(0.999997083602,2.415116474183E-03));
#166 = ( GEOMETRIC_REPRESENTATION_CONTEXT(2) 
PARAMETRIC_REPRESENTATION_CONTEXT() REPRESENTATION_CONTEXT('2D SPACE',''
  ) );
#167 = ADVANCED_FACE('',(#168),#156,.T.);
#168 = FACE_BOUND('',#169,.T.);
#169 = EDGE_LOOP('',(#170,#198,#199));
#170 = ORIENTED_EDGE('',*,*,#171,.F.);
#171 = EDGE_CURVE('',#115,#172,#174,.T.);
#172 = VERTEX_POINT('',#173);
#173 = CARTESIAN_POINT('',(44.504992239262,-49.48061394763,
    1.319179563866E-02));
#174 = SURFACE_CURVE('',#175,(#179,#186),.PCURVE_S1.);
#175 = LINE('',#176,#177);
#176 = CARTESIAN_POINT('',(-44.56402292111,-49.50139576812,
    30.551550342563));
#177 = VECTOR('',#178,1.);
#178 = DIRECTION('',(0.945944585411,2.207103169257E-04,-0.324328217425)
  );
#179 = PCURVE('',#156,#180);
#180 = DEFINITIONAL_REPRESENTATION('',(#181),#185);
#181 = LINE('',#182,#183);
#182 = CARTESIAN_POINT('',(-30.53836488876,-89.06901541043));
#183 = VECTOR('',#184,1.);
#184 = DIRECTION('',(0.324328284778,0.945944588067));
#185 = ( GEOMETRIC_REPRESENTATION_CONTEXT(2) 
PARAMETRIC_REPRESENTATION_CONTEXT() REPRESENTATION_CONTEXT('2D SPACE',''
  ) );
#186 = PCURVE('',#187,#192);
#187 = PLANE('',#188);
#188 = AXIS2_PLACEMENT_3D('',#189,#190,#191);
#189 = CARTESIAN_POINT('',(44.499635022016,-49.45733824691,
    30.537294237947));
#190 = DIRECTION('',(4.947963741391E-04,-0.999999586792,
    7.626216652835E-04));
#191 = DIRECTION('',(-6.133633176451E-23,-7.626217586374E-04,
    -0.999999709204));
#192 = DEFINITIONAL_REPRESENTATION('',(#193),#197);
#193 = LINE('',#194,#195);
#194 = CARTESIAN_POINT('',(-1.422250124609E-02,-89.06366884556));
#195 = VECTOR('',#196,1.);
#196 = DIRECTION('',(0.324327954794,0.945944701206));
#197 = ( GEOMETRIC_REPRESENTATION_CONTEXT(2) 
PARAMETRIC_REPRESENTATION_CONTEXT() REPRESENTATION_CONTEXT('2D SPACE',''
  ) );
#198 = ORIENTED_EDGE('',*,*,#142,.T.);
#199 = ORIENTED_EDGE('',*,*,#200,.T.);
#200 = EDGE_CURVE('',#57,#172,#201,.T.);
#201 = SURFACE_CURVE('',#202,(#206,#213),.PCURVE_S1.);
#202 = LINE('',#203,#204);
#203 = CARTESIAN_POINT('',(-44.49024344789,-49.48727776944,
    2.609467067609E-03));
#204 = VECTOR('',#205,1.);
#205 = DIRECTION('',(0.999999990127,7.487840999528E-05,
    1.189089324262E-04));
#206 = PCURVE('',#156,#207);
#207 = DEFINITIONAL_REPRESENTATION('',(#208),#212);
#208 = LINE('',#209,#210);
#209 = CARTESIAN_POINT('',(1.057924900532E-02,-88.99523593701));
#210 = VECTOR('',#211,1.);
#211 = DIRECTION('',(-1.188743287119E-04,0.999999992934));
#212 = ( GEOMETRIC_REPRESENTATION_CONTEXT(2) 
PARAMETRIC_REPRESENTATION_CONTEXT() REPRESENTATION_CONTEXT('2D SPACE',''
  ) );
#213 = PCURVE('',#98,#214);
#214 = DEFINITIONAL_REPRESENTATION('',(#215),#219);
#215 = LINE('',#216,#217);
#216 = CARTESIAN_POINT('',(-1.97263792286E-02,-98.94107136839));
#217 = VECTOR('',#218,1.);
#218 = DIRECTION('',(-0.999999997197,7.487841004673E-05));
#219 = ( GEOMETRIC_REPRESENTATION_CONTEXT(2) 
PARAMETRIC_REPRESENTATION_CONTEXT() REPRESENTATION_CONTEXT('2D SPACE',''
  ) );
#220 = ADVANCED_FACE('',(#221),#187,.T.);
#221 = FACE_BOUND('',#222,.T.);
#222 = EDGE_LOOP('',(#223,#251,#252));
#223 = ORIENTED_EDGE('',*,*,#224,.F.);
#224 = EDGE_CURVE('',#115,#225,#227,.T.);
#225 = VERTEX_POINT('',#226);
#226 = CARTESIAN_POINT('',(44.499635022016,-49.45733824691,
    30.537294237947));
#227 = SURFACE_CURVE('',#228,(#232,#239),.PCURVE_S1.);
#228 = LINE('',#229,#230);
#229 = CARTESIAN_POINT('',(-44.56402292111,-49.50139576812,
    30.551550342563));
#230 = VECTOR('',#231,1.);
#231 = DIRECTION('',(0.999999864838,4.946744415295E-04,
    -1.600664403233E-04));
#232 = PCURVE('',#187,#233);
#233 = DEFINITIONAL_REPRESENTATION('',(#234),#238);
#234 = LINE('',#235,#236);
#235 = CARTESIAN_POINT('',(-1.422250124609E-02,-89.06366884556));
#236 = VECTOR('',#237,1.);
#237 = DIRECTION('',(1.596891442841E-04,0.99999998725));
#238 = ( GEOMETRIC_REPRESENTATION_CONTEXT(2) 
PARAMETRIC_REPRESENTATION_CONTEXT() REPRESENTATION_CONTEXT('2D SPACE',''
  ) );
#239 = PCURVE('',#240,#245);
#240 = PLANE('',#241);
#241 = AXIS2_PLACEMENT_3D('',#242,#243,#244);
#242 = CARTESIAN_POINT('',(44.499635022016,-49.45733824691,
    30.537294237947));
#243 = DIRECTION('',(4.624054267072E-04,-0.705416194925,0.708793184307)
  );
#244 = DIRECTION('',(5.642289264383E-20,0.708793260083,0.70541627034));
#245 = DEFINITIONAL_REPRESENTATION('',(#246),#250);
#246 = LINE('',#247,#248);
#247 = CARTESIAN_POINT('',(-2.117118594074E-02,89.063667464872));
#248 = VECTOR('',#249,1.);
#249 = DIRECTION('',(2.37708438752E-04,-0.999999971747));
#250 = ( GEOMETRIC_REPRESENTATION_CONTEXT(2) 
PARAMETRIC_REPRESENTATION_CONTEXT() REPRESENTATION_CONTEXT('2D SPACE',''
  ) );
#251 = ORIENTED_EDGE('',*,*,#171,.T.);
#252 = ORIENTED_EDGE('',*,*,#253,.F.);
#253 = EDGE_CURVE('',#225,#172,#254,.T.);
#254 = SURFACE_CURVE('',#255,(#259,#266),.PCURVE_S1.);
#255 = LINE('',#256,#257);
#256 = CARTESIAN_POINT('',(44.499635022016,-49.45733824691,
    30.537294237947));
#257 = VECTOR('',#258,1.);
#258 = DIRECTION('',(1.755077193892E-04,-7.625349063233E-04,
    -0.999999693869));
#259 = PCURVE('',#187,#260);
#260 = DEFINITIONAL_REPRESENTATION('',(#261),#265);
#261 = LINE('',#262,#263);
#262 = CARTESIAN_POINT('',(-0.,0.));
#263 = VECTOR('',#264,1.);
#264 = DIRECTION('',(0.999999984599,1.755077408734E-04));
#265 = ( GEOMETRIC_REPRESENTATION_CONTEXT(2) 
PARAMETRIC_REPRESENTATION_CONTEXT() REPRESENTATION_CONTEXT('2D SPACE',''
  ) );
#266 = PCURVE('',#267,#272);
#267 = PLANE('',#268);
#268 = AXIS2_PLACEMENT_3D('',#269,#270,#271);
#269 = CARTESIAN_POINT('',(44.499635022016,-49.45733824691,
    30.537294237947));
#270 = DIRECTION('',(0.999999982646,6.262413289364E-05,1.7546001697E-04)
  );
#271 = DIRECTION('',(-1.75460017314E-04,1.138523971578E-24,
    0.999999984607));
#272 = DEFINITIONAL_REPRESENTATION('',(#273),#277);
#273 = LINE('',#274,#275);
#274 = CARTESIAN_POINT('',(0.,0.));
#275 = VECTOR('',#276,1.);
#276 = DIRECTION('',(-0.99999970927,7.625349078185E-04));
#277 = ( GEOMETRIC_REPRESENTATION_CONTEXT(2) 
PARAMETRIC_REPRESENTATION_CONTEXT() REPRESENTATION_CONTEXT('2D SPACE',''
  ) );
#278 = ADVANCED_FACE('',(#279),#130,.T.);
#279 = FACE_BOUND('',#280,.T.);
#280 = EDGE_LOOP('',(#281,#309,#310));
#281 = ORIENTED_EDGE('',*,*,#282,.F.);
#282 = EDGE_CURVE('',#22,#283,#285,.T.);
#283 = VERTEX_POINT('',#284);
#284 = CARTESIAN_POINT('',(-36.87707921325,41.894197507752,
    38.209541598858));
#285 = SURFACE_CURVE('',#286,(#290,#297),.PCURVE_S1.);
#286 = LINE('',#287,#288);
#287 = CARTESIAN_POINT('',(-44.54105202111,49.495422723707,
    30.565623140004));
#288 = VECTOR('',#289,1.);
#289 = DIRECTION('',(0.579433622968,-0.574689599806,0.577917416635));
#290 = PCURVE('',#130,#291);
#291 = DEFINITIONAL_REPRESENTATION('',(#292),#296);
#292 = LINE('',#293,#294);
#293 = CARTESIAN_POINT('',(-10.82432299844,7.601225231135));
#294 = VECTOR('',#295,1.);
#295 = DIRECTION('',(0.818371469784,-0.574689600953));
#296 = ( GEOMETRIC_REPRESENTATION_CONTEXT(2) 
PARAMETRIC_REPRESENTATION_CONTEXT() REPRESENTATION_CONTEXT('2D SPACE',''
  ) );
#297 = PCURVE('',#298,#303);
#298 = PLANE('',#299);
#299 = AXIS2_PLACEMENT_3D('',#300,#301,#302);
#300 = CARTESIAN_POINT('',(36.890306975386,41.855381236668,
    38.163225940615));
#301 = DIRECTION('',(8.157951330475E-04,0.709492823044,0.704712188434));
#302 = DIRECTION('',(-1.67806203082E-20,-0.704712422934,0.709493059136)
  );
#303 = DEFINITIONAL_REPRESENTATION('',(#304),#308);
#304 = LINE('',#305,#306);
#305 = CARTESIAN_POINT('',(-10.77447860075,-81.43138609368));
#306 = VECTOR('',#307,1.);
#307 = DIRECTION('',(0.81501929617,0.57943381578));
#308 = ( GEOMETRIC_REPRESENTATION_CONTEXT(2) 
PARAMETRIC_REPRESENTATION_CONTEXT() REPRESENTATION_CONTEXT('2D SPACE',''
  ) );
#309 = ORIENTED_EDGE('',*,*,#114,.F.);
#310 = ORIENTED_EDGE('',*,*,#311,.T.);
#311 = EDGE_CURVE('',#115,#283,#312,.T.);
#312 = SURFACE_CURVE('',#313,(#317,#324),.PCURVE_S1.);
#313 = LINE('',#314,#315);
#314 = CARTESIAN_POINT('',(-44.56402292111,-49.50139576812,
    30.551550342563));
#315 = VECTOR('',#316,1.);
#316 = DIRECTION('',(8.35197567011E-02,0.993026357946,8.320518412161E-02
    ));
#317 = PCURVE('',#130,#318);
#318 = DEFINITIONAL_REPRESENTATION('',(#319),#323);
#319 = LINE('',#320,#321);
#320 = CARTESIAN_POINT('',(-10.85052534611,-91.39559345839));
#321 = VECTOR('',#322,1.);
#322 = DIRECTION('',(0.117892529388,0.993026359929));
#323 = ( GEOMETRIC_REPRESENTATION_CONTEXT(2) 
PARAMETRIC_REPRESENTATION_CONTEXT() REPRESENTATION_CONTEXT('2D SPACE',''
  ) );
#324 = PCURVE('',#325,#330);
#325 = PLANE('',#326);
#326 = AXIS2_PLACEMENT_3D('',#327,#328,#329);
#327 = CARTESIAN_POINT('',(-36.87707921325,41.894197507752,
    38.209541598858));
#328 = DIRECTION('',(-0.705607959506,-2.73816749154E-05,0.708602432068)
  );
#329 = DIRECTION('',(0.708602432333,-1.452256272284E-21,0.70560795977));
#330 = DEFINITIONAL_REPRESENTATION('',(#331),#335);
#331 = LINE('',#332,#333);
#332 = CARTESIAN_POINT('',(-10.85052659489,-91.39559331013));
#333 = VECTOR('',#334,1.);
#334 = DIRECTION('',(0.117892542957,0.993026358318));
#335 = ( GEOMETRIC_REPRESENTATION_CONTEXT(2) 
PARAMETRIC_REPRESENTATION_CONTEXT() REPRESENTATION_CONTEXT('2D SPACE',''
  ) );
#336 = ADVANCED_FACE('',(#337),#325,.T.);
#337 = FACE_BOUND('',#338,.T.);
#338 = EDGE_LOOP('',(#339,#340,#363));
#339 = ORIENTED_EDGE('',*,*,#311,.F.);
#340 = ORIENTED_EDGE('',*,*,#341,.T.);
#341 = EDGE_CURVE('',#115,#342,#344,.T.);
#342 = VERTEX_POINT('',#343);
#343 = CARTESIAN_POINT('',(-36.90693142704,-41.83484396654,
    38.176580096046));
#344 = SURFACE_CURVE('',#345,(#349,#356),.PCURVE_S1.);
#345 = LINE('',#346,#347);
#346 = CARTESIAN_POINT('',(-44.56402292111,-49.50139576812,
    30.551550342563));
#347 = VECTOR('',#348,1.);
#348 = DIRECTION('',(0.577917324386,0.578631339049,0.57549747145));
#349 = PCURVE('',#325,#350);
#350 = DEFINITIONAL_REPRESENTATION('',(#351),#355);
#351 = LINE('',#352,#353);
#352 = CARTESIAN_POINT('',(-10.85052659489,-91.39559331013));
#353 = VECTOR('',#354,1.);
#354 = DIRECTION('',(0.81558921843,0.578631339266));
#355 = ( GEOMETRIC_REPRESENTATION_CONTEXT(2) 
PARAMETRIC_REPRESENTATION_CONTEXT() REPRESENTATION_CONTEXT('2D SPACE',''
  ) );
#356 = PCURVE('',#240,#357);
#357 = DEFINITIONAL_REPRESENTATION('',(#358),#362);
#358 = LINE('',#359,#360);
#359 = CARTESIAN_POINT('',(-2.117118594074E-02,89.063667464872));
#360 = VECTOR('',#361,1.);
#361 = DIRECTION('',(0.816095273091,-0.57791738617));
#362 = ( GEOMETRIC_REPRESENTATION_CONTEXT(2) 
PARAMETRIC_REPRESENTATION_CONTEXT() REPRESENTATION_CONTEXT('2D SPACE',''
  ) );
#363 = ORIENTED_EDGE('',*,*,#364,.T.);
#364 = EDGE_CURVE('',#342,#283,#365,.T.);
#365 = SURFACE_CURVE('',#366,(#370,#377),.PCURVE_S1.);
#366 = LINE('',#367,#368);
#367 = CARTESIAN_POINT('',(-36.90693142704,-41.83484396654,
    38.176580096046));
#368 = VECTOR('',#369,1.);
#369 = DIRECTION('',(3.565335164325E-04,0.999999858954,
    3.936686433107E-04));
#370 = PCURVE('',#325,#371);
#371 = DEFINITIONAL_REPRESENTATION('',(#372),#376);
#372 = LINE('',#373,#374);
#373 = CARTESIAN_POINT('',(-4.44112500557E-02,-83.72904150568));
#374 = VECTOR('',#375,1.);
#375 = DIRECTION('',(5.304162451844E-04,0.999999859329));
#376 = ( GEOMETRIC_REPRESENTATION_CONTEXT(2) 
PARAMETRIC_REPRESENTATION_CONTEXT() REPRESENTATION_CONTEXT('2D SPACE',''
  ) );
#377 = PCURVE('',#378,#383);
#378 = PLANE('',#379);
#379 = AXIS2_PLACEMENT_3D('',#380,#381,#382);
#380 = CARTESIAN_POINT('',(36.890306975386,41.855381236668,
    38.163225940615));
#381 = DIRECTION('',(6.276534724422E-04,-3.938923702853E-04,
    0.99999972545));
#382 = DIRECTION('',(0.999999803026,-7.336337214676E-24,
    -6.276535211328E-04));
#383 = DEFINITIONAL_REPRESENTATION('',(#384),#388);
#384 = LINE('',#385,#386);
#385 = CARTESIAN_POINT('',(-73.79723224804,-83.69023169553));
#386 = VECTOR('',#387,1.);
#387 = DIRECTION('',(3.562863586943E-04,0.99999993653));
#388 = ( GEOMETRIC_REPRESENTATION_CONTEXT(2) 
PARAMETRIC_REPRESENTATION_CONTEXT() REPRESENTATION_CONTEXT('2D SPACE',''
  ) );
#389 = ADVANCED_FACE('',(#390),#98,.T.);
#390 = FACE_BOUND('',#391,.T.);
#391 = EDGE_LOOP('',(#392,#418,#419));
#392 = ORIENTED_EDGE('',*,*,#393,.T.);
#393 = EDGE_CURVE('',#24,#172,#394,.T.);
#394 = SURFACE_CURVE('',#395,(#399,#406),.PCURVE_S1.);
#395 = LINE('',#396,#397);
#396 = CARTESIAN_POINT('',(-44.5099702631,49.453793530964,
    6.274926355886E-03));
#397 = VECTOR('',#398,1.);
#398 = DIRECTION('',(0.668856770466,-0.743391295282,5.197322697394E-05)
  );
#399 = PCURVE('',#98,#400);
#400 = DEFINITIONAL_REPRESENTATION('',(#401),#405);
#401 = LINE('',#402,#403);
#402 = CARTESIAN_POINT('',(0.,0.));
#403 = VECTOR('',#404,1.);
#404 = DIRECTION('',(-0.668856771917,-0.743391295793));
#405 = ( GEOMETRIC_REPRESENTATION_CONTEXT(2) 
PARAMETRIC_REPRESENTATION_CONTEXT() REPRESENTATION_CONTEXT('2D SPACE',''
  ) );
#406 = PCURVE('',#407,#412);
#407 = PLANE('',#408);
#408 = AXIS2_PLACEMENT_3D('',#409,#410,#411);
#409 = CARTESIAN_POINT('',(44.522050964874,49.433964277853,
    2.634209726341E-03));
#410 = DIRECTION('',(-4.09159859404E-05,-1.067273202612E-04,
    -0.999999993468));
#411 = DIRECTION('',(-1.488350412507E-25,-0.999999994305,
    1.067273203506E-04));
#412 = DEFINITIONAL_REPRESENTATION('',(#413),#417);
#413 = LINE('',#414,#415);
#414 = CARTESIAN_POINT('',(-1.982886443403E-02,89.032021302506));
#415 = VECTOR('',#416,1.);
#416 = DIRECTION('',(0.743391296595,-0.668856771026));
#417 = ( GEOMETRIC_REPRESENTATION_CONTEXT(2) 
PARAMETRIC_REPRESENTATION_CONTEXT() REPRESENTATION_CONTEXT('2D SPACE',''
  ) );
#418 = ORIENTED_EDGE('',*,*,#200,.F.);
#419 = ORIENTED_EDGE('',*,*,#84,.F.);
#420 = ADVANCED_FACE('',(#421),#407,.T.);
#421 = FACE_BOUND('',#422,.T.);
#422 = EDGE_LOOP('',(#423,#451,#452));
#423 = ORIENTED_EDGE('',*,*,#424,.F.);
#424 = EDGE_CURVE('',#172,#425,#427,.T.);
#425 = VERTEX_POINT('',#426);
#426 = CARTESIAN_POINT('',(44.522050964874,49.433964277853,
    2.634209726341E-03));
#427 = SURFACE_CURVE('',#428,(#432,#439),.PCURVE_S1.);
#428 = LINE('',#429,#430);
#429 = CARTESIAN_POINT('',(44.504992239262,-49.48061394763,
    1.319179563866E-02));
#430 = VECTOR('',#431,1.);
#431 = DIRECTION('',(1.724591619013E-04,0.999999979433,-1.067343751E-04)
  );
#432 = PCURVE('',#407,#433);
#433 = DEFINITIONAL_REPRESENTATION('',(#434),#438);
#434 = LINE('',#435,#436);
#435 = CARTESIAN_POINT('',(98.914578788919,1.705872562572E-02));
#436 = VECTOR('',#437,1.);
#437 = DIRECTION('',(-0.999999985129,-1.724591620457E-04));
#438 = ( GEOMETRIC_REPRESENTATION_CONTEXT(2) 
PARAMETRIC_REPRESENTATION_CONTEXT() REPRESENTATION_CONTEXT('2D SPACE',''
  ) );
#439 = PCURVE('',#440,#445);
#440 = PLANE('',#441);
#441 = AXIS2_PLACEMENT_3D('',#442,#443,#444);
#442 = CARTESIAN_POINT('',(44.504992239262,-49.48061394763,
    1.319179563866E-02));
#443 = DIRECTION('',(0.999999545882,-1.723590451678E-04,
    9.372984247434E-04));
#444 = DIRECTION('',(-9.372984386658E-04,8.609078099495E-24,
    0.999999560736));
#445 = DEFINITIONAL_REPRESENTATION('',(#446),#450);
#446 = LINE('',#447,#448);
#447 = CARTESIAN_POINT('',(0.,-0.));
#448 = VECTOR('',#449,1.);
#449 = DIRECTION('',(-1.068959739186E-04,-0.999999994287));
#450 = ( GEOMETRIC_REPRESENTATION_CONTEXT(2) 
PARAMETRIC_REPRESENTATION_CONTEXT() REPRESENTATION_CONTEXT('2D SPACE',''
  ) );
#451 = ORIENTED_EDGE('',*,*,#393,.F.);
#452 = ORIENTED_EDGE('',*,*,#453,.T.);
#453 = EDGE_CURVE('',#24,#425,#454,.T.);
#454 = SURFACE_CURVE('',#455,(#459,#466),.PCURVE_S1.);
#455 = LINE('',#456,#457);
#456 = CARTESIAN_POINT('',(-44.5099702631,49.453793530964,
    6.274926355886E-03));
#457 = VECTOR('',#458,1.);
#458 = DIRECTION('',(0.999999974362,-2.227204586509E-04,
    -4.089221480079E-05));
#459 = PCURVE('',#407,#460);
#460 = DEFINITIONAL_REPRESENTATION('',(#461),#465);
#461 = LINE('',#462,#463);
#462 = CARTESIAN_POINT('',(-1.982886443403E-02,89.032021302506));
#463 = VECTOR('',#464,1.);
#464 = DIRECTION('',(2.227160930659E-04,-0.999999975199));
#465 = ( GEOMETRIC_REPRESENTATION_CONTEXT(2) 
PARAMETRIC_REPRESENTATION_CONTEXT() REPRESENTATION_CONTEXT('2D SPACE',''
  ) );
#466 = PCURVE('',#44,#467);
#467 = DEFINITIONAL_REPRESENTATION('',(#468),#472);
#468 = LINE('',#469,#470);
#469 = CARTESIAN_POINT('',(3.667720955608E-03,-89.03202343506));
#470 = VECTOR('',#471,1.);
#471 = DIRECTION('',(-4.119552505926E-05,0.999999999151));
#472 = ( GEOMETRIC_REPRESENTATION_CONTEXT(2) 
PARAMETRIC_REPRESENTATION_CONTEXT() REPRESENTATION_CONTEXT('2D SPACE',''
  ) );
#473 = ADVANCED_FACE('',(#474),#44,.T.);
#474 = FACE_BOUND('',#475,.T.);
#475 = EDGE_LOOP('',(#476,#477,#478));
#476 = ORIENTED_EDGE('',*,*,#453,.F.);
#477 = ORIENTED_EDGE('',*,*,#21,.F.);
#478 = ORIENTED_EDGE('',*,*,#479,.T.);
#479 = EDGE_CURVE('',#22,#425,#480,.T.);
#480 = SURFACE_CURVE('',#481,(#485,#492),.PCURVE_S1.);
#481 = LINE('',#482,#483);
#482 = CARTESIAN_POINT('',(-44.54105202111,49.495422723707,
    30.565623140004));
#483 = VECTOR('',#484,1.);
#484 = DIRECTION('',(0.945857517641,-6.526937764937E-04,-0.324581469454)
  );
#485 = PCURVE('',#44,#486);
#486 = DEFINITIONAL_REPRESENTATION('',(#487),#491);
#487 = LINE('',#488,#489);
#488 = CARTESIAN_POINT('',(30.563044289084,-89.06310519384));
#489 = VECTOR('',#490,1.);
#490 = DIRECTION('',(-0.324582057369,0.945857541089));
#491 = ( GEOMETRIC_REPRESENTATION_CONTEXT(2) 
PARAMETRIC_REPRESENTATION_CONTEXT() REPRESENTATION_CONTEXT('2D SPACE',''
  ) );
#492 = PCURVE('',#493,#498);
#493 = PLANE('',#494);
#494 = AXIS2_PLACEMENT_3D('',#495,#496,#497);
#495 = CARTESIAN_POINT('',(44.493441417977,49.461340389159,
    30.531067491401));
#496 = DIRECTION('',(3.824511373637E-04,0.999999525115,
    -8.963826050293E-04));
#497 = DIRECTION('',(-6.046314670995E-23,8.963826705858E-04,
    0.999999598249));
#498 = DEFINITIONAL_REPRESENTATION('',(#499),#503);
#499 = LINE('',#500,#501);
#500 = CARTESIAN_POINT('',(3.458618553454E-02,-89.03449995058));
#501 = VECTOR('',#502,1.);
#502 = DIRECTION('',(-0.324581924116,0.945857586816));
#503 = ( GEOMETRIC_REPRESENTATION_CONTEXT(2) 
PARAMETRIC_REPRESENTATION_CONTEXT() REPRESENTATION_CONTEXT('2D SPACE',''
  ) );
#504 = ADVANCED_FACE('',(#505),#493,.T.);
#505 = FACE_BOUND('',#506,.T.);
#506 = EDGE_LOOP('',(#507,#530,#531));
#507 = ORIENTED_EDGE('',*,*,#508,.T.);
#508 = EDGE_CURVE('',#509,#425,#511,.T.);
#509 = VERTEX_POINT('',#510);
#510 = CARTESIAN_POINT('',(44.493441417977,49.461340389159,
    30.531067491401));
#511 = SURFACE_CURVE('',#512,(#516,#523),.PCURVE_S1.);
#512 = LINE('',#513,#514);
#513 = CARTESIAN_POINT('',(44.493441417977,49.461340389159,
    30.531067491401));
#514 = VECTOR('',#515,1.);
#515 = DIRECTION('',(9.371435005011E-04,-8.967406884468E-04,
    -0.999999158809));
#516 = PCURVE('',#493,#517);
#517 = DEFINITIONAL_REPRESENTATION('',(#518),#522);
#518 = LINE('',#519,#520);
#519 = CARTESIAN_POINT('',(0.,0.));
#520 = VECTOR('',#521,1.);
#521 = DIRECTION('',(-0.999999560881,9.371435690386E-04));
#522 = ( GEOMETRIC_REPRESENTATION_CONTEXT(2) 
PARAMETRIC_REPRESENTATION_CONTEXT() REPRESENTATION_CONTEXT('2D SPACE',''
  ) );
#523 = PCURVE('',#440,#524);
#524 = DEFINITIONAL_REPRESENTATION('',(#525),#529);
#525 = LINE('',#526,#527);
#526 = CARTESIAN_POINT('',(30.517873116917,-98.94195580646));
#527 = VECTOR('',#528,1.);
#528 = DIRECTION('',(-0.999999597928,8.967407017669E-04));
#529 = ( GEOMETRIC_REPRESENTATION_CONTEXT(2) 
PARAMETRIC_REPRESENTATION_CONTEXT() REPRESENTATION_CONTEXT('2D SPACE',''
  ) );
#530 = ORIENTED_EDGE('',*,*,#479,.F.);
#531 = ORIENTED_EDGE('',*,*,#532,.T.);
#532 = EDGE_CURVE('',#22,#509,#533,.T.);
#533 = SURFACE_CURVE('',#534,(#538,#545),.PCURVE_S1.);
#534 = LINE('',#535,#536);
#535 = CARTESIAN_POINT('',(-44.54105202111,49.495422723707,
    30.565623140004));
#536 = VECTOR('',#537,1.);
#537 = DIRECTION('',(0.999999851416,-3.827991620699E-04,
    -3.881152363995E-04));
#538 = PCURVE('',#493,#539);
#539 = DEFINITIONAL_REPRESENTATION('',(#540),#544);
#540 = LINE('',#541,#542);
#541 = CARTESIAN_POINT('',(3.458618553454E-02,-89.03449995058));
#542 = VECTOR('',#543,1.);
#543 = DIRECTION('',(-3.88458215009E-04,0.99999992455));
#544 = ( GEOMETRIC_REPRESENTATION_CONTEXT(2) 
PARAMETRIC_REPRESENTATION_CONTEXT() REPRESENTATION_CONTEXT('2D SPACE',''
  ) );
#545 = PCURVE('',#546,#551);
#546 = PLANE('',#547);
#547 = AXIS2_PLACEMENT_3D('',#548,#549,#550);
#548 = CARTESIAN_POINT('',(36.890306975386,41.855381236668,
    38.163225940615));
#549 = DIRECTION('',(5.451132962561E-04,0.708049805375,0.706162287268));
#550 = DIRECTION('',(1.915213893014E-21,-0.706162392186,0.708049910573)
  );
#551 = DEFINITIONAL_REPRESENTATION('',(#552),#556);
#552 = LINE('',#553,#554);
#553 = CARTESIAN_POINT('',(-10.77459195642,-81.43137109511));
#554 = VECTOR('',#555,1.);
#555 = DIRECTION('',(-4.486586410718E-06,0.99999999999));
#556 = ( GEOMETRIC_REPRESENTATION_CONTEXT(2) 
PARAMETRIC_REPRESENTATION_CONTEXT() REPRESENTATION_CONTEXT('2D SPACE',''
  ) );
#557 = ADVANCED_FACE('',(#558),#440,.T.);
#558 = FACE_BOUND('',#559,.T.);
#559 = EDGE_LOOP('',(#560,#561,#562));
#560 = ORIENTED_EDGE('',*,*,#424,.T.);
#561 = ORIENTED_EDGE('',*,*,#508,.F.);
#562 = ORIENTED_EDGE('',*,*,#563,.T.);
#563 = EDGE_CURVE('',#509,#172,#564,.T.);
#564 = SURFACE_CURVE('',#565,(#569,#576),.PCURVE_S1.);
#565 = LINE('',#566,#567);
#566 = CARTESIAN_POINT('',(44.493441417977,49.461340389159,
    30.531067491401));
#567 = VECTOR('',#568,1.);
#568 = DIRECTION('',(1.115573605708E-04,-0.955577357067,-0.294740398005)
  );
#569 = PCURVE('',#440,#570);
#570 = DEFINITIONAL_REPRESENTATION('',(#571),#575);
#571 = LINE('',#572,#573);
#572 = CARTESIAN_POINT('',(30.517873116917,-98.94195580646));
#573 = VECTOR('',#574,1.);
#574 = DIRECTION('',(-0.294740373099,0.955577371261));
#575 = ( GEOMETRIC_REPRESENTATION_CONTEXT(2) 
PARAMETRIC_REPRESENTATION_CONTEXT() REPRESENTATION_CONTEXT('2D SPACE',''
  ) );
#576 = PCURVE('',#267,#577);
#577 = DEFINITIONAL_REPRESENTATION('',(#578),#582);
#578 = LINE('',#579,#580);
#579 = CARTESIAN_POINT('',(-6.225659719936E-03,-98.91867883004));
#580 = VECTOR('',#581,1.);
#581 = DIRECTION('',(-0.294740413042,0.955577358941));
#582 = ( GEOMETRIC_REPRESENTATION_CONTEXT(2) 
PARAMETRIC_REPRESENTATION_CONTEXT() REPRESENTATION_CONTEXT('2D SPACE',''
  ) );
#583 = ADVANCED_FACE('',(#584),#267,.T.);
#584 = FACE_BOUND('',#585,.T.);
#585 = EDGE_LOOP('',(#586,#587,#588));
#586 = ORIENTED_EDGE('',*,*,#253,.T.);
#587 = ORIENTED_EDGE('',*,*,#563,.F.);
#588 = ORIENTED_EDGE('',*,*,#589,.T.);
#589 = EDGE_CURVE('',#509,#225,#590,.T.);
#590 = SURFACE_CURVE('',#591,(#595,#602),.PCURVE_S1.);
#591 = LINE('',#592,#593);
#592 = CARTESIAN_POINT('',(44.493441417977,49.461340389159,
    30.531067491401));
#593 = VECTOR('',#594,1.);
#594 = DIRECTION('',(6.261308885224E-05,-0.999999996059,
    6.294813686324E-05));
#595 = PCURVE('',#267,#596);
#596 = DEFINITIONAL_REPRESENTATION('',(#597),#601);
#597 = LINE('',#598,#599);
#598 = CARTESIAN_POINT('',(-6.225659719936E-03,-98.91867883004));
#599 = VECTOR('',#600,1.);
#600 = DIRECTION('',(6.293714980062E-05,0.999999998019));
#601 = ( GEOMETRIC_REPRESENTATION_CONTEXT(2) 
PARAMETRIC_REPRESENTATION_CONTEXT() REPRESENTATION_CONTEXT('2D SPACE',''
  ) );
#602 = PCURVE('',#603,#608);
#603 = PLANE('',#604);
#604 = AXIS2_PLACEMENT_3D('',#605,#606,#607);
#605 = CARTESIAN_POINT('',(44.493441417977,49.461340389159,
    30.531067491401));
#606 = DIRECTION('',(0.708712894259,8.878442586604E-05,0.705497006109));
#607 = DIRECTION('',(-0.705497008889,-3.219960642892E-22,0.708712897052)
  );
#608 = DEFINITIONAL_REPRESENTATION('',(#609),#613);
#609 = LINE('',#610,#611);
#610 = CARTESIAN_POINT('',(0.,0.));
#611 = VECTOR('',#612,1.);
#612 = DIRECTION('',(4.388095378039E-07,1.));
#613 = ( GEOMETRIC_REPRESENTATION_CONTEXT(2) 
PARAMETRIC_REPRESENTATION_CONTEXT() REPRESENTATION_CONTEXT('2D SPACE',''
  ) );
#614 = ADVANCED_FACE('',(#615),#240,.T.);
#615 = FACE_BOUND('',#616,.T.);
#616 = EDGE_LOOP('',(#617,#643,#644));
#617 = ORIENTED_EDGE('',*,*,#618,.F.);
#618 = EDGE_CURVE('',#342,#225,#619,.T.);
#619 = SURFACE_CURVE('',#620,(#624,#631),.PCURVE_S1.);
#620 = LINE('',#621,#622);
#621 = CARTESIAN_POINT('',(-36.90693142704,-41.83484396654,
    38.176580096046));
#622 = VECTOR('',#623,1.);
#623 = DIRECTION('',(0.991327315736,-9.282281668152E-02,
    -9.302729588266E-02));
#624 = PCURVE('',#240,#625);
#625 = DEFINITIONAL_REPRESENTATION('',(#626),#630);
#626 = LINE('',#627,#628);
#627 = CARTESIAN_POINT('',(10.791649109033,81.406575152191));
#628 = VECTOR('',#629,1.);
#629 = DIRECTION('',(-0.131415154947,-0.991327421718));
#630 = ( GEOMETRIC_REPRESENTATION_CONTEXT(2) 
PARAMETRIC_REPRESENTATION_CONTEXT() REPRESENTATION_CONTEXT('2D SPACE',''
  ) );
#631 = PCURVE('',#632,#637);
#632 = PLANE('',#633);
#633 = AXIS2_PLACEMENT_3D('',#634,#635,#636);
#634 = CARTESIAN_POINT('',(36.878626413302,-41.83189804673,
    38.192082282632));
#635 = DIRECTION('',(-1.199753113538E-04,-0.708523288152,0.705687420713)
  );
#636 = DIRECTION('',(9.439081027736E-21,-0.705687425792,-0.708523293251)
  );
#637 = DEFINITIONAL_REPRESENTATION('',(#638),#642);
#638 = LINE('',#639,#640);
#639 = CARTESIAN_POINT('',(1.306255886178E-02,-73.78555837138));
#640 = VECTOR('',#641,1.);
#641 = DIRECTION('',(0.1314159006,0.99132732287));
#642 = ( GEOMETRIC_REPRESENTATION_CONTEXT(2) 
PARAMETRIC_REPRESENTATION_CONTEXT() REPRESENTATION_CONTEXT('2D SPACE',''
  ) );
#643 = ORIENTED_EDGE('',*,*,#341,.F.);
#644 = ORIENTED_EDGE('',*,*,#224,.T.);
#645 = ADVANCED_FACE('',(#646),#632,.T.);
#646 = FACE_BOUND('',#647,.T.);
#647 = EDGE_LOOP('',(#648,#676,#677));
#648 = ORIENTED_EDGE('',*,*,#649,.F.);
#649 = EDGE_CURVE('',#342,#650,#652,.T.);
#650 = VERTEX_POINT('',#651);
#651 = CARTESIAN_POINT('',(36.878626413302,-41.83189804673,
    38.192082282632));
#652 = SURFACE_CURVE('',#653,(#657,#664),.PCURVE_S1.);
#653 = LINE('',#654,#655);
#654 = CARTESIAN_POINT('',(-36.90693142704,-41.83484396654,
    38.176580096046));
#655 = VECTOR('',#656,1.);
#656 = DIRECTION('',(0.999999977132,3.99254248576E-05,2.100978387307E-04
    ));
#657 = PCURVE('',#632,#658);
#658 = DEFINITIONAL_REPRESENTATION('',(#659),#663);
#659 = LINE('',#660,#661);
#660 = CARTESIAN_POINT('',(1.306255886178E-02,-73.78555837138));
#661 = VECTOR('',#662,1.);
#662 = DIRECTION('',(-1.770340828938E-04,0.999999984329));
#663 = ( GEOMETRIC_REPRESENTATION_CONTEXT(2) 
PARAMETRIC_REPRESENTATION_CONTEXT() REPRESENTATION_CONTEXT('2D SPACE',''
  ) );
#664 = PCURVE('',#665,#670);
#665 = PLANE('',#666);
#666 = AXIS2_PLACEMENT_3D('',#667,#668,#669);
#667 = CARTESIAN_POINT('',(36.890306975386,41.855381236668,
    38.163225940615));
#668 = DIRECTION('',(-2.101115943241E-04,3.448408663007E-04,
    0.999999918469));
#669 = DIRECTION('',(4.100427127146E-24,0.999999940542,
    -3.448408739126E-04));
#670 = DEFINITIONAL_REPRESENTATION('',(#671),#675);
#671 = LINE('',#672,#673);
#672 = CARTESIAN_POINT('',(-83.69022483224,73.797240031392));
#673 = VECTOR('',#674,1.);
#674 = DIRECTION('',(3.985297216141E-05,-0.999999999206));
#675 = ( GEOMETRIC_REPRESENTATION_CONTEXT(2) 
PARAMETRIC_REPRESENTATION_CONTEXT() REPRESENTATION_CONTEXT('2D SPACE',''
  ) );
#676 = ORIENTED_EDGE('',*,*,#618,.T.);
#677 = ORIENTED_EDGE('',*,*,#678,.F.);
#678 = EDGE_CURVE('',#650,#225,#679,.T.);
#679 = SURFACE_CURVE('',#680,(#684,#691),.PCURVE_S1.);
#680 = LINE('',#681,#682);
#681 = CARTESIAN_POINT('',(36.878626413302,-41.83189804673,
    38.192082282632));
#682 = VECTOR('',#683,1.);
#683 = DIRECTION('',(0.576385841282,-0.576721007755,-0.578940619739));
#684 = PCURVE('',#632,#685);
#685 = DEFINITIONAL_REPRESENTATION('',(#686),#690);
#686 = LINE('',#687,#688);
#687 = CARTESIAN_POINT('',(0.,0.));
#688 = VECTOR('',#689,1.);
#689 = DIRECTION('',(0.817177677857,0.57638584543));
#690 = ( GEOMETRIC_REPRESENTATION_CONTEXT(2) 
PARAMETRIC_REPRESENTATION_CONTEXT() REPRESENTATION_CONTEXT('2D SPACE',''
  ) );
#691 = PCURVE('',#603,#692);
#692 = DEFINITIONAL_REPRESENTATION('',(#693),#697);
#693 = LINE('',#694,#695);
#694 = CARTESIAN_POINT('',(10.801689196098,91.293238795708));
#695 = VECTOR('',#696,1.);
#696 = DIRECTION('',(-0.816941170827,0.576721010028));
#697 = ( GEOMETRIC_REPRESENTATION_CONTEXT(2) 
PARAMETRIC_REPRESENTATION_CONTEXT() REPRESENTATION_CONTEXT('2D SPACE',''
  ) );
#698 = ADVANCED_FACE('',(#699),#378,.T.);
#699 = FACE_BOUND('',#700,.T.);
#700 = EDGE_LOOP('',(#701,#724,#725));
#701 = ORIENTED_EDGE('',*,*,#702,.F.);
#702 = EDGE_CURVE('',#283,#703,#705,.T.);
#703 = VERTEX_POINT('',#704);
#704 = CARTESIAN_POINT('',(36.890306975386,41.855381236668,
    38.163225940615));
#705 = SURFACE_CURVE('',#706,(#710,#717),.PCURVE_S1.);
#706 = LINE('',#707,#708);
#707 = CARTESIAN_POINT('',(-36.87707921325,41.894197507752,
    38.209541598858));
#708 = VECTOR('',#709,1.);
#709 = DIRECTION('',(0.999999664453,-5.261980946349E-04,
    -6.27860699629E-04));
#710 = PCURVE('',#378,#711);
#711 = DEFINITIONAL_REPRESENTATION('',(#712),#716);
#712 = LINE('',#713,#714);
#713 = CARTESIAN_POINT('',(-73.76740072853,3.881627409453E-02));
#714 = VECTOR('',#715,1.);
#715 = DIRECTION('',(0.999999861558,-5.26198135455E-04));
#716 = ( GEOMETRIC_REPRESENTATION_CONTEXT(2) 
PARAMETRIC_REPRESENTATION_CONTEXT() REPRESENTATION_CONTEXT('2D SPACE',''
  ) );
#717 = PCURVE('',#298,#718);
#718 = DEFINITIONAL_REPRESENTATION('',(#719),#723);
#719 = LINE('',#720,#721);
#720 = CARTESIAN_POINT('',(5.506329608495E-03,-73.76741073554));
#721 = VECTOR('',#722,1.);
#722 = DIRECTION('',(-7.464447427733E-05,0.999999997214));
#723 = ( GEOMETRIC_REPRESENTATION_CONTEXT(2) 
PARAMETRIC_REPRESENTATION_CONTEXT() REPRESENTATION_CONTEXT('2D SPACE',''
  ) );
#724 = ORIENTED_EDGE('',*,*,#364,.F.);
#725 = ORIENTED_EDGE('',*,*,#726,.T.);
#726 = EDGE_CURVE('',#342,#703,#727,.T.);
#727 = SURFACE_CURVE('',#728,(#732,#739),.PCURVE_S1.);
#728 = LINE('',#729,#730);
#729 = CARTESIAN_POINT('',(-36.90693142704,-41.83484396654,
    38.176580096046));
#730 = VECTOR('',#731,1.);
#731 = DIRECTION('',(0.661384371145,0.750047131373,-1.196823876247E-04)
  );
#732 = PCURVE('',#378,#733);
#733 = DEFINITIONAL_REPRESENTATION('',(#734),#738);
#734 = LINE('',#735,#736);
#735 = CARTESIAN_POINT('',(-73.79723224804,-83.69023169553));
#736 = VECTOR('',#737,1.);
#737 = DIRECTION('',(0.661384315988,0.750047189559));
#738 = ( GEOMETRIC_REPRESENTATION_CONTEXT(2) 
PARAMETRIC_REPRESENTATION_CONTEXT() REPRESENTATION_CONTEXT('2D SPACE',''
  ) );
#739 = PCURVE('',#665,#740);
#740 = DEFINITIONAL_REPRESENTATION('',(#741),#745);
#741 = LINE('',#742,#743);
#742 = CARTESIAN_POINT('',(-83.69022483224,73.797240031392));
#743 = VECTOR('',#744,1.);
#744 = DIRECTION('',(0.750047128049,-0.661384385744));
#745 = ( GEOMETRIC_REPRESENTATION_CONTEXT(2) 
PARAMETRIC_REPRESENTATION_CONTEXT() REPRESENTATION_CONTEXT('2D SPACE',''
  ) );
#746 = ADVANCED_FACE('',(#747),#665,.T.);
#747 = FACE_BOUND('',#748,.T.);
#748 = EDGE_LOOP('',(#749,#750,#751));
#749 = ORIENTED_EDGE('',*,*,#726,.F.);
#750 = ORIENTED_EDGE('',*,*,#649,.T.);
#751 = ORIENTED_EDGE('',*,*,#752,.T.);
#752 = EDGE_CURVE('',#650,#703,#753,.T.);
#753 = SURFACE_CURVE('',#754,(#758,#765),.PCURVE_S1.);
#754 = LINE('',#755,#756);
#755 = CARTESIAN_POINT('',(36.878626413302,-41.83189804673,
    38.192082282632));
#756 = VECTOR('',#757,1.);
#757 = DIRECTION('',(1.39573915842E-04,0.999999930812,
    -3.448115444568E-04));
#758 = PCURVE('',#665,#759);
#759 = DEFINITIONAL_REPRESENTATION('',(#760),#764);
#760 = LINE('',#761,#762);
#761 = CARTESIAN_POINT('',(-83.6872842584,1.168056234173E-02));
#762 = VECTOR('',#763,1.);
#763 = DIRECTION('',(0.99999999026,-1.395739189229E-04));
#764 = ( GEOMETRIC_REPRESENTATION_CONTEXT(2) 
PARAMETRIC_REPRESENTATION_CONTEXT() REPRESENTATION_CONTEXT('2D SPACE',''
  ) );
#765 = PCURVE('',#766,#771);
#766 = PLANE('',#767);
#767 = AXIS2_PLACEMENT_3D('',#768,#769,#770);
#768 = CARTESIAN_POINT('',(36.890306975386,41.855381236668,
    38.163225940615));
#769 = DIRECTION('',(0.708380553849,1.445071342695E-04,0.70583069503));
#770 = DIRECTION('',(-0.7058307024,6.356448032542E-21,0.708380561245));
#771 = DEFINITIONAL_REPRESENTATION('',(#772),#776);
#772 = LINE('',#773,#774);
#773 = CARTESIAN_POINT('',(2.868577109401E-02,83.687280157191));
#774 = VECTOR('',#775,1.);
#775 = DIRECTION('',(-3.427733504415E-04,-0.999999941253));
#776 = ( GEOMETRIC_REPRESENTATION_CONTEXT(2) 
PARAMETRIC_REPRESENTATION_CONTEXT() REPRESENTATION_CONTEXT('2D SPACE',''
  ) );
#777 = ADVANCED_FACE('',(#778),#298,.T.);
#778 = FACE_BOUND('',#779,.T.);
#779 = EDGE_LOOP('',(#780,#801,#802));
#780 = ORIENTED_EDGE('',*,*,#781,.F.);
#781 = EDGE_CURVE('',#22,#703,#782,.T.);
#782 = SURFACE_CURVE('',#783,(#787,#794),.PCURVE_S1.);
#783 = LINE('',#784,#785);
#784 = CARTESIAN_POINT('',(-44.54105202111,49.495422723707,
    30.565623140004));
#785 = VECTOR('',#786,1.);
#786 = DIRECTION('',(0.991359510402,-9.301119226517E-02,
    9.249453632429E-02));
#787 = PCURVE('',#298,#788);
#788 = DEFINITIONAL_REPRESENTATION('',(#789),#793);
#789 = LINE('',#790,#791);
#790 = CARTESIAN_POINT('',(-10.77447860075,-81.43138609368));
#791 = VECTOR('',#792,1.);
#792 = DIRECTION('',(0.131170374191,0.991359840287));
#793 = ( GEOMETRIC_REPRESENTATION_CONTEXT(2) 
PARAMETRIC_REPRESENTATION_CONTEXT() REPRESENTATION_CONTEXT('2D SPACE',''
  ) );
#794 = PCURVE('',#546,#795);
#795 = DEFINITIONAL_REPRESENTATION('',(#796),#800);
#796 = LINE('',#797,#798);
#797 = CARTESIAN_POINT('',(-10.77459195642,-81.43137109511));
#798 = VECTOR('',#799,1.);
#799 = DIRECTION('',(0.131171754203,0.991359657692));
#800 = ( GEOMETRIC_REPRESENTATION_CONTEXT(2) 
PARAMETRIC_REPRESENTATION_CONTEXT() REPRESENTATION_CONTEXT('2D SPACE',''
  ) );
#801 = ORIENTED_EDGE('',*,*,#282,.T.);
#802 = ORIENTED_EDGE('',*,*,#702,.T.);
#803 = ADVANCED_FACE('',(#804),#546,.T.);
#804 = FACE_BOUND('',#805,.T.);
#805 = EDGE_LOOP('',(#806,#827,#828));
#806 = ORIENTED_EDGE('',*,*,#807,.T.);
#807 = EDGE_CURVE('',#703,#509,#808,.T.);
#808 = SURFACE_CURVE('',#809,(#813,#820),.PCURVE_S1.);
#809 = LINE('',#810,#811);
#810 = CARTESIAN_POINT('',(36.890306975386,41.855381236668,
    38.163225940615));
#811 = VECTOR('',#812,1.);
#812 = DIRECTION('',(0.576544391291,0.576758588562,-0.578745276776));
#813 = PCURVE('',#546,#814);
#814 = DEFINITIONAL_REPRESENTATION('',(#815),#819);
#815 = LINE('',#816,#817);
#816 = CARTESIAN_POINT('',(0.,0.));
#817 = VECTOR('',#818,1.);
#818 = DIRECTION('',(-0.817065766078,0.576544476951));
#819 = ( GEOMETRIC_REPRESENTATION_CONTEXT(2) 
PARAMETRIC_REPRESENTATION_CONTEXT() REPRESENTATION_CONTEXT('2D SPACE',''
  ) );
#820 = PCURVE('',#766,#821);
#821 = DEFINITIONAL_REPRESENTATION('',(#822),#826);
#822 = LINE('',#823,#824);
#823 = CARTESIAN_POINT('',(0.,0.));
#824 = VECTOR('',#825,1.);
#825 = DIRECTION('',(-0.81691463665,-0.576758594584));
#826 = ( GEOMETRIC_REPRESENTATION_CONTEXT(2) 
PARAMETRIC_REPRESENTATION_CONTEXT() REPRESENTATION_CONTEXT('2D SPACE',''
  ) );
#827 = ORIENTED_EDGE('',*,*,#532,.F.);
#828 = ORIENTED_EDGE('',*,*,#781,.T.);
#829 = ADVANCED_FACE('',(#830),#603,.T.);
#830 = FACE_BOUND('',#831,.T.);
#831 = EDGE_LOOP('',(#832,#853,#854));
#832 = ORIENTED_EDGE('',*,*,#833,.F.);
#833 = EDGE_CURVE('',#650,#509,#834,.T.);
#834 = SURFACE_CURVE('',#835,(#839,#846),.PCURVE_S1.);
#835 = LINE('',#836,#837);
#836 = CARTESIAN_POINT('',(36.878626413302,-41.83189804673,
    38.192082282632));
#837 = VECTOR('',#838,1.);
#838 = DIRECTION('',(8.283271873519E-02,0.993072994832,
    -8.333527249692E-02));
#839 = PCURVE('',#603,#840);
#840 = DEFINITIONAL_REPRESENTATION('',(#841),#845);
#841 = LINE('',#842,#843);
#842 = CARTESIAN_POINT('',(10.801689196098,91.293238795708));
#843 = VECTOR('',#844,1.);
#844 = DIRECTION('',(-0.117499017704,-0.993072998746));
#845 = ( GEOMETRIC_REPRESENTATION_CONTEXT(2) 
PARAMETRIC_REPRESENTATION_CONTEXT() REPRESENTATION_CONTEXT('2D SPACE',''
  ) );
#846 = PCURVE('',#766,#847);
#847 = DEFINITIONAL_REPRESENTATION('',(#848),#852);
#848 = LINE('',#849,#850);
#849 = CARTESIAN_POINT('',(2.868577109401E-02,83.687280157191));
#850 = VECTOR('',#851,1.);
#851 = DIRECTION('',(-0.117498963149,-0.993073005201));
#852 = ( GEOMETRIC_REPRESENTATION_CONTEXT(2) 
PARAMETRIC_REPRESENTATION_CONTEXT() REPRESENTATION_CONTEXT('2D SPACE',''
  ) );
#853 = ORIENTED_EDGE('',*,*,#678,.T.);
#854 = ORIENTED_EDGE('',*,*,#589,.F.);
#855 = ADVANCED_FACE('',(#856),#766,.T.);
#856 = FACE_BOUND('',#857,.T.);
#857 = EDGE_LOOP('',(#858,#859,#860));
#858 = ORIENTED_EDGE('',*,*,#752,.F.);
#859 = ORIENTED_EDGE('',*,*,#833,.T.);
#860 = ORIENTED_EDGE('',*,*,#807,.F.);
#861 = ( GEOMETRIC_REPRESENTATION_CONTEXT(3) 
GLOBAL_UNCERTAINTY_ASSIGNED_CONTEXT((#865)) GLOBAL_UNIT_ASSIGNED_CONTEXT
((#862,#863,#864)) REPRESENTATION_CONTEXT('Context #1',
  '3D Context with UNIT and UNCERTAINTY') );
#862 = ( LENGTH_UNIT() NAMED_UNIT(*) SI_UNIT(.MILLI.,.METRE.) );
#863 = ( NAMED_UNIT(*) PLANE_ANGLE_UNIT() SI_UNIT($,.RADIAN.) );
#864 = ( NAMED_UNIT(*) SI_UNIT($,.STERADIAN.) SOLID_ANGLE_UNIT() );
#865 = UNCERTAINTY_MEASURE_WITH_UNIT(LENGTH_MEASURE(1.E-07),#862,
  'distance_accuracy_value','confusion accuracy');
#866 = PRODUCT_TYPE('part',$,(#7));
ENDSEC;
END-ISO-10303-21;
