ISO-10303-21;
HEADER;
FILE_DESCRIPTION(('Open CASCADE Model'),'2;1');
FILE_NAME('Open CASCADE Shape Model','2026-10-04T20:44:42',('Author'),(
    'Open CASCADE'),'Open CASCADE STEP processor 7.8','Open CASCADE 7.8'
  ,'Unknown');
FILE_SCHEMA(('AUTOMOTIVE_DESIGN_CC2 { 1 2 10303 214 -1 1 5 4 }'));
ENDSEC;
DATA;
#1 = APPLICATION_PROTOCOL_DEFINITION('committee draft',
  'automotive_design',1997,#2);
#2 = APPLICATION_CONTEXT(
  'core data for automotive mechanical design processes');
#3 = SHAPE_DEFINITION_REPRESENTATION(#4,#10);
#4 = PRODUCT_DEFINITION_SHAPE('','',#5);
#5 = PRODUCT_DEFINITION('design','',#6,#9);
#6 = PRODUCT_DEFINITION_FORMATION('','',#7);
#7 = PRODUCT('Open CASCADE STEP translator 7.8 98',
  'Open CASCADE STEP translator 7.8 98','',(#8));
#8 = MECHANICAL_CONTEXT('',#2,'mechanical');
#9 = PRODUCT_DEFINITION_CONTEXT('part definition',#2,'design');
#10 = ADVANCED_BREP_SHAPE_REPRESENTATION('',(#11,#15),#861);
#11 = AXIS2_PLACEMENT_3D('',#12,#13,#14);
#12 = CARTESIAN_POINT('',(0.,0.,0.));
#13 = DIRECTION('',(0.,0.,1.));
#14 = DIRECTION('',(1.,0.,-0.));
#15 = MANIFOLD_SOLID_BREP('',#16);
#16 = CLOSED_SHELL('',(#17,#109,#167,#220,#278,#331,#389,#420,#473,#504,
    #552,#578,#609,#640,#693,#724,#777,#803,#829,#855));
#17 = ADVANCED_FACE('',(#18),#32,.T.);
#18 = FACE_BOUND('',#19,.T.);
#19 = EDGE_LOOP('',(#20,#55,#83));
#20 = ORIENTED_EDGE('',*,*,#21,.T.);
#21 = EDGE_CURVE('',#22,#24,#26,.T.);
#22 = VERTEX_POINT('',#23);
#23 = CARTESIAN_POINT('',(-30.76795535395,-20.56538898681,
    3.33567207451E-02));
#24 = VERTEX_POINT('',#25);
#25 = CARTESIAN_POINT('',(-30.76392968456,20.54442557057,21.726646933419
    ));
#26 = SURFACE_CURVE('',#27,(#31,#43),.PCURVE_S1.);
#27 = LINE('',#28,#29);
#28 = CARTESIAN_POINT('',(-30.76795535395,-20.56538898681,
    3.33567207451E-02));
#29 = VECTOR('',#30,1.);
#30 = DIRECTION('',(8.660627130193E-05,0.884416330293,0.466698775668));
#31 = PCURVE('',#32,#37);
#32 = PLANE('',#33);
#33 = AXIS2_PLACEMENT_3D('',#34,#35,#36);
#34 = CARTESIAN_POINT('',(-30.76795535395,-20.56538898681,
    3.33567207451E-02));
#35 = DIRECTION('',(-0.999998633179,-6.939717376819E-04,
    1.500681225254E-03));
#36 = DIRECTION('',(-1.500681586616E-03,1.403477601113E-22,
    -0.999998873977));
#37 = DEFINITIONAL_REPRESENTATION('',(#38),#42);
#38 = LINE('',#39,#40);
#39 = CARTESIAN_POINT('',(0.,0.));
#40 = VECTOR('',#41,1.);
#41 = DIRECTION('',(-0.466698380123,-0.884416543259));
#42 = ( GEOMETRIC_REPRESENTATION_CONTEXT(2) 
PARAMETRIC_REPRESENTATION_CONTEXT() REPRESENTATION_CONTEXT('2D SPACE',''
  ) );
#43 = PCURVE('',#44,#49);
#44 = PLANE('',#45);
#45 = AXIS2_PLACEMENT_3D('',#46,#47,#48);
#46 = CARTESIAN_POINT('',(-30.78661154214,-20.56953870711,
    21.732056814196));
#47 = DIRECTION('',(-0.999999478363,5.515691662035E-04,
    -8.596777464806E-04));
#48 = DIRECTION('',(8.596778772499E-04,1.253868456192E-23,
    -0.999999630477));
#49 = DEFINITIONAL_REPRESENTATION('',(#50),#54);
#50 = LINE('',#51,#52);
#51 = CARTESIAN_POINT('',(21.698708113593,-4.149720933086E-03));
#52 = VECTOR('',#53,1.);
#53 = DIRECTION('',(-0.466698528759,-0.884416464826));
#54 = ( GEOMETRIC_REPRESENTATION_CONTEXT(2) 
PARAMETRIC_REPRESENTATION_CONTEXT() REPRESENTATION_CONTEXT('2D SPACE',''
  ) );
#55 = ORIENTED_EDGE('',*,*,#56,.F.);
#56 = EDGE_CURVE('',#57,#24,#59,.T.);
#57 = VERTEX_POINT('',#58);
#58 = CARTESIAN_POINT('',(-30.79661003231,20.590644442501,
    -2.89584172266E-02));
#59 = SURFACE_CURVE('',#60,(#64,#71),.PCURVE_S1.);
#60 = LINE('',#61,#62);
#61 = CARTESIAN_POINT('',(-30.79661003231,20.590644442501,
    -2.89584172266E-02));
#62 = VECTOR('',#63,1.);
#63 = DIRECTION('',(1.502152507685E-03,-2.124450905441E-03,
    0.999996615117));
#64 = PCURVE('',#32,#65);
#65 = DEFINITIONAL_REPRESENTATION('',(#66),#70);
#66 = LINE('',#67,#68);
#67 = CARTESIAN_POINT('',(6.235806935159E-02,-41.15604333962));
#68 = VECTOR('',#69,1.);
#69 = DIRECTION('',(-0.999997743351,2.124451417006E-03));
#70 = ( GEOMETRIC_REPRESENTATION_CONTEXT(2) 
PARAMETRIC_REPRESENTATION_CONTEXT() REPRESENTATION_CONTEXT('2D SPACE',''
  ) );
#71 = PCURVE('',#72,#77);
#72 = PLANE('',#73);
#73 = AXIS2_PLACEMENT_3D('',#74,#75,#76);
#74 = CARTESIAN_POINT('',(30.79813478113,20.602850834492,
    -1.879956410923E-02));
#75 = DIRECTION('',(-1.985226056575E-04,0.999997723007,
    2.124751471346E-03));
#76 = DIRECTION('',(-5.316229600798E-23,-2.124751513216E-03,
    0.999997742713));
#77 = DEFINITIONAL_REPRESENTATION('',(#78),#82);
#78 = LINE('',#79,#80);
#79 = CARTESIAN_POINT('',(-1.013289463607E-02,-61.5947460272));
#80 = VECTOR('',#81,1.);
#81 = DIRECTION('',(0.999998871768,1.502152537286E-03));
#82 = ( GEOMETRIC_REPRESENTATION_CONTEXT(2) 
PARAMETRIC_REPRESENTATION_CONTEXT() REPRESENTATION_CONTEXT('2D SPACE',''
  ) );
#83 = ORIENTED_EDGE('',*,*,#84,.T.);
#84 = EDGE_CURVE('',#57,#22,#85,.T.);
#85 = SURFACE_CURVE('',#86,(#90,#97),.PCURVE_S1.);
#86 = LINE('',#87,#88);
#87 = CARTESIAN_POINT('',(-30.79661003231,20.590644442501,
    -2.89584172266E-02));
#88 = VECTOR('',#89,1.);
#89 = DIRECTION('',(6.962439326483E-04,-0.999998611346,
    1.514117038139E-03));
#90 = PCURVE('',#32,#91);
#91 = DEFINITIONAL_REPRESENTATION('',(#92),#96);
#92 = LINE('',#93,#94);
#93 = CARTESIAN_POINT('',(6.235806935159E-02,-41.15604333962));
#94 = VECTOR('',#95,1.);
#95 = DIRECTION('',(-1.515160173657E-03,0.999998852144));
#96 = ( GEOMETRIC_REPRESENTATION_CONTEXT(2) 
PARAMETRIC_REPRESENTATION_CONTEXT() REPRESENTATION_CONTEXT('2D SPACE',''
  ) );
#97 = PCURVE('',#98,#103);
#98 = PLANE('',#99);
#99 = AXIS2_PLACEMENT_3D('',#100,#101,#102);
#100 = CARTESIAN_POINT('',(30.787659771535,-20.57725514284,
    1.088123629246E-02));
#101 = DIRECTION('',(-3.654163296979E-04,-1.51437172271E-03,
    -0.999998786574));
#102 = DIRECTION('',(-4.05080495647E-23,-0.999998853338,
    1.514371823817E-03));
#103 = DEFINITIONAL_REPRESENTATION('',(#104),#108);
#104 = LINE('',#105,#106);
#105 = CARTESIAN_POINT('',(-41.16791271174,61.584273915495));
#106 = VECTOR('',#107,1.);
#107 = DIRECTION('',(0.999999757622,-6.962439791327E-04));
#108 = ( GEOMETRIC_REPRESENTATION_CONTEXT(2) 
PARAMETRIC_REPRESENTATION_CONTEXT() REPRESENTATION_CONTEXT('2D SPACE',''
  ) );
#109 = ADVANCED_FACE('',(#110),#44,.T.);
#110 = FACE_BOUND('',#111,.T.);
#111 = EDGE_LOOP('',(#112,#140,#141));
#112 = ORIENTED_EDGE('',*,*,#113,.T.);
#113 = EDGE_CURVE('',#114,#24,#116,.T.);
#114 = VERTEX_POINT('',#115);
#115 = CARTESIAN_POINT('',(-30.78661154214,-20.56953870711,
    21.732056814196));
#116 = SURFACE_CURVE('',#117,(#121,#128),.PCURVE_S1.);
#117 = LINE('',#118,#119);
#118 = CARTESIAN_POINT('',(-30.78661154214,-20.56953870711,
    21.732056814196));
#119 = VECTOR('',#120,1.);
#120 = DIRECTION('',(5.516824838534E-04,0.999999839166,
    -1.315825414122E-04));
#121 = PCURVE('',#44,#122);
#122 = DEFINITIONAL_REPRESENTATION('',(#123),#127);
#123 = LINE('',#124,#125);
#124 = CARTESIAN_POINT('',(0.,-0.));
#125 = VECTOR('',#126,1.);
#126 = DIRECTION('',(1.32056762016E-04,-0.999999991281));
#127 = ( GEOMETRIC_REPRESENTATION_CONTEXT(2) 
PARAMETRIC_REPRESENTATION_CONTEXT() REPRESENTATION_CONTEXT('2D SPACE',''
  ) );
#128 = PCURVE('',#129,#134);
#129 = PLANE('',#130);
#130 = AXIS2_PLACEMENT_3D('',#131,#132,#133);
#131 = CARTESIAN_POINT('',(-30.76392968456,20.54442557057,
    21.726646933419));
#132 = DIRECTION('',(-0.704891581348,4.822098730799E-04,0.709314899053)
  );
#133 = DIRECTION('',(0.70931498152,-4.296314072701E-23,0.704891663301));
#134 = DEFINITIONAL_REPRESENTATION('',(#135),#139);
#135 = LINE('',#136,#137);
#136 = CARTESIAN_POINT('',(-1.227520153211E-02,-41.11396905773));
#137 = VECTOR('',#138,1.);
#138 = DIRECTION('',(2.98565214362E-04,0.999999955429));
#139 = ( GEOMETRIC_REPRESENTATION_CONTEXT(2) 
PARAMETRIC_REPRESENTATION_CONTEXT() REPRESENTATION_CONTEXT('2D SPACE',''
  ) );
#140 = ORIENTED_EDGE('',*,*,#21,.F.);
#141 = ORIENTED_EDGE('',*,*,#142,.F.);
#142 = EDGE_CURVE('',#114,#22,#143,.T.);
#143 = SURFACE_CURVE('',#144,(#148,#155),.PCURVE_S1.);
#144 = LINE('',#145,#146);
#145 = CARTESIAN_POINT('',(-30.78661154214,-20.56953870711,
    21.732056814196));
#146 = VECTOR('',#147,1.);
#147 = DIRECTION('',(8.597833451005E-04,1.912427322514E-04,
    -0.999999612099));
#148 = PCURVE('',#44,#149);
#149 = DEFINITIONAL_REPRESENTATION('',(#150),#154);
#150 = LINE('',#151,#152);
#151 = CARTESIAN_POINT('',(0.,-0.));
#152 = VECTOR('',#153,1.);
#153 = DIRECTION('',(0.999999981713,-1.912427613421E-04));
#154 = ( GEOMETRIC_REPRESENTATION_CONTEXT(2) 
PARAMETRIC_REPRESENTATION_CONTEXT() REPRESENTATION_CONTEXT('2D SPACE',''
  ) );
#155 = PCURVE('',#156,#161);
#156 = PLANE('',#157);
#157 = AXIS2_PLACEMENT_3D('',#158,#159,#160);
#158 = CARTESIAN_POINT('',(30.787659771535,-20.57725514284,
    1.088123629246E-02));
#159 = DIRECTION('',(-1.928411822046E-04,-0.999999963088,
    -1.914086010763E-04));
#160 = DIRECTION('',(-0.999999981406,1.928411857371E-04,
    -7.074129097576E-26));
#161 = DEFINITIONAL_REPRESENTATION('',(#162),#166);
#162 = LINE('',#163,#164);
#163 = CARTESIAN_POINT('',(61.574271656821,-21.7211759758));
#164 = VECTOR('',#165,1.);
#165 = DIRECTION('',(-8.597464496386E-04,0.999999630418));
#166 = ( GEOMETRIC_REPRESENTATION_CONTEXT(2) 
PARAMETRIC_REPRESENTATION_CONTEXT() REPRESENTATION_CONTEXT('2D SPACE',''
  ) );
#167 = ADVANCED_FACE('',(#168),#156,.T.);
#168 = FACE_BOUND('',#169,.T.);
#169 = EDGE_LOOP('',(#170,#198,#199));
#170 = ORIENTED_EDGE('',*,*,#171,.F.);
#171 = EDGE_CURVE('',#114,#172,#174,.T.);
#172 = VERTEX_POINT('',#173);
#173 = CARTESIAN_POINT('',(30.787659771535,-20.57725514284,
    1.088123629246E-02));
#174 = SURFACE_CURVE('',#175,(#179,#186),.PCURVE_S1.);
#175 = LINE('',#176,#177);
#176 = CARTESIAN_POINT('',(-30.78661154214,-20.56953870711,
    21.732056814196));
#177 = VECTOR('',#178,1.);
#178 = DIRECTION('',(0.94304280553,-1.181813286891E-04,-0.332671388867)
  );
#179 = PCURVE('',#156,#180);
#180 = DEFINITIONAL_REPRESENTATION('',(#181),#185);
#181 = LINE('',#182,#183);
#182 = CARTESIAN_POINT('',(61.574271656821,-21.7211759758));
#183 = VECTOR('',#184,1.);
#184 = DIRECTION('',(-0.943042810786,0.332671394961));
#185 = ( GEOMETRIC_REPRESENTATION_CONTEXT(2) 
PARAMETRIC_REPRESENTATION_CONTEXT() REPRESENTATION_CONTEXT('2D SPACE',''
  ) );
#186 = PCURVE('',#187,#192);
#187 = PLANE('',#188);
#188 = AXIS2_PLACEMENT_3D('',#189,#190,#191);
#189 = CARTESIAN_POINT('',(30.801613821619,-20.59827167986,
    21.74056041502));
#190 = DIRECTION('',(-4.663997711257E-04,-0.999999423806,
    -9.668811290406E-04));
#191 = DIRECTION('',(-1.603118044143E-23,9.668812342028E-04,
    -0.99999953257));
#192 = DEFINITIONAL_REPRESENTATION('',(#193),#197);
#193 = LINE('',#194,#195);
#194 = CARTESIAN_POINT('',(8.531378221121E-03,-61.58823206236));
#195 = VECTOR('',#196,1.);
#196 = DIRECTION('',(0.332671119099,0.9430429081));
#197 = ( GEOMETRIC_REPRESENTATION_CONTEXT(2) 
PARAMETRIC_REPRESENTATION_CONTEXT() REPRESENTATION_CONTEXT('2D SPACE',''
  ) );
#198 = ORIENTED_EDGE('',*,*,#142,.T.);
#199 = ORIENTED_EDGE('',*,*,#200,.T.);
#200 = EDGE_CURVE('',#22,#172,#201,.T.);
#201 = SURFACE_CURVE('',#202,(#206,#213),.PCURVE_S1.);
#202 = LINE('',#203,#204);
#203 = CARTESIAN_POINT('',(-30.76795535395,-20.56538898681,
    3.33567207451E-02));
#204 = VECTOR('',#205,1.);
#205 = DIRECTION('',(0.999999914762,-1.927712848528E-04,
    -3.651248142196E-04));
#206 = PCURVE('',#156,#207);
#207 = DEFINITIONAL_REPRESENTATION('',(#208),#212);
#208 = LINE('',#209,#210);
#209 = CARTESIAN_POINT('',(61.555616269217,-2.247548486437E-02));
#210 = VECTOR('',#211,1.);
#211 = DIRECTION('',(-0.999999933342,3.651248209082E-04));
#212 = ( GEOMETRIC_REPRESENTATION_CONTEXT(2) 
PARAMETRIC_REPRESENTATION_CONTEXT() REPRESENTATION_CONTEXT('2D SPACE',''
  ) );
#213 = PCURVE('',#98,#214);
#214 = DEFINITIONAL_REPRESENTATION('',(#215),#219);
#215 = LINE('',#216,#217);
#216 = CARTESIAN_POINT('',(-1.183210618225E-02,61.555619235224));
#217 = VECTOR('',#218,1.);
#218 = DIRECTION('',(1.922181290786E-04,-0.999999981526));
#219 = ( GEOMETRIC_REPRESENTATION_CONTEXT(2) 
PARAMETRIC_REPRESENTATION_CONTEXT() REPRESENTATION_CONTEXT('2D SPACE',''
  ) );
#220 = ADVANCED_FACE('',(#221),#187,.T.);
#221 = FACE_BOUND('',#222,.T.);
#222 = EDGE_LOOP('',(#223,#251,#252));
#223 = ORIENTED_EDGE('',*,*,#224,.F.);
#224 = EDGE_CURVE('',#114,#225,#227,.T.);
#225 = VERTEX_POINT('',#226);
#226 = CARTESIAN_POINT('',(30.801613821619,-20.59827167986,
    21.74056041502));
#227 = SURFACE_CURVE('',#228,(#232,#239),.PCURVE_S1.);
#228 = LINE('',#229,#230);
#229 = CARTESIAN_POINT('',(-30.78661154214,-20.56953870711,
    21.732056814196));
#230 = VECTOR('',#231,1.);
#231 = DIRECTION('',(0.999999881641,-4.665334837971E-04,
    1.380718435563E-04));
#232 = PCURVE('',#187,#233);
#233 = DEFINITIONAL_REPRESENTATION('',(#234),#238);
#234 = LINE('',#235,#236);
#235 = CARTESIAN_POINT('',(8.531378221121E-03,-61.58823206236));
#236 = VECTOR('',#237,1.);
#237 = DIRECTION('',(-1.38522861488E-04,0.999999990406));
#238 = ( GEOMETRIC_REPRESENTATION_CONTEXT(2) 
PARAMETRIC_REPRESENTATION_CONTEXT() REPRESENTATION_CONTEXT('2D SPACE',''
  ) );
#239 = PCURVE('',#240,#245);
#240 = PLANE('',#241);
#241 = AXIS2_PLACEMENT_3D('',#242,#243,#244);
#242 = CARTESIAN_POINT('',(30.801613821619,-20.59827167986,
    21.74056041502));
#243 = DIRECTION('',(-4.268255305402E-04,-0.704993415237,0.709213721167)
  );
#244 = DIRECTION('',(-2.29210840582E-20,0.70921378577,0.704993479455));
#245 = DEFINITIONAL_REPRESENTATION('',(#246),#250);
#246 = LINE('',#247,#248);
#247 = CARTESIAN_POINT('',(1.438283724113E-02,61.588230973836));
#248 = VECTOR('',#249,1.);
#249 = DIRECTION('',(-2.335322288285E-04,-0.999999972731));
#250 = ( GEOMETRIC_REPRESENTATION_CONTEXT(2) 
PARAMETRIC_REPRESENTATION_CONTEXT() REPRESENTATION_CONTEXT('2D SPACE',''
  ) );
#251 = ORIENTED_EDGE('',*,*,#171,.T.);
#252 = ORIENTED_EDGE('',*,*,#253,.T.);
#253 = EDGE_CURVE('',#172,#225,#254,.T.);
#254 = SURFACE_CURVE('',#255,(#259,#266),.PCURVE_S1.);
#255 = LINE('',#256,#257);
#256 = CARTESIAN_POINT('',(30.787659771535,-20.57725514284,
    1.088123629246E-02));
#257 = VECTOR('',#258,1.);
#258 = DIRECTION('',(6.421650575723E-04,-9.671805403719E-04,
    0.999999326093));
#259 = PCURVE('',#187,#260);
#260 = DEFINITIONAL_REPRESENTATION('',(#261),#265);
#261 = LINE('',#262,#263);
#262 = CARTESIAN_POINT('',(21.729689342124,-1.395405160227E-02));
#263 = VECTOR('',#264,1.);
#264 = DIRECTION('',(-0.999999793812,6.42165127417E-04));
#265 = ( GEOMETRIC_REPRESENTATION_CONTEXT(2) 
PARAMETRIC_REPRESENTATION_CONTEXT() REPRESENTATION_CONTEXT('2D SPACE',''
  ) );
#266 = PCURVE('',#267,#272);
#267 = PLANE('',#268);
#268 = AXIS2_PLACEMENT_3D('',#269,#270,#271);
#269 = CARTESIAN_POINT('',(30.801613821619,-20.59827167986,
    21.74056041502));
#270 = DIRECTION('',(0.999999183315,1.105606877086E-03,
    -6.410956437077E-04));
#271 = DIRECTION('',(-1.105607104291E-03,0.999999388816,
    -7.691732191875E-23));
#272 = DEFINITIONAL_REPRESENTATION('',(#273),#277);
#273 = LINE('',#274,#275);
#274 = CARTESIAN_POINT('',(2.103195186533E-02,-21.72968364421));
#275 = VECTOR('',#276,1.);
#276 = DIRECTION('',(-9.678899314967E-04,0.999999531594));
#277 = ( GEOMETRIC_REPRESENTATION_CONTEXT(2) 
PARAMETRIC_REPRESENTATION_CONTEXT() REPRESENTATION_CONTEXT('2D SPACE',''
  ) );
#278 = ADVANCED_FACE('',(#279),#129,.T.);
#279 = FACE_BOUND('',#280,.T.);
#280 = EDGE_LOOP('',(#281,#282,#305));
#281 = ORIENTED_EDGE('',*,*,#113,.F.);
#282 = ORIENTED_EDGE('',*,*,#283,.T.);
#283 = EDGE_CURVE('',#114,#284,#286,.T.);
#284 = VERTEX_POINT('',#285);
#285 = CARTESIAN_POINT('',(-26.67070929526,-16.4601203099,
    25.819498435999));
#286 = SURFACE_CURVE('',#287,(#291,#298),.PCURVE_S1.);
#287 = LINE('',#288,#289);
#288 = CARTESIAN_POINT('',(-30.78661154214,-20.56953870711,
    21.732056814196));
#289 = VECTOR('',#290,1.);
#290 = DIRECTION('',(0.578986280093,0.578074193321,0.574982707984));
#291 = PCURVE('',#129,#292);
#292 = DEFINITIONAL_REPRESENTATION('',(#293),#297);
#293 = LINE('',#294,#295);
#294 = CARTESIAN_POINT('',(-1.227520153211E-02,-41.11396905773));
#295 = VECTOR('',#296,1.);
#296 = DIRECTION('',(0.815984159965,0.578074260529));
#297 = ( GEOMETRIC_REPRESENTATION_CONTEXT(2) 
PARAMETRIC_REPRESENTATION_CONTEXT() REPRESENTATION_CONTEXT('2D SPACE',''
  ) );
#298 = PCURVE('',#240,#299);
#299 = DEFINITIONAL_REPRESENTATION('',(#300),#304);
#300 = LINE('',#301,#302);
#301 = CARTESIAN_POINT('',(1.438283724113E-02,61.588230973836));
#302 = VECTOR('',#303,1.);
#303 = DIRECTION('',(0.815337247029,-0.578986332833));
#304 = ( GEOMETRIC_REPRESENTATION_CONTEXT(2) 
PARAMETRIC_REPRESENTATION_CONTEXT() REPRESENTATION_CONTEXT('2D SPACE',''
  ) );
#305 = ORIENTED_EDGE('',*,*,#306,.F.);
#306 = EDGE_CURVE('',#24,#284,#307,.T.);
#307 = SURFACE_CURVE('',#308,(#312,#319),.PCURVE_S1.);
#308 = LINE('',#309,#310);
#309 = CARTESIAN_POINT('',(-30.76392968456,20.54442557057,
    21.726646933419));
#310 = VECTOR('',#311,1.);
#311 = DIRECTION('',(0.109285036601,-0.987985685186,0.109275187681));
#312 = PCURVE('',#129,#313);
#313 = DEFINITIONAL_REPRESENTATION('',(#314),#318);
#314 = LINE('',#315,#316);
#315 = CARTESIAN_POINT('',(0.,0.));
#316 = VECTOR('',#317,1.);
#317 = DIRECTION('',(0.154544682519,-0.987985800052));
#318 = ( GEOMETRIC_REPRESENTATION_CONTEXT(2) 
PARAMETRIC_REPRESENTATION_CONTEXT() REPRESENTATION_CONTEXT('2D SPACE',''
  ) );
#319 = PCURVE('',#320,#325);
#320 = PLANE('',#321);
#321 = AXIS2_PLACEMENT_3D('',#322,#323,#324);
#322 = CARTESIAN_POINT('',(-26.67451181321,16.466041227861,
    25.851359197482));
#323 = DIRECTION('',(-0.7105153913,-7.629667932063E-04,0.703681246451));
#324 = DIRECTION('',(-0.703681451264,-1.300353064157E-20,-0.710515598102
    ));
#325 = DEFINITIONAL_REPRESENTATION('',(#326),#330);
#326 = LINE('',#327,#328);
#327 = CARTESIAN_POINT('',(5.808319903839,-4.078385529761));
#328 = VECTOR('',#329,1.);
#329 = DIRECTION('',(-0.15454357849,0.987985972748));
#330 = ( GEOMETRIC_REPRESENTATION_CONTEXT(2) 
PARAMETRIC_REPRESENTATION_CONTEXT() REPRESENTATION_CONTEXT('2D SPACE',''
  ) );
#331 = ADVANCED_FACE('',(#332),#320,.T.);
#332 = FACE_BOUND('',#333,.T.);
#333 = EDGE_LOOP('',(#334,#362,#363));
#334 = ORIENTED_EDGE('',*,*,#335,.F.);
#335 = EDGE_CURVE('',#24,#336,#338,.T.);
#336 = VERTEX_POINT('',#337);
#337 = CARTESIAN_POINT('',(-26.67451181321,16.466041227861,
    25.851359197482));
#338 = SURFACE_CURVE('',#339,(#343,#350),.PCURVE_S1.);
#339 = LINE('',#340,#341);
#340 = CARTESIAN_POINT('',(-30.76392968456,20.54442557057,
    21.726646933419));
#341 = VECTOR('',#342,1.);
#342 = DIRECTION('',(0.576204094627,-0.574649456636,0.581177118719));
#343 = PCURVE('',#320,#344);
#344 = DEFINITIONAL_REPRESENTATION('',(#345),#349);
#345 = LINE('',#346,#347);
#346 = CARTESIAN_POINT('',(5.808319903839,-4.078385529761));
#347 = VECTOR('',#348,1.);
#348 = DIRECTION('',(-0.818399541642,0.574649623893));
#349 = ( GEOMETRIC_REPRESENTATION_CONTEXT(2) 
PARAMETRIC_REPRESENTATION_CONTEXT() REPRESENTATION_CONTEXT('2D SPACE',''
  ) );
#350 = PCURVE('',#351,#356);
#351 = PLANE('',#352);
#352 = AXIS2_PLACEMENT_3D('',#353,#354,#355);
#353 = CARTESIAN_POINT('',(30.756108025526,20.550268708105,
    21.722388876232));
#354 = DIRECTION('',(-1.887265379746E-05,0.711079551814,0.703111563435)
  );
#355 = DIRECTION('',(9.161818821137E-22,-0.70311156356,0.71107955194));
#356 = DEFINITIONAL_REPRESENTATION('',(#357),#361);
#357 = LINE('',#358,#359);
#358 = CARTESIAN_POINT('',(7.136194964895E-03,-61.52003772104));
#359 = VECTOR('',#360,1.);
#360 = DIRECTION('',(0.817305843132,0.576204094729));
#361 = ( GEOMETRIC_REPRESENTATION_CONTEXT(2) 
PARAMETRIC_REPRESENTATION_CONTEXT() REPRESENTATION_CONTEXT('2D SPACE',''
  ) );
#362 = ORIENTED_EDGE('',*,*,#306,.T.);
#363 = ORIENTED_EDGE('',*,*,#364,.F.);
#364 = EDGE_CURVE('',#336,#284,#365,.T.);
#365 = SURFACE_CURVE('',#366,(#370,#377),.PCURVE_S1.);
#366 = LINE('',#367,#368);
#367 = CARTESIAN_POINT('',(-26.67451181321,16.466041227861,
    25.851359197482));
#368 = VECTOR('',#369,1.);
#369 = DIRECTION('',(1.154861655417E-04,-0.999999525166,
    -9.676422901101E-04));
#370 = PCURVE('',#320,#371);
#371 = DEFINITIONAL_REPRESENTATION('',(#372),#376);
#372 = LINE('',#373,#374);
#373 = CARTESIAN_POINT('',(-0.,0.));
#374 = VECTOR('',#375,1.);
#375 = DIRECTION('',(6.062594679373E-04,0.999999816225));
#376 = ( GEOMETRIC_REPRESENTATION_CONTEXT(2) 
PARAMETRIC_REPRESENTATION_CONTEXT() REPRESENTATION_CONTEXT('2D SPACE',''
  ) );
#377 = PCURVE('',#378,#383);
#378 = PLANE('',#379);
#379 = AXIS2_PLACEMENT_3D('',#380,#381,#382);
#380 = CARTESIAN_POINT('',(26.673047428428,-16.4636468711,
    25.809548809701));
#381 = DIRECTION('',(1.864549799963E-04,-9.676207467819E-04,
    0.999999514472));
#382 = DIRECTION('',(1.656566290193E-24,0.999999531855,
    9.676207636018E-04));
#383 = DEFINITIONAL_REPRESENTATION('',(#384),#388);
#384 = LINE('',#385,#386);
#385 = CARTESIAN_POINT('',(32.929713139692,53.347560168964));
#386 = VECTOR('',#387,1.);
#387 = DIRECTION('',(-0.999999993331,-1.154861675492E-04));
#388 = ( GEOMETRIC_REPRESENTATION_CONTEXT(2) 
PARAMETRIC_REPRESENTATION_CONTEXT() REPRESENTATION_CONTEXT('2D SPACE',''
  ) );
#389 = ADVANCED_FACE('',(#390),#98,.T.);
#390 = FACE_BOUND('',#391,.T.);
#391 = EDGE_LOOP('',(#392,#393,#394));
#392 = ORIENTED_EDGE('',*,*,#200,.F.);
#393 = ORIENTED_EDGE('',*,*,#84,.F.);
#394 = ORIENTED_EDGE('',*,*,#395,.T.);
#395 = EDGE_CURVE('',#57,#172,#396,.T.);
#396 = SURFACE_CURVE('',#397,(#401,#408),.PCURVE_S1.);
#397 = LINE('',#398,#399);
#398 = CARTESIAN_POINT('',(-30.79661003231,20.590644442501,
    -2.89584172266E-02));
#399 = VECTOR('',#400,1.);
#400 = DIRECTION('',(0.831353447762,-0.555743785977,5.378132015886E-04)
  );
#401 = PCURVE('',#98,#402);
#402 = DEFINITIONAL_REPRESENTATION('',(#403),#407);
#403 = LINE('',#404,#405);
#404 = CARTESIAN_POINT('',(-41.16791271174,61.584273915495));
#405 = VECTOR('',#406,1.);
#406 = DIRECTION('',(0.555743963176,-0.831353503267));
#407 = ( GEOMETRIC_REPRESENTATION_CONTEXT(2) 
PARAMETRIC_REPRESENTATION_CONTEXT() REPRESENTATION_CONTEXT('2D SPACE',''
  ) );
#408 = PCURVE('',#409,#414);
#409 = PLANE('',#410);
#410 = AXIS2_PLACEMENT_3D('',#411,#412,#413);
#411 = CARTESIAN_POINT('',(30.79813478113,20.602850834492,
    -1.879956410923E-02));
#412 = DIRECTION('',(1.650733144322E-04,-7.207975969723E-04,
    -0.999999726601));
#413 = DIRECTION('',(-9.123820492229E-24,-0.999999740225,
    7.207976067929E-04));
#414 = DEFINITIONAL_REPRESENTATION('',(#415),#419);
#415 = LINE('',#416,#417);
#416 = CARTESIAN_POINT('',(1.2199066343E-02,61.594745652648));
#417 = VECTOR('',#418,1.);
#418 = DIRECTION('',(0.555744029263,-0.831353459089));
#419 = ( GEOMETRIC_REPRESENTATION_CONTEXT(2) 
PARAMETRIC_REPRESENTATION_CONTEXT() REPRESENTATION_CONTEXT('2D SPACE',''
  ) );
#420 = ADVANCED_FACE('',(#421),#409,.T.);
#421 = FACE_BOUND('',#422,.T.);
#422 = EDGE_LOOP('',(#423,#451,#452));
#423 = ORIENTED_EDGE('',*,*,#424,.F.);
#424 = EDGE_CURVE('',#172,#425,#427,.T.);
#425 = VERTEX_POINT('',#426);
#426 = CARTESIAN_POINT('',(30.79813478113,20.602850834492,
    -1.879956410923E-02));
#427 = SURFACE_CURVE('',#428,(#432,#439),.PCURVE_S1.);
#428 = LINE('',#429,#430);
#429 = CARTESIAN_POINT('',(30.787659771535,-20.57725514284,
    1.088123629246E-02));
#430 = VECTOR('',#431,1.);
#431 = DIRECTION('',(2.543705580001E-04,0.999999707903,
    -7.207555936928E-04));
#432 = PCURVE('',#409,#433);
#433 = DEFINITIONAL_REPRESENTATION('',(#434),#438);
#434 = LINE('',#435,#436);
#435 = CARTESIAN_POINT('',(41.180116673642,1.047500973839E-02));
#436 = VECTOR('',#437,1.);
#437 = DIRECTION('',(-0.999999967648,-2.543705614658E-04));
#438 = ( GEOMETRIC_REPRESENTATION_CONTEXT(2) 
PARAMETRIC_REPRESENTATION_CONTEXT() REPRESENTATION_CONTEXT('2D SPACE',''
  ) );
#439 = PCURVE('',#440,#445);
#440 = PLANE('',#441);
#441 = AXIS2_PLACEMENT_3D('',#442,#443,#444);
#442 = CARTESIAN_POINT('',(30.787659771535,-20.57725514284,
    1.088123629246E-02));
#443 = DIRECTION('',(0.999998100852,-2.529773374528E-04,
    1.932432250349E-03));
#444 = DIRECTION('',(-1.932432312184E-03,2.905132218096E-23,
    0.999998132851));
#445 = DEFINITIONAL_REPRESENTATION('',(#446),#450);
#446 = LINE('',#447,#448);
#447 = CARTESIAN_POINT('',(0.,-0.));
#448 = VECTOR('',#449,1.);
#449 = DIRECTION('',(-7.212458018202E-04,-0.999999739902));
#450 = ( GEOMETRIC_REPRESENTATION_CONTEXT(2) 
PARAMETRIC_REPRESENTATION_CONTEXT() REPRESENTATION_CONTEXT('2D SPACE',''
  ) );
#451 = ORIENTED_EDGE('',*,*,#395,.F.);
#452 = ORIENTED_EDGE('',*,*,#453,.T.);
#453 = EDGE_CURVE('',#57,#425,#454,.T.);
#454 = SURFACE_CURVE('',#455,(#459,#466),.PCURVE_S1.);
#455 = LINE('',#456,#457);
#456 = CARTESIAN_POINT('',(-30.79661003231,20.590644442501,
    -2.89584172266E-02));
#457 = VECTOR('',#458,1.);
#458 = DIRECTION('',(0.999999966763,1.981726139493E-04,
    1.649305116935E-04));
#459 = PCURVE('',#409,#460);
#460 = DEFINITIONAL_REPRESENTATION('',(#461),#465);
#461 = LINE('',#462,#463);
#462 = CARTESIAN_POINT('',(1.2199066343E-02,61.594745652648));
#463 = VECTOR('',#464,1.);
#464 = DIRECTION('',(-1.98053680951E-04,-0.999999980387));
#465 = ( GEOMETRIC_REPRESENTATION_CONTEXT(2) 
PARAMETRIC_REPRESENTATION_CONTEXT() REPRESENTATION_CONTEXT('2D SPACE',''
  ) );
#466 = PCURVE('',#72,#467);
#467 = DEFINITIONAL_REPRESENTATION('',(#468),#472);
#468 = LINE('',#469,#470);
#469 = CARTESIAN_POINT('',(-1.013289463607E-02,-61.5947460272));
#470 = VECTOR('',#471,1.);
#471 = DIRECTION('',(1.645090718367E-04,0.999999986468));
#472 = ( GEOMETRIC_REPRESENTATION_CONTEXT(2) 
PARAMETRIC_REPRESENTATION_CONTEXT() REPRESENTATION_CONTEXT('2D SPACE',''
  ) );
#473 = ADVANCED_FACE('',(#474),#72,.T.);
#474 = FACE_BOUND('',#475,.T.);
#475 = EDGE_LOOP('',(#476,#477,#478));
#476 = ORIENTED_EDGE('',*,*,#453,.F.);
#477 = ORIENTED_EDGE('',*,*,#56,.T.);
#478 = ORIENTED_EDGE('',*,*,#479,.T.);
#479 = EDGE_CURVE('',#24,#425,#480,.T.);
#480 = SURFACE_CURVE('',#481,(#485,#492),.PCURVE_S1.);
#481 = LINE('',#482,#483);
#482 = CARTESIAN_POINT('',(-30.76392968456,20.54442557057,
    21.726646933419));
#483 = VECTOR('',#484,1.);
#484 = DIRECTION('',(0.942905038843,8.94860759234E-04,-0.33306048542));
#485 = PCURVE('',#72,#486);
#486 = DEFINITIONAL_REPRESENTATION('',(#487),#491);
#487 = LINE('',#488,#489);
#488 = CARTESIAN_POINT('',(21.745521550982,-61.56206567881));
#489 = VECTOR('',#490,1.);
#490 = DIRECTION('',(-0.333061634964,0.942905057424));
#491 = ( GEOMETRIC_REPRESENTATION_CONTEXT(2) 
PARAMETRIC_REPRESENTATION_CONTEXT() REPRESENTATION_CONTEXT('2D SPACE',''
  ) );
#492 = PCURVE('',#493,#498);
#493 = PLANE('',#494);
#494 = AXIS2_PLACEMENT_3D('',#495,#496,#497);
#495 = CARTESIAN_POINT('',(30.756108025526,20.550268708105,
    21.722388876232));
#496 = DIRECTION('',(-9.48117577635E-05,0.999997071272,
    2.418358495086E-03));
#497 = DIRECTION('',(8.838238518954E-24,-2.418358505956E-03,
    0.999997075767));
#498 = DEFINITIONAL_REPRESENTATION('',(#499),#503);
#499 = LINE('',#500,#501);
#500 = CARTESIAN_POINT('',(4.272175536954E-03,-61.52003798659));
#501 = VECTOR('',#502,1.);
#502 = DIRECTION('',(-0.333061675568,0.942905043081));
#503 = ( GEOMETRIC_REPRESENTATION_CONTEXT(2) 
PARAMETRIC_REPRESENTATION_CONTEXT() REPRESENTATION_CONTEXT('2D SPACE',''
  ) );
#504 = ADVANCED_FACE('',(#505),#493,.T.);
#505 = FACE_BOUND('',#506,.T.);
#506 = EDGE_LOOP('',(#507,#530,#531));
#507 = ORIENTED_EDGE('',*,*,#508,.T.);
#508 = EDGE_CURVE('',#509,#425,#511,.T.);
#509 = VERTEX_POINT('',#510);
#510 = CARTESIAN_POINT('',(30.756108025526,20.550268708105,
    21.722388876232));
#511 = SURFACE_CURVE('',#512,(#516,#523),.PCURVE_S1.);
#512 = LINE('',#513,#514);
#513 = CARTESIAN_POINT('',(30.756108025526,20.550268708105,
    21.722388876232));
#514 = VECTOR('',#515,1.);
#515 = DIRECTION('',(1.93303849446E-03,2.418537261929E-03,
    -0.999995207008));
#516 = PCURVE('',#493,#517);
#517 = DEFINITIONAL_REPRESENTATION('',(#518),#522);
#518 = LINE('',#519,#520);
#519 = CARTESIAN_POINT('',(0.,0.));
#520 = VECTOR('',#521,1.);
#521 = DIRECTION('',(-0.999998131679,1.933038503148E-03));
#522 = ( GEOMETRIC_REPRESENTATION_CONTEXT(2) 
PARAMETRIC_REPRESENTATION_CONTEXT() REPRESENTATION_CONTEXT('2D SPACE',''
  ) );
#523 = PCURVE('',#440,#524);
#524 = DEFINITIONAL_REPRESENTATION('',(#525),#529);
#525 = LINE('',#526,#527);
#526 = CARTESIAN_POINT('',(21.711528072932,-41.12752516698));
#527 = VECTOR('',#528,1.);
#528 = DIRECTION('',(-0.999997075334,-2.418537339319E-03));
#529 = ( GEOMETRIC_REPRESENTATION_CONTEXT(2) 
PARAMETRIC_REPRESENTATION_CONTEXT() REPRESENTATION_CONTEXT('2D SPACE',''
  ) );
#530 = ORIENTED_EDGE('',*,*,#479,.F.);
#531 = ORIENTED_EDGE('',*,*,#532,.T.);
#532 = EDGE_CURVE('',#24,#509,#533,.T.);
#533 = SURFACE_CURVE('',#534,(#538,#545),.PCURVE_S1.);
#534 = LINE('',#535,#536);
#535 = CARTESIAN_POINT('',(-30.76392968456,20.54442557057,
    21.726646933419));
#536 = VECTOR('',#537,1.);
#537 = DIRECTION('',(0.999999993094,9.49794199068E-05,
    -6.921415064484E-05));
#538 = PCURVE('',#493,#539);
#539 = DEFINITIONAL_REPRESENTATION('',(#540),#544);
#540 = LINE('',#541,#542);
#541 = CARTESIAN_POINT('',(4.272175536954E-03,-61.52003798659));
#542 = VECTOR('',#543,1.);
#543 = DIRECTION('',(-6.944364253454E-05,0.999999997589));
#544 = ( GEOMETRIC_REPRESENTATION_CONTEXT(2) 
PARAMETRIC_REPRESENTATION_CONTEXT() REPRESENTATION_CONTEXT('2D SPACE',''
  ) );
#545 = PCURVE('',#351,#546);
#546 = DEFINITIONAL_REPRESENTATION('',(#547),#551);
#547 = LINE('',#548,#549);
#548 = CARTESIAN_POINT('',(7.136194964895E-03,-61.52003772104));
#549 = VECTOR('',#550,1.);
#550 = DIRECTION('',(-1.159978956652E-04,0.999999993272));
#551 = ( GEOMETRIC_REPRESENTATION_CONTEXT(2) 
PARAMETRIC_REPRESENTATION_CONTEXT() REPRESENTATION_CONTEXT('2D SPACE',''
  ) );
#552 = ADVANCED_FACE('',(#553),#440,.T.);
#553 = FACE_BOUND('',#554,.T.);
#554 = EDGE_LOOP('',(#555,#556,#557));
#555 = ORIENTED_EDGE('',*,*,#424,.T.);
#556 = ORIENTED_EDGE('',*,*,#508,.F.);
#557 = ORIENTED_EDGE('',*,*,#558,.T.);
#558 = EDGE_CURVE('',#509,#172,#559,.T.);
#559 = SURFACE_CURVE('',#560,(#564,#571),.PCURVE_S1.);
#560 = LINE('',#561,#562);
#561 = CARTESIAN_POINT('',(30.756108025526,20.550268708105,
    21.722388876232));
#562 = VECTOR('',#563,1.);
#563 = DIRECTION('',(6.784358884471E-04,-0.884337373144,-0.466847887631)
  );
#564 = PCURVE('',#440,#565);
#565 = DEFINITIONAL_REPRESENTATION('',(#566),#570);
#566 = LINE('',#567,#568);
#567 = CARTESIAN_POINT('',(21.711528072932,-41.12752516698));
#568 = VECTOR('',#569,1.);
#569 = DIRECTION('',(-0.466848326988,0.884337401442));
#570 = ( GEOMETRIC_REPRESENTATION_CONTEXT(2) 
PARAMETRIC_REPRESENTATION_CONTEXT() REPRESENTATION_CONTEXT('2D SPACE',''
  ) );
#571 = PCURVE('',#267,#572);
#572 = DEFINITIONAL_REPRESENTATION('',(#573),#577);
#573 = LINE('',#574,#575);
#574 = CARTESIAN_POINT('',(41.148565550178,-1.817154252252E-02));
#575 = VECTOR('',#576,1.);
#576 = DIRECTION('',(-0.884337582735,-0.466847983569));
#577 = ( GEOMETRIC_REPRESENTATION_CONTEXT(2) 
PARAMETRIC_REPRESENTATION_CONTEXT() REPRESENTATION_CONTEXT('2D SPACE',''
  ) );
#578 = ADVANCED_FACE('',(#579),#267,.T.);
#579 = FACE_BOUND('',#580,.T.);
#580 = EDGE_LOOP('',(#581,#582,#583));
#581 = ORIENTED_EDGE('',*,*,#253,.F.);
#582 = ORIENTED_EDGE('',*,*,#558,.F.);
#583 = ORIENTED_EDGE('',*,*,#584,.T.);
#584 = EDGE_CURVE('',#509,#225,#585,.T.);
#585 = SURFACE_CURVE('',#586,(#590,#597),.PCURVE_S1.);
#586 = LINE('',#587,#588);
#587 = CARTESIAN_POINT('',(30.756108025526,20.550268708105,
    21.722388876232));
#588 = VECTOR('',#589,1.);
#589 = DIRECTION('',(1.105890109354E-03,-0.999999290994,
    4.416080311279E-04));
#590 = PCURVE('',#267,#591);
#591 = DEFINITIONAL_REPRESENTATION('',(#592),#596);
#592 = LINE('',#593,#594);
#593 = CARTESIAN_POINT('',(41.148565550178,-1.817154252252E-02));
#594 = VECTOR('',#595,1.);
#595 = DIRECTION('',(-0.999999902491,4.416081218792E-04));
#596 = ( GEOMETRIC_REPRESENTATION_CONTEXT(2) 
PARAMETRIC_REPRESENTATION_CONTEXT() REPRESENTATION_CONTEXT('2D SPACE',''
  ) );
#597 = PCURVE('',#598,#603);
#598 = PLANE('',#599);
#599 = AXIS2_PLACEMENT_3D('',#600,#601,#602);
#600 = CARTESIAN_POINT('',(26.677278168312,16.468000222695,
    25.87177822919));
#601 = DIRECTION('',(0.712603595831,1.09787924499E-03,0.701566040989));
#602 = DIRECTION('',(-0.701566463802,7.708055363963E-20,0.712604025296)
  );
#603 = DEFINITIONAL_REPRESENTATION('',(#604),#608);
#604 = LINE('',#605,#606);
#605 = CARTESIAN_POINT('',(-5.818441794815,-4.08227094567));
#606 = VECTOR('',#607,1.);
#607 = DIRECTION('',(-4.611637527885E-04,0.999999893664));
#608 = ( GEOMETRIC_REPRESENTATION_CONTEXT(2) 
PARAMETRIC_REPRESENTATION_CONTEXT() REPRESENTATION_CONTEXT('2D SPACE',''
  ) );
#609 = ADVANCED_FACE('',(#610),#240,.T.);
#610 = FACE_BOUND('',#611,.T.);
#611 = EDGE_LOOP('',(#612,#638,#639));
#612 = ORIENTED_EDGE('',*,*,#613,.F.);
#613 = EDGE_CURVE('',#284,#225,#614,.T.);
#614 = SURFACE_CURVE('',#615,(#619,#626),.PCURVE_S1.);
#615 = LINE('',#616,#617);
#616 = CARTESIAN_POINT('',(-26.67070929526,-16.4601203099,
    25.819498435999));
#617 = VECTOR('',#618,1.);
#618 = DIRECTION('',(0.994928140121,-7.16373207618E-02,
    -7.061225297308E-02));
#619 = PCURVE('',#240,#620);
#620 = DEFINITIONAL_REPRESENTATION('',(#621),#625);
#621 = LINE('',#622,#623);
#622 = CARTESIAN_POINT('',(5.810458707067,57.472328352038));
#623 = VECTOR('',#624,1.);
#624 = DIRECTION('',(-0.100587353376,-0.994928230749));
#625 = ( GEOMETRIC_REPRESENTATION_CONTEXT(2) 
PARAMETRIC_REPRESENTATION_CONTEXT() REPRESENTATION_CONTEXT('2D SPACE',''
  ) );
#626 = PCURVE('',#627,#632);
#627 = PLANE('',#628);
#628 = AXIS2_PLACEMENT_3D('',#629,#630,#631);
#629 = CARTESIAN_POINT('',(26.673047428428,-16.4636468711,
    25.809548809701));
#630 = DIRECTION('',(8.657941995769E-05,-0.70138290742,0.712784686762));
#631 = DIRECTION('',(3.775620693976E-21,0.712784689434,0.701382910049));
#632 = DEFINITIONAL_REPRESENTATION('',(#633),#637);
#633 = LINE('',#634,#635);
#634 = CARTESIAN_POINT('',(9.492176676801E-03,53.343756923623));
#635 = VECTOR('',#636,1.);
#636 = DIRECTION('',(-0.100588212906,-0.99492814385));
#637 = ( GEOMETRIC_REPRESENTATION_CONTEXT(2) 
PARAMETRIC_REPRESENTATION_CONTEXT() REPRESENTATION_CONTEXT('2D SPACE',''
  ) );
#638 = ORIENTED_EDGE('',*,*,#283,.F.);
#639 = ORIENTED_EDGE('',*,*,#224,.T.);
#640 = ADVANCED_FACE('',(#641),#627,.T.);
#641 = FACE_BOUND('',#642,.T.);
#642 = EDGE_LOOP('',(#643,#666,#667));
#643 = ORIENTED_EDGE('',*,*,#644,.F.);
#644 = EDGE_CURVE('',#284,#645,#647,.T.);
#645 = VERTEX_POINT('',#646);
#646 = CARTESIAN_POINT('',(26.673047428428,-16.4636468711,
    25.809548809701));
#647 = SURFACE_CURVE('',#648,(#652,#659),.PCURVE_S1.);
#648 = LINE('',#649,#650);
#649 = CARTESIAN_POINT('',(-26.67070929526,-16.4601203099,
    25.819498435999));
#650 = VECTOR('',#651,1.);
#651 = DIRECTION('',(0.99999998042,-6.611010075982E-05,
    -1.865190364108E-04));
#652 = PCURVE('',#627,#653);
#653 = DEFINITIONAL_REPRESENTATION('',(#654),#658);
#654 = LINE('',#655,#656);
#655 = CARTESIAN_POINT('',(9.492176676801E-03,53.343756923623));
#656 = VECTOR('',#657,1.);
#657 = DIRECTION('',(-1.779435321759E-04,-0.999999984168));
#658 = ( GEOMETRIC_REPRESENTATION_CONTEXT(2) 
PARAMETRIC_REPRESENTATION_CONTEXT() REPRESENTATION_CONTEXT('2D SPACE',''
  ) );
#659 = PCURVE('',#378,#660);
#660 = DEFINITIONAL_REPRESENTATION('',(#661),#665);
#661 = LINE('',#662,#663);
#662 = CARTESIAN_POINT('',(3.536187015013E-03,53.343757650951));
#663 = VECTOR('',#664,1.);
#664 = DIRECTION('',(-6.629054950314E-05,-0.999999997803));
#665 = ( GEOMETRIC_REPRESENTATION_CONTEXT(2) 
PARAMETRIC_REPRESENTATION_CONTEXT() REPRESENTATION_CONTEXT('2D SPACE',''
  ) );
#666 = ORIENTED_EDGE('',*,*,#613,.T.);
#667 = ORIENTED_EDGE('',*,*,#668,.F.);
#668 = EDGE_CURVE('',#645,#225,#669,.T.);
#669 = SURFACE_CURVE('',#670,(#674,#681),.PCURVE_S1.);
#670 = LINE('',#671,#672);
#671 = CARTESIAN_POINT('',(26.673047428428,-16.4636468711,
    25.809548809701));
#672 = VECTOR('',#673,1.);
#673 = DIRECTION('',(0.579840823007,-0.580691703514,-0.571473328725));
#674 = PCURVE('',#627,#675);
#675 = DEFINITIONAL_REPRESENTATION('',(#676),#680);
#676 = LINE('',#677,#678);
#677 = CARTESIAN_POINT('',(0.,0.));
#678 = VECTOR('',#679,1.);
#679 = DIRECTION('',(-0.814729781863,-0.57984082518));
#680 = ( GEOMETRIC_REPRESENTATION_CONTEXT(2) 
PARAMETRIC_REPRESENTATION_CONTEXT() REPRESENTATION_CONTEXT('2D SPACE',''
  ) );
#681 = PCURVE('',#682,#687);
#682 = PLANE('',#683);
#683 = AXIS2_PLACEMENT_3D('',#684,#685,#686);
#684 = CARTESIAN_POINT('',(26.677278168312,16.468000222695,
    25.87177822919));
#685 = DIRECTION('',(0.701217886074,-1.43730619868E-03,0.712945587265));
#686 = DIRECTION('',(0.712946323685,4.341858527584E-20,-0.701218610381)
  );
#687 = DEFINITIONAL_REPRESENTATION('',(#688),#692);
#688 = LINE('',#689,#690);
#689 = CARTESIAN_POINT('',(4.062013661171E-02,-32.93168110975));
#690 = VECTOR('',#691,1.);
#691 = DIRECTION('',(0.814123116523,-0.580692303326));
#692 = ( GEOMETRIC_REPRESENTATION_CONTEXT(2) 
PARAMETRIC_REPRESENTATION_CONTEXT() REPRESENTATION_CONTEXT('2D SPACE',''
  ) );
#693 = ADVANCED_FACE('',(#694),#378,.T.);
#694 = FACE_BOUND('',#695,.T.);
#695 = EDGE_LOOP('',(#696,#722,#723));
#696 = ORIENTED_EDGE('',*,*,#697,.F.);
#697 = EDGE_CURVE('',#336,#645,#698,.T.);
#698 = SURFACE_CURVE('',#699,(#703,#710),.PCURVE_S1.);
#699 = LINE('',#700,#701);
#700 = CARTESIAN_POINT('',(-26.67451181321,16.466041227861,
    25.851359197482));
#701 = VECTOR('',#702,1.);
#702 = DIRECTION('',(0.850942366173,-0.525258645505,-6.669139284854E-04)
  );
#703 = PCURVE('',#378,#704);
#704 = DEFINITIONAL_REPRESENTATION('',(#705),#709);
#705 = LINE('',#706,#707);
#706 = CARTESIAN_POINT('',(32.929713139692,53.347560168964));
#707 = VECTOR('',#708,1.);
#708 = DIRECTION('',(-0.525259044928,-0.850942380965));
#709 = ( GEOMETRIC_REPRESENTATION_CONTEXT(2) 
PARAMETRIC_REPRESENTATION_CONTEXT() REPRESENTATION_CONTEXT('2D SPACE',''
  ) );
#710 = PCURVE('',#711,#716);
#711 = PLANE('',#712);
#712 = AXIS2_PLACEMENT_3D('',#713,#714,#715);
#713 = CARTESIAN_POINT('',(26.677278168312,16.468000222695,
    25.87177822919));
#714 = DIRECTION('',(-3.826543035669E-04,-1.889601353573E-03,
    0.999998141489));
#715 = DIRECTION('',(-8.017272065126E-23,0.999998214702,
    1.889601491915E-03));
#716 = DEFINITIONAL_REPRESENTATION('',(#717),#721);
#717 = LINE('',#718,#719);
#718 = CARTESIAN_POINT('',(-1.997575169599E-03,53.351793887523));
#719 = VECTOR('',#720,1.);
#720 = DIRECTION('',(-0.525258967963,-0.850942428472));
#721 = ( GEOMETRIC_REPRESENTATION_CONTEXT(2) 
PARAMETRIC_REPRESENTATION_CONTEXT() REPRESENTATION_CONTEXT('2D SPACE',''
  ) );
#722 = ORIENTED_EDGE('',*,*,#364,.T.);
#723 = ORIENTED_EDGE('',*,*,#644,.T.);
#724 = ADVANCED_FACE('',(#725),#711,.T.);
#725 = FACE_BOUND('',#726,.T.);
#726 = EDGE_LOOP('',(#727,#755,#756));
#727 = ORIENTED_EDGE('',*,*,#728,.F.);
#728 = EDGE_CURVE('',#336,#729,#731,.T.);
#729 = VERTEX_POINT('',#730);
#730 = CARTESIAN_POINT('',(26.677278168312,16.468000222695,
    25.87177822919));
#731 = SURFACE_CURVE('',#732,(#736,#743),.PCURVE_S1.);
#732 = LINE('',#733,#734);
#733 = CARTESIAN_POINT('',(-26.67451181321,16.466041227861,
    25.851359197482));
#734 = VECTOR('',#735,1.);
#735 = DIRECTION('',(0.999999926087,3.67184435629E-05,3.827243698017E-04
    ));
#736 = PCURVE('',#711,#737);
#737 = DEFINITIONAL_REPRESENTATION('',(#738),#742);
#738 = LINE('',#739,#740);
#739 = CARTESIAN_POINT('',(-1.997575169599E-03,53.351793887523));
#740 = VECTOR('',#741,1.);
#741 = DIRECTION('',(3.744157454969E-05,-0.999999999299));
#742 = ( GEOMETRIC_REPRESENTATION_CONTEXT(2) 
PARAMETRIC_REPRESENTATION_CONTEXT() REPRESENTATION_CONTEXT('2D SPACE',''
  ) );
#743 = PCURVE('',#744,#749);
#744 = PLANE('',#745);
#745 = AXIS2_PLACEMENT_3D('',#746,#747,#748);
#746 = CARTESIAN_POINT('',(26.677278168312,16.468000222695,
    25.87177822919));
#747 = DIRECTION('',(-2.945350931121E-04,0.712993524367,0.701170555186)
  );
#748 = DIRECTION('',(-2.726517165023E-20,-0.701170585599,0.712993555294)
  );
#749 = DEFINITIONAL_REPRESENTATION('',(#750),#754);
#750 = LINE('',#751,#752);
#751 = CARTESIAN_POINT('',(-1.318504845784E-02,-53.35179229568));
#752 = VECTOR('',#753,1.);
#753 = DIRECTION('',(2.471341165472E-04,0.999999969462));
#754 = ( GEOMETRIC_REPRESENTATION_CONTEXT(2) 
PARAMETRIC_REPRESENTATION_CONTEXT() REPRESENTATION_CONTEXT('2D SPACE',''
  ) );
#755 = ORIENTED_EDGE('',*,*,#697,.T.);
#756 = ORIENTED_EDGE('',*,*,#757,.T.);
#757 = EDGE_CURVE('',#645,#729,#758,.T.);
#758 = SURFACE_CURVE('',#759,(#763,#770),.PCURVE_S1.);
#759 = LINE('',#760,#761);
#760 = CARTESIAN_POINT('',(26.673047428428,-16.4636468711,
    25.809548809701));
#761 = VECTOR('',#762,1.);
#762 = DIRECTION('',(1.284701091251E-04,0.999998206356,
    1.889650635877E-03));
#763 = PCURVE('',#711,#764);
#764 = DEFINITIONAL_REPRESENTATION('',(#765),#769);
#765 = LINE('',#766,#767);
#766 = CARTESIAN_POINT('',(-32.93170588978,4.230740193991E-03));
#767 = VECTOR('',#768,1.);
#768 = DIRECTION('',(0.999999991748,-1.284701185307E-04));
#769 = ( GEOMETRIC_REPRESENTATION_CONTEXT(2) 
PARAMETRIC_REPRESENTATION_CONTEXT() REPRESENTATION_CONTEXT('2D SPACE',''
  ) );
#770 = PCURVE('',#682,#771);
#771 = DEFINITIONAL_REPRESENTATION('',(#772),#776);
#772 = LINE('',#773,#774);
#773 = CARTESIAN_POINT('',(4.062013661171E-02,-32.93168110975));
#774 = VECTOR('',#775,1.);
#775 = DIRECTION('',(-1.233465900991E-03,0.999999239281));
#776 = ( GEOMETRIC_REPRESENTATION_CONTEXT(2) 
PARAMETRIC_REPRESENTATION_CONTEXT() REPRESENTATION_CONTEXT('2D SPACE',''
  ) );
#777 = ADVANCED_FACE('',(#778),#351,.T.);
#778 = FACE_BOUND('',#779,.T.);
#779 = EDGE_LOOP('',(#780,#781,#782));
#780 = ORIENTED_EDGE('',*,*,#532,.F.);
#781 = ORIENTED_EDGE('',*,*,#335,.T.);
#782 = ORIENTED_EDGE('',*,*,#783,.T.);
#783 = EDGE_CURVE('',#336,#509,#784,.T.);
#784 = SURFACE_CURVE('',#785,(#789,#796),.PCURVE_S1.);
#785 = LINE('',#786,#787);
#786 = CARTESIAN_POINT('',(-26.67451181321,16.466041227861,
    25.851359197482));
#787 = VECTOR('',#788,1.);
#788 = DIRECTION('',(0.994925712944,7.075499009094E-02,
    -7.153011324149E-02));
#789 = PCURVE('',#351,#790);
#790 = DEFINITIONAL_REPRESENTATION('',(#791),#795);
#791 = LINE('',#792,#793);
#792 = CARTESIAN_POINT('',(5.80769393558,-57.43061984896));
#793 = VECTOR('',#794,1.);
#794 = DIRECTION('',(-0.100612252587,0.994925713121));
#795 = ( GEOMETRIC_REPRESENTATION_CONTEXT(2) 
PARAMETRIC_REPRESENTATION_CONTEXT() REPRESENTATION_CONTEXT('2D SPACE',''
  ) );
#796 = PCURVE('',#744,#797);
#797 = DEFINITIONAL_REPRESENTATION('',(#798),#802);
#798 = LINE('',#799,#800);
#799 = CARTESIAN_POINT('',(-1.318504845784E-02,-53.35179229568));
#800 = VECTOR('',#801,1.);
#801 = DIRECTION('',(-0.100611827587,0.994925756099));
#802 = ( GEOMETRIC_REPRESENTATION_CONTEXT(2) 
PARAMETRIC_REPRESENTATION_CONTEXT() REPRESENTATION_CONTEXT('2D SPACE',''
  ) );
#803 = ADVANCED_FACE('',(#804),#744,.T.);
#804 = FACE_BOUND('',#805,.T.);
#805 = EDGE_LOOP('',(#806,#827,#828));
#806 = ORIENTED_EDGE('',*,*,#807,.T.);
#807 = EDGE_CURVE('',#729,#509,#808,.T.);
#808 = SURFACE_CURVE('',#809,(#813,#820),.PCURVE_S1.);
#809 = LINE('',#810,#811);
#810 = CARTESIAN_POINT('',(26.677278168312,16.468000222695,
    25.87177822919));
#811 = VECTOR('',#812,1.);
#812 = DIRECTION('',(0.573861848736,0.574345638843,-0.583789059257));
#813 = PCURVE('',#744,#814);
#814 = DEFINITIONAL_REPRESENTATION('',(#815),#819);
#815 = LINE('',#816,#817);
#816 = CARTESIAN_POINT('',(0.,0.));
#817 = VECTOR('',#818,1.);
#818 = DIRECTION('',(-0.818952104825,0.573861873627));
#819 = ( GEOMETRIC_REPRESENTATION_CONTEXT(2) 
PARAMETRIC_REPRESENTATION_CONTEXT() REPRESENTATION_CONTEXT('2D SPACE',''
  ) );
#820 = PCURVE('',#598,#821);
#821 = DEFINITIONAL_REPRESENTATION('',(#822),#826);
#822 = LINE('',#823,#824);
#823 = CARTESIAN_POINT('',(0.,0.));
#824 = VECTOR('',#825,1.);
#825 = DIRECTION('',(-0.818612661479,-0.574345984984));
#826 = ( GEOMETRIC_REPRESENTATION_CONTEXT(2) 
PARAMETRIC_REPRESENTATION_CONTEXT() REPRESENTATION_CONTEXT('2D SPACE',''
  ) );
#827 = ORIENTED_EDGE('',*,*,#783,.F.);
#828 = ORIENTED_EDGE('',*,*,#728,.T.);
#829 = ADVANCED_FACE('',(#830),#682,.T.);
#830 = FACE_BOUND('',#831,.T.);
#831 = EDGE_LOOP('',(#832,#833,#834));
#832 = ORIENTED_EDGE('',*,*,#757,.F.);
#833 = ORIENTED_EDGE('',*,*,#668,.T.);
#834 = ORIENTED_EDGE('',*,*,#835,.F.);
#835 = EDGE_CURVE('',#729,#225,#836,.T.);
#836 = SURFACE_CURVE('',#837,(#841,#848),.PCURVE_S1.);
#837 = LINE('',#838,#839);
#838 = CARTESIAN_POINT('',(26.677278168312,16.468000222695,
    25.87177822919));
#839 = VECTOR('',#840,1.);
#840 = DIRECTION('',(0.109914475835,-0.987824510369,-0.110097886975));
#841 = PCURVE('',#682,#842);
#842 = DEFINITIONAL_REPRESENTATION('',(#843),#847);
#843 = LINE('',#844,#845);
#844 = CARTESIAN_POINT('',(0.,0.));
#845 = VECTOR('',#846,1.);
#846 = DIRECTION('',(0.155565808777,-0.987825530719));
#847 = ( GEOMETRIC_REPRESENTATION_CONTEXT(2) 
PARAMETRIC_REPRESENTATION_CONTEXT() REPRESENTATION_CONTEXT('2D SPACE',''
  ) );
#848 = PCURVE('',#598,#849);
#849 = DEFINITIONAL_REPRESENTATION('',(#850),#854);
#850 = LINE('',#851,#852);
#851 = CARTESIAN_POINT('',(0.,0.));
#852 = VECTOR('',#853,1.);
#853 = DIRECTION('',(-0.155568507567,0.987825105701));
#854 = ( GEOMETRIC_REPRESENTATION_CONTEXT(2) 
PARAMETRIC_REPRESENTATION_CONTEXT() REPRESENTATION_CONTEXT('2D SPACE',''
  ) );
#855 = ADVANCED_FACE('',(#856),#598,.T.);
#856 = FACE_BOUND('',#857,.T.);
#857 = EDGE_LOOP('',(#858,#859,#860));
#858 = ORIENTED_EDGE('',*,*,#835,.T.);
#859 = ORIENTED_EDGE('',*,*,#584,.F.);
#860 = ORIENTED_EDGE('',*,*,#807,.F.);
#861 = ( GEOMETRIC_REPRESENTATION_CONTEXT(3) 
GLOBAL_UNCERTAINTY_ASSIGNED_CONTEXT((#865)) GLOBAL_UNIT_ASSIGNED_CONTEXT
((#862,#863,#864)) REPRESENTATION_CONTEXT('Context #1',
  '3D Context with UNIT and UNCERTAINTY') );
#862 = ( LENGTH_UNIT() NAMED_UNIT(*) SI_UNIT(.MILLI.,.METRE.) );
#863 = ( NAMED_UNIT(*) PLANE_ANGLE_UNIT() SI_UNIT($,.RADIAN.) );
#864 = ( NAMED_UNIT(*) SI_UNIT($,.STERADIAN.) SOLID_ANGLE_UNIT() );
#865 = UNCERTAINTY_MEASURE_WITH_UNIT(LENGTH_MEASURE(1.E-07),#862,
  'distance_accuracy_value','confusion accuracy');
#866 = PRODUCT_TYPE('part',$,(#7));
ENDSEC;
END-ISO-10303-21;
