ISO-10303-21;
HEADER;
FILE_DESCRIPTION(('Open CASCADE Model'),'2;1');
FILE_NAME('Open CASCADE Shape Model','2026-10-04T20:44:42',('Author'),(
    'Open CASCADE'),'Open CASCADE STEP processor 7.8','Open CASCADE 7.8'
  ,'Unknown');
FILE_SCHEMA(('AUTOMOTIVE_DESIGN_CC2 { 1 2 10303 214 -1 1 5 4 }'));
ENDSEC;
DATA;
#1 = APPLICATION_PROTOCOL_DEFINITION('committee draft',
  'automotive_design',1997,#2);
#2 = APPLICATION_CONTEXT(
  'core data for automotive mechanical design processes');
#3 = SHAPE_DEFINITION_REPRESENTATION(#4,#10);
#4 = PRODUCT_DEFINITION_SHAPE('','',#5);
#5 = PRODUCT_DEFINITION('design','',#6,#9);
#6 = PRODUCT_DEFINITION_FORMATION('','',#7);
#7 = PRODUCT('Open CASCADE STEP translator 7.8 111',
  'Open CASCADE STEP translator 7.8 111','',(#8));
#8 = MECHANICAL_CONTEXT('',#2,'mechanical');
#9 = PRODUCT_DEFINITION_CONTEXT('part definition',#2,'design');
#10 = ADVANCED_BREP_SHAPE_REPRESENTATION('',(#11,#15),#861);
#11 = AXIS2_PLACEMENT_3D('',#12,#13,#14);
#12 = CARTESIAN_POINT('',(0.,0.,0.));
#13 = DIRECTION('',(0.,0.,1.));
#14 = DIRECTION('',(1.,0.,-0.));
#15 = MANIFOLD_SOLID_BREP('',#16);
#16 = CLOSED_SHELL('',(#17,#109,#167,#225,#283,#341,#399,#452,#478,#531,
    #562,#588,#619,#667,#698,#729,#777,#803,#829,#855));
#17 = ADVANCED_FACE('',(#18),#32,.T.);
#18 = FACE_BOUND('',#19,.T.);
#19 = EDGE_LOOP('',(#20,#55,#83));
#20 = ORIENTED_EDGE('',*,*,#21,.T.);
#21 = EDGE_CURVE('',#22,#24,#26,.T.);
#22 = VERTEX_POINT('',#23);
#23 = CARTESIAN_POINT('',(-29.45469964918,-43.00199846566,
    19.754716759004));
#24 = VERTEX_POINT('',#25);
#25 = CARTESIAN_POINT('',(-29.45046584159,43.045004307321,
    1.653869955873E-03));
#26 = SURFACE_CURVE('',#27,(#31,#43),.PCURVE_S1.);
#27 = LINE('',#28,#29);
#28 = CARTESIAN_POINT('',(-29.45469964918,-43.00199846566,
    19.754716759004));
#29 = VECTOR('',#30,1.);
#30 = DIRECTION('',(4.795604821602E-05,0.974648500279,-0.223741588902));
#31 = PCURVE('',#32,#37);
#32 = PLANE('',#33);
#33 = AXIS2_PLACEMENT_3D('',#34,#35,#36);
#34 = CARTESIAN_POINT('',(-29.45469964918,-43.00199846566,
    19.754716759004));
#35 = DIRECTION('',(-0.999995775323,6.970178856136E-04,
    2.821967942397E-03));
#36 = DIRECTION('',(-2.821968627901E-03,4.380273884953E-22,
    -0.999996018239));
#37 = DEFINITIONAL_REPRESENTATION('',(#38),#42);
#38 = LINE('',#39,#40);
#39 = CARTESIAN_POINT('',(0.,0.));
#40 = VECTOR('',#41,1.);
#41 = DIRECTION('',(0.223740562686,-0.974648737037));
#42 = ( GEOMETRIC_REPRESENTATION_CONTEXT(2) 
PARAMETRIC_REPRESENTATION_CONTEXT() REPRESENTATION_CONTEXT('2D SPACE',''
  ) );
#43 = PCURVE('',#44,#49);
#44 = PLANE('',#45);
#45 = AXIS2_PLACEMENT_3D('',#46,#47,#48);
#46 = CARTESIAN_POINT('',(-29.45469964918,-43.00199846566,
    19.754716759004));
#47 = DIRECTION('',(-0.999995902304,-5.936877141907E-04,
    -2.80051954154E-03));
#48 = DIRECTION('',(2.800520035083E-03,3.390249360998E-22,
    -0.999996078536));
#49 = DEFINITIONAL_REPRESENTATION('',(#50),#54);
#50 = LINE('',#51,#52);
#51 = CARTESIAN_POINT('',(0.,0.));
#52 = VECTOR('',#53,1.);
#53 = DIRECTION('',(0.22374084581,-0.974648672044));
#54 = ( GEOMETRIC_REPRESENTATION_CONTEXT(2) 
PARAMETRIC_REPRESENTATION_CONTEXT() REPRESENTATION_CONTEXT('2D SPACE',''
  ) );
#55 = ORIENTED_EDGE('',*,*,#56,.F.);
#56 = EDGE_CURVE('',#57,#24,#59,.T.);
#57 = VERTEX_POINT('',#58);
#58 = CARTESIAN_POINT('',(-29.51031468155,-43.01929819013,
    5.118350223974E-02));
#59 = SURFACE_CURVE('',#60,(#64,#71),.PCURVE_S1.);
#60 = LINE('',#61,#62);
#61 = CARTESIAN_POINT('',(-29.51031468155,-43.01929819013,
    5.118350223974E-02));
#62 = VECTOR('',#63,1.);
#63 = DIRECTION('',(6.953965098519E-04,0.999999592614,
    -5.754954222474E-04));
#64 = PCURVE('',#32,#65);
#65 = DEFINITIONAL_REPRESENTATION('',(#66),#70);
#66 = LINE('',#67,#68);
#67 = CARTESIAN_POINT('',(19.703611745873,1.729972867543E-02));
#68 = VECTOR('',#69,1.);
#69 = DIRECTION('',(5.735307436272E-04,-0.999999835531));
#70 = ( GEOMETRIC_REPRESENTATION_CONTEXT(2) 
PARAMETRIC_REPRESENTATION_CONTEXT() REPRESENTATION_CONTEXT('2D SPACE',''
  ) );
#71 = PCURVE('',#72,#77);
#72 = PLANE('',#73);
#73 = AXIS2_PLACEMENT_3D('',#74,#75,#76);
#74 = CARTESIAN_POINT('',(29.460525593523,43.000860889741,
    4.726302310638E-02));
#75 = DIRECTION('',(7.737724783373E-04,-5.760334678357E-04,
    -0.999999534731));
#76 = DIRECTION('',(-0.999999700638,-4.98972768978E-23,
    -7.737726067118E-04));
#77 = DEFINITIONAL_REPRESENTATION('',(#78),#82);
#78 = LINE('',#79,#80);
#79 = CARTESIAN_POINT('',(58.970819587888,-86.02017335125));
#80 = VECTOR('',#81,1.);
#81 = DIRECTION('',(-6.949509990835E-04,0.999999758522));
#82 = ( GEOMETRIC_REPRESENTATION_CONTEXT(2) 
PARAMETRIC_REPRESENTATION_CONTEXT() REPRESENTATION_CONTEXT('2D SPACE',''
  ) );
#83 = ORIENTED_EDGE('',*,*,#84,.T.);
#84 = EDGE_CURVE('',#57,#22,#85,.T.);
#85 = SURFACE_CURVE('',#86,(#90,#97),.PCURVE_S1.);
#86 = LINE('',#87,#88);
#87 = CARTESIAN_POINT('',(-29.51031468155,-43.01929819013,
    5.118350223974E-02));
#88 = VECTOR('',#89,1.);
#89 = DIRECTION('',(2.822579517731E-03,8.77997294514E-04,0.999995631073)
  );
#90 = PCURVE('',#32,#91);
#91 = DEFINITIONAL_REPRESENTATION('',(#92),#96);
#92 = LINE('',#93,#94);
#93 = CARTESIAN_POINT('',(19.703611745873,1.729972867543E-02));
#94 = VECTOR('',#95,1.);
#95 = DIRECTION('',(-0.99999961456,-8.779975077945E-04));
#96 = ( GEOMETRIC_REPRESENTATION_CONTEXT(2) 
PARAMETRIC_REPRESENTATION_CONTEXT() REPRESENTATION_CONTEXT('2D SPACE',''
  ) );
#97 = PCURVE('',#98,#103);
#98 = PLANE('',#99);
#99 = AXIS2_PLACEMENT_3D('',#100,#101,#102);
#100 = CARTESIAN_POINT('',(29.423910994499,-42.99717389217,
    19.778532101635));
#101 = DIRECTION('',(8.158594706613E-05,-0.999999611431,
    8.777705054436E-04));
#102 = DIRECTION('',(-5.861171534772E-24,-8.777705083649E-04,
    -0.999999614759));
#103 = DEFINITIONAL_REPRESENTATION('',(#104),#108);
#104 = LINE('',#105,#106);
#105 = CARTESIAN_POINT('',(19.727360419676,-58.93422587219));
#106 = VECTOR('',#107,1.);
#107 = DIRECTION('',(-0.999996016514,2.822579527125E-03));
#108 = ( GEOMETRIC_REPRESENTATION_CONTEXT(2) 
PARAMETRIC_REPRESENTATION_CONTEXT() REPRESENTATION_CONTEXT('2D SPACE',''
  ) );
#109 = ADVANCED_FACE('',(#110),#44,.T.);
#110 = FACE_BOUND('',#111,.T.);
#111 = EDGE_LOOP('',(#112,#140,#166));
#112 = ORIENTED_EDGE('',*,*,#113,.F.);
#113 = EDGE_CURVE('',#114,#22,#116,.T.);
#114 = VERTEX_POINT('',#115);
#115 = CARTESIAN_POINT('',(-29.50581500201,43.03242372361,
    19.768129958237));
#116 = SURFACE_CURVE('',#117,(#121,#128),.PCURVE_S1.);
#117 = LINE('',#118,#119);
#118 = CARTESIAN_POINT('',(-29.50581500201,43.03242372361,
    19.768129958237));
#119 = VECTOR('',#120,1.);
#120 = DIRECTION('',(5.941266517467E-04,-0.999999811354,
    -1.559050012951E-04));
#121 = PCURVE('',#44,#122);
#122 = DEFINITIONAL_REPRESENTATION('',(#123),#127);
#123 = LINE('',#124,#125);
#124 = CARTESIAN_POINT('',(-1.355629620353E-02,-86.03443735134));
#125 = VECTOR('',#126,1.);
#126 = DIRECTION('',(1.575682535109E-04,0.999999987586));
#127 = ( GEOMETRIC_REPRESENTATION_CONTEXT(2) 
PARAMETRIC_REPRESENTATION_CONTEXT() REPRESENTATION_CONTEXT('2D SPACE',''
  ) );
#128 = PCURVE('',#129,#134);
#129 = PLANE('',#130);
#130 = AXIS2_PLACEMENT_3D('',#131,#132,#133);
#131 = CARTESIAN_POINT('',(-28.44852548441,42.030966871319,
    20.762847468375));
#132 = DIRECTION('',(-0.685487952005,-5.207786632596E-04,0.728083783946)
  );
#133 = DIRECTION('',(0.728083882678,4.163448423204E-21,0.685488044961));
#134 = DEFINITIONAL_REPRESENTATION('',(#135),#139);
#135 = LINE('',#136,#137);
#136 = CARTESIAN_POINT('',(-1.451662418406,1.001456988094));
#137 = VECTOR('',#138,1.);
#138 = DIRECTION('',(3.25703024869E-04,-0.999999946959));
#139 = ( GEOMETRIC_REPRESENTATION_CONTEXT(2) 
PARAMETRIC_REPRESENTATION_CONTEXT() REPRESENTATION_CONTEXT('2D SPACE',''
  ) );
#140 = ORIENTED_EDGE('',*,*,#141,.T.);
#141 = EDGE_CURVE('',#114,#24,#142,.T.);
#142 = SURFACE_CURVE('',#143,(#147,#154),.PCURVE_S1.);
#143 = LINE('',#144,#145);
#144 = CARTESIAN_POINT('',(-29.50581500201,43.03242372361,
    19.768129958237));
#145 = VECTOR('',#146,1.);
#146 = DIRECTION('',(2.800141611987E-03,6.364580002005E-04,
    -0.999995877056));
#147 = PCURVE('',#44,#148);
#148 = DEFINITIONAL_REPRESENTATION('',(#149),#153);
#149 = LINE('',#150,#151);
#150 = CARTESIAN_POINT('',(-1.355629620353E-02,-86.03443735134));
#151 = VECTOR('',#152,1.);
#152 = DIRECTION('',(0.999999797461,-6.364581123651E-04));
#153 = ( GEOMETRIC_REPRESENTATION_CONTEXT(2) 
PARAMETRIC_REPRESENTATION_CONTEXT() REPRESENTATION_CONTEXT('2D SPACE',''
  ) );
#154 = PCURVE('',#155,#160);
#155 = PLANE('',#156);
#156 = AXIS2_PLACEMENT_3D('',#157,#158,#159);
#157 = CARTESIAN_POINT('',(29.465737827885,43.014044097359,
    19.735002944368));
#158 = DIRECTION('',(3.12027303319E-04,0.999999748222,6.373341882839E-04
    ));
#159 = DIRECTION('',(-1.245078316451E-23,-6.373342193097E-04,
    0.999999796903));
#160 = DEFINITIONAL_REPRESENTATION('',(#161),#165);
#161 = LINE('',#162,#163);
#162 = CARTESIAN_POINT('',(3.311529317673E-02,-58.97155570066));
#163 = VECTOR('',#164,1.);
#164 = DIRECTION('',(-0.999996079595,2.8001417483E-03));
#165 = ( GEOMETRIC_REPRESENTATION_CONTEXT(2) 
PARAMETRIC_REPRESENTATION_CONTEXT() REPRESENTATION_CONTEXT('2D SPACE',''
  ) );
#166 = ORIENTED_EDGE('',*,*,#21,.F.);
#167 = ADVANCED_FACE('',(#168),#98,.T.);
#168 = FACE_BOUND('',#169,.T.);
#169 = EDGE_LOOP('',(#170,#198,#199));
#170 = ORIENTED_EDGE('',*,*,#171,.F.);
#171 = EDGE_CURVE('',#22,#172,#174,.T.);
#172 = VERTEX_POINT('',#173);
#173 = CARTESIAN_POINT('',(29.423910994499,-42.99717389217,
    19.778532101635));
#174 = SURFACE_CURVE('',#175,(#179,#186),.PCURVE_S1.);
#175 = LINE('',#176,#177);
#176 = CARTESIAN_POINT('',(-29.45469964918,-43.00199846566,
    19.754716759004));
#177 = VECTOR('',#178,1.);
#178 = DIRECTION('',(0.99999991484,8.194101436353E-05,4.044820409772E-04
    ));
#179 = PCURVE('',#98,#180);
#180 = DEFINITIONAL_REPRESENTATION('',(#181),#185);
#181 = LINE('',#182,#183);
#182 = CARTESIAN_POINT('',(2.381956832486E-02,-58.87861083963));
#183 = VECTOR('',#184,1.);
#184 = DIRECTION('',(-4.045538105601E-04,0.999999918168));
#185 = ( GEOMETRIC_REPRESENTATION_CONTEXT(2) 
PARAMETRIC_REPRESENTATION_CONTEXT() REPRESENTATION_CONTEXT('2D SPACE',''
  ) );
#186 = PCURVE('',#187,#192);
#187 = PLANE('',#188);
#188 = AXIS2_PLACEMENT_3D('',#189,#190,#191);
#189 = CARTESIAN_POINT('',(28.466147905255,-42.00322367148,
    20.805260359844));
#190 = DIRECTION('',(-2.224105094271E-04,-0.718586108534,0.695437959242)
  );
#191 = DIRECTION('',(-1.157585635885E-20,-0.695437976443,-0.718586126307
    ));
#192 = DEFINITIONAL_REPRESENTATION('',(#193),#197);
#193 = LINE('',#194,#195);
#194 = CARTESIAN_POINT('',(1.449491978432,-57.920848987));
#195 = VECTOR('',#196,1.);
#196 = DIRECTION('',(-3.476400762032E-04,0.999999939573));
#197 = ( GEOMETRIC_REPRESENTATION_CONTEXT(2) 
PARAMETRIC_REPRESENTATION_CONTEXT() REPRESENTATION_CONTEXT('2D SPACE',''
  ) );
#198 = ORIENTED_EDGE('',*,*,#84,.F.);
#199 = ORIENTED_EDGE('',*,*,#200,.T.);
#200 = EDGE_CURVE('',#57,#172,#201,.T.);
#201 = SURFACE_CURVE('',#202,(#206,#213),.PCURVE_S1.);
#202 = LINE('',#203,#204);
#203 = CARTESIAN_POINT('',(-29.51031468155,-43.01929819013,
    5.118350223974E-02));
#204 = VECTOR('',#205,1.);
#205 = DIRECTION('',(0.948283727655,3.559919809707E-04,0.317423762712));
#206 = PCURVE('',#98,#207);
#207 = DEFINITIONAL_REPRESENTATION('',(#208),#212);
#208 = LINE('',#209,#210);
#209 = CARTESIAN_POINT('',(19.727360419676,-58.93422587219));
#210 = VECTOR('',#211,1.);
#211 = DIRECTION('',(-0.317423952906,0.948283730811));
#212 = ( GEOMETRIC_REPRESENTATION_CONTEXT(2) 
PARAMETRIC_REPRESENTATION_CONTEXT() REPRESENTATION_CONTEXT('2D SPACE',''
  ) );
#213 = PCURVE('',#214,#219);
#214 = PLANE('',#215);
#215 = AXIS2_PLACEMENT_3D('',#216,#217,#218);
#216 = CARTESIAN_POINT('',(29.423910994499,-42.99717389217,
    19.778532101635));
#217 = DIRECTION('',(-1.547941498521E-04,-0.999998733585,
    1.583940342976E-03));
#218 = DIRECTION('',(2.671391726737E-23,-1.583940361952E-03,
    -0.999998745566));
#219 = DEFINITIONAL_REPRESENTATION('',(#220),#224);
#220 = LINE('',#221,#222);
#221 = CARTESIAN_POINT('',(19.727358896301,-58.93422638212));
#222 = VECTOR('',#223,1.);
#223 = DIRECTION('',(-0.317423928394,0.948283739016));
#224 = ( GEOMETRIC_REPRESENTATION_CONTEXT(2) 
PARAMETRIC_REPRESENTATION_CONTEXT() REPRESENTATION_CONTEXT('2D SPACE',''
  ) );
#225 = ADVANCED_FACE('',(#226),#214,.T.);
#226 = FACE_BOUND('',#227,.T.);
#227 = EDGE_LOOP('',(#228,#229,#257));
#228 = ORIENTED_EDGE('',*,*,#200,.F.);
#229 = ORIENTED_EDGE('',*,*,#230,.T.);
#230 = EDGE_CURVE('',#57,#231,#233,.T.);
#231 = VERTEX_POINT('',#232);
#232 = CARTESIAN_POINT('',(29.465770396047,-43.02837809392,
    8.228357625897E-02));
#233 = SURFACE_CURVE('',#234,(#238,#245),.PCURVE_S1.);
#234 = LINE('',#235,#236);
#235 = CARTESIAN_POINT('',(-29.51031468155,-43.01929819013,
    5.118350223974E-02));
#236 = VECTOR('',#237,1.);
#237 = DIRECTION('',(0.999999849108,-1.539590565596E-04,
    5.27333567251E-04));
#238 = PCURVE('',#214,#239);
#239 = DEFINITIONAL_REPRESENTATION('',(#240),#244);
#240 = LINE('',#241,#242);
#241 = CARTESIAN_POINT('',(19.727358896301,-58.93422638212));
#242 = VECTOR('',#243,1.);
#243 = DIRECTION('',(-5.270890437819E-04,0.999999861089));
#244 = ( GEOMETRIC_REPRESENTATION_CONTEXT(2) 
PARAMETRIC_REPRESENTATION_CONTEXT() REPRESENTATION_CONTEXT('2D SPACE',''
  ) );
#245 = PCURVE('',#246,#251);
#246 = PLANE('',#247);
#247 = AXIS2_PLACEMENT_3D('',#248,#249,#250);
#248 = CARTESIAN_POINT('',(29.460525593523,43.000860889741,
    4.726302310638E-02));
#249 = DIRECTION('',(5.272708615438E-04,-4.070450972881E-04,
    -0.99999977815));
#250 = DIRECTION('',(-0.999999860993,3.14121065484E-23,
    -5.272709052244E-04));
#251 = DEFINITIONAL_REPRESENTATION('',(#252),#256);
#252 = LINE('',#253,#254);
#253 = CARTESIAN_POINT('',(58.970830010548,-86.02016620603));
#254 = VECTOR('',#255,1.);
#255 = DIRECTION('',(-0.999999988148,-1.53959069314E-04));
#256 = ( GEOMETRIC_REPRESENTATION_CONTEXT(2) 
PARAMETRIC_REPRESENTATION_CONTEXT() REPRESENTATION_CONTEXT('2D SPACE',''
  ) );
#257 = ORIENTED_EDGE('',*,*,#258,.F.);
#258 = EDGE_CURVE('',#172,#231,#259,.T.);
#259 = SURFACE_CURVE('',#260,(#264,#271),.PCURVE_S1.);
#260 = LINE('',#261,#262);
#261 = CARTESIAN_POINT('',(29.423910994499,-42.99717389217,
    19.778532101635));
#262 = VECTOR('',#263,1.);
#263 = DIRECTION('',(2.125239962855E-03,-1.584265759205E-03,
    -0.999996486722));
#264 = PCURVE('',#214,#265);
#265 = DEFINITIONAL_REPRESENTATION('',(#266),#270);
#266 = LINE('',#267,#268);
#267 = CARTESIAN_POINT('',(0.,0.));
#268 = VECTOR('',#269,1.);
#269 = DIRECTION('',(0.999997741675,2.125239988317E-03));
#270 = ( GEOMETRIC_REPRESENTATION_CONTEXT(2) 
PARAMETRIC_REPRESENTATION_CONTEXT() REPRESENTATION_CONTEXT('2D SPACE',''
  ) );
#271 = PCURVE('',#272,#277);
#272 = PLANE('',#273);
#273 = AXIS2_PLACEMENT_3D('',#274,#275,#276);
#274 = CARTESIAN_POINT('',(29.423910994499,-42.99717389217,
    19.778532101635));
#275 = DIRECTION('',(0.999997739966,6.18303088067E-05,2.125144670323E-03
    ));
#276 = DIRECTION('',(-2.125144674385E-03,1.322389298629E-24,
    0.999997741878));
#277 = DEFINITIONAL_REPRESENTATION('',(#278),#282);
#278 = LINE('',#279,#280);
#279 = CARTESIAN_POINT('',(0.,0.));
#280 = VECTOR('',#281,1.);
#281 = DIRECTION('',(-0.99999874505,1.584265762233E-03));
#282 = ( GEOMETRIC_REPRESENTATION_CONTEXT(2) 
PARAMETRIC_REPRESENTATION_CONTEXT() REPRESENTATION_CONTEXT('2D SPACE',''
  ) );
#283 = ADVANCED_FACE('',(#284),#129,.T.);
#284 = FACE_BOUND('',#285,.T.);
#285 = EDGE_LOOP('',(#286,#314,#315));
#286 = ORIENTED_EDGE('',*,*,#287,.F.);
#287 = EDGE_CURVE('',#114,#288,#290,.T.);
#288 = VERTEX_POINT('',#289);
#289 = CARTESIAN_POINT('',(-28.44852548441,42.030966871319,
    20.762847468375));
#290 = SURFACE_CURVE('',#291,(#295,#302),.PCURVE_S1.);
#291 = LINE('',#292,#293);
#292 = CARTESIAN_POINT('',(-29.50581500201,43.03242372361,
    19.768129958237));
#293 = VECTOR('',#294,1.);
#294 = DIRECTION('',(0.59951076234,-0.567852183315,0.564030800349));
#295 = PCURVE('',#129,#296);
#296 = DEFINITIONAL_REPRESENTATION('',(#297),#301);
#297 = LINE('',#298,#299);
#298 = CARTESIAN_POINT('',(-1.451662418406,1.001456988094));
#299 = VECTOR('',#300,1.);
#300 = DIRECTION('',(0.823130494181,-0.567852260318));
#301 = ( GEOMETRIC_REPRESENTATION_CONTEXT(2) 
PARAMETRIC_REPRESENTATION_CONTEXT() REPRESENTATION_CONTEXT('2D SPACE',''
  ) );
#302 = PCURVE('',#303,#308);
#303 = PLANE('',#304);
#304 = AXIS2_PLACEMENT_3D('',#305,#306,#307);
#305 = CARTESIAN_POINT('',(28.422932134303,41.96193458351,
    20.797574701919));
#306 = DIRECTION('',(4.22580030851E-04,0.704939958948,0.709266857892));
#307 = DIRECTION('',(-5.110187319117E-21,0.70926692122,-0.70494002189));
#308 = DEFINITIONAL_REPRESENTATION('',(#309),#313);
#309 = LINE('',#310,#311);
#310 = CARTESIAN_POINT('',(1.484959336745,57.9287523086));
#311 = VECTOR('',#312,1.);
#312 = DIRECTION('',(-0.800366654513,-0.599510815869));
#313 = ( GEOMETRIC_REPRESENTATION_CONTEXT(2) 
PARAMETRIC_REPRESENTATION_CONTEXT() REPRESENTATION_CONTEXT('2D SPACE',''
  ) );
#314 = ORIENTED_EDGE('',*,*,#113,.T.);
#315 = ORIENTED_EDGE('',*,*,#316,.T.);
#316 = EDGE_CURVE('',#22,#288,#317,.T.);
#317 = SURFACE_CURVE('',#318,(#322,#329),.PCURVE_S1.);
#318 = LINE('',#319,#320);
#319 = CARTESIAN_POINT('',(-29.45469964918,-43.00199846566,
    19.754716759004));
#320 = VECTOR('',#321,1.);
#321 = DIRECTION('',(1.183109442006E-02,0.999859742918,
    1.185410044098E-02));
#322 = PCURVE('',#129,#323);
#323 = DEFINITIONAL_REPRESENTATION('',(#324),#328);
#324 = LINE('',#325,#326);
#325 = CARTESIAN_POINT('',(-1.42364074157,-85.03297686789));
#326 = VECTOR('',#327,1.);
#327 = DIRECTION('',(1.673987329775E-02,0.999859878504));
#328 = ( GEOMETRIC_REPRESENTATION_CONTEXT(2) 
PARAMETRIC_REPRESENTATION_CONTEXT() REPRESENTATION_CONTEXT('2D SPACE',''
  ) );
#329 = PCURVE('',#330,#335);
#330 = PLANE('',#331);
#331 = AXIS2_PLACEMENT_3D('',#332,#333,#334);
#332 = CARTESIAN_POINT('',(-28.44852548441,42.030966871319,
    20.762847468375));
#333 = DIRECTION('',(-0.720724923955,3.09495533111E-04,0.693221096189));
#334 = DIRECTION('',(-0.69322112939,8.375003714523E-21,-0.720724958474)
  );
#335 = DEFINITIONAL_REPRESENTATION('',(#336),#340);
#336 = LINE('',#337,#338);
#337 = CARTESIAN_POINT('',(1.424086154514,85.032969409531));
#338 = VECTOR('',#339,1.);
#339 = DIRECTION('',(-1.674511068387E-02,-0.999859790805));
#340 = ( GEOMETRIC_REPRESENTATION_CONTEXT(2) 
PARAMETRIC_REPRESENTATION_CONTEXT() REPRESENTATION_CONTEXT('2D SPACE',''
  ) );
#341 = ADVANCED_FACE('',(#342),#330,.T.);
#342 = FACE_BOUND('',#343,.T.);
#343 = EDGE_LOOP('',(#344,#345,#373));
#344 = ORIENTED_EDGE('',*,*,#316,.F.);
#345 = ORIENTED_EDGE('',*,*,#346,.T.);
#346 = EDGE_CURVE('',#22,#347,#349,.T.);
#347 = VERTEX_POINT('',#348);
#348 = CARTESIAN_POINT('',(-28.45742232543,-41.99145141611,
    20.791110295602));
#349 = SURFACE_CURVE('',#350,(#354,#361),.PCURVE_S1.);
#350 = LINE('',#351,#352);
#351 = CARTESIAN_POINT('',(-29.45469964918,-43.00199846566,
    19.754716759004));
#352 = VECTOR('',#353,1.);
#353 = DIRECTION('',(0.567342359295,0.574891390405,0.589595231144));
#354 = PCURVE('',#330,#355);
#355 = DEFINITIONAL_REPRESENTATION('',(#356),#360);
#356 = LINE('',#357,#358);
#357 = CARTESIAN_POINT('',(1.424086154514,85.032969409531));
#358 = VECTOR('',#359,1.);
#359 = DIRECTION('',(-0.818229709544,-0.574891417939));
#360 = ( GEOMETRIC_REPRESENTATION_CONTEXT(2) 
PARAMETRIC_REPRESENTATION_CONTEXT() REPRESENTATION_CONTEXT('2D SPACE',''
  ) );
#361 = PCURVE('',#362,#367);
#362 = PLANE('',#363);
#363 = AXIS2_PLACEMENT_3D('',#364,#365,#366);
#364 = CARTESIAN_POINT('',(28.466147905255,-42.00322367148,
    20.805260359844));
#365 = DIRECTION('',(-3.21616872278E-04,-0.715823519194,0.698281165385)
  );
#366 = DIRECTION('',(-1.717723826155E-20,-0.698281201499,-0.715823556215
    ));
#367 = DEFINITIONAL_REPRESENTATION('',(#368),#372);
#368 = LINE('',#369,#370);
#369 = CARTESIAN_POINT('',(1.449429519621,-57.92085055002));
#370 = VECTOR('',#371,1.);
#371 = DIRECTION('',(-0.823482005909,0.567342388637));
#372 = ( GEOMETRIC_REPRESENTATION_CONTEXT(2) 
PARAMETRIC_REPRESENTATION_CONTEXT() REPRESENTATION_CONTEXT('2D SPACE',''
  ) );
#373 = ORIENTED_EDGE('',*,*,#374,.T.);
#374 = EDGE_CURVE('',#347,#288,#375,.T.);
#375 = SURFACE_CURVE('',#376,(#380,#387),.PCURVE_S1.);
#376 = LINE('',#377,#378);
#377 = CARTESIAN_POINT('',(-28.45742232543,-41.99145141611,
    20.791110295602));
#378 = VECTOR('',#379,1.);
#379 = DIRECTION('',(1.058865080389E-04,0.999999937821,
    -3.363724354242E-04));
#380 = PCURVE('',#330,#381);
#381 = DEFINITIONAL_REPRESENTATION('',(#382),#386);
#382 = LINE('',#383,#384);
#383 = CARTESIAN_POINT('',(-1.420224679776E-02,84.022422311581));
#384 = VECTOR('',#385,1.);
#385 = DIRECTION('',(1.690292448628E-04,-0.999999985715));
#386 = ( GEOMETRIC_REPRESENTATION_CONTEXT(2) 
PARAMETRIC_REPRESENTATION_CONTEXT() REPRESENTATION_CONTEXT('2D SPACE',''
  ) );
#387 = PCURVE('',#388,#393);
#388 = PLANE('',#389);
#389 = AXIS2_PLACEMENT_3D('',#390,#391,#392);
#390 = CARTESIAN_POINT('',(-28.44852548441,42.030966871319,
    20.762847468375));
#391 = DIRECTION('',(-2.48510463692E-04,3.36398740827E-04,0.999999912539
    ));
#392 = DIRECTION('',(-1.502797338966E-23,0.999999943418,
    -3.363987512146E-04));
#393 = DEFINITIONAL_REPRESENTATION('',(#394),#398);
#394 = LINE('',#395,#396);
#395 = CARTESIAN_POINT('',(-84.02242304085,8.89684129736E-03));
#396 = VECTOR('',#397,1.);
#397 = DIRECTION('',(0.999999994394,-1.058865113085E-04));
#398 = ( GEOMETRIC_REPRESENTATION_CONTEXT(2) 
PARAMETRIC_REPRESENTATION_CONTEXT() REPRESENTATION_CONTEXT('2D SPACE',''
  ) );
#399 = ADVANCED_FACE('',(#400),#72,.T.);
#400 = FACE_BOUND('',#401,.T.);
#401 = EDGE_LOOP('',(#402,#425,#426));
#402 = ORIENTED_EDGE('',*,*,#403,.F.);
#403 = EDGE_CURVE('',#57,#404,#406,.T.);
#404 = VERTEX_POINT('',#405);
#405 = CARTESIAN_POINT('',(29.460525593523,43.000860889741,
    4.726302310638E-02));
#406 = SURFACE_CURVE('',#407,(#411,#418),.PCURVE_S1.);
#407 = LINE('',#408,#409);
#408 = CARTESIAN_POINT('',(-29.51031468155,-43.01929819013,
    5.118350223974E-02));
#409 = VECTOR('',#410,1.);
#410 = DIRECTION('',(0.565434361527,0.82479329616,-3.759101286862E-05));
#411 = PCURVE('',#72,#412);
#412 = DEFINITIONAL_REPRESENTATION('',(#413),#417);
#413 = LINE('',#414,#415);
#414 = CARTESIAN_POINT('',(58.970819587888,-86.02017335125));
#415 = VECTOR('',#416,1.);
#416 = DIRECTION('',(-0.565434163171,0.824793433));
#417 = ( GEOMETRIC_REPRESENTATION_CONTEXT(2) 
PARAMETRIC_REPRESENTATION_CONTEXT() REPRESENTATION_CONTEXT('2D SPACE',''
  ) );
#418 = PCURVE('',#246,#419);
#419 = DEFINITIONAL_REPRESENTATION('',(#420),#424);
#420 = LINE('',#421,#422);
#421 = CARTESIAN_POINT('',(58.970830010548,-86.02016620603));
#422 = VECTOR('',#423,1.);
#423 = DIRECTION('',(-0.565434263107,0.824793364489));
#424 = ( GEOMETRIC_REPRESENTATION_CONTEXT(2) 
PARAMETRIC_REPRESENTATION_CONTEXT() REPRESENTATION_CONTEXT('2D SPACE',''
  ) );
#425 = ORIENTED_EDGE('',*,*,#56,.T.);
#426 = ORIENTED_EDGE('',*,*,#427,.T.);
#427 = EDGE_CURVE('',#24,#404,#428,.T.);
#428 = SURFACE_CURVE('',#429,(#433,#440),.PCURVE_S1.);
#429 = LINE('',#430,#431);
#430 = CARTESIAN_POINT('',(-29.45046584159,43.045004307321,
    1.653869955873E-03));
#431 = VECTOR('',#432,1.);
#432 = DIRECTION('',(0.999999419561,-7.493235282945E-04,
    7.742040248535E-04));
#433 = PCURVE('',#72,#434);
#434 = DEFINITIONAL_REPRESENTATION('',(#435),#439);
#435 = LINE('',#436,#437);
#436 = CARTESIAN_POINT('',(58.911009090516,4.414342490377E-02));
#437 = VECTOR('',#438,1.);
#438 = DIRECTION('',(-0.999999719257,-7.493236526128E-04));
#439 = ( GEOMETRIC_REPRESENTATION_CONTEXT(2) 
PARAMETRIC_REPRESENTATION_CONTEXT() REPRESENTATION_CONTEXT('2D SPACE',''
  ) );
#440 = PCURVE('',#441,#446);
#441 = PLANE('',#442);
#442 = AXIS2_PLACEMENT_3D('',#443,#444,#445);
#443 = CARTESIAN_POINT('',(29.465737827885,43.014044097359,
    19.735002944368));
#444 = DIRECTION('',(7.498421569053E-04,0.999999494543,
    -6.698132624651E-04));
#445 = DIRECTION('',(0.999999718868,-7.498423251136E-04,
    3.503214121351E-23));
#446 = DEFINITIONAL_REPRESENTATION('',(#447),#451);
#447 = LINE('',#448,#449);
#448 = CARTESIAN_POINT('',(-58.91621032153,19.733353501095));
#449 = VECTOR('',#450,1.);
#450 = DIRECTION('',(0.999999700304,-7.742041985268E-04));
#451 = ( GEOMETRIC_REPRESENTATION_CONTEXT(2) 
PARAMETRIC_REPRESENTATION_CONTEXT() REPRESENTATION_CONTEXT('2D SPACE',''
  ) );
#452 = ADVANCED_FACE('',(#453),#246,.T.);
#453 = FACE_BOUND('',#454,.T.);
#454 = EDGE_LOOP('',(#455,#476,#477));
#455 = ORIENTED_EDGE('',*,*,#456,.T.);
#456 = EDGE_CURVE('',#404,#231,#457,.T.);
#457 = SURFACE_CURVE('',#458,(#462,#469),.PCURVE_S1.);
#458 = LINE('',#459,#460);
#459 = CARTESIAN_POINT('',(29.460525593523,43.000860889741,
    4.726302310638E-02));
#460 = VECTOR('',#461,1.);
#461 = DIRECTION('',(6.09653432015E-05,-0.999999915286,
    4.070772983647E-04));
#462 = PCURVE('',#246,#463);
#463 = DEFINITIONAL_REPRESENTATION('',(#464),#468);
#464 = LINE('',#465,#466);
#465 = CARTESIAN_POINT('',(0.,0.));
#466 = VECTOR('',#467,1.);
#467 = DIRECTION('',(-6.117997474248E-05,-0.999999998129));
#468 = ( GEOMETRIC_REPRESENTATION_CONTEXT(2) 
PARAMETRIC_REPRESENTATION_CONTEXT() REPRESENTATION_CONTEXT('2D SPACE',''
  ) );
#469 = PCURVE('',#272,#470);
#470 = DEFINITIONAL_REPRESENTATION('',(#471),#475);
#471 = LINE('',#472,#473);
#472 = CARTESIAN_POINT('',(-19.73130233422,-85.99803494629));
#473 = VECTOR('',#474,1.);
#474 = DIRECTION('',(4.069468189599E-04,0.999999917197));
#475 = ( GEOMETRIC_REPRESENTATION_CONTEXT(2) 
PARAMETRIC_REPRESENTATION_CONTEXT() REPRESENTATION_CONTEXT('2D SPACE',''
  ) );
#476 = ORIENTED_EDGE('',*,*,#230,.F.);
#477 = ORIENTED_EDGE('',*,*,#403,.T.);
#478 = ADVANCED_FACE('',(#479),#441,.T.);
#479 = FACE_BOUND('',#480,.T.);
#480 = EDGE_LOOP('',(#481,#509,#510));
#481 = ORIENTED_EDGE('',*,*,#482,.F.);
#482 = EDGE_CURVE('',#404,#483,#485,.T.);
#483 = VERTEX_POINT('',#484);
#484 = CARTESIAN_POINT('',(29.465737827885,43.014044097359,
    19.735002944368));
#485 = SURFACE_CURVE('',#486,(#490,#497),.PCURVE_S1.);
#486 = LINE('',#487,#488);
#487 = CARTESIAN_POINT('',(29.460525593523,43.000860889741,
    4.726302310638E-02));
#488 = VECTOR('',#489,1.);
#489 = DIRECTION('',(2.647451170916E-04,6.696149102363E-04,
    0.999999740763));
#490 = PCURVE('',#441,#491);
#491 = DEFINITIONAL_REPRESENTATION('',(#492),#496);
#492 = LINE('',#493,#494);
#493 = CARTESIAN_POINT('',(-5.20234756955E-03,19.687744337713));
#494 = VECTOR('',#495,1.);
#495 = DIRECTION('',(2.642429370621E-04,-0.999999965088));
#496 = ( GEOMETRIC_REPRESENTATION_CONTEXT(2) 
PARAMETRIC_REPRESENTATION_CONTEXT() REPRESENTATION_CONTEXT('2D SPACE',''
  ) );
#497 = PCURVE('',#498,#503);
#498 = PLANE('',#499);
#499 = AXIS2_PLACEMENT_3D('',#500,#501,#502);
#500 = CARTESIAN_POINT('',(29.423910994499,-42.99717389217,
    19.778532101635));
#501 = DIRECTION('',(0.999999846735,-4.864288392591E-04,
    -2.644194250591E-04));
#502 = DIRECTION('',(4.864288562641E-04,0.999999881693,
    -5.41783291303E-24));
#503 = DEFINITIONAL_REPRESENTATION('',(#504),#508);
#504 = LINE('',#505,#506);
#505 = CARTESIAN_POINT('',(85.998042418183,-19.73126976831));
#506 = VECTOR('',#507,1.);
#507 = DIRECTION('',(6.69743610681E-04,0.999999775722));
#508 = ( GEOMETRIC_REPRESENTATION_CONTEXT(2) 
PARAMETRIC_REPRESENTATION_CONTEXT() REPRESENTATION_CONTEXT('2D SPACE',''
  ) );
#509 = ORIENTED_EDGE('',*,*,#427,.F.);
#510 = ORIENTED_EDGE('',*,*,#511,.T.);
#511 = EDGE_CURVE('',#24,#483,#512,.T.);
#512 = SURFACE_CURVE('',#513,(#517,#524),.PCURVE_S1.);
#513 = LINE('',#514,#515);
#514 = CARTESIAN_POINT('',(-29.45046584159,43.045004307321,
    1.653869955873E-03));
#515 = VECTOR('',#516,1.);
#516 = DIRECTION('',(0.948225359054,-4.982883210303E-04,0.317597890665)
  );
#517 = PCURVE('',#441,#518);
#518 = DEFINITIONAL_REPRESENTATION('',(#519),#523);
#519 = LINE('',#520,#521);
#520 = CARTESIAN_POINT('',(-58.91621032153,19.733353501095));
#521 = VECTOR('',#522,1.);
#522 = DIRECTION('',(0.948225466116,-0.31759796191));
#523 = ( GEOMETRIC_REPRESENTATION_CONTEXT(2) 
PARAMETRIC_REPRESENTATION_CONTEXT() REPRESENTATION_CONTEXT('2D SPACE',''
  ) );
#524 = PCURVE('',#155,#525);
#525 = DEFINITIONAL_REPRESENTATION('',(#526),#530);
#526 = LINE('',#527,#528);
#527 = CARTESIAN_POINT('',(-19.73336479862,-58.91620653755));
#528 = VECTOR('',#529,1.);
#529 = DIRECTION('',(0.317598143738,0.948225405214));
#530 = ( GEOMETRIC_REPRESENTATION_CONTEXT(2) 
PARAMETRIC_REPRESENTATION_CONTEXT() REPRESENTATION_CONTEXT('2D SPACE',''
  ) );
#531 = ADVANCED_FACE('',(#532),#155,.T.);
#532 = FACE_BOUND('',#533,.T.);
#533 = EDGE_LOOP('',(#534,#535,#536));
#534 = ORIENTED_EDGE('',*,*,#511,.F.);
#535 = ORIENTED_EDGE('',*,*,#141,.F.);
#536 = ORIENTED_EDGE('',*,*,#537,.T.);
#537 = EDGE_CURVE('',#114,#483,#538,.T.);
#538 = SURFACE_CURVE('',#539,(#543,#550),.PCURVE_S1.);
#539 = LINE('',#540,#541);
#540 = CARTESIAN_POINT('',(-29.50581500201,43.03242372361,
    19.768129958237));
#541 = VECTOR('',#542,1.);
#542 = DIRECTION('',(0.999999793652,-3.116692977639E-04,
    -5.6174554415E-04));
#543 = PCURVE('',#155,#544);
#544 = DEFINITIONAL_REPRESENTATION('',(#545),#549);
#545 = LINE('',#546,#547);
#546 = CARTESIAN_POINT('',(3.311529317673E-02,-58.97155570066));
#547 = VECTOR('',#548,1.);
#548 = DIRECTION('',(-5.615467925523E-04,0.999999842333));
#549 = ( GEOMETRIC_REPRESENTATION_CONTEXT(2) 
PARAMETRIC_REPRESENTATION_CONTEXT() REPRESENTATION_CONTEXT('2D SPACE',''
  ) );
#550 = PCURVE('',#551,#556);
#551 = PLANE('',#552);
#552 = AXIS2_PLACEMENT_3D('',#553,#554,#555);
#553 = CARTESIAN_POINT('',(28.422932134303,41.96193458351,
    20.797574701919));
#554 = DIRECTION('',(6.167924800019E-04,0.710293602417,0.703905262043));
#555 = DIRECTION('',(-4.084119233068E-20,-0.703905395938,0.710293737527)
  );
#556 = DEFINITIONAL_REPRESENTATION('',(#557),#561);
#557 = LINE('',#558,#559);
#558 = CARTESIAN_POINT('',(-1.484731236576,-57.92875815532));
#559 = VECTOR('',#560,1.);
#560 = DIRECTION('',(-1.796186416493E-04,0.999999983869));
#561 = ( GEOMETRIC_REPRESENTATION_CONTEXT(2) 
PARAMETRIC_REPRESENTATION_CONTEXT() REPRESENTATION_CONTEXT('2D SPACE',''
  ) );
#562 = ADVANCED_FACE('',(#563),#272,.T.);
#563 = FACE_BOUND('',#564,.T.);
#564 = EDGE_LOOP('',(#565,#566,#567));
#565 = ORIENTED_EDGE('',*,*,#258,.T.);
#566 = ORIENTED_EDGE('',*,*,#456,.F.);
#567 = ORIENTED_EDGE('',*,*,#568,.F.);
#568 = EDGE_CURVE('',#172,#404,#569,.T.);
#569 = SURFACE_CURVE('',#570,(#574,#581),.PCURVE_S1.);
#570 = LINE('',#571,#572);
#571 = CARTESIAN_POINT('',(29.423910994499,-42.99717389217,
    19.778532101635));
#572 = VECTOR('',#573,1.);
#573 = DIRECTION('',(4.149782700945E-04,0.974674492054,-0.223627955167)
  );
#574 = PCURVE('',#272,#575);
#575 = DEFINITIONAL_REPRESENTATION('',(#576),#580);
#576 = LINE('',#577,#578);
#577 = CARTESIAN_POINT('',(0.,0.));
#578 = VECTOR('',#579,1.);
#579 = DIRECTION('',(-0.223628332077,-0.974674493917));
#580 = ( GEOMETRIC_REPRESENTATION_CONTEXT(2) 
PARAMETRIC_REPRESENTATION_CONTEXT() REPRESENTATION_CONTEXT('2D SPACE',''
  ) );
#581 = PCURVE('',#498,#582);
#582 = DEFINITIONAL_REPRESENTATION('',(#583),#587);
#583 = LINE('',#584,#585);
#584 = CARTESIAN_POINT('',(0.,0.));
#585 = VECTOR('',#586,1.);
#586 = DIRECTION('',(0.974674578601,-0.223627962985));
#587 = ( GEOMETRIC_REPRESENTATION_CONTEXT(2) 
PARAMETRIC_REPRESENTATION_CONTEXT() REPRESENTATION_CONTEXT('2D SPACE',''
  ) );
#588 = ADVANCED_FACE('',(#589),#498,.T.);
#589 = FACE_BOUND('',#590,.T.);
#590 = EDGE_LOOP('',(#591,#592,#593));
#591 = ORIENTED_EDGE('',*,*,#568,.T.);
#592 = ORIENTED_EDGE('',*,*,#482,.T.);
#593 = ORIENTED_EDGE('',*,*,#594,.F.);
#594 = EDGE_CURVE('',#172,#483,#595,.T.);
#595 = SURFACE_CURVE('',#596,(#600,#607),.PCURVE_S1.);
#596 = LINE('',#597,#598);
#597 = CARTESIAN_POINT('',(29.423910994499,-42.99717389217,
    19.778532101635));
#598 = VECTOR('',#599,1.);
#599 = DIRECTION('',(4.862949747877E-04,0.999999753697,
    -5.060868519661E-04));
#600 = PCURVE('',#498,#601);
#601 = DEFINITIONAL_REPRESENTATION('',(#602),#606);
#602 = LINE('',#603,#604);
#603 = CARTESIAN_POINT('',(0.,0.));
#604 = VECTOR('',#605,1.);
#605 = DIRECTION('',(0.999999871938,-5.060868696583E-04));
#606 = ( GEOMETRIC_REPRESENTATION_CONTEXT(2) 
PARAMETRIC_REPRESENTATION_CONTEXT() REPRESENTATION_CONTEXT('2D SPACE',''
  ) );
#607 = PCURVE('',#608,#613);
#608 = PLANE('',#609);
#609 = AXIS2_PLACEMENT_3D('',#610,#611,#612);
#610 = CARTESIAN_POINT('',(28.422932134303,41.96193458351,
    20.797574701919));
#611 = DIRECTION('',(0.713710240497,7.410314525312E-06,0.700441070009));
#612 = DIRECTION('',(-0.700441070028,1.75755526946E-23,0.713710240517));
#613 = DEFINITIONAL_REPRESENTATION('',(#614),#618);
#614 = LINE('',#615,#616);
#615 = CARTESIAN_POINT('',(-1.428427843256,84.959108478016));
#616 = VECTOR('',#617,1.);
#617 = DIRECTION('',(-7.018203413285E-04,-0.999999753724));
#618 = ( GEOMETRIC_REPRESENTATION_CONTEXT(2) 
PARAMETRIC_REPRESENTATION_CONTEXT() REPRESENTATION_CONTEXT('2D SPACE',''
  ) );
#619 = ADVANCED_FACE('',(#620),#362,.T.);
#620 = FACE_BOUND('',#621,.T.);
#621 = EDGE_LOOP('',(#622,#645,#646));
#622 = ORIENTED_EDGE('',*,*,#623,.F.);
#623 = EDGE_CURVE('',#347,#624,#626,.T.);
#624 = VERTEX_POINT('',#625);
#625 = CARTESIAN_POINT('',(28.466147905255,-42.00322367148,
    20.805260359844));
#626 = SURFACE_CURVE('',#627,(#631,#638),.PCURVE_S1.);
#627 = LINE('',#628,#629);
#628 = CARTESIAN_POINT('',(-28.45742232543,-41.99145141611,
    20.791110295602));
#629 = VECTOR('',#630,1.);
#630 = DIRECTION('',(0.999999947719,-2.068080885592E-04,
    2.485800424213E-04));
#631 = PCURVE('',#362,#632);
#632 = DEFINITIONAL_REPRESENTATION('',(#633),#637);
#633 = LINE('',#634,#635);
#634 = CARTESIAN_POINT('',(1.908604683422E-03,-56.9235731747));
#635 = VECTOR('',#636,1.);
#636 = DIRECTION('',(-3.352924941116E-05,0.999999999438));
#637 = ( GEOMETRIC_REPRESENTATION_CONTEXT(2) 
PARAMETRIC_REPRESENTATION_CONTEXT() REPRESENTATION_CONTEXT('2D SPACE',''
  ) );
#638 = PCURVE('',#388,#639);
#639 = DEFINITIONAL_REPRESENTATION('',(#640),#644);
#640 = LINE('',#641,#642);
#641 = CARTESIAN_POINT('',(-84.02242304085,8.89684129736E-03));
#642 = VECTOR('',#643,1.);
#643 = DIRECTION('',(-2.068916988735E-04,-0.999999978598));
#644 = ( GEOMETRIC_REPRESENTATION_CONTEXT(2) 
PARAMETRIC_REPRESENTATION_CONTEXT() REPRESENTATION_CONTEXT('2D SPACE',''
  ) );
#645 = ORIENTED_EDGE('',*,*,#346,.F.);
#646 = ORIENTED_EDGE('',*,*,#647,.T.);
#647 = EDGE_CURVE('',#22,#624,#648,.T.);
#648 = SURFACE_CURVE('',#649,(#653,#660),.PCURVE_S1.);
#649 = LINE('',#650,#651);
#650 = CARTESIAN_POINT('',(-29.45469964918,-43.00199846566,
    19.754716759004));
#651 = VECTOR('',#652,1.);
#652 = DIRECTION('',(0.999686987144,1.723839009593E-02,1.81318957082E-02
    ));
#653 = PCURVE('',#362,#654);
#654 = DEFINITIONAL_REPRESENTATION('',(#655),#659);
#655 = LINE('',#656,#657);
#656 = CARTESIAN_POINT('',(1.449429519621,-57.92085055002));
#657 = VECTOR('',#658,1.);
#658 = DIRECTION('',(-2.501648181487E-02,0.999687038846));
#659 = ( GEOMETRIC_REPRESENTATION_CONTEXT(2) 
PARAMETRIC_REPRESENTATION_CONTEXT() REPRESENTATION_CONTEXT('2D SPACE',''
  ) );
#660 = PCURVE('',#187,#661);
#661 = DEFINITIONAL_REPRESENTATION('',(#662),#666);
#662 = LINE('',#663,#664);
#663 = CARTESIAN_POINT('',(1.449491978432,-57.920848987));
#664 = VECTOR('',#665,1.);
#665 = DIRECTION('',(-2.501755982501E-02,0.999687011869));
#666 = ( GEOMETRIC_REPRESENTATION_CONTEXT(2) 
PARAMETRIC_REPRESENTATION_CONTEXT() REPRESENTATION_CONTEXT('2D SPACE',''
  ) );
#667 = ADVANCED_FACE('',(#668),#187,.T.);
#668 = FACE_BOUND('',#669,.T.);
#669 = EDGE_LOOP('',(#670,#671,#672));
#670 = ORIENTED_EDGE('',*,*,#647,.F.);
#671 = ORIENTED_EDGE('',*,*,#171,.T.);
#672 = ORIENTED_EDGE('',*,*,#673,.F.);
#673 = EDGE_CURVE('',#624,#172,#674,.T.);
#674 = SURFACE_CURVE('',#675,(#679,#686),.PCURVE_S1.);
#675 = LINE('',#676,#677);
#676 = CARTESIAN_POINT('',(28.466147905255,-42.00322367148,
    20.805260359844));
#677 = VECTOR('',#678,1.);
#678 = DIRECTION('',(0.556743215868,-0.577778626566,-0.596832346869));
#679 = PCURVE('',#187,#680);
#680 = DEFINITIONAL_REPRESENTATION('',(#681),#685);
#681 = LINE('',#682,#683);
#682 = CARTESIAN_POINT('',(-0.,0.));
#683 = VECTOR('',#684,1.);
#684 = DIRECTION('',(0.830684643082,0.556743229638));
#685 = ( GEOMETRIC_REPRESENTATION_CONTEXT(2) 
PARAMETRIC_REPRESENTATION_CONTEXT() REPRESENTATION_CONTEXT('2D SPACE',''
  ) );
#686 = PCURVE('',#687,#692);
#687 = PLANE('',#688);
#688 = AXIS2_PLACEMENT_3D('',#689,#690,#691);
#689 = CARTESIAN_POINT('',(28.422932134303,41.96193458351,
    20.797574701919));
#690 = DIRECTION('',(0.731450591766,4.388845129224E-04,0.681894302063));
#691 = DIRECTION('',(-0.681894367736,5.472754893296E-21,0.731450662211)
  );
#692 = DEFINITIONAL_REPRESENTATION('',(#693),#697);
#693 = LINE('',#694,#695);
#694 = CARTESIAN_POINT('',(-2.384691123047E-02,83.965166341662));
#695 = VECTOR('',#696,1.);
#696 = DIRECTION('',(-0.816193478522,0.577778682212));
#697 = ( GEOMETRIC_REPRESENTATION_CONTEXT(2) 
PARAMETRIC_REPRESENTATION_CONTEXT() REPRESENTATION_CONTEXT('2D SPACE',''
  ) );
#698 = ADVANCED_FACE('',(#699),#388,.T.);
#699 = FACE_BOUND('',#700,.T.);
#700 = EDGE_LOOP('',(#701,#702,#703));
#701 = ORIENTED_EDGE('',*,*,#374,.F.);
#702 = ORIENTED_EDGE('',*,*,#623,.T.);
#703 = ORIENTED_EDGE('',*,*,#704,.F.);
#704 = EDGE_CURVE('',#288,#624,#705,.T.);
#705 = SURFACE_CURVE('',#706,(#710,#717),.PCURVE_S1.);
#706 = LINE('',#707,#708);
#707 = CARTESIAN_POINT('',(-28.44852548441,42.030966871319,
    20.762847468375));
#708 = VECTOR('',#709,1.);
#709 = DIRECTION('',(0.560768983683,-0.827972205035,4.178858039213E-04)
  );
#710 = PCURVE('',#388,#711);
#711 = DEFINITIONAL_REPRESENTATION('',(#712),#716);
#712 = LINE('',#713,#714);
#713 = CARTESIAN_POINT('',(0.,-0.));
#714 = VECTOR('',#715,1.);
#715 = DIRECTION('',(-0.827972298763,-0.560769000999));
#716 = ( GEOMETRIC_REPRESENTATION_CONTEXT(2) 
PARAMETRIC_REPRESENTATION_CONTEXT() REPRESENTATION_CONTEXT('2D SPACE',''
  ) );
#717 = PCURVE('',#718,#723);
#718 = PLANE('',#719);
#719 = AXIS2_PLACEMENT_3D('',#720,#721,#722);
#720 = CARTESIAN_POINT('',(28.422932134303,41.96193458351,
    20.797574701919));
#721 = DIRECTION('',(-6.105159122033E-04,9.121965234547E-05,
    0.999999809475));
#722 = DIRECTION('',(0.999999813635,-3.602016885204E-24,
    6.105159147434E-04));
#723 = DEFINITIONAL_REPRESENTATION('',(#724),#728);
#724 = LINE('',#725,#726);
#725 = CARTESIAN_POINT('',(-56.8714682214,6.90322880962E-02));
#726 = VECTOR('',#727,1.);
#727 = DIRECTION('',(0.560769134301,-0.82797220848));
#728 = ( GEOMETRIC_REPRESENTATION_CONTEXT(2) 
PARAMETRIC_REPRESENTATION_CONTEXT() REPRESENTATION_CONTEXT('2D SPACE',''
  ) );
#729 = ADVANCED_FACE('',(#730),#718,.T.);
#730 = FACE_BOUND('',#731,.T.);
#731 = EDGE_LOOP('',(#732,#755,#756));
#732 = ORIENTED_EDGE('',*,*,#733,.F.);
#733 = EDGE_CURVE('',#288,#734,#736,.T.);
#734 = VERTEX_POINT('',#735);
#735 = CARTESIAN_POINT('',(28.422932134303,41.96193458351,
    20.797574701919));
#736 = SURFACE_CURVE('',#737,(#741,#748),.PCURVE_S1.);
#737 = LINE('',#738,#739);
#738 = CARTESIAN_POINT('',(-28.44852548441,42.030966871319,
    20.762847468375));
#739 = VECTOR('',#740,1.);
#740 = DIRECTION('',(0.999999076877,-1.213828992155E-03,
    6.106261900205E-04));
#741 = PCURVE('',#718,#742);
#742 = DEFINITIONAL_REPRESENTATION('',(#743),#747);
#743 = LINE('',#744,#745);
#744 = CARTESIAN_POINT('',(-56.8714682214,6.90322880962E-02));
#745 = VECTOR('',#746,1.);
#746 = DIRECTION('',(0.999999263309,-1.213828997205E-03));
#747 = ( GEOMETRIC_REPRESENTATION_CONTEXT(2) 
PARAMETRIC_REPRESENTATION_CONTEXT() REPRESENTATION_CONTEXT('2D SPACE',''
  ) );
#748 = PCURVE('',#303,#749);
#749 = DEFINITIONAL_REPRESENTATION('',(#750),#754);
#750 = LINE('',#751,#752);
#751 = CARTESIAN_POINT('',(7.344293501386E-02,56.871462696592));
#752 = VECTOR('',#753,1.);
#753 = DIRECTION('',(-1.291383591913E-03,-0.999999166164));
#754 = ( GEOMETRIC_REPRESENTATION_CONTEXT(2) 
PARAMETRIC_REPRESENTATION_CONTEXT() REPRESENTATION_CONTEXT('2D SPACE',''
  ) );
#755 = ORIENTED_EDGE('',*,*,#704,.T.);
#756 = ORIENTED_EDGE('',*,*,#757,.F.);
#757 = EDGE_CURVE('',#734,#624,#758,.T.);
#758 = SURFACE_CURVE('',#759,(#763,#770),.PCURVE_S1.);
#759 = LINE('',#760,#761);
#760 = CARTESIAN_POINT('',(28.422932134303,41.96193458351,
    20.797574701919));
#761 = VECTOR('',#762,1.);
#762 = DIRECTION('',(5.146868766159E-04,-0.999999863359,
    9.153388184867E-05));
#763 = PCURVE('',#718,#764);
#764 = DEFINITIONAL_REPRESENTATION('',(#765),#769);
#765 = LINE('',#766,#767);
#766 = CARTESIAN_POINT('',(0.,0.));
#767 = VECTOR('',#768,1.);
#768 = DIRECTION('',(5.14742663588E-04,-0.99999986752));
#769 = ( GEOMETRIC_REPRESENTATION_CONTEXT(2) 
PARAMETRIC_REPRESENTATION_CONTEXT() REPRESENTATION_CONTEXT('2D SPACE',''
  ) );
#770 = PCURVE('',#687,#771);
#771 = DEFINITIONAL_REPRESENTATION('',(#772),#776);
#772 = LINE('',#773,#774);
#773 = CARTESIAN_POINT('',(0.,0.));
#774 = VECTOR('',#775,1.);
#775 = DIRECTION('',(-2.840095638192E-04,0.999999959669));
#776 = ( GEOMETRIC_REPRESENTATION_CONTEXT(2) 
PARAMETRIC_REPRESENTATION_CONTEXT() REPRESENTATION_CONTEXT('2D SPACE',''
  ) );
#777 = ADVANCED_FACE('',(#778),#303,.T.);
#778 = FACE_BOUND('',#779,.T.);
#779 = EDGE_LOOP('',(#780,#801,#802));
#780 = ORIENTED_EDGE('',*,*,#781,.F.);
#781 = EDGE_CURVE('',#114,#734,#782,.T.);
#782 = SURFACE_CURVE('',#783,(#787,#794),.PCURVE_S1.);
#783 = LINE('',#784,#785);
#784 = CARTESIAN_POINT('',(-29.50581500201,43.03242372361,
    19.768129958237));
#785 = VECTOR('',#786,1.);
#786 = DIRECTION('',(0.999671515538,-1.847334102587E-02,
    1.776504133013E-02));
#787 = PCURVE('',#303,#788);
#788 = DEFINITIONAL_REPRESENTATION('',(#789),#793);
#789 = LINE('',#790,#791);
#790 = CARTESIAN_POINT('',(1.484959336745,57.9287523086));
#791 = VECTOR('',#792,1.);
#792 = DIRECTION('',(-2.562581833821E-02,-0.999671604796));
#793 = ( GEOMETRIC_REPRESENTATION_CONTEXT(2) 
PARAMETRIC_REPRESENTATION_CONTEXT() REPRESENTATION_CONTEXT('2D SPACE',''
  ) );
#794 = PCURVE('',#551,#795);
#795 = DEFINITIONAL_REPRESENTATION('',(#796),#800);
#796 = LINE('',#797,#798);
#797 = CARTESIAN_POINT('',(-1.484731236576,-57.92875815532));
#798 = VECTOR('',#799,1.);
#799 = DIRECTION('',(2.56218820328E-02,0.999671705692));
#800 = ( GEOMETRIC_REPRESENTATION_CONTEXT(2) 
PARAMETRIC_REPRESENTATION_CONTEXT() REPRESENTATION_CONTEXT('2D SPACE',''
  ) );
#801 = ORIENTED_EDGE('',*,*,#287,.T.);
#802 = ORIENTED_EDGE('',*,*,#733,.T.);
#803 = ADVANCED_FACE('',(#804),#551,.T.);
#804 = FACE_BOUND('',#805,.T.);
#805 = EDGE_LOOP('',(#806,#827,#828));
#806 = ORIENTED_EDGE('',*,*,#807,.T.);
#807 = EDGE_CURVE('',#734,#483,#808,.T.);
#808 = SURFACE_CURVE('',#809,(#813,#820),.PCURVE_S1.);
#809 = LINE('',#810,#811);
#810 = CARTESIAN_POINT('',(28.422932134303,41.96193458351,
    20.797574701919));
#811 = VECTOR('',#812,1.);
#812 = DIRECTION('',(0.572017974735,0.577121468568,-0.582860401038));
#813 = PCURVE('',#551,#814);
#814 = DEFINITIONAL_REPRESENTATION('',(#815),#819);
#815 = LINE('',#816,#817);
#816 = CARTESIAN_POINT('',(0.,0.));
#817 = VECTOR('',#818,1.);
#818 = DIRECTION('',(-0.820241008546,0.572018083542));
#819 = ( GEOMETRIC_REPRESENTATION_CONTEXT(2) 
PARAMETRIC_REPRESENTATION_CONTEXT() REPRESENTATION_CONTEXT('2D SPACE',''
  ) );
#820 = PCURVE('',#608,#821);
#821 = DEFINITIONAL_REPRESENTATION('',(#822),#826);
#822 = LINE('',#823,#824);
#823 = CARTESIAN_POINT('',(0.,0.));
#824 = VECTOR('',#825,1.);
#825 = DIRECTION('',(-0.816658319311,-0.577121468584));
#826 = ( GEOMETRIC_REPRESENTATION_CONTEXT(2) 
PARAMETRIC_REPRESENTATION_CONTEXT() REPRESENTATION_CONTEXT('2D SPACE',''
  ) );
#827 = ORIENTED_EDGE('',*,*,#537,.F.);
#828 = ORIENTED_EDGE('',*,*,#781,.T.);
#829 = ADVANCED_FACE('',(#830),#687,.T.);
#830 = FACE_BOUND('',#831,.T.);
#831 = EDGE_LOOP('',(#832,#833,#834));
#832 = ORIENTED_EDGE('',*,*,#757,.T.);
#833 = ORIENTED_EDGE('',*,*,#673,.T.);
#834 = ORIENTED_EDGE('',*,*,#835,.F.);
#835 = EDGE_CURVE('',#734,#172,#836,.T.);
#836 = SURFACE_CURVE('',#837,(#841,#848),.PCURVE_S1.);
#837 = LINE('',#838,#839);
#838 = CARTESIAN_POINT('',(28.422932134303,41.96193458351,
    20.797574701919));
#839 = VECTOR('',#840,1.);
#840 = DIRECTION('',(1.178022497208E-02,-0.999858689398,
    -1.199281180137E-02));
#841 = PCURVE('',#687,#842);
#842 = DEFINITIONAL_REPRESENTATION('',(#843),#847);
#843 = LINE('',#844,#845);
#844 = CARTESIAN_POINT('',(0.,0.));
#845 = VECTOR('',#846,1.);
#846 = DIRECTION('',(-1.680501919301E-02,0.999858785694));
#847 = ( GEOMETRIC_REPRESENTATION_CONTEXT(2) 
PARAMETRIC_REPRESENTATION_CONTEXT() REPRESENTATION_CONTEXT('2D SPACE',''
  ) );
#848 = PCURVE('',#608,#849);
#849 = DEFINITIONAL_REPRESENTATION('',(#850),#854);
#850 = LINE('',#851,#852);
#851 = CARTESIAN_POINT('',(0.,0.));
#852 = VECTOR('',#853,1.);
#853 = DIRECTION('',(-1.681074597983E-02,0.999858689425));
#854 = ( GEOMETRIC_REPRESENTATION_CONTEXT(2) 
PARAMETRIC_REPRESENTATION_CONTEXT() REPRESENTATION_CONTEXT('2D SPACE',''
  ) );
#855 = ADVANCED_FACE('',(#856),#608,.T.);
#856 = FACE_BOUND('',#857,.T.);
#857 = EDGE_LOOP('',(#858,#859,#860));
#858 = ORIENTED_EDGE('',*,*,#835,.T.);
#859 = ORIENTED_EDGE('',*,*,#594,.T.);
#860 = ORIENTED_EDGE('',*,*,#807,.F.);
#861 = ( GEOMETRIC_REPRESENTATION_CONTEXT(3) 
GLOBAL_UNCERTAINTY_ASSIGNED_CONTEXT((#865)) GLOBAL_UNIT_ASSIGNED_CONTEXT
((#862,#863,#864)) REPRESENTATION_CONTEXT('Context #1',
  '3D Context with UNIT and UNCERTAINTY') );
#862 = ( LENGTH_UNIT() NAMED_UNIT(*) SI_UNIT(.MILLI.,.METRE.) );
#863 = ( NAMED_UNIT(*) PLANE_ANGLE_UNIT() SI_UNIT($,.RADIAN.) );
#864 = ( NAMED_UNIT(*) SI_UNIT($,.STERADIAN.) SOLID_ANGLE_UNIT() );
#865 = UNCERTAINTY_MEASURE_WITH_UNIT(LENGTH_MEASURE(1.E-07),#862,
  'distance_accuracy_value','confusion accuracy');
#866 = PRODUCT_TYPE('part',$,(#7));
ENDSEC;
END-ISO-10303-21;
