ISO-10303-21;
HEADER;
FILE_DESCRIPTION(('Open CASCADE Model'),'2;1');
FILE_NAME('Open CASCADE Shape Model','2026-10-04T20:44:43',('Author'),(
    'Open CASCADE'),'Open CASCADE STEP processor 7.8','Open CASCADE 7.8'
  ,'Unknown');
FILE_SCHEMA(('AUTOMOTIVE_DESIGN_CC2 { 1 2 10303 214 -1 1 5 4 }'));
ENDSEC;
DATA;
#1 = APPLICATION_PROTOCOL_DEFINITION('committee draft',
  'automotive_design',1997,#2);
#2 = APPLICATION_CONTEXT(
  'core data for automotive mechanical design processes');
#3 = SHAPE_DEFINITION_REPRESENTATION(#4,#10);
#4 = PRODUCT_DEFINITION_SHAPE('','',#5);
#5 = PRODUCT_DEFINITION('design','',#6,#9);
#6 = PRODUCT_DEFINITION_FORMATION('','',#7);
#7 = PRODUCT('Open CASCADE STEP translator 7.8 123',
  'Open CASCADE STEP translator 7.8 123','',(#8));
#8 = MECHANICAL_CONTEXT('',#2,'mechanical');
#9 = PRODUCT_DEFINITION_CONTEXT('part definition',#2,'design');
#10 = ADVANCED_BREP_SHAPE_REPRESENTATION('',(#11,#15),#861);
#11 = AXIS2_PLACEMENT_3D('',#12,#13,#14);
#12 = CARTESIAN_POINT('',(0.,0.,0.));
#13 = DIRECTION('',(0.,0.,1.));
#14 = DIRECTION('',(1.,0.,-0.));
#15 = MANIFOLD_SOLID_BREP('',#16);
#16 = CLOSED_SHELL('',(#17,#109,#167,#220,#278,#336,#394,#425,#473,#504,
    #562,#588,#619,#672,#703,#751,#777,#803,#829,#855));
#17 = ADVANCED_FACE('',(#18),#32,.T.);
#18 = FACE_BOUND('',#19,.T.);
#19 = EDGE_LOOP('',(#20,#55,#83));
#20 = ORIENTED_EDGE('',*,*,#21,.F.);
#21 = EDGE_CURVE('',#22,#24,#26,.T.);
#22 = VERTEX_POINT('',#23);
#23 = CARTESIAN_POINT('',(-33.71084170434,28.760060588355,
    2.797833527364E-02));
#24 = VERTEX_POINT('',#25);
#25 = CARTESIAN_POINT('',(-33.70003895029,-28.84643198853,
    19.966168674008));
#26 = SURFACE_CURVE('',#27,(#31,#43),.PCURVE_S1.);
#27 = LINE('',#28,#29);
#28 = CARTESIAN_POINT('',(-33.71084170434,28.760060588355,
    2.797833527364E-02));
#29 = VECTOR('',#30,1.);
#30 = DIRECTION('',(1.772124889483E-04,-0.94499882945,0.327073662857));
#31 = PCURVE('',#32,#37);
#32 = PLANE('',#33);
#33 = AXIS2_PLACEMENT_3D('',#34,#35,#36);
#34 = CARTESIAN_POINT('',(-33.70003895029,-28.84643198853,
    19.966168674008));
#35 = DIRECTION('',(-0.999999913728,-4.458843310927E-05,
    4.129848162789E-04));
#36 = DIRECTION('',(-4.129848166894E-04,-1.57364150063E-24,
    -0.999999914722));
#37 = DEFINITIONAL_REPRESENTATION('',(#38),#42);
#38 = LINE('',#39,#40);
#39 = CARTESIAN_POINT('',(19.938193099814,-57.60649263415));
#40 = VECTOR('',#41,1.);
#41 = DIRECTION('',(-0.32707370815,0.944998830389));
#42 = ( GEOMETRIC_REPRESENTATION_CONTEXT(2) 
PARAMETRIC_REPRESENTATION_CONTEXT() REPRESENTATION_CONTEXT('2D SPACE',''
  ) );
#43 = PCURVE('',#44,#49);
#44 = PLANE('',#45);
#45 = AXIS2_PLACEMENT_3D('',#46,#47,#48);
#46 = CARTESIAN_POINT('',(-33.70003895029,-28.84643198853,
    19.966168674008));
#47 = DIRECTION('',(-0.999997285613,-9.27329988599E-04,
    -2.13748101791E-03));
#48 = DIRECTION('',(2.137481936964E-03,-2.779399700774E-22,
    -0.999997715583));
#49 = DEFINITIONAL_REPRESENTATION('',(#50),#54);
#50 = LINE('',#51,#52);
#51 = CARTESIAN_POINT('',(19.938121700899,-57.60651734599));
#52 = VECTOR('',#53,1.);
#53 = DIRECTION('',(-0.327072536896,0.944999235772));
#54 = ( GEOMETRIC_REPRESENTATION_CONTEXT(2) 
PARAMETRIC_REPRESENTATION_CONTEXT() REPRESENTATION_CONTEXT('2D SPACE',''
  ) );
#55 = ORIENTED_EDGE('',*,*,#56,.T.);
#56 = EDGE_CURVE('',#22,#57,#59,.T.);
#57 = VERTEX_POINT('',#58);
#58 = CARTESIAN_POINT('',(-33.70825955318,-28.80636743939,
    6.515673600159E-02));
#59 = SURFACE_CURVE('',#60,(#64,#71),.PCURVE_S1.);
#60 = LINE('',#61,#62);
#61 = CARTESIAN_POINT('',(-33.71084170434,28.760060588355,
    2.797833527364E-02));
#62 = VECTOR('',#63,1.);
#63 = DIRECTION('',(4.485514753259E-05,-0.999999790443,
    6.458346333217E-04));
#64 = PCURVE('',#32,#65);
#65 = DEFINITIONAL_REPRESENTATION('',(#66),#70);
#66 = LINE('',#67,#68);
#67 = CARTESIAN_POINT('',(19.938193099814,-57.60649263415));
#68 = VECTOR('',#69,1.);
#69 = DIRECTION('',(-6.458531027409E-04,0.999999791437));
#70 = ( GEOMETRIC_REPRESENTATION_CONTEXT(2) 
PARAMETRIC_REPRESENTATION_CONTEXT() REPRESENTATION_CONTEXT('2D SPACE',''
  ) );
#71 = PCURVE('',#72,#77);
#72 = PLANE('',#73);
#73 = AXIS2_PLACEMENT_3D('',#74,#75,#76);
#74 = CARTESIAN_POINT('',(33.759978841463,-28.82116335265,
    -2.89013178316E-02));
#75 = DIRECTION('',(-1.394248636986E-03,-6.45896545458E-04,
    -0.999998819443));
#76 = DIRECTION('',(-0.999999028034,-8.039363052088E-23,
    1.394248927814E-03));
#77 = DEFINITIONAL_REPRESENTATION('',(#78),#82);
#78 = LINE('',#79,#80);
#79 = CARTESIAN_POINT('',(67.470834270893,57.581235951948));
#80 = VECTOR('',#81,1.);
#81 = DIRECTION('',(-4.395464968988E-05,-0.999999999034));
#82 = ( GEOMETRIC_REPRESENTATION_CONTEXT(2) 
PARAMETRIC_REPRESENTATION_CONTEXT() REPRESENTATION_CONTEXT('2D SPACE',''
  ) );
#83 = ORIENTED_EDGE('',*,*,#84,.T.);
#84 = EDGE_CURVE('',#57,#24,#85,.T.);
#85 = SURFACE_CURVE('',#86,(#90,#97),.PCURVE_S1.);
#86 = LINE('',#87,#88);
#87 = CARTESIAN_POINT('',(-33.70825955318,-28.80636743939,
    6.515673600159E-02));
#88 = VECTOR('',#89,1.);
#89 = DIRECTION('',(4.130737446505E-04,-2.013187301868E-03,
    0.999997888221));
#90 = PCURVE('',#32,#91);
#91 = DEFINITIONAL_REPRESENTATION('',(#92),#96);
#92 = LINE('',#93,#94);
#93 = CARTESIAN_POINT('',(19.901013635867,-4.006454917522E-02));
#94 = VECTOR('',#95,1.);
#95 = DIRECTION('',(-0.999997973536,2.01318730387E-03));
#96 = ( GEOMETRIC_REPRESENTATION_CONTEXT(2) 
PARAMETRIC_REPRESENTATION_CONTEXT() REPRESENTATION_CONTEXT('2D SPACE',''
  ) );
#97 = PCURVE('',#98,#103);
#98 = PLANE('',#99);
#99 = AXIS2_PLACEMENT_3D('',#100,#101,#102);
#100 = CARTESIAN_POINT('',(33.759978841463,-28.82116335265,
    -2.89013178316E-02));
#101 = DIRECTION('',(-2.221079300482E-04,-0.999997949055,
    -2.01309567719E-03));
#102 = DIRECTION('',(5.767132424335E-23,2.013095726845E-03,
    -0.999997973721));
#103 = DEFINITIONAL_REPRESENTATION('',(#104),#108);
#104 = LINE('',#105,#106);
#105 = CARTESIAN_POINT('',(-9.402807765555E-02,-67.46824005881));
#106 = VECTOR('',#107,1.);
#107 = DIRECTION('',(-0.999999914685,4.130737548394E-04));
#108 = ( GEOMETRIC_REPRESENTATION_CONTEXT(2) 
PARAMETRIC_REPRESENTATION_CONTEXT() REPRESENTATION_CONTEXT('2D SPACE',''
  ) );
#109 = ADVANCED_FACE('',(#110),#44,.T.);
#110 = FACE_BOUND('',#111,.T.);
#111 = EDGE_LOOP('',(#112,#140,#166));
#112 = ORIENTED_EDGE('',*,*,#113,.F.);
#113 = EDGE_CURVE('',#114,#24,#116,.T.);
#114 = VERTEX_POINT('',#115);
#115 = CARTESIAN_POINT('',(-33.75353348253,28.887768529742,
    19.945458090421));
#116 = SURFACE_CURVE('',#117,(#121,#128),.PCURVE_S1.);
#117 = LINE('',#118,#119);
#118 = CARTESIAN_POINT('',(-33.75353348253,28.887768529742,
    19.945458090421));
#119 = VECTOR('',#120,1.);
#120 = DIRECTION('',(9.265652827731E-04,-0.999999506397,
    3.587227878458E-04));
#121 = PCURVE('',#44,#122);
#122 = DEFINITIONAL_REPRESENTATION('',(#123),#127);
#123 = LINE('',#124,#125);
#124 = CARTESIAN_POINT('',(2.059619267877E-02,-57.73422534229));
#125 = VECTOR('',#126,1.);
#126 = DIRECTION('',(-3.567414518179E-04,0.999999936368));
#127 = ( GEOMETRIC_REPRESENTATION_CONTEXT(2) 
PARAMETRIC_REPRESENTATION_CONTEXT() REPRESENTATION_CONTEXT('2D SPACE',''
  ) );
#128 = PCURVE('',#129,#134);
#129 = PLANE('',#130);
#130 = AXIS2_PLACEMENT_3D('',#131,#132,#133);
#131 = CARTESIAN_POINT('',(-28.74406592752,23.828784332079,
    24.867607585153));
#132 = DIRECTION('',(-0.701065111237,-3.937785873866E-04,0.713097156596)
  );
#133 = DIRECTION('',(0.713097211883,-3.813238950605E-20,0.701065165591)
  );
#134 = DEFINITIONAL_REPRESENTATION('',(#135),#139);
#135 = LINE('',#136,#137);
#136 = CARTESIAN_POINT('',(-7.022984897078,5.05898458989));
#137 = VECTOR('',#138,1.);
#138 = DIRECTION('',(9.122191704353E-04,-0.999999583928));
#139 = ( GEOMETRIC_REPRESENTATION_CONTEXT(2) 
PARAMETRIC_REPRESENTATION_CONTEXT() REPRESENTATION_CONTEXT('2D SPACE',''
  ) );
#140 = ORIENTED_EDGE('',*,*,#141,.T.);
#141 = EDGE_CURVE('',#114,#22,#142,.T.);
#142 = SURFACE_CURVE('',#143,(#147,#154),.PCURVE_S1.);
#143 = LINE('',#144,#145);
#144 = CARTESIAN_POINT('',(-33.75353348253,28.887768529742,
    19.945458090421));
#145 = VECTOR('',#146,1.);
#146 = DIRECTION('',(2.14338375672E-03,-6.41170592551E-03,
    -0.999977147705));
#147 = PCURVE('',#44,#148);
#148 = DEFINITIONAL_REPRESENTATION('',(#149),#153);
#149 = LINE('',#150,#151);
#150 = CARTESIAN_POINT('',(2.059619267877E-02,-57.73422534229));
#151 = VECTOR('',#152,1.);
#152 = DIRECTION('',(0.999979444785,6.411708682356E-03));
#153 = ( GEOMETRIC_REPRESENTATION_CONTEXT(2) 
PARAMETRIC_REPRESENTATION_CONTEXT() REPRESENTATION_CONTEXT('2D SPACE',''
  ) );
#154 = PCURVE('',#155,#160);
#155 = PLANE('',#156);
#156 = AXIS2_PLACEMENT_3D('',#157,#158,#159);
#157 = CARTESIAN_POINT('',(33.729673267811,28.822077424675,
    1.859413679027E-02));
#158 = DIRECTION('',(-9.204514802904E-04,0.999979008449,
    -6.413690782163E-03));
#159 = DIRECTION('',(6.618886630839E-22,6.413693499104E-03,
    0.999979432056));
#160 = DEFINITIONAL_REPRESENTATION('',(#161),#165);
#161 = LINE('',#162,#163);
#162 = CARTESIAN_POINT('',(19.926875421629,-67.48323533729));
#163 = VECTOR('',#164,1.);
#164 = DIRECTION('',(-0.999997702948,2.143384664691E-03));
#165 = ( GEOMETRIC_REPRESENTATION_CONTEXT(2) 
PARAMETRIC_REPRESENTATION_CONTEXT() REPRESENTATION_CONTEXT('2D SPACE',''
  ) );
#166 = ORIENTED_EDGE('',*,*,#21,.T.);
#167 = ADVANCED_FACE('',(#168),#98,.T.);
#168 = FACE_BOUND('',#169,.T.);
#169 = EDGE_LOOP('',(#170,#198,#199));
#170 = ORIENTED_EDGE('',*,*,#171,.F.);
#171 = EDGE_CURVE('',#24,#172,#174,.T.);
#172 = VERTEX_POINT('',#173);
#173 = CARTESIAN_POINT('',(33.759978841463,-28.82116335265,
    -2.89013178316E-02));
#174 = SURFACE_CURVE('',#175,(#179,#186),.PCURVE_S1.);
#175 = LINE('',#176,#177);
#176 = CARTESIAN_POINT('',(-33.70003895029,-28.84643198853,
    19.966168674008));
#177 = VECTOR('',#178,1.);
#178 = DIRECTION('',(0.958771270969,3.591289022595E-04,-0.28417867793));
#179 = PCURVE('',#98,#180);
#180 = DEFINITIONAL_REPRESENTATION('',(#181),#185);
#181 = LINE('',#182,#183);
#182 = CARTESIAN_POINT('',(-19.99508034442,-67.46001945572));
#183 = VECTOR('',#184,1.);
#184 = DIRECTION('',(0.284178825066,0.958771294618));
#185 = ( GEOMETRIC_REPRESENTATION_CONTEXT(2) 
PARAMETRIC_REPRESENTATION_CONTEXT() REPRESENTATION_CONTEXT('2D SPACE',''
  ) );
#186 = PCURVE('',#187,#192);
#187 = PLANE('',#188);
#188 = AXIS2_PLACEMENT_3D('',#189,#190,#191);
#189 = CARTESIAN_POINT('',(33.711175175134,-28.81828130274,
    19.92416194763));
#190 = DIRECTION('',(4.176870840522E-04,-0.999999902189,
    1.454630924904E-04));
#191 = DIRECTION('',(-0.999999912769,-4.176870884712E-04,
    -6.276411570073E-24));
#192 = DEFINITIONAL_REPRESENTATION('',(#193),#197);
#193 = LINE('',#194,#195);
#194 = CARTESIAN_POINT('',(67.411220003245,-4.200672682225E-02));
#195 = VECTOR('',#196,1.);
#196 = DIRECTION('',(-0.958771337338,0.284178680937));
#197 = ( GEOMETRIC_REPRESENTATION_CONTEXT(2) 
PARAMETRIC_REPRESENTATION_CONTEXT() REPRESENTATION_CONTEXT('2D SPACE',''
  ) );
#198 = ORIENTED_EDGE('',*,*,#84,.F.);
#199 = ORIENTED_EDGE('',*,*,#200,.T.);
#200 = EDGE_CURVE('',#57,#172,#201,.T.);
#201 = SURFACE_CURVE('',#202,(#206,#213),.PCURVE_S1.);
#202 = LINE('',#203,#204);
#203 = CARTESIAN_POINT('',(-33.70825955318,-28.80636743939,
    6.515673600159E-02));
#204 = VECTOR('',#205,1.);
#205 = DIRECTION('',(0.999999004185,-2.193016873707E-04,
    -1.394107248193E-03));
#206 = PCURVE('',#98,#207);
#207 = DEFINITIONAL_REPRESENTATION('',(#208),#212);
#208 = LINE('',#209,#210);
#209 = CARTESIAN_POINT('',(-9.402807765555E-02,-67.46824005881));
#210 = VECTOR('',#211,1.);
#211 = DIRECTION('',(1.393662948053E-03,0.999999028851));
#212 = ( GEOMETRIC_REPRESENTATION_CONTEXT(2) 
PARAMETRIC_REPRESENTATION_CONTEXT() REPRESENTATION_CONTEXT('2D SPACE',''
  ) );
#213 = PCURVE('',#72,#214);
#214 = DEFINITIONAL_REPRESENTATION('',(#215),#219);
#215 = LINE('',#216,#217);
#216 = CARTESIAN_POINT('',(67.468303958185,1.479591634416E-02));
#217 = VECTOR('',#218,1.);
#218 = DIRECTION('',(-0.999999975953,-2.193017331151E-04));
#219 = ( GEOMETRIC_REPRESENTATION_CONTEXT(2) 
PARAMETRIC_REPRESENTATION_CONTEXT() REPRESENTATION_CONTEXT('2D SPACE',''
  ) );
#220 = ADVANCED_FACE('',(#221),#187,.T.);
#221 = FACE_BOUND('',#222,.T.);
#222 = EDGE_LOOP('',(#223,#251,#252));
#223 = ORIENTED_EDGE('',*,*,#224,.F.);
#224 = EDGE_CURVE('',#24,#225,#227,.T.);
#225 = VERTEX_POINT('',#226);
#226 = CARTESIAN_POINT('',(33.711175175134,-28.81828130274,
    19.92416194763));
#227 = SURFACE_CURVE('',#228,(#232,#239),.PCURVE_S1.);
#228 = LINE('',#229,#230);
#229 = CARTESIAN_POINT('',(-33.70003895029,-28.84643198853,
    19.966168674008));
#230 = VECTOR('',#231,1.);
#231 = DIRECTION('',(0.999999718654,4.175963633162E-04,
    -6.23141343831E-04));
#232 = PCURVE('',#187,#233);
#233 = DEFINITIONAL_REPRESENTATION('',(#234),#238);
#234 = LINE('',#235,#236);
#235 = CARTESIAN_POINT('',(67.411220003245,-4.200672682225E-02));
#236 = VECTOR('',#237,1.);
#237 = DIRECTION('',(-0.999999805847,6.231413504237E-04));
#238 = ( GEOMETRIC_REPRESENTATION_CONTEXT(2) 
PARAMETRIC_REPRESENTATION_CONTEXT() REPRESENTATION_CONTEXT('2D SPACE',''
  ) );
#239 = PCURVE('',#240,#245);
#240 = PLANE('',#241);
#241 = AXIS2_PLACEMENT_3D('',#242,#243,#244);
#242 = CARTESIAN_POINT('',(28.750340174412,-23.8342056468,
    24.987148815106));
#243 = DIRECTION('',(7.348259371103E-04,-0.712278287244,0.70189678839));
#244 = DIRECTION('',(-1.385788278466E-20,-0.701896977891,-0.712278479548
    ));
#245 = DEFINITIONAL_REPRESENTATION('',(#246),#250);
#246 = LINE('',#247,#248);
#247 = CARTESIAN_POINT('',(7.09440262251,-62.45039598535));
#248 = VECTOR('',#249,1.);
#249 = DIRECTION('',(1.507405435377E-04,0.999999988639));
#250 = ( GEOMETRIC_REPRESENTATION_CONTEXT(2) 
PARAMETRIC_REPRESENTATION_CONTEXT() REPRESENTATION_CONTEXT('2D SPACE',''
  ) );
#251 = ORIENTED_EDGE('',*,*,#171,.T.);
#252 = ORIENTED_EDGE('',*,*,#253,.F.);
#253 = EDGE_CURVE('',#225,#172,#254,.T.);
#254 = SURFACE_CURVE('',#255,(#259,#266),.PCURVE_S1.);
#255 = LINE('',#256,#257);
#256 = CARTESIAN_POINT('',(33.711175175134,-28.81828130274,
    19.92416194763));
#257 = VECTOR('',#258,1.);
#258 = DIRECTION('',(2.445916157672E-03,-1.444410423956E-04,
    -0.999996998311));
#259 = PCURVE('',#187,#260);
#260 = DEFINITIONAL_REPRESENTATION('',(#261),#265);
#261 = LINE('',#262,#263);
#262 = CARTESIAN_POINT('',(-0.,0.));
#263 = VECTOR('',#264,1.);
#264 = DIRECTION('',(-2.445855613153E-03,0.999997008891));
#265 = ( GEOMETRIC_REPRESENTATION_CONTEXT(2) 
PARAMETRIC_REPRESENTATION_CONTEXT() REPRESENTATION_CONTEXT('2D SPACE',''
  ) );
#266 = PCURVE('',#267,#272);
#267 = PLANE('',#268);
#268 = AXIS2_PLACEMENT_3D('',#269,#270,#271);
#269 = CARTESIAN_POINT('',(33.711175175134,-28.81828130274,
    19.92416194763));
#270 = DIRECTION('',(0.999996871783,5.237268437854E-04,
    2.445840200316E-03));
#271 = DIRECTION('',(-2.445840535751E-03,1.559453345332E-22,
    0.999997008928));
#272 = DEFINITIONAL_REPRESENTATION('',(#273),#277);
#273 = LINE('',#274,#275);
#274 = CARTESIAN_POINT('',(0.,0.));
#275 = VECTOR('',#276,1.);
#276 = DIRECTION('',(-0.999999989568,1.44441062205E-04));
#277 = ( GEOMETRIC_REPRESENTATION_CONTEXT(2) 
PARAMETRIC_REPRESENTATION_CONTEXT() REPRESENTATION_CONTEXT('2D SPACE',''
  ) );
#278 = ADVANCED_FACE('',(#279),#129,.T.);
#279 = FACE_BOUND('',#280,.T.);
#280 = EDGE_LOOP('',(#281,#309,#310));
#281 = ORIENTED_EDGE('',*,*,#282,.F.);
#282 = EDGE_CURVE('',#114,#283,#285,.T.);
#283 = VERTEX_POINT('',#284);
#284 = CARTESIAN_POINT('',(-28.74406592752,23.828784332079,
    24.867607585153));
#285 = SURFACE_CURVE('',#286,(#290,#297),.PCURVE_S1.);
#286 = LINE('',#287,#288);
#287 = CARTESIAN_POINT('',(-33.75353348253,28.887768529742,
    19.945458090421));
#288 = VECTOR('',#289,1.);
#289 = DIRECTION('',(0.578769072074,-0.584489979737,0.56868077583));
#290 = PCURVE('',#129,#291);
#291 = DEFINITIONAL_REPRESENTATION('',(#292),#296);
#292 = LINE('',#293,#294);
#293 = CARTESIAN_POINT('',(-7.022984897078,5.05898458989));
#294 = VECTOR('',#295,1.);
#295 = DIRECTION('',(0.811400893895,-0.584490025053));
#296 = ( GEOMETRIC_REPRESENTATION_CONTEXT(2) 
PARAMETRIC_REPRESENTATION_CONTEXT() REPRESENTATION_CONTEXT('2D SPACE',''
  ) );
#297 = PCURVE('',#298,#303);
#298 = PLANE('',#299);
#299 = AXIS2_PLACEMENT_3D('',#300,#301,#302);
#300 = CARTESIAN_POINT('',(28.76761608889,23.824408722214,
    24.981499328763));
#301 = DIRECTION('',(-1.36769993144E-03,0.696650588396,0.717409288401));
#302 = DIRECTION('',(2.22211652089E-20,0.717409959396,-0.696651239975));
#303 = DEFINITIONAL_REPRESENTATION('',(#304),#308);
#304 = LINE('',#305,#306);
#305 = CARTESIAN_POINT('',(7.140869127184,62.521208047632));
#306 = VECTOR('',#307,1.);
#307 = DIRECTION('',(-0.815491100262,-0.578769613398));
#308 = ( GEOMETRIC_REPRESENTATION_CONTEXT(2) 
PARAMETRIC_REPRESENTATION_CONTEXT() REPRESENTATION_CONTEXT('2D SPACE',''
  ) );
#309 = ORIENTED_EDGE('',*,*,#113,.T.);
#310 = ORIENTED_EDGE('',*,*,#311,.T.);
#311 = EDGE_CURVE('',#24,#283,#312,.T.);
#312 = SURFACE_CURVE('',#313,(#317,#324),.PCURVE_S1.);
#313 = LINE('',#314,#315);
#314 = CARTESIAN_POINT('',(-33.70003895029,-28.84643198853,
    19.966168674008));
#315 = VECTOR('',#316,1.);
#316 = DIRECTION('',(9.327240480433E-02,0.99135812024,9.224606190222E-02
    ));
#317 = PCURVE('',#129,#318);
#318 = DEFINITIONAL_REPRESENTATION('',(#319),#323);
#319 = LINE('',#320,#321);
#320 = CARTESIAN_POINT('',(-6.970318626579,-52.67522040456));
#321 = VECTOR('',#322,1.);
#322 = DIRECTION('',(0.131182792474,0.991358197101));
#323 = ( GEOMETRIC_REPRESENTATION_CONTEXT(2) 
PARAMETRIC_REPRESENTATION_CONTEXT() REPRESENTATION_CONTEXT('2D SPACE',''
  ) );
#324 = PCURVE('',#325,#330);
#325 = PLANE('',#326);
#326 = AXIS2_PLACEMENT_3D('',#327,#328,#329);
#327 = CARTESIAN_POINT('',(-28.74406592752,23.828784332079,
    24.867607585153));
#328 = DIRECTION('',(-0.70772085802,8.470730017139E-04,0.706491662789));
#329 = DIRECTION('',(-0.706491916255,-1.781940429105E-20,-0.707721111927
    ));
#330 = DEFINITIONAL_REPRESENTATION('',(#331),#335);
#331 = LINE('',#332,#333);
#332 = CARTESIAN_POINT('',(6.970206673999,52.675235218715));
#333 = VECTOR('',#334,1.);
#334 = DIRECTION('',(-0.131180685504,-0.991358475906));
#335 = ( GEOMETRIC_REPRESENTATION_CONTEXT(2) 
PARAMETRIC_REPRESENTATION_CONTEXT() REPRESENTATION_CONTEXT('2D SPACE',''
  ) );
#336 = ADVANCED_FACE('',(#337),#325,.T.);
#337 = FACE_BOUND('',#338,.T.);
#338 = EDGE_LOOP('',(#339,#340,#368));
#339 = ORIENTED_EDGE('',*,*,#311,.F.);
#340 = ORIENTED_EDGE('',*,*,#341,.T.);
#341 = EDGE_CURVE('',#24,#342,#344,.T.);
#342 = VERTEX_POINT('',#343);
#343 = CARTESIAN_POINT('',(-28.7624187845,-23.83852799497,
    24.906375195719));
#344 = SURFACE_CURVE('',#345,(#349,#356),.PCURVE_S1.);
#345 = LINE('',#346,#347);
#346 = CARTESIAN_POINT('',(-33.70003895029,-28.84643198853,
    19.966168674008));
#347 = VECTOR('',#348,1.);
#348 = DIRECTION('',(0.574511610295,0.582689411282,0.574812543022));
#349 = PCURVE('',#325,#350);
#350 = DEFINITIONAL_REPRESENTATION('',(#351),#355);
#351 = LINE('',#352,#353);
#352 = CARTESIAN_POINT('',(6.970206673999,52.675235218715));
#353 = VECTOR('',#354,1.);
#354 = DIRECTION('',(-0.812694780565,-0.582689620331));
#355 = ( GEOMETRIC_REPRESENTATION_CONTEXT(2) 
PARAMETRIC_REPRESENTATION_CONTEXT() REPRESENTATION_CONTEXT('2D SPACE',''
  ) );
#356 = PCURVE('',#357,#362);
#357 = PLANE('',#358);
#358 = AXIS2_PLACEMENT_3D('',#359,#360,#361);
#359 = CARTESIAN_POINT('',(28.750340174412,-23.8342056468,
    24.987148815106));
#360 = DIRECTION('',(-9.477404954654E-04,-0.701804568586,0.712368899728)
  );
#361 = DIRECTION('',(5.317120992882E-20,0.712369219657,0.701804883771));
#362 = DEFINITIONAL_REPRESENTATION('',(#363),#367);
#363 = LINE('',#364,#365);
#364 = CARTESIAN_POINT('',(-7.094304152145,62.450407171571));
#365 = VECTOR('',#366,1.);
#366 = DIRECTION('',(0.818496251163,-0.574511868312));
#367 = ( GEOMETRIC_REPRESENTATION_CONTEXT(2) 
PARAMETRIC_REPRESENTATION_CONTEXT() REPRESENTATION_CONTEXT('2D SPACE',''
  ) );
#368 = ORIENTED_EDGE('',*,*,#369,.T.);
#369 = EDGE_CURVE('',#342,#283,#370,.T.);
#370 = SURFACE_CURVE('',#371,(#375,#382),.PCURVE_S1.);
#371 = LINE('',#372,#373);
#372 = CARTESIAN_POINT('',(-28.7624187845,-23.83852799497,
    24.906375195719));
#373 = VECTOR('',#374,1.);
#374 = DIRECTION('',(3.850196004255E-04,0.999999595155,
    -8.132951697474E-04));
#375 = PCURVE('',#325,#376);
#376 = DEFINITIONAL_REPRESENTATION('',(#377),#381);
#377 = LINE('',#378,#379);
#378 = CARTESIAN_POINT('',(-1.447051136259E-02,47.667329428494));
#379 = VECTOR('',#380,1.);
#380 = DIRECTION('',(3.035729265581E-04,-0.999999953922));
#381 = ( GEOMETRIC_REPRESENTATION_CONTEXT(2) 
PARAMETRIC_REPRESENTATION_CONTEXT() REPRESENTATION_CONTEXT('2D SPACE',''
  ) );
#382 = PCURVE('',#383,#388);
#383 = PLANE('',#384);
#384 = AXIS2_PLACEMENT_3D('',#385,#386,#387);
#385 = CARTESIAN_POINT('',(28.76761608889,23.824408722214,
    24.981499328763));
#386 = DIRECTION('',(-1.980257168253E-03,8.140560730197E-04,
    0.999997707945));
#387 = DIRECTION('',(0.999998039288,-2.946564511358E-22,
    1.980257824399E-03));
#388 = DEFINITIONAL_REPRESENTATION('',(#389),#393);
#389 = LINE('',#390,#391);
#390 = CARTESIAN_POINT('',(-57.53007083869,-47.66295251001));
#391 = VECTOR('',#392,1.);
#392 = DIRECTION('',(3.834083113893E-04,0.999999926499));
#393 = ( GEOMETRIC_REPRESENTATION_CONTEXT(2) 
PARAMETRIC_REPRESENTATION_CONTEXT() REPRESENTATION_CONTEXT('2D SPACE',''
  ) );
#394 = ADVANCED_FACE('',(#395),#72,.T.);
#395 = FACE_BOUND('',#396,.T.);
#396 = EDGE_LOOP('',(#397,#398,#399));
#397 = ORIENTED_EDGE('',*,*,#200,.F.);
#398 = ORIENTED_EDGE('',*,*,#56,.F.);
#399 = ORIENTED_EDGE('',*,*,#400,.T.);
#400 = EDGE_CURVE('',#22,#172,#401,.T.);
#401 = SURFACE_CURVE('',#402,(#406,#413),.PCURVE_S1.);
#402 = LINE('',#403,#404);
#403 = CARTESIAN_POINT('',(-33.71084170434,28.760060588355,
    2.797833527364E-02));
#404 = VECTOR('',#405,1.);
#405 = DIRECTION('',(0.760652398653,-0.64915908468,-6.412497168266E-04)
  );
#406 = PCURVE('',#72,#407);
#407 = DEFINITIONAL_REPRESENTATION('',(#408),#412);
#408 = LINE('',#409,#410);
#409 = CARTESIAN_POINT('',(67.470834270893,57.581235951948));
#410 = VECTOR('',#411,1.);
#411 = DIRECTION('',(-0.760652553387,-0.649159220089));
#412 = ( GEOMETRIC_REPRESENTATION_CONTEXT(2) 
PARAMETRIC_REPRESENTATION_CONTEXT() REPRESENTATION_CONTEXT('2D SPACE',''
  ) );
#413 = PCURVE('',#414,#419);
#414 = PLANE('',#415);
#415 = AXIS2_PLACEMENT_3D('',#416,#417,#418);
#416 = CARTESIAN_POINT('',(33.729673267811,28.822077424675,
    1.859413679027E-02));
#417 = DIRECTION('',(-1.399053630148E-04,8.238814730892E-04,
    -0.999999650823));
#418 = DIRECTION('',(3.444707756825E-24,-0.99999966061,
    -8.238814811523E-04));
#419 = DEFINITIONAL_REPRESENTATION('',(#420),#424);
#420 = LINE('',#421,#422);
#421 = CARTESIAN_POINT('',(6.200908380464E-02,67.44051563218));
#422 = VECTOR('',#423,1.);
#423 = DIRECTION('',(0.649159392675,-0.760652406097));
#424 = ( GEOMETRIC_REPRESENTATION_CONTEXT(2) 
PARAMETRIC_REPRESENTATION_CONTEXT() REPRESENTATION_CONTEXT('2D SPACE',''
  ) );
#425 = ADVANCED_FACE('',(#426),#414,.T.);
#426 = FACE_BOUND('',#427,.T.);
#427 = EDGE_LOOP('',(#428,#451,#452));
#428 = ORIENTED_EDGE('',*,*,#429,.T.);
#429 = EDGE_CURVE('',#430,#172,#432,.T.);
#430 = VERTEX_POINT('',#431);
#431 = CARTESIAN_POINT('',(33.729673267811,28.822077424675,
    1.859413679027E-02));
#432 = SURFACE_CURVE('',#433,(#437,#444),.PCURVE_S1.);
#433 = LINE('',#434,#435);
#434 = CARTESIAN_POINT('',(33.729673267811,28.822077424675,
    1.859413679027E-02));
#435 = VECTOR('',#436,1.);
#436 = DIRECTION('',(5.257435003353E-04,-0.999999522346,
    -8.239549216003E-04));
#437 = PCURVE('',#414,#438);
#438 = DEFINITIONAL_REPRESENTATION('',(#439),#443);
#439 = LINE('',#440,#441);
#440 = CARTESIAN_POINT('',(0.,0.));
#441 = VECTOR('',#442,1.);
#442 = DIRECTION('',(0.999999861797,-5.257435054807E-04));
#443 = ( GEOMETRIC_REPRESENTATION_CONTEXT(2) 
PARAMETRIC_REPRESENTATION_CONTEXT() REPRESENTATION_CONTEXT('2D SPACE',''
  ) );
#444 = PCURVE('',#267,#445);
#445 = DEFINITIONAL_REPRESENTATION('',(#446),#450);
#446 = LINE('',#447,#448);
#447 = CARTESIAN_POINT('',(-19.90555351522,-57.6403666325));
#448 = VECTOR('',#449,1.);
#449 = DIRECTION('',(-8.25238341856E-04,0.999999659491));
#450 = ( GEOMETRIC_REPRESENTATION_CONTEXT(2) 
PARAMETRIC_REPRESENTATION_CONTEXT() REPRESENTATION_CONTEXT('2D SPACE',''
  ) );
#451 = ORIENTED_EDGE('',*,*,#400,.F.);
#452 = ORIENTED_EDGE('',*,*,#453,.T.);
#453 = EDGE_CURVE('',#22,#430,#454,.T.);
#454 = SURFACE_CURVE('',#455,(#459,#466),.PCURVE_S1.);
#455 = LINE('',#456,#457);
#456 = CARTESIAN_POINT('',(-33.71084170434,28.760060588355,
    2.797833527364E-02));
#457 = VECTOR('',#458,1.);
#458 = DIRECTION('',(0.999999567507,9.195779350687E-04,
    -1.391477278702E-04));
#459 = PCURVE('',#414,#460);
#460 = DEFINITIONAL_REPRESENTATION('',(#461),#465);
#461 = LINE('',#462,#463);
#462 = CARTESIAN_POINT('',(6.200908380464E-02,67.44051563218));
#463 = VECTOR('',#464,1.);
#464 = DIRECTION('',(-9.194629817366E-04,-0.999999577294));
#465 = ( GEOMETRIC_REPRESENTATION_CONTEXT(2) 
PARAMETRIC_REPRESENTATION_CONTEXT() REPRESENTATION_CONTEXT('2D SPACE',''
  ) );
#466 = PCURVE('',#155,#467);
#467 = DEFINITIONAL_REPRESENTATION('',(#468),#472);
#468 = LINE('',#469,#470);
#469 = CARTESIAN_POINT('',(8.986248489765E-03,-67.44054354101));
#470 = VECTOR('',#471,1.);
#471 = DIRECTION('',(-1.332469748635E-04,0.999999991123));
#472 = ( GEOMETRIC_REPRESENTATION_CONTEXT(2) 
PARAMETRIC_REPRESENTATION_CONTEXT() REPRESENTATION_CONTEXT('2D SPACE',''
  ) );
#473 = ADVANCED_FACE('',(#474),#155,.T.);
#474 = FACE_BOUND('',#475,.T.);
#475 = EDGE_LOOP('',(#476,#477,#478));
#476 = ORIENTED_EDGE('',*,*,#453,.F.);
#477 = ORIENTED_EDGE('',*,*,#141,.F.);
#478 = ORIENTED_EDGE('',*,*,#479,.T.);
#479 = EDGE_CURVE('',#114,#430,#480,.T.);
#480 = SURFACE_CURVE('',#481,(#485,#492),.PCURVE_S1.);
#481 = LINE('',#482,#483);
#482 = CARTESIAN_POINT('',(-33.75353348253,28.887768529742,
    19.945458090421));
#483 = VECTOR('',#484,1.);
#484 = DIRECTION('',(0.959061134573,-9.335920563148E-04,-0.283197578659)
  );
#485 = PCURVE('',#155,#486);
#486 = DEFINITIONAL_REPRESENTATION('',(#487),#491);
#487 = LINE('',#488,#489);
#488 = CARTESIAN_POINT('',(19.926875421629,-67.48323533729));
#489 = VECTOR('',#490,1.);
#490 = DIRECTION('',(-0.28319774164,0.959061540846));
#491 = ( GEOMETRIC_REPRESENTATION_CONTEXT(2) 
PARAMETRIC_REPRESENTATION_CONTEXT() REPRESENTATION_CONTEXT('2D SPACE',''
  ) );
#492 = PCURVE('',#493,#498);
#493 = PLANE('',#494);
#494 = AXIS2_PLACEMENT_3D('',#495,#496,#497);
#495 = CARTESIAN_POINT('',(33.759773372596,28.872225482421,
    19.988282833553));
#496 = DIRECTION('',(2.318143652437E-04,0.999996819184,
    -2.511550211542E-03));
#497 = DIRECTION('',(3.984567006556E-23,2.511550279025E-03,
    0.999996846053));
#498 = DEFINITIONAL_REPRESENTATION('',(#499),#503);
#499 = LINE('',#500,#501);
#500 = CARTESIAN_POINT('',(-4.27855709197E-02,-67.51330866914));
#501 = VECTOR('',#502,1.);
#502 = DIRECTION('',(-0.283199030232,0.959061160341));
#503 = ( GEOMETRIC_REPRESENTATION_CONTEXT(2) 
PARAMETRIC_REPRESENTATION_CONTEXT() REPRESENTATION_CONTEXT('2D SPACE',''
  ) );
#504 = ADVANCED_FACE('',(#505),#493,.T.);
#505 = FACE_BOUND('',#506,.T.);
#506 = EDGE_LOOP('',(#507,#535,#536));
#507 = ORIENTED_EDGE('',*,*,#508,.F.);
#508 = EDGE_CURVE('',#430,#509,#511,.T.);
#509 = VERTEX_POINT('',#510);
#510 = CARTESIAN_POINT('',(33.759773372596,28.872225482421,
    19.988282833553));
#511 = SURFACE_CURVE('',#512,(#516,#523),.PCURVE_S1.);
#512 = LINE('',#513,#514);
#513 = CARTESIAN_POINT('',(33.729673267811,28.822077424675,
    1.859413679027E-02));
#514 = VECTOR('',#515,1.);
#515 = DIRECTION('',(1.507283170121E-03,2.511198017226E-03,
    0.999995710982));
#516 = PCURVE('',#493,#517);
#517 = DEFINITIONAL_REPRESENTATION('',(#518),#522);
#518 = LINE('',#519,#520);
#519 = CARTESIAN_POINT('',(-19.96975166278,-3.010010559384E-02));
#520 = VECTOR('',#521,1.);
#521 = DIRECTION('',(0.999998864048,1.50728321062E-03));
#522 = ( GEOMETRIC_REPRESENTATION_CONTEXT(2) 
PARAMETRIC_REPRESENTATION_CONTEXT() REPRESENTATION_CONTEXT('2D SPACE',''
  ) );
#523 = PCURVE('',#524,#529);
#524 = PLANE('',#525);
#525 = AXIS2_PLACEMENT_3D('',#526,#527,#528);
#526 = CARTESIAN_POINT('',(33.711175175134,-28.81828130274,
    19.92416194763));
#527 = DIRECTION('',(0.999998513815,-8.407208518261E-04,
    -1.505176169212E-03));
#528 = DIRECTION('',(1.50517670115E-03,7.035653560519E-23,0.999998867221
    ));
#529 = DEFINITIONAL_REPRESENTATION('',(#530),#534);
#530 = LINE('',#531,#532);
#531 = CARTESIAN_POINT('',(-19.90551741933,-57.64037909786));
#532 = VECTOR('',#533,1.);
#533 = DIRECTION('',(0.999996846935,-2.511198904698E-03));
#534 = ( GEOMETRIC_REPRESENTATION_CONTEXT(2) 
PARAMETRIC_REPRESENTATION_CONTEXT() REPRESENTATION_CONTEXT('2D SPACE',''
  ) );
#535 = ORIENTED_EDGE('',*,*,#479,.F.);
#536 = ORIENTED_EDGE('',*,*,#537,.T.);
#537 = EDGE_CURVE('',#114,#509,#538,.T.);
#538 = SURFACE_CURVE('',#539,(#543,#550),.PCURVE_S1.);
#539 = LINE('',#540,#541);
#540 = CARTESIAN_POINT('',(-33.75353348253,28.887768529742,
    19.945458090421));
#541 = VECTOR('',#542,1.);
#542 = DIRECTION('',(0.999999772321,-2.302219296642E-04,
    6.343154464811E-04));
#543 = PCURVE('',#493,#544);
#544 = DEFINITIONAL_REPRESENTATION('',(#545),#549);
#545 = LINE('',#546,#547);
#546 = CARTESIAN_POINT('',(-4.27855709197E-02,-67.51330866914));
#547 = VECTOR('',#548,1.);
#548 = DIRECTION('',(6.337352319319E-04,0.99999979919));
#549 = ( GEOMETRIC_REPRESENTATION_CONTEXT(2) 
PARAMETRIC_REPRESENTATION_CONTEXT() REPRESENTATION_CONTEXT('2D SPACE',''
  ) );
#550 = PCURVE('',#551,#556);
#551 = PLANE('',#552);
#552 = AXIS2_PLACEMENT_3D('',#553,#554,#555);
#553 = CARTESIAN_POINT('',(28.76761608889,23.824408722214,
    24.981499328763));
#554 = DIRECTION('',(-2.88933352714E-04,0.703395723467,0.710798405124));
#555 = DIRECTION('',(1.294462668629E-20,0.710798434793,-0.703395752827)
  );
#556 = DEFINITIONAL_REPRESENTATION('',(#557),#561);
#557 = LINE('',#558,#559);
#558 = CARTESIAN_POINT('',(7.141358244098,62.521152181132));
#559 = VECTOR('',#560,1.);
#560 = DIRECTION('',(-6.09816178268E-04,-0.999999814062));
#561 = ( GEOMETRIC_REPRESENTATION_CONTEXT(2) 
PARAMETRIC_REPRESENTATION_CONTEXT() REPRESENTATION_CONTEXT('2D SPACE',''
  ) );
#562 = ADVANCED_FACE('',(#563),#267,.T.);
#563 = FACE_BOUND('',#564,.T.);
#564 = EDGE_LOOP('',(#565,#566,#567));
#565 = ORIENTED_EDGE('',*,*,#253,.T.);
#566 = ORIENTED_EDGE('',*,*,#429,.F.);
#567 = ORIENTED_EDGE('',*,*,#568,.F.);
#568 = EDGE_CURVE('',#225,#430,#569,.T.);
#569 = SURFACE_CURVE('',#570,(#574,#581),.PCURVE_S1.);
#570 = LINE('',#571,#572);
#571 = CARTESIAN_POINT('',(33.711175175134,-28.81828130274,
    19.92416194763));
#572 = VECTOR('',#573,1.);
#573 = DIRECTION('',(3.033435128832E-04,0.945223337648,-0.326424187138)
  );
#574 = PCURVE('',#267,#575);
#575 = DEFINITIONAL_REPRESENTATION('',(#576),#580);
#576 = LINE('',#577,#578);
#577 = CARTESIAN_POINT('',(0.,0.));
#578 = VECTOR('',#579,1.);
#579 = DIRECTION('',(-0.326423952709,-0.94522346728));
#580 = ( GEOMETRIC_REPRESENTATION_CONTEXT(2) 
PARAMETRIC_REPRESENTATION_CONTEXT() REPRESENTATION_CONTEXT('2D SPACE',''
  ) );
#581 = PCURVE('',#524,#582);
#582 = DEFINITIONAL_REPRESENTATION('',(#583),#587);
#583 = LINE('',#584,#585);
#584 = CARTESIAN_POINT('',(0.,0.));
#585 = VECTOR('',#586,1.);
#586 = DIRECTION('',(-0.326423360786,-0.945223671695));
#587 = ( GEOMETRIC_REPRESENTATION_CONTEXT(2) 
PARAMETRIC_REPRESENTATION_CONTEXT() REPRESENTATION_CONTEXT('2D SPACE',''
  ) );
#588 = ADVANCED_FACE('',(#589),#524,.T.);
#589 = FACE_BOUND('',#590,.T.);
#590 = EDGE_LOOP('',(#591,#592,#593));
#591 = ORIENTED_EDGE('',*,*,#568,.T.);
#592 = ORIENTED_EDGE('',*,*,#508,.T.);
#593 = ORIENTED_EDGE('',*,*,#594,.F.);
#594 = EDGE_CURVE('',#225,#509,#595,.T.);
#595 = SURFACE_CURVE('',#596,(#600,#607),.PCURVE_S1.);
#596 = LINE('',#597,#598);
#597 = CARTESIAN_POINT('',(33.711175175134,-28.81828130274,
    19.92416194763));
#598 = VECTOR('',#599,1.);
#599 = DIRECTION('',(8.423942327602E-04,0.999999027511,
    1.111462303573E-03));
#600 = PCURVE('',#524,#601);
#601 = DEFINITIONAL_REPRESENTATION('',(#602),#606);
#602 = LINE('',#603,#604);
#603 = CARTESIAN_POINT('',(0.,0.));
#604 = VECTOR('',#605,1.);
#605 = DIRECTION('',(1.112728996704E-03,-0.999999380917));
#606 = ( GEOMETRIC_REPRESENTATION_CONTEXT(2) 
PARAMETRIC_REPRESENTATION_CONTEXT() REPRESENTATION_CONTEXT('2D SPACE',''
  ) );
#607 = PCURVE('',#608,#613);
#608 = PLANE('',#609);
#609 = AXIS2_PLACEMENT_3D('',#610,#611,#612);
#610 = CARTESIAN_POINT('',(28.76761608889,23.824408722214,
    24.981499328763));
#611 = DIRECTION('',(0.70787900565,-1.381376329028E-03,0.706332361682));
#612 = DIRECTION('',(-0.706333035595,-6.091735059476E-20,0.707879681038)
  );
#613 = DEFINITIONAL_REPRESENTATION('',(#614),#618);
#614 = LINE('',#615,#616);
#615 = CARTESIAN_POINT('',(-7.07178546829,52.642740251438));
#616 = VECTOR('',#617,1.);
#617 = DIRECTION('',(1.917707053465E-04,-0.999999981612));
#618 = ( GEOMETRIC_REPRESENTATION_CONTEXT(2) 
PARAMETRIC_REPRESENTATION_CONTEXT() REPRESENTATION_CONTEXT('2D SPACE',''
  ) );
#619 = ADVANCED_FACE('',(#620),#357,.T.);
#620 = FACE_BOUND('',#621,.T.);
#621 = EDGE_LOOP('',(#622,#650,#651));
#622 = ORIENTED_EDGE('',*,*,#623,.F.);
#623 = EDGE_CURVE('',#342,#624,#626,.T.);
#624 = VERTEX_POINT('',#625);
#625 = CARTESIAN_POINT('',(28.750340174412,-23.8342056468,
    24.987148815106));
#626 = SURFACE_CURVE('',#627,(#631,#638),.PCURVE_S1.);
#627 = LINE('',#628,#629);
#628 = CARTESIAN_POINT('',(-28.7624187845,-23.83852799497,
    24.906375195719));
#629 = VECTOR('',#630,1.);
#630 = DIRECTION('',(0.999999010942,7.51545219128E-05,1.404445569291E-03
    ));
#631 = PCURVE('',#357,#632);
#632 = DEFINITIONAL_REPRESENTATION('',(#633),#637);
#633 = LINE('',#634,#635);
#634 = CARTESIAN_POINT('',(-5.976642836491E-02,57.512784788261));
#635 = VECTOR('',#636,1.);
#636 = DIRECTION('',(1.039184527648E-03,-0.999999460048));
#637 = ( GEOMETRIC_REPRESENTATION_CONTEXT(2) 
PARAMETRIC_REPRESENTATION_CONTEXT() REPRESENTATION_CONTEXT('2D SPACE',''
  ) );
#638 = PCURVE('',#639,#644);
#639 = PLANE('',#640);
#640 = AXIS2_PLACEMENT_3D('',#641,#642,#643);
#641 = CARTESIAN_POINT('',(28.76761608889,23.824408722214,
    24.981499328763));
#642 = DIRECTION('',(-1.404454510419E-03,1.190497047103E-04,
    0.999999006667));
#643 = DIRECTION('',(0.999999013753,-2.144133981842E-23,
    1.404454520372E-03));
#644 = DEFINITIONAL_REPRESENTATION('',(#645),#649);
#645 = LINE('',#646,#647);
#646 = CARTESIAN_POINT('',(-57.53008364301,-47.66293705495));
#647 = VECTOR('',#648,1.);
#648 = DIRECTION('',(0.999999997176,7.515452244538E-05));
#649 = ( GEOMETRIC_REPRESENTATION_CONTEXT(2) 
PARAMETRIC_REPRESENTATION_CONTEXT() REPRESENTATION_CONTEXT('2D SPACE',''
  ) );
#650 = ORIENTED_EDGE('',*,*,#341,.F.);
#651 = ORIENTED_EDGE('',*,*,#652,.T.);
#652 = EDGE_CURVE('',#24,#624,#653,.T.);
#653 = SURFACE_CURVE('',#654,(#658,#665),.PCURVE_S1.);
#654 = LINE('',#655,#656);
#655 = CARTESIAN_POINT('',(-33.70003895029,-28.84643198853,
    19.966168674008));
#656 = VECTOR('',#657,1.);
#657 = DIRECTION('',(0.993608972208,7.974640240274E-02,
    7.988567863634E-02));
#658 = PCURVE('',#357,#659);
#659 = DEFINITIONAL_REPRESENTATION('',(#660),#664);
#660 = LINE('',#661,#662);
#661 = CARTESIAN_POINT('',(-7.094304152145,62.450407171571));
#662 = VECTOR('',#663,1.);
#663 = DIRECTION('',(0.11287304186,-0.993609418444));
#664 = ( GEOMETRIC_REPRESENTATION_CONTEXT(2) 
PARAMETRIC_REPRESENTATION_CONTEXT() REPRESENTATION_CONTEXT('2D SPACE',''
  ) );
#665 = PCURVE('',#240,#666);
#666 = DEFINITIONAL_REPRESENTATION('',(#667),#671);
#667 = LINE('',#668,#669);
#668 = CARTESIAN_POINT('',(7.09440262251,-62.45039598535));
#669 = VECTOR('',#670,1.);
#670 = DIRECTION('',(-0.112874608561,0.993609240467));
#671 = ( GEOMETRIC_REPRESENTATION_CONTEXT(2) 
PARAMETRIC_REPRESENTATION_CONTEXT() REPRESENTATION_CONTEXT('2D SPACE',''
  ) );
#672 = ADVANCED_FACE('',(#673),#240,.T.);
#673 = FACE_BOUND('',#674,.T.);
#674 = EDGE_LOOP('',(#675,#676,#677));
#675 = ORIENTED_EDGE('',*,*,#652,.F.);
#676 = ORIENTED_EDGE('',*,*,#224,.T.);
#677 = ORIENTED_EDGE('',*,*,#678,.F.);
#678 = EDGE_CURVE('',#624,#225,#679,.T.);
#679 = SURFACE_CURVE('',#680,(#684,#691),.PCURVE_S1.);
#680 = LINE('',#681,#682);
#681 = CARTESIAN_POINT('',(28.750340174412,-23.8342056468,
    24.987148815106));
#682 = VECTOR('',#683,1.);
#683 = DIRECTION('',(0.572504586878,-0.575186671994,-0.584293411193));
#684 = PCURVE('',#240,#685);
#685 = DEFINITIONAL_REPRESENTATION('',(#686),#690);
#686 = LINE('',#687,#688);
#687 = CARTESIAN_POINT('',(-0.,0.));
#688 = VECTOR('',#689,1.);
#689 = DIRECTION('',(0.81990140933,0.572504741446));
#690 = ( GEOMETRIC_REPRESENTATION_CONTEXT(2) 
PARAMETRIC_REPRESENTATION_CONTEXT() REPRESENTATION_CONTEXT('2D SPACE',''
  ) );
#691 = PCURVE('',#692,#697);
#692 = PLANE('',#693);
#693 = AXIS2_PLACEMENT_3D('',#694,#695,#696);
#694 = CARTESIAN_POINT('',(28.76761608889,23.824408722214,
    24.981499328763));
#695 = DIRECTION('',(0.714189167833,-1.759156827694E-04,0.699952713834)
  );
#696 = DIRECTION('',(-0.699952724664,-1.480712478379E-20,0.714189178884)
  );
#697 = DEFINITIONAL_REPRESENTATION('',(#698),#702);
#698 = LINE('',#699,#700);
#699 = CARTESIAN_POINT('',(1.612712542238E-02,47.658615106444));
#700 = VECTOR('',#701,1.);
#701 = DIRECTION('',(-0.818022177035,0.575186680894));
#702 = ( GEOMETRIC_REPRESENTATION_CONTEXT(2) 
PARAMETRIC_REPRESENTATION_CONTEXT() REPRESENTATION_CONTEXT('2D SPACE',''
  ) );
#703 = ADVANCED_FACE('',(#704),#383,.T.);
#704 = FACE_BOUND('',#705,.T.);
#705 = EDGE_LOOP('',(#706,#729,#730));
#706 = ORIENTED_EDGE('',*,*,#707,.F.);
#707 = EDGE_CURVE('',#283,#708,#710,.T.);
#708 = VERTEX_POINT('',#709);
#709 = CARTESIAN_POINT('',(28.76761608889,23.824408722214,
    24.981499328763));
#710 = SURFACE_CURVE('',#711,(#715,#722),.PCURVE_S1.);
#711 = LINE('',#712,#713);
#712 = CARTESIAN_POINT('',(-28.74406592752,23.828784332079,
    24.867607585153));
#713 = VECTOR('',#714,1.);
#714 = DIRECTION('',(0.999998036271,-7.60819561956E-05,
    1.980319753545E-03));
#715 = PCURVE('',#383,#716);
#716 = DEFINITIONAL_REPRESENTATION('',(#717),#721);
#717 = LINE('',#718,#719);
#718 = CARTESIAN_POINT('',(-57.51179478756,4.375611314253E-03));
#719 = VECTOR('',#720,1.);
#720 = DIRECTION('',(0.999999997106,-7.608198140488E-05));
#721 = ( GEOMETRIC_REPRESENTATION_CONTEXT(2) 
PARAMETRIC_REPRESENTATION_CONTEXT() REPRESENTATION_CONTEXT('2D SPACE',''
  ) );
#722 = PCURVE('',#298,#723);
#723 = DEFINITIONAL_REPRESENTATION('',(#724),#728);
#724 = LINE('',#725,#726);
#725 = CARTESIAN_POINT('',(8.248193050354E-02,57.51173580726));
#726 = VECTOR('',#727,1.);
#727 = DIRECTION('',(-1.43417416496E-03,-0.999998971572));
#728 = ( GEOMETRIC_REPRESENTATION_CONTEXT(2) 
PARAMETRIC_REPRESENTATION_CONTEXT() REPRESENTATION_CONTEXT('2D SPACE',''
  ) );
#729 = ORIENTED_EDGE('',*,*,#369,.F.);
#730 = ORIENTED_EDGE('',*,*,#731,.T.);
#731 = EDGE_CURVE('',#342,#708,#732,.T.);
#732 = SURFACE_CURVE('',#733,(#737,#744),.PCURVE_S1.);
#733 = LINE('',#734,#735);
#734 = CARTESIAN_POINT('',(-28.7624187845,-23.83852799497,
    24.906375195719));
#735 = VECTOR('',#736,1.);
#736 = DIRECTION('',(0.77005277795,0.637979394678,1.005553837555E-03));
#737 = PCURVE('',#383,#738);
#738 = DEFINITIONAL_REPRESENTATION('',(#739),#743);
#739 = LINE('',#740,#741);
#740 = CARTESIAN_POINT('',(-57.53007083869,-47.66295251001));
#741 = VECTOR('',#742,1.);
#742 = DIRECTION('',(0.770053259354,0.637979606068));
#743 = ( GEOMETRIC_REPRESENTATION_CONTEXT(2) 
PARAMETRIC_REPRESENTATION_CONTEXT() REPRESENTATION_CONTEXT('2D SPACE',''
  ) );
#744 = PCURVE('',#639,#745);
#745 = DEFINITIONAL_REPRESENTATION('',(#746),#750);
#746 = LINE('',#747,#748);
#747 = CARTESIAN_POINT('',(-57.53008364301,-47.66293705495));
#748 = VECTOR('',#749,1.);
#749 = DIRECTION('',(0.770053430742,0.637979399199));
#750 = ( GEOMETRIC_REPRESENTATION_CONTEXT(2) 
PARAMETRIC_REPRESENTATION_CONTEXT() REPRESENTATION_CONTEXT('2D SPACE',''
  ) );
#751 = ADVANCED_FACE('',(#752),#639,.T.);
#752 = FACE_BOUND('',#753,.T.);
#753 = EDGE_LOOP('',(#754,#755,#756));
#754 = ORIENTED_EDGE('',*,*,#731,.F.);
#755 = ORIENTED_EDGE('',*,*,#623,.T.);
#756 = ORIENTED_EDGE('',*,*,#757,.T.);
#757 = EDGE_CURVE('',#624,#708,#758,.T.);
#758 = SURFACE_CURVE('',#759,(#763,#770),.PCURVE_S1.);
#759 = LINE('',#760,#761);
#760 = CARTESIAN_POINT('',(28.750340174412,-23.8342056468,
    24.987148815106));
#761 = VECTOR('',#762,1.);
#762 = DIRECTION('',(3.624929815936E-04,0.999999927273,
    -1.185407088996E-04));
#763 = PCURVE('',#639,#764);
#764 = DEFINITIONAL_REPRESENTATION('',(#765),#769);
#765 = LINE('',#766,#767);
#766 = CARTESIAN_POINT('',(-1.726796299271E-02,-47.65861470674));
#767 = VECTOR('',#768,1.);
#768 = DIRECTION('',(3.623261390516E-04,0.99999993436));
#769 = ( GEOMETRIC_REPRESENTATION_CONTEXT(2) 
PARAMETRIC_REPRESENTATION_CONTEXT() REPRESENTATION_CONTEXT('2D SPACE',''
  ) );
#770 = PCURVE('',#692,#771);
#771 = DEFINITIONAL_REPRESENTATION('',(#772),#776);
#772 = LINE('',#773,#774);
#773 = CARTESIAN_POINT('',(1.612712542238E-02,47.658615106444));
#774 = VECTOR('',#775,1.);
#775 = DIRECTION('',(-3.383884416915E-04,-0.999999942747));
#776 = ( GEOMETRIC_REPRESENTATION_CONTEXT(2) 
PARAMETRIC_REPRESENTATION_CONTEXT() REPRESENTATION_CONTEXT('2D SPACE',''
  ) );
#777 = ADVANCED_FACE('',(#778),#298,.T.);
#778 = FACE_BOUND('',#779,.T.);
#779 = EDGE_LOOP('',(#780,#801,#802));
#780 = ORIENTED_EDGE('',*,*,#781,.F.);
#781 = EDGE_CURVE('',#114,#708,#782,.T.);
#782 = SURFACE_CURVE('',#783,(#787,#794),.PCURVE_S1.);
#783 = LINE('',#784,#785);
#784 = CARTESIAN_POINT('',(-33.75353348253,28.887768529742,
    19.945458090421));
#785 = VECTOR('',#786,1.);
#786 = DIRECTION('',(0.993539650132,-8.046315152785E-02,
    8.002902512651E-02));
#787 = PCURVE('',#298,#788);
#788 = DEFINITIONAL_REPRESENTATION('',(#789),#793);
#789 = LINE('',#790,#791);
#790 = CARTESIAN_POINT('',(7.140869127184,62.521208047632));
#791 = VECTOR('',#792,1.);
#792 = DIRECTION('',(-0.113477385859,-0.993540579392));
#793 = ( GEOMETRIC_REPRESENTATION_CONTEXT(2) 
PARAMETRIC_REPRESENTATION_CONTEXT() REPRESENTATION_CONTEXT('2D SPACE',''
  ) );
#794 = PCURVE('',#551,#795);
#795 = DEFINITIONAL_REPRESENTATION('',(#796),#800);
#796 = LINE('',#797,#798);
#797 = CARTESIAN_POINT('',(7.141358244098,62.521152181132));
#798 = VECTOR('',#799,1.);
#799 = DIRECTION('',(-0.113485158541,-0.993539691603));
#800 = ( GEOMETRIC_REPRESENTATION_CONTEXT(2) 
PARAMETRIC_REPRESENTATION_CONTEXT() REPRESENTATION_CONTEXT('2D SPACE',''
  ) );
#801 = ORIENTED_EDGE('',*,*,#282,.T.);
#802 = ORIENTED_EDGE('',*,*,#707,.T.);
#803 = ADVANCED_FACE('',(#804),#551,.T.);
#804 = FACE_BOUND('',#805,.T.);
#805 = EDGE_LOOP('',(#806,#827,#828));
#806 = ORIENTED_EDGE('',*,*,#807,.T.);
#807 = EDGE_CURVE('',#708,#509,#808,.T.);
#808 = SURFACE_CURVE('',#809,(#813,#820),.PCURVE_S1.);
#809 = LINE('',#810,#811);
#810 = CARTESIAN_POINT('',(28.76761608889,23.824408722214,
    24.981499328763));
#811 = VECTOR('',#812,1.);
#812 = DIRECTION('',(0.575164248618,0.581576975453,-0.575286284153));
#813 = PCURVE('',#551,#814);
#814 = DEFINITIONAL_REPRESENTATION('',(#815),#819);
#815 = LINE('',#816,#817);
#816 = CARTESIAN_POINT('',(0.,-0.));
#817 = VECTOR('',#818,1.);
#818 = DIRECTION('',(0.818037932797,-0.575164272626));
#819 = ( GEOMETRIC_REPRESENTATION_CONTEXT(2) 
PARAMETRIC_REPRESENTATION_CONTEXT() REPRESENTATION_CONTEXT('2D SPACE',''
  ) );
#820 = PCURVE('',#608,#821);
#821 = DEFINITIONAL_REPRESENTATION('',(#822),#826);
#822 = LINE('',#823,#824);
#823 = CARTESIAN_POINT('',(0.,-0.));
#824 = VECTOR('',#825,1.);
#825 = DIRECTION('',(-0.813490981024,-0.581577530337));
#826 = ( GEOMETRIC_REPRESENTATION_CONTEXT(2) 
PARAMETRIC_REPRESENTATION_CONTEXT() REPRESENTATION_CONTEXT('2D SPACE',''
  ) );
#827 = ORIENTED_EDGE('',*,*,#537,.F.);
#828 = ORIENTED_EDGE('',*,*,#781,.T.);
#829 = ADVANCED_FACE('',(#830),#692,.T.);
#830 = FACE_BOUND('',#831,.T.);
#831 = EDGE_LOOP('',(#832,#833,#834));
#832 = ORIENTED_EDGE('',*,*,#757,.F.);
#833 = ORIENTED_EDGE('',*,*,#678,.T.);
#834 = ORIENTED_EDGE('',*,*,#835,.F.);
#835 = EDGE_CURVE('',#708,#225,#836,.T.);
#836 = SURFACE_CURVE('',#837,(#841,#848),.PCURVE_S1.);
#837 = LINE('',#838,#839);
#838 = CARTESIAN_POINT('',(28.76761608889,23.824408722214,
    24.981499328763));
#839 = VECTOR('',#840,1.);
#840 = DIRECTION('',(9.30716768371E-02,-0.991096363645,
    -9.521376445216E-02));
#841 = PCURVE('',#692,#842);
#842 = DEFINITIONAL_REPRESENTATION('',(#843),#847);
#843 = LINE('',#844,#845);
#844 = CARTESIAN_POINT('',(0.,-0.));
#845 = VECTOR('',#846,1.);
#846 = DIRECTION('',(-0.133146414044,0.99109637898));
#847 = ( GEOMETRIC_REPRESENTATION_CONTEXT(2) 
PARAMETRIC_REPRESENTATION_CONTEXT() REPRESENTATION_CONTEXT('2D SPACE',''
  ) );
#848 = PCURVE('',#608,#849);
#849 = DEFINITIONAL_REPRESENTATION('',(#850),#854);
#850 = LINE('',#851,#852);
#851 = CARTESIAN_POINT('',(0.,-0.));
#852 = VECTOR('',#853,1.);
#853 = DIRECTION('',(-0.133139489239,0.991097309251));
#854 = ( GEOMETRIC_REPRESENTATION_CONTEXT(2) 
PARAMETRIC_REPRESENTATION_CONTEXT() REPRESENTATION_CONTEXT('2D SPACE',''
  ) );
#855 = ADVANCED_FACE('',(#856),#608,.T.);
#856 = FACE_BOUND('',#857,.T.);
#857 = EDGE_LOOP('',(#858,#859,#860));
#858 = ORIENTED_EDGE('',*,*,#835,.T.);
#859 = ORIENTED_EDGE('',*,*,#594,.T.);
#860 = ORIENTED_EDGE('',*,*,#807,.F.);
#861 = ( GEOMETRIC_REPRESENTATION_CONTEXT(3) 
GLOBAL_UNCERTAINTY_ASSIGNED_CONTEXT((#865)) GLOBAL_UNIT_ASSIGNED_CONTEXT
((#862,#863,#864)) REPRESENTATION_CONTEXT('Context #1',
  '3D Context with UNIT and UNCERTAINTY') );
#862 = ( LENGTH_UNIT() NAMED_UNIT(*) SI_UNIT(.MILLI.,.METRE.) );
#863 = ( NAMED_UNIT(*) PLANE_ANGLE_UNIT() SI_UNIT($,.RADIAN.) );
#864 = ( NAMED_UNIT(*) SI_UNIT($,.STERADIAN.) SOLID_ANGLE_UNIT() );
#865 = UNCERTAINTY_MEASURE_WITH_UNIT(LENGTH_MEASURE(1.E-07),#862,
  'distance_accuracy_value','confusion accuracy');
#866 = PRODUCT_TYPE('part',$,(#7));
ENDSEC;
END-ISO-10303-21;
