ISO-10303-21;
HEADER;
FILE_DESCRIPTION(('Open CASCADE Model'),'2;1');
FILE_NAME('Open CASCADE Shape Model','2026-10-04T20:44:43',('Author'),(
    'Open CASCADE'),'Open CASCADE STEP processor 7.8','Open CASCADE 7.8'
  ,'Unknown');
FILE_SCHEMA(('AUTOMOTIVE_DESIGN_CC2 { 1 2 10303 214 -1 1 5 4 }'));
ENDSEC;
DATA;
#1 = APPLICATION_PROTOCOL_DEFINITION('committee draft',
  'automotive_design',1997,#2);
#2 = APPLICATION_CONTEXT(
  'core data for automotive mechanical design processes');
#3 = SHAPE_DEFINITION_REPRESENTATION(#4,#10);
#4 = PRODUCT_DEFINITION_SHAPE('','',#5);
#5 = PRODUCT_DEFINITION('design','',#6,#9);
#6 = PRODUCT_DEFINITION_FORMATION('','',#7);
#7 = PRODUCT('Open CASCADE STEP translator 7.8 118',
  'Open CASCADE STEP translator 7.8 118','',(#8));
#8 = MECHANICAL_CONTEXT('',#2,'mechanical');
#9 = PRODUCT_DEFINITION_CONTEXT('part definition',#2,'design');
#10 = ADVANCED_BREP_SHAPE_REPRESENTATION('',(#11,#15),#861);
#11 = AXIS2_PLACEMENT_3D('',#12,#13,#14);
#12 = CARTESIAN_POINT('',(0.,0.,0.));
#13 = DIRECTION('',(0.,0.,1.));
#14 = DIRECTION('',(1.,0.,-0.));
#15 = MANIFOLD_SOLID_BREP('',#16);
#16 = CLOSED_SHELL('',(#17,#109,#167,#225,#283,#336,#394,#447,#473,#526,
    #552,#578,#609,#640,#693,#724,#777,#803,#829,#855));
#17 = ADVANCED_FACE('',(#18),#32,.T.);
#18 = FACE_BOUND('',#19,.T.);
#19 = EDGE_LOOP('',(#20,#55,#83));
#20 = ORIENTED_EDGE('',*,*,#21,.T.);
#21 = EDGE_CURVE('',#22,#24,#26,.T.);
#22 = VERTEX_POINT('',#23);
#23 = CARTESIAN_POINT('',(-53.13939959752,-37.52988758932,
    27.028644139811));
#24 = VERTEX_POINT('',#25);
#25 = CARTESIAN_POINT('',(-53.12776422829,37.514922798943,
    1.815751077688E-02));
#26 = SURFACE_CURVE('',#27,(#31,#43),.PCURVE_S1.);
#27 = LINE('',#28,#29);
#28 = CARTESIAN_POINT('',(-53.13939959752,-37.52988758932,
    27.028644139811));
#29 = VECTOR('',#30,1.);
#30 = DIRECTION('',(1.458839685694E-04,0.94090995658,-0.338656806112));
#31 = PCURVE('',#32,#37);
#32 = PLANE('',#33);
#33 = AXIS2_PLACEMENT_3D('',#34,#35,#36);
#34 = CARTESIAN_POINT('',(-53.13939959752,-37.52988758932,
    27.028644139811));
#35 = DIRECTION('',(-0.999999974992,7.985676735062E-05,
    -2.089015668482E-04));
#36 = DIRECTION('',(2.089015675143E-04,-3.086780443577E-24,
    -0.99999997818));
#37 = DEFINITIONAL_REPRESENTATION('',(#38),#42);
#38 = LINE('',#39,#40);
#39 = CARTESIAN_POINT('',(0.,-0.));
#40 = VECTOR('',#41,1.);
#41 = DIRECTION('',(0.338656829198,-0.940909959581));
#42 = ( GEOMETRIC_REPRESENTATION_CONTEXT(2) 
PARAMETRIC_REPRESENTATION_CONTEXT() REPRESENTATION_CONTEXT('2D SPACE',''
  ) );
#43 = PCURVE('',#44,#49);
#44 = PLANE('',#45);
#45 = AXIS2_PLACEMENT_3D('',#46,#47,#48);
#46 = CARTESIAN_POINT('',(-53.13939959752,-37.52988758932,
    27.028644139811));
#47 = DIRECTION('',(-0.999999872391,-2.653420007861E-05,
    -5.044937527133E-04));
#48 = DIRECTION('',(5.044937528909E-04,1.730625439843E-24,
    -0.999999872743));
#49 = DEFINITIONAL_REPRESENTATION('',(#50),#54);
#50 = LINE('',#51,#52);
#51 = CARTESIAN_POINT('',(0.,0.));
#52 = VECTOR('',#53,1.);
#53 = DIRECTION('',(0.338656836613,-0.940909956912));
#54 = ( GEOMETRIC_REPRESENTATION_CONTEXT(2) 
PARAMETRIC_REPRESENTATION_CONTEXT() REPRESENTATION_CONTEXT('2D SPACE',''
  ) );
#55 = ORIENTED_EDGE('',*,*,#56,.F.);
#56 = EDGE_CURVE('',#57,#24,#59,.T.);
#57 = VERTEX_POINT('',#58);
#58 = CARTESIAN_POINT('',(-53.13375771374,-37.51881830288,
    2.549731607867E-02));
#59 = SURFACE_CURVE('',#60,(#64,#71),.PCURVE_S1.);
#60 = LINE('',#61,#62);
#61 = CARTESIAN_POINT('',(-53.13375771374,-37.51881830288,
    2.549731607867E-02));
#62 = VECTOR('',#63,1.);
#63 = DIRECTION('',(7.987720347573E-05,0.999999992025,
    -9.782006248761E-05));
#64 = PCURVE('',#32,#65);
#65 = DEFINITIONAL_REPRESENTATION('',(#66),#70);
#66 = LINE('',#67,#68);
#67 = CARTESIAN_POINT('',(27.003147413124,-1.106928647538E-02));
#68 = VECTOR('',#69,1.);
#69 = DIRECTION('',(9.78367468262E-05,-0.999999995214));
#70 = ( GEOMETRIC_REPRESENTATION_CONTEXT(2) 
PARAMETRIC_REPRESENTATION_CONTEXT() REPRESENTATION_CONTEXT('2D SPACE',''
  ) );
#71 = PCURVE('',#72,#77);
#72 = PLANE('',#73);
#73 = AXIS2_PLACEMENT_3D('',#74,#75,#76);
#74 = CARTESIAN_POINT('',(53.125903831367,37.520144304084,
    4.363009565307E-02));
#75 = DIRECTION('',(2.397384989655E-04,-9.783920962943E-05,
    -0.999999966476));
#76 = DIRECTION('',(-0.999999971263,-1.707810547446E-24,
    -2.397385001129E-04));
#77 = DEFINITIONAL_REPRESENTATION('',(#78),#82);
#78 = LINE('',#79,#80);
#79 = CARTESIAN_POINT('',(106.25966283862,-75.03896296612));
#80 = VECTOR('',#81,1.);
#81 = DIRECTION('',(-7.985374994521E-05,0.999999996812));
#82 = ( GEOMETRIC_REPRESENTATION_CONTEXT(2) 
PARAMETRIC_REPRESENTATION_CONTEXT() REPRESENTATION_CONTEXT('2D SPACE',''
  ) );
#83 = ORIENTED_EDGE('',*,*,#84,.F.);
#84 = EDGE_CURVE('',#22,#57,#85,.T.);
#85 = SURFACE_CURVE('',#86,(#90,#97),.PCURVE_S1.);
#86 = LINE('',#87,#88);
#87 = CARTESIAN_POINT('',(-53.13939959752,-37.52988758932,
    27.028644139811));
#88 = VECTOR('',#89,1.);
#89 = DIRECTION('',(2.089342853073E-04,4.099257520131E-04,
    -0.999999894154));
#90 = PCURVE('',#32,#91);
#91 = DEFINITIONAL_REPRESENTATION('',(#92),#96);
#92 = LINE('',#93,#94);
#93 = CARTESIAN_POINT('',(0.,-0.));
#94 = VECTOR('',#95,1.);
#95 = DIRECTION('',(0.99999991598,-4.099257533202E-04));
#96 = ( GEOMETRIC_REPRESENTATION_CONTEXT(2) 
PARAMETRIC_REPRESENTATION_CONTEXT() REPRESENTATION_CONTEXT('2D SPACE',''
  ) );
#97 = PCURVE('',#98,#103);
#98 = PLANE('',#99);
#99 = AXIS2_PLACEMENT_3D('',#100,#101,#102);
#100 = CARTESIAN_POINT('',(53.160287000562,-37.56115034129,
    27.038604307699));
#101 = DIRECTION('',(-2.940616802907E-04,-0.999999872719,
    -4.099871828001E-04));
#102 = DIRECTION('',(-1.890824401207E-23,4.099872005263E-04,
    -0.999999915955));
#103 = DEFINITIONAL_REPRESENTATION('',(#104),#108);
#104 = LINE('',#105,#106);
#105 = CARTESIAN_POINT('',(9.972984378978E-03,-106.299691194));
#106 = VECTOR('',#107,1.);
#107 = DIRECTION('',(0.999999978173,2.089342943408E-04));
#108 = ( GEOMETRIC_REPRESENTATION_CONTEXT(2) 
PARAMETRIC_REPRESENTATION_CONTEXT() REPRESENTATION_CONTEXT('2D SPACE',''
  ) );
#109 = ADVANCED_FACE('',(#110),#44,.T.);
#110 = FACE_BOUND('',#111,.T.);
#111 = EDGE_LOOP('',(#112,#140,#166));
#112 = ORIENTED_EDGE('',*,*,#113,.F.);
#113 = EDGE_CURVE('',#114,#22,#116,.T.);
#114 = VERTEX_POINT('',#115);
#115 = CARTESIAN_POINT('',(-53.1413922476,37.533342928264,
    27.030442079292));
#116 = SURFACE_CURVE('',#117,(#121,#128),.PCURVE_S1.);
#117 = LINE('',#118,#119);
#118 = CARTESIAN_POINT('',(-53.1413922476,37.533342928264,
    27.030442079292));
#119 = VECTOR('',#120,1.);
#120 = DIRECTION('',(2.654628725146E-05,-0.999999999361,
    -2.395233281101E-05));
#121 = PCURVE('',#44,#122);
#122 = DEFINITIONAL_REPRESENTATION('',(#123),#127);
#123 = LINE('',#124,#125);
#124 = CARTESIAN_POINT('',(-1.798944531093E-03,-75.063230544));
#125 = VECTOR('',#126,1.);
#126 = DIRECTION('',(2.396572219899E-05,0.999999999713));
#127 = ( GEOMETRIC_REPRESENTATION_CONTEXT(2) 
PARAMETRIC_REPRESENTATION_CONTEXT() REPRESENTATION_CONTEXT('2D SPACE',''
  ) );
#128 = PCURVE('',#129,#134);
#129 = PLANE('',#130);
#130 = AXIS2_PLACEMENT_3D('',#131,#132,#133);
#131 = CARTESIAN_POINT('',(-53.1413922476,37.533342928264,
    27.030442079292));
#132 = DIRECTION('',(-0.709258229796,-3.571334017601E-05,0.70494876565)
  );
#133 = DIRECTION('',(-0.7049487661,3.121454816566E-22,-0.709258230248));
#134 = DEFINITIONAL_REPRESENTATION('',(#135),#139);
#135 = LINE('',#136,#137);
#136 = CARTESIAN_POINT('',(0.,0.));
#137 = VECTOR('',#138,1.);
#138 = DIRECTION('',(-1.725383262603E-06,0.999999999999));
#139 = ( GEOMETRIC_REPRESENTATION_CONTEXT(2) 
PARAMETRIC_REPRESENTATION_CONTEXT() REPRESENTATION_CONTEXT('2D SPACE',''
  ) );
#140 = ORIENTED_EDGE('',*,*,#141,.T.);
#141 = EDGE_CURVE('',#114,#24,#142,.T.);
#142 = SURFACE_CURVE('',#143,(#147,#154),.PCURVE_S1.);
#143 = LINE('',#144,#145);
#144 = CARTESIAN_POINT('',(-53.1413922476,37.533342928264,
    27.030442079292));
#145 = VECTOR('',#146,1.);
#146 = DIRECTION('',(5.045117297002E-04,-6.819165053292E-04,
    -0.999999640229));
#147 = PCURVE('',#44,#148);
#148 = DEFINITIONAL_REPRESENTATION('',(#149),#153);
#149 = LINE('',#150,#151);
#150 = CARTESIAN_POINT('',(-1.798944531093E-03,-75.063230544));
#151 = VECTOR('',#152,1.);
#152 = DIRECTION('',(0.999999767495,6.819165055693E-04));
#153 = ( GEOMETRIC_REPRESENTATION_CONTEXT(2) 
PARAMETRIC_REPRESENTATION_CONTEXT() REPRESENTATION_CONTEXT('2D SPACE',''
  ) );
#154 = PCURVE('',#155,#160);
#155 = PLANE('',#156);
#156 = AXIS2_PLACEMENT_3D('',#157,#158,#159);
#157 = CARTESIAN_POINT('',(53.142836939819,37.544319199049,
    27.032263075131));
#158 = DIRECTION('',(-1.032610989983E-04,0.999999762128,
    -6.819686849086E-04));
#159 = DIRECTION('',(7.233540693776E-25,6.819686885445E-04,
    0.999999767459));
#160 = DEFINITIONAL_REPRESENTATION('',(#161),#165);
#161 = LINE('',#162,#163);
#162 = CARTESIAN_POINT('',(-1.828480888694E-03,-106.284229754));
#163 = VECTOR('',#164,1.);
#164 = DIRECTION('',(-0.999999872734,5.0451173239E-04));
#165 = ( GEOMETRIC_REPRESENTATION_CONTEXT(2) 
PARAMETRIC_REPRESENTATION_CONTEXT() REPRESENTATION_CONTEXT('2D SPACE',''
  ) );
#166 = ORIENTED_EDGE('',*,*,#21,.F.);
#167 = ADVANCED_FACE('',(#168),#98,.T.);
#168 = FACE_BOUND('',#169,.T.);
#169 = EDGE_LOOP('',(#170,#198,#199));
#170 = ORIENTED_EDGE('',*,*,#171,.F.);
#171 = EDGE_CURVE('',#22,#172,#174,.T.);
#172 = VERTEX_POINT('',#173);
#173 = CARTESIAN_POINT('',(53.160287000562,-37.56115034129,
    27.038604307699));
#174 = SURFACE_CURVE('',#175,(#179,#186),.PCURVE_S1.);
#175 = LINE('',#176,#177);
#176 = CARTESIAN_POINT('',(-53.13939959752,-37.52988758932,
    27.028644139811));
#177 = VECTOR('',#178,1.);
#178 = DIRECTION('',(0.999999952363,-2.941001190781E-04,
    9.369893489055E-05));
#179 = PCURVE('',#98,#180);
#180 = DEFINITIONAL_REPRESENTATION('',(#181),#185);
#181 = LINE('',#182,#183);
#182 = CARTESIAN_POINT('',(9.972984378978E-03,-106.299691194));
#183 = VECTOR('',#184,1.);
#184 = DIRECTION('',(-9.381950430014E-05,0.999999995599));
#185 = ( GEOMETRIC_REPRESENTATION_CONTEXT(2) 
PARAMETRIC_REPRESENTATION_CONTEXT() REPRESENTATION_CONTEXT('2D SPACE',''
  ) );
#186 = PCURVE('',#187,#192);
#187 = PLANE('',#188);
#188 = AXIS2_PLACEMENT_3D('',#189,#190,#191);
#189 = CARTESIAN_POINT('',(53.160287000562,-37.56115034129,
    27.038604307699));
#190 = DIRECTION('',(-2.746495762333E-04,-0.709276694589,0.704930134893)
  );
#191 = DIRECTION('',(1.371601652739E-21,-0.70493016148,-0.70927672134));
#192 = DEFINITIONAL_REPRESENTATION('',(#193),#197);
#193 = LINE('',#194,#195);
#194 = CARTESIAN_POINT('',(-1.497354157503E-02,-106.2996906073));
#195 = VECTOR('',#196,1.);
#196 = DIRECTION('',(1.408615711008E-04,0.999999990079));
#197 = ( GEOMETRIC_REPRESENTATION_CONTEXT(2) 
PARAMETRIC_REPRESENTATION_CONTEXT() REPRESENTATION_CONTEXT('2D SPACE',''
  ) );
#198 = ORIENTED_EDGE('',*,*,#84,.T.);
#199 = ORIENTED_EDGE('',*,*,#200,.T.);
#200 = EDGE_CURVE('',#57,#172,#201,.T.);
#201 = SURFACE_CURVE('',#202,(#206,#213),.PCURVE_S1.);
#202 = LINE('',#203,#204);
#203 = CARTESIAN_POINT('',(-53.13375771374,-37.51881830288,
    2.549731607867E-02));
#204 = VECTOR('',#205,1.);
#205 = DIRECTION('',(0.969191976269,-3.859846718787E-04,0.246306240587)
  );
#206 = PCURVE('',#98,#207);
#207 = DEFINITIONAL_REPRESENTATION('',(#208),#212);
#208 = LINE('',#209,#210);
#209 = CARTESIAN_POINT('',(27.013122076905,-106.29404931));
#210 = VECTOR('',#211,1.);
#211 = DIRECTION('',(-0.246306378135,0.969192018173));
#212 = ( GEOMETRIC_REPRESENTATION_CONTEXT(2) 
PARAMETRIC_REPRESENTATION_CONTEXT() REPRESENTATION_CONTEXT('2D SPACE',''
  ) );
#213 = PCURVE('',#214,#219);
#214 = PLANE('',#215);
#215 = AXIS2_PLACEMENT_3D('',#216,#217,#218);
#216 = CARTESIAN_POINT('',(53.160287000562,-37.56115034129,
    27.038604307699));
#217 = DIRECTION('',(3.195819148849E-05,-0.99999856663,
    -1.69284278138E-03));
#218 = DIRECTION('',(7.259234331666E-24,1.692842782244E-03,
    -0.999998567141));
#219 = DEFINITIONAL_REPRESENTATION('',(#220),#224);
#220 = LINE('',#221,#222);
#221 = CARTESIAN_POINT('',(27.013139947123,-106.2940447685));
#222 = VECTOR('',#223,1.);
#223 = DIRECTION('',(-0.246306541076,0.969191976764));
#224 = ( GEOMETRIC_REPRESENTATION_CONTEXT(2) 
PARAMETRIC_REPRESENTATION_CONTEXT() REPRESENTATION_CONTEXT('2D SPACE',''
  ) );
#225 = ADVANCED_FACE('',(#226),#214,.T.);
#226 = FACE_BOUND('',#227,.T.);
#227 = EDGE_LOOP('',(#228,#229,#257));
#228 = ORIENTED_EDGE('',*,*,#200,.F.);
#229 = ORIENTED_EDGE('',*,*,#230,.T.);
#230 = EDGE_CURVE('',#57,#231,#233,.T.);
#231 = VERTEX_POINT('',#232);
#232 = CARTESIAN_POINT('',(53.128128265461,-37.51543824988,
    3.488362869779E-02));
#233 = SURFACE_CURVE('',#234,(#238,#245),.PCURVE_S1.);
#234 = LINE('',#235,#236);
#235 = CARTESIAN_POINT('',(-53.13375771374,-37.51881830288,
    2.549731607867E-02));
#236 = VECTOR('',#237,1.);
#237 = DIRECTION('',(0.999999995593,3.180870494923E-05,
    8.833188392296E-05));
#238 = PCURVE('',#214,#239);
#239 = DEFINITIONAL_REPRESENTATION('',(#240),#244);
#240 = LINE('',#241,#242);
#241 = CARTESIAN_POINT('',(27.013139947123,-106.2940447685));
#242 = VECTOR('',#243,1.);
#243 = DIRECTION('',(-8.827791021921E-05,0.999999996104));
#244 = ( GEOMETRIC_REPRESENTATION_CONTEXT(2) 
PARAMETRIC_REPRESENTATION_CONTEXT() REPRESENTATION_CONTEXT('2D SPACE',''
  ) );
#245 = PCURVE('',#246,#251);
#246 = PLANE('',#247);
#247 = AXIS2_PLACEMENT_3D('',#248,#249,#250);
#248 = CARTESIAN_POINT('',(53.125903831367,37.520144304084,
    4.363009565307E-02));
#249 = DIRECTION('',(8.832817552622E-05,1.165668745979E-04,
    -0.999999989305));
#250 = DIRECTION('',(1.138973405846E-25,-0.999999993206,
    -1.165668750526E-04));
#251 = DEFINITIONAL_REPRESENTATION('',(#252),#256);
#252 = LINE('',#253,#254);
#253 = CARTESIAN_POINT('',(75.038964210838,106.25966195962));
#254 = VECTOR('',#255,1.);
#255 = DIRECTION('',(-3.18190013048E-05,-0.999999999494));
#256 = ( GEOMETRIC_REPRESENTATION_CONTEXT(2) 
PARAMETRIC_REPRESENTATION_CONTEXT() REPRESENTATION_CONTEXT('2D SPACE',''
  ) );
#257 = ORIENTED_EDGE('',*,*,#258,.T.);
#258 = EDGE_CURVE('',#231,#172,#259,.T.);
#259 = SURFACE_CURVE('',#260,(#264,#271),.PCURVE_S1.);
#260 = LINE('',#261,#262);
#261 = CARTESIAN_POINT('',(53.128128265461,-37.51543824988,
    3.488362869779E-02));
#262 = VECTOR('',#263,1.);
#263 = DIRECTION('',(1.190897602675E-03,-1.692803522939E-03,
    0.999997858087));
#264 = PCURVE('',#214,#265);
#265 = DEFINITIONAL_REPRESENTATION('',(#266),#270);
#266 = LINE('',#267,#268);
#267 = CARTESIAN_POINT('',(27.003759369851,-3.215873511756E-02));
#268 = VECTOR('',#269,1.);
#269 = DIRECTION('',(-0.999999290881,1.190897603283E-03));
#270 = ( GEOMETRIC_REPRESENTATION_CONTEXT(2) 
PARAMETRIC_REPRESENTATION_CONTEXT() REPRESENTATION_CONTEXT('2D SPACE',''
  ) );
#271 = PCURVE('',#272,#277);
#272 = PLANE('',#273);
#273 = AXIS2_PLACEMENT_3D('',#274,#275,#276);
#274 = CARTESIAN_POINT('',(53.160287000562,-37.56115034129,
    27.038604307699));
#275 = DIRECTION('',(0.999999290496,2.978384600739E-05,
    -1.190848890223E-03));
#276 = DIRECTION('',(1.190848890751E-03,-4.135412576766E-24,
    0.999999290939));
#277 = DEFINITIONAL_REPRESENTATION('',(#278),#282);
#278 = LINE('',#279,#280);
#279 = CARTESIAN_POINT('',(-27.00373982791,-4.571209142945E-02));
#280 = VECTOR('',#281,1.);
#281 = DIRECTION('',(0.999998567207,1.692803523689E-03));
#282 = ( GEOMETRIC_REPRESENTATION_CONTEXT(2) 
PARAMETRIC_REPRESENTATION_CONTEXT() REPRESENTATION_CONTEXT('2D SPACE',''
  ) );
#283 = ADVANCED_FACE('',(#284),#129,.T.);
#284 = FACE_BOUND('',#285,.T.);
#285 = EDGE_LOOP('',(#286,#287,#310));
#286 = ORIENTED_EDGE('',*,*,#113,.T.);
#287 = ORIENTED_EDGE('',*,*,#288,.T.);
#288 = EDGE_CURVE('',#22,#289,#291,.T.);
#289 = VERTEX_POINT('',#290);
#290 = CARTESIAN_POINT('',(-46.38463376621,-30.77775176082,
    33.825045000379));
#291 = SURFACE_CURVE('',#292,(#296,#303),.PCURVE_S1.);
#292 = LINE('',#293,#294);
#293 = CARTESIAN_POINT('',(-53.13939959752,-37.52988758932,
    27.028644139811));
#294 = VECTOR('',#295,1.);
#295 = DIRECTION('',(0.576238525662,0.576014164229,0.579790344996));
#296 = PCURVE('',#129,#297);
#297 = DEFINITIONAL_REPRESENTATION('',(#298),#302);
#298 = LINE('',#299,#300);
#299 = CARTESIAN_POINT('',(-1.295128416548E-04,75.063230565454));
#300 = VECTOR('',#301,1.);
#301 = DIRECTION('',(-0.817439711651,-0.576014164596));
#302 = ( GEOMETRIC_REPRESENTATION_CONTEXT(2) 
PARAMETRIC_REPRESENTATION_CONTEXT() REPRESENTATION_CONTEXT('2D SPACE',''
  ) );
#303 = PCURVE('',#187,#304);
#304 = DEFINITIONAL_REPRESENTATION('',(#305),#309);
#305 = LINE('',#306,#307);
#306 = CARTESIAN_POINT('',(-1.497354157503E-02,-106.2996906073));
#307 = VECTOR('',#308,1.);
#308 = DIRECTION('',(-0.817281552768,0.576238547396));
#309 = ( GEOMETRIC_REPRESENTATION_CONTEXT(2) 
PARAMETRIC_REPRESENTATION_CONTEXT() REPRESENTATION_CONTEXT('2D SPACE',''
  ) );
#310 = ORIENTED_EDGE('',*,*,#311,.F.);
#311 = EDGE_CURVE('',#114,#289,#312,.T.);
#312 = SURFACE_CURVE('',#313,(#317,#324),.PCURVE_S1.);
#313 = LINE('',#314,#315);
#314 = CARTESIAN_POINT('',(-53.1413922476,37.533342928264,
    27.030442079292));
#315 = VECTOR('',#316,1.);
#316 = DIRECTION('',(9.795257545119E-02,-0.990304400419,
    9.850120544074E-02));
#317 = PCURVE('',#129,#318);
#318 = DEFINITIONAL_REPRESENTATION('',(#319),#323);
#319 = LINE('',#320,#321);
#320 = CARTESIAN_POINT('',(0.,0.));
#321 = VECTOR('',#322,1.);
#322 = DIRECTION('',(-0.138914337849,0.990304401051));
#323 = ( GEOMETRIC_REPRESENTATION_CONTEXT(2) 
PARAMETRIC_REPRESENTATION_CONTEXT() REPRESENTATION_CONTEXT('2D SPACE',''
  ) );
#324 = PCURVE('',#325,#330);
#325 = PLANE('',#326);
#326 = AXIS2_PLACEMENT_3D('',#327,#328,#329);
#327 = CARTESIAN_POINT('',(-46.38009520485,30.771307903582,
    33.788017050102));
#328 = DIRECTION('',(-0.706672909184,4.777659126788E-04,0.707540225828)
  );
#329 = DIRECTION('',(0.70754030658,8.205224784891E-21,0.706672989837));
#330 = DEFINITIONAL_REPRESENTATION('',(#331),#335);
#331 = LINE('',#332,#333);
#332 = CARTESIAN_POINT('',(-9.559285891177,6.762035796434));
#333 = VECTOR('',#334,1.);
#334 = DIRECTION('',(0.138913536616,-0.990304513443));
#335 = ( GEOMETRIC_REPRESENTATION_CONTEXT(2) 
PARAMETRIC_REPRESENTATION_CONTEXT() REPRESENTATION_CONTEXT('2D SPACE',''
  ) );
#336 = ADVANCED_FACE('',(#337),#325,.T.);
#337 = FACE_BOUND('',#338,.T.);
#338 = EDGE_LOOP('',(#339,#367,#368));
#339 = ORIENTED_EDGE('',*,*,#340,.F.);
#340 = EDGE_CURVE('',#114,#341,#343,.T.);
#341 = VERTEX_POINT('',#342);
#342 = CARTESIAN_POINT('',(-46.38009520485,30.771307903582,
    33.788017050102));
#343 = SURFACE_CURVE('',#344,(#348,#355),.PCURVE_S1.);
#344 = LINE('',#345,#346);
#345 = CARTESIAN_POINT('',(-53.1413922476,37.533342928264,
    27.030442079292));
#346 = VECTOR('',#347,1.);
#347 = DIRECTION('',(0.577435195224,-0.577498221111,0.577117319035));
#348 = PCURVE('',#325,#349);
#349 = DEFINITIONAL_REPRESENTATION('',(#350),#354);
#350 = LINE('',#351,#352);
#351 = CARTESIAN_POINT('',(-9.559285891177,6.762035796434));
#352 = VECTOR('',#353,1.);
#353 = DIRECTION('',(0.816391896388,-0.577498287021));
#354 = ( GEOMETRIC_REPRESENTATION_CONTEXT(2) 
PARAMETRIC_REPRESENTATION_CONTEXT() REPRESENTATION_CONTEXT('2D SPACE',''
  ) );
#355 = PCURVE('',#356,#361);
#356 = PLANE('',#357);
#357 = AXIS2_PLACEMENT_3D('',#358,#359,#360);
#358 = CARTESIAN_POINT('',(53.142836939819,37.544319199049,
    27.032263075131));
#359 = DIRECTION('',(-8.511618309354E-05,0.706830886254,0.707382563393)
  );
#360 = DIRECTION('',(1.829628142604E-21,0.707382565956,-0.706830888814)
  );
#361 = DEFINITIONAL_REPRESENTATION('',(#362),#366);
#362 = LINE('',#363,#364);
#363 = CARTESIAN_POINT('',(-6.477286485114E-03,106.28422957242));
#364 = VECTOR('',#365,1.);
#365 = DIRECTION('',(-0.816436521048,-0.577435197316));
#366 = ( GEOMETRIC_REPRESENTATION_CONTEXT(2) 
PARAMETRIC_REPRESENTATION_CONTEXT() REPRESENTATION_CONTEXT('2D SPACE',''
  ) );
#367 = ORIENTED_EDGE('',*,*,#311,.T.);
#368 = ORIENTED_EDGE('',*,*,#369,.T.);
#369 = EDGE_CURVE('',#289,#341,#370,.T.);
#370 = SURFACE_CURVE('',#371,(#375,#382),.PCURVE_S1.);
#371 = LINE('',#372,#373);
#372 = CARTESIAN_POINT('',(-46.38463376621,-30.77775176082,
    33.825045000379));
#373 = VECTOR('',#374,1.);
#374 = DIRECTION('',(7.373890938259E-05,0.99999981632,
    -6.016004741086E-04));
#375 = PCURVE('',#325,#376);
#376 = DEFINITIONAL_REPRESENTATION('',(#377),#381);
#377 = LINE('',#378,#379);
#378 = CARTESIAN_POINT('',(2.295543722841E-02,-61.54906668901));
#379 = VECTOR('',#380,1.);
#380 = DIRECTION('',(-3.729615551743E-04,0.99999993045));
#381 = ( GEOMETRIC_REPRESENTATION_CONTEXT(2) 
PARAMETRIC_REPRESENTATION_CONTEXT() REPRESENTATION_CONTEXT('2D SPACE',''
  ) );
#382 = PCURVE('',#383,#388);
#383 = PLANE('',#384);
#384 = AXIS2_PLACEMENT_3D('',#385,#386,#387);
#385 = CARTESIAN_POINT('',(46.378733305905,-30.76909075843,
    33.74704574726));
#386 = DIRECTION('',(8.407845033472E-04,6.015382645817E-04,
    0.999999465616));
#387 = DIRECTION('',(0.999999646541,2.379465197779E-23,
    -8.407846554654E-04));
#388 = DEFINITIONAL_REPRESENTATION('',(#389),#393);
#389 = LINE('',#390,#391);
#390 = CARTESIAN_POINT('',(-92.7633998646,-8.661003955762E-03));
#391 = VECTOR('',#392,1.);
#392 = DIRECTION('',(7.424469976622E-05,0.999999997244));
#393 = ( GEOMETRIC_REPRESENTATION_CONTEXT(2) 
PARAMETRIC_REPRESENTATION_CONTEXT() REPRESENTATION_CONTEXT('2D SPACE',''
  ) );
#394 = ADVANCED_FACE('',(#395),#72,.T.);
#395 = FACE_BOUND('',#396,.T.);
#396 = EDGE_LOOP('',(#397,#420,#421));
#397 = ORIENTED_EDGE('',*,*,#398,.F.);
#398 = EDGE_CURVE('',#57,#399,#401,.T.);
#399 = VERTEX_POINT('',#400);
#400 = CARTESIAN_POINT('',(53.125903831367,37.520144304084,
    4.363009565307E-02));
#401 = SURFACE_CURVE('',#402,(#406,#413),.PCURVE_S1.);
#402 = LINE('',#403,#404);
#403 = CARTESIAN_POINT('',(-53.13375771374,-37.51881830288,
    2.549731607867E-02));
#404 = VECTOR('',#405,1.);
#405 = DIRECTION('',(0.816851426301,0.576848097786,1.393923775286E-04));
#406 = PCURVE('',#72,#407);
#407 = DEFINITIONAL_REPRESENTATION('',(#408),#412);
#408 = LINE('',#409,#410);
#409 = CARTESIAN_POINT('',(106.25966283862,-75.03896296612));
#410 = VECTOR('',#411,1.);
#411 = DIRECTION('',(-0.816851436245,0.576848100547));
#412 = ( GEOMETRIC_REPRESENTATION_CONTEXT(2) 
PARAMETRIC_REPRESENTATION_CONTEXT() REPRESENTATION_CONTEXT('2D SPACE',''
  ) );
#413 = PCURVE('',#246,#414);
#414 = DEFINITIONAL_REPRESENTATION('',(#415),#419);
#415 = LINE('',#416,#417);
#416 = CARTESIAN_POINT('',(75.038964210838,106.25966195962));
#417 = VECTOR('',#418,1.);
#418 = DIRECTION('',(-0.576848110115,-0.816851429488));
#419 = ( GEOMETRIC_REPRESENTATION_CONTEXT(2) 
PARAMETRIC_REPRESENTATION_CONTEXT() REPRESENTATION_CONTEXT('2D SPACE',''
  ) );
#420 = ORIENTED_EDGE('',*,*,#56,.T.);
#421 = ORIENTED_EDGE('',*,*,#422,.T.);
#422 = EDGE_CURVE('',#24,#399,#423,.T.);
#423 = SURFACE_CURVE('',#424,(#428,#435),.PCURVE_S1.);
#424 = LINE('',#425,#426);
#425 = CARTESIAN_POINT('',(-53.12776422829,37.514922798943,
    1.815751077688E-02));
#426 = VECTOR('',#427,1.);
#427 = DIRECTION('',(0.999999970056,4.914187980976E-05,
    2.397336918209E-04));
#428 = PCURVE('',#72,#429);
#429 = DEFINITIONAL_REPRESENTATION('',(#430),#434);
#430 = LINE('',#431,#432);
#431 = CARTESIAN_POINT('',(106.25367111297,-5.221505166476E-03));
#432 = VECTOR('',#433,1.);
#433 = DIRECTION('',(-0.999999998793,4.914188004497E-05));
#434 = ( GEOMETRIC_REPRESENTATION_CONTEXT(2) 
PARAMETRIC_REPRESENTATION_CONTEXT() REPRESENTATION_CONTEXT('2D SPACE',''
  ) );
#435 = PCURVE('',#436,#441);
#436 = PLANE('',#437);
#437 = AXIS2_PLACEMENT_3D('',#438,#439,#440);
#438 = CARTESIAN_POINT('',(53.142836939819,37.544319199049,
    27.032263075131));
#439 = DIRECTION('',(-4.892712903088E-05,0.999999597653,
    -8.957125308245E-04));
#440 = DIRECTION('',(2.490760305058E-24,8.957125318966E-04,
    0.999999598849));
#441 = DEFINITIONAL_REPRESENTATION('',(#442),#446);
#442 = LINE('',#443,#444);
#443 = CARTESIAN_POINT('',(-27.01412105835,-106.2706012953));
#444 = VECTOR('',#445,1.);
#445 = DIRECTION('',(2.397776126492E-04,0.999999971253));
#446 = ( GEOMETRIC_REPRESENTATION_CONTEXT(2) 
PARAMETRIC_REPRESENTATION_CONTEXT() REPRESENTATION_CONTEXT('2D SPACE',''
  ) );
#447 = ADVANCED_FACE('',(#448),#246,.T.);
#448 = FACE_BOUND('',#449,.T.);
#449 = EDGE_LOOP('',(#450,#471,#472));
#450 = ORIENTED_EDGE('',*,*,#451,.T.);
#451 = EDGE_CURVE('',#399,#231,#452,.T.);
#452 = SURFACE_CURVE('',#453,(#457,#464),.PCURVE_S1.);
#453 = LINE('',#454,#455);
#454 = CARTESIAN_POINT('',(53.125903831367,37.520144304084,
    4.363009565307E-02));
#455 = VECTOR('',#456,1.);
#456 = DIRECTION('',(2.964505640976E-05,-0.999999992767,
    -1.165642565076E-04));
#457 = PCURVE('',#246,#458);
#458 = DEFINITIONAL_REPRESENTATION('',(#459),#463);
#459 = LINE('',#460,#461);
#460 = CARTESIAN_POINT('',(0.,0.));
#461 = VECTOR('',#462,1.);
#462 = DIRECTION('',(0.999999999561,-2.96450565254E-05));
#463 = ( GEOMETRIC_REPRESENTATION_CONTEXT(2) 
PARAMETRIC_REPRESENTATION_CONTEXT() REPRESENTATION_CONTEXT('2D SPACE',''
  ) );
#464 = PCURVE('',#272,#465);
#465 = DEFINITIONAL_REPRESENTATION('',(#466),#470);
#466 = LINE('',#467,#468);
#467 = CARTESIAN_POINT('',(-26.99499601612,-75.08129467868));
#468 = VECTOR('',#469,1.);
#469 = DIRECTION('',(-1.165288710739E-04,0.999999993211));
#470 = ( GEOMETRIC_REPRESENTATION_CONTEXT(2) 
PARAMETRIC_REPRESENTATION_CONTEXT() REPRESENTATION_CONTEXT('2D SPACE',''
  ) );
#471 = ORIENTED_EDGE('',*,*,#230,.F.);
#472 = ORIENTED_EDGE('',*,*,#398,.T.);
#473 = ADVANCED_FACE('',(#474),#436,.T.);
#474 = FACE_BOUND('',#475,.T.);
#475 = EDGE_LOOP('',(#476,#504,#505));
#476 = ORIENTED_EDGE('',*,*,#477,.F.);
#477 = EDGE_CURVE('',#399,#478,#480,.T.);
#478 = VERTEX_POINT('',#479);
#479 = CARTESIAN_POINT('',(53.142836939819,37.544319199049,
    27.032263075131));
#480 = SURFACE_CURVE('',#481,(#485,#492),.PCURVE_S1.);
#481 = LINE('',#482,#483);
#482 = CARTESIAN_POINT('',(53.125903831367,37.520144304084,
    4.363009565307E-02));
#483 = VECTOR('',#484,1.);
#484 = DIRECTION('',(6.274159324553E-04,8.957430532456E-04,
    0.999999401997));
#485 = PCURVE('',#436,#486);
#486 = DEFINITIONAL_REPRESENTATION('',(#487),#491);
#487 = LINE('',#488,#489);
#488 = CARTESIAN_POINT('',(-26.98864380672,-1.693310847284E-02));
#489 = VECTOR('',#490,1.);
#490 = DIRECTION('',(0.999999803175,6.274159332063E-04));
#491 = ( GEOMETRIC_REPRESENTATION_CONTEXT(2) 
PARAMETRIC_REPRESENTATION_CONTEXT() REPRESENTATION_CONTEXT('2D SPACE',''
  ) );
#492 = PCURVE('',#493,#498);
#493 = PLANE('',#494);
#494 = AXIS2_PLACEMENT_3D('',#495,#496,#497);
#495 = CARTESIAN_POINT('',(53.160287000562,-37.56115034129,
    27.038604307699));
#496 = DIRECTION('',(0.999999776065,2.322877019483E-04,
    -6.276242373718E-04));
#497 = DIRECTION('',(6.276242543043E-04,-9.078680510227E-24,
    0.999999803044));
#498 = DEFINITIONAL_REPRESENTATION('',(#499),#503);
#499 = LINE('',#500,#501);
#500 = CARTESIAN_POINT('',(-26.99499047493,-75.08129667098));
#501 = VECTOR('',#502,1.);
#502 = DIRECTION('',(0.999999598822,-8.957430774117E-04));
#503 = ( GEOMETRIC_REPRESENTATION_CONTEXT(2) 
PARAMETRIC_REPRESENTATION_CONTEXT() REPRESENTATION_CONTEXT('2D SPACE',''
  ) );
#504 = ORIENTED_EDGE('',*,*,#422,.F.);
#505 = ORIENTED_EDGE('',*,*,#506,.T.);
#506 = EDGE_CURVE('',#24,#478,#507,.T.);
#507 = SURFACE_CURVE('',#508,(#512,#519),.PCURVE_S1.);
#508 = LINE('',#509,#510);
#509 = CARTESIAN_POINT('',(-53.12776422829,37.514922798943,
    1.815751077688E-02));
#510 = VECTOR('',#511,1.);
#511 = DIRECTION('',(0.969176867107,2.680921218654E-04,0.246365842583));
#512 = PCURVE('',#436,#513);
#513 = DEFINITIONAL_REPRESENTATION('',(#514),#518);
#514 = LINE('',#515,#516);
#515 = CARTESIAN_POINT('',(-27.01412105835,-106.2706012953));
#516 = VECTOR('',#517,1.);
#517 = DIRECTION('',(0.246365983886,0.969176868267));
#518 = ( GEOMETRIC_REPRESENTATION_CONTEXT(2) 
PARAMETRIC_REPRESENTATION_CONTEXT() REPRESENTATION_CONTEXT('2D SPACE',''
  ) );
#519 = PCURVE('',#155,#520);
#520 = DEFINITIONAL_REPRESENTATION('',(#521),#525);
#521 = LINE('',#522,#523);
#522 = CARTESIAN_POINT('',(-27.0141193299,-106.2706017346));
#523 = VECTOR('',#524,1.);
#524 = DIRECTION('',(0.246365968123,0.969176872274));
#525 = ( GEOMETRIC_REPRESENTATION_CONTEXT(2) 
PARAMETRIC_REPRESENTATION_CONTEXT() REPRESENTATION_CONTEXT('2D SPACE',''
  ) );
#526 = ADVANCED_FACE('',(#527),#155,.T.);
#527 = FACE_BOUND('',#528,.T.);
#528 = EDGE_LOOP('',(#529,#530,#531));
#529 = ORIENTED_EDGE('',*,*,#506,.F.);
#530 = ORIENTED_EDGE('',*,*,#141,.F.);
#531 = ORIENTED_EDGE('',*,*,#532,.T.);
#532 = EDGE_CURVE('',#114,#478,#533,.T.);
#533 = SURFACE_CURVE('',#534,(#538,#545),.PCURVE_S1.);
#534 = LINE('',#535,#536);
#535 = CARTESIAN_POINT('',(-53.1413922476,37.533342928264,
    27.030442079292));
#536 = VECTOR('',#537,1.);
#537 = DIRECTION('',(0.999999994521,1.032728073482E-04,
    1.713326467249E-05));
#538 = PCURVE('',#155,#539);
#539 = DEFINITIONAL_REPRESENTATION('',(#540),#544);
#540 = LINE('',#541,#542);
#541 = CARTESIAN_POINT('',(-1.828480888694E-03,-106.284229754));
#542 = VECTOR('',#543,1.);
#543 = DIRECTION('',(1.720368950929E-05,0.999999999852));
#544 = ( GEOMETRIC_REPRESENTATION_CONTEXT(2) 
PARAMETRIC_REPRESENTATION_CONTEXT() REPRESENTATION_CONTEXT('2D SPACE',''
  ) );
#545 = PCURVE('',#356,#546);
#546 = DEFINITIONAL_REPRESENTATION('',(#547),#551);
#547 = LINE('',#548,#549);
#548 = CARTESIAN_POINT('',(-6.477286485114E-03,106.28422957242));
#549 = VECTOR('',#550,1.);
#550 = DIRECTION('',(6.094306275863E-05,-0.999999998143));
#551 = ( GEOMETRIC_REPRESENTATION_CONTEXT(2) 
PARAMETRIC_REPRESENTATION_CONTEXT() REPRESENTATION_CONTEXT('2D SPACE',''
  ) );
#552 = ADVANCED_FACE('',(#553),#272,.T.);
#553 = FACE_BOUND('',#554,.T.);
#554 = EDGE_LOOP('',(#555,#556,#557));
#555 = ORIENTED_EDGE('',*,*,#258,.F.);
#556 = ORIENTED_EDGE('',*,*,#451,.F.);
#557 = ORIENTED_EDGE('',*,*,#558,.T.);
#558 = EDGE_CURVE('',#399,#172,#559,.T.);
#559 = SURFACE_CURVE('',#560,(#564,#571),.PCURVE_S1.);
#560 = LINE('',#561,#562);
#561 = CARTESIAN_POINT('',(53.125903831367,37.520144304084,
    4.363009565307E-02));
#562 = VECTOR('',#563,1.);
#563 = DIRECTION('',(4.309381607905E-04,-0.941024221501,0.338338925991)
  );
#564 = PCURVE('',#272,#565);
#565 = DEFINITIONAL_REPRESENTATION('',(#566),#570);
#566 = LINE('',#567,#568);
#567 = CARTESIAN_POINT('',(-26.99499601612,-75.08129467868));
#568 = VECTOR('',#569,1.);
#569 = DIRECTION('',(0.33833919927,0.941024221918));
#570 = ( GEOMETRIC_REPRESENTATION_CONTEXT(2) 
PARAMETRIC_REPRESENTATION_CONTEXT() REPRESENTATION_CONTEXT('2D SPACE',''
  ) );
#571 = PCURVE('',#493,#572);
#572 = DEFINITIONAL_REPRESENTATION('',(#573),#577);
#573 = LINE('',#574,#575);
#574 = CARTESIAN_POINT('',(-26.99499047493,-75.08129667098));
#575 = VECTOR('',#576,1.);
#576 = DIRECTION('',(0.33833912982,0.941024246889));
#577 = ( GEOMETRIC_REPRESENTATION_CONTEXT(2) 
PARAMETRIC_REPRESENTATION_CONTEXT() REPRESENTATION_CONTEXT('2D SPACE',''
  ) );
#578 = ADVANCED_FACE('',(#579),#493,.T.);
#579 = FACE_BOUND('',#580,.T.);
#580 = EDGE_LOOP('',(#581,#582,#583));
#581 = ORIENTED_EDGE('',*,*,#558,.F.);
#582 = ORIENTED_EDGE('',*,*,#477,.T.);
#583 = ORIENTED_EDGE('',*,*,#584,.T.);
#584 = EDGE_CURVE('',#478,#172,#585,.T.);
#585 = SURFACE_CURVE('',#586,(#590,#597),.PCURVE_S1.);
#586 = LINE('',#587,#588);
#587 = CARTESIAN_POINT('',(53.142836939819,37.544319199049,
    27.032263075131));
#588 = VECTOR('',#589,1.);
#589 = DIRECTION('',(2.323407378425E-04,-0.999999969445,
    8.443103296513E-05));
#590 = PCURVE('',#493,#591);
#591 = DEFINITIONAL_REPRESENTATION('',(#592),#596);
#592 = LINE('',#593,#594);
#593 = CARTESIAN_POINT('',(-6.352183400798E-03,-75.1054715666));
#594 = VECTOR('',#595,1.);
#595 = DIRECTION('',(8.457683901825E-05,0.999999996423));
#596 = ( GEOMETRIC_REPRESENTATION_CONTEXT(2) 
PARAMETRIC_REPRESENTATION_CONTEXT() REPRESENTATION_CONTEXT('2D SPACE',''
  ) );
#597 = PCURVE('',#598,#603);
#598 = PLANE('',#599);
#599 = AXIS2_PLACEMENT_3D('',#600,#601,#602);
#600 = CARTESIAN_POINT('',(46.381071534272,30.771727649886,
    33.793426537904));
#601 = DIRECTION('',(0.706963104195,2.239702173901E-04,0.707250393527));
#602 = DIRECTION('',(0.707250411266,2.055797468326E-21,-0.706963121927)
  );
#603 = DEFINITIONAL_REPRESENTATION('',(#604),#608);
#604 = LINE('',#605,#606);
#605 = CARTESIAN_POINT('',(9.562154593455,6.772591719029));
#606 = VECTOR('',#607,1.);
#607 = DIRECTION('',(1.046334557404E-04,-0.999999994526));
#608 = ( GEOMETRIC_REPRESENTATION_CONTEXT(2) 
PARAMETRIC_REPRESENTATION_CONTEXT() REPRESENTATION_CONTEXT('2D SPACE',''
  ) );
#609 = ADVANCED_FACE('',(#610),#187,.T.);
#610 = FACE_BOUND('',#611,.T.);
#611 = EDGE_LOOP('',(#612,#638,#639));
#612 = ORIENTED_EDGE('',*,*,#613,.F.);
#613 = EDGE_CURVE('',#289,#172,#614,.T.);
#614 = SURFACE_CURVE('',#615,(#619,#626),.PCURVE_S1.);
#615 = LINE('',#616,#617);
#616 = CARTESIAN_POINT('',(-46.38463376621,-30.77775176082,
    33.825045000379));
#617 = VECTOR('',#618,1.);
#618 = DIRECTION('',(0.995386424453,-6.78297074993E-02,
    -6.786012670272E-02));
#619 = PCURVE('',#187,#620);
#620 = DEFINITIONAL_REPRESENTATION('',(#621),#625);
#621 = LINE('',#622,#623);
#622 = CARTESIAN_POINT('',(-9.595286660791,-99.54492452123));
#623 = VECTOR('',#624,1.);
#624 = DIRECTION('',(9.594681483809E-02,0.995386461995));
#625 = ( GEOMETRIC_REPRESENTATION_CONTEXT(2) 
PARAMETRIC_REPRESENTATION_CONTEXT() REPRESENTATION_CONTEXT('2D SPACE',''
  ) );
#626 = PCURVE('',#627,#632);
#627 = PLANE('',#628);
#628 = AXIS2_PLACEMENT_3D('',#629,#630,#631);
#629 = CARTESIAN_POINT('',(46.378733305905,-30.76909075843,
    33.74704574726));
#630 = DIRECTION('',(6.64092730354E-04,-0.702377817988,0.711804017816));
#631 = DIRECTION('',(-8.193358642155E-21,0.711804174776,0.702377972869)
  );
#632 = DEFINITIONAL_REPRESENTATION('',(#633),#637);
#633 = LINE('',#634,#635);
#634 = CARTESIAN_POINT('',(4.862001963255E-02,92.76338752734));
#635 = VECTOR('',#636,1.);
#636 = DIRECTION('',(-9.594492720392E-02,-0.995386643945));
#637 = ( GEOMETRIC_REPRESENTATION_CONTEXT(2) 
PARAMETRIC_REPRESENTATION_CONTEXT() REPRESENTATION_CONTEXT('2D SPACE',''
  ) );
#638 = ORIENTED_EDGE('',*,*,#288,.F.);
#639 = ORIENTED_EDGE('',*,*,#171,.T.);
#640 = ADVANCED_FACE('',(#641),#627,.T.);
#641 = FACE_BOUND('',#642,.T.);
#642 = EDGE_LOOP('',(#643,#666,#667));
#643 = ORIENTED_EDGE('',*,*,#644,.F.);
#644 = EDGE_CURVE('',#289,#645,#647,.T.);
#645 = VERTEX_POINT('',#646);
#646 = CARTESIAN_POINT('',(46.378733305905,-30.76909075843,
    33.74704574726));
#647 = SURFACE_CURVE('',#648,(#652,#659),.PCURVE_S1.);
#648 = LINE('',#649,#650);
#649 = CARTESIAN_POINT('',(-46.38463376621,-30.77775176082,
    33.825045000379));
#650 = VECTOR('',#651,1.);
#651 = DIRECTION('',(0.999999642135,9.336659031114E-05,
    -8.408408153678E-04));
#652 = PCURVE('',#627,#653);
#653 = DEFINITIONAL_REPRESENTATION('',(#654),#658);
#654 = LINE('',#655,#656);
#655 = CARTESIAN_POINT('',(4.862001963255E-02,92.76338752734));
#656 = VECTOR('',#657,1.);
#657 = DIRECTION('',(-5.241293386357E-04,-0.999999862644));
#658 = ( GEOMETRIC_REPRESENTATION_CONTEXT(2) 
PARAMETRIC_REPRESENTATION_CONTEXT() REPRESENTATION_CONTEXT('2D SPACE',''
  ) );
#659 = PCURVE('',#383,#660);
#660 = DEFINITIONAL_REPRESENTATION('',(#661),#665);
#661 = LINE('',#662,#663);
#662 = CARTESIAN_POINT('',(-92.7633998646,-8.661003955762E-03));
#663 = VECTOR('',#664,1.);
#664 = DIRECTION('',(0.999999995641,9.336660720341E-05));
#665 = ( GEOMETRIC_REPRESENTATION_CONTEXT(2) 
PARAMETRIC_REPRESENTATION_CONTEXT() REPRESENTATION_CONTEXT('2D SPACE',''
  ) );
#666 = ORIENTED_EDGE('',*,*,#613,.T.);
#667 = ORIENTED_EDGE('',*,*,#668,.F.);
#668 = EDGE_CURVE('',#645,#172,#669,.T.);
#669 = SURFACE_CURVE('',#670,(#674,#681),.PCURVE_S1.);
#670 = LINE('',#671,#672);
#671 = CARTESIAN_POINT('',(46.378733305905,-30.76909075843,
    33.74704574726));
#672 = VECTOR('',#673,1.);
#673 = DIRECTION('',(0.579123663992,-0.580020834279,-0.572880104041));
#674 = PCURVE('',#627,#675);
#675 = DEFINITIONAL_REPRESENTATION('',(#676),#680);
#676 = LINE('',#677,#678);
#677 = CARTESIAN_POINT('',(0.,0.));
#678 = VECTOR('',#679,1.);
#679 = DIRECTION('',(-0.81523961747,-0.579123791695));
#680 = ( GEOMETRIC_REPRESENTATION_CONTEXT(2) 
PARAMETRIC_REPRESENTATION_CONTEXT() REPRESENTATION_CONTEXT('2D SPACE',''
  ) );
#681 = PCURVE('',#682,#687);
#682 = PLANE('',#683);
#683 = AXIS2_PLACEMENT_3D('',#684,#685,#686);
#684 = CARTESIAN_POINT('',(46.381071534272,30.771727649886,
    33.793426537904));
#685 = DIRECTION('',(0.702979100378,-5.627195387702E-04,0.711210283797)
  );
#686 = DIRECTION('',(0.711210396401,3.03863043157E-20,-0.702979211678));
#687 = DEFINITIONAL_REPRESENTATION('',(#688),#692);
#688 = LINE('',#689,#690);
#689 = CARTESIAN_POINT('',(3.094175931964E-02,-61.54082815187));
#690 = VECTOR('',#691,1.);
#691 = DIRECTION('',(0.814601574558,-0.580020926112));
#692 = ( GEOMETRIC_REPRESENTATION_CONTEXT(2) 
PARAMETRIC_REPRESENTATION_CONTEXT() REPRESENTATION_CONTEXT('2D SPACE',''
  ) );
#693 = ADVANCED_FACE('',(#694),#383,.T.);
#694 = FACE_BOUND('',#695,.T.);
#695 = EDGE_LOOP('',(#696,#722,#723));
#696 = ORIENTED_EDGE('',*,*,#697,.F.);
#697 = EDGE_CURVE('',#341,#645,#698,.T.);
#698 = SURFACE_CURVE('',#699,(#703,#710),.PCURVE_S1.);
#699 = LINE('',#700,#701);
#700 = CARTESIAN_POINT('',(-46.38009520485,30.771307903582,
    33.788017050102));
#701 = VECTOR('',#702,1.);
#702 = DIRECTION('',(0.833287123046,-0.552840334181,-3.680604813668E-04)
  );
#703 = PCURVE('',#383,#704);
#704 = DEFINITIONAL_REPRESENTATION('',(#705),#709);
#705 = LINE('',#706,#707);
#706 = CARTESIAN_POINT('',(-92.75883017231,61.540409796166));
#707 = VECTOR('',#708,1.);
#708 = DIRECTION('',(0.833287137972,-0.552840434204));
#709 = ( GEOMETRIC_REPRESENTATION_CONTEXT(2) 
PARAMETRIC_REPRESENTATION_CONTEXT() REPRESENTATION_CONTEXT('2D SPACE',''
  ) );
#710 = PCURVE('',#711,#716);
#711 = PLANE('',#712);
#712 = AXIS2_PLACEMENT_3D('',#713,#714,#715);
#713 = CARTESIAN_POINT('',(46.381071534272,30.771727649886,
    33.793426537904));
#714 = DIRECTION('',(-5.831287058451E-05,-7.536565525652E-04,
    0.999999714301));
#715 = DIRECTION('',(1.934617174079E-24,0.999999716001,
    7.536565538465E-04));
#716 = DEFINITIONAL_REPRESENTATION('',(#717),#721);
#717 = LINE('',#718,#719);
#718 = CARTESIAN_POINT('',(-4.238230808129E-04,92.761166896835));
#719 = VECTOR('',#720,1.);
#720 = DIRECTION('',(-0.552840454566,-0.833287124462));
#721 = ( GEOMETRIC_REPRESENTATION_CONTEXT(2) 
PARAMETRIC_REPRESENTATION_CONTEXT() REPRESENTATION_CONTEXT('2D SPACE',''
  ) );
#722 = ORIENTED_EDGE('',*,*,#369,.F.);
#723 = ORIENTED_EDGE('',*,*,#644,.T.);
#724 = ADVANCED_FACE('',(#725),#711,.T.);
#725 = FACE_BOUND('',#726,.T.);
#726 = EDGE_LOOP('',(#727,#755,#756));
#727 = ORIENTED_EDGE('',*,*,#728,.F.);
#728 = EDGE_CURVE('',#341,#729,#731,.T.);
#729 = VERTEX_POINT('',#730);
#730 = CARTESIAN_POINT('',(46.381071534272,30.771727649886,
    33.793426537904));
#731 = SURFACE_CURVE('',#732,(#736,#743),.PCURVE_S1.);
#732 = LINE('',#733,#734);
#733 = CARTESIAN_POINT('',(-46.38009520485,30.771307903582,
    33.788017050102));
#734 = VECTOR('',#735,1.);
#735 = DIRECTION('',(0.999999998289,4.525021818111E-06,
    5.831629745802E-05));
#736 = PCURVE('',#711,#737);
#737 = DEFINITIONAL_REPRESENTATION('',(#738),#742);
#738 = LINE('',#739,#740);
#739 = CARTESIAN_POINT('',(-4.238230808129E-04,92.761166896835));
#740 = VECTOR('',#741,1.);
#741 = DIRECTION('',(4.568970992784E-06,-0.99999999999));
#742 = ( GEOMETRIC_REPRESENTATION_CONTEXT(2) 
PARAMETRIC_REPRESENTATION_CONTEXT() REPRESENTATION_CONTEXT('2D SPACE',''
  ) );
#743 = PCURVE('',#744,#749);
#744 = PLANE('',#745);
#745 = AXIS2_PLACEMENT_3D('',#746,#747,#748);
#746 = CARTESIAN_POINT('',(46.381071534272,30.771727649886,
    33.793426537904));
#747 = DIRECTION('',(-4.446643154874E-05,0.706531672858,0.707681420747)
  );
#748 = DIRECTION('',(1.107723006088E-21,0.707681421447,-0.706531673557)
  );
#749 = DEFINITIONAL_REPRESENTATION('',(#750),#754);
#750 = LINE('',#751,#752);
#751 = CARTESIAN_POINT('',(3.524927808262E-03,92.761166830829));
#752 = VECTOR('',#753,1.);
#753 = DIRECTION('',(-3.800003736634E-05,-0.999999999278));
#754 = ( GEOMETRIC_REPRESENTATION_CONTEXT(2) 
PARAMETRIC_REPRESENTATION_CONTEXT() REPRESENTATION_CONTEXT('2D SPACE',''
  ) );
#755 = ORIENTED_EDGE('',*,*,#697,.T.);
#756 = ORIENTED_EDGE('',*,*,#757,.T.);
#757 = EDGE_CURVE('',#645,#729,#758,.T.);
#758 = SURFACE_CURVE('',#759,(#763,#770),.PCURVE_S1.);
#759 = LINE('',#760,#761);
#760 = CARTESIAN_POINT('',(46.378733305905,-30.76909075843,
    33.74704574726));
#761 = VECTOR('',#762,1.);
#762 = DIRECTION('',(3.799474498195E-05,0.999999715277,
    7.536587688846E-04));
#763 = PCURVE('',#711,#764);
#764 = DEFINITIONAL_REPRESENTATION('',(#765),#769);
#765 = LINE('',#766,#767);
#766 = CARTESIAN_POINT('',(-61.54083588597,2.338228371126E-03));
#767 = VECTOR('',#768,1.);
#768 = DIRECTION('',(0.999999999278,-3.799474504654E-05));
#769 = ( GEOMETRIC_REPRESENTATION_CONTEXT(2) 
PARAMETRIC_REPRESENTATION_CONTEXT() REPRESENTATION_CONTEXT('2D SPACE',''
  ) );
#770 = PCURVE('',#682,#771);
#771 = DEFINITIONAL_REPRESENTATION('',(#772),#776);
#772 = LINE('',#773,#774);
#773 = CARTESIAN_POINT('',(3.094175931964E-02,-61.54082815187));
#774 = VECTOR('',#775,1.);
#775 = DIRECTION('',(-5.027841895849E-04,0.999999873604));
#776 = ( GEOMETRIC_REPRESENTATION_CONTEXT(2) 
PARAMETRIC_REPRESENTATION_CONTEXT() REPRESENTATION_CONTEXT('2D SPACE',''
  ) );
#777 = ADVANCED_FACE('',(#778),#356,.T.);
#778 = FACE_BOUND('',#779,.T.);
#779 = EDGE_LOOP('',(#780,#781,#782));
#780 = ORIENTED_EDGE('',*,*,#532,.F.);
#781 = ORIENTED_EDGE('',*,*,#340,.T.);
#782 = ORIENTED_EDGE('',*,*,#783,.T.);
#783 = EDGE_CURVE('',#341,#478,#784,.T.);
#784 = SURFACE_CURVE('',#785,(#789,#796),.PCURVE_S1.);
#785 = LINE('',#786,#787);
#786 = CARTESIAN_POINT('',(-46.38009520485,30.771307903582,
    33.788017050102));
#787 = VECTOR('',#788,1.);
#788 = DIRECTION('',(0.995412100048,6.774255191222E-02,
    -6.756994701337E-02));
#789 = PCURVE('',#356,#790);
#790 = DEFINITIONAL_REPRESENTATION('',(#791),#795);
#791 = LINE('',#792,#793);
#792 = CARTESIAN_POINT('',(-9.566285696174,99.52293250518));
#793 = VECTOR('',#794,1.);
#794 = DIRECTION('',(9.568042590065E-02,-0.995412103653));
#795 = ( GEOMETRIC_REPRESENTATION_CONTEXT(2) 
PARAMETRIC_REPRESENTATION_CONTEXT() REPRESENTATION_CONTEXT('2D SPACE',''
  ) );
#796 = PCURVE('',#744,#797);
#797 = DEFINITIONAL_REPRESENTATION('',(#798),#802);
#798 = LINE('',#799,#800);
#799 = CARTESIAN_POINT('',(3.524927808262E-03,92.761166830829));
#800 = VECTOR('',#801,1.);
#801 = DIRECTION('',(9.568045317518E-02,-0.995412101032));
#802 = ( GEOMETRIC_REPRESENTATION_CONTEXT(2) 
PARAMETRIC_REPRESENTATION_CONTEXT() REPRESENTATION_CONTEXT('2D SPACE',''
  ) );
#803 = ADVANCED_FACE('',(#804),#744,.T.);
#804 = FACE_BOUND('',#805,.T.);
#805 = EDGE_LOOP('',(#806,#827,#828));
#806 = ORIENTED_EDGE('',*,*,#807,.T.);
#807 = EDGE_CURVE('',#729,#478,#808,.T.);
#808 = SURFACE_CURVE('',#809,(#813,#820),.PCURVE_S1.);
#809 = LINE('',#810,#811);
#810 = CARTESIAN_POINT('',(46.381071534272,30.771727649886,
    33.793426537904));
#811 = VECTOR('',#812,1.);
#812 = DIRECTION('',(0.5770592457,0.577983165105,-0.577007874997));
#813 = PCURVE('',#744,#814);
#814 = DEFINITIONAL_REPRESENTATION('',(#815),#819);
#815 = LINE('',#816,#817);
#816 = CARTESIAN_POINT('',(0.,-0.));
#817 = VECTOR('',#818,1.);
#818 = DIRECTION('',(0.81670228743,-0.57705924627));
#819 = ( GEOMETRIC_REPRESENTATION_CONTEXT(2) 
PARAMETRIC_REPRESENTATION_CONTEXT() REPRESENTATION_CONTEXT('2D SPACE',''
  ) );
#820 = PCURVE('',#598,#821);
#821 = DEFINITIONAL_REPRESENTATION('',(#822),#826);
#822 = LINE('',#823,#824);
#823 = CARTESIAN_POINT('',(0.,0.));
#824 = VECTOR('',#825,1.);
#825 = DIRECTION('',(0.81604867753,0.577983179601));
#826 = ( GEOMETRIC_REPRESENTATION_CONTEXT(2) 
PARAMETRIC_REPRESENTATION_CONTEXT() REPRESENTATION_CONTEXT('2D SPACE',''
  ) );
#827 = ORIENTED_EDGE('',*,*,#783,.F.);
#828 = ORIENTED_EDGE('',*,*,#728,.T.);
#829 = ADVANCED_FACE('',(#830),#682,.T.);
#830 = FACE_BOUND('',#831,.T.);
#831 = EDGE_LOOP('',(#832,#833,#834));
#832 = ORIENTED_EDGE('',*,*,#757,.F.);
#833 = ORIENTED_EDGE('',*,*,#668,.T.);
#834 = ORIENTED_EDGE('',*,*,#835,.F.);
#835 = EDGE_CURVE('',#729,#172,#836,.T.);
#836 = SURFACE_CURVE('',#837,(#841,#848),.PCURVE_S1.);
#837 = LINE('',#838,#839);
#838 = CARTESIAN_POINT('',(46.381071534272,30.771727649886,
    33.793426537904));
#839 = VECTOR('',#840,1.);
#840 = DIRECTION('',(9.824983381881E-02,-0.990334934828,
    -9.789630745523E-02));
#841 = PCURVE('',#682,#842);
#842 = DEFINITIONAL_REPRESENTATION('',(#843),#847);
#843 = LINE('',#844,#845);
#844 = CARTESIAN_POINT('',(0.,0.));
#845 = VECTOR('',#846,1.);
#846 = DIRECTION('',(0.138695372298,-0.990335091625));
#847 = ( GEOMETRIC_REPRESENTATION_CONTEXT(2) 
PARAMETRIC_REPRESENTATION_CONTEXT() REPRESENTATION_CONTEXT('2D SPACE',''
  ) );
#848 = PCURVE('',#598,#849);
#849 = DEFINITIONAL_REPRESENTATION('',(#850),#854);
#850 = LINE('',#851,#852);
#851 = CARTESIAN_POINT('',(0.,0.));
#852 = VECTOR('',#853,1.);
#853 = DIRECTION('',(0.138696314519,-0.990334959667));
#854 = ( GEOMETRIC_REPRESENTATION_CONTEXT(2) 
PARAMETRIC_REPRESENTATION_CONTEXT() REPRESENTATION_CONTEXT('2D SPACE',''
  ) );
#855 = ADVANCED_FACE('',(#856),#598,.T.);
#856 = FACE_BOUND('',#857,.T.);
#857 = EDGE_LOOP('',(#858,#859,#860));
#858 = ORIENTED_EDGE('',*,*,#835,.T.);
#859 = ORIENTED_EDGE('',*,*,#584,.F.);
#860 = ORIENTED_EDGE('',*,*,#807,.F.);
#861 = ( GEOMETRIC_REPRESENTATION_CONTEXT(3) 
GLOBAL_UNCERTAINTY_ASSIGNED_CONTEXT((#865)) GLOBAL_UNIT_ASSIGNED_CONTEXT
((#862,#863,#864)) REPRESENTATION_CONTEXT('Context #1',
  '3D Context with UNIT and UNCERTAINTY') );
#862 = ( LENGTH_UNIT() NAMED_UNIT(*) SI_UNIT(.MILLI.,.METRE.) );
#863 = ( NAMED_UNIT(*) PLANE_ANGLE_UNIT() SI_UNIT($,.RADIAN.) );
#864 = ( NAMED_UNIT(*) SI_UNIT($,.STERADIAN.) SOLID_ANGLE_UNIT() );
#865 = UNCERTAINTY_MEASURE_WITH_UNIT(LENGTH_MEASURE(1.E-07),#862,
  'distance_accuracy_value','confusion accuracy');
#866 = PRODUCT_TYPE('part',$,(#7));
ENDSEC;
END-ISO-10303-21;
