ISO-10303-21;
HEADER;
FILE_DESCRIPTION(('Open CASCADE Model'),'2;1');
FILE_NAME('Open CASCADE Shape Model','2026-10-04T20:52:10',('Author'),(
    'Open CASCADE'),'Open CASCADE STEP processor 7.8','Open CASCADE 7.8'
  ,'Unknown');
FILE_SCHEMA(('AUTOMOTIVE_DESIGN_CC2 { 1 2 10303 214 -1 1 5 4 }'));
ENDSEC;
DATA;
#1 = APPLICATION_PROTOCOL_DEFINITION('committee draft',
  'automotive_design',1997,#2);
#2 = APPLICATION_CONTEXT(
  'core data for automotive mechanical design processes');
#3 = SHAPE_DEFINITION_REPRESENTATION(#4,#10);
#4 = PRODUCT_DEFINITION_SHAPE('','',#5);
#5 = PRODUCT_DEFINITION('design','',#6,#9);
#6 = PRODUCT_DEFINITION_FORMATION('','',#7);
#7 = PRODUCT('Open CASCADE STEP translator 7.8 127',
  'Open CASCADE STEP translator 7.8 127','',(#8));
#8 = MECHANICAL_CONTEXT('',#2,'mechanical');
#9 = PRODUCT_DEFINITION_CONTEXT('part definition',#2,'design');
#10 = ADVANCED_BREP_SHAPE_REPRESENTATION('',(#11,#15),#1697);
#11 = AXIS2_PLACEMENT_3D('',#12,#13,#14);
#12 = CARTESIAN_POINT('',(0.,0.,0.));
#13 = DIRECTION('',(0.,0.,1.));
#14 = DIRECTION('',(1.,0.,-0.));
#15 = MANIFOLD_SOLID_BREP('',#16);
#16 = CLOSED_SHELL('',(#17,#109,#167,#225,#283,#341,#399,#457,#515,#573,
    #631,#684,#737,#790,#843,#869,#900,#951,#997,#1003,#1034,#1092,#1143
    ,#1194,#1200,#1226,#1232,#1258,#1289,#1342,#1395,#1426,#1484,#1510,
    #1541,#1587,#1613,#1639,#1665,#1691));
#17 = ADVANCED_FACE('',(#18),#32,.T.);
#18 = FACE_BOUND('',#19,.T.);
#19 = EDGE_LOOP('',(#20,#55,#83));
#20 = ORIENTED_EDGE('',*,*,#21,.T.);
#21 = EDGE_CURVE('',#22,#24,#26,.T.);
#22 = VERTEX_POINT('',#23);
#23 = CARTESIAN_POINT('',(8.840182927215,-16.11762617533,17.207561570097
    ));
#24 = VERTEX_POINT('',#25);
#25 = CARTESIAN_POINT('',(8.852081609597,-16.2048862485,11.742955976389)
  );
#26 = SURFACE_CURVE('',#27,(#31,#43),.PCURVE_S1.);
#27 = LINE('',#28,#29);
#28 = CARTESIAN_POINT('',(8.840182927215,-16.11762617533,17.207561570097
    ));
#29 = VECTOR('',#30,1.);
#30 = DIRECTION('',(2.177126470273E-03,-1.59661556642E-02,
    -0.999870162568));
#31 = PCURVE('',#32,#37);
#32 = PLANE('',#33);
#33 = AXIS2_PLACEMENT_3D('',#34,#35,#36);
#34 = CARTESIAN_POINT('',(8.840182927215,-16.11762617533,17.207561570097
    ));
#35 = DIRECTION('',(0.724437121315,0.689276395084,-9.429127240379E-03));
#36 = DIRECTION('',(-0.689307038372,0.72446932775,-9.167331422279E-19));
#37 = DEFINITIONAL_REPRESENTATION('',(#38),#42);
#38 = LINE('',#39,#40);
#39 = CARTESIAN_POINT('',(0.,0.));
#40 = VECTOR('',#41,1.);
#41 = DIRECTION('',(-1.306769866017E-02,-0.99991461398));
#42 = ( GEOMETRIC_REPRESENTATION_CONTEXT(2) 
PARAMETRIC_REPRESENTATION_CONTEXT() REPRESENTATION_CONTEXT('2D SPACE',''
  ) );
#43 = PCURVE('',#44,#49);
#44 = PLANE('',#45);
#45 = AXIS2_PLACEMENT_3D('',#46,#47,#48);
#46 = CARTESIAN_POINT('',(12.27635626005,-11.12867063628,17.192930839869
    ));
#47 = DIRECTION('',(-0.823525092919,0.56717607491,-1.08499485092E-02));
#48 = DIRECTION('',(-0.567209462234,-0.823573570455,-5.071669281201E-19)
  );
#49 = DEFINITIONAL_REPRESENTATION('',(#50),#54);
#50 = LINE('',#51,#52);
#51 = CARTESIAN_POINT('',(6.057801954396,1.463159147812E-02));
#52 = VECTOR('',#53,1.);
#53 = DIRECTION('',(1.191441709239E-02,-0.999929020814));
#54 = ( GEOMETRIC_REPRESENTATION_CONTEXT(2) 
PARAMETRIC_REPRESENTATION_CONTEXT() REPRESENTATION_CONTEXT('2D SPACE',''
  ) );
#55 = ORIENTED_EDGE('',*,*,#56,.F.);
#56 = EDGE_CURVE('',#57,#24,#59,.T.);
#57 = VERTEX_POINT('',#58);
#58 = CARTESIAN_POINT('',(1.828381801114,-8.822317670249,11.785524693351
    ));
#59 = SURFACE_CURVE('',#60,(#64,#71),.PCURVE_S1.);
#60 = LINE('',#61,#62);
#61 = CARTESIAN_POINT('',(1.828381801114,-8.822317670249,11.785524693351
    ));
#62 = VECTOR('',#63,1.);
#63 = DIRECTION('',(0.689272484927,-0.724490158724,-4.177491367937E-03)
  );
#64 = PCURVE('',#32,#65);
#65 = DEFINITIONAL_REPRESENTATION('',(#66),#70);
#66 = LINE('',#67,#68);
#67 = CARTESIAN_POINT('',(10.118511116293,-5.42227792524));
#68 = VECTOR('',#69,1.);
#69 = DIRECTION('',(-0.999991273469,-4.177677087443E-03));
#70 = ( GEOMETRIC_REPRESENTATION_CONTEXT(2) 
PARAMETRIC_REPRESENTATION_CONTEXT() REPRESENTATION_CONTEXT('2D SPACE',''
  ) );
#71 = PCURVE('',#72,#77);
#72 = PLANE('',#73);
#73 = AXIS2_PLACEMENT_3D('',#74,#75,#76);
#74 = CARTESIAN_POINT('',(3.877405194223,-10.66112910607,11.739592631335
    ));
#75 = DIRECTION('',(0.116462469513,0.105106480168,0.98761790234));
#76 = DIRECTION('',(0.993118813761,-1.190688410475E-18,-0.117111151282)
  );
#77 = DEFINITIONAL_REPRESENTATION('',(#78),#82);
#78 = LINE('',#79,#80);
#79 = CARTESIAN_POINT('',(-2.040302838196,1.849053391549));
#80 = VECTOR('',#81,1.);
#81 = DIRECTION('',(0.685018703412,-0.728525480663));
#82 = ( GEOMETRIC_REPRESENTATION_CONTEXT(2) 
PARAMETRIC_REPRESENTATION_CONTEXT() REPRESENTATION_CONTEXT('2D SPACE',''
  ) );
#83 = ORIENTED_EDGE('',*,*,#84,.T.);
#84 = EDGE_CURVE('',#57,#22,#85,.T.);
#85 = SURFACE_CURVE('',#86,(#90,#97),.PCURVE_S1.);
#86 = LINE('',#87,#88);
#87 = CARTESIAN_POINT('',(1.828381801114,-8.822317670249,11.785524693351
    ));
#88 = VECTOR('',#89,1.);
#89 = DIRECTION('',(0.610795737681,-0.63549197415,0.472311885963));
#90 = PCURVE('',#32,#91);
#91 = DEFINITIONAL_REPRESENTATION('',(#92),#96);
#92 = LINE('',#93,#94);
#93 = CARTESIAN_POINT('',(10.118511116293,-5.42227792524));
#94 = VECTOR('',#95,1.);
#95 = DIRECTION('',(-0.881420244294,0.47233288362));
#96 = ( GEOMETRIC_REPRESENTATION_CONTEXT(2) 
PARAMETRIC_REPRESENTATION_CONTEXT() REPRESENTATION_CONTEXT('2D SPACE',''
  ) );
#97 = PCURVE('',#98,#103);
#98 = PLANE('',#99);
#99 = AXIS2_PLACEMENT_3D('',#100,#101,#102);
#100 = CARTESIAN_POINT('',(8.840182927215,-16.11762617533,
    17.207561570097));
#101 = DIRECTION('',(0.292353611015,0.735369105033,0.611360487348));
#102 = DIRECTION('',(-2.312766735611E-17,-0.639290923971,0.768964963135)
  );
#103 = DEFINITIONAL_REPRESENTATION('',(#104),#108);
#104 = LINE('',#105,#106);
#105 = CARTESIAN_POINT('',(-8.833180901906,-7.332140223925));
#106 = VECTOR('',#107,1.);
#107 = DIRECTION('',(0.769455543308,0.638700373315));
#108 = ( GEOMETRIC_REPRESENTATION_CONTEXT(2) 
PARAMETRIC_REPRESENTATION_CONTEXT() REPRESENTATION_CONTEXT('2D SPACE',''
  ) );
#109 = ADVANCED_FACE('',(#110),#98,.T.);
#110 = FACE_BOUND('',#111,.T.);
#111 = EDGE_LOOP('',(#112,#113,#141));
#112 = ORIENTED_EDGE('',*,*,#84,.F.);
#113 = ORIENTED_EDGE('',*,*,#114,.T.);
#114 = EDGE_CURVE('',#57,#115,#117,.T.);
#115 = VERTEX_POINT('',#116);
#116 = CARTESIAN_POINT('',(1.859900892152,-13.35275771341,17.2198486129)
  );
#117 = SURFACE_CURVE('',#118,(#122,#129),.PCURVE_S1.);
#118 = LINE('',#119,#120);
#119 = CARTESIAN_POINT('',(1.828381801114,-8.822317670249,
    11.785524693351));
#120 = VECTOR('',#121,1.);
#121 = DIRECTION('',(4.454900332228E-03,-0.640331246517,0.768085964328)
  );
#122 = PCURVE('',#98,#123);
#123 = DEFINITIONAL_REPRESENTATION('',(#124),#128);
#124 = LINE('',#125,#126);
#125 = CARTESIAN_POINT('',(-8.833180901906,-7.332140223925));
#126 = VECTOR('',#127,1.);
#127 = DIRECTION('',(0.999989149477,4.658425607354E-03));
#128 = ( GEOMETRIC_REPRESENTATION_CONTEXT(2) 
PARAMETRIC_REPRESENTATION_CONTEXT() REPRESENTATION_CONTEXT('2D SPACE',''
  ) );
#129 = PCURVE('',#130,#135);
#130 = PLANE('',#131);
#131 = AXIS2_PLACEMENT_3D('',#132,#133,#134);
#132 = CARTESIAN_POINT('',(1.859900892152,-13.35275771341,17.2198486129)
  );
#133 = DIRECTION('',(0.160151569074,-0.757722310814,-0.632620245184));
#134 = DIRECTION('',(3.256844872206E-18,0.640892608285,-0.767630552184)
  );
#135 = DEFINITIONAL_REPRESENTATION('',(#136),#140);
#136 = LINE('',#137,#138);
#137 = CARTESIAN_POINT('',(7.075078607048,-3.193124567204E-02));
#138 = VECTOR('',#139,1.);
#139 = DIRECTION('',(-0.999989815668,4.513154163661E-03));
#140 = ( GEOMETRIC_REPRESENTATION_CONTEXT(2) 
PARAMETRIC_REPRESENTATION_CONTEXT() REPRESENTATION_CONTEXT('2D SPACE',''
  ) );
#141 = ORIENTED_EDGE('',*,*,#142,.T.);
#142 = EDGE_CURVE('',#115,#22,#143,.T.);
#143 = SURFACE_CURVE('',#144,(#148,#155),.PCURVE_S1.);
#144 = LINE('',#145,#146);
#145 = CARTESIAN_POINT('',(1.859900892152,-13.35275771341,17.2198486129)
  );
#146 = VECTOR('',#147,1.);
#147 = DIRECTION('',(0.929721468845,-0.368259843179,-1.636542395454E-03)
  );
#148 = PCURVE('',#98,#149);
#149 = DEFINITIONAL_REPRESENTATION('',(#150),#154);
#150 = LINE('',#151,#152);
#151 = CARTESIAN_POINT('',(-1.758107008262,-7.299181160902));
#152 = VECTOR('',#153,1.);
#153 = DIRECTION('',(0.234166731644,0.972196452262));
#154 = ( GEOMETRIC_REPRESENTATION_CONTEXT(2) 
PARAMETRIC_REPRESENTATION_CONTEXT() REPRESENTATION_CONTEXT('2D SPACE',''
  ) );
#155 = PCURVE('',#156,#161);
#156 = PLANE('',#157);
#157 = AXIS2_PLACEMENT_3D('',#158,#159,#160);
#158 = CARTESIAN_POINT('',(23.428370422148,-23.27373476908,
    17.245588795354));
#159 = DIRECTION('',(2.004971560049E-02,4.617984892628E-02,
    0.998731911204));
#160 = DIRECTION('',(9.766969082069E-20,0.998932712414,
    -4.618913366969E-02));
#161 = DEFINITIONAL_REPRESENTATION('',(#162),#166);
#162 = LINE('',#163,#164);
#163 = CARTESIAN_POINT('',(9.91157743675,21.572806003807));
#164 = VECTOR('',#165,1.);
#165 = DIRECTION('',(-0.367791213545,-0.929908395079));
#166 = ( GEOMETRIC_REPRESENTATION_CONTEXT(2) 
PARAMETRIC_REPRESENTATION_CONTEXT() REPRESENTATION_CONTEXT('2D SPACE',''
  ) );
#167 = ADVANCED_FACE('',(#168),#130,.T.);
#168 = FACE_BOUND('',#169,.T.);
#169 = EDGE_LOOP('',(#170,#171,#199));
#170 = ORIENTED_EDGE('',*,*,#114,.F.);
#171 = ORIENTED_EDGE('',*,*,#172,.T.);
#172 = EDGE_CURVE('',#57,#173,#175,.T.);
#173 = VERTEX_POINT('',#174);
#174 = CARTESIAN_POINT('',(12.27635626005,-11.12867063628,
    17.192930839869));
#175 = SURFACE_CURVE('',#176,(#180,#187),.PCURVE_S1.);
#176 = LINE('',#177,#178);
#177 = CARTESIAN_POINT('',(1.828381801114,-8.822317670249,
    11.785524693351));
#178 = VECTOR('',#179,1.);
#179 = DIRECTION('',(0.871513844291,-0.192383561773,0.451056741851));
#180 = PCURVE('',#130,#181);
#181 = DEFINITIONAL_REPRESENTATION('',(#182),#186);
#182 = LINE('',#183,#184);
#183 = CARTESIAN_POINT('',(7.075078607048,-3.193124567204E-02));
#184 = VECTOR('',#185,1.);
#185 = DIRECTION('',(-0.469542138509,0.882910063463));
#186 = ( GEOMETRIC_REPRESENTATION_CONTEXT(2) 
PARAMETRIC_REPRESENTATION_CONTEXT() REPRESENTATION_CONTEXT('2D SPACE',''
  ) );
#187 = PCURVE('',#188,#193);
#188 = PLANE('',#189);
#189 = AXIS2_PLACEMENT_3D('',#190,#191,#192);
#190 = CARTESIAN_POINT('',(12.27635626005,-11.12867063628,
    17.192930839869));
#191 = DIRECTION('',(-0.212292830478,-0.977183793023,-6.602180007649E-03
    ));
#192 = DIRECTION('',(-0.977205090844,0.212297457422,-1.193786695033E-19)
  );
#193 = DEFINITIONAL_REPRESENTATION('',(#194),#198);
#194 = LINE('',#195,#196);
#195 = CARTESIAN_POINT('',(10.699446700891,5.407524001492));
#196 = VECTOR('',#197,1.);
#197 = DIRECTION('',(-0.892490306396,-0.451066572679));
#198 = ( GEOMETRIC_REPRESENTATION_CONTEXT(2) 
PARAMETRIC_REPRESENTATION_CONTEXT() REPRESENTATION_CONTEXT('2D SPACE',''
  ) );
#199 = ORIENTED_EDGE('',*,*,#200,.F.);
#200 = EDGE_CURVE('',#115,#173,#201,.T.);
#201 = SURFACE_CURVE('',#202,(#206,#213),.PCURVE_S1.);
#202 = LINE('',#203,#204);
#203 = CARTESIAN_POINT('',(1.859900892152,-13.35275771341,17.2198486129)
  );
#204 = VECTOR('',#205,1.);
#205 = DIRECTION('',(0.977953109701,0.20880931147,-2.527185967914E-03));
#206 = PCURVE('',#130,#207);
#207 = DEFINITIONAL_REPRESENTATION('',(#208),#212);
#208 = LINE('',#209,#210);
#209 = CARTESIAN_POINT('',(0.,0.));
#210 = VECTOR('',#211,1.);
#211 = DIRECTION('',(0.135764289422,0.990741165854));
#212 = ( GEOMETRIC_REPRESENTATION_CONTEXT(2) 
PARAMETRIC_REPRESENTATION_CONTEXT() REPRESENTATION_CONTEXT('2D SPACE',''
  ) );
#213 = PCURVE('',#214,#219);
#214 = PLANE('',#215);
#215 = AXIS2_PLACEMENT_3D('',#216,#217,#218);
#216 = CARTESIAN_POINT('',(-23.43113301079,23.27556601371,
    17.210057080196));
#217 = DIRECTION('',(2.202377708903E-03,1.788012552684E-03,
    0.999995976264));
#218 = DIRECTION('',(0.999997574756,1.605620479735E-22,-2.2023812294E-03
    ));
#219 = DEFINITIONAL_REPRESENTATION('',(#220),#224);
#220 = LINE('',#221,#222);
#221 = CARTESIAN_POINT('',(25.290951001316,-36.62838227743));
#222 = VECTOR('',#223,1.);
#223 = DIRECTION('',(0.977956303753,0.208809645251));
#224 = ( GEOMETRIC_REPRESENTATION_CONTEXT(2) 
PARAMETRIC_REPRESENTATION_CONTEXT() REPRESENTATION_CONTEXT('2D SPACE',''
  ) );
#225 = ADVANCED_FACE('',(#226),#188,.T.);
#226 = FACE_BOUND('',#227,.T.);
#227 = EDGE_LOOP('',(#228,#229,#257));
#228 = ORIENTED_EDGE('',*,*,#172,.F.);
#229 = ORIENTED_EDGE('',*,*,#230,.T.);
#230 = EDGE_CURVE('',#57,#231,#233,.T.);
#231 = VERTEX_POINT('',#232);
#232 = CARTESIAN_POINT('',(12.276893963557,-11.0922603286,11.78657822247
    ));
#233 = SURFACE_CURVE('',#234,(#238,#245),.PCURVE_S1.);
#234 = LINE('',#235,#236);
#235 = CARTESIAN_POINT('',(1.828381801114,-8.822317670249,
    11.785524693351));
#236 = VECTOR('',#237,1.);
#237 = DIRECTION('',(0.977204947992,-0.212298092103,9.853210218134E-05)
  );
#238 = PCURVE('',#188,#239);
#239 = DEFINITIONAL_REPRESENTATION('',(#240),#244);
#240 = LINE('',#241,#242);
#241 = CARTESIAN_POINT('',(10.699446700891,5.407524001492));
#242 = VECTOR('',#243,1.);
#243 = DIRECTION('',(-0.999999995146,-9.853424969865E-05));
#244 = ( GEOMETRIC_REPRESENTATION_CONTEXT(2) 
PARAMETRIC_REPRESENTATION_CONTEXT() REPRESENTATION_CONTEXT('2D SPACE',''
  ) );
#245 = PCURVE('',#246,#251);
#246 = PLANE('',#247);
#247 = AXIS2_PLACEMENT_3D('',#248,#249,#250);
#248 = CARTESIAN_POINT('',(1.828381801114,-8.822317670249,
    11.785524693351));
#249 = DIRECTION('',(-1.612794679347E-02,-7.377390207035E-02,
    0.997144573623));
#250 = DIRECTION('',(-2.25298978349E-19,0.997274282898,
    7.378349863198E-02));
#251 = DEFINITIONAL_REPRESENTATION('',(#252),#256);
#252 = LINE('',#253,#254);
#253 = CARTESIAN_POINT('',(0.,0.));
#254 = VECTOR('',#255,1.);
#255 = DIRECTION('',(-0.211712157519,-0.977332063507));
#256 = ( GEOMETRIC_REPRESENTATION_CONTEXT(2) 
PARAMETRIC_REPRESENTATION_CONTEXT() REPRESENTATION_CONTEXT('2D SPACE',''
  ) );
#257 = ORIENTED_EDGE('',*,*,#258,.F.);
#258 = EDGE_CURVE('',#173,#231,#259,.T.);
#259 = SURFACE_CURVE('',#260,(#264,#271),.PCURVE_S1.);
#260 = LINE('',#261,#262);
#261 = CARTESIAN_POINT('',(12.27635626005,-11.12867063628,
    17.192930839869));
#262 = VECTOR('',#263,1.);
#263 = DIRECTION('',(9.945546439546E-05,6.734574006443E-03,
    -0.999977317554));
#264 = PCURVE('',#188,#265);
#265 = DEFINITIONAL_REPRESENTATION('',(#266),#270);
#266 = LINE('',#267,#268);
#267 = CARTESIAN_POINT('',(0.,0.));
#268 = VECTOR('',#269,1.);
#269 = DIRECTION('',(1.332544552266E-03,0.999999112162));
#270 = ( GEOMETRIC_REPRESENTATION_CONTEXT(2) 
PARAMETRIC_REPRESENTATION_CONTEXT() REPRESENTATION_CONTEXT('2D SPACE',''
  ) );
#271 = PCURVE('',#272,#277);
#272 = PLANE('',#273);
#273 = AXIS2_PLACEMENT_3D('',#274,#275,#276);
#274 = CARTESIAN_POINT('',(12.27635626005,-11.12867063628,
    17.192930839869));
#275 = DIRECTION('',(-0.830827473699,0.55651799077,3.665364401961E-03));
#276 = DIRECTION('',(-0.556521729189,-0.830833054796,-2.382090696047E-19
    ));
#277 = DEFINITIONAL_REPRESENTATION('',(#278),#282);
#278 = LINE('',#279,#280);
#279 = CARTESIAN_POINT('',(-0.,0.));
#280 = VECTOR('',#281,1.);
#281 = DIRECTION('',(-5.650655821543E-03,-0.999984034917));
#282 = ( GEOMETRIC_REPRESENTATION_CONTEXT(2) 
PARAMETRIC_REPRESENTATION_CONTEXT() REPRESENTATION_CONTEXT('2D SPACE',''
  ) );
#283 = ADVANCED_FACE('',(#284),#214,.T.);
#284 = FACE_BOUND('',#285,.T.);
#285 = EDGE_LOOP('',(#286,#314,#315));
#286 = ORIENTED_EDGE('',*,*,#287,.T.);
#287 = EDGE_CURVE('',#288,#115,#290,.T.);
#288 = VERTEX_POINT('',#289);
#289 = CARTESIAN_POINT('',(-23.43113301079,23.27556601371,
    17.210057080196));
#290 = SURFACE_CURVE('',#291,(#295,#302),.PCURVE_S1.);
#291 = LINE('',#292,#293);
#292 = CARTESIAN_POINT('',(-23.43113301079,23.27556601371,
    17.210057080196));
#293 = VECTOR('',#294,1.);
#294 = DIRECTION('',(0.568191440751,-0.822896371524,2.199777634745E-04)
  );
#295 = PCURVE('',#214,#296);
#296 = DEFINITIONAL_REPRESENTATION('',(#297),#301);
#297 = LINE('',#298,#299);
#298 = CARTESIAN_POINT('',(0.,0.));
#299 = VECTOR('',#300,1.);
#300 = DIRECTION('',(0.568189578273,-0.822897686922));
#301 = ( GEOMETRIC_REPRESENTATION_CONTEXT(2) 
PARAMETRIC_REPRESENTATION_CONTEXT() REPRESENTATION_CONTEXT('2D SPACE',''
  ) );
#302 = PCURVE('',#303,#308);
#303 = PLANE('',#304);
#304 = AXIS2_PLACEMENT_3D('',#305,#306,#307);
#305 = CARTESIAN_POINT('',(-23.43113301079,23.27556601371,
    17.210057080196));
#306 = DIRECTION('',(-3.73294675957E-04,9.56974493182E-06,0.99999993028)
  );
#307 = DIRECTION('',(0.999999930326,-5.496618377841E-25,
    3.732946759741E-04));
#308 = DEFINITIONAL_REPRESENTATION('',(#309),#313);
#309 = LINE('',#310,#311);
#310 = CARTESIAN_POINT('',(0.,0.));
#311 = VECTOR('',#312,1.);
#312 = DIRECTION('',(0.568191483279,-0.822896371561));
#313 = ( GEOMETRIC_REPRESENTATION_CONTEXT(2) 
PARAMETRIC_REPRESENTATION_CONTEXT() REPRESENTATION_CONTEXT('2D SPACE',''
  ) );
#314 = ORIENTED_EDGE('',*,*,#200,.T.);
#315 = ORIENTED_EDGE('',*,*,#316,.F.);
#316 = EDGE_CURVE('',#288,#173,#317,.T.);
#317 = SURFACE_CURVE('',#318,(#322,#329),.PCURVE_S1.);
#318 = LINE('',#319,#320);
#319 = CARTESIAN_POINT('',(-23.43113301079,23.27556601371,
    17.210057080196));
#320 = VECTOR('',#321,1.);
#321 = DIRECTION('',(0.72012619999,-0.693843020281,-3.453912503651E-04)
  );
#322 = PCURVE('',#214,#323);
#323 = DEFINITIONAL_REPRESENTATION('',(#324),#328);
#324 = LINE('',#325,#326);
#325 = CARTESIAN_POINT('',(0.,0.));
#326 = VECTOR('',#327,1.);
#327 = DIRECTION('',(0.720125214191,-0.693844129388));
#328 = ( GEOMETRIC_REPRESENTATION_CONTEXT(2) 
PARAMETRIC_REPRESENTATION_CONTEXT() REPRESENTATION_CONTEXT('2D SPACE',''
  ) );
#329 = PCURVE('',#330,#335);
#330 = PLANE('',#331);
#331 = AXIS2_PLACEMENT_3D('',#332,#333,#334);
#332 = CARTESIAN_POINT('',(23.390284622607,23.290749494325,
    17.229217750362));
#333 = DIRECTION('',(-4.089294806125E-04,-9.222142312405E-04,
    0.999999491149));
#334 = DIRECTION('',(-8.64706256733E-25,0.99999957476,9.222143083484E-04
    ));
#335 = DEFINITIONAL_REPRESENTATION('',(#336),#340);
#336 = LINE('',#337,#338);
#337 = CARTESIAN_POINT('',(-1.520114440324E-02,46.821421548216));
#338 = VECTOR('',#339,1.);
#339 = DIRECTION('',(-0.693843043756,-0.720126260201));
#340 = ( GEOMETRIC_REPRESENTATION_CONTEXT(2) 
PARAMETRIC_REPRESENTATION_CONTEXT() REPRESENTATION_CONTEXT('2D SPACE',''
  ) );
#341 = ADVANCED_FACE('',(#342),#303,.T.);
#342 = FACE_BOUND('',#343,.T.);
#343 = EDGE_LOOP('',(#344,#372,#398));
#344 = ORIENTED_EDGE('',*,*,#345,.T.);
#345 = EDGE_CURVE('',#288,#346,#348,.T.);
#346 = VERTEX_POINT('',#347);
#347 = CARTESIAN_POINT('',(-23.40430645747,-23.30591654039,
    17.210512867344));
#348 = SURFACE_CURVE('',#349,(#353,#360),.PCURVE_S1.);
#349 = LINE('',#350,#351);
#350 = CARTESIAN_POINT('',(-23.43113301079,23.27556601371,
    17.210057080196));
#351 = VECTOR('',#352,1.);
#352 = DIRECTION('',(5.759058621842E-04,-0.999999834118,
    9.784726618774E-06));
#353 = PCURVE('',#303,#354);
#354 = DEFINITIONAL_REPRESENTATION('',(#355),#359);
#355 = LINE('',#356,#357);
#356 = CARTESIAN_POINT('',(0.,0.));
#357 = VECTOR('',#358,1.);
#358 = DIRECTION('',(5.759094746446E-04,-0.999999834164));
#359 = ( GEOMETRIC_REPRESENTATION_CONTEXT(2) 
PARAMETRIC_REPRESENTATION_CONTEXT() REPRESENTATION_CONTEXT('2D SPACE',''
  ) );
#360 = PCURVE('',#361,#366);
#361 = PLANE('',#362);
#362 = AXIS2_PLACEMENT_3D('',#363,#364,#365);
#363 = CARTESIAN_POINT('',(-23.40430645747,-23.30591654039,
    17.210512867344));
#364 = DIRECTION('',(-0.999999788644,-5.759087883378E-04,
    -3.017296332971E-04));
#365 = DIRECTION('',(5.759088145534E-04,-0.999999834165,
    3.144964355482E-23));
#366 = DEFINITIONAL_REPRESENTATION('',(#367),#371);
#367 = LINE('',#368,#369);
#368 = CARTESIAN_POINT('',(-46.58149027889,-4.557871686435E-04));
#369 = VECTOR('',#370,1.);
#370 = DIRECTION('',(0.999999999952,9.784727064179E-06));
#371 = ( GEOMETRIC_REPRESENTATION_CONTEXT(2) 
PARAMETRIC_REPRESENTATION_CONTEXT() REPRESENTATION_CONTEXT('2D SPACE',''
  ) );
#372 = ORIENTED_EDGE('',*,*,#373,.T.);
#373 = EDGE_CURVE('',#346,#115,#374,.T.);
#374 = SURFACE_CURVE('',#375,(#379,#386),.PCURVE_S1.);
#375 = LINE('',#376,#377);
#376 = CARTESIAN_POINT('',(-23.40430645747,-23.30591654039,
    17.210512867344));
#377 = VECTOR('',#378,1.);
#378 = DIRECTION('',(0.930400899239,0.366543378731,3.438059995211E-04));
#379 = PCURVE('',#303,#380);
#380 = DEFINITIONAL_REPRESENTATION('',(#381),#385);
#381 = LINE('',#382,#383);
#382 = CARTESIAN_POINT('',(2.682672159596E-02,-46.58148255623));
#383 = VECTOR('',#384,1.);
#384 = DIRECTION('',(0.930400962755,0.366543378748));
#385 = ( GEOMETRIC_REPRESENTATION_CONTEXT(2) 
PARAMETRIC_REPRESENTATION_CONTEXT() REPRESENTATION_CONTEXT('2D SPACE',''
  ) );
#386 = PCURVE('',#387,#392);
#387 = PLANE('',#388);
#388 = AXIS2_PLACEMENT_3D('',#389,#390,#391);
#389 = CARTESIAN_POINT('',(23.428370422148,-23.27373476908,
    17.245588795354));
#390 = DIRECTION('',(-7.49625124784E-04,9.648139014595E-04,
    0.999999253598));
#391 = DIRECTION('',(9.011557346886E-23,0.999999534567,
    -9.648141725423E-04));
#392 = DEFINITIONAL_REPRESENTATION('',(#393),#397);
#393 = LINE('',#394,#395);
#394 = CARTESIAN_POINT('',(-3.214791458075E-02,46.832690038151));
#395 = VECTOR('',#396,1.);
#396 = DIRECTION('',(0.366542876421,-0.930401160653));
#397 = ( GEOMETRIC_REPRESENTATION_CONTEXT(2) 
PARAMETRIC_REPRESENTATION_CONTEXT() REPRESENTATION_CONTEXT('2D SPACE',''
  ) );
#398 = ORIENTED_EDGE('',*,*,#287,.F.);
#399 = ADVANCED_FACE('',(#400),#361,.T.);
#400 = FACE_BOUND('',#401,.T.);
#401 = EDGE_LOOP('',(#402,#403,#431));
#402 = ORIENTED_EDGE('',*,*,#345,.F.);
#403 = ORIENTED_EDGE('',*,*,#404,.T.);
#404 = EDGE_CURVE('',#288,#405,#407,.T.);
#405 = VERTEX_POINT('',#406);
#406 = CARTESIAN_POINT('',(-23.39914322417,-23.25360220892,
    -1.454127425926E-03));
#407 = SURFACE_CURVE('',#408,(#412,#419),.PCURVE_S1.);
#408 = LINE('',#409,#410);
#409 = CARTESIAN_POINT('',(-23.43113301079,23.27556601371,
    17.210057080196));
#410 = VECTOR('',#411,1.);
#411 = DIRECTION('',(6.448190120125E-04,-0.937889728357,-0.346932906556)
  );
#412 = PCURVE('',#361,#413);
#413 = DEFINITIONAL_REPRESENTATION('',(#414),#418);
#414 = LINE('',#415,#416);
#415 = CARTESIAN_POINT('',(-46.58149027889,-4.557871686435E-04));
#416 = VECTOR('',#417,1.);
#417 = DIRECTION('',(0.937889944178,-0.346932922349));
#418 = ( GEOMETRIC_REPRESENTATION_CONTEXT(2) 
PARAMETRIC_REPRESENTATION_CONTEXT() REPRESENTATION_CONTEXT('2D SPACE',''
  ) );
#419 = PCURVE('',#420,#425);
#420 = PLANE('',#421);
#421 = AXIS2_PLACEMENT_3D('',#422,#423,#424);
#422 = CARTESIAN_POINT('',(-23.39914322417,-23.25360220892,
    -1.454127425926E-03));
#423 = DIRECTION('',(-0.999999790933,-6.215634104472E-04,
    -1.783080758615E-04));
#424 = DIRECTION('',(6.215634203282E-04,-0.999999806829,
    -1.419900487042E-23));
#425 = DEFINITIONAL_REPRESENTATION('',(#426),#430);
#426 = LINE('',#427,#428);
#427 = CARTESIAN_POINT('',(-46.52917911825,17.211511481232));
#428 = VECTOR('',#429,1.);
#429 = DIRECTION('',(0.93788994798,-0.346932912071));
#430 = ( GEOMETRIC_REPRESENTATION_CONTEXT(2) 
PARAMETRIC_REPRESENTATION_CONTEXT() REPRESENTATION_CONTEXT('2D SPACE',''
  ) );
#431 = ORIENTED_EDGE('',*,*,#432,.F.);
#432 = EDGE_CURVE('',#346,#405,#433,.T.);
#433 = SURFACE_CURVE('',#434,(#438,#445),.PCURVE_S1.);
#434 = LINE('',#435,#436);
#435 = CARTESIAN_POINT('',(-23.40430645747,-23.30591654039,
    17.210512867344));
#436 = VECTOR('',#437,1.);
#437 = DIRECTION('',(2.99977871094E-04,3.039402033107E-03,
    -0.999995336013));
#438 = PCURVE('',#361,#439);
#439 = DEFINITIONAL_REPRESENTATION('',(#440),#444);
#440 = LINE('',#441,#442);
#441 = CARTESIAN_POINT('',(0.,0.));
#442 = VECTOR('',#443,1.);
#443 = DIRECTION('',(-3.039228769166E-03,-0.999995381534));
#444 = ( GEOMETRIC_REPRESENTATION_CONTEXT(2) 
PARAMETRIC_REPRESENTATION_CONTEXT() REPRESENTATION_CONTEXT('2D SPACE',''
  ) );
#445 = PCURVE('',#446,#451);
#446 = PLANE('',#447);
#447 = AXIS2_PLACEMENT_3D('',#448,#449,#450);
#448 = CARTESIAN_POINT('',(23.428370422148,-23.27373476908,
    17.245588795354));
#449 = DIRECTION('',(6.894377977002E-04,-0.999995143974,
    -3.039194632372E-03));
#450 = DIRECTION('',(-2.743727138179E-22,3.039195354674E-03,
    -0.999995381635));
#451 = DEFINITIONAL_REPRESENTATION('',(#452),#456);
#452 = LINE('',#453,#454);
#453 = CARTESIAN_POINT('',(3.497795932696E-02,-46.83268800998));
#454 = VECTOR('',#455,1.);
#455 = DIRECTION('',(0.999999955007,2.999779423875E-04));
#456 = ( GEOMETRIC_REPRESENTATION_CONTEXT(2) 
PARAMETRIC_REPRESENTATION_CONTEXT() REPRESENTATION_CONTEXT('2D SPACE',''
  ) );
#457 = ADVANCED_FACE('',(#458),#420,.T.);
#458 = FACE_BOUND('',#459,.T.);
#459 = EDGE_LOOP('',(#460,#461,#489));
#460 = ORIENTED_EDGE('',*,*,#404,.F.);
#461 = ORIENTED_EDGE('',*,*,#462,.T.);
#462 = EDGE_CURVE('',#288,#463,#465,.T.);
#463 = VERTEX_POINT('',#464);
#464 = CARTESIAN_POINT('',(-23.42807632808,23.304602590733,
    -3.386262588482E-02));
#465 = SURFACE_CURVE('',#466,(#470,#477),.PCURVE_S1.);
#466 = LINE('',#467,#468);
#467 = CARTESIAN_POINT('',(-23.43113301079,23.27556601371,
    17.210057080196));
#468 = VECTOR('',#469,1.);
#469 = DIRECTION('',(1.772612247618E-04,1.683870946766E-03,
    -0.999998566578));
#470 = PCURVE('',#420,#471);
#471 = DEFINITIONAL_REPRESENTATION('',(#472),#476);
#472 = LINE('',#473,#474);
#473 = CARTESIAN_POINT('',(-46.52917911825,17.211511481232));
#474 = VECTOR('',#475,1.);
#475 = DIRECTION('',(-1.683760442398E-03,-0.999998582474));
#476 = ( GEOMETRIC_REPRESENTATION_CONTEXT(2) 
PARAMETRIC_REPRESENTATION_CONTEXT() REPRESENTATION_CONTEXT('2D SPACE',''
  ) );
#477 = PCURVE('',#478,#483);
#478 = PLANE('',#479);
#479 = AXIS2_PLACEMENT_3D('',#480,#481,#482);
#480 = CARTESIAN_POINT('',(23.390284622607,23.290749494325,
    17.229217750362));
#481 = DIRECTION('',(-3.24973528132E-04,0.999998529581,
    1.683813279181E-03));
#482 = DIRECTION('',(-3.363205617949E-24,-1.683813368093E-03,
    0.999998582385));
#483 = DEFINITIONAL_REPRESENTATION('',(#484),#488);
#484 = LINE('',#485,#486);
#485 = CARTESIAN_POINT('',(-1.913507685612E-02,-46.82142010575));
#486 = VECTOR('',#487,1.);
#487 = DIRECTION('',(-0.999999984289,1.772612341219E-04));
#488 = ( GEOMETRIC_REPRESENTATION_CONTEXT(2) 
PARAMETRIC_REPRESENTATION_CONTEXT() REPRESENTATION_CONTEXT('2D SPACE',''
  ) );
#489 = ORIENTED_EDGE('',*,*,#490,.T.);
#490 = EDGE_CURVE('',#463,#405,#491,.T.);
#491 = SURFACE_CURVE('',#492,(#496,#503),.PCURVE_S1.);
#492 = LINE('',#493,#494);
#493 = CARTESIAN_POINT('',(-23.42807632808,23.304602590733,
    -3.386262588482E-02));
#494 = VECTOR('',#495,1.);
#495 = DIRECTION('',(6.214391521259E-04,-0.999999564639,
    6.960853514211E-04));
#496 = PCURVE('',#420,#497);
#497 = DEFINITIONAL_REPRESENTATION('',(#498),#502);
#498 = LINE('',#499,#500);
#499 = CARTESIAN_POINT('',(-46.55821378974,-3.240849897409E-02));
#500 = VECTOR('',#501,1.);
#501 = DIRECTION('',(0.999999757733,6.960853624867E-04));
#502 = ( GEOMETRIC_REPRESENTATION_CONTEXT(2) 
PARAMETRIC_REPRESENTATION_CONTEXT() REPRESENTATION_CONTEXT('2D SPACE',''
  ) );
#503 = PCURVE('',#504,#509);
#504 = PLANE('',#505);
#505 = AXIS2_PLACEMENT_3D('',#506,#507,#508);
#506 = CARTESIAN_POINT('',(-23.42807632808,23.304602590733,
    -3.386262588482E-02));
#507 = DIRECTION('',(3.845273507291E-04,-6.958464740295E-04,
    -0.999999683968));
#508 = DIRECTION('',(3.771128056454E-23,-0.999999757899,
    6.958465254738E-04));
#509 = DEFINITIONAL_REPRESENTATION('',(#510),#514);
#510 = LINE('',#511,#512);
#511 = CARTESIAN_POINT('',(0.,-0.));
#512 = VECTOR('',#513,1.);
#513 = DIRECTION('',(0.999999806907,-6.214391980693E-04));
#514 = ( GEOMETRIC_REPRESENTATION_CONTEXT(2) 
PARAMETRIC_REPRESENTATION_CONTEXT() REPRESENTATION_CONTEXT('2D SPACE',''
  ) );
#515 = ADVANCED_FACE('',(#516),#504,.T.);
#516 = FACE_BOUND('',#517,.T.);
#517 = EDGE_LOOP('',(#518,#546,#572));
#518 = ORIENTED_EDGE('',*,*,#519,.T.);
#519 = EDGE_CURVE('',#463,#520,#522,.T.);
#520 = VERTEX_POINT('',#521);
#521 = CARTESIAN_POINT('',(3.858414991296,-11.25570501107,
    6.784554350837E-04));
#522 = SURFACE_CURVE('',#523,(#527,#534),.PCURVE_S1.);
#523 = LINE('',#524,#525);
#524 = CARTESIAN_POINT('',(-23.42807632808,23.304602590733,
    -3.386262588482E-02));
#525 = VECTOR('',#526,1.);
#526 = DIRECTION('',(0.61967260887,-0.784860014587,7.844233882675E-04));
#527 = PCURVE('',#504,#528);
#528 = DEFINITIONAL_REPRESENTATION('',(#529),#533);
#529 = LINE('',#530,#531);
#530 = CARTESIAN_POINT('',(0.,-0.));
#531 = VECTOR('',#532,1.);
#532 = DIRECTION('',(0.784860370409,-0.619672654682));
#533 = ( GEOMETRIC_REPRESENTATION_CONTEXT(2) 
PARAMETRIC_REPRESENTATION_CONTEXT() REPRESENTATION_CONTEXT('2D SPACE',''
  ) );
#534 = PCURVE('',#535,#540);
#535 = PLANE('',#536);
#536 = AXIS2_PLACEMENT_3D('',#537,#538,#539);
#537 = CARTESIAN_POINT('',(23.396154930433,23.309891377678,
    -2.179559422566E-02));
#538 = DIRECTION('',(2.577989316932E-04,-7.959026649015E-04,
    -0.999999650039));
#539 = DIRECTION('',(-1.558969059183E-23,-0.999999683269,
    7.959026913494E-04));
#540 = DEFINITIONAL_REPRESENTATION('',(#541),#545);
#541 = LINE('',#542,#543);
#542 = CARTESIAN_POINT('',(5.279181086932E-03,46.824232814493));
#543 = VECTOR('',#544,1.);
#544 = DIRECTION('',(0.784860390322,-0.619672629461));
#545 = ( GEOMETRIC_REPRESENTATION_CONTEXT(2) 
PARAMETRIC_REPRESENTATION_CONTEXT() REPRESENTATION_CONTEXT('2D SPACE',''
  ) );
#546 = ORIENTED_EDGE('',*,*,#547,.F.);
#547 = EDGE_CURVE('',#405,#520,#548,.T.);
#548 = SURFACE_CURVE('',#549,(#553,#560),.PCURVE_S1.);
#549 = LINE('',#550,#551);
#550 = CARTESIAN_POINT('',(-23.39914322417,-23.25360220892,
    -1.454127425926E-03));
#551 = VECTOR('',#552,1.);
#552 = DIRECTION('',(0.915258433963,0.402867216254,7.160819154211E-05));
#553 = PCURVE('',#504,#554);
#554 = DEFINITIONAL_REPRESENTATION('',(#555),#559);
#555 = LINE('',#556,#557);
#556 = CARTESIAN_POINT('',(46.5582160792,-2.893310605059E-02));
#557 = VECTOR('',#558,1.);
#558 = DIRECTION('',(-0.402867068891,-0.915258501628));
#559 = ( GEOMETRIC_REPRESENTATION_CONTEXT(2) 
PARAMETRIC_REPRESENTATION_CONTEXT() REPRESENTATION_CONTEXT('2D SPACE',''
  ) );
#560 = PCURVE('',#561,#566);
#561 = PLANE('',#562);
#562 = AXIS2_PLACEMENT_3D('',#563,#564,#565);
#563 = CARTESIAN_POINT('',(5.551597555951,-13.791453165,
    -2.85530212564E-02));
#564 = DIRECTION('',(-3.86090610034E-03,8.949181059874E-03,
    -0.999952501653));
#565 = DIRECTION('',(-1.375182302522E-22,-0.99995995468,
    -8.949247761533E-03));
#566 = DEFINITIONAL_REPRESENTATION('',(#567),#571);
#567 = LINE('',#568,#569);
#568 = CARTESIAN_POINT('',(9.46152761442,28.950956561034));
#569 = VECTOR('',#570,1.);
#570 = DIRECTION('',(-0.402851724147,-0.915265255733));
#571 = ( GEOMETRIC_REPRESENTATION_CONTEXT(2) 
PARAMETRIC_REPRESENTATION_CONTEXT() REPRESENTATION_CONTEXT('2D SPACE',''
  ) );
#572 = ORIENTED_EDGE('',*,*,#490,.F.);
#573 = ADVANCED_FACE('',(#574),#561,.T.);
#574 = FACE_BOUND('',#575,.T.);
#575 = EDGE_LOOP('',(#576,#604,#605));
#576 = ORIENTED_EDGE('',*,*,#577,.F.);
#577 = EDGE_CURVE('',#405,#578,#580,.T.);
#578 = VERTEX_POINT('',#579);
#579 = CARTESIAN_POINT('',(5.551597555951,-13.791453165,
    -2.85530212564E-02));
#580 = SURFACE_CURVE('',#581,(#585,#592),.PCURVE_S1.);
#581 = LINE('',#582,#583);
#582 = CARTESIAN_POINT('',(-23.39914322417,-23.25360220892,
    -1.454127425926E-03));
#583 = VECTOR('',#584,1.);
#584 = DIRECTION('',(0.950519346268,0.310664096364,-8.897189555171E-04)
  );
#585 = PCURVE('',#561,#586);
#586 = DEFINITIONAL_REPRESENTATION('',(#587),#591);
#587 = LINE('',#588,#589);
#588 = CARTESIAN_POINT('',(9.46152761442,28.950956561034));
#589 = VECTOR('',#590,1.);
#590 = DIRECTION('',(-0.310643693405,-0.950526430852));
#591 = ( GEOMETRIC_REPRESENTATION_CONTEXT(2) 
PARAMETRIC_REPRESENTATION_CONTEXT() REPRESENTATION_CONTEXT('2D SPACE',''
  ) );
#592 = PCURVE('',#593,#598);
#593 = PLANE('',#594);
#594 = AXIS2_PLACEMENT_3D('',#595,#596,#597);
#595 = CARTESIAN_POINT('',(23.414502483413,-23.29943934965,
    2.948111714419E-02));
#596 = DIRECTION('',(6.560393150892E-04,-4.871133442867E-03,
    -0.999987920763));
#597 = DIRECTION('',(1.54454432383E-22,-0.999988135954,
    4.871134491105E-03));
#598 = DEFINITIONAL_REPRESENTATION('',(#599),#603);
#599 = LINE('',#600,#601);
#600 = CARTESIAN_POINT('',(-4.598728665007E-02,46.813655781595));
#601 = VECTOR('',#602,1.);
#602 = DIRECTION('',(-0.310664744571,-0.950519550814));
#603 = ( GEOMETRIC_REPRESENTATION_CONTEXT(2) 
PARAMETRIC_REPRESENTATION_CONTEXT() REPRESENTATION_CONTEXT('2D SPACE',''
  ) );
#604 = ORIENTED_EDGE('',*,*,#547,.T.);
#605 = ORIENTED_EDGE('',*,*,#606,.T.);
#606 = EDGE_CURVE('',#520,#578,#607,.T.);
#607 = SURFACE_CURVE('',#608,(#612,#619),.PCURVE_S1.);
#608 = LINE('',#609,#610);
#609 = CARTESIAN_POINT('',(3.858414991296,-11.25570501107,
    6.784554350837E-04));
#610 = VECTOR('',#611,1.);
#611 = DIRECTION('',(0.555283898132,-0.831605610045,-9.586543509389E-03)
  );
#612 = PCURVE('',#561,#613);
#613 = DEFINITIONAL_REPRESENTATION('',(#614),#618);
#614 = LINE('',#615,#616);
#615 = CARTESIAN_POINT('',(-2.535908208816,1.693195184591));
#616 = VECTOR('',#617,1.);
#617 = DIRECTION('',(0.831658100486,-0.555288036875));
#618 = ( GEOMETRIC_REPRESENTATION_CONTEXT(2) 
PARAMETRIC_REPRESENTATION_CONTEXT() REPRESENTATION_CONTEXT('2D SPACE',''
  ) );
#619 = PCURVE('',#620,#625);
#620 = PLANE('',#621);
#621 = AXIS2_PLACEMENT_3D('',#622,#623,#624);
#622 = CARTESIAN_POINT('',(3.877405194223,-10.66112910607,
    11.739592631335));
#623 = DIRECTION('',(0.831125671361,0.555303161103,-2.947062390406E-02)
  );
#624 = DIRECTION('',(-0.555544463601,0.8314868303,1.587646925789E-19));
#625 = DEFINITIONAL_REPRESENTATION('',(#626),#630);
#626 = LINE('',#627,#628);
#627 = CARTESIAN_POINT('',(-0.483832132523,-11.74401522611));
#628 = VECTOR('',#629,1.);
#629 = DIRECTION('',(-0.99995400809,-9.590709264341E-03));
#630 = ( GEOMETRIC_REPRESENTATION_CONTEXT(2) 
PARAMETRIC_REPRESENTATION_CONTEXT() REPRESENTATION_CONTEXT('2D SPACE',''
  ) );
#631 = ADVANCED_FACE('',(#632),#478,.T.);
#632 = FACE_BOUND('',#633,.T.);
#633 = EDGE_LOOP('',(#634,#662,#663));
#634 = ORIENTED_EDGE('',*,*,#635,.F.);
#635 = EDGE_CURVE('',#463,#636,#638,.T.);
#636 = VERTEX_POINT('',#637);
#637 = CARTESIAN_POINT('',(23.390284622607,23.290749494325,
    17.229217750362));
#638 = SURFACE_CURVE('',#639,(#643,#650),.PCURVE_S1.);
#639 = LINE('',#640,#641);
#640 = CARTESIAN_POINT('',(-23.42807632808,23.304602590733,
    -3.386262588482E-02));
#641 = VECTOR('',#642,1.);
#642 = DIRECTION('',(0.938250666418,-2.776192218672E-04,0.345956080874)
  );
#643 = PCURVE('',#478,#644);
#644 = DEFINITIONAL_REPRESENTATION('',(#645),#649);
#645 = LINE('',#646,#647);
#646 = CARTESIAN_POINT('',(-17.26307922987,-46.81836342288));
#647 = VECTOR('',#648,1.);
#648 = DIRECTION('',(0.3459560579,0.938250715961));
#649 = ( GEOMETRIC_REPRESENTATION_CONTEXT(2) 
PARAMETRIC_REPRESENTATION_CONTEXT() REPRESENTATION_CONTEXT('2D SPACE',''
  ) );
#650 = PCURVE('',#651,#656);
#651 = PLANE('',#652);
#652 = AXIS2_PLACEMENT_3D('',#653,#654,#655);
#653 = CARTESIAN_POINT('',(23.390284622607,23.290749494325,
    17.229217750362));
#654 = DIRECTION('',(-1.132356630143E-04,0.999999378016,
    1.109569990816E-03));
#655 = DIRECTION('',(-3.772206467773E-24,-1.109569997929E-03,
    0.999999384427));
#656 = DEFINITIONAL_REPRESENTATION('',(#657),#661);
#657 = LINE('',#658,#659);
#658 = CARTESIAN_POINT('',(-17.26308512054,-46.81836125085));
#659 = VECTOR('',#660,1.);
#660 = DIRECTION('',(0.345956175951,0.938250672433));
#661 = ( GEOMETRIC_REPRESENTATION_CONTEXT(2) 
PARAMETRIC_REPRESENTATION_CONTEXT() REPRESENTATION_CONTEXT('2D SPACE',''
  ) );
#662 = ORIENTED_EDGE('',*,*,#462,.F.);
#663 = ORIENTED_EDGE('',*,*,#664,.T.);
#664 = EDGE_CURVE('',#288,#636,#665,.T.);
#665 = SURFACE_CURVE('',#666,(#670,#677),.PCURVE_S1.);
#666 = LINE('',#667,#668);
#667 = CARTESIAN_POINT('',(-23.43113301079,23.27556601371,
    17.210057080196));
#668 = VECTOR('',#669,1.);
#669 = DIRECTION('',(0.999999863686,3.2428489596E-04,4.092286932521E-04)
  );
#670 = PCURVE('',#478,#671);
#671 = DEFINITIONAL_REPRESENTATION('',(#672),#676);
#672 = LINE('',#673,#674);
#673 = CARTESIAN_POINT('',(-1.913507685612E-02,-46.82142010575));
#674 = VECTOR('',#675,1.);
#675 = DIRECTION('',(4.086820778806E-04,0.999999916489));
#676 = ( GEOMETRIC_REPRESENTATION_CONTEXT(2) 
PARAMETRIC_REPRESENTATION_CONTEXT() REPRESENTATION_CONTEXT('2D SPACE',''
  ) );
#677 = PCURVE('',#330,#678);
#678 = DEFINITIONAL_REPRESENTATION('',(#679),#683);
#679 = LINE('',#680,#681);
#680 = CARTESIAN_POINT('',(-1.520114440324E-02,46.821421548216));
#681 = VECTOR('',#682,1.);
#682 = DIRECTION('',(3.246621546175E-04,-0.999999947297));
#683 = ( GEOMETRIC_REPRESENTATION_CONTEXT(2) 
PARAMETRIC_REPRESENTATION_CONTEXT() REPRESENTATION_CONTEXT('2D SPACE',''
  ) );
#684 = ADVANCED_FACE('',(#685),#651,.T.);
#685 = FACE_BOUND('',#686,.T.);
#686 = EDGE_LOOP('',(#687,#715,#736));
#687 = ORIENTED_EDGE('',*,*,#688,.T.);
#688 = EDGE_CURVE('',#636,#689,#691,.T.);
#689 = VERTEX_POINT('',#690);
#690 = CARTESIAN_POINT('',(23.396154930433,23.309891377678,
    -2.179559422566E-02));
#691 = SURFACE_CURVE('',#692,(#696,#703),.PCURVE_S1.);
#692 = LINE('',#693,#694);
#693 = CARTESIAN_POINT('',(23.390284622607,23.290749494325,
    17.229217750362));
#694 = VECTOR('',#695,1.);
#695 = DIRECTION('',(3.402874807917E-04,1.109608466343E-03,
    -0.999999326487));
#696 = PCURVE('',#651,#697);
#697 = DEFINITIONAL_REPRESENTATION('',(#698),#702);
#698 = LINE('',#699,#700);
#699 = CARTESIAN_POINT('',(0.,0.));
#700 = VECTOR('',#701,1.);
#701 = DIRECTION('',(-0.999999942102,3.402874829734E-04));
#702 = ( GEOMETRIC_REPRESENTATION_CONTEXT(2) 
PARAMETRIC_REPRESENTATION_CONTEXT() REPRESENTATION_CONTEXT('2D SPACE',''
  ) );
#703 = PCURVE('',#704,#709);
#704 = PLANE('',#705);
#705 = AXIS2_PLACEMENT_3D('',#706,#707,#708);
#706 = CARTESIAN_POINT('',(23.414502483413,-23.29943934965,
    2.948111714419E-02));
#707 = DIRECTION('',(0.999999864327,3.940202842558E-04,
    3.407248723501E-04));
#708 = DIRECTION('',(-3.940203071273E-04,0.999999922374,
    1.601653034721E-23));
#709 = DEFINITIONAL_REPRESENTATION('',(#710),#714);
#710 = LINE('',#711,#712);
#711 = CARTESIAN_POINT('',(46.590194769696,17.199737631607));
#712 = VECTOR('',#713,1.);
#713 = DIRECTION('',(1.10947430003E-03,-0.999999384533));
#714 = ( GEOMETRIC_REPRESENTATION_CONTEXT(2) 
PARAMETRIC_REPRESENTATION_CONTEXT() REPRESENTATION_CONTEXT('2D SPACE',''
  ) );
#715 = ORIENTED_EDGE('',*,*,#716,.F.);
#716 = EDGE_CURVE('',#463,#689,#717,.T.);
#717 = SURFACE_CURVE('',#718,(#722,#729),.PCURVE_S1.);
#718 = LINE('',#719,#720);
#719 = CARTESIAN_POINT('',(-23.42807632808,23.304602590733,
    -3.386262588482E-02));
#720 = VECTOR('',#721,1.);
#721 = DIRECTION('',(0.999999960414,1.129497824848E-04,
    2.577091146432E-04));
#722 = PCURVE('',#651,#723);
#723 = DEFINITIONAL_REPRESENTATION('',(#724),#728);
#724 = LINE('',#725,#726);
#725 = CARTESIAN_POINT('',(-17.26308512054,-46.81836125085));
#726 = VECTOR('',#727,1.);
#727 = DIRECTION('',(2.575836303145E-04,0.999999966825));
#728 = ( GEOMETRIC_REPRESENTATION_CONTEXT(2) 
PARAMETRIC_REPRESENTATION_CONTEXT() REPRESENTATION_CONTEXT('2D SPACE',''
  ) );
#729 = PCURVE('',#535,#730);
#730 = DEFINITIONAL_REPRESENTATION('',(#731),#735);
#731 = LINE('',#732,#733);
#732 = CARTESIAN_POINT('',(5.279181086932E-03,46.824232814493));
#733 = VECTOR('',#734,1.);
#734 = DIRECTION('',(-1.127446353322E-04,-0.999999993644));
#735 = ( GEOMETRIC_REPRESENTATION_CONTEXT(2) 
PARAMETRIC_REPRESENTATION_CONTEXT() REPRESENTATION_CONTEXT('2D SPACE',''
  ) );
#736 = ORIENTED_EDGE('',*,*,#635,.T.);
#737 = ADVANCED_FACE('',(#738),#446,.T.);
#738 = FACE_BOUND('',#739,.T.);
#739 = EDGE_LOOP('',(#740,#763,#764));
#740 = ORIENTED_EDGE('',*,*,#741,.F.);
#741 = EDGE_CURVE('',#346,#742,#744,.T.);
#742 = VERTEX_POINT('',#743);
#743 = CARTESIAN_POINT('',(23.428370422148,-23.27373476908,
    17.245588795354));
#744 = SURFACE_CURVE('',#745,(#749,#756),.PCURVE_S1.);
#745 = LINE('',#746,#747);
#746 = CARTESIAN_POINT('',(-23.40430645747,-23.30591654039,
    17.210512867344));
#747 = VECTOR('',#748,1.);
#748 = DIRECTION('',(0.99999948343,6.871645362117E-04,7.489623106801E-04
    ));
#749 = PCURVE('',#446,#750);
#750 = DEFINITIONAL_REPRESENTATION('',(#751),#755);
#751 = LINE('',#752,#753);
#752 = CARTESIAN_POINT('',(3.497795932696E-02,-46.83268800998));
#753 = VECTOR('',#754,1.);
#754 = DIRECTION('',(-7.468704244325E-04,0.999999721092));
#755 = ( GEOMETRIC_REPRESENTATION_CONTEXT(2) 
PARAMETRIC_REPRESENTATION_CONTEXT() REPRESENTATION_CONTEXT('2D SPACE',''
  ) );
#756 = PCURVE('',#387,#757);
#757 = DEFINITIONAL_REPRESENTATION('',(#758),#762);
#758 = LINE('',#759,#760);
#759 = CARTESIAN_POINT('',(-3.214791458075E-02,46.832690038151));
#760 = VECTOR('',#761,1.);
#761 = DIRECTION('',(6.864416069304E-04,-0.999999764399));
#762 = ( GEOMETRIC_REPRESENTATION_CONTEXT(2) 
PARAMETRIC_REPRESENTATION_CONTEXT() REPRESENTATION_CONTEXT('2D SPACE',''
  ) );
#763 = ORIENTED_EDGE('',*,*,#432,.T.);
#764 = ORIENTED_EDGE('',*,*,#765,.T.);
#765 = EDGE_CURVE('',#405,#742,#766,.T.);
#766 = SURFACE_CURVE('',#767,(#771,#778),.PCURVE_S1.);
#767 = LINE('',#768,#769);
#768 = CARTESIAN_POINT('',(-23.39914322417,-23.25360220892,
    -1.454127425926E-03));
#769 = VECTOR('',#770,1.);
#770 = DIRECTION('',(0.938376831507,-4.034364957989E-04,0.3456135983));
#771 = PCURVE('',#446,#772);
#772 = DEFINITIONAL_REPRESENTATION('',(#773),#777);
#773 = LINE('',#774,#775);
#774 = CARTESIAN_POINT('',(17.247024456426,-46.82752477545));
#775 = VECTOR('',#776,1.);
#776 = DIRECTION('',(-0.345613228253,0.938377054524));
#777 = ( GEOMETRIC_REPRESENTATION_CONTEXT(2) 
PARAMETRIC_REPRESENTATION_CONTEXT() REPRESENTATION_CONTEXT('2D SPACE',''
  ) );
#778 = PCURVE('',#779,#784);
#779 = PLANE('',#780);
#780 = AXIS2_PLACEMENT_3D('',#781,#782,#783);
#781 = CARTESIAN_POINT('',(23.428370422148,-23.27373476908,
    17.245588795354));
#782 = DIRECTION('',(-9.801261836644E-04,-0.999998403894,
    1.493841253273E-03));
#783 = DIRECTION('',(-1.448555791356E-23,-1.493841970801E-03,
    -0.999998884217));
#784 = DEFINITIONAL_REPRESENTATION('',(#785),#789);
#785 = LINE('',#786,#787);
#786 = CARTESIAN_POINT('',(17.246993603968,-46.8275361387));
#787 = VECTOR('',#788,1.);
#788 = DIRECTION('',(-0.34561261,0.938377282232));
#789 = ( GEOMETRIC_REPRESENTATION_CONTEXT(2) 
PARAMETRIC_REPRESENTATION_CONTEXT() REPRESENTATION_CONTEXT('2D SPACE',''
  ) );
#790 = ADVANCED_FACE('',(#791),#779,.T.);
#791 = FACE_BOUND('',#792,.T.);
#792 = EDGE_LOOP('',(#793,#794,#817));
#793 = ORIENTED_EDGE('',*,*,#765,.F.);
#794 = ORIENTED_EDGE('',*,*,#795,.T.);
#795 = EDGE_CURVE('',#405,#796,#798,.T.);
#796 = VERTEX_POINT('',#797);
#797 = CARTESIAN_POINT('',(23.414502483413,-23.29943934965,
    2.948111714419E-02));
#798 = SURFACE_CURVE('',#799,(#803,#810),.PCURVE_S1.);
#799 = LINE('',#800,#801);
#800 = CARTESIAN_POINT('',(-23.39914322417,-23.25360220892,
    -1.454127425926E-03));
#801 = VECTOR('',#802,1.);
#802 = DIRECTION('',(0.999999302303,-9.791399079039E-04,
    6.608163606808E-04));
#803 = PCURVE('',#779,#804);
#804 = DEFINITIONAL_REPRESENTATION('',(#805),#809);
#805 = LINE('',#806,#807);
#806 = CARTESIAN_POINT('',(17.246993603968,-46.8275361387));
#807 = VECTOR('',#808,1.);
#808 = DIRECTION('',(-6.593529430638E-04,0.999999782627));
#809 = ( GEOMETRIC_REPRESENTATION_CONTEXT(2) 
PARAMETRIC_REPRESENTATION_CONTEXT() REPRESENTATION_CONTEXT('2D SPACE',''
  ) );
#810 = PCURVE('',#593,#811);
#811 = DEFINITIONAL_REPRESENTATION('',(#812),#816);
#812 = LINE('',#813,#814);
#813 = CARTESIAN_POINT('',(-4.598728665007E-02,46.813655781595));
#814 = VECTOR('',#815,1.);
#815 = DIRECTION('',(9.823472167098E-04,-0.999999517497));
#816 = ( GEOMETRIC_REPRESENTATION_CONTEXT(2) 
PARAMETRIC_REPRESENTATION_CONTEXT() REPRESENTATION_CONTEXT('2D SPACE',''
  ) );
#817 = ORIENTED_EDGE('',*,*,#818,.T.);
#818 = EDGE_CURVE('',#796,#742,#819,.T.);
#819 = SURFACE_CURVE('',#820,(#824,#831),.PCURVE_S1.);
#820 = LINE('',#821,#822);
#821 = CARTESIAN_POINT('',(23.414502483413,-23.29943934965,
    2.948111714419E-02));
#822 = VECTOR('',#823,1.);
#823 = DIRECTION('',(8.055199838434E-04,1.493051975425E-03,
    0.999998560966));
#824 = PCURVE('',#779,#825);
#825 = DEFINITIONAL_REPRESENTATION('',(#826),#830);
#826 = LINE('',#827,#828);
#827 = CARTESIAN_POINT('',(17.216126867359,-1.386794539634E-02));
#828 = VECTOR('',#829,1.);
#829 = DIRECTION('',(-0.999999675568,8.05520370754E-04));
#830 = ( GEOMETRIC_REPRESENTATION_CONTEXT(2) 
PARAMETRIC_REPRESENTATION_CONTEXT() REPRESENTATION_CONTEXT('2D SPACE',''
  ) );
#831 = PCURVE('',#832,#837);
#832 = PLANE('',#833);
#833 = AXIS2_PLACEMENT_3D('',#834,#835,#836);
#834 = CARTESIAN_POINT('',(23.428370422148,-23.27373476908,
    17.245588795354));
#835 = DIRECTION('',(0.999999340324,8.176310297458E-04,
    -8.067413790137E-04));
#836 = DIRECTION('',(-8.17631295816E-04,0.999999665739,
    -4.670506649182E-23));
#837 = DEFINITIONAL_REPRESENTATION('',(#838),#842);
#838 = LINE('',#839,#840);
#839 = CARTESIAN_POINT('',(-2.569323311512E-02,-17.2161132806));
#840 = VECTOR('',#841,1.);
#841 = DIRECTION('',(1.492392858009E-03,0.999998886381));
#842 = ( GEOMETRIC_REPRESENTATION_CONTEXT(2) 
PARAMETRIC_REPRESENTATION_CONTEXT() REPRESENTATION_CONTEXT('2D SPACE',''
  ) );
#843 = ADVANCED_FACE('',(#844),#387,.T.);
#844 = FACE_BOUND('',#845,.T.);
#845 = EDGE_LOOP('',(#846,#867,#868));
#846 = ORIENTED_EDGE('',*,*,#847,.F.);
#847 = EDGE_CURVE('',#115,#742,#848,.T.);
#848 = SURFACE_CURVE('',#849,(#853,#860),.PCURVE_S1.);
#849 = LINE('',#850,#851);
#850 = CARTESIAN_POINT('',(1.859900892152,-13.35275771341,17.2198486129)
  );
#851 = VECTOR('',#852,1.);
#852 = DIRECTION('',(0.90849821723,-0.417887321849,1.084217396083E-03));
#853 = PCURVE('',#387,#854);
#854 = DEFINITIONAL_REPRESENTATION('',(#855),#859);
#855 = LINE('',#856,#857);
#856 = CARTESIAN_POINT('',(9.920997272614,21.568475590069));
#857 = VECTOR('',#858,1.);
#858 = DIRECTION('',(-0.417888173418,-0.90849847249));
#859 = ( GEOMETRIC_REPRESENTATION_CONTEXT(2) 
PARAMETRIC_REPRESENTATION_CONTEXT() REPRESENTATION_CONTEXT('2D SPACE',''
  ) );
#860 = PCURVE('',#156,#861);
#861 = DEFINITIONAL_REPRESENTATION('',(#862),#866);
#862 = LINE('',#863,#864);
#863 = CARTESIAN_POINT('',(9.91157743675,21.572806003807));
#864 = VECTOR('',#865,1.);
#865 = DIRECTION('',(-0.41749139496,-0.9086808764));
#866 = ( GEOMETRIC_REPRESENTATION_CONTEXT(2) 
PARAMETRIC_REPRESENTATION_CONTEXT() REPRESENTATION_CONTEXT('2D SPACE',''
  ) );
#867 = ORIENTED_EDGE('',*,*,#373,.F.);
#868 = ORIENTED_EDGE('',*,*,#741,.T.);
#869 = ADVANCED_FACE('',(#870),#156,.T.);
#870 = FACE_BOUND('',#871,.T.);
#871 = EDGE_LOOP('',(#872,#898,#899));
#872 = ORIENTED_EDGE('',*,*,#873,.F.);
#873 = EDGE_CURVE('',#22,#742,#874,.T.);
#874 = SURFACE_CURVE('',#875,(#879,#886),.PCURVE_S1.);
#875 = LINE('',#876,#877);
#876 = CARTESIAN_POINT('',(8.840182927215,-16.11762617533,
    17.207561570097));
#877 = VECTOR('',#878,1.);
#878 = DIRECTION('',(0.897795729885,-0.440405892802,2.340296247745E-03)
  );
#879 = PCURVE('',#156,#880);
#880 = DEFINITIONAL_REPRESENTATION('',(#881),#885);
#881 = LINE('',#882,#883);
#882 = CARTESIAN_POINT('',(7.150227412479,14.591120539994));
#883 = VECTOR('',#884,1.);
#884 = DIRECTION('',(-0.440043949316,-0.897976237253));
#885 = ( GEOMETRIC_REPRESENTATION_CONTEXT(2) 
PARAMETRIC_REPRESENTATION_CONTEXT() REPRESENTATION_CONTEXT('2D SPACE',''
  ) );
#886 = PCURVE('',#887,#892);
#887 = PLANE('',#888);
#888 = AXIS2_PLACEMENT_3D('',#889,#890,#891);
#889 = CARTESIAN_POINT('',(23.428370422148,-23.27373476908,
    17.245588795354));
#890 = DIRECTION('',(-8.731329994945E-04,3.533980104471E-03,
    0.99999337429));
#891 = DIRECTION('',(-3.695255814894E-23,0.999993755468,
    -3.533981451556E-03));
#892 = DEFINITIONAL_REPRESENTATION('',(#893),#897);
#893 = LINE('',#894,#895);
#894 = CARTESIAN_POINT('',(7.156198294714,14.588193055671));
#895 = VECTOR('',#896,1.);
#896 = DIRECTION('',(-0.440411413236,-0.897796072107));
#897 = ( GEOMETRIC_REPRESENTATION_CONTEXT(2) 
PARAMETRIC_REPRESENTATION_CONTEXT() REPRESENTATION_CONTEXT('2D SPACE',''
  ) );
#898 = ORIENTED_EDGE('',*,*,#142,.F.);
#899 = ORIENTED_EDGE('',*,*,#847,.T.);
#900 = ADVANCED_FACE('',(#901),#887,.T.);
#901 = FACE_BOUND('',#902,.T.);
#902 = EDGE_LOOP('',(#903,#929,#950));
#903 = ORIENTED_EDGE('',*,*,#904,.F.);
#904 = EDGE_CURVE('',#173,#742,#905,.T.);
#905 = SURFACE_CURVE('',#906,(#910,#917),.PCURVE_S1.);
#906 = LINE('',#907,#908);
#907 = CARTESIAN_POINT('',(12.27635626005,-11.12867063628,
    17.192930839869));
#908 = VECTOR('',#909,1.);
#909 = DIRECTION('',(0.676348376403,-0.736574961988,3.193604507606E-03)
  );
#910 = PCURVE('',#887,#911);
#911 = DEFINITIONAL_REPRESENTATION('',(#912),#916);
#912 = LINE('',#913,#914);
#913 = CARTESIAN_POINT('',(12.145174384799,11.152018413032));
#914 = VECTOR('',#915,1.);
#915 = DIRECTION('',(-0.736581648561,-0.676348634214));
#916 = ( GEOMETRIC_REPRESENTATION_CONTEXT(2) 
PARAMETRIC_REPRESENTATION_CONTEXT() REPRESENTATION_CONTEXT('2D SPACE',''
  ) );
#917 = PCURVE('',#918,#923);
#918 = PLANE('',#919);
#919 = AXIS2_PLACEMENT_3D('',#920,#921,#922);
#920 = CARTESIAN_POINT('',(23.390284622607,23.290749494325,
    17.229217750362));
#921 = DIRECTION('',(-4.342775985512E-03,3.480225709353E-04,
    0.999990509543));
#922 = DIRECTION('',(0.999990570103,2.131078402417E-22,4.34277624851E-03
    ));
#923 = DEFINITIONAL_REPRESENTATION('',(#924),#928);
#924 = LINE('',#925,#926);
#925 = CARTESIAN_POINT('',(-11.11398114528,-34.41942221504));
#926 = VECTOR('',#927,1.);
#927 = DIRECTION('',(0.676355867617,-0.736575006595));
#928 = ( GEOMETRIC_REPRESENTATION_CONTEXT(2) 
PARAMETRIC_REPRESENTATION_CONTEXT() REPRESENTATION_CONTEXT('2D SPACE',''
  ) );
#929 = ORIENTED_EDGE('',*,*,#930,.F.);
#930 = EDGE_CURVE('',#22,#173,#931,.T.);
#931 = SURFACE_CURVE('',#932,(#936,#943),.PCURVE_S1.);
#932 = LINE('',#933,#934);
#933 = CARTESIAN_POINT('',(8.840182927215,-16.11762617533,
    17.207561570097));
#934 = VECTOR('',#935,1.);
#935 = DIRECTION('',(0.567229390419,0.823556303811,-2.415180895808E-03)
  );
#936 = PCURVE('',#887,#937);
#937 = DEFINITIONAL_REPRESENTATION('',(#938),#942);
#938 = LINE('',#939,#940);
#939 = CARTESIAN_POINT('',(7.156198294714,14.588193055671));
#940 = VECTOR('',#941,1.);
#941 = DIRECTION('',(0.823559696291,-0.567229606636));
#942 = ( GEOMETRIC_REPRESENTATION_CONTEXT(2) 
PARAMETRIC_REPRESENTATION_CONTEXT() REPRESENTATION_CONTEXT('2D SPACE',''
  ) );
#943 = PCURVE('',#44,#944);
#944 = DEFINITIONAL_REPRESENTATION('',(#945),#949);
#945 = LINE('',#946,#947);
#946 = CARTESIAN_POINT('',(6.057801954396,1.463159147812E-02));
#947 = VECTOR('',#948,1.);
#948 = DIRECTION('',(-0.999997083103,-2.415323067578E-03));
#949 = ( GEOMETRIC_REPRESENTATION_CONTEXT(2) 
PARAMETRIC_REPRESENTATION_CONTEXT() REPRESENTATION_CONTEXT('2D SPACE',''
  ) );
#950 = ORIENTED_EDGE('',*,*,#873,.T.);
#951 = ADVANCED_FACE('',(#952),#918,.T.);
#952 = FACE_BOUND('',#953,.T.);
#953 = EDGE_LOOP('',(#954,#975,#976));
#954 = ORIENTED_EDGE('',*,*,#955,.F.);
#955 = EDGE_CURVE('',#173,#636,#956,.T.);
#956 = SURFACE_CURVE('',#957,(#961,#968),.PCURVE_S1.);
#957 = LINE('',#958,#959);
#958 = CARTESIAN_POINT('',(12.27635626005,-11.12867063628,
    17.192930839869));
#959 = VECTOR('',#960,1.);
#960 = DIRECTION('',(0.307275309864,0.951620132949,1.003252072714E-03));
#961 = PCURVE('',#918,#962);
#962 = DEFINITIONAL_REPRESENTATION('',(#963),#967);
#963 = LINE('',#964,#965);
#964 = CARTESIAN_POINT('',(-11.11398114528,-34.41942221504));
#965 = VECTOR('',#966,1.);
#966 = DIRECTION('',(0.307276769188,0.951620190579));
#967 = ( GEOMETRIC_REPRESENTATION_CONTEXT(2) 
PARAMETRIC_REPRESENTATION_CONTEXT() REPRESENTATION_CONTEXT('2D SPACE',''
  ) );
#968 = PCURVE('',#330,#969);
#969 = DEFINITIONAL_REPRESENTATION('',(#970),#974);
#970 = LINE('',#971,#972);
#971 = CARTESIAN_POINT('',(-34.41943895841,11.113929291811));
#972 = VECTOR('',#973,1.);
#973 = DIRECTION('',(0.951620653496,-0.307275335555));
#974 = ( GEOMETRIC_REPRESENTATION_CONTEXT(2) 
PARAMETRIC_REPRESENTATION_CONTEXT() REPRESENTATION_CONTEXT('2D SPACE',''
  ) );
#975 = ORIENTED_EDGE('',*,*,#904,.T.);
#976 = ORIENTED_EDGE('',*,*,#977,.F.);
#977 = EDGE_CURVE('',#636,#742,#978,.T.);
#978 = SURFACE_CURVE('',#979,(#983,#990),.PCURVE_S1.);
#979 = LINE('',#980,#981);
#980 = CARTESIAN_POINT('',(23.390284622607,23.290749494325,
    17.229217750362));
#981 = VECTOR('',#982,1.);
#982 = DIRECTION('',(8.179148776327E-04,-0.999999603704,
    3.515777907379E-04));
#983 = PCURVE('',#918,#984);
#984 = DEFINITIONAL_REPRESENTATION('',(#985),#989);
#985 = LINE('',#986,#987);
#986 = CARTESIAN_POINT('',(0.,0.));
#987 = VECTOR('',#988,1.);
#988 = DIRECTION('',(8.194339884586E-04,-0.999999664264));
#989 = ( GEOMETRIC_REPRESENTATION_CONTEXT(2) 
PARAMETRIC_REPRESENTATION_CONTEXT() REPRESENTATION_CONTEXT('2D SPACE',''
  ) );
#990 = PCURVE('',#832,#991);
#991 = DEFINITIONAL_REPRESENTATION('',(#992),#996);
#992 = LINE('',#993,#994);
#993 = CARTESIAN_POINT('',(46.564499838882,-1.637105031936E-02));
#994 = VECTOR('',#995,1.);
#995 = DIRECTION('',(-0.999999938196,3.515779051469E-04));
#996 = ( GEOMETRIC_REPRESENTATION_CONTEXT(2) 
PARAMETRIC_REPRESENTATION_CONTEXT() REPRESENTATION_CONTEXT('2D SPACE',''
  ) );
#997 = ADVANCED_FACE('',(#998),#330,.T.);
#998 = FACE_BOUND('',#999,.T.);
#999 = EDGE_LOOP('',(#1000,#1001,#1002));
#1000 = ORIENTED_EDGE('',*,*,#664,.F.);
#1001 = ORIENTED_EDGE('',*,*,#316,.T.);
#1002 = ORIENTED_EDGE('',*,*,#955,.T.);
#1003 = ADVANCED_FACE('',(#1004),#593,.T.);
#1004 = FACE_BOUND('',#1005,.T.);
#1005 = EDGE_LOOP('',(#1006,#1007,#1008));
#1006 = ORIENTED_EDGE('',*,*,#795,.F.);
#1007 = ORIENTED_EDGE('',*,*,#577,.T.);
#1008 = ORIENTED_EDGE('',*,*,#1009,.T.);
#1009 = EDGE_CURVE('',#578,#796,#1010,.T.);
#1010 = SURFACE_CURVE('',#1011,(#1015,#1022),.PCURVE_S1.);
#1011 = LINE('',#1012,#1013);
#1012 = CARTESIAN_POINT('',(5.551597555951,-13.791453165,
    -2.85530212564E-02));
#1013 = VECTOR('',#1014,1.);
#1014 = DIRECTION('',(0.882736754843,-0.469859124471,2.867891152637E-03)
  );
#1015 = PCURVE('',#593,#1016);
#1016 = DEFINITIONAL_REPRESENTATION('',(#1017),#1021);
#1017 = LINE('',#1018,#1019);
#1018 = CARTESIAN_POINT('',(-9.508156073552,17.862908771449));
#1019 = VECTOR('',#1020,1.);
#1020 = DIRECTION('',(0.469867519924,-0.882736944803));
#1021 = ( GEOMETRIC_REPRESENTATION_CONTEXT(2) 
PARAMETRIC_REPRESENTATION_CONTEXT() REPRESENTATION_CONTEXT('2D SPACE',''
  ) );
#1022 = PCURVE('',#1023,#1028);
#1023 = PLANE('',#1024);
#1024 = AXIS2_PLACEMENT_3D('',#1025,#1026,#1027);
#1025 = CARTESIAN_POINT('',(23.414502483413,-23.29943934965,
    2.948111714419E-02));
#1026 = DIRECTION('',(4.853470216725E-03,3.014716823665E-03,
    -0.999983677521));
#1027 = DIRECTION('',(-0.999988221737,-9.37809362788E-22,
    -4.8534922723E-03));
#1028 = DEFINITIONAL_REPRESENTATION('',(#1029),#1033);
#1029 = LINE('',#1030,#1031);
#1030 = CARTESIAN_POINT('',(17.862976201712,9.508029391689));
#1031 = VECTOR('',#1032,1.);
#1032 = DIRECTION('',(-0.882740277025,-0.469861259647));
#1033 = ( GEOMETRIC_REPRESENTATION_CONTEXT(2) 
PARAMETRIC_REPRESENTATION_CONTEXT() REPRESENTATION_CONTEXT('2D SPACE',''
  ) );
#1034 = ADVANCED_FACE('',(#1035),#1023,.T.);
#1035 = FACE_BOUND('',#1036,.T.);
#1036 = EDGE_LOOP('',(#1037,#1038,#1066));
#1037 = ORIENTED_EDGE('',*,*,#1009,.F.);
#1038 = ORIENTED_EDGE('',*,*,#1039,.T.);
#1039 = EDGE_CURVE('',#578,#1040,#1042,.T.);
#1040 = VERTEX_POINT('',#1041);
#1041 = CARTESIAN_POINT('',(9.758493765742,-11.12802622723,
    -1.050334577622E-04));
#1042 = SURFACE_CURVE('',#1043,(#1047,#1054),.PCURVE_S1.);
#1043 = LINE('',#1044,#1045);
#1044 = CARTESIAN_POINT('',(5.551597555951,-13.791453165,
    -2.85530212564E-02));
#1045 = VECTOR('',#1046,1.);
#1046 = DIRECTION('',(0.844890671178,0.534908507571,5.713342641761E-03)
  );
#1047 = PCURVE('',#1023,#1048);
#1048 = DEFINITIONAL_REPRESENTATION('',(#1049),#1053);
#1049 = LINE('',#1050,#1051);
#1050 = CARTESIAN_POINT('',(17.862976201712,9.508029391689));
#1051 = VECTOR('',#1052,1.);
#1052 = DIRECTION('',(-0.844908449498,0.53491093835));
#1053 = ( GEOMETRIC_REPRESENTATION_CONTEXT(2) 
PARAMETRIC_REPRESENTATION_CONTEXT() REPRESENTATION_CONTEXT('2D SPACE',''
  ) );
#1054 = PCURVE('',#1055,#1060);
#1055 = PLANE('',#1056);
#1056 = AXIS2_PLACEMENT_3D('',#1057,#1058,#1059);
#1057 = CARTESIAN_POINT('',(9.827830405005,-11.08548386705,
    11.747468105656));
#1058 = DIRECTION('',(-0.534917706137,0.844904159155,9.748217348632E-05)
  );
#1059 = DIRECTION('',(0.84490416317,0.534917708679,1.406320895399E-21));
#1060 = DEFINITIONAL_REPRESENTATION('',(#1061),#1065);
#1061 = LINE('',#1062,#1063);
#1062 = CARTESIAN_POINT('',(-5.060477833468,11.776021182865));
#1063 = VECTOR('',#1064,1.);
#1064 = DIRECTION('',(0.999983678725,-5.713342668907E-03));
#1065 = ( GEOMETRIC_REPRESENTATION_CONTEXT(2) 
PARAMETRIC_REPRESENTATION_CONTEXT() REPRESENTATION_CONTEXT('2D SPACE',''
  ) );
#1066 = ORIENTED_EDGE('',*,*,#1067,.T.);
#1067 = EDGE_CURVE('',#1040,#796,#1068,.T.);
#1068 = SURFACE_CURVE('',#1069,(#1073,#1080),.PCURVE_S1.);
#1069 = LINE('',#1070,#1071);
#1070 = CARTESIAN_POINT('',(9.758493765742,-11.12802622723,
    -1.050334577622E-04));
#1071 = VECTOR('',#1072,1.);
#1072 = DIRECTION('',(0.74651899721,-0.665362135205,1.617355695599E-03)
  );
#1073 = PCURVE('',#1023,#1074);
#1074 = DEFINITIONAL_REPRESENTATION('',(#1075),#1079);
#1075 = LINE('',#1076,#1077);
#1076 = CARTESIAN_POINT('',(13.655991469763,12.171468432841));
#1077 = VECTOR('',#1078,1.);
#1078 = DIRECTION('',(-0.746518054336,-0.665365158804));
#1079 = ( GEOMETRIC_REPRESENTATION_CONTEXT(2) 
PARAMETRIC_REPRESENTATION_CONTEXT() REPRESENTATION_CONTEXT('2D SPACE',''
  ) );
#1080 = PCURVE('',#1081,#1086);
#1081 = PLANE('',#1082);
#1082 = AXIS2_PLACEMENT_3D('',#1083,#1084,#1085);
#1083 = CARTESIAN_POINT('',(23.396154930433,23.309891377678,
    -2.179559422566E-02));
#1084 = DIRECTION('',(1.186406361436E-03,-1.09966986921E-03,
    -0.999998691582));
#1085 = DIRECTION('',(-0.999999296219,-1.023836299531E-24,
    -1.186407078782E-03));
#1086 = DEFINITIONAL_REPRESENTATION('',(#1087),#1091);
#1087 = LINE('',#1088,#1089);
#1088 = CARTESIAN_POINT('',(13.637625832927,-34.43793842737));
#1089 = VECTOR('',#1090,1.);
#1090 = DIRECTION('',(-0.746520390666,-0.665362537508));
#1091 = ( GEOMETRIC_REPRESENTATION_CONTEXT(2) 
PARAMETRIC_REPRESENTATION_CONTEXT() REPRESENTATION_CONTEXT('2D SPACE',''
  ) );
#1092 = ADVANCED_FACE('',(#1093),#1081,.T.);
#1093 = FACE_BOUND('',#1094,.T.);
#1094 = EDGE_LOOP('',(#1095,#1116,#1117));
#1095 = ORIENTED_EDGE('',*,*,#1096,.T.);
#1096 = EDGE_CURVE('',#689,#796,#1097,.T.);
#1097 = SURFACE_CURVE('',#1098,(#1102,#1109),.PCURVE_S1.);
#1098 = LINE('',#1099,#1100);
#1099 = CARTESIAN_POINT('',(23.396154930433,23.309891377678,
    -2.179559422566E-02));
#1100 = VECTOR('',#1101,1.);
#1101 = DIRECTION('',(3.936452244557E-04,-0.99999931737,
    1.100137581181E-03));
#1102 = PCURVE('',#1081,#1103);
#1103 = DEFINITIONAL_REPRESENTATION('',(#1104),#1108);
#1104 = LINE('',#1105,#1106);
#1105 = CARTESIAN_POINT('',(-0.,0.));
#1106 = VECTOR('',#1107,1.);
#1107 = DIRECTION('',(-3.949501584296E-04,-0.999999922007));
#1108 = ( GEOMETRIC_REPRESENTATION_CONTEXT(2) 
PARAMETRIC_REPRESENTATION_CONTEXT() REPRESENTATION_CONTEXT('2D SPACE',''
  ) );
#1109 = PCURVE('',#704,#1110);
#1110 = DEFINITIONAL_REPRESENTATION('',(#1111),#1115);
#1111 = LINE('',#1112,#1113);
#1112 = CARTESIAN_POINT('',(46.609334338542,-5.127671434629E-02));
#1113 = VECTOR('',#1114,1.);
#1114 = DIRECTION('',(-0.999999394848,1.10013764504E-03));
#1115 = ( GEOMETRIC_REPRESENTATION_CONTEXT(2) 
PARAMETRIC_REPRESENTATION_CONTEXT() REPRESENTATION_CONTEXT('2D SPACE',''
  ) );
#1116 = ORIENTED_EDGE('',*,*,#1067,.F.);
#1117 = ORIENTED_EDGE('',*,*,#1118,.T.);
#1118 = EDGE_CURVE('',#1040,#689,#1119,.T.);
#1119 = SURFACE_CURVE('',#1120,(#1124,#1131),.PCURVE_S1.);
#1120 = LINE('',#1121,#1122);
#1121 = CARTESIAN_POINT('',(9.758493765742,-11.12802622723,
    -1.050334577622E-04));
#1122 = VECTOR('',#1123,1.);
#1123 = DIRECTION('',(0.368188088641,0.929751143294,-5.855993937844E-04)
  );
#1124 = PCURVE('',#1081,#1125);
#1125 = DEFINITIONAL_REPRESENTATION('',(#1126),#1130);
#1126 = LINE('',#1127,#1128);
#1127 = CARTESIAN_POINT('',(13.637625832927,-34.43793842737));
#1128 = VECTOR('',#1129,1.);
#1129 = DIRECTION('',(-0.368187134758,0.929751705456));
#1130 = ( GEOMETRIC_REPRESENTATION_CONTEXT(2) 
PARAMETRIC_REPRESENTATION_CONTEXT() REPRESENTATION_CONTEXT('2D SPACE',''
  ) );
#1131 = PCURVE('',#1132,#1137);
#1132 = PLANE('',#1133);
#1133 = AXIS2_PLACEMENT_3D('',#1134,#1135,#1136);
#1134 = CARTESIAN_POINT('',(23.396154930433,23.309891377678,
    -2.179559422566E-02));
#1135 = DIRECTION('',(-1.201929797066E-04,-5.82247917338E-04,
    -0.99999982327));
#1136 = DIRECTION('',(-9.650422381699E-26,-0.999999830494,
    5.822479215437E-04));
#1137 = DEFINITIONAL_REPRESENTATION('',(#1138),#1142);
#1138 = LINE('',#1139,#1140);
#1139 = CARTESIAN_POINT('',(34.437924396756,13.637661263198));
#1140 = VECTOR('',#1141,1.);
#1141 = DIRECTION('',(-0.929751326659,-0.3681880913));
#1142 = ( GEOMETRIC_REPRESENTATION_CONTEXT(2) 
PARAMETRIC_REPRESENTATION_CONTEXT() REPRESENTATION_CONTEXT('2D SPACE',''
  ) );
#1143 = ADVANCED_FACE('',(#1144),#1132,.T.);
#1144 = FACE_BOUND('',#1145,.T.);
#1145 = EDGE_LOOP('',(#1146,#1147,#1173));
#1146 = ORIENTED_EDGE('',*,*,#1118,.F.);
#1147 = ORIENTED_EDGE('',*,*,#1148,.F.);
#1148 = EDGE_CURVE('',#520,#1040,#1149,.T.);
#1149 = SURFACE_CURVE('',#1150,(#1154,#1161),.PCURVE_S1.);
#1150 = LINE('',#1151,#1152);
#1151 = CARTESIAN_POINT('',(3.858414991296,-11.25570501107,
    6.784554350837E-04));
#1152 = VECTOR('',#1153,1.);
#1153 = DIRECTION('',(0.999765924638,2.163511747159E-02,
    -1.327618710435E-04));
#1154 = PCURVE('',#1132,#1155);
#1155 = DEFINITIONAL_REPRESENTATION('',(#1156),#1160);
#1156 = LINE('',#1157,#1158);
#1157 = CARTESIAN_POINT('',(34.565603615132,19.537740080261));
#1158 = VECTOR('',#1159,1.);
#1159 = DIRECTION('',(-2.163519110463E-02,-0.999765931859));
#1160 = ( GEOMETRIC_REPRESENTATION_CONTEXT(2) 
PARAMETRIC_REPRESENTATION_CONTEXT() REPRESENTATION_CONTEXT('2D SPACE',''
  ) );
#1161 = PCURVE('',#1162,#1167);
#1162 = PLANE('',#1163);
#1163 = AXIS2_PLACEMENT_3D('',#1164,#1165,#1166);
#1164 = CARTESIAN_POINT('',(3.877405194223,-10.66112910607,
    11.739592631335));
#1165 = DIRECTION('',(2.161417849727E-02,-0.998488203233,
    5.053845360349E-02));
#1166 = DIRECTION('',(9.79681445271E-20,-5.055026283458E-02,
    -0.998721518206));
#1167 = DEFINITIONAL_REPRESENTATION('',(#1168),#1172);
#1168 = LINE('',#1169,#1170);
#1169 = CARTESIAN_POINT('',(11.753962156116,-1.899464033428E-02));
#1170 = VECTOR('',#1171,1.);
#1171 = DIRECTION('',(-9.610687372377E-04,0.999999538173));
#1172 = ( GEOMETRIC_REPRESENTATION_CONTEXT(2) 
PARAMETRIC_REPRESENTATION_CONTEXT() REPRESENTATION_CONTEXT('2D SPACE',''
  ) );
#1173 = ORIENTED_EDGE('',*,*,#1174,.T.);
#1174 = EDGE_CURVE('',#520,#689,#1175,.T.);
#1175 = SURFACE_CURVE('',#1176,(#1180,#1187),.PCURVE_S1.);
#1176 = LINE('',#1177,#1178);
#1177 = CARTESIAN_POINT('',(3.858414991296,-11.25570501107,
    6.784554350837E-04));
#1178 = VECTOR('',#1179,1.);
#1179 = DIRECTION('',(0.492069846643,0.870555538517,-5.660225903535E-04)
  );
#1180 = PCURVE('',#1132,#1181);
#1181 = DEFINITIONAL_REPRESENTATION('',(#1182),#1186);
#1182 = LINE('',#1183,#1184);
#1183 = CARTESIAN_POINT('',(34.565603615132,19.537740080261));
#1184 = VECTOR('',#1185,1.);
#1185 = DIRECTION('',(-0.870555720518,-0.492069850197));
#1186 = ( GEOMETRIC_REPRESENTATION_CONTEXT(2) 
PARAMETRIC_REPRESENTATION_CONTEXT() REPRESENTATION_CONTEXT('2D SPACE',''
  ) );
#1187 = PCURVE('',#535,#1188);
#1188 = DEFINITIONAL_REPRESENTATION('',(#1189),#1193);
#1189 = LINE('',#1190,#1191);
#1190 = CARTESIAN_POINT('',(34.565603327926,19.537740588379));
#1191 = VECTOR('',#1192,1.);
#1192 = DIRECTION('',(-0.870555713285,-0.492069862994));
#1193 = ( GEOMETRIC_REPRESENTATION_CONTEXT(2) 
PARAMETRIC_REPRESENTATION_CONTEXT() REPRESENTATION_CONTEXT('2D SPACE',''
  ) );
#1194 = ADVANCED_FACE('',(#1195),#535,.T.);
#1195 = FACE_BOUND('',#1196,.T.);
#1196 = EDGE_LOOP('',(#1197,#1198,#1199));
#1197 = ORIENTED_EDGE('',*,*,#1174,.F.);
#1198 = ORIENTED_EDGE('',*,*,#519,.F.);
#1199 = ORIENTED_EDGE('',*,*,#716,.T.);
#1200 = ADVANCED_FACE('',(#1201),#704,.T.);
#1201 = FACE_BOUND('',#1202,.T.);
#1202 = EDGE_LOOP('',(#1203,#1204,#1205));
#1203 = ORIENTED_EDGE('',*,*,#1096,.F.);
#1204 = ORIENTED_EDGE('',*,*,#688,.F.);
#1205 = ORIENTED_EDGE('',*,*,#1206,.T.);
#1206 = EDGE_CURVE('',#636,#796,#1207,.T.);
#1207 = SURFACE_CURVE('',#1208,(#1212,#1219),.PCURVE_S1.);
#1208 = LINE('',#1209,#1210);
#1209 = CARTESIAN_POINT('',(23.390284622607,23.290749494325,
    17.229217750362));
#1210 = VECTOR('',#1211,1.);
#1211 = DIRECTION('',(4.876376437157E-04,-0.938114645625,-0.346324521039
    ));
#1212 = PCURVE('',#704,#1213);
#1213 = DEFINITIONAL_REPRESENTATION('',(#1214),#1218);
#1214 = LINE('',#1215,#1216);
#1215 = CARTESIAN_POINT('',(46.590194769696,17.199737631607));
#1216 = VECTOR('',#1217,1.);
#1217 = DIRECTION('',(-0.938114764942,-0.346324541142));
#1218 = ( GEOMETRIC_REPRESENTATION_CONTEXT(2) 
PARAMETRIC_REPRESENTATION_CONTEXT() REPRESENTATION_CONTEXT('2D SPACE',''
  ) );
#1219 = PCURVE('',#832,#1220);
#1220 = DEFINITIONAL_REPRESENTATION('',(#1221),#1225);
#1221 = LINE('',#1222,#1223);
#1222 = CARTESIAN_POINT('',(46.564499838882,-1.637105031936E-02));
#1223 = VECTOR('',#1224,1.);
#1224 = DIRECTION('',(-0.938114730758,-0.346324633739));
#1225 = ( GEOMETRIC_REPRESENTATION_CONTEXT(2) 
PARAMETRIC_REPRESENTATION_CONTEXT() REPRESENTATION_CONTEXT('2D SPACE',''
  ) );
#1226 = ADVANCED_FACE('',(#1227),#832,.T.);
#1227 = FACE_BOUND('',#1228,.T.);
#1228 = EDGE_LOOP('',(#1229,#1230,#1231));
#1229 = ORIENTED_EDGE('',*,*,#818,.F.);
#1230 = ORIENTED_EDGE('',*,*,#1206,.F.);
#1231 = ORIENTED_EDGE('',*,*,#977,.T.);
#1232 = ADVANCED_FACE('',(#1233),#44,.T.);
#1233 = FACE_BOUND('',#1234,.T.);
#1234 = EDGE_LOOP('',(#1235,#1256,#1257));
#1235 = ORIENTED_EDGE('',*,*,#1236,.F.);
#1236 = EDGE_CURVE('',#24,#173,#1237,.T.);
#1237 = SURFACE_CURVE('',#1238,(#1242,#1249),.PCURVE_S1.);
#1238 = LINE('',#1239,#1240);
#1239 = CARTESIAN_POINT('',(8.852081609597,-16.2048862485,
    11.742955976389));
#1240 = VECTOR('',#1241,1.);
#1241 = DIRECTION('',(0.417731640779,0.619254029861,0.66484939858));
#1242 = PCURVE('',#44,#1243);
#1243 = DEFINITIONAL_REPRESENTATION('',(#1244),#1248);
#1244 = LINE('',#1245,#1246);
#1245 = CARTESIAN_POINT('',(6.122917999185,-5.450295681094));
#1246 = VECTOR('',#1247,1.);
#1247 = DIRECTION('',(-0.746942591716,0.664888535531));
#1248 = ( GEOMETRIC_REPRESENTATION_CONTEXT(2) 
PARAMETRIC_REPRESENTATION_CONTEXT() REPRESENTATION_CONTEXT('2D SPACE',''
  ) );
#1249 = PCURVE('',#272,#1250);
#1250 = DEFINITIONAL_REPRESENTATION('',(#1251),#1255);
#1251 = LINE('',#1252,#1253);
#1252 = CARTESIAN_POINT('',(6.123170973593,-5.450011473773));
#1253 = VECTOR('',#1254,1.);
#1254 = DIRECTION('',(-0.746973452387,0.664853864717));
#1255 = ( GEOMETRIC_REPRESENTATION_CONTEXT(2) 
PARAMETRIC_REPRESENTATION_CONTEXT() REPRESENTATION_CONTEXT('2D SPACE',''
  ) );
#1256 = ORIENTED_EDGE('',*,*,#21,.F.);
#1257 = ORIENTED_EDGE('',*,*,#930,.T.);
#1258 = ADVANCED_FACE('',(#1259),#272,.T.);
#1259 = FACE_BOUND('',#1260,.T.);
#1260 = EDGE_LOOP('',(#1261,#1262,#1288));
#1261 = ORIENTED_EDGE('',*,*,#258,.T.);
#1262 = ORIENTED_EDGE('',*,*,#1263,.F.);
#1263 = EDGE_CURVE('',#24,#231,#1264,.T.);
#1264 = SURFACE_CURVE('',#1265,(#1269,#1276),.PCURVE_S1.);
#1265 = LINE('',#1266,#1267);
#1266 = CARTESIAN_POINT('',(8.852081609597,-16.2048862485,
    11.742955976389));
#1267 = VECTOR('',#1268,1.);
#1268 = DIRECTION('',(0.556529333821,0.830797720638,7.08858093306E-03));
#1269 = PCURVE('',#272,#1270);
#1270 = DEFINITIONAL_REPRESENTATION('',(#1271),#1275);
#1271 = LINE('',#1272,#1273);
#1272 = CARTESIAN_POINT('',(6.123170973593,-5.450011473773));
#1273 = VECTOR('',#1274,1.);
#1274 = DIRECTION('',(-0.999974875357,7.088628550714E-03));
#1275 = ( GEOMETRIC_REPRESENTATION_CONTEXT(2) 
PARAMETRIC_REPRESENTATION_CONTEXT() REPRESENTATION_CONTEXT('2D SPACE',''
  ) );
#1276 = PCURVE('',#1277,#1282);
#1277 = PLANE('',#1278);
#1278 = AXIS2_PLACEMENT_3D('',#1279,#1280,#1281);
#1279 = CARTESIAN_POINT('',(12.276893963557,-11.0922603286,
    11.78657822247));
#1280 = DIRECTION('',(-2.810032822248E-03,-6.649669817683E-03,
    0.999973942464));
#1281 = DIRECTION('',(-8.972421478927E-22,0.999977890527,
    6.649696071681E-03));
#1282 = DEFINITIONAL_REPRESENTATION('',(#1283),#1287);
#1283 = LINE('',#1284,#1285);
#1284 = CARTESIAN_POINT('',(-5.112802957118,3.424825875687));
#1285 = VECTOR('',#1286,1.);
#1286 = DIRECTION('',(0.830826489047,-0.556531531091));
#1287 = ( GEOMETRIC_REPRESENTATION_CONTEXT(2) 
PARAMETRIC_REPRESENTATION_CONTEXT() REPRESENTATION_CONTEXT('2D SPACE',''
  ) );
#1288 = ORIENTED_EDGE('',*,*,#1236,.T.);
#1289 = ADVANCED_FACE('',(#1290),#1162,.T.);
#1290 = FACE_BOUND('',#1291,.T.);
#1291 = EDGE_LOOP('',(#1292,#1315,#1316));
#1292 = ORIENTED_EDGE('',*,*,#1293,.F.);
#1293 = EDGE_CURVE('',#520,#1294,#1296,.T.);
#1294 = VERTEX_POINT('',#1295);
#1295 = CARTESIAN_POINT('',(3.877405194223,-10.66112910607,
    11.739592631335));
#1296 = SURFACE_CURVE('',#1297,(#1301,#1308),.PCURVE_S1.);
#1297 = LINE('',#1298,#1299);
#1298 = CARTESIAN_POINT('',(3.858414991296,-11.25570501107,
    6.784554350837E-04));
#1299 = VECTOR('',#1300,1.);
#1300 = DIRECTION('',(1.615640571094E-03,5.058508107576E-02,
    0.998718448452));
#1301 = PCURVE('',#1162,#1302);
#1302 = DEFINITIONAL_REPRESENTATION('',(#1303),#1307);
#1303 = LINE('',#1304,#1305);
#1304 = CARTESIAN_POINT('',(11.753962156116,-1.899464033428E-02));
#1305 = VECTOR('',#1306,1.);
#1306 = DIRECTION('',(-0.999998694242,1.61601809497E-03));
#1307 = ( GEOMETRIC_REPRESENTATION_CONTEXT(2) 
PARAMETRIC_REPRESENTATION_CONTEXT() REPRESENTATION_CONTEXT('2D SPACE',''
  ) );
#1308 = PCURVE('',#620,#1309);
#1309 = DEFINITIONAL_REPRESENTATION('',(#1310),#1314);
#1310 = LINE('',#1311,#1312);
#1311 = CARTESIAN_POINT('',(-0.483832132523,-11.74401522611));
#1312 = VECTOR('',#1313,1.);
#1313 = DIRECTION('',(4.116326854971E-02,0.999152433477));
#1314 = ( GEOMETRIC_REPRESENTATION_CONTEXT(2) 
PARAMETRIC_REPRESENTATION_CONTEXT() REPRESENTATION_CONTEXT('2D SPACE',''
  ) );
#1315 = ORIENTED_EDGE('',*,*,#1148,.T.);
#1316 = ORIENTED_EDGE('',*,*,#1317,.F.);
#1317 = EDGE_CURVE('',#1294,#1040,#1318,.T.);
#1318 = SURFACE_CURVE('',#1319,(#1323,#1330),.PCURVE_S1.);
#1319 = LINE('',#1320,#1321);
#1320 = CARTESIAN_POINT('',(3.877405194223,-10.66112910607,
    11.739592631335));
#1321 = VECTOR('',#1322,1.);
#1322 = DIRECTION('',(0.447615377085,-3.553599446929E-02,-0.893519819195
    ));
#1323 = PCURVE('',#1162,#1324);
#1324 = DEFINITIONAL_REPRESENTATION('',(#1325),#1329);
#1325 = LINE('',#1326,#1327);
#1326 = CARTESIAN_POINT('',(0.,0.));
#1327 = VECTOR('',#1328,1.);
#1328 = DIRECTION('',(0.894173824234,0.447719970579));
#1329 = ( GEOMETRIC_REPRESENTATION_CONTEXT(2) 
PARAMETRIC_REPRESENTATION_CONTEXT() REPRESENTATION_CONTEXT('2D SPACE',''
  ) );
#1330 = PCURVE('',#1331,#1336);
#1331 = PLANE('',#1332);
#1332 = AXIS2_PLACEMENT_3D('',#1333,#1334,#1335);
#1333 = CARTESIAN_POINT('',(3.877405194223,-10.66112910607,
    11.739592631335));
#1334 = DIRECTION('',(-7.113910329128E-02,-0.997458255054,
    4.032047652788E-03));
#1335 = DIRECTION('',(-0.997466363196,7.113968156706E-02,
    -5.548468766585E-20));
#1336 = DEFINITIONAL_REPRESENTATION('',(#1337),#1341);
#1337 = LINE('',#1338,#1339);
#1338 = CARTESIAN_POINT('',(0.,-0.));
#1339 = VECTOR('',#1340,1.);
#1340 = DIRECTION('',(-0.449009301622,0.893527082442));
#1341 = ( GEOMETRIC_REPRESENTATION_CONTEXT(2) 
PARAMETRIC_REPRESENTATION_CONTEXT() REPRESENTATION_CONTEXT('2D SPACE',''
  ) );
#1342 = ADVANCED_FACE('',(#1343),#1331,.T.);
#1343 = FACE_BOUND('',#1344,.T.);
#1344 = EDGE_LOOP('',(#1345,#1346,#1369));
#1345 = ORIENTED_EDGE('',*,*,#1317,.T.);
#1346 = ORIENTED_EDGE('',*,*,#1347,.T.);
#1347 = EDGE_CURVE('',#1040,#1348,#1350,.T.);
#1348 = VERTEX_POINT('',#1349);
#1349 = CARTESIAN_POINT('',(9.827830405005,-11.08548386705,
    11.747468105656));
#1350 = SURFACE_CURVE('',#1351,(#1355,#1362),.PCURVE_S1.);
#1351 = LINE('',#1352,#1353);
#1352 = CARTESIAN_POINT('',(9.758493765742,-11.12802622723,
    -1.050334577622E-04));
#1353 = VECTOR('',#1354,1.);
#1354 = DIRECTION('',(5.902068124302E-03,3.621287542437E-03,
    0.999976025647));
#1355 = PCURVE('',#1331,#1356);
#1356 = DEFINITIONAL_REPRESENTATION('',(#1357),#1361);
#1357 = LINE('',#1358,#1359);
#1358 = CARTESIAN_POINT('',(-5.899402941588,11.739793094485));
#1359 = VECTOR('',#1360,1.);
#1360 = DIRECTION('',(-5.629497184648E-03,-0.999984154255));
#1361 = ( GEOMETRIC_REPRESENTATION_CONTEXT(2) 
PARAMETRIC_REPRESENTATION_CONTEXT() REPRESENTATION_CONTEXT('2D SPACE',''
  ) );
#1362 = PCURVE('',#1055,#1363);
#1363 = DEFINITIONAL_REPRESENTATION('',(#1364),#1368);
#1364 = LINE('',#1365,#1366);
#1365 = CARTESIAN_POINT('',(-8.133947700742E-02,11.747573194931));
#1366 = VECTOR('',#1367,1.);
#1367 = DIRECTION('',(6.923772764202E-03,-0.999976030398));
#1368 = ( GEOMETRIC_REPRESENTATION_CONTEXT(2) 
PARAMETRIC_REPRESENTATION_CONTEXT() REPRESENTATION_CONTEXT('2D SPACE',''
  ) );
#1369 = ORIENTED_EDGE('',*,*,#1370,.F.);
#1370 = EDGE_CURVE('',#1294,#1348,#1371,.T.);
#1371 = SURFACE_CURVE('',#1372,(#1376,#1383),.PCURVE_S1.);
#1372 = LINE('',#1373,#1374);
#1373 = CARTESIAN_POINT('',(3.877405194223,-10.66112910607,
    11.739592631335));
#1374 = VECTOR('',#1375,1.);
#1375 = DIRECTION('',(0.997465872653,-7.11343100669E-02,
    1.320160591475E-03));
#1376 = PCURVE('',#1331,#1377);
#1377 = DEFINITIONAL_REPRESENTATION('',(#1378),#1382);
#1378 = LINE('',#1379,#1380);
#1379 = CARTESIAN_POINT('',(0.,-0.));
#1380 = VECTOR('',#1381,1.);
#1381 = DIRECTION('',(-0.999999128573,-1.3201713228E-03));
#1382 = ( GEOMETRIC_REPRESENTATION_CONTEXT(2) 
PARAMETRIC_REPRESENTATION_CONTEXT() REPRESENTATION_CONTEXT('2D SPACE',''
  ) );
#1383 = PCURVE('',#1384,#1389);
#1384 = PLANE('',#1385);
#1385 = AXIS2_PLACEMENT_3D('',#1386,#1387,#1388);
#1386 = CARTESIAN_POINT('',(1.828381801114,-8.822317670249,
    11.785524693351));
#1387 = DIRECTION('',(-3.371537347008E-03,-2.872573227167E-02,
    0.99958164501));
#1388 = DIRECTION('',(-1.911734625252E-20,0.999587326313,
    2.872589553956E-02));
#1389 = DEFINITIONAL_REPRESENTATION('',(#1390),#1394);
#1390 = LINE('',#1391,#1392);
#1391 = CARTESIAN_POINT('',(-1.839372046345,-2.049035039104));
#1392 = VECTOR('',#1393,1.);
#1393 = DIRECTION('',(-7.106703201364E-02,-0.99747154193));
#1394 = ( GEOMETRIC_REPRESENTATION_CONTEXT(2) 
PARAMETRIC_REPRESENTATION_CONTEXT() REPRESENTATION_CONTEXT('2D SPACE',''
  ) );
#1395 = ADVANCED_FACE('',(#1396),#620,.T.);
#1396 = FACE_BOUND('',#1397,.T.);
#1397 = EDGE_LOOP('',(#1398,#1424,#1425));
#1398 = ORIENTED_EDGE('',*,*,#1399,.T.);
#1399 = EDGE_CURVE('',#1294,#578,#1400,.T.);
#1400 = SURFACE_CURVE('',#1401,(#1405,#1412),.PCURVE_S1.);
#1401 = LINE('',#1402,#1403);
#1402 = CARTESIAN_POINT('',(3.877405194223,-10.66112910607,
    11.739592631335));
#1403 = VECTOR('',#1404,1.);
#1404 = DIRECTION('',(0.136202761643,-0.254665348744,-0.957389350197));
#1405 = PCURVE('',#620,#1406);
#1406 = DEFINITIONAL_REPRESENTATION('',(#1407),#1411);
#1407 = LINE('',#1408,#1409);
#1408 = CARTESIAN_POINT('',(0.,0.));
#1409 = VECTOR('',#1410,1.);
#1410 = DIRECTION('',(-0.287417573772,-0.957805375996));
#1411 = ( GEOMETRIC_REPRESENTATION_CONTEXT(2) 
PARAMETRIC_REPRESENTATION_CONTEXT() REPRESENTATION_CONTEXT('2D SPACE',''
  ) );
#1412 = PCURVE('',#1413,#1418);
#1413 = PLANE('',#1414);
#1414 = AXIS2_PLACEMENT_3D('',#1415,#1416,#1417);
#1415 = CARTESIAN_POINT('',(9.064330520394,-13.0431032709,
    11.764577779042));
#1416 = DIRECTION('',(0.411281537553,0.893716179093,-0.179217432453));
#1417 = DIRECTION('',(0.908424027726,-0.418049980086,3.799203560624E-18)
  );
#1418 = DEFINITIONAL_REPRESENTATION('',(#1419),#1423);
#1419 = LINE('',#1420,#1421);
#1420 = CARTESIAN_POINT('',(-5.70771184849,2.539632720527E-02));
#1421 = VECTOR('',#1422,1.);
#1422 = DIRECTION('',(0.23019270529,0.973145065461));
#1423 = ( GEOMETRIC_REPRESENTATION_CONTEXT(2) 
PARAMETRIC_REPRESENTATION_CONTEXT() REPRESENTATION_CONTEXT('2D SPACE',''
  ) );
#1424 = ORIENTED_EDGE('',*,*,#606,.F.);
#1425 = ORIENTED_EDGE('',*,*,#1293,.T.);
#1426 = ADVANCED_FACE('',(#1427),#1413,.T.);
#1427 = FACE_BOUND('',#1428,.T.);
#1428 = EDGE_LOOP('',(#1429,#1457,#1458));
#1429 = ORIENTED_EDGE('',*,*,#1430,.F.);
#1430 = EDGE_CURVE('',#578,#1431,#1433,.T.);
#1431 = VERTEX_POINT('',#1432);
#1432 = CARTESIAN_POINT('',(9.064330520394,-13.0431032709,
    11.764577779042));
#1433 = SURFACE_CURVE('',#1434,(#1438,#1445),.PCURVE_S1.);
#1434 = LINE('',#1435,#1436);
#1435 = CARTESIAN_POINT('',(5.551597555951,-13.791453165,
    -2.85530212564E-02));
#1436 = VECTOR('',#1437,1.);
#1437 = DIRECTION('',(0.28494158709,6.07037337258E-02,0.956620796689));
#1438 = PCURVE('',#1413,#1439);
#1439 = DEFINITIONAL_REPRESENTATION('',(#1440),#1444);
#1440 = LINE('',#1441,#1442);
#1441 = CARTESIAN_POINT('',(-2.878203369559,11.987209845493));
#1442 = VECTOR('',#1443,1.);
#1443 = DIRECTION('',(0.233470589536,-0.972363863902));
#1444 = ( GEOMETRIC_REPRESENTATION_CONTEXT(2) 
PARAMETRIC_REPRESENTATION_CONTEXT() REPRESENTATION_CONTEXT('2D SPACE',''
  ) );
#1445 = PCURVE('',#1446,#1451);
#1446 = PLANE('',#1447);
#1447 = AXIS2_PLACEMENT_3D('',#1448,#1449,#1450);
#1448 = CARTESIAN_POINT('',(9.827830405005,-11.08548386705,
    11.747468105656));
#1449 = DIRECTION('',(-0.902224960359,0.354033225003,0.246273418174));
#1450 = DIRECTION('',(-0.365283822869,-0.93089619655,-1.161476500436E-17
    ));
#1451 = DEFINITIONAL_REPRESENTATION('',(#1452),#1456);
#1452 = LINE('',#1453,#1454);
#1453 = CARTESIAN_POINT('',(4.081015210027,-12.15024385178));
#1454 = VECTOR('',#1455,1.);
#1455 = DIRECTION('',(-0.160593427068,0.987020643747));
#1456 = ( GEOMETRIC_REPRESENTATION_CONTEXT(2) 
PARAMETRIC_REPRESENTATION_CONTEXT() REPRESENTATION_CONTEXT('2D SPACE',''
  ) );
#1457 = ORIENTED_EDGE('',*,*,#1399,.F.);
#1458 = ORIENTED_EDGE('',*,*,#1459,.T.);
#1459 = EDGE_CURVE('',#1294,#1431,#1460,.T.);
#1460 = SURFACE_CURVE('',#1461,(#1465,#1472),.PCURVE_S1.);
#1461 = LINE('',#1462,#1463);
#1462 = CARTESIAN_POINT('',(3.877405194223,-10.66112910607,
    11.739592631335));
#1463 = VECTOR('',#1464,1.);
#1464 = DIRECTION('',(0.908748395095,-0.417321450249,4.377393436721E-03)
  );
#1465 = PCURVE('',#1413,#1466);
#1466 = DEFINITIONAL_REPRESENTATION('',(#1467),#1471);
#1467 = LINE('',#1468,#1469);
#1468 = CARTESIAN_POINT('',(-5.70771184849,2.539632720527E-02));
#1469 = VECTOR('',#1470,1.);
#1470 = DIRECTION('',(0.999990101228,-4.449432011805E-03));
#1471 = ( GEOMETRIC_REPRESENTATION_CONTEXT(2) 
PARAMETRIC_REPRESENTATION_CONTEXT() REPRESENTATION_CONTEXT('2D SPACE',''
  ) );
#1472 = PCURVE('',#1473,#1478);
#1473 = PLANE('',#1474);
#1474 = AXIS2_PLACEMENT_3D('',#1475,#1476,#1477);
#1475 = CARTESIAN_POINT('',(9.064330520394,-13.0431032709,
    11.764577779042));
#1476 = DIRECTION('',(-7.719006705959E-03,-6.319970739921E-03,
    0.999950236214));
#1477 = DIRECTION('',(0.999970206834,-2.70760056968E-21,
    7.719160866977E-03));
#1478 = DEFINITIONAL_REPRESENTATION('',(#1479),#1483);
#1479 = LINE('',#1480,#1481);
#1480 = CARTESIAN_POINT('',(-5.186963655618,2.382021736703));
#1481 = VECTOR('',#1482,1.);
#1482 = DIRECTION('',(0.908755110408,-0.417329784832));
#1483 = ( GEOMETRIC_REPRESENTATION_CONTEXT(2) 
PARAMETRIC_REPRESENTATION_CONTEXT() REPRESENTATION_CONTEXT('2D SPACE',''
  ) );
#1484 = ADVANCED_FACE('',(#1485),#1055,.T.);
#1485 = FACE_BOUND('',#1486,.T.);
#1486 = EDGE_LOOP('',(#1487,#1488,#1489));
#1487 = ORIENTED_EDGE('',*,*,#1347,.F.);
#1488 = ORIENTED_EDGE('',*,*,#1039,.F.);
#1489 = ORIENTED_EDGE('',*,*,#1490,.T.);
#1490 = EDGE_CURVE('',#578,#1348,#1491,.T.);
#1491 = SURFACE_CURVE('',#1492,(#1496,#1503),.PCURVE_S1.);
#1492 = LINE('',#1493,#1494);
#1493 = CARTESIAN_POINT('',(5.551597555951,-13.791453165,
    -2.85530212564E-02));
#1494 = VECTOR('',#1495,1.);
#1495 = DIRECTION('',(0.33362983939,0.211118555546,0.918760080637));
#1496 = PCURVE('',#1055,#1497);
#1497 = DEFINITIONAL_REPRESENTATION('',(#1498),#1502);
#1498 = LINE('',#1499,#1500);
#1499 = CARTESIAN_POINT('',(-5.060477833468,11.776021182865));
#1500 = VECTOR('',#1501,1.);
#1501 = DIRECTION('',(0.39481629425,-0.918760085003));
#1502 = ( GEOMETRIC_REPRESENTATION_CONTEXT(2) 
PARAMETRIC_REPRESENTATION_CONTEXT() REPRESENTATION_CONTEXT('2D SPACE',''
  ) );
#1503 = PCURVE('',#1446,#1504);
#1504 = DEFINITIONAL_REPRESENTATION('',(#1505),#1509);
#1505 = LINE('',#1506,#1507);
#1506 = CARTESIAN_POINT('',(4.081015210027,-12.15024385178));
#1507 = VECTOR('',#1508,1.);
#1508 = DIRECTION('',(-0.318399043534,0.947956775954));
#1509 = ( GEOMETRIC_REPRESENTATION_CONTEXT(2) 
PARAMETRIC_REPRESENTATION_CONTEXT() REPRESENTATION_CONTEXT('2D SPACE',''
  ) );
#1510 = ADVANCED_FACE('',(#1511),#1446,.T.);
#1511 = FACE_BOUND('',#1512,.T.);
#1512 = EDGE_LOOP('',(#1513,#1514,#1515));
#1513 = ORIENTED_EDGE('',*,*,#1490,.F.);
#1514 = ORIENTED_EDGE('',*,*,#1430,.T.);
#1515 = ORIENTED_EDGE('',*,*,#1516,.T.);
#1516 = EDGE_CURVE('',#1431,#1348,#1517,.T.);
#1517 = SURFACE_CURVE('',#1518,(#1522,#1529),.PCURVE_S1.);
#1518 = LINE('',#1519,#1520);
#1519 = CARTESIAN_POINT('',(9.064330520394,-13.0431032709,
    11.764577779042));
#1520 = VECTOR('',#1521,1.);
#1521 = DIRECTION('',(0.363344928488,0.931619109102,-8.142388988067E-03)
  );
#1522 = PCURVE('',#1446,#1523);
#1523 = DEFINITIONAL_REPRESENTATION('',(#1524),#1528);
#1524 = LINE('',#1525,#1526);
#1525 = CARTESIAN_POINT('',(2.101234613954,1.765339087139E-02));
#1526 = VECTOR('',#1527,1.);
#1527 = DIRECTION('',(-0.999964709794,-8.401140816146E-03));
#1528 = ( GEOMETRIC_REPRESENTATION_CONTEXT(2) 
PARAMETRIC_REPRESENTATION_CONTEXT() REPRESENTATION_CONTEXT('2D SPACE',''
  ) );
#1529 = PCURVE('',#1530,#1535);
#1530 = PLANE('',#1531);
#1531 = AXIS2_PLACEMENT_3D('',#1532,#1533,#1534);
#1532 = CARTESIAN_POINT('',(12.276893963557,-11.0922603286,
    11.78657822247));
#1533 = DIRECTION('',(-1.592424502697E-02,1.494864172937E-02,
    0.999761449812));
#1534 = DIRECTION('',(0.999873172828,2.779154228455E-20,
    1.592602455616E-02));
#1535 = DEFINITIONAL_REPRESENTATION('',(#1536),#1540);
#1536 = LINE('',#1537,#1538);
#1537 = CARTESIAN_POINT('',(-3.21250638243,-1.951060948372));
#1538 = VECTOR('',#1539,1.);
#1539 = DIRECTION('',(0.363169170591,0.931723217234));
#1540 = ( GEOMETRIC_REPRESENTATION_CONTEXT(2) 
PARAMETRIC_REPRESENTATION_CONTEXT() REPRESENTATION_CONTEXT('2D SPACE',''
  ) );
#1541 = ADVANCED_FACE('',(#1542),#72,.T.);
#1542 = FACE_BOUND('',#1543,.T.);
#1543 = EDGE_LOOP('',(#1544,#1565,#1566));
#1544 = ORIENTED_EDGE('',*,*,#1545,.F.);
#1545 = EDGE_CURVE('',#57,#1294,#1546,.T.);
#1546 = SURFACE_CURVE('',#1547,(#1551,#1558),.PCURVE_S1.);
#1547 = LINE('',#1548,#1549);
#1548 = CARTESIAN_POINT('',(1.828381801114,-8.822317670249,
    11.785524693351));
#1549 = VECTOR('',#1550,1.);
#1550 = DIRECTION('',(0.744148785906,-0.667805600502,-1.668125815371E-02
    ));
#1551 = PCURVE('',#72,#1552);
#1552 = DEFINITIONAL_REPRESENTATION('',(#1553),#1557);
#1553 = LINE('',#1554,#1555);
#1554 = CARTESIAN_POINT('',(-2.040302838196,1.849053391549));
#1555 = VECTOR('',#1556,1.);
#1556 = DIRECTION('',(0.740981720867,-0.671525196356));
#1557 = ( GEOMETRIC_REPRESENTATION_CONTEXT(2) 
PARAMETRIC_REPRESENTATION_CONTEXT() REPRESENTATION_CONTEXT('2D SPACE',''
  ) );
#1558 = PCURVE('',#1384,#1559);
#1559 = DEFINITIONAL_REPRESENTATION('',(#1560),#1564);
#1560 = LINE('',#1561,#1562);
#1561 = CARTESIAN_POINT('',(0.,0.));
#1562 = VECTOR('',#1563,1.);
#1563 = DIRECTION('',(-0.668009198782,-0.744153015409));
#1564 = ( GEOMETRIC_REPRESENTATION_CONTEXT(2) 
PARAMETRIC_REPRESENTATION_CONTEXT() REPRESENTATION_CONTEXT('2D SPACE',''
  ) );
#1565 = ORIENTED_EDGE('',*,*,#56,.T.);
#1566 = ORIENTED_EDGE('',*,*,#1567,.F.);
#1567 = EDGE_CURVE('',#1294,#24,#1568,.T.);
#1568 = SURFACE_CURVE('',#1569,(#1573,#1580),.PCURVE_S1.);
#1569 = LINE('',#1570,#1571);
#1570 = CARTESIAN_POINT('',(3.877405194223,-10.66112910607,
    11.739592631335));
#1571 = VECTOR('',#1572,1.);
#1572 = DIRECTION('',(0.667873216275,-0.7442749244,4.515445610614E-04));
#1573 = PCURVE('',#72,#1574);
#1574 = DEFINITIONAL_REPRESENTATION('',(#1575),#1579);
#1575 = LINE('',#1576,#1577);
#1576 = CARTESIAN_POINT('',(0.,0.));
#1577 = VECTOR('',#1578,1.);
#1578 = DIRECTION('',(0.663224575386,-0.748420445073));
#1579 = ( GEOMETRIC_REPRESENTATION_CONTEXT(2) 
PARAMETRIC_REPRESENTATION_CONTEXT() REPRESENTATION_CONTEXT('2D SPACE',''
  ) );
#1580 = PCURVE('',#1473,#1581);
#1581 = DEFINITIONAL_REPRESENTATION('',(#1582),#1586);
#1582 = LINE('',#1583,#1584);
#1583 = CARTESIAN_POINT('',(-5.186963655618,2.382021736703));
#1584 = VECTOR('',#1585,1.);
#1585 = DIRECTION('',(0.667856803762,-0.744289788771));
#1586 = ( GEOMETRIC_REPRESENTATION_CONTEXT(2) 
PARAMETRIC_REPRESENTATION_CONTEXT() REPRESENTATION_CONTEXT('2D SPACE',''
  ) );
#1587 = ADVANCED_FACE('',(#1588),#1473,.T.);
#1588 = FACE_BOUND('',#1589,.T.);
#1589 = EDGE_LOOP('',(#1590,#1591,#1592));
#1590 = ORIENTED_EDGE('',*,*,#1459,.F.);
#1591 = ORIENTED_EDGE('',*,*,#1567,.T.);
#1592 = ORIENTED_EDGE('',*,*,#1593,.T.);
#1593 = EDGE_CURVE('',#24,#1431,#1594,.T.);
#1594 = SURFACE_CURVE('',#1595,(#1599,#1606),.PCURVE_S1.);
#1595 = LINE('',#1596,#1597);
#1596 = CARTESIAN_POINT('',(8.852081609597,-16.2048862485,
    11.742955976389));
#1597 = VECTOR('',#1598,1.);
#1598 = DIRECTION('',(6.697719520243E-02,0.997731177432,
    6.822968803346E-03));
#1599 = PCURVE('',#1473,#1600);
#1600 = DEFINITIONAL_REPRESENTATION('',(#1601),#1605);
#1601 = LINE('',#1602,#1603);
#1602 = CARTESIAN_POINT('',(-0.212409489403,-3.161846123505));
#1603 = VECTOR('',#1604,1.);
#1604 = DIRECTION('',(6.702786733351E-02,0.997751103733));
#1605 = ( GEOMETRIC_REPRESENTATION_CONTEXT(2) 
PARAMETRIC_REPRESENTATION_CONTEXT() REPRESENTATION_CONTEXT('2D SPACE',''
  ) );
#1606 = PCURVE('',#1277,#1607);
#1607 = DEFINITIONAL_REPRESENTATION('',(#1608),#1612);
#1608 = LINE('',#1609,#1610);
#1609 = CARTESIAN_POINT('',(-5.112802957118,3.424825875687));
#1610 = VECTOR('',#1611,1.);
#1611 = DIRECTION('',(0.99775448879,-6.697745963949E-02));
#1612 = ( GEOMETRIC_REPRESENTATION_CONTEXT(2) 
PARAMETRIC_REPRESENTATION_CONTEXT() REPRESENTATION_CONTEXT('2D SPACE',''
  ) );
#1613 = ADVANCED_FACE('',(#1614),#1277,.T.);
#1614 = FACE_BOUND('',#1615,.T.);
#1615 = EDGE_LOOP('',(#1616,#1637,#1638));
#1616 = ORIENTED_EDGE('',*,*,#1617,.F.);
#1617 = EDGE_CURVE('',#1431,#231,#1618,.T.);
#1618 = SURFACE_CURVE('',#1619,(#1623,#1630),.PCURVE_S1.);
#1619 = LINE('',#1620,#1621);
#1620 = CARTESIAN_POINT('',(9.064330520394,-13.0431032709,
    11.764577779042));
#1621 = VECTOR('',#1622,1.);
#1622 = DIRECTION('',(0.854730615352,0.519038835508,5.853410487458E-03)
  );
#1623 = PCURVE('',#1277,#1624);
#1624 = DEFINITIONAL_REPRESENTATION('',(#1625),#1629);
#1625 = LINE('',#1626,#1627);
#1626 = CARTESIAN_POINT('',(-1.950946106461,3.212576126896));
#1627 = VECTOR('',#1628,1.);
#1628 = DIRECTION('',(0.519066283233,-0.85473398997));
#1629 = ( GEOMETRIC_REPRESENTATION_CONTEXT(2) 
PARAMETRIC_REPRESENTATION_CONTEXT() REPRESENTATION_CONTEXT('2D SPACE',''
  ) );
#1630 = PCURVE('',#1530,#1631);
#1631 = DEFINITIONAL_REPRESENTATION('',(#1632),#1636);
#1632 = LINE('',#1633,#1634);
#1633 = CARTESIAN_POINT('',(-3.21250638243,-1.951060948372));
#1634 = VECTOR('',#1635,1.);
#1635 = DIRECTION('',(0.854715433845,0.519096837929));
#1636 = ( GEOMETRIC_REPRESENTATION_CONTEXT(2) 
PARAMETRIC_REPRESENTATION_CONTEXT() REPRESENTATION_CONTEXT('2D SPACE',''
  ) );
#1637 = ORIENTED_EDGE('',*,*,#1593,.F.);
#1638 = ORIENTED_EDGE('',*,*,#1263,.T.);
#1639 = ADVANCED_FACE('',(#1640),#1530,.T.);
#1640 = FACE_BOUND('',#1641,.T.);
#1641 = EDGE_LOOP('',(#1642,#1663,#1664));
#1642 = ORIENTED_EDGE('',*,*,#1643,.F.);
#1643 = EDGE_CURVE('',#1348,#231,#1644,.T.);
#1644 = SURFACE_CURVE('',#1645,(#1649,#1656),.PCURVE_S1.);
#1645 = LINE('',#1646,#1647);
#1646 = CARTESIAN_POINT('',(9.827830405005,-11.08548386705,
    11.747468105656));
#1647 = VECTOR('',#1648,1.);
#1648 = DIRECTION('',(0.999868686698,-2.766596924712E-03,
    1.596731983516E-02));
#1649 = PCURVE('',#1530,#1650);
#1650 = DEFINITIONAL_REPRESENTATION('',(#1651),#1655);
#1651 = LINE('',#1652,#1653);
#1652 = CARTESIAN_POINT('',(-2.449375819428,6.777218816426E-03));
#1653 = VECTOR('',#1654,1.);
#1654 = DIRECTION('',(0.999996172108,-2.766906091017E-03));
#1655 = ( GEOMETRIC_REPRESENTATION_CONTEXT(2) 
PARAMETRIC_REPRESENTATION_CONTEXT() REPRESENTATION_CONTEXT('2D SPACE',''
  ) );
#1656 = PCURVE('',#246,#1657);
#1657 = DEFINITIONAL_REPRESENTATION('',(#1658),#1662);
#1658 = LINE('',#1659,#1660);
#1659 = CARTESIAN_POINT('',(-2.259805394181,-8.000489177853));
#1660 = VECTOR('',#1661,1.);
#1661 = DIRECTION('',(-1.580931242947E-03,-0.999998750327));
#1662 = ( GEOMETRIC_REPRESENTATION_CONTEXT(2) 
PARAMETRIC_REPRESENTATION_CONTEXT() REPRESENTATION_CONTEXT('2D SPACE',''
  ) );
#1663 = ORIENTED_EDGE('',*,*,#1516,.F.);
#1664 = ORIENTED_EDGE('',*,*,#1617,.T.);
#1665 = ADVANCED_FACE('',(#1666),#246,.T.);
#1666 = FACE_BOUND('',#1667,.T.);
#1667 = EDGE_LOOP('',(#1668,#1689,#1690));
#1668 = ORIENTED_EDGE('',*,*,#1669,.T.);
#1669 = EDGE_CURVE('',#57,#1348,#1670,.T.);
#1670 = SURFACE_CURVE('',#1671,(#1675,#1682),.PCURVE_S1.);
#1671 = LINE('',#1672,#1673);
#1672 = CARTESIAN_POINT('',(1.828381801114,-8.822317670249,
    11.785524693351));
#1673 = VECTOR('',#1674,1.);
#1674 = DIRECTION('',(0.962222078949,-0.272227323498,-4.577676630397E-03
    ));
#1675 = PCURVE('',#246,#1676);
#1676 = DEFINITIONAL_REPRESENTATION('',(#1677),#1681);
#1677 = LINE('',#1678,#1679);
#1678 = CARTESIAN_POINT('',(0.,0.));
#1679 = VECTOR('',#1680,1.);
#1680 = DIRECTION('',(-0.271823065824,-0.962347245482));
#1681 = ( GEOMETRIC_REPRESENTATION_CONTEXT(2) 
PARAMETRIC_REPRESENTATION_CONTEXT() REPRESENTATION_CONTEXT('2D SPACE',''
  ) );
#1682 = PCURVE('',#1384,#1683);
#1683 = DEFINITIONAL_REPRESENTATION('',(#1684),#1688);
#1684 = LINE('',#1685,#1686);
#1685 = CARTESIAN_POINT('',(0.,0.));
#1686 = VECTOR('',#1687,1.);
#1687 = DIRECTION('',(-0.272246480305,-0.962227547912));
#1688 = ( GEOMETRIC_REPRESENTATION_CONTEXT(2) 
PARAMETRIC_REPRESENTATION_CONTEXT() REPRESENTATION_CONTEXT('2D SPACE',''
  ) );
#1689 = ORIENTED_EDGE('',*,*,#1643,.T.);
#1690 = ORIENTED_EDGE('',*,*,#230,.F.);
#1691 = ADVANCED_FACE('',(#1692),#1384,.T.);
#1692 = FACE_BOUND('',#1693,.T.);
#1693 = EDGE_LOOP('',(#1694,#1695,#1696));
#1694 = ORIENTED_EDGE('',*,*,#1545,.T.);
#1695 = ORIENTED_EDGE('',*,*,#1370,.T.);
#1696 = ORIENTED_EDGE('',*,*,#1669,.F.);
#1697 = ( GEOMETRIC_REPRESENTATION_CONTEXT(3) 
GLOBAL_UNCERTAINTY_ASSIGNED_CONTEXT((#1701)) 
GLOBAL_UNIT_ASSIGNED_CONTEXT((#1698,#1699,#1700)) REPRESENTATION_CONTEXT
('Context #1','3D Context with UNIT and UNCERTAINTY') );
#1698 = ( LENGTH_UNIT() NAMED_UNIT(*) SI_UNIT(.MILLI.,.METRE.) );
#1699 = ( NAMED_UNIT(*) PLANE_ANGLE_UNIT() SI_UNIT($,.RADIAN.) );
#1700 = ( NAMED_UNIT(*) SI_UNIT($,.STERADIAN.) SOLID_ANGLE_UNIT() );
#1701 = UNCERTAINTY_MEASURE_WITH_UNIT(LENGTH_MEASURE(1.E-07),#1698,
  'distance_accuracy_value','confusion accuracy');
#1702 = PRODUCT_TYPE('part',$,(#7));
ENDSEC;
END-ISO-10303-21;
