ISO-10303-21;
HEADER;
FILE_DESCRIPTION(('Open CASCADE Model'),'2;1');
FILE_NAME('Open CASCADE Shape Model','2026-10-04T20:44:43',('Author'),(
    'Open CASCADE'),'Open CASCADE STEP processor 7.8','Open CASCADE 7.8'
  ,'Unknown');
FILE_SCHEMA(('AUTOMOTIVE_DESIGN_CC2 { 1 2 10303 214 -1 1 5 4 }'));
ENDSEC;
DATA;
#1 = APPLICATION_PROTOCOL_DEFINITION('committee draft',
  'automotive_design',1997,#2);
#2 = APPLICATION_CONTEXT(
  'core data for automotive mechanical design processes');
#3 = SHAPE_DEFINITION_REPRESENTATION(#4,#10);
#4 = PRODUCT_DEFINITION_SHAPE('','',#5);
#5 = PRODUCT_DEFINITION('design','',#6,#9);
#6 = PRODUCT_DEFINITION_FORMATION('','',#7);
#7 = PRODUCT('Open CASCADE STEP translator 7.8 128',
  'Open CASCADE STEP translator 7.8 128','',(#8));
#8 = MECHANICAL_CONTEXT('',#2,'mechanical');
#9 = PRODUCT_DEFINITION_CONTEXT('part definition',#2,'design');
#10 = ADVANCED_BREP_SHAPE_REPRESENTATION('',(#11,#15),#861);
#11 = AXIS2_PLACEMENT_3D('',#12,#13,#14);
#12 = CARTESIAN_POINT('',(0.,0.,0.));
#13 = DIRECTION('',(0.,0.,1.));
#14 = DIRECTION('',(1.,0.,-0.));
#15 = MANIFOLD_SOLID_BREP('',#16);
#16 = CLOSED_SHELL('',(#17,#109,#167,#220,#278,#336,#394,#425,#478,#509,
    #562,#588,#619,#672,#703,#751,#777,#803,#829,#855));
#17 = ADVANCED_FACE('',(#18),#32,.T.);
#18 = FACE_BOUND('',#19,.T.);
#19 = EDGE_LOOP('',(#20,#55,#83));
#20 = ORIENTED_EDGE('',*,*,#21,.F.);
#21 = EDGE_CURVE('',#22,#24,#26,.T.);
#22 = VERTEX_POINT('',#23);
#23 = CARTESIAN_POINT('',(-55.8945377445,43.054064311901,21.186116902975
    ));
#24 = VERTEX_POINT('',#25);
#25 = CARTESIAN_POINT('',(-55.8640998057,-43.01618977099,
    5.801313651117E-02));
#26 = SURFACE_CURVE('',#27,(#31,#43),.PCURVE_S1.);
#27 = LINE('',#28,#29);
#28 = CARTESIAN_POINT('',(-55.8945377445,43.054064311901,21.186116902975
    ));
#29 = VECTOR('',#30,1.);
#30 = DIRECTION('',(3.434443255376E-04,-0.971167612882,-0.238397461681)
  );
#31 = PCURVE('',#32,#37);
#32 = PLANE('',#33);
#33 = AXIS2_PLACEMENT_3D('',#34,#35,#36);
#34 = CARTESIAN_POINT('',(-55.8640998057,-43.01618977099,
    5.801313651117E-02));
#35 = DIRECTION('',(-0.999998506148,-7.373947358986E-04,
    1.563313930877E-03));
#36 = DIRECTION('',(-1.563314355904E-03,-1.491301411902E-22,
    -0.999998778023));
#37 = DEFINITIONAL_REPRESENTATION('',(#38),#42);
#38 = LINE('',#39,#40);
#39 = CARTESIAN_POINT('',(-21.12803036434,-86.07027748329));
#40 = VECTOR('',#41,1.);
#41 = DIRECTION('',(0.238396633453,0.971167876918));
#42 = ( GEOMETRIC_REPRESENTATION_CONTEXT(2) 
PARAMETRIC_REPRESENTATION_CONTEXT() REPRESENTATION_CONTEXT('2D SPACE',''
  ) );
#43 = PCURVE('',#44,#49);
#44 = PLANE('',#45);
#45 = AXIS2_PLACEMENT_3D('',#46,#47,#48);
#46 = CARTESIAN_POINT('',(-55.91891237288,-43.05722301299,
    21.188373386102));
#47 = DIRECTION('',(-0.999996596932,2.829906982979E-04,
    -2.593461160817E-03));
#48 = DIRECTION('',(2.593461264664E-03,1.066445472375E-22,
    -0.999996636974));
#49 = DEFINITIONAL_REPRESENTATION('',(#50),#54);
#50 = LINE('',#51,#52);
#51 = CARTESIAN_POINT('',(2.319690192455E-03,-86.11129077295));
#52 = VECTOR('',#53,1.);
#53 = DIRECTION('',(0.238397550653,0.971167651769));
#54 = ( GEOMETRIC_REPRESENTATION_CONTEXT(2) 
PARAMETRIC_REPRESENTATION_CONTEXT() REPRESENTATION_CONTEXT('2D SPACE',''
  ) );
#55 = ORIENTED_EDGE('',*,*,#56,.F.);
#56 = EDGE_CURVE('',#57,#22,#59,.T.);
#57 = VERTEX_POINT('',#58);
#58 = CARTESIAN_POINT('',(-55.92764352887,43.050486286042,
    7.790095111933E-03));
#59 = SURFACE_CURVE('',#60,(#64,#71),.PCURVE_S1.);
#60 = LINE('',#61,#62);
#61 = CARTESIAN_POINT('',(-55.92764352887,43.050486286042,
    7.790095111933E-03));
#62 = VECTOR('',#63,1.);
#63 = DIRECTION('',(1.563189752851E-03,1.689473143427E-04,0.999998763947
    ));
#64 = PCURVE('',#32,#65);
#65 = DEFINITIONAL_REPRESENTATION('',(#66),#70);
#66 = LINE('',#67,#68);
#67 = CARTESIAN_POINT('',(5.032231884251E-02,-86.06669945646));
#68 = VECTOR('',#69,1.);
#69 = DIRECTION('',(-0.999999985728,-1.689473602754E-04));
#70 = ( GEOMETRIC_REPRESENTATION_CONTEXT(2) 
PARAMETRIC_REPRESENTATION_CONTEXT() REPRESENTATION_CONTEXT('2D SPACE',''
  ) );
#71 = PCURVE('',#72,#77);
#72 = PLANE('',#73);
#73 = AXIS2_PLACEMENT_3D('',#74,#75,#76);
#74 = CARTESIAN_POINT('',(55.870842319906,43.091065754461,
    -1.877789882165E-02));
#75 = DIRECTION('',(-3.630097347232E-04,0.999999919936,
    -1.683800558454E-04));
#76 = DIRECTION('',(0.999999934112,3.630097398692E-04,
    -9.238325222554E-24));
#77 = DEFINITIONAL_REPRESENTATION('',(#78),#82);
#78 = LINE('',#79,#80);
#79 = CARTESIAN_POINT('',(-111.7984932133,-2.656799431021E-02));
#80 = VECTOR('',#81,1.);
#81 = DIRECTION('',(1.563250979376E-03,-0.999998778122));
#82 = ( GEOMETRIC_REPRESENTATION_CONTEXT(2) 
PARAMETRIC_REPRESENTATION_CONTEXT() REPRESENTATION_CONTEXT('2D SPACE',''
  ) );
#83 = ORIENTED_EDGE('',*,*,#84,.T.);
#84 = EDGE_CURVE('',#57,#24,#85,.T.);
#85 = SURFACE_CURVE('',#86,(#90,#97),.PCURVE_S1.);
#86 = LINE('',#87,#88);
#87 = CARTESIAN_POINT('',(-55.92764352887,43.050486286042,
    7.790095111933E-03));
#88 = VECTOR('',#89,1.);
#89 = DIRECTION('',(7.383077625334E-04,-0.999999557193,
    5.835361775429E-04));
#90 = PCURVE('',#32,#91);
#91 = DEFINITIONAL_REPRESENTATION('',(#92),#96);
#92 = LINE('',#93,#94);
#93 = CARTESIAN_POINT('',(5.032231884251E-02,-86.06669945646));
#94 = VECTOR('',#95,1.);
#95 = DIRECTION('',(-5.846896715996E-04,0.999999829069));
#96 = ( GEOMETRIC_REPRESENTATION_CONTEXT(2) 
PARAMETRIC_REPRESENTATION_CONTEXT() REPRESENTATION_CONTEXT('2D SPACE',''
  ) );
#97 = PCURVE('',#98,#103);
#98 = PLANE('',#99);
#99 = AXIS2_PLACEMENT_3D('',#100,#101,#102);
#100 = CARTESIAN_POINT('',(55.886119745367,-43.06985093104,
    2.895898686949E-03));
#101 = DIRECTION('',(-4.934983995814E-04,-5.839006192643E-04,
    -0.99999970776));
#102 = DIRECTION('',(-2.968911728832E-23,-0.99999982953,
    5.839006903661E-04));
#103 = DEFINITIONAL_REPRESENTATION('',(#104),#108);
#104 = LINE('',#105,#106);
#105 = CARTESIAN_POINT('',(-86.12031967842,111.81377688984));
#106 = VECTOR('',#107,1.);
#107 = DIRECTION('',(0.999999727451,-7.383078524374E-04));
#108 = ( GEOMETRIC_REPRESENTATION_CONTEXT(2) 
PARAMETRIC_REPRESENTATION_CONTEXT() REPRESENTATION_CONTEXT('2D SPACE',''
  ) );
#109 = ADVANCED_FACE('',(#110),#44,.T.);
#110 = FACE_BOUND('',#111,.T.);
#111 = EDGE_LOOP('',(#112,#140,#141));
#112 = ORIENTED_EDGE('',*,*,#113,.T.);
#113 = EDGE_CURVE('',#114,#22,#116,.T.);
#114 = VERTEX_POINT('',#115);
#115 = CARTESIAN_POINT('',(-55.91891237288,-43.05722301299,
    21.188373386102));
#116 = SURFACE_CURVE('',#117,(#121,#128),.PCURVE_S1.);
#117 = LINE('',#118,#119);
#118 = CARTESIAN_POINT('',(-55.91891237288,-43.05722301299,
    21.188373386102));
#119 = VECTOR('',#120,1.);
#120 = DIRECTION('',(2.830596098796E-04,0.999999959595,
    -2.620426549696E-05));
#121 = PCURVE('',#44,#122);
#122 = DEFINITIONAL_REPRESENTATION('',(#123),#127);
#123 = LINE('',#124,#125);
#124 = CARTESIAN_POINT('',(0.,-0.));
#125 = VECTOR('',#126,1.);
#126 = DIRECTION('',(2.693828150514E-05,-0.999999999637));
#127 = ( GEOMETRIC_REPRESENTATION_CONTEXT(2) 
PARAMETRIC_REPRESENTATION_CONTEXT() REPRESENTATION_CONTEXT('2D SPACE',''
  ) );
#128 = PCURVE('',#129,#134);
#129 = PLANE('',#130);
#130 = AXIS2_PLACEMENT_3D('',#131,#132,#133);
#131 = CARTESIAN_POINT('',(-50.59895758002,37.784984473073,
    26.397215832138));
#132 = DIRECTION('',(-0.701288649703,2.171869289414E-04,0.712877396631)
  );
#133 = DIRECTION('',(0.712877413444,1.978354225522E-20,0.701288666243));
#134 = DEFINITIONAL_REPRESENTATION('',(#135),#139);
#135 = LINE('',#136,#137);
#136 = CARTESIAN_POINT('',(-7.445377784025,-80.84220939273));
#137 = VECTOR('',#138,1.);
#138 = DIRECTION('',(1.834100481413E-04,0.99999998318));
#139 = ( GEOMETRIC_REPRESENTATION_CONTEXT(2) 
PARAMETRIC_REPRESENTATION_CONTEXT() REPRESENTATION_CONTEXT('2D SPACE',''
  ) );
#140 = ORIENTED_EDGE('',*,*,#21,.T.);
#141 = ORIENTED_EDGE('',*,*,#142,.F.);
#142 = EDGE_CURVE('',#114,#24,#143,.T.);
#143 = SURFACE_CURVE('',#144,(#148,#155),.PCURVE_S1.);
#144 = LINE('',#145,#146);
#145 = CARTESIAN_POINT('',(-55.91891237288,-43.05722301299,
    21.188373386102));
#146 = VECTOR('',#147,1.);
#147 = DIRECTION('',(2.594005912267E-03,1.941899053931E-03,
    -0.999994750067));
#148 = PCURVE('',#44,#149);
#149 = DEFINITIONAL_REPRESENTATION('',(#150),#154);
#150 = LINE('',#151,#152);
#151 = CARTESIAN_POINT('',(0.,-0.));
#152 = VECTOR('',#153,1.);
#153 = DIRECTION('',(0.999998114512,-1.941899131689E-03));
#154 = ( GEOMETRIC_REPRESENTATION_CONTEXT(2) 
PARAMETRIC_REPRESENTATION_CONTEXT() REPRESENTATION_CONTEXT('2D SPACE',''
  ) );
#155 = PCURVE('',#156,#161);
#156 = PLANE('',#157);
#157 = AXIS2_PLACEMENT_3D('',#158,#159,#160);
#158 = CARTESIAN_POINT('',(55.886119745367,-43.06985093104,
    2.895898686949E-03));
#159 = DIRECTION('',(-4.811458447116E-04,-0.999997996325,
    -1.943153459588E-03));
#160 = DIRECTION('',(-2.593629551066E-23,1.943153684509E-03,
    -0.999998112075));
#161 = DEFINITIONAL_REPRESENTATION('',(#162),#166);
#162 = LINE('',#163,#164);
#163 = CARTESIAN_POINT('',(-21.18541295283,-111.8050450597));
#164 = VECTOR('',#165,1.);
#165 = DIRECTION('',(0.99999663556,2.594006212525E-03));
#166 = ( GEOMETRIC_REPRESENTATION_CONTEXT(2) 
PARAMETRIC_REPRESENTATION_CONTEXT() REPRESENTATION_CONTEXT('2D SPACE',''
  ) );
#167 = ADVANCED_FACE('',(#168),#156,.T.);
#168 = FACE_BOUND('',#169,.T.);
#169 = EDGE_LOOP('',(#170,#198,#199));
#170 = ORIENTED_EDGE('',*,*,#171,.F.);
#171 = EDGE_CURVE('',#114,#172,#174,.T.);
#172 = VERTEX_POINT('',#173);
#173 = CARTESIAN_POINT('',(55.886119745367,-43.06985093104,
    2.895898686949E-03));
#174 = SURFACE_CURVE('',#175,(#179,#186),.PCURVE_S1.);
#175 = LINE('',#176,#177);
#176 = CARTESIAN_POINT('',(-55.91891237288,-43.05722301299,
    21.188373386102));
#177 = VECTOR('',#178,1.);
#178 = DIRECTION('',(0.98251695155,-1.109712444326E-04,-0.186173111923)
  );
#179 = PCURVE('',#156,#180);
#180 = DEFINITIONAL_REPRESENTATION('',(#181),#185);
#181 = LINE('',#182,#183);
#182 = CARTESIAN_POINT('',(-21.18541295283,-111.8050450597));
#183 = VECTOR('',#184,1.);
#184 = DIRECTION('',(0.186172544808,0.982517065277));
#185 = ( GEOMETRIC_REPRESENTATION_CONTEXT(2) 
PARAMETRIC_REPRESENTATION_CONTEXT() REPRESENTATION_CONTEXT('2D SPACE',''
  ) );
#186 = PCURVE('',#187,#192);
#187 = PLANE('',#188);
#188 = AXIS2_PLACEMENT_3D('',#189,#190,#191);
#189 = CARTESIAN_POINT('',(55.90814232029,-42.99375683611,
    21.131952898431));
#190 = DIRECTION('',(5.69351602792E-04,-0.999993355095,
    3.600778336096E-03));
#191 = DIRECTION('',(3.750440057924E-22,-3.600778919712E-03,
    -0.999993517175));
#192 = DEFINITIONAL_REPRESENTATION('',(#193),#197);
#193 = LINE('',#194,#195);
#194 = CARTESIAN_POINT('',(-5.619159423485E-02,-111.8270728181));
#195 = VECTOR('',#196,1.);
#196 = DIRECTION('',(0.186172304578,0.982517110797));
#197 = ( GEOMETRIC_REPRESENTATION_CONTEXT(2) 
PARAMETRIC_REPRESENTATION_CONTEXT() REPRESENTATION_CONTEXT('2D SPACE',''
  ) );
#198 = ORIENTED_EDGE('',*,*,#142,.T.);
#199 = ORIENTED_EDGE('',*,*,#200,.T.);
#200 = EDGE_CURVE('',#24,#172,#201,.T.);
#201 = SURFACE_CURVE('',#202,(#206,#213),.PCURVE_S1.);
#202 = LINE('',#203,#204);
#203 = CARTESIAN_POINT('',(-55.8640998057,-43.01618977099,
    5.801313651117E-02));
#204 = VECTOR('',#205,1.);
#205 = DIRECTION('',(0.999999763078,-4.801882945092E-04,
    -4.932180445562E-04));
#206 = PCURVE('',#156,#207);
#207 = DEFINITIONAL_REPRESENTATION('',(#208),#212);
#208 = LINE('',#209,#210);
#209 = CARTESIAN_POINT('',(-5.501286188615E-02,-111.7502324862));
#210 = VECTOR('',#211,1.);
#211 = DIRECTION('',(4.922840337439E-04,0.999999878828));
#212 = ( GEOMETRIC_REPRESENTATION_CONTEXT(2) 
PARAMETRIC_REPRESENTATION_CONTEXT() REPRESENTATION_CONTEXT('2D SPACE',''
  ) );
#213 = PCURVE('',#98,#214);
#214 = DEFINITIONAL_REPRESENTATION('',(#215),#219);
#215 = LINE('',#216,#217);
#216 = CARTESIAN_POINT('',(-5.362896790995E-02,111.75023315893));
#217 = VECTOR('',#218,1.);
#218 = DIRECTION('',(4.799002222947E-04,-0.999999884848));
#219 = ( GEOMETRIC_REPRESENTATION_CONTEXT(2) 
PARAMETRIC_REPRESENTATION_CONTEXT() REPRESENTATION_CONTEXT('2D SPACE',''
  ) );
#220 = ADVANCED_FACE('',(#221),#187,.T.);
#221 = FACE_BOUND('',#222,.T.);
#222 = EDGE_LOOP('',(#223,#251,#252));
#223 = ORIENTED_EDGE('',*,*,#224,.F.);
#224 = EDGE_CURVE('',#114,#225,#227,.T.);
#225 = VERTEX_POINT('',#226);
#226 = CARTESIAN_POINT('',(55.90814232029,-42.99375683611,
    21.131952898431));
#227 = SURFACE_CURVE('',#228,(#232,#239),.PCURVE_S1.);
#228 = LINE('',#229,#230);
#229 = CARTESIAN_POINT('',(-55.91891237288,-43.05722301299,
    21.188373386102));
#230 = VECTOR('',#231,1.);
#231 = DIRECTION('',(0.999999711673,5.675384973448E-04,
    -5.045332863153E-04));
#232 = PCURVE('',#187,#233);
#233 = DEFINITIONAL_REPRESENTATION('',(#234),#238);
#234 = LINE('',#235,#236);
#235 = CARTESIAN_POINT('',(-5.619159423485E-02,-111.8270728181));
#236 = VECTOR('',#237,1.);
#237 = DIRECTION('',(5.024864348567E-04,0.999999873754));
#238 = ( GEOMETRIC_REPRESENTATION_CONTEXT(2) 
PARAMETRIC_REPRESENTATION_CONTEXT() REPRESENTATION_CONTEXT('2D SPACE',''
  ) );
#239 = PCURVE('',#240,#245);
#240 = PLANE('',#241);
#241 = AXIS2_PLACEMENT_3D('',#242,#243,#244);
#242 = CARTESIAN_POINT('',(50.599462425625,-37.74119301785,
    26.423440026183));
#243 = DIRECTION('',(7.582058729336E-04,-0.709331594806,0.704874537583)
  );
#244 = DIRECTION('',(-4.862157333546E-20,-0.704874740191,-0.709331798695
    ));
#245 = DEFINITIONAL_REPRESENTATION('',(#246),#250);
#246 = LINE('',#247,#248);
#247 = CARTESIAN_POINT('',(7.460534497773,-106.5184054159));
#248 = VECTOR('',#249,1.);
#249 = DIRECTION('',(-4.216204738067E-05,0.999999999111));
#250 = ( GEOMETRIC_REPRESENTATION_CONTEXT(2) 
PARAMETRIC_REPRESENTATION_CONTEXT() REPRESENTATION_CONTEXT('2D SPACE',''
  ) );
#251 = ORIENTED_EDGE('',*,*,#171,.T.);
#252 = ORIENTED_EDGE('',*,*,#253,.T.);
#253 = EDGE_CURVE('',#172,#225,#254,.T.);
#254 = SURFACE_CURVE('',#255,(#259,#266),.PCURVE_S1.);
#255 = LINE('',#256,#257);
#256 = CARTESIAN_POINT('',(55.886119745367,-43.06985093104,
    2.895898686949E-03));
#257 = VECTOR('',#258,1.);
#258 = DIRECTION('',(1.04228125965E-03,3.601370384612E-03,0.999992971866
    ));
#259 = PCURVE('',#187,#260);
#260 = DEFINITIONAL_REPRESENTATION('',(#261),#265);
#261 = LINE('',#262,#263);
#262 = CARTESIAN_POINT('',(21.129194021769,-2.202257849196E-02));
#263 = VECTOR('',#264,1.);
#264 = DIRECTION('',(-0.999999456825,1.042281428584E-03));
#265 = ( GEOMETRIC_REPRESENTATION_CONTEXT(2) 
PARAMETRIC_REPRESENTATION_CONTEXT() REPRESENTATION_CONTEXT('2D SPACE',''
  ) );
#266 = PCURVE('',#267,#272);
#267 = PLANE('',#268);
#268 = AXIS2_PLACEMENT_3D('',#269,#270,#271);
#269 = CARTESIAN_POINT('',(55.90814232029,-42.99375683611,
    21.131952898431));
#270 = DIRECTION('',(0.99999945596,3.783198066436E-05,-1.04242426588E-03
    ));
#271 = DIRECTION('',(1.042424266626E-03,2.831139293815E-24,
    0.999999456676));
#272 = DEFINITIONAL_REPRESENTATION('',(#273),#277);
#273 = LINE('',#274,#275);
#274 = CARTESIAN_POINT('',(-21.12906847668,7.609409498762E-02));
#275 = VECTOR('',#276,1.);
#276 = DIRECTION('',(0.999993515045,-3.60137038719E-03));
#277 = ( GEOMETRIC_REPRESENTATION_CONTEXT(2) 
PARAMETRIC_REPRESENTATION_CONTEXT() REPRESENTATION_CONTEXT('2D SPACE',''
  ) );
#278 = ADVANCED_FACE('',(#279),#129,.T.);
#279 = FACE_BOUND('',#280,.T.);
#280 = EDGE_LOOP('',(#281,#309,#310));
#281 = ORIENTED_EDGE('',*,*,#282,.F.);
#282 = EDGE_CURVE('',#22,#283,#285,.T.);
#283 = VERTEX_POINT('',#284);
#284 = CARTESIAN_POINT('',(-50.59895758002,37.784984473073,
    26.397215832138));
#285 = SURFACE_CURVE('',#286,(#290,#297),.PCURVE_S1.);
#286 = LINE('',#287,#288);
#287 = CARTESIAN_POINT('',(-55.8945377445,43.054064311901,
    21.186116902975));
#288 = VECTOR('',#289,1.);
#289 = DIRECTION('',(0.58139881188,-0.578489355811,0.572123663868));
#290 = PCURVE('',#129,#291);
#291 = DEFINITIONAL_REPRESENTATION('',(#292),#296);
#292 = LINE('',#293,#294);
#293 = CARTESIAN_POINT('',(-7.429584108033,5.269079963099));
#294 = VECTOR('',#295,1.);
#295 = DIRECTION('',(0.815689922352,-0.578489369455));
#296 = ( GEOMETRIC_REPRESENTATION_CONTEXT(2) 
PARAMETRIC_REPRESENTATION_CONTEXT() REPRESENTATION_CONTEXT('2D SPACE',''
  ) );
#297 = PCURVE('',#298,#303);
#298 = PLANE('',#299);
#299 = AXIS2_PLACEMENT_3D('',#300,#301,#302);
#300 = CARTESIAN_POINT('',(50.625586222529,37.798596904765,
    26.472922982757));
#301 = DIRECTION('',(-6.265270041517E-04,0.702865466305,0.711322531443)
  );
#302 = DIRECTION('',(2.491092473938E-21,0.711322671053,-0.702865604256)
  );
#303 = DEFINITIONAL_REPRESENTATION('',(#304),#308);
#304 = LINE('',#305,#306);
#305 = CARTESIAN_POINT('',(7.454247263526,106.52014487353));
#306 = VECTOR('',#307,1.);
#307 = DIRECTION('',(-0.813618638465,-0.58139892599));
#308 = ( GEOMETRIC_REPRESENTATION_CONTEXT(2) 
PARAMETRIC_REPRESENTATION_CONTEXT() REPRESENTATION_CONTEXT('2D SPACE',''
  ) );
#309 = ORIENTED_EDGE('',*,*,#113,.F.);
#310 = ORIENTED_EDGE('',*,*,#311,.T.);
#311 = EDGE_CURVE('',#114,#283,#312,.T.);
#312 = SURFACE_CURVE('',#313,(#317,#324),.PCURVE_S1.);
#313 = LINE('',#314,#315);
#314 = CARTESIAN_POINT('',(-55.91891237288,-43.05722301299,
    21.188373386102));
#315 = VECTOR('',#316,1.);
#316 = DIRECTION('',(6.552932537893E-02,0.995785777318,
    6.416068270958E-02));
#317 = PCURVE('',#129,#318);
#318 = DEFINITIONAL_REPRESENTATION('',(#319),#323);
#319 = LINE('',#320,#321);
#320 = CARTESIAN_POINT('',(-7.445377784025,-80.84220939273));
#321 = VECTOR('',#322,1.);
#322 = DIRECTION('',(9.170953558352E-02,0.995785800804));
#323 = ( GEOMETRIC_REPRESENTATION_CONTEXT(2) 
PARAMETRIC_REPRESENTATION_CONTEXT() REPRESENTATION_CONTEXT('2D SPACE',''
  ) );
#324 = PCURVE('',#325,#330);
#325 = PLANE('',#326);
#326 = AXIS2_PLACEMENT_3D('',#327,#328,#329);
#327 = CARTESIAN_POINT('',(-50.59895758002,37.784984473073,
    26.397215832138));
#328 = DIRECTION('',(-0.700932152716,1.711410601964E-04,0.713227935516)
  );
#329 = DIRECTION('',(0.71322794596,-1.325792030756E-21,0.700932162981));
#330 = DEFINITIONAL_REPRESENTATION('',(#331),#335);
#331 = LINE('',#332,#333);
#332 = CARTESIAN_POINT('',(-7.44538563184,-80.84220866997));
#333 = VECTOR('',#334,1.);
#334 = DIRECTION('',(9.170963225014E-02,0.995785791901));
#335 = ( GEOMETRIC_REPRESENTATION_CONTEXT(2) 
PARAMETRIC_REPRESENTATION_CONTEXT() REPRESENTATION_CONTEXT('2D SPACE',''
  ) );
#336 = ADVANCED_FACE('',(#337),#325,.T.);
#337 = FACE_BOUND('',#338,.T.);
#338 = EDGE_LOOP('',(#339,#340,#368));
#339 = ORIENTED_EDGE('',*,*,#311,.F.);
#340 = ORIENTED_EDGE('',*,*,#341,.T.);
#341 = EDGE_CURVE('',#114,#342,#344,.T.);
#342 = VERTEX_POINT('',#343);
#343 = CARTESIAN_POINT('',(-50.61582082473,-37.78698607228,
    26.398777011521));
#344 = SURFACE_CURVE('',#345,(#349,#356),.PCURVE_S1.);
#345 = LINE('',#346,#347);
#346 = CARTESIAN_POINT('',(-55.91891237288,-43.05722301299,
    21.188373386102));
#347 = VECTOR('',#348,1.);
#348 = DIRECTION('',(0.581926991056,0.578321738784,0.571756017484));
#349 = PCURVE('',#325,#350);
#350 = DEFINITIONAL_REPRESENTATION('',(#351),#355);
#351 = LINE('',#352,#353);
#352 = CARTESIAN_POINT('',(-7.44538563184,-80.84220866997));
#353 = VECTOR('',#354,1.);
#354 = DIRECTION('',(0.815808774563,0.578321747254));
#355 = ( GEOMETRIC_REPRESENTATION_CONTEXT(2) 
PARAMETRIC_REPRESENTATION_CONTEXT() REPRESENTATION_CONTEXT('2D SPACE',''
  ) );
#356 = PCURVE('',#357,#362);
#357 = PLANE('',#358);
#358 = AXIS2_PLACEMENT_3D('',#359,#360,#361);
#359 = CARTESIAN_POINT('',(50.599462425625,-37.74119301785,
    26.423440026183));
#360 = DIRECTION('',(1.448566723008E-04,-0.703132197089,0.711059134274)
  );
#361 = DIRECTION('',(-1.763390126925E-21,0.711059141734,0.703132204466)
  );
#362 = DEFINITIONAL_REPRESENTATION('',(#363),#367);
#363 = LINE('',#364,#365);
#364 = CARTESIAN_POINT('',(-7.460955672942,106.51837591607));
#365 = VECTOR('',#366,1.);
#366 = DIRECTION('',(0.813241028216,-0.581926997162));
#367 = ( GEOMETRIC_REPRESENTATION_CONTEXT(2) 
PARAMETRIC_REPRESENTATION_CONTEXT() REPRESENTATION_CONTEXT('2D SPACE',''
  ) );
#368 = ORIENTED_EDGE('',*,*,#369,.T.);
#369 = EDGE_CURVE('',#342,#283,#370,.T.);
#370 = SURFACE_CURVE('',#371,(#375,#382),.PCURVE_S1.);
#371 = LINE('',#372,#373);
#372 = CARTESIAN_POINT('',(-50.61582082473,-37.78698607228,
    26.398777011521));
#373 = VECTOR('',#374,1.);
#374 = DIRECTION('',(2.231415187183E-04,0.999999974891,
    -2.065817965047E-05));
#375 = PCURVE('',#325,#376);
#376 = DEFINITIONAL_REPRESENTATION('',(#377),#381);
#377 = LINE('',#378,#379);
#378 = CARTESIAN_POINT('',(-1.093305654016E-02,-75.57197165207));
#379 = VECTOR('',#380,1.);
#380 = DIRECTION('',(1.446707845083E-04,0.999999989535));
#381 = ( GEOMETRIC_REPRESENTATION_CONTEXT(2) 
PARAMETRIC_REPRESENTATION_CONTEXT() REPRESENTATION_CONTEXT('2D SPACE',''
  ) );
#382 = PCURVE('',#383,#388);
#383 = PLANE('',#384);
#384 = AXIS2_PLACEMENT_3D('',#385,#386,#387);
#385 = CARTESIAN_POINT('',(50.625586222529,37.798596904765,
    26.472922982757));
#386 = DIRECTION('',(-7.479155752546E-04,2.082506540837E-05,
    0.999999720094));
#387 = DIRECTION('',(0.999999720311,-1.905937106469E-24,
    7.479155754168E-04));
#388 = DEFINITIONAL_REPRESENTATION('',(#389),#393);
#389 = LINE('',#390,#391);
#390 = CARTESIAN_POINT('',(-101.241434186,-75.58558299343));
#391 = VECTOR('',#392,1.);
#392 = DIRECTION('',(2.231260057338E-04,0.999999975107));
#393 = ( GEOMETRIC_REPRESENTATION_CONTEXT(2) 
PARAMETRIC_REPRESENTATION_CONTEXT() REPRESENTATION_CONTEXT('2D SPACE',''
  ) );
#394 = ADVANCED_FACE('',(#395),#98,.T.);
#395 = FACE_BOUND('',#396,.T.);
#396 = EDGE_LOOP('',(#397,#398,#399));
#397 = ORIENTED_EDGE('',*,*,#200,.F.);
#398 = ORIENTED_EDGE('',*,*,#84,.F.);
#399 = ORIENTED_EDGE('',*,*,#400,.T.);
#400 = EDGE_CURVE('',#57,#172,#401,.T.);
#401 = SURFACE_CURVE('',#402,(#406,#413),.PCURVE_S1.);
#402 = LINE('',#403,#404);
#403 = CARTESIAN_POINT('',(-55.92764352887,43.050486286042,
    7.790095111933E-03));
#404 = VECTOR('',#405,1.);
#405 = DIRECTION('',(0.792248033689,-0.610199190358,-3.46774617063E-05)
  );
#406 = PCURVE('',#98,#407);
#407 = DEFINITIONAL_REPRESENTATION('',(#408),#412);
#408 = LINE('',#409,#410);
#409 = CARTESIAN_POINT('',(-86.12031967842,111.81377688984));
#410 = VECTOR('',#411,1.);
#411 = DIRECTION('',(0.610199066089,-0.792248130161));
#412 = ( GEOMETRIC_REPRESENTATION_CONTEXT(2) 
PARAMETRIC_REPRESENTATION_CONTEXT() REPRESENTATION_CONTEXT('2D SPACE',''
  ) );
#413 = PCURVE('',#414,#419);
#414 = PLANE('',#415);
#415 = AXIS2_PLACEMENT_3D('',#416,#417,#418);
#416 = CARTESIAN_POINT('',(55.870842319906,43.091065754461,
    -1.877789882165E-02));
#417 = DIRECTION('',(-2.375504700145E-04,-2.51592325205E-04,
    -0.999999940136));
#418 = DIRECTION('',(3.074159967139E-24,-0.999999968351,
    2.515923323038E-04));
#419 = DEFINITIONAL_REPRESENTATION('',(#420),#424);
#420 = LINE('',#421,#422);
#421 = CARTESIAN_POINT('',(4.058615143832E-02,111.79848900318));
#422 = VECTOR('',#423,1.);
#423 = DIRECTION('',(0.610199162321,-0.792248056042));
#424 = ( GEOMETRIC_REPRESENTATION_CONTEXT(2) 
PARAMETRIC_REPRESENTATION_CONTEXT() REPRESENTATION_CONTEXT('2D SPACE',''
  ) );
#425 = ADVANCED_FACE('',(#426),#414,.T.);
#426 = FACE_BOUND('',#427,.T.);
#427 = EDGE_LOOP('',(#428,#456,#457));
#428 = ORIENTED_EDGE('',*,*,#429,.T.);
#429 = EDGE_CURVE('',#430,#172,#432,.T.);
#430 = VERTEX_POINT('',#431);
#431 = CARTESIAN_POINT('',(55.870842319906,43.091065754461,
    -1.877789882165E-02));
#432 = SURFACE_CURVE('',#433,(#437,#444),.PCURVE_S1.);
#433 = LINE('',#434,#435);
#434 = CARTESIAN_POINT('',(55.870842319906,43.091065754461,
    -1.877789882165E-02));
#435 = VECTOR('',#436,1.);
#436 = DIRECTION('',(1.773126995955E-04,-0.999999952641,
    2.515502076338E-04));
#437 = PCURVE('',#414,#438);
#438 = DEFINITIONAL_REPRESENTATION('',(#439),#443);
#439 = LINE('',#440,#441);
#440 = CARTESIAN_POINT('',(0.,0.));
#441 = VECTOR('',#442,1.);
#442 = DIRECTION('',(0.99999998428,-1.773127045984E-04));
#443 = ( GEOMETRIC_REPRESENTATION_CONTEXT(2) 
PARAMETRIC_REPRESENTATION_CONTEXT() REPRESENTATION_CONTEXT('2D SPACE',''
  ) );
#444 = PCURVE('',#445,#450);
#445 = PLANE('',#446);
#446 = AXIS2_PLACEMENT_3D('',#447,#448,#449);
#447 = CARTESIAN_POINT('',(55.904877601664,42.991492061241,
    21.120705486403));
#448 = DIRECTION('',(-0.999998689591,-1.769076814422E-04,
    1.609198351108E-03));
#449 = DIRECTION('',(-1.609198376289E-03,-3.617375719998E-23,
    -0.999998705239));
#450 = DEFINITIONAL_REPRESENTATION('',(#451),#455);
#451 = LINE('',#452,#453);
#452 = CARTESIAN_POINT('',(21.139510784175,-9.957369477769E-02));
#453 = VECTOR('',#454,1.);
#454 = DIRECTION('',(-2.518352132448E-04,0.99999996829));
#455 = ( GEOMETRIC_REPRESENTATION_CONTEXT(2) 
PARAMETRIC_REPRESENTATION_CONTEXT() REPRESENTATION_CONTEXT('2D SPACE',''
  ) );
#456 = ORIENTED_EDGE('',*,*,#400,.F.);
#457 = ORIENTED_EDGE('',*,*,#458,.T.);
#458 = EDGE_CURVE('',#57,#430,#459,.T.);
#459 = SURFACE_CURVE('',#460,(#464,#471),.PCURVE_S1.);
#460 = LINE('',#461,#462);
#461 = CARTESIAN_POINT('',(-55.92764352887,43.050486286042,
    7.790095111933E-03));
#462 = VECTOR('',#463,1.);
#463 = DIRECTION('',(0.99999990589,3.629697154845E-04,
    -2.376417822795E-04));
#464 = PCURVE('',#414,#465);
#465 = DEFINITIONAL_REPRESENTATION('',(#466),#470);
#466 = LINE('',#467,#468);
#467 = CARTESIAN_POINT('',(4.058615143832E-02,111.79848900318));
#468 = VECTOR('',#469,1.);
#469 = DIRECTION('',(-3.63029492847E-04,-0.999999934105));
#470 = ( GEOMETRIC_REPRESENTATION_CONTEXT(2) 
PARAMETRIC_REPRESENTATION_CONTEXT() REPRESENTATION_CONTEXT('2D SPACE',''
  ) );
#471 = PCURVE('',#72,#472);
#472 = DEFINITIONAL_REPRESENTATION('',(#473),#477);
#473 = LINE('',#474,#475);
#474 = CARTESIAN_POINT('',(-111.7984932133,-2.656799431021E-02));
#475 = VECTOR('',#476,1.);
#476 = DIRECTION('',(0.999999971763,2.376417856483E-04));
#477 = ( GEOMETRIC_REPRESENTATION_CONTEXT(2) 
PARAMETRIC_REPRESENTATION_CONTEXT() REPRESENTATION_CONTEXT('2D SPACE',''
  ) );
#478 = ADVANCED_FACE('',(#479),#72,.T.);
#479 = FACE_BOUND('',#480,.T.);
#480 = EDGE_LOOP('',(#481,#482,#483));
#481 = ORIENTED_EDGE('',*,*,#458,.F.);
#482 = ORIENTED_EDGE('',*,*,#56,.T.);
#483 = ORIENTED_EDGE('',*,*,#484,.T.);
#484 = EDGE_CURVE('',#22,#430,#485,.T.);
#485 = SURFACE_CURVE('',#486,(#490,#497),.PCURVE_S1.);
#486 = LINE('',#487,#488);
#487 = CARTESIAN_POINT('',(-55.8945377445,43.054064311901,
    21.186116902975));
#488 = VECTOR('',#489,1.);
#489 = DIRECTION('',(0.982473575832,3.252611816099E-04,-0.186401628206)
  );
#490 = PCURVE('',#72,#491);
#491 = DEFINITIONAL_REPRESENTATION('',(#492),#496);
#492 = LINE('',#493,#494);
#493 = CARTESIAN_POINT('',(-111.7653861322,-21.20489510239));
#494 = VECTOR('',#495,1.);
#495 = DIRECTION('',(0.982473629171,0.186401630848));
#496 = ( GEOMETRIC_REPRESENTATION_CONTEXT(2) 
PARAMETRIC_REPRESENTATION_CONTEXT() REPRESENTATION_CONTEXT('2D SPACE',''
  ) );
#497 = PCURVE('',#498,#503);
#498 = PLANE('',#499);
#499 = AXIS2_PLACEMENT_3D('',#500,#501,#502);
#500 = CARTESIAN_POINT('',(55.904877601664,42.991492061241,
    21.120705486403));
#501 = DIRECTION('',(5.624322147506E-04,0.999988752737,
    4.709359681834E-03));
#502 = DIRECTION('',(3.822928148725E-22,-4.70936042669E-03,
    0.999988910901));
#503 = DEFINITIONAL_REPRESENTATION('',(#504),#508);
#504 = LINE('',#505,#506);
#505 = CARTESIAN_POINT('',(6.511601593774E-02,-111.7994330289));
#506 = VECTOR('',#507,1.);
#507 = DIRECTION('',(-0.186401092952,0.982473731225));
#508 = ( GEOMETRIC_REPRESENTATION_CONTEXT(2) 
PARAMETRIC_REPRESENTATION_CONTEXT() REPRESENTATION_CONTEXT('2D SPACE',''
  ) );
#509 = ADVANCED_FACE('',(#510),#498,.T.);
#510 = FACE_BOUND('',#511,.T.);
#511 = EDGE_LOOP('',(#512,#535,#536));
#512 = ORIENTED_EDGE('',*,*,#513,.F.);
#513 = EDGE_CURVE('',#430,#514,#516,.T.);
#514 = VERTEX_POINT('',#515);
#515 = CARTESIAN_POINT('',(55.904877601664,42.991492061241,
    21.120705486403));
#516 = SURFACE_CURVE('',#517,(#521,#528),.PCURVE_S1.);
#517 = LINE('',#518,#519);
#518 = CARTESIAN_POINT('',(55.870842319906,43.091065754461,
    -1.877789882165E-02));
#519 = VECTOR('',#520,1.);
#520 = DIRECTION('',(1.610013804992E-03,-4.710259836745E-03,
    0.999987610577));
#521 = PCURVE('',#498,#522);
#522 = DEFINITIONAL_REPRESENTATION('',(#523),#527);
#523 = LINE('',#524,#525);
#524 = CARTESIAN_POINT('',(-21.1397178958,-3.40352871413E-02));
#525 = VECTOR('',#526,1.);
#526 = DIRECTION('',(0.999998703927,1.61001405964E-03));
#527 = ( GEOMETRIC_REPRESENTATION_CONTEXT(2) 
PARAMETRIC_REPRESENTATION_CONTEXT() REPRESENTATION_CONTEXT('2D SPACE',''
  ) );
#528 = PCURVE('',#445,#529);
#529 = DEFINITIONAL_REPRESENTATION('',(#530),#534);
#530 = LINE('',#531,#532);
#531 = CARTESIAN_POINT('',(21.139510784175,-9.957369477769E-02));
#532 = VECTOR('',#533,1.);
#533 = DIRECTION('',(-0.999988906664,4.710259910451E-03));
#534 = ( GEOMETRIC_REPRESENTATION_CONTEXT(2) 
PARAMETRIC_REPRESENTATION_CONTEXT() REPRESENTATION_CONTEXT('2D SPACE',''
  ) );
#535 = ORIENTED_EDGE('',*,*,#484,.F.);
#536 = ORIENTED_EDGE('',*,*,#537,.T.);
#537 = EDGE_CURVE('',#22,#514,#538,.T.);
#538 = SURFACE_CURVE('',#539,(#543,#550),.PCURVE_S1.);
#539 = LINE('',#540,#541);
#540 = CARTESIAN_POINT('',(-55.8945377445,43.054064311901,
    21.186116902975));
#541 = VECTOR('',#542,1.);
#542 = DIRECTION('',(0.999999672219,-5.596829818459E-04,
    -5.85078150269E-04));
#543 = PCURVE('',#498,#544);
#544 = DEFINITIONAL_REPRESENTATION('',(#545),#549);
#545 = LINE('',#546,#547);
#546 = CARTESIAN_POINT('',(6.511601593774E-02,-111.7994330289));
#547 = VECTOR('',#548,1.);
#548 = DIRECTION('',(-5.824359133931E-04,0.999999830384));
#549 = ( GEOMETRIC_REPRESENTATION_CONTEXT(2) 
PARAMETRIC_REPRESENTATION_CONTEXT() REPRESENTATION_CONTEXT('2D SPACE',''
  ) );
#550 = PCURVE('',#551,#556);
#551 = PLANE('',#552);
#552 = AXIS2_PLACEMENT_3D('',#553,#554,#555);
#553 = CARTESIAN_POINT('',(50.625586222529,37.798596904765,
    26.472922982757));
#554 = DIRECTION('',(8.091218665128E-04,0.71730907442,0.696754646254));
#555 = DIRECTION('',(7.221632123516E-21,-0.696754874329,0.717309309223)
  );
#556 = DEFINITIONAL_REPRESENTATION('',(#557),#561);
#557 = LINE('',#558,#559);
#558 = CARTESIAN_POINT('',(-7.454047749887,-106.5201588352));
#559 = VECTOR('',#560,1.);
#560 = DIRECTION('',(-2.972015813095E-05,0.999999999558));
#561 = ( GEOMETRIC_REPRESENTATION_CONTEXT(2) 
PARAMETRIC_REPRESENTATION_CONTEXT() REPRESENTATION_CONTEXT('2D SPACE',''
  ) );
#562 = ADVANCED_FACE('',(#563),#445,.F.);
#563 = FACE_BOUND('',#564,.F.);
#564 = EDGE_LOOP('',(#565,#566,#567));
#565 = ORIENTED_EDGE('',*,*,#513,.F.);
#566 = ORIENTED_EDGE('',*,*,#429,.T.);
#567 = ORIENTED_EDGE('',*,*,#568,.T.);
#568 = EDGE_CURVE('',#172,#514,#569,.T.);
#569 = SURFACE_CURVE('',#570,(#574,#581),.PCURVE_S1.);
#570 = LINE('',#571,#572);
#571 = CARTESIAN_POINT('',(55.886119745367,-43.06985093104,
    2.895898686949E-03));
#572 = VECTOR('',#573,1.);
#573 = DIRECTION('',(2.116794810032E-04,0.971188825107,0.238311185594));
#574 = PCURVE('',#445,#575);
#575 = DEFINITIONAL_REPRESENTATION('',(#576),#580);
#576 = LINE('',#577,#578);
#577 = CARTESIAN_POINT('',(21.117812430321,86.061344338989));
#578 = VECTOR('',#579,1.);
#579 = DIRECTION('',(-0.238311217673,-0.971188840304));
#580 = ( GEOMETRIC_REPRESENTATION_CONTEXT(2) 
PARAMETRIC_REPRESENTATION_CONTEXT() REPRESENTATION_CONTEXT('2D SPACE',''
  ) );
#581 = PCURVE('',#267,#582);
#582 = DEFINITIONAL_REPRESENTATION('',(#583),#587);
#583 = LINE('',#584,#585);
#584 = CARTESIAN_POINT('',(-21.12906847668,7.609409498762E-02));
#585 = VECTOR('',#586,1.);
#586 = DIRECTION('',(0.238311276774,-0.971188825802));
#587 = ( GEOMETRIC_REPRESENTATION_CONTEXT(2) 
PARAMETRIC_REPRESENTATION_CONTEXT() REPRESENTATION_CONTEXT('2D SPACE',''
  ) );
#588 = ADVANCED_FACE('',(#589),#267,.T.);
#589 = FACE_BOUND('',#590,.T.);
#590 = EDGE_LOOP('',(#591,#592,#593));
#591 = ORIENTED_EDGE('',*,*,#253,.F.);
#592 = ORIENTED_EDGE('',*,*,#568,.T.);
#593 = ORIENTED_EDGE('',*,*,#594,.T.);
#594 = EDGE_CURVE('',#514,#225,#595,.T.);
#595 = SURFACE_CURVE('',#596,(#600,#607),.PCURVE_S1.);
#596 = LINE('',#597,#598);
#597 = CARTESIAN_POINT('',(55.904877601664,42.991492061241,
    21.120705486403));
#598 = VECTOR('',#599,1.);
#599 = DIRECTION('',(3.796835662687E-05,-0.999999990724,
    1.308062960574E-04));
#600 = PCURVE('',#267,#601);
#601 = DEFINITIONAL_REPRESENTATION('',(#602),#606);
#602 = LINE('',#603,#604);
#603 = CARTESIAN_POINT('',(-1.125080913909E-02,-85.98524895888));
#604 = VECTOR('',#605,1.);
#605 = DIRECTION('',(1.308458041235E-04,0.99999999144));
#606 = ( GEOMETRIC_REPRESENTATION_CONTEXT(2) 
PARAMETRIC_REPRESENTATION_CONTEXT() REPRESENTATION_CONTEXT('2D SPACE',''
  ) );
#607 = PCURVE('',#608,#613);
#608 = PLANE('',#609);
#609 = AXIS2_PLACEMENT_3D('',#610,#611,#612);
#610 = CARTESIAN_POINT('',(50.625586222529,37.798596904765,
    26.472922982757));
#611 = DIRECTION('',(0.711882704111,1.188940660841E-04,0.702298370675));
#612 = DIRECTION('',(-0.702298375639,2.93746100469E-21,0.711882709142));
#613 = DEFINITIONAL_REPRESENTATION('',(#614),#618);
#614 = LINE('',#615,#616);
#615 = CARTESIAN_POINT('',(-7.517788851312,-5.192895193179));
#616 = VECTOR('',#617,1.);
#617 = DIRECTION('',(6.645362522545E-05,0.999999997792));
#618 = ( GEOMETRIC_REPRESENTATION_CONTEXT(2) 
PARAMETRIC_REPRESENTATION_CONTEXT() REPRESENTATION_CONTEXT('2D SPACE',''
  ) );
#619 = ADVANCED_FACE('',(#620),#357,.T.);
#620 = FACE_BOUND('',#621,.T.);
#621 = EDGE_LOOP('',(#622,#650,#651));
#622 = ORIENTED_EDGE('',*,*,#623,.F.);
#623 = EDGE_CURVE('',#342,#624,#626,.T.);
#624 = VERTEX_POINT('',#625);
#625 = CARTESIAN_POINT('',(50.599462425625,-37.74119301785,
    26.423440026183));
#626 = SURFACE_CURVE('',#627,(#631,#638),.PCURVE_S1.);
#627 = LINE('',#628,#629);
#628 = CARTESIAN_POINT('',(-50.61582082473,-37.78698607228,
    26.398777011521));
#629 = VECTOR('',#630,1.);
#630 = DIRECTION('',(0.999999867965,4.524321516622E-04,
    2.436688473653E-04));
#631 = PCURVE('',#357,#632);
#632 = DEFINITIONAL_REPRESENTATION('',(#633),#637);
#633 = LINE('',#634,#635);
#634 = CARTESIAN_POINT('',(-4.990292984706E-02,101.21528431227));
#635 = VECTOR('',#636,1.);
#636 = DIRECTION('',(4.930374312613E-04,-0.999999878457));
#637 = ( GEOMETRIC_REPRESENTATION_CONTEXT(2) 
PARAMETRIC_REPRESENTATION_CONTEXT() REPRESENTATION_CONTEXT('2D SPACE',''
  ) );
#638 = PCURVE('',#639,#644);
#639 = PLANE('',#640);
#640 = AXIS2_PLACEMENT_3D('',#641,#642,#643);
#641 = CARTESIAN_POINT('',(50.625586222529,37.798596904765,
    26.472922982757));
#642 = DIRECTION('',(-2.433724887907E-04,-6.549738453331E-04,
    0.99999975589));
#643 = DIRECTION('',(1.598379287336E-23,0.999999785505,
    6.549738647302E-04));
#644 = DEFINITIONAL_REPRESENTATION('',(#645),#649);
#645 = LINE('',#646,#647);
#646 = CARTESIAN_POINT('',(-75.58561532795,101.24141004553));
#647 = VECTOR('',#648,1.);
#648 = DIRECTION('',(4.525916513443E-04,-0.99999989758));
#649 = ( GEOMETRIC_REPRESENTATION_CONTEXT(2) 
PARAMETRIC_REPRESENTATION_CONTEXT() REPRESENTATION_CONTEXT('2D SPACE',''
  ) );
#650 = ORIENTED_EDGE('',*,*,#341,.F.);
#651 = ORIENTED_EDGE('',*,*,#652,.T.);
#652 = EDGE_CURVE('',#114,#624,#653,.T.);
#653 = SURFACE_CURVE('',#654,(#658,#665),.PCURVE_S1.);
#654 = LINE('',#655,#656);
#655 = CARTESIAN_POINT('',(-55.91891237288,-43.05722301299,
    21.188373386102));
#656 = VECTOR('',#657,1.);
#657 = DIRECTION('',(0.997555909619,4.978518633427E-02,
    4.902695590261E-02));
#658 = PCURVE('',#357,#659);
#659 = DEFINITIONAL_REPRESENTATION('',(#660),#664);
#660 = LINE('',#661,#662);
#661 = CARTESIAN_POINT('',(-7.460955672942,106.51837591607));
#662 = VECTOR('',#663,1.);
#663 = DIRECTION('',(6.987264344795E-02,-0.997555920085));
#664 = ( GEOMETRIC_REPRESENTATION_CONTEXT(2) 
PARAMETRIC_REPRESENTATION_CONTEXT() REPRESENTATION_CONTEXT('2D SPACE',''
  ) );
#665 = PCURVE('',#240,#666);
#666 = DEFINITIONAL_REPRESENTATION('',(#667),#671);
#667 = LINE('',#668,#669);
#668 = CARTESIAN_POINT('',(7.460534497773,-106.5184054159));
#669 = VECTOR('',#670,1.);
#670 = DIRECTION('',(-6.98686990977E-02,0.997556196355));
#671 = ( GEOMETRIC_REPRESENTATION_CONTEXT(2) 
PARAMETRIC_REPRESENTATION_CONTEXT() REPRESENTATION_CONTEXT('2D SPACE',''
  ) );
#672 = ADVANCED_FACE('',(#673),#240,.T.);
#673 = FACE_BOUND('',#674,.T.);
#674 = EDGE_LOOP('',(#675,#676,#677));
#675 = ORIENTED_EDGE('',*,*,#652,.F.);
#676 = ORIENTED_EDGE('',*,*,#224,.T.);
#677 = ORIENTED_EDGE('',*,*,#678,.F.);
#678 = EDGE_CURVE('',#624,#225,#679,.T.);
#679 = SURFACE_CURVE('',#680,(#684,#691),.PCURVE_S1.);
#680 = LINE('',#681,#682);
#681 = CARTESIAN_POINT('',(50.599462425625,-37.74119301785,
    26.423440026183));
#682 = VECTOR('',#683,1.);
#683 = DIRECTION('',(0.580014425332,-0.573883309037,-0.578135982288));
#684 = PCURVE('',#240,#685);
#685 = DEFINITIONAL_REPRESENTATION('',(#686),#690);
#686 = LINE('',#687,#688);
#687 = CARTESIAN_POINT('',(-0.,0.));
#688 = VECTOR('',#689,1.);
#689 = DIRECTION('',(0.814606084564,0.58001459205));
#690 = ( GEOMETRIC_REPRESENTATION_CONTEXT(2) 
PARAMETRIC_REPRESENTATION_CONTEXT() REPRESENTATION_CONTEXT('2D SPACE',''
  ) );
#691 = PCURVE('',#692,#697);
#692 = PLANE('',#693);
#693 = AXIS2_PLACEMENT_3D('',#694,#695,#696);
#694 = CARTESIAN_POINT('',(55.90814232029,-42.99375683611,
    21.131952898431));
#695 = DIRECTION('',(-0.705607217437,7.081950075625E-04,-0.708602817636)
  );
#696 = DIRECTION('',(-0.708602995332,2.892425751034E-21,0.705607394382)
  );
#697 = DEFINITIONAL_REPRESENTATION('',(#698),#702);
#698 = LINE('',#699,#700);
#699 = CARTESIAN_POINT('',(7.495458919237,5.252565135446));
#700 = VECTOR('',#701,1.);
#701 = DIRECTION('',(-0.818936983187,-0.57388345295));
#702 = ( GEOMETRIC_REPRESENTATION_CONTEXT(2) 
PARAMETRIC_REPRESENTATION_CONTEXT() REPRESENTATION_CONTEXT('2D SPACE',''
  ) );
#703 = ADVANCED_FACE('',(#704),#383,.T.);
#704 = FACE_BOUND('',#705,.T.);
#705 = EDGE_LOOP('',(#706,#729,#730));
#706 = ORIENTED_EDGE('',*,*,#707,.F.);
#707 = EDGE_CURVE('',#283,#708,#710,.T.);
#708 = VERTEX_POINT('',#709);
#709 = CARTESIAN_POINT('',(50.625586222529,37.798596904765,
    26.472922982757));
#710 = SURFACE_CURVE('',#711,(#715,#722),.PCURVE_S1.);
#711 = LINE('',#712,#713);
#712 = CARTESIAN_POINT('',(-50.59895758002,37.784984473073,
    26.397215832138));
#713 = VECTOR('',#714,1.);
#714 = DIRECTION('',(0.999999711271,1.344775412169E-04,
    7.479127681512E-04));
#715 = PCURVE('',#383,#716);
#716 = DEFINITIONAL_REPRESENTATION('',(#717),#721);
#717 = LINE('',#718,#719);
#718 = CARTESIAN_POINT('',(-101.2245721137,-1.361243169462E-02));
#719 = VECTOR('',#720,1.);
#720 = DIRECTION('',(0.999999990958,1.34477541246E-04));
#721 = ( GEOMETRIC_REPRESENTATION_CONTEXT(2) 
PARAMETRIC_REPRESENTATION_CONTEXT() REPRESENTATION_CONTEXT('2D SPACE',''
  ) );
#722 = PCURVE('',#298,#723);
#723 = DEFINITIONAL_REPRESENTATION('',(#724),#728);
#724 = LINE('',#725,#726);
#725 = CARTESIAN_POINT('',(4.352912089588E-02,101.2245636697));
#726 = VECTOR('',#727,1.);
#727 = DIRECTION('',(-4.30025235902E-04,-0.999999907539));
#728 = ( GEOMETRIC_REPRESENTATION_CONTEXT(2) 
PARAMETRIC_REPRESENTATION_CONTEXT() REPRESENTATION_CONTEXT('2D SPACE',''
  ) );
#729 = ORIENTED_EDGE('',*,*,#369,.F.);
#730 = ORIENTED_EDGE('',*,*,#731,.T.);
#731 = EDGE_CURVE('',#342,#708,#732,.T.);
#732 = SURFACE_CURVE('',#733,(#737,#744),.PCURVE_S1.);
#733 = LINE('',#734,#735);
#734 = CARTESIAN_POINT('',(-50.61582082473,-37.78698607228,
    26.398777011521));
#735 = VECTOR('',#736,1.);
#736 = DIRECTION('',(0.801310441537,0.598248470024,5.868541605845E-04));
#737 = PCURVE('',#383,#738);
#738 = DEFINITIONAL_REPRESENTATION('',(#739),#743);
#739 = LINE('',#740,#741);
#740 = CARTESIAN_POINT('',(-101.241434186,-75.58558299343));
#741 = VECTOR('',#742,1.);
#742 = DIRECTION('',(0.801310656336,0.598248470154));
#743 = ( GEOMETRIC_REPRESENTATION_CONTEXT(2) 
PARAMETRIC_REPRESENTATION_CONTEXT() REPRESENTATION_CONTEXT('2D SPACE',''
  ) );
#744 = PCURVE('',#639,#745);
#745 = DEFINITIONAL_REPRESENTATION('',(#746),#750);
#746 = LINE('',#747,#748);
#747 = CARTESIAN_POINT('',(-75.58561532795,101.24141004553));
#748 = VECTOR('',#749,1.);
#749 = DIRECTION('',(0.598248726077,-0.801310465268));
#750 = ( GEOMETRIC_REPRESENTATION_CONTEXT(2) 
PARAMETRIC_REPRESENTATION_CONTEXT() REPRESENTATION_CONTEXT('2D SPACE',''
  ) );
#751 = ADVANCED_FACE('',(#752),#639,.T.);
#752 = FACE_BOUND('',#753,.T.);
#753 = EDGE_LOOP('',(#754,#755,#756));
#754 = ORIENTED_EDGE('',*,*,#731,.F.);
#755 = ORIENTED_EDGE('',*,*,#623,.T.);
#756 = ORIENTED_EDGE('',*,*,#757,.T.);
#757 = EDGE_CURVE('',#624,#708,#758,.T.);
#758 = SURFACE_CURVE('',#759,(#763,#770),.PCURVE_S1.);
#759 = LINE('',#760,#761);
#760 = CARTESIAN_POINT('',(50.599462425625,-37.74119301785,
    26.423440026183));
#761 = VECTOR('',#762,1.);
#762 = DIRECTION('',(3.458282021114E-04,0.999999725651,
    6.550579906183E-04));
#763 = PCURVE('',#639,#764);
#764 = DEFINITIONAL_REPRESENTATION('',(#765),#769);
#765 = LINE('',#766,#767);
#766 = CARTESIAN_POINT('',(-75.53980612972,2.612379767751E-02));
#767 = VECTOR('',#768,1.);
#768 = DIRECTION('',(0.999999940201,-3.458282123532E-04));
#769 = ( GEOMETRIC_REPRESENTATION_CONTEXT(2) 
PARAMETRIC_REPRESENTATION_CONTEXT() REPRESENTATION_CONTEXT('2D SPACE',''
  ) );
#770 = PCURVE('',#692,#771);
#771 = DEFINITIONAL_REPRESENTATION('',(#772),#776);
#772 = LINE('',#773,#774);
#773 = CARTESIAN_POINT('',(7.495458919237,5.252565135446));
#774 = VECTOR('',#775,1.);
#775 = DIRECTION('',(2.171588620427E-04,0.999999976421));
#776 = ( GEOMETRIC_REPRESENTATION_CONTEXT(2) 
PARAMETRIC_REPRESENTATION_CONTEXT() REPRESENTATION_CONTEXT('2D SPACE',''
  ) );
#777 = ADVANCED_FACE('',(#778),#298,.T.);
#778 = FACE_BOUND('',#779,.T.);
#779 = EDGE_LOOP('',(#780,#801,#802));
#780 = ORIENTED_EDGE('',*,*,#781,.F.);
#781 = EDGE_CURVE('',#22,#708,#782,.T.);
#782 = SURFACE_CURVE('',#783,(#787,#794),.PCURVE_S1.);
#783 = LINE('',#784,#785);
#784 = CARTESIAN_POINT('',(-55.8945377445,43.054064311901,
    21.186116902975));
#785 = VECTOR('',#786,1.);
#786 = DIRECTION('',(0.997560182108,-4.921741384144E-02,
    4.951090028163E-02));
#787 = PCURVE('',#298,#788);
#788 = DEFINITIONAL_REPRESENTATION('',(#789),#793);
#789 = LINE('',#790,#791);
#790 = CARTESIAN_POINT('',(7.454247263526,106.52014487353));
#791 = VECTOR('',#792,1.);
#792 = DIRECTION('',(-6.980897111972E-02,-0.997560377898));
#793 = ( GEOMETRIC_REPRESENTATION_CONTEXT(2) 
PARAMETRIC_REPRESENTATION_CONTEXT() REPRESENTATION_CONTEXT('2D SPACE',''
  ) );
#794 = PCURVE('',#551,#795);
#795 = DEFINITIONAL_REPRESENTATION('',(#796),#800);
#796 = LINE('',#797,#798);
#797 = CARTESIAN_POINT('',(-7.454047749887,-106.5201588352));
#798 = VECTOR('',#799,1.);
#799 = DIRECTION('',(6.980710267595E-02,0.997560508649));
#800 = ( GEOMETRIC_REPRESENTATION_CONTEXT(2) 
PARAMETRIC_REPRESENTATION_CONTEXT() REPRESENTATION_CONTEXT('2D SPACE',''
  ) );
#801 = ORIENTED_EDGE('',*,*,#282,.T.);
#802 = ORIENTED_EDGE('',*,*,#707,.T.);
#803 = ADVANCED_FACE('',(#804),#551,.T.);
#804 = FACE_BOUND('',#805,.T.);
#805 = EDGE_LOOP('',(#806,#827,#828));
#806 = ORIENTED_EDGE('',*,*,#807,.T.);
#807 = EDGE_CURVE('',#708,#514,#808,.T.);
#808 = SURFACE_CURVE('',#809,(#813,#820),.PCURVE_S1.);
#809 = LINE('',#810,#811);
#810 = CARTESIAN_POINT('',(50.625586222529,37.798596904765,
    26.472922982757));
#811 = VECTOR('',#812,1.);
#812 = DIRECTION('',(0.57779769293,0.568341965912,-0.585779169848));
#813 = PCURVE('',#551,#814);
#814 = DEFINITIONAL_REPRESENTATION('',(#815),#819);
#815 = LINE('',#816,#817);
#816 = CARTESIAN_POINT('',(0.,0.));
#817 = VECTOR('',#818,1.);
#818 = DIRECTION('',(-0.816179886716,0.577797882066));
#819 = ( GEOMETRIC_REPRESENTATION_CONTEXT(2) 
PARAMETRIC_REPRESENTATION_CONTEXT() REPRESENTATION_CONTEXT('2D SPACE',''
  ) );
#820 = PCURVE('',#608,#821);
#821 = DEFINITIONAL_REPRESENTATION('',(#822),#826);
#822 = LINE('',#823,#824);
#823 = CARTESIAN_POINT('',(0.,0.));
#824 = VECTOR('',#825,1.);
#825 = DIRECTION('',(-0.822792443583,-0.568341969929));
#826 = ( GEOMETRIC_REPRESENTATION_CONTEXT(2) 
PARAMETRIC_REPRESENTATION_CONTEXT() REPRESENTATION_CONTEXT('2D SPACE',''
  ) );
#827 = ORIENTED_EDGE('',*,*,#537,.F.);
#828 = ORIENTED_EDGE('',*,*,#781,.T.);
#829 = ADVANCED_FACE('',(#830),#692,.F.);
#830 = FACE_BOUND('',#831,.F.);
#831 = EDGE_LOOP('',(#832,#833,#834));
#832 = ORIENTED_EDGE('',*,*,#678,.F.);
#833 = ORIENTED_EDGE('',*,*,#757,.T.);
#834 = ORIENTED_EDGE('',*,*,#835,.T.);
#835 = EDGE_CURVE('',#708,#225,#836,.T.);
#836 = SURFACE_CURVE('',#837,(#841,#848),.PCURVE_S1.);
#837 = LINE('',#838,#839);
#838 = CARTESIAN_POINT('',(50.625586222529,37.798596904765,
    26.472922982757));
#839 = VECTOR('',#840,1.);
#840 = DIRECTION('',(6.510354281439E-02,-0.995705178233,
    -6.582345139746E-02));
#841 = PCURVE('',#692,#842);
#842 = DEFINITIONAL_REPRESENTATION('',(#843),#847);
#843 = LINE('',#844,#845);
#844 = CARTESIAN_POINT('',(7.511863058556,80.79237400119));
#845 = VECTOR('',#846,1.);
#846 = DIRECTION('',(-9.257807947479E-02,-0.995705427926));
#847 = ( GEOMETRIC_REPRESENTATION_CONTEXT(2) 
PARAMETRIC_REPRESENTATION_CONTEXT() REPRESENTATION_CONTEXT('2D SPACE',''
  ) );
#848 = PCURVE('',#608,#849);
#849 = DEFINITIONAL_REPRESENTATION('',(#850),#854);
#850 = LINE('',#851,#852);
#851 = CARTESIAN_POINT('',(0.,0.));
#852 = VECTOR('',#853,1.);
#853 = DIRECTION('',(-9.258068927276E-02,0.99570518527));
#854 = ( GEOMETRIC_REPRESENTATION_CONTEXT(2) 
PARAMETRIC_REPRESENTATION_CONTEXT() REPRESENTATION_CONTEXT('2D SPACE',''
  ) );
#855 = ADVANCED_FACE('',(#856),#608,.T.);
#856 = FACE_BOUND('',#857,.T.);
#857 = EDGE_LOOP('',(#858,#859,#860));
#858 = ORIENTED_EDGE('',*,*,#835,.T.);
#859 = ORIENTED_EDGE('',*,*,#594,.F.);
#860 = ORIENTED_EDGE('',*,*,#807,.F.);
#861 = ( GEOMETRIC_REPRESENTATION_CONTEXT(3) 
GLOBAL_UNCERTAINTY_ASSIGNED_CONTEXT((#865)) GLOBAL_UNIT_ASSIGNED_CONTEXT
((#862,#863,#864)) REPRESENTATION_CONTEXT('Context #1',
  '3D Context with UNIT and UNCERTAINTY') );
#862 = ( LENGTH_UNIT() NAMED_UNIT(*) SI_UNIT(.MILLI.,.METRE.) );
#863 = ( NAMED_UNIT(*) PLANE_ANGLE_UNIT() SI_UNIT($,.RADIAN.) );
#864 = ( NAMED_UNIT(*) SI_UNIT($,.STERADIAN.) SOLID_ANGLE_UNIT() );
#865 = UNCERTAINTY_MEASURE_WITH_UNIT(LENGTH_MEASURE(1.E-07),#862,
  'distance_accuracy_value','confusion accuracy');
#866 = PRODUCT_TYPE('part',$,(#7));
ENDSEC;
END-ISO-10303-21;
