ISO-10303-21;
HEADER;
FILE_DESCRIPTION(('Open CASCADE Model'),'2;1');
FILE_NAME('Open CASCADE Shape Model','2026-10-04T20:44:43',('Author'),(
    'Open CASCADE'),'Open CASCADE STEP processor 7.8','Open CASCADE 7.8'
  ,'Unknown');
FILE_SCHEMA(('AUTOMOTIVE_DESIGN_CC2 { 1 2 10303 214 -1 1 5 4 }'));
ENDSEC;
DATA;
#1 = APPLICATION_PROTOCOL_DEFINITION('committee draft',
  'automotive_design',1997,#2);
#2 = APPLICATION_CONTEXT(
  'core data for automotive mechanical design processes');
#3 = SHAPE_DEFINITION_REPRESENTATION(#4,#10);
#4 = PRODUCT_DEFINITION_SHAPE('','',#5);
#5 = PRODUCT_DEFINITION('design','',#6,#9);
#6 = PRODUCT_DEFINITION_FORMATION('','',#7);
#7 = PRODUCT('Open CASCADE STEP translator 7.8 127',
  'Open CASCADE STEP translator 7.8 127','',(#8));
#8 = MECHANICAL_CONTEXT('',#2,'mechanical');
#9 = PRODUCT_DEFINITION_CONTEXT('part definition',#2,'design');
#10 = ADVANCED_BREP_SHAPE_REPRESENTATION('',(#11,#15),#861);
#11 = AXIS2_PLACEMENT_3D('',#12,#13,#14);
#12 = CARTESIAN_POINT('',(0.,0.,0.));
#13 = DIRECTION('',(0.,0.,1.));
#14 = DIRECTION('',(1.,0.,-0.));
#15 = MANIFOLD_SOLID_BREP('',#16);
#16 = CLOSED_SHELL('',(#17,#109,#167,#220,#278,#336,#394,#425,#478,#509,
    #562,#588,#619,#672,#703,#751,#777,#803,#829,#855));
#17 = ADVANCED_FACE('',(#18),#32,.T.);
#18 = FACE_BOUND('',#19,.T.);
#19 = EDGE_LOOP('',(#20,#55,#83));
#20 = ORIENTED_EDGE('',*,*,#21,.T.);
#21 = EDGE_CURVE('',#22,#24,#26,.T.);
#22 = VERTEX_POINT('',#23);
#23 = CARTESIAN_POINT('',(-55.90491522104,-43.04712831929,
    -5.492548630148E-02));
#24 = VERTEX_POINT('',#25);
#25 = CARTESIAN_POINT('',(-55.90390240666,43.016817508053,
    21.157287436703));
#26 = SURFACE_CURVE('',#27,(#31,#43),.PCURVE_S1.);
#27 = LINE('',#28,#29);
#28 = CARTESIAN_POINT('',(-55.90491522104,-43.04712831929,
    -5.492548630148E-02));
#29 = VECTOR('',#30,1.);
#30 = DIRECTION('',(1.142621965961E-05,0.97094350692,0.239308809363));
#31 = PCURVE('',#32,#37);
#32 = PLANE('',#33);
#33 = AXIS2_PLACEMENT_3D('',#34,#35,#36);
#34 = CARTESIAN_POINT('',(-55.90491522104,-43.04712831929,
    -5.492548630148E-02));
#35 = DIRECTION('',(-0.999999462759,-2.369514575195E-04,
    1.009125795653E-03));
#36 = DIRECTION('',(-1.009125823982E-03,2.277151916149E-23,
    -0.999999490832));
#37 = DEFINITIONAL_REPRESENTATION('',(#38),#42);
#38 = LINE('',#39,#40);
#39 = CARTESIAN_POINT('',(0.,0.));
#40 = VECTOR('',#41,1.);
#41 = DIRECTION('',(-0.239308699045,-0.970943534178));
#42 = ( GEOMETRIC_REPRESENTATION_CONTEXT(2) 
PARAMETRIC_REPRESENTATION_CONTEXT() REPRESENTATION_CONTEXT('2D SPACE',''
  ) );
#43 = PCURVE('',#44,#49);
#44 = PLANE('',#45);
#45 = AXIS2_PLACEMENT_3D('',#46,#47,#48);
#46 = CARTESIAN_POINT('',(-55.90498949914,-42.99932780818,
    21.128044699866));
#47 = DIRECTION('',(-0.999999999914,1.263943941686E-05,
    -3.535022285811E-06));
#48 = DIRECTION('',(-1.263943941694E-05,-0.99999999992,
    -4.264042520598E-27));
#49 = DEFINITIONAL_REPRESENTATION('',(#50),#54);
#50 = LINE('',#51,#52);
#51 = CARTESIAN_POINT('',(4.780051017435E-02,-21.1829701863));
#52 = VECTOR('',#53,1.);
#53 = DIRECTION('',(-0.970943506987,0.239308809364));
#54 = ( GEOMETRIC_REPRESENTATION_CONTEXT(2) 
PARAMETRIC_REPRESENTATION_CONTEXT() REPRESENTATION_CONTEXT('2D SPACE',''
  ) );
#55 = ORIENTED_EDGE('',*,*,#56,.F.);
#56 = EDGE_CURVE('',#57,#24,#59,.T.);
#57 = VERTEX_POINT('',#58);
#58 = CARTESIAN_POINT('',(-55.9252460488,43.041249106382,
    1.240969865892E-02));
#59 = SURFACE_CURVE('',#60,(#64,#71),.PCURVE_S1.);
#60 = LINE('',#61,#62);
#61 = CARTESIAN_POINT('',(-55.9252460488,43.041249106382,
    1.240969865892E-02));
#62 = VECTOR('',#63,1.);
#63 = DIRECTION('',(1.009398932672E-03,-1.155436786005E-03,
    0.999998823039));
#64 = PCURVE('',#32,#65);
#65 = DEFINITIONAL_REPRESENTATION('',(#66),#70);
#66 = LINE('',#67,#68);
#67 = CARTESIAN_POINT('',(-6.731463431219E-02,-86.08837984243));
#68 = VECTOR('',#69,1.);
#69 = DIRECTION('',(-0.999999332483,1.155436818442E-03));
#70 = ( GEOMETRIC_REPRESENTATION_CONTEXT(2) 
PARAMETRIC_REPRESENTATION_CONTEXT() REPRESENTATION_CONTEXT('2D SPACE',''
  ) );
#71 = PCURVE('',#72,#77);
#72 = PLANE('',#73);
#73 = AXIS2_PLACEMENT_3D('',#74,#75,#76);
#74 = CARTESIAN_POINT('',(55.925118376447,43.037308694107,
    2.645239154195E-02));
#75 = DIRECTION('',(3.508423694881E-05,0.999999331907,1.155401959938E-03
    ));
#76 = DIRECTION('',(3.206245278003E-24,-1.155401960649E-03,
    0.999999332523));
#77 = DEFINITIONAL_REPRESENTATION('',(#78),#82);
#78 = LINE('',#79,#80);
#79 = CARTESIAN_POINT('',(-1.404723626993E-02,-111.850364494));
#80 = VECTOR('',#81,1.);
#81 = DIRECTION('',(0.999999490557,1.009398933293E-03));
#82 = ( GEOMETRIC_REPRESENTATION_CONTEXT(2) 
PARAMETRIC_REPRESENTATION_CONTEXT() REPRESENTATION_CONTEXT('2D SPACE',''
  ) );
#83 = ORIENTED_EDGE('',*,*,#84,.T.);
#84 = EDGE_CURVE('',#57,#22,#85,.T.);
#85 = SURFACE_CURVE('',#86,(#90,#97),.PCURVE_S1.);
#86 = LINE('',#87,#88);
#87 = CARTESIAN_POINT('',(-55.9252460488,43.041249106382,
    1.240969865892E-02));
#88 = VECTOR('',#89,1.);
#89 = DIRECTION('',(2.361622042251E-04,-0.999999666224,
    -7.821632199266E-04));
#90 = PCURVE('',#32,#91);
#91 = DEFINITIONAL_REPRESENTATION('',(#92),#96);
#92 = LINE('',#93,#94);
#93 = CARTESIAN_POINT('',(-6.731463431219E-02,-86.08837984243));
#94 = VECTOR('',#95,1.);
#95 = DIRECTION('',(7.819245042955E-04,0.999999694297));
#96 = ( GEOMETRIC_REPRESENTATION_CONTEXT(2) 
PARAMETRIC_REPRESENTATION_CONTEXT() REPRESENTATION_CONTEXT('2D SPACE',''
  ) );
#97 = PCURVE('',#98,#103);
#98 = PLANE('',#99);
#99 = AXIS2_PLACEMENT_3D('',#100,#101,#102);
#100 = CARTESIAN_POINT('',(55.91190596862,-43.02170566957,
    -5.914791962313E-02));
#101 = DIRECTION('',(-3.793987716895E-05,7.821542812128E-04,
    -0.999999693398));
#102 = DIRECTION('',(-1.781245045694E-25,-0.999999694117,
    -7.821542817757E-04));
#103 = DEFINITIONAL_REPRESENTATION('',(#104),#108);
#104 = LINE('',#105,#106);
#105 = CARTESIAN_POINT('',(-86.06298441988,111.83715209791));
#106 = VECTOR('',#107,1.);
#107 = DIRECTION('',(0.999999972114,-2.36162204395E-04));
#108 = ( GEOMETRIC_REPRESENTATION_CONTEXT(2) 
PARAMETRIC_REPRESENTATION_CONTEXT() REPRESENTATION_CONTEXT('2D SPACE',''
  ) );
#109 = ADVANCED_FACE('',(#110),#44,.T.);
#110 = FACE_BOUND('',#111,.T.);
#111 = EDGE_LOOP('',(#112,#140,#141));
#112 = ORIENTED_EDGE('',*,*,#113,.T.);
#113 = EDGE_CURVE('',#114,#24,#116,.T.);
#114 = VERTEX_POINT('',#115);
#115 = CARTESIAN_POINT('',(-55.90498949914,-42.99932780818,
    21.128044699866));
#116 = SURFACE_CURVE('',#117,(#121,#128),.PCURVE_S1.);
#117 = LINE('',#118,#119);
#118 = CARTESIAN_POINT('',(-55.90498949914,-42.99932780818,
    21.128044699866));
#119 = VECTOR('',#120,1.);
#120 = DIRECTION('',(1.263823689213E-05,0.999999942131,
    3.399679797045E-04));
#121 = PCURVE('',#44,#122);
#122 = DEFINITIONAL_REPRESENTATION('',(#123),#127);
#123 = LINE('',#124,#125);
#124 = CARTESIAN_POINT('',(-0.,0.));
#125 = VECTOR('',#126,1.);
#126 = DIRECTION('',(-0.999999942211,3.399679797067E-04));
#127 = ( GEOMETRIC_REPRESENTATION_CONTEXT(2) 
PARAMETRIC_REPRESENTATION_CONTEXT() REPRESENTATION_CONTEXT('2D SPACE',''
  ) );
#128 = PCURVE('',#129,#134);
#129 = PLANE('',#130);
#130 = AXIS2_PLACEMENT_3D('',#131,#132,#133);
#131 = CARTESIAN_POINT('',(-50.58537581807,37.722957714352,
    26.350033958262));
#132 = DIRECTION('',(-0.698714791244,-2.343826843088E-04,0.715400297429)
  );
#133 = DIRECTION('',(0.71540031708,-4.063831687893E-21,0.698714810436));
#134 = DEFINITIONAL_REPRESENTATION('',(#135),#139);
#135 = LINE('',#136,#137);
#136 = CARTESIAN_POINT('',(-7.454334548957,-80.72228773978));
#137 = VECTOR('',#138,1.);
#138 = DIRECTION('',(2.465820611734E-04,0.999999969599));
#139 = ( GEOMETRIC_REPRESENTATION_CONTEXT(2) 
PARAMETRIC_REPRESENTATION_CONTEXT() REPRESENTATION_CONTEXT('2D SPACE',''
  ) );
#140 = ORIENTED_EDGE('',*,*,#21,.F.);
#141 = ORIENTED_EDGE('',*,*,#142,.F.);
#142 = EDGE_CURVE('',#114,#22,#143,.T.);
#143 = SURFACE_CURVE('',#144,(#148,#155),.PCURVE_S1.);
#144 = LINE('',#145,#146);
#145 = CARTESIAN_POINT('',(-55.90498949914,-42.99932780818,
    21.128044699866));
#146 = VECTOR('',#147,1.);
#147 = DIRECTION('',(3.506491783916E-06,-2.256548019288E-03,
    -0.999997453986));
#148 = PCURVE('',#44,#149);
#149 = DEFINITIONAL_REPRESENTATION('',(#150),#154);
#150 = LINE('',#151,#152);
#151 = CARTESIAN_POINT('',(-0.,0.));
#152 = VECTOR('',#153,1.);
#153 = DIRECTION('',(2.256547974788E-03,-0.999997453992));
#154 = ( GEOMETRIC_REPRESENTATION_CONTEXT(2) 
PARAMETRIC_REPRESENTATION_CONTEXT() REPRESENTATION_CONTEXT('2D SPACE',''
  ) );
#155 = PCURVE('',#156,#161);
#156 = PLANE('',#157);
#157 = AXIS2_PLACEMENT_3D('',#158,#159,#160);
#158 = CARTESIAN_POINT('',(55.91190596862,-43.02170566957,
    -5.914791962313E-02));
#159 = DIRECTION('',(2.274444237735E-04,-0.999997428125,
    2.256548758465E-03));
#160 = DIRECTION('',(-9.363597950316E-24,-2.256548816832E-03,
    -0.99999745399));
#161 = DEFINITIONAL_REPRESENTATION('',(#162),#166);
#162 = LINE('',#163,#164);
#163 = CARTESIAN_POINT('',(-21.18718917343,-111.8168983599));
#164 = VECTOR('',#165,1.);
#165 = DIRECTION('',(0.999999999994,3.506491874613E-06));
#166 = ( GEOMETRIC_REPRESENTATION_CONTEXT(2) 
PARAMETRIC_REPRESENTATION_CONTEXT() REPRESENTATION_CONTEXT('2D SPACE',''
  ) );
#167 = ADVANCED_FACE('',(#168),#156,.T.);
#168 = FACE_BOUND('',#169,.T.);
#169 = EDGE_LOOP('',(#170,#198,#199));
#170 = ORIENTED_EDGE('',*,*,#171,.F.);
#171 = EDGE_CURVE('',#114,#172,#174,.T.);
#172 = VERTEX_POINT('',#173);
#173 = CARTESIAN_POINT('',(55.91190596862,-43.02170566957,
    -5.914791962313E-02));
#174 = SURFACE_CURVE('',#175,(#179,#186),.PCURVE_S1.);
#175 = LINE('',#176,#177);
#176 = CARTESIAN_POINT('',(-55.90498949914,-42.99932780818,
    21.128044699866));
#177 = VECTOR('',#178,1.);
#178 = DIRECTION('',(0.98251779496,-1.966308127485E-04,-0.186168590058)
  );
#179 = PCURVE('',#156,#180);
#180 = DEFINITIONAL_REPRESENTATION('',(#181),#185);
#181 = LINE('',#182,#183);
#182 = CARTESIAN_POINT('',(-21.18718917343,-111.8168983599));
#183 = VECTOR('',#184,1.);
#184 = DIRECTION('',(0.186168559778,0.982517820373));
#185 = ( GEOMETRIC_REPRESENTATION_CONTEXT(2) 
PARAMETRIC_REPRESENTATION_CONTEXT() REPRESENTATION_CONTEXT('2D SPACE',''
  ) );
#186 = PCURVE('',#187,#192);
#187 = PLANE('',#188);
#188 = AXIS2_PLACEMENT_3D('',#189,#190,#191);
#189 = CARTESIAN_POINT('',(55.860513379305,-43.0043810659,
    21.174682732186));
#190 = DIRECTION('',(-4.555343594702E-05,-0.999999666209,
    8.157857650863E-04));
#191 = DIRECTION('',(-1.792454076288E-24,-8.157857659327E-04,
    -0.999999667247));
#192 = DEFINITIONAL_REPRESENTATION('',(#193),#197);
#193 = LINE('',#194,#195);
#194 = CARTESIAN_POINT('',(4.663389442545E-02,-111.7655029944));
#195 = VECTOR('',#196,1.);
#196 = DIRECTION('',(0.186168688518,0.982517795979));
#197 = ( GEOMETRIC_REPRESENTATION_CONTEXT(2) 
PARAMETRIC_REPRESENTATION_CONTEXT() REPRESENTATION_CONTEXT('2D SPACE',''
  ) );
#198 = ORIENTED_EDGE('',*,*,#142,.T.);
#199 = ORIENTED_EDGE('',*,*,#200,.T.);
#200 = EDGE_CURVE('',#22,#172,#201,.T.);
#201 = SURFACE_CURVE('',#202,(#206,#213),.PCURVE_S1.);
#202 = LINE('',#203,#204);
#203 = CARTESIAN_POINT('',(-55.90491522104,-43.04712831929,
    -5.492548630148E-02));
#204 = VECTOR('',#205,1.);
#205 = DIRECTION('',(0.999999973441,2.273597905502E-04,
    -3.776205730568E-05));
#206 = PCURVE('',#156,#207);
#207 = DEFINITIONAL_REPRESENTATION('',(#208),#212);
#208 = LINE('',#209,#210);
#209 = CARTESIAN_POINT('',(-4.165055121144E-03,-111.8168240818));
#210 = VECTOR('',#211,1.);
#211 = DIRECTION('',(3.724891269676E-05,0.999999999306));
#212 = ( GEOMETRIC_REPRESENTATION_CONTEXT(2) 
PARAMETRIC_REPRESENTATION_CONTEXT() REPRESENTATION_CONTEXT('2D SPACE',''
  ) );
#213 = PCURVE('',#98,#214);
#214 = DEFINITIONAL_REPRESENTATION('',(#215),#219);
#215 = LINE('',#216,#217);
#216 = CARTESIAN_POINT('',(2.541933935022E-02,111.81682127014));
#217 = VECTOR('',#218,1.);
#218 = DIRECTION('',(-2.273301852499E-04,-0.99999997416));
#219 = ( GEOMETRIC_REPRESENTATION_CONTEXT(2) 
PARAMETRIC_REPRESENTATION_CONTEXT() REPRESENTATION_CONTEXT('2D SPACE',''
  ) );
#220 = ADVANCED_FACE('',(#221),#187,.T.);
#221 = FACE_BOUND('',#222,.T.);
#222 = EDGE_LOOP('',(#223,#251,#252));
#223 = ORIENTED_EDGE('',*,*,#224,.F.);
#224 = EDGE_CURVE('',#114,#225,#227,.T.);
#225 = VERTEX_POINT('',#226);
#226 = CARTESIAN_POINT('',(55.860513379305,-43.0043810659,
    21.174682732186));
#227 = SURFACE_CURVE('',#228,(#232,#239),.PCURVE_S1.);
#228 = LINE('',#229,#230);
#229 = CARTESIAN_POINT('',(-55.90498949914,-42.99932780818,
    21.128044699866));
#230 = VECTOR('',#231,1.);
#231 = DIRECTION('',(0.999999911915,-4.52130321526E-05,4.1728464518E-04)
  );
#232 = PCURVE('',#187,#233);
#233 = DEFINITIONAL_REPRESENTATION('',(#234),#238);
#234 = LINE('',#235,#236);
#235 = CARTESIAN_POINT('',(4.663389442545E-02,-111.7655029944));
#236 = VECTOR('',#237,1.);
#237 = DIRECTION('',(-4.172476221791E-04,0.999999912952));
#238 = ( GEOMETRIC_REPRESENTATION_CONTEXT(2) 
PARAMETRIC_REPRESENTATION_CONTEXT() REPRESENTATION_CONTEXT('2D SPACE',''
  ) );
#239 = PCURVE('',#240,#245);
#240 = PLANE('',#241);
#241 = AXIS2_PLACEMENT_3D('',#242,#243,#244);
#242 = CARTESIAN_POINT('',(50.574489089154,-37.77713393893,26.4359743696
    ));
#243 = DIRECTION('',(-3.261181574094E-04,-0.709561991333,0.704642940859)
  );
#244 = DIRECTION('',(9.122192459831E-21,-0.704642978329,-0.709562029066)
  );
#245 = DEFINITIONAL_REPRESENTATION('',(#246),#250);
#246 = LINE('',#247,#248);
#247 = CARTESIAN_POINT('',(7.446087588032,-106.4794842505));
#248 = VECTOR('',#249,1.);
#249 = DIRECTION('',(-2.642302938965E-04,0.999999965091));
#250 = ( GEOMETRIC_REPRESENTATION_CONTEXT(2) 
PARAMETRIC_REPRESENTATION_CONTEXT() REPRESENTATION_CONTEXT('2D SPACE',''
  ) );
#251 = ORIENTED_EDGE('',*,*,#171,.T.);
#252 = ORIENTED_EDGE('',*,*,#253,.F.);
#253 = EDGE_CURVE('',#225,#172,#254,.T.);
#254 = SURFACE_CURVE('',#255,(#259,#266),.PCURVE_S1.);
#255 = LINE('',#256,#257);
#256 = CARTESIAN_POINT('',(55.860513379305,-43.0043810659,
    21.174682732186));
#257 = VECTOR('',#258,1.);
#258 = DIRECTION('',(2.420308540899E-03,-8.158936298697E-04,
    -0.999996738207));
#259 = PCURVE('',#187,#260);
#260 = DEFINITIONAL_REPRESENTATION('',(#261),#265);
#261 = LINE('',#262,#263);
#262 = CARTESIAN_POINT('',(-0.,0.));
#263 = VECTOR('',#264,1.);
#264 = DIRECTION('',(0.999997071049,2.42030854341E-03));
#265 = ( GEOMETRIC_REPRESENTATION_CONTEXT(2) 
PARAMETRIC_REPRESENTATION_CONTEXT() REPRESENTATION_CONTEXT('2D SPACE',''
  ) );
#266 = PCURVE('',#267,#272);
#267 = PLANE('',#268);
#268 = AXIS2_PLACEMENT_3D('',#269,#270,#271);
#269 = CARTESIAN_POINT('',(55.860513379305,-43.0043810659,
    21.174682732186));
#270 = DIRECTION('',(0.999996742198,-8.090144267637E-04,
    2.420968622429E-03));
#271 = DIRECTION('',(-2.420969414697E-03,1.204741495514E-22,
    0.999997069449));
#272 = DEFINITIONAL_REPRESENTATION('',(#273),#277);
#273 = LINE('',#274,#275);
#274 = CARTESIAN_POINT('',(0.,-0.));
#275 = VECTOR('',#276,1.);
#276 = DIRECTION('',(-0.999999667159,8.158938968727E-04));
#277 = ( GEOMETRIC_REPRESENTATION_CONTEXT(2) 
PARAMETRIC_REPRESENTATION_CONTEXT() REPRESENTATION_CONTEXT('2D SPACE',''
  ) );
#278 = ADVANCED_FACE('',(#279),#129,.T.);
#279 = FACE_BOUND('',#280,.T.);
#280 = EDGE_LOOP('',(#281,#309,#310));
#281 = ORIENTED_EDGE('',*,*,#282,.F.);
#282 = EDGE_CURVE('',#24,#283,#285,.T.);
#283 = VERTEX_POINT('',#284);
#284 = CARTESIAN_POINT('',(-50.58537581807,37.722957714352,
    26.350033958262));
#285 = SURFACE_CURVE('',#286,(#290,#297),.PCURVE_S1.);
#286 = LINE('',#287,#288);
#287 = CARTESIAN_POINT('',(-55.90390240666,43.016817508053,
    21.157287436703));
#288 = VECTOR('',#289,1.);
#289 = DIRECTION('',(0.58281489484,-0.580111857593,0.569031660834));
#290 = PCURVE('',#129,#291);
#291 = DEFINITIONAL_REPRESENTATION('',(#292),#296);
#292 = LINE('',#293,#294);
#293 = CARTESIAN_POINT('',(-7.433124509323,5.293859939111));
#294 = VECTOR('',#295,1.);
#295 = DIRECTION('',(0.814536809599,-0.580111873528));
#296 = ( GEOMETRIC_REPRESENTATION_CONTEXT(2) 
PARAMETRIC_REPRESENTATION_CONTEXT() REPRESENTATION_CONTEXT('2D SPACE',''
  ) );
#297 = PCURVE('',#298,#303);
#298 = PLANE('',#299);
#299 = AXIS2_PLACEMENT_3D('',#300,#301,#302);
#300 = CARTESIAN_POINT('',(50.575612998722,37.760714826589,
    26.48727622023));
#301 = DIRECTION('',(-1.230480622629E-03,0.699625382849,0.714508789023)
  );
#302 = DIRECTION('',(8.287728079444E-20,0.714509329936,-0.699625912495)
  );
#303 = DEFINITIONAL_REPRESENTATION('',(#304),#308);
#304 = LINE('',#305,#306);
#305 = CARTESIAN_POINT('',(7.484532671271,106.47959601486));
#306 = VECTOR('',#307,1.);
#307 = DIRECTION('',(-0.812604629607,-0.582815336056));
#308 = ( GEOMETRIC_REPRESENTATION_CONTEXT(2) 
PARAMETRIC_REPRESENTATION_CONTEXT() REPRESENTATION_CONTEXT('2D SPACE',''
  ) );
#309 = ORIENTED_EDGE('',*,*,#113,.F.);
#310 = ORIENTED_EDGE('',*,*,#311,.T.);
#311 = EDGE_CURVE('',#114,#283,#312,.T.);
#312 = SURFACE_CURVE('',#313,(#317,#324),.PCURVE_S1.);
#313 = LINE('',#314,#315);
#314 = CARTESIAN_POINT('',(-55.90498949914,-42.99932780818,
    21.128044699866));
#315 = VECTOR('',#316,1.);
#316 = DIRECTION('',(6.562098146679E-02,0.995763211355,
    6.441671912463E-02));
#317 = PCURVE('',#129,#318);
#318 = DEFINITIONAL_REPRESENTATION('',(#319),#323);
#319 = LINE('',#320,#321);
#320 = CARTESIAN_POINT('',(-7.454334548957,-80.72228773978));
#321 = VECTOR('',#322,1.);
#322 = DIRECTION('',(9.195418664048E-02,0.995763238707));
#323 = ( GEOMETRIC_REPRESENTATION_CONTEXT(2) 
PARAMETRIC_REPRESENTATION_CONTEXT() REPRESENTATION_CONTEXT('2D SPACE',''
  ) );
#324 = PCURVE('',#325,#330);
#325 = PLANE('',#326);
#326 = AXIS2_PLACEMENT_3D('',#327,#328,#329);
#327 = CARTESIAN_POINT('',(-50.58537581807,37.722957714352,
    26.350033958262));
#328 = DIRECTION('',(-0.703982719739,4.480890676634E-04,0.710216959474)
  );
#329 = DIRECTION('',(0.710217030774,-1.345114193835E-20,0.703982790414)
  );
#330 = DEFINITIONAL_REPRESENTATION('',(#331),#335);
#331 = LINE('',#332,#333);
#332 = CARTESIAN_POINT('',(-7.45427080307,-80.72229362639));
#333 = VECTOR('',#334,1.);
#334 = DIRECTION('',(9.195340029247E-02,0.995763311322));
#335 = ( GEOMETRIC_REPRESENTATION_CONTEXT(2) 
PARAMETRIC_REPRESENTATION_CONTEXT() REPRESENTATION_CONTEXT('2D SPACE',''
  ) );
#336 = ADVANCED_FACE('',(#337),#325,.T.);
#337 = FACE_BOUND('',#338,.T.);
#338 = EDGE_LOOP('',(#339,#340,#368));
#339 = ORIENTED_EDGE('',*,*,#311,.F.);
#340 = ORIENTED_EDGE('',*,*,#341,.T.);
#341 = EDGE_CURVE('',#114,#342,#344,.T.);
#342 = VERTEX_POINT('',#343);
#343 = CARTESIAN_POINT('',(-50.57770338108,-37.76902168767,
    26.405268338688));
#344 = SURFACE_CURVE('',#345,(#349,#356),.PCURVE_S1.);
#345 = LINE('',#346,#347);
#346 = CARTESIAN_POINT('',(-55.90498949914,-42.99932780818,
    21.128044699866));
#347 = VECTOR('',#348,1.);
#348 = DIRECTION('',(0.582695159662,0.572087549351,0.577219357596));
#349 = PCURVE('',#325,#350);
#350 = DEFINITIONAL_REPRESENTATION('',(#351),#355);
#351 = LINE('',#352,#353);
#352 = CARTESIAN_POINT('',(-7.45427080307,-80.72229362639));
#353 = VECTOR('',#354,1.);
#354 = DIRECTION('',(0.820192520183,0.572087606784));
#355 = ( GEOMETRIC_REPRESENTATION_CONTEXT(2) 
PARAMETRIC_REPRESENTATION_CONTEXT() REPRESENTATION_CONTEXT('2D SPACE',''
  ) );
#356 = PCURVE('',#357,#362);
#357 = PLANE('',#358);
#358 = AXIS2_PLACEMENT_3D('',#359,#360,#361);
#359 = CARTESIAN_POINT('',(50.574489089154,-37.77713393893,26.4359743696
    ));
#360 = DIRECTION('',(-2.70683056151E-04,-0.710120367334,0.704080244452)
  );
#361 = DIRECTION('',(8.168276529513E-21,-0.704080270246,-0.710120393349)
  );
#362 = DEFINITIONAL_REPRESENTATION('',(#363),#367);
#363 = LINE('',#364,#365);
#364 = CARTESIAN_POINT('',(7.446112775678,-106.4794824891));
#365 = VECTOR('',#366,1.);
#366 = DIRECTION('',(-0.812690793616,0.582695181009));
#367 = ( GEOMETRIC_REPRESENTATION_CONTEXT(2) 
PARAMETRIC_REPRESENTATION_CONTEXT() REPRESENTATION_CONTEXT('2D SPACE',''
  ) );
#368 = ORIENTED_EDGE('',*,*,#369,.F.);
#369 = EDGE_CURVE('',#283,#342,#370,.T.);
#370 = SURFACE_CURVE('',#371,(#375,#382),.PCURVE_S1.);
#371 = LINE('',#372,#373);
#372 = CARTESIAN_POINT('',(-50.58537581807,37.722957714352,
    26.350033958262));
#373 = VECTOR('',#374,1.);
#374 = DIRECTION('',(1.016324509695E-04,-0.999999727173,
    7.316587244621E-04));
#375 = PCURVE('',#325,#376);
#376 = DEFINITIONAL_REPRESENTATION('',(#377),#381);
#377 = LINE('',#378,#379);
#378 = CARTESIAN_POINT('',(0.,0.));
#379 = VECTOR('',#380,1.);
#380 = DIRECTION('',(5.872562480352E-04,-0.999999827565));
#381 = ( GEOMETRIC_REPRESENTATION_CONTEXT(2) 
PARAMETRIC_REPRESENTATION_CONTEXT() REPRESENTATION_CONTEXT('2D SPACE',''
  ) );
#382 = PCURVE('',#383,#388);
#383 = PLANE('',#384);
#384 = AXIS2_PLACEMENT_3D('',#385,#386,#387);
#385 = CARTESIAN_POINT('',(50.575612998722,37.760714826589,
    26.48727622023));
#386 = DIRECTION('',(-1.356943230678E-03,7.315201452105E-04,
    0.999998811791));
#387 = DIRECTION('',(0.999999079352,-6.761360431204E-23,
    1.356943593743E-03));
#388 = DEFINITIONAL_REPRESENTATION('',(#389),#393);
#389 = LINE('',#390,#391);
#390 = CARTESIAN_POINT('',(-101.1610819131,-3.775712233863E-02));
#391 = VECTOR('',#392,1.);
#392 = DIRECTION('',(1.026251770207E-04,-0.999999994734));
#393 = ( GEOMETRIC_REPRESENTATION_CONTEXT(2) 
PARAMETRIC_REPRESENTATION_CONTEXT() REPRESENTATION_CONTEXT('2D SPACE',''
  ) );
#394 = ADVANCED_FACE('',(#395),#98,.T.);
#395 = FACE_BOUND('',#396,.T.);
#396 = EDGE_LOOP('',(#397,#398,#399));
#397 = ORIENTED_EDGE('',*,*,#200,.F.);
#398 = ORIENTED_EDGE('',*,*,#84,.F.);
#399 = ORIENTED_EDGE('',*,*,#400,.T.);
#400 = EDGE_CURVE('',#57,#172,#401,.T.);
#401 = SURFACE_CURVE('',#402,(#406,#413),.PCURVE_S1.);
#402 = LINE('',#403,#404);
#403 = CARTESIAN_POINT('',(-55.9252460488,43.041249106382,
    1.240969865892E-02));
#404 = VECTOR('',#405,1.);
#405 = DIRECTION('',(0.792506147954,-0.609863712914,-5.070752553915E-04)
  );
#406 = PCURVE('',#98,#407);
#407 = DEFINITIONAL_REPRESENTATION('',(#408),#412);
#408 = LINE('',#409,#410);
#409 = CARTESIAN_POINT('',(-86.06298441988,111.83715209791));
#410 = VECTOR('',#411,1.);
#411 = DIRECTION('',(0.609863922978,-0.792506148525));
#412 = ( GEOMETRIC_REPRESENTATION_CONTEXT(2) 
PARAMETRIC_REPRESENTATION_CONTEXT() REPRESENTATION_CONTEXT('2D SPACE',''
  ) );
#413 = PCURVE('',#414,#419);
#414 = PLANE('',#415);
#415 = AXIS2_PLACEMENT_3D('',#416,#417,#418);
#416 = CARTESIAN_POINT('',(55.925118376447,43.037308694107,
    2.645239154195E-02));
#417 = DIRECTION('',(1.255839015777E-04,9.946501190353E-04,
    -0.99999949745));
#418 = DIRECTION('',(3.720011711393E-24,-0.999999505335,
    -9.946501268788E-04));
#419 = DEFINITIONAL_REPRESENTATION('',(#420),#424);
#420 = LINE('',#421,#422);
#421 = CARTESIAN_POINT('',(-3.926442760306E-03,111.85036530726));
#422 = VECTOR('',#423,1.);
#423 = DIRECTION('',(0.609863915598,-0.792506154204));
#424 = ( GEOMETRIC_REPRESENTATION_CONTEXT(2) 
PARAMETRIC_REPRESENTATION_CONTEXT() REPRESENTATION_CONTEXT('2D SPACE',''
  ) );
#425 = ADVANCED_FACE('',(#426),#414,.T.);
#426 = FACE_BOUND('',#427,.T.);
#427 = EDGE_LOOP('',(#428,#456,#457));
#428 = ORIENTED_EDGE('',*,*,#429,.F.);
#429 = EDGE_CURVE('',#172,#430,#432,.T.);
#430 = VERTEX_POINT('',#431);
#431 = CARTESIAN_POINT('',(55.925118376447,43.037308694107,
    2.645239154195E-02));
#432 = SURFACE_CURVE('',#433,(#437,#444),.PCURVE_S1.);
#433 = LINE('',#434,#435);
#434 = CARTESIAN_POINT('',(55.91190596862,-43.02170566957,
    -5.914791962313E-02));
#435 = VECTOR('',#436,1.);
#436 = DIRECTION('',(1.53527218884E-04,0.999999493531,9.946693956943E-04
    ));
#437 = PCURVE('',#414,#438);
#438 = DEFINITIONAL_REPRESENTATION('',(#439),#443);
#439 = LINE('',#440,#441);
#440 = CARTESIAN_POINT('',(86.059056935699,1.321240793102E-02));
#441 = VECTOR('',#442,1.);
#442 = DIRECTION('',(-0.999999988215,-1.535272200946E-04));
#443 = ( GEOMETRIC_REPRESENTATION_CONTEXT(2) 
PARAMETRIC_REPRESENTATION_CONTEXT() REPRESENTATION_CONTEXT('2D SPACE',''
  ) );
#444 = PCURVE('',#445,#450);
#445 = PLANE('',#446);
#446 = AXIS2_PLACEMENT_3D('',#447,#448,#449);
#447 = CARTESIAN_POINT('',(55.91190596862,-43.02170566957,
    -5.914791962313E-02));
#448 = DIRECTION('',(0.999999959437,-1.532885123202E-04,
    -2.400576243835E-04));
#449 = DIRECTION('',(2.400576272039E-04,-2.802949844345E-24,
    0.999999971186));
#450 = DEFINITIONAL_REPRESENTATION('',(#451),#455);
#451 = LINE('',#452,#453);
#452 = CARTESIAN_POINT('',(0.,0.));
#453 = VECTOR('',#454,1.);
#454 = DIRECTION('',(9.947062224139E-04,-0.99999950528));
#455 = ( GEOMETRIC_REPRESENTATION_CONTEXT(2) 
PARAMETRIC_REPRESENTATION_CONTEXT() REPRESENTATION_CONTEXT('2D SPACE',''
  ) );
#456 = ORIENTED_EDGE('',*,*,#400,.F.);
#457 = ORIENTED_EDGE('',*,*,#458,.T.);
#458 = EDGE_CURVE('',#57,#430,#459,.T.);
#459 = SURFACE_CURVE('',#460,(#464,#471),.PCURVE_S1.);
#460 = LINE('',#461,#462);
#461 = CARTESIAN_POINT('',(-55.9252460488,43.041249106382,
    1.240969865892E-02));
#462 = VECTOR('',#463,1.);
#463 = DIRECTION('',(0.999999991498,-3.52293196584E-05,
    1.255489227577E-04));
#464 = PCURVE('',#414,#465);
#465 = DEFINITIONAL_REPRESENTATION('',(#466),#470);
#466 = LINE('',#467,#468);
#467 = CARTESIAN_POINT('',(-3.926442760306E-03,111.85036530726));
#468 = VECTOR('',#469,1.);
#469 = DIRECTION('',(3.510442497975E-05,-0.999999999384));
#470 = ( GEOMETRIC_REPRESENTATION_CONTEXT(2) 
PARAMETRIC_REPRESENTATION_CONTEXT() REPRESENTATION_CONTEXT('2D SPACE',''
  ) );
#471 = PCURVE('',#72,#472);
#472 = DEFINITIONAL_REPRESENTATION('',(#473),#477);
#473 = LINE('',#474,#475);
#474 = CARTESIAN_POINT('',(-1.404723626993E-02,-111.850364494));
#475 = VECTOR('',#476,1.);
#476 = DIRECTION('',(1.255895429817E-04,0.999999992114));
#477 = ( GEOMETRIC_REPRESENTATION_CONTEXT(2) 
PARAMETRIC_REPRESENTATION_CONTEXT() REPRESENTATION_CONTEXT('2D SPACE',''
  ) );
#478 = ADVANCED_FACE('',(#479),#72,.T.);
#479 = FACE_BOUND('',#480,.T.);
#480 = EDGE_LOOP('',(#481,#482,#483));
#481 = ORIENTED_EDGE('',*,*,#458,.F.);
#482 = ORIENTED_EDGE('',*,*,#56,.T.);
#483 = ORIENTED_EDGE('',*,*,#484,.T.);
#484 = EDGE_CURVE('',#24,#430,#485,.T.);
#485 = SURFACE_CURVE('',#486,(#490,#497),.PCURVE_S1.);
#486 = LINE('',#487,#488);
#487 = CARTESIAN_POINT('',(-55.90390240666,43.016817508053,
    21.157287436703));
#488 = VECTOR('',#489,1.);
#489 = DIRECTION('',(0.98261194349,1.800506166589E-04,-0.185671042686));
#490 = PCURVE('',#72,#491);
#491 = DEFINITIONAL_REPRESENTATION('',(#492),#496);
#492 = LINE('',#493,#494);
#493 = CARTESIAN_POINT('',(21.13084461637,-111.8290208519));
#494 = VECTOR('',#495,1.);
#495 = DIRECTION('',(-0.185671126785,0.982611944095));
#496 = ( GEOMETRIC_REPRESENTATION_CONTEXT(2) 
PARAMETRIC_REPRESENTATION_CONTEXT() REPRESENTATION_CONTEXT('2D SPACE',''
  ) );
#497 = PCURVE('',#498,#503);
#498 = PLANE('',#499);
#499 = AXIS2_PLACEMENT_3D('',#500,#501,#502);
#500 = CARTESIAN_POINT('',(55.930196953312,43.07652756919,
    21.157065801139));
#501 = DIRECTION('',(-5.339190950537E-04,0.9999981353,
    -1.855889824039E-03));
#502 = DIRECTION('',(1.023263580629E-22,1.855890088568E-03,
    0.999998277835));
#503 = DEFINITIONAL_REPRESENTATION('',(#504),#508);
#504 = LINE('',#505,#506);
#505 = CARTESIAN_POINT('',(1.108198718718E-04,-111.8341153002));
#506 = VECTOR('',#507,1.);
#507 = DIRECTION('',(-0.185670388775,0.982612083547));
#508 = ( GEOMETRIC_REPRESENTATION_CONTEXT(2) 
PARAMETRIC_REPRESENTATION_CONTEXT() REPRESENTATION_CONTEXT('2D SPACE',''
  ) );
#509 = ADVANCED_FACE('',(#510),#498,.T.);
#510 = FACE_BOUND('',#511,.T.);
#511 = EDGE_LOOP('',(#512,#535,#536));
#512 = ORIENTED_EDGE('',*,*,#513,.F.);
#513 = EDGE_CURVE('',#430,#514,#516,.T.);
#514 = VERTEX_POINT('',#515);
#515 = CARTESIAN_POINT('',(55.930196953312,43.07652756919,
    21.157065801139));
#516 = SURFACE_CURVE('',#517,(#521,#528),.PCURVE_S1.);
#517 = LINE('',#518,#519);
#518 = CARTESIAN_POINT('',(55.925118376447,43.037308694107,
    2.645239154195E-02));
#519 = VECTOR('',#520,1.);
#520 = DIRECTION('',(2.403417200158E-04,1.856018357797E-03,
    0.999998248714));
#521 = PCURVE('',#498,#522);
#522 = DEFINITIONAL_REPRESENTATION('',(#523),#527);
#523 = LINE('',#524,#525);
#524 = CARTESIAN_POINT('',(-21.1306498051,-5.078577589765E-03));
#525 = VECTOR('',#526,1.);
#526 = DIRECTION('',(0.999999971118,2.403417542729E-04));
#527 = ( GEOMETRIC_REPRESENTATION_CONTEXT(2) 
PARAMETRIC_REPRESENTATION_CONTEXT() REPRESENTATION_CONTEXT('2D SPACE',''
  ) );
#528 = PCURVE('',#445,#529);
#529 = DEFINITIONAL_REPRESENTATION('',(#530),#534);
#530 = LINE('',#531,#532);
#531 = CARTESIAN_POINT('',(8.560348043788E-02,-86.05901537476));
#532 = VECTOR('',#533,1.);
#533 = DIRECTION('',(0.999998277596,-1.856018379603E-03));
#534 = ( GEOMETRIC_REPRESENTATION_CONTEXT(2) 
PARAMETRIC_REPRESENTATION_CONTEXT() REPRESENTATION_CONTEXT('2D SPACE',''
  ) );
#535 = ORIENTED_EDGE('',*,*,#484,.F.);
#536 = ORIENTED_EDGE('',*,*,#537,.T.);
#537 = EDGE_CURVE('',#24,#514,#538,.T.);
#538 = SURFACE_CURVE('',#539,(#543,#550),.PCURVE_S1.);
#539 = LINE('',#540,#541);
#540 = CARTESIAN_POINT('',(-55.90390240666,43.016817508053,
    21.157287436703));
#541 = VECTOR('',#542,1.);
#542 = DIRECTION('',(0.999999857465,5.339163364977E-04,
    -1.981824272683E-06));
#543 = PCURVE('',#498,#544);
#544 = DEFINITIONAL_REPRESENTATION('',(#545),#549);
#545 = LINE('',#546,#547);
#546 = CARTESIAN_POINT('',(1.108198718718E-04,-111.8341153002));
#547 = VECTOR('',#548,1.);
#548 = DIRECTION('',(-9.909308226231E-07,1.));
#549 = ( GEOMETRIC_REPRESENTATION_CONTEXT(2) 
PARAMETRIC_REPRESENTATION_CONTEXT() REPRESENTATION_CONTEXT('2D SPACE',''
  ) );
#550 = PCURVE('',#551,#556);
#551 = PLANE('',#552);
#552 = AXIS2_PLACEMENT_3D('',#553,#554,#555);
#553 = CARTESIAN_POINT('',(50.575612998722,37.760714826589,
    26.48727622023));
#554 = DIRECTION('',(-3.767480558135E-04,0.708251583574,0.705960021833)
  );
#555 = DIRECTION('',(-3.320475887269E-20,-0.705960071934,0.708251633838)
  );
#556 = DEFINITIONAL_REPRESENTATION('',(#557),#561);
#557 = LINE('',#558,#559);
#558 = CARTESIAN_POINT('',(-7.485571891373,-106.4795229621));
#559 = VECTOR('',#560,1.);
#560 = DIRECTION('',(-3.783272456E-04,0.999999928434));
#561 = ( GEOMETRIC_REPRESENTATION_CONTEXT(2) 
PARAMETRIC_REPRESENTATION_CONTEXT() REPRESENTATION_CONTEXT('2D SPACE',''
  ) );
#562 = ADVANCED_FACE('',(#563),#445,.T.);
#563 = FACE_BOUND('',#564,.T.);
#564 = EDGE_LOOP('',(#565,#566,#567));
#565 = ORIENTED_EDGE('',*,*,#429,.T.);
#566 = ORIENTED_EDGE('',*,*,#513,.T.);
#567 = ORIENTED_EDGE('',*,*,#568,.F.);
#568 = EDGE_CURVE('',#172,#514,#569,.T.);
#569 = SURFACE_CURVE('',#570,(#574,#581),.PCURVE_S1.);
#570 = LINE('',#571,#572);
#571 = CARTESIAN_POINT('',(55.91190596862,-43.02170566957,
    -5.914791962313E-02));
#572 = VECTOR('',#573,1.);
#573 = DIRECTION('',(2.062728239662E-04,0.970955145774,0.239261493658));
#574 = PCURVE('',#445,#575);
#575 = DEFINITIONAL_REPRESENTATION('',(#576),#580);
#576 = LINE('',#577,#578);
#577 = CARTESIAN_POINT('',(0.,0.));
#578 = VECTOR('',#579,1.);
#579 = DIRECTION('',(0.239261536281,-0.970955157181));
#580 = ( GEOMETRIC_REPRESENTATION_CONTEXT(2) 
PARAMETRIC_REPRESENTATION_CONTEXT() REPRESENTATION_CONTEXT('2D SPACE',''
  ) );
#581 = PCURVE('',#267,#582);
#582 = DEFINITIONAL_REPRESENTATION('',(#583),#587);
#583 = LINE('',#584,#585);
#584 = CARTESIAN_POINT('',(-21.23389284487,1.732460934533E-02));
#585 = VECTOR('',#586,1.);
#586 = DIRECTION('',(0.23926029311,-0.970955463521));
#587 = ( GEOMETRIC_REPRESENTATION_CONTEXT(2) 
PARAMETRIC_REPRESENTATION_CONTEXT() REPRESENTATION_CONTEXT('2D SPACE',''
  ) );
#588 = ADVANCED_FACE('',(#589),#267,.T.);
#589 = FACE_BOUND('',#590,.T.);
#590 = EDGE_LOOP('',(#591,#592,#593));
#591 = ORIENTED_EDGE('',*,*,#253,.T.);
#592 = ORIENTED_EDGE('',*,*,#568,.T.);
#593 = ORIENTED_EDGE('',*,*,#594,.F.);
#594 = EDGE_CURVE('',#225,#514,#595,.T.);
#595 = SURFACE_CURVE('',#596,(#600,#607),.PCURVE_S1.);
#596 = LINE('',#597,#598);
#597 = CARTESIAN_POINT('',(55.860513379305,-43.0043810659,
    21.174682732186));
#598 = VECTOR('',#599,1.);
#599 = DIRECTION('',(8.095122463357E-04,0.999999651403,
    -2.046554245894E-04));
#600 = PCURVE('',#267,#601);
#601 = DEFINITIONAL_REPRESENTATION('',(#602),#606);
#602 = LINE('',#603,#604);
#603 = CARTESIAN_POINT('',(0.,-0.));
#604 = VECTOR('',#605,1.);
#605 = DIRECTION('',(-2.066146292255E-04,-0.999999978655));
#606 = ( GEOMETRIC_REPRESENTATION_CONTEXT(2) 
PARAMETRIC_REPRESENTATION_CONTEXT() REPRESENTATION_CONTEXT('2D SPACE',''
  ) );
#607 = PCURVE('',#608,#613);
#608 = PLANE('',#609);
#609 = AXIS2_PLACEMENT_3D('',#610,#611,#612);
#610 = CARTESIAN_POINT('',(50.575612998722,37.760714826589,
    26.48727622023));
#611 = DIRECTION('',(0.705704399175,-4.262768527308E-04,0.708506259163)
  );
#612 = DIRECTION('',(0.708506323535,-2.740044334211E-20,-0.705704463293)
  );
#613 = DEFINITIONAL_REPRESENTATION('',(#614),#618);
#614 = LINE('',#615,#616);
#615 = CARTESIAN_POINT('',(7.493506275067,-80.76510323048));
#616 = VECTOR('',#617,1.);
#617 = DIRECTION('',(7.179707920776E-04,0.999999742259));
#618 = ( GEOMETRIC_REPRESENTATION_CONTEXT(2) 
PARAMETRIC_REPRESENTATION_CONTEXT() REPRESENTATION_CONTEXT('2D SPACE',''
  ) );
#619 = ADVANCED_FACE('',(#620),#357,.T.);
#620 = FACE_BOUND('',#621,.T.);
#621 = EDGE_LOOP('',(#622,#650,#651));
#622 = ORIENTED_EDGE('',*,*,#623,.F.);
#623 = EDGE_CURVE('',#342,#624,#626,.T.);
#624 = VERTEX_POINT('',#625);
#625 = CARTESIAN_POINT('',(50.574489089154,-37.77713393893,26.4359743696
    ));
#626 = SURFACE_CURVE('',#627,(#631,#638),.PCURVE_S1.);
#627 = LINE('',#628,#629);
#628 = CARTESIAN_POINT('',(-50.57770338108,-37.76902168767,
    26.405268338688));
#629 = VECTOR('',#630,1.);
#630 = DIRECTION('',(0.999999950709,-8.019846787286E-05,
    3.035626677887E-04));
#631 = PCURVE('',#357,#632);
#632 = DEFINITIONAL_REPRESENTATION('',(#633),#637);
#633 = LINE('',#634,#635);
#634 = CARTESIAN_POINT('',(1.609330269175E-02,-101.1521961759));
#635 = VECTOR('',#636,1.);
#636 = DIRECTION('',(-1.59099882123E-04,0.999999987344));
#637 = ( GEOMETRIC_REPRESENTATION_CONTEXT(2) 
PARAMETRIC_REPRESENTATION_CONTEXT() REPRESENTATION_CONTEXT('2D SPACE',''
  ) );
#638 = PCURVE('',#639,#644);
#639 = PLANE('',#640);
#640 = AXIS2_PLACEMENT_3D('',#641,#642,#643);
#641 = CARTESIAN_POINT('',(50.575612998722,37.760714826589,
    26.48727622023));
#642 = DIRECTION('',(-3.036170655068E-04,-6.79149539389E-04,
    0.999999723286));
#643 = DIRECTION('',(-3.299165243959E-23,0.999999769378,
    6.791495706921E-04));
#644 = DEFINITIONAL_REPRESENTATION('',(#645),#649);
#645 = LINE('',#646,#647);
#646 = CARTESIAN_POINT('',(-75.52977479105,101.15332104213));
#647 = VECTOR('',#648,1.);
#648 = DIRECTION('',(-7.999228492182E-05,-0.999999996801));
#649 = ( GEOMETRIC_REPRESENTATION_CONTEXT(2) 
PARAMETRIC_REPRESENTATION_CONTEXT() REPRESENTATION_CONTEXT('2D SPACE',''
  ) );
#650 = ORIENTED_EDGE('',*,*,#341,.F.);
#651 = ORIENTED_EDGE('',*,*,#652,.T.);
#652 = EDGE_CURVE('',#114,#624,#653,.T.);
#653 = SURFACE_CURVE('',#654,(#658,#665),.PCURVE_S1.);
#654 = LINE('',#655,#656);
#655 = CARTESIAN_POINT('',(-55.90498949914,-42.99932780818,
    21.128044699866));
#656 = VECTOR('',#657,1.);
#657 = DIRECTION('',(0.997563790732,4.892465272378E-02,
    4.972787726309E-02));
#658 = PCURVE('',#357,#659);
#659 = DEFINITIONAL_REPRESENTATION('',(#660),#664);
#660 = LINE('',#661,#662);
#661 = CARTESIAN_POINT('',(7.446112775678,-106.4794824891));
#662 = VECTOR('',#663,1.);
#663 = DIRECTION('',(-6.975966247394E-02,0.997563827277));
#664 = ( GEOMETRIC_REPRESENTATION_CONTEXT(2) 
PARAMETRIC_REPRESENTATION_CONTEXT() REPRESENTATION_CONTEXT('2D SPACE',''
  ) );
#665 = PCURVE('',#240,#666);
#666 = DEFINITIONAL_REPRESENTATION('',(#667),#671);
#667 = LINE('',#668,#669);
#668 = CARTESIAN_POINT('',(7.446087588032,-106.4794842505));
#669 = VECTOR('',#670,1.);
#670 = DIRECTION('',(-6.975942650092E-02,0.997563843779));
#671 = ( GEOMETRIC_REPRESENTATION_CONTEXT(2) 
PARAMETRIC_REPRESENTATION_CONTEXT() REPRESENTATION_CONTEXT('2D SPACE',''
  ) );
#672 = ADVANCED_FACE('',(#673),#240,.T.);
#673 = FACE_BOUND('',#674,.T.);
#674 = EDGE_LOOP('',(#675,#676,#677));
#675 = ORIENTED_EDGE('',*,*,#652,.F.);
#676 = ORIENTED_EDGE('',*,*,#224,.T.);
#677 = ORIENTED_EDGE('',*,*,#678,.F.);
#678 = EDGE_CURVE('',#624,#225,#679,.T.);
#679 = SURFACE_CURVE('',#680,(#684,#691),.PCURVE_S1.);
#680 = LINE('',#681,#682);
#681 = CARTESIAN_POINT('',(50.574489089154,-37.77713393893,26.4359743696
    ));
#682 = VECTOR('',#683,1.);
#683 = DIRECTION('',(0.580400641056,-0.5739469622,-0.577685018365));
#684 = PCURVE('',#240,#685);
#685 = DEFINITIONAL_REPRESENTATION('',(#686),#690);
#686 = LINE('',#687,#688);
#687 = CARTESIAN_POINT('',(0.,0.));
#688 = VECTOR('',#689,1.);
#689 = DIRECTION('',(0.81433105064,0.580400671919));
#690 = ( GEOMETRIC_REPRESENTATION_CONTEXT(2) 
PARAMETRIC_REPRESENTATION_CONTEXT() REPRESENTATION_CONTEXT('2D SPACE',''
  ) );
#691 = PCURVE('',#692,#697);
#692 = PLANE('',#693);
#693 = AXIS2_PLACEMENT_3D('',#694,#695,#696);
#694 = CARTESIAN_POINT('',(50.575612998722,37.760714826589,
    26.48727622023));
#695 = DIRECTION('',(0.705202188822,-4.920170278038E-04,0.709006086575)
  );
#696 = DIRECTION('',(0.709006172394,8.264369262381E-21,-0.705202274179)
  );
#697 = DEFINITIONAL_REPRESENTATION('',(#698),#702);
#698 = LINE('',#699,#700);
#699 = CARTESIAN_POINT('',(3.538132291271E-02,-75.53785790865));
#700 = VECTOR('',#701,1.);
#701 = DIRECTION('',(0.81889242568,-0.573947031671));
#702 = ( GEOMETRIC_REPRESENTATION_CONTEXT(2) 
PARAMETRIC_REPRESENTATION_CONTEXT() REPRESENTATION_CONTEXT('2D SPACE',''
  ) );
#703 = ADVANCED_FACE('',(#704),#383,.T.);
#704 = FACE_BOUND('',#705,.T.);
#705 = EDGE_LOOP('',(#706,#729,#730));
#706 = ORIENTED_EDGE('',*,*,#707,.F.);
#707 = EDGE_CURVE('',#283,#708,#710,.T.);
#708 = VERTEX_POINT('',#709);
#709 = CARTESIAN_POINT('',(50.575612998722,37.760714826589,
    26.48727622023));
#710 = SURFACE_CURVE('',#711,(#715,#722),.PCURVE_S1.);
#711 = LINE('',#712,#713);
#712 = CARTESIAN_POINT('',(-50.58537581807,37.722957714352,
    26.350033958262));
#713 = VECTOR('',#714,1.);
#714 = DIRECTION('',(0.999999010069,3.732375029246E-04,
    1.356670468653E-03));
#715 = PCURVE('',#383,#716);
#716 = DEFINITIONAL_REPRESENTATION('',(#717),#721);
#717 = LINE('',#718,#719);
#718 = CARTESIAN_POINT('',(-101.1610819131,-3.775712233863E-02));
#719 = VECTOR('',#720,1.);
#720 = DIRECTION('',(0.999999930347,3.732376027884E-04));
#721 = ( GEOMETRIC_REPRESENTATION_CONTEXT(2) 
PARAMETRIC_REPRESENTATION_CONTEXT() REPRESENTATION_CONTEXT('2D SPACE',''
  ) );
#722 = PCURVE('',#298,#723);
#723 = DEFINITIONAL_REPRESENTATION('',(#724),#728);
#724 = LINE('',#725,#726);
#725 = CARTESIAN_POINT('',(6.90404337978E-02,101.16106539992));
#726 = VECTOR('',#727,1.);
#727 = DIRECTION('',(-6.824801364642E-04,-0.99999976711));
#728 = ( GEOMETRIC_REPRESENTATION_CONTEXT(2) 
PARAMETRIC_REPRESENTATION_CONTEXT() REPRESENTATION_CONTEXT('2D SPACE',''
  ) );
#729 = ORIENTED_EDGE('',*,*,#369,.T.);
#730 = ORIENTED_EDGE('',*,*,#731,.T.);
#731 = EDGE_CURVE('',#342,#708,#732,.T.);
#732 = SURFACE_CURVE('',#733,(#737,#744),.PCURVE_S1.);
#733 = LINE('',#734,#735);
#734 = CARTESIAN_POINT('',(-50.57770338108,-37.76902168767,
    26.405268338688));
#735 = VECTOR('',#736,1.);
#736 = DIRECTION('',(0.801272735385,0.598298906508,6.496146831176E-04));
#737 = PCURVE('',#383,#738);
#738 = DEFINITIONAL_REPRESENTATION('',(#739),#743);
#739 = LINE('',#740,#741);
#740 = CARTESIAN_POINT('',(-101.1533345332,-75.52975672307));
#741 = VECTOR('',#742,1.);
#742 = DIRECTION('',(0.801272879185,0.59829906659));
#743 = ( GEOMETRIC_REPRESENTATION_CONTEXT(2) 
PARAMETRIC_REPRESENTATION_CONTEXT() REPRESENTATION_CONTEXT('2D SPACE',''
  ) );
#744 = PCURVE('',#639,#745);
#745 = DEFINITIONAL_REPRESENTATION('',(#746),#750);
#746 = LINE('',#747,#748);
#747 = CARTESIAN_POINT('',(-75.52977479105,101.15332104213));
#748 = VECTOR('',#749,1.);
#749 = DIRECTION('',(0.598299209713,-0.801272772317));
#750 = ( GEOMETRIC_REPRESENTATION_CONTEXT(2) 
PARAMETRIC_REPRESENTATION_CONTEXT() REPRESENTATION_CONTEXT('2D SPACE',''
  ) );
#751 = ADVANCED_FACE('',(#752),#639,.T.);
#752 = FACE_BOUND('',#753,.T.);
#753 = EDGE_LOOP('',(#754,#755,#756));
#754 = ORIENTED_EDGE('',*,*,#731,.F.);
#755 = ORIENTED_EDGE('',*,*,#623,.T.);
#756 = ORIENTED_EDGE('',*,*,#757,.T.);
#757 = EDGE_CURVE('',#624,#708,#758,.T.);
#758 = SURFACE_CURVE('',#759,(#763,#770),.PCURVE_S1.);
#759 = LINE('',#760,#761);
#760 = CARTESIAN_POINT('',(50.574489089154,-37.77713393893,26.4359743696
    ));
#761 = VECTOR('',#762,1.);
#762 = DIRECTION('',(1.487875716611E-05,0.999999769264,
    6.791540880607E-04));
#763 = PCURVE('',#639,#764);
#764 = DEFINITIONAL_REPRESENTATION('',(#765),#769);
#765 = LINE('',#766,#767);
#766 = CARTESIAN_POINT('',(-75.53786618645,1.123909619761E-03));
#767 = VECTOR('',#768,1.);
#768 = DIRECTION('',(0.999999999889,-1.487875785189E-05));
#769 = ( GEOMETRIC_REPRESENTATION_CONTEXT(2) 
PARAMETRIC_REPRESENTATION_CONTEXT() REPRESENTATION_CONTEXT('2D SPACE',''
  ) );
#770 = PCURVE('',#692,#771);
#771 = DEFINITIONAL_REPRESENTATION('',(#772),#776);
#772 = LINE('',#773,#774);
#773 = CARTESIAN_POINT('',(3.538132291271E-02,-75.53785790865));
#774 = VECTOR('',#775,1.);
#775 = DIRECTION('',(-4.683918767504E-04,0.999999890305));
#776 = ( GEOMETRIC_REPRESENTATION_CONTEXT(2) 
PARAMETRIC_REPRESENTATION_CONTEXT() REPRESENTATION_CONTEXT('2D SPACE',''
  ) );
#777 = ADVANCED_FACE('',(#778),#298,.T.);
#778 = FACE_BOUND('',#779,.T.);
#779 = EDGE_LOOP('',(#780,#801,#802));
#780 = ORIENTED_EDGE('',*,*,#781,.F.);
#781 = EDGE_CURVE('',#24,#708,#782,.T.);
#782 = SURFACE_CURVE('',#783,(#787,#794),.PCURVE_S1.);
#783 = LINE('',#784,#785);
#784 = CARTESIAN_POINT('',(-55.90390240666,43.016817508053,
    21.157287436703));
#785 = VECTOR('',#786,1.);
#786 = DIRECTION('',(0.997537965485,-4.924103904199E-02,
    4.993323032073E-02));
#787 = PCURVE('',#298,#788);
#788 = DEFINITIONAL_REPRESENTATION('',(#789),#793);
#789 = LINE('',#790,#791);
#790 = CARTESIAN_POINT('',(7.484532671271,106.47959601486));
#791 = VECTOR('',#792,1.);
#792 = DIRECTION('',(-7.01177636382E-02,-0.997538720663));
#793 = ( GEOMETRIC_REPRESENTATION_CONTEXT(2) 
PARAMETRIC_REPRESENTATION_CONTEXT() REPRESENTATION_CONTEXT('2D SPACE',''
  ) );
#794 = PCURVE('',#551,#795);
#795 = DEFINITIONAL_REPRESENTATION('',(#796),#800);
#796 = LINE('',#797,#798);
#797 = CARTESIAN_POINT('',(-7.485571891373,-106.4795229621));
#798 = VECTOR('',#799,1.);
#799 = DIRECTION('',(7.012749942168E-02,0.99753803628));
#800 = ( GEOMETRIC_REPRESENTATION_CONTEXT(2) 
PARAMETRIC_REPRESENTATION_CONTEXT() REPRESENTATION_CONTEXT('2D SPACE',''
  ) );
#801 = ORIENTED_EDGE('',*,*,#282,.T.);
#802 = ORIENTED_EDGE('',*,*,#707,.T.);
#803 = ADVANCED_FACE('',(#804),#551,.T.);
#804 = FACE_BOUND('',#805,.T.);
#805 = EDGE_LOOP('',(#806,#827,#828));
#806 = ORIENTED_EDGE('',*,*,#807,.T.);
#807 = EDGE_CURVE('',#708,#514,#808,.T.);
#808 = SURFACE_CURVE('',#809,(#813,#820),.PCURVE_S1.);
#809 = LINE('',#810,#811);
#810 = CARTESIAN_POINT('',(50.575612998722,37.760714826589,
    26.48727622023));
#811 = VECTOR('',#812,1.);
#812 = DIRECTION('',(0.579626113786,0.575429185113,-0.57698771316));
#813 = PCURVE('',#551,#814);
#814 = DEFINITIONAL_REPRESENTATION('',(#815),#819);
#815 = LINE('',#816,#817);
#816 = CARTESIAN_POINT('',(0.,0.));
#817 = VECTOR('',#818,1.);
#818 = DIRECTION('',(-0.814882519465,0.579626154922));
#819 = ( GEOMETRIC_REPRESENTATION_CONTEXT(2) 
PARAMETRIC_REPRESENTATION_CONTEXT() REPRESENTATION_CONTEXT('2D SPACE',''
  ) );
#820 = PCURVE('',#608,#821);
#821 = DEFINITIONAL_REPRESENTATION('',(#822),#826);
#822 = LINE('',#823,#824);
#823 = CARTESIAN_POINT('',(0.,0.));
#824 = VECTOR('',#825,1.);
#825 = DIRECTION('',(0.817851571345,0.575429237394));
#826 = ( GEOMETRIC_REPRESENTATION_CONTEXT(2) 
PARAMETRIC_REPRESENTATION_CONTEXT() REPRESENTATION_CONTEXT('2D SPACE',''
  ) );
#827 = ORIENTED_EDGE('',*,*,#537,.F.);
#828 = ORIENTED_EDGE('',*,*,#781,.T.);
#829 = ADVANCED_FACE('',(#830),#692,.T.);
#830 = FACE_BOUND('',#831,.T.);
#831 = EDGE_LOOP('',(#832,#833,#834));
#832 = ORIENTED_EDGE('',*,*,#757,.F.);
#833 = ORIENTED_EDGE('',*,*,#678,.T.);
#834 = ORIENTED_EDGE('',*,*,#835,.F.);
#835 = EDGE_CURVE('',#708,#225,#836,.T.);
#836 = SURFACE_CURVE('',#837,(#841,#848),.PCURVE_S1.);
#837 = LINE('',#838,#839);
#838 = CARTESIAN_POINT('',(50.575612998722,37.760714826589,
    26.48727622023));
#839 = VECTOR('',#840,1.);
#840 = DIRECTION('',(6.515560197043E-02,-0.995723298855,
    -6.549702015376E-02));
#841 = PCURVE('',#692,#842);
#842 = DEFINITIONAL_REPRESENTATION('',(#843),#847);
#843 = LINE('',#844,#845);
#844 = CARTESIAN_POINT('',(0.,0.));
#845 = VECTOR('',#846,1.);
#846 = DIRECTION('',(9.238437152747E-02,-0.995723419378));
#847 = ( GEOMETRIC_REPRESENTATION_CONTEXT(2) 
PARAMETRIC_REPRESENTATION_CONTEXT() REPRESENTATION_CONTEXT('2D SPACE',''
  ) );
#848 = PCURVE('',#608,#849);
#849 = DEFINITIONAL_REPRESENTATION('',(#850),#854);
#850 = LINE('',#851,#852);
#851 = CARTESIAN_POINT('',(0.,0.));
#852 = VECTOR('',#853,1.);
#853 = DIRECTION('',(9.238469546465E-02,-0.995723389323));
#854 = ( GEOMETRIC_REPRESENTATION_CONTEXT(2) 
PARAMETRIC_REPRESENTATION_CONTEXT() REPRESENTATION_CONTEXT('2D SPACE',''
  ) );
#855 = ADVANCED_FACE('',(#856),#608,.T.);
#856 = FACE_BOUND('',#857,.T.);
#857 = EDGE_LOOP('',(#858,#859,#860));
#858 = ORIENTED_EDGE('',*,*,#835,.T.);
#859 = ORIENTED_EDGE('',*,*,#594,.T.);
#860 = ORIENTED_EDGE('',*,*,#807,.F.);
#861 = ( GEOMETRIC_REPRESENTATION_CONTEXT(3) 
GLOBAL_UNCERTAINTY_ASSIGNED_CONTEXT((#865)) GLOBAL_UNIT_ASSIGNED_CONTEXT
((#862,#863,#864)) REPRESENTATION_CONTEXT('Context #1',
  '3D Context with UNIT and UNCERTAINTY') );
#862 = ( LENGTH_UNIT() NAMED_UNIT(*) SI_UNIT(.MILLI.,.METRE.) );
#863 = ( NAMED_UNIT(*) PLANE_ANGLE_UNIT() SI_UNIT($,.RADIAN.) );
#864 = ( NAMED_UNIT(*) SI_UNIT($,.STERADIAN.) SOLID_ANGLE_UNIT() );
#865 = UNCERTAINTY_MEASURE_WITH_UNIT(LENGTH_MEASURE(1.E-07),#862,
  'distance_accuracy_value','confusion accuracy');
#866 = PRODUCT_TYPE('part',$,(#7));
ENDSEC;
END-ISO-10303-21;
