ISO-10303-21;
HEADER;
FILE_DESCRIPTION(('Open CASCADE Model'),'2;1');
FILE_NAME('Open CASCADE Shape Model','2026-10-04T20:44:43',('Author'),(
    'Open CASCADE'),'Open CASCADE STEP processor 7.8','Open CASCADE 7.8'
  ,'Unknown');
FILE_SCHEMA(('AUTOMOTIVE_DESIGN_CC2 { 1 2 10303 214 -1 1 5 4 }'));
ENDSEC;
DATA;
#1 = APPLICATION_PROTOCOL_DEFINITION('committee draft',
  'automotive_design',1997,#2);
#2 = APPLICATION_CONTEXT(
  'core data for automotive mechanical design processes');
#3 = SHAPE_DEFINITION_REPRESENTATION(#4,#10);
#4 = PRODUCT_DEFINITION_SHAPE('','',#5);
#5 = PRODUCT_DEFINITION('design','',#6,#9);
#6 = PRODUCT_DEFINITION_FORMATION('','',#7);
#7 = PRODUCT('Open CASCADE STEP translator 7.8 114',
  'Open CASCADE STEP translator 7.8 114','',(#8));
#8 = MECHANICAL_CONTEXT('',#2,'mechanical');
#9 = PRODUCT_DEFINITION_CONTEXT('part definition',#2,'design');
#10 = ADVANCED_BREP_SHAPE_REPRESENTATION('',(#11,#15),#861);
#11 = AXIS2_PLACEMENT_3D('',#12,#13,#14);
#12 = CARTESIAN_POINT('',(0.,0.,0.));
#13 = DIRECTION('',(0.,0.,1.));
#14 = DIRECTION('',(1.,0.,-0.));
#15 = MANIFOLD_SOLID_BREP('',#16);
#16 = CLOSED_SHELL('',(#17,#109,#167,#220,#278,#336,#389,#420,#473,#504,
    #557,#583,#614,#645,#698,#746,#777,#803,#829,#855));
#17 = ADVANCED_FACE('',(#18),#32,.T.);
#18 = FACE_BOUND('',#19,.T.);
#19 = EDGE_LOOP('',(#20,#55,#83));
#20 = ORIENTED_EDGE('',*,*,#21,.F.);
#21 = EDGE_CURVE('',#22,#24,#26,.T.);
#22 = VERTEX_POINT('',#23);
#23 = CARTESIAN_POINT('',(-44.53159105949,49.494423490316,
    30.540818696232));
#24 = VERTEX_POINT('',#25);
#25 = CARTESIAN_POINT('',(-44.49917802893,-49.47473345664,
    3.327263722454E-02));
#26 = SURFACE_CURVE('',#27,(#31,#43),.PCURVE_S1.);
#27 = LINE('',#28,#29);
#28 = CARTESIAN_POINT('',(-44.53159105949,49.494423490316,
    30.540818696232));
#29 = VECTOR('',#30,1.);
#30 = DIRECTION('',(3.129743385452E-04,-0.955628211839,-0.294575326165)
  );
#31 = PCURVE('',#32,#37);
#32 = PLANE('',#33);
#33 = AXIS2_PLACEMENT_3D('',#34,#35,#36);
#34 = CARTESIAN_POINT('',(-44.49917802893,-49.47473345664,
    3.327263722454E-02));
#35 = DIRECTION('',(-0.99999985891,-1.726504429312E-04,
    -5.023661087389E-04));
#36 = DIRECTION('',(5.023661162262E-04,1.533270831688E-24,
    -0.999999873814));
#37 = DEFINITIONAL_REPRESENTATION('',(#38),#42);
#38 = LINE('',#39,#40);
#39 = CARTESIAN_POINT('',(-30.50755849259,-98.969158422));
#40 = VECTOR('',#41,1.);
#41 = DIRECTION('',(0.294575446222,0.955628226081));
#42 = ( GEOMETRIC_REPRESENTATION_CONTEXT(2) 
PARAMETRIC_REPRESENTATION_CONTEXT() REPRESENTATION_CONTEXT('2D SPACE',''
  ) );
#43 = PCURVE('',#44,#49);
#44 = PLANE('',#45);
#45 = AXIS2_PLACEMENT_3D('',#46,#47,#48);
#46 = CARTESIAN_POINT('',(-44.52063208697,-49.48310517513,
    30.537357590679));
#47 = DIRECTION('',(-0.999999746524,-1.106972009443E-04,
    -7.033477437399E-04));
#48 = DIRECTION('',(7.033477480493E-04,-4.059919657091E-24,
    -0.999999752651));
#49 = DEFINITIONAL_REPRESENTATION('',(#50),#54);
#50 = LINE('',#51,#52);
#51 = CARTESIAN_POINT('',(-3.468812666394E-03,-98.97752927187));
#52 = VECTOR('',#53,1.);
#53 = DIRECTION('',(0.294575473432,0.955628217694));
#54 = ( GEOMETRIC_REPRESENTATION_CONTEXT(2) 
PARAMETRIC_REPRESENTATION_CONTEXT() REPRESENTATION_CONTEXT('2D SPACE',''
  ) );
#55 = ORIENTED_EDGE('',*,*,#56,.T.);
#56 = EDGE_CURVE('',#22,#57,#59,.T.);
#57 = VERTEX_POINT('',#58);
#58 = CARTESIAN_POINT('',(-44.51626267521,49.479838088832,
    3.345827154896E-02));
#59 = SURFACE_CURVE('',#60,(#64,#71),.PCURVE_S1.);
#60 = LINE('',#61,#62);
#61 = CARTESIAN_POINT('',(-44.53159105949,49.494423490316,
    30.540818696232));
#62 = VECTOR('',#63,1.);
#63 = DIRECTION('',(5.024486020118E-04,-4.780943933744E-04,
    -0.999999759486));
#64 = PCURVE('',#32,#65);
#65 = DEFINITIONAL_REPRESENTATION('',(#66),#70);
#66 = LINE('',#67,#68);
#67 = CARTESIAN_POINT('',(-30.50755849259,-98.969158422));
#68 = VECTOR('',#69,1.);
#69 = DIRECTION('',(0.999999885713,4.780944005E-04));
#70 = ( GEOMETRIC_REPRESENTATION_CONTEXT(2) 
PARAMETRIC_REPRESENTATION_CONTEXT() REPRESENTATION_CONTEXT('2D SPACE',''
  ) );
#71 = PCURVE('',#72,#77);
#72 = PLANE('',#73);
#73 = AXIS2_PLACEMENT_3D('',#74,#75,#76);
#74 = CARTESIAN_POINT('',(44.513056723074,49.468907342617,
    2.607718745759E-02));
#75 = DIRECTION('',(1.227372797776E-04,0.99999987821,-4.780327809465E-04
    ));
#76 = DIRECTION('',(-6.265791991967E-24,4.780327845471E-04,
    0.999999885742));
#77 = DEFINITIONAL_REPRESENTATION('',(#78),#82);
#78 = LINE('',#79,#80);
#79 = CARTESIAN_POINT('',(30.514750219787,-89.04464845327));
#80 = VECTOR('',#81,1.);
#81 = DIRECTION('',(-0.999999873773,5.024486057964E-04));
#82 = ( GEOMETRIC_REPRESENTATION_CONTEXT(2) 
PARAMETRIC_REPRESENTATION_CONTEXT() REPRESENTATION_CONTEXT('2D SPACE',''
  ) );
#83 = ORIENTED_EDGE('',*,*,#84,.T.);
#84 = EDGE_CURVE('',#57,#24,#85,.T.);
#85 = SURFACE_CURVE('',#86,(#90,#97),.PCURVE_S1.);
#86 = LINE('',#87,#88);
#87 = CARTESIAN_POINT('',(-44.51626267521,49.479838088832,
    3.345827154896E-02));
#88 = VECTOR('',#89,1.);
#89 = DIRECTION('',(1.726514071333E-04,-0.999999985094,
    -1.875954983718E-06));
#90 = PCURVE('',#32,#91);
#91 = DEFINITIONAL_REPRESENTATION('',(#92),#96);
#92 = LINE('',#93,#94);
#93 = CARTESIAN_POINT('',(-1.942170483909E-04,-98.9545730203));
#94 = VECTOR('',#95,1.);
#95 = DIRECTION('',(1.962688963861E-06,0.999999999998));
#96 = ( GEOMETRIC_REPRESENTATION_CONTEXT(2) 
PARAMETRIC_REPRESENTATION_CONTEXT() REPRESENTATION_CONTEXT('2D SPACE',''
  ) );
#97 = PCURVE('',#98,#103);
#98 = PLANE('',#99);
#99 = AXIS2_PLACEMENT_3D('',#100,#101,#102);
#100 = CARTESIAN_POINT('',(-44.51626267521,49.479838088832,
    3.345827154896E-02));
#101 = DIRECTION('',(1.035170884873E-04,1.893827372882E-06,
    -0.99999999464));
#102 = DIRECTION('',(-0.999999994642,-1.47204645823E-27,
    -1.035170884875E-04));
#103 = DEFINITIONAL_REPRESENTATION('',(#104),#108);
#104 = LINE('',#105,#106);
#105 = CARTESIAN_POINT('',(-0.,0.));
#106 = VECTOR('',#107,1.);
#107 = DIRECTION('',(-1.726512120148E-04,-0.999999985096));
#108 = ( GEOMETRIC_REPRESENTATION_CONTEXT(2) 
PARAMETRIC_REPRESENTATION_CONTEXT() REPRESENTATION_CONTEXT('2D SPACE',''
  ) );
#109 = ADVANCED_FACE('',(#110),#44,.T.);
#110 = FACE_BOUND('',#111,.T.);
#111 = EDGE_LOOP('',(#112,#140,#141));
#112 = ORIENTED_EDGE('',*,*,#113,.F.);
#113 = EDGE_CURVE('',#22,#114,#116,.T.);
#114 = VERTEX_POINT('',#115);
#115 = CARTESIAN_POINT('',(-44.52063208697,-49.48310517513,
    30.537357590679));
#116 = SURFACE_CURVE('',#117,(#121,#128),.PCURVE_S1.);
#117 = LINE('',#118,#119);
#118 = CARTESIAN_POINT('',(-44.53159105949,49.494423490316,
    30.540818696232));
#119 = VECTOR('',#120,1.);
#120 = DIRECTION('',(1.107218233488E-04,-0.999999993259,
    -3.496859920822E-05));
#121 = PCURVE('',#44,#122);
#122 = DEFINITIONAL_REPRESENTATION('',(#123),#127);
#123 = LINE('',#124,#125);
#124 = CARTESIAN_POINT('',(-3.468812666394E-03,-98.97752927187));
#125 = VECTOR('',#126,1.);
#126 = DIRECTION('',(3.504646650388E-05,0.999999999386));
#127 = ( GEOMETRIC_REPRESENTATION_CONTEXT(2) 
PARAMETRIC_REPRESENTATION_CONTEXT() REPRESENTATION_CONTEXT('2D SPACE',''
  ) );
#128 = PCURVE('',#129,#134);
#129 = PLANE('',#130);
#130 = AXIS2_PLACEMENT_3D('',#131,#132,#133);
#131 = CARTESIAN_POINT('',(-36.88608836706,41.850227946091,
    38.160851228488));
#132 = DIRECTION('',(-0.705977632631,-1.029330865816E-04,0.708234122045)
  );
#133 = DIRECTION('',(0.708234125797,-2.802497425775E-21,0.705977636371)
  );
#134 = DEFINITIONAL_REPRESENTATION('',(#135),#139);
#135 = LINE('',#136,#137);
#136 = CARTESIAN_POINT('',(-10.79437847185,7.644195584721));
#137 = VECTOR('',#138,1.);
#138 = DIRECTION('',(5.372992474986E-05,-0.999999998557));
#139 = ( GEOMETRIC_REPRESENTATION_CONTEXT(2) 
PARAMETRIC_REPRESENTATION_CONTEXT() REPRESENTATION_CONTEXT('2D SPACE',''
  ) );
#140 = ORIENTED_EDGE('',*,*,#21,.T.);
#141 = ORIENTED_EDGE('',*,*,#142,.F.);
#142 = EDGE_CURVE('',#114,#24,#143,.T.);
#143 = SURFACE_CURVE('',#144,(#148,#155),.PCURVE_S1.);
#144 = LINE('',#145,#146);
#145 = CARTESIAN_POINT('',(-44.52063208697,-49.48310517513,
    30.537357590679));
#146 = VECTOR('',#147,1.);
#147 = DIRECTION('',(7.033173411934E-04,2.744457378022E-04,
    -0.999999715012));
#148 = PCURVE('',#44,#149);
#149 = DEFINITIONAL_REPRESENTATION('',(#150),#154);
#150 = LINE('',#151,#152);
#151 = CARTESIAN_POINT('',(0.,0.));
#152 = VECTOR('',#153,1.);
#153 = DIRECTION('',(0.99999996234,-2.744457394837E-04));
#154 = ( GEOMETRIC_REPRESENTATION_CONTEXT(2) 
PARAMETRIC_REPRESENTATION_CONTEXT() REPRESENTATION_CONTEXT('2D SPACE',''
  ) );
#155 = PCURVE('',#156,#161);
#156 = PLANE('',#157);
#157 = AXIS2_PLACEMENT_3D('',#158,#159,#160);
#158 = CARTESIAN_POINT('',(44.507429135264,-49.47189049126,
    4.248634748778E-02));
#159 = DIRECTION('',(3.196946634368E-05,-0.999999961835,
    -2.744233208552E-04));
#160 = DIRECTION('',(-6.245604925095E-25,2.744233209955E-04,
    -0.999999962346));
#161 = DEFINITIONAL_REPRESENTATION('',(#162),#166);
#162 = LINE('',#163,#164);
#163 = CARTESIAN_POINT('',(-30.4948731725,-89.02806126773));
#164 = VECTOR('',#165,1.);
#165 = DIRECTION('',(0.999999752672,7.033173415528E-04));
#166 = ( GEOMETRIC_REPRESENTATION_CONTEXT(2) 
PARAMETRIC_REPRESENTATION_CONTEXT() REPRESENTATION_CONTEXT('2D SPACE',''
  ) );
#167 = ADVANCED_FACE('',(#168),#156,.T.);
#168 = FACE_BOUND('',#169,.T.);
#169 = EDGE_LOOP('',(#170,#198,#199));
#170 = ORIENTED_EDGE('',*,*,#171,.F.);
#171 = EDGE_CURVE('',#114,#172,#174,.T.);
#172 = VERTEX_POINT('',#173);
#173 = CARTESIAN_POINT('',(44.507429135264,-49.47189049126,
    4.248634748778E-02));
#174 = SURFACE_CURVE('',#175,(#179,#186),.PCURVE_S1.);
#175 = LINE('',#176,#177);
#176 = CARTESIAN_POINT('',(-44.52063208697,-49.48310517513,
    30.537357590679));
#177 = VECTOR('',#178,1.);
#178 = DIRECTION('',(0.946040556959,1.191708055788E-04,-0.324048222316)
  );
#179 = PCURVE('',#156,#180);
#180 = DEFINITIONAL_REPRESENTATION('',(#181),#185);
#181 = LINE('',#182,#183);
#182 = CARTESIAN_POINT('',(-30.4948731725,-89.02806126773));
#183 = VECTOR('',#184,1.);
#184 = DIRECTION('',(0.324048242818,0.946040557443));
#185 = ( GEOMETRIC_REPRESENTATION_CONTEXT(2) 
PARAMETRIC_REPRESENTATION_CONTEXT() REPRESENTATION_CONTEXT('2D SPACE',''
  ) );
#186 = PCURVE('',#187,#192);
#187 = PLANE('',#188);
#188 = AXIS2_PLACEMENT_3D('',#189,#190,#191);
#189 = CARTESIAN_POINT('',(44.51799683611,-49.48080153466,
    30.535882321176));
#190 = DIRECTION('',(2.58675281966E-05,-0.999999956964,
    -2.922375842431E-04));
#191 = DIRECTION('',(5.870747848991E-25,2.922375843409E-04,
    -0.999999957299));
#192 = DEFINITIONAL_REPRESENTATION('',(#193),#197);
#193 = LINE('',#194,#195);
#194 = CARTESIAN_POINT('',(-1.475942650129E-03,-89.03862895287));
#195 = VECTOR('',#196,1.);
#196 = DIRECTION('',(0.324048243305,0.946040557276));
#197 = ( GEOMETRIC_REPRESENTATION_CONTEXT(2) 
PARAMETRIC_REPRESENTATION_CONTEXT() REPRESENTATION_CONTEXT('2D SPACE',''
  ) );
#198 = ORIENTED_EDGE('',*,*,#142,.T.);
#199 = ORIENTED_EDGE('',*,*,#200,.T.);
#200 = EDGE_CURVE('',#24,#172,#201,.T.);
#201 = SURFACE_CURVE('',#202,(#206,#213),.PCURVE_S1.);
#202 = LINE('',#203,#204);
#203 = CARTESIAN_POINT('',(-44.49917802893,-49.47473345664,
    3.327263722454E-02));
#204 = VECTOR('',#205,1.);
#205 = DIRECTION('',(0.999999994132,3.194105985534E-05,
    1.035171489255E-04));
#206 = PCURVE('',#156,#207);
#207 = DEFINITIONAL_REPRESENTATION('',(#208),#212);
#208 = LINE('',#209,#210);
#209 = CARTESIAN_POINT('',(9.212929740304E-03,-89.00660720968));
#210 = VECTOR('',#211,1.);
#211 = DIRECTION('',(-1.03508379656E-04,0.999999994643));
#212 = ( GEOMETRIC_REPRESENTATION_CONTEXT(2) 
PARAMETRIC_REPRESENTATION_CONTEXT() REPRESENTATION_CONTEXT('2D SPACE',''
  ) );
#213 = PCURVE('',#98,#214);
#214 = DEFINITIONAL_REPRESENTATION('',(#215),#219);
#215 = LINE('',#216,#217);
#216 = CARTESIAN_POINT('',(-1.70846269664E-02,-98.95457154565));
#217 = VECTOR('',#218,1.);
#218 = DIRECTION('',(-0.99999999949,3.19410598554E-05));
#219 = ( GEOMETRIC_REPRESENTATION_CONTEXT(2) 
PARAMETRIC_REPRESENTATION_CONTEXT() REPRESENTATION_CONTEXT('2D SPACE',''
  ) );
#220 = ADVANCED_FACE('',(#221),#187,.T.);
#221 = FACE_BOUND('',#222,.T.);
#222 = EDGE_LOOP('',(#223,#251,#252));
#223 = ORIENTED_EDGE('',*,*,#224,.F.);
#224 = EDGE_CURVE('',#114,#225,#227,.T.);
#225 = VERTEX_POINT('',#226);
#226 = CARTESIAN_POINT('',(44.51799683611,-49.48080153466,
    30.535882321176));
#227 = SURFACE_CURVE('',#228,(#232,#239),.PCURVE_S1.);
#228 = LINE('',#229,#230);
#229 = CARTESIAN_POINT('',(-44.52063208697,-49.48310517513,
    30.537357590679));
#230 = VECTOR('',#231,1.);
#231 = DIRECTION('',(0.999999999528,2.587237134449E-05,
    -1.656887038744E-05));
#232 = PCURVE('',#187,#233);
#233 = DEFINITIONAL_REPRESENTATION('',(#234),#238);
#234 = LINE('',#235,#236);
#235 = CARTESIAN_POINT('',(-1.475942650129E-03,-89.03862895287));
#236 = VECTOR('',#237,1.);
#237 = DIRECTION('',(1.657643055923E-05,0.999999999863));
#238 = ( GEOMETRIC_REPRESENTATION_CONTEXT(2) 
PARAMETRIC_REPRESENTATION_CONTEXT() REPRESENTATION_CONTEXT('2D SPACE',''
  ) );
#239 = PCURVE('',#240,#245);
#240 = PLANE('',#241);
#241 = AXIS2_PLACEMENT_3D('',#242,#243,#244);
#242 = CARTESIAN_POINT('',(44.51799683611,-49.48080153466,
    30.535882321176));
#243 = DIRECTION('',(2.99913057296E-05,-0.705055319432,0.709152307788));
#244 = DIRECTION('',(-2.277157769357E-21,0.709152308107,0.705055319749)
  );
#245 = DEFINITIONAL_REPRESENTATION('',(#246),#250);
#246 = LINE('',#247,#248);
#247 = CARTESIAN_POINT('',(-5.934853471751E-04,89.038628963132));
#248 = VECTOR('',#249,1.);
#249 = DIRECTION('',(6.66548164626E-06,-0.999999999978));
#250 = ( GEOMETRIC_REPRESENTATION_CONTEXT(2) 
PARAMETRIC_REPRESENTATION_CONTEXT() REPRESENTATION_CONTEXT('2D SPACE',''
  ) );
#251 = ORIENTED_EDGE('',*,*,#171,.T.);
#252 = ORIENTED_EDGE('',*,*,#253,.T.);
#253 = EDGE_CURVE('',#172,#225,#254,.T.);
#254 = SURFACE_CURVE('',#255,(#259,#266),.PCURVE_S1.);
#255 = LINE('',#256,#257);
#256 = CARTESIAN_POINT('',(44.507429135264,-49.47189049126,
    4.248634748778E-02));
#257 = VECTOR('',#258,1.);
#258 = DIRECTION('',(3.465569977574E-04,-2.922286022193E-04,
    0.99999989725));
#259 = PCURVE('',#187,#260);
#260 = DEFINITIONAL_REPRESENTATION('',(#261),#265);
#261 = LINE('',#262,#263);
#262 = CARTESIAN_POINT('',(30.493397275719,-1.056770084943E-02));
#263 = VECTOR('',#264,1.);
#264 = DIRECTION('',(-0.999999939949,3.465569978734E-04));
#265 = ( GEOMETRIC_REPRESENTATION_CONTEXT(2) 
PARAMETRIC_REPRESENTATION_CONTEXT() REPRESENTATION_CONTEXT('2D SPACE',''
  ) );
#266 = PCURVE('',#267,#272);
#267 = PLANE('',#268);
#268 = AXIS2_PLACEMENT_3D('',#269,#270,#271);
#269 = CARTESIAN_POINT('',(44.51799683611,-49.48080153466,
    30.535882321176));
#270 = DIRECTION('',(0.999999885841,3.290622245619E-04,
    -3.464608323998E-04));
#271 = DIRECTION('',(3.464608511575E-04,-9.028381146586E-25,
    0.999999939982));
#272 = DEFINITIONAL_REPRESENTATION('',(#273),#277);
#273 = LINE('',#274,#275);
#274 = CARTESIAN_POINT('',(-30.49339780484,-8.911043880368E-03));
#275 = VECTOR('',#276,1.);
#276 = DIRECTION('',(0.999999957301,2.922286180408E-04));
#277 = ( GEOMETRIC_REPRESENTATION_CONTEXT(2) 
PARAMETRIC_REPRESENTATION_CONTEXT() REPRESENTATION_CONTEXT('2D SPACE',''
  ) );
#278 = ADVANCED_FACE('',(#279),#129,.T.);
#279 = FACE_BOUND('',#280,.T.);
#280 = EDGE_LOOP('',(#281,#309,#310));
#281 = ORIENTED_EDGE('',*,*,#282,.F.);
#282 = EDGE_CURVE('',#22,#283,#285,.T.);
#283 = VERTEX_POINT('',#284);
#284 = CARTESIAN_POINT('',(-36.88608836706,41.850227946091,
    38.160851228488));
#285 = SURFACE_CURVE('',#286,(#290,#297),.PCURVE_S1.);
#286 = LINE('',#287,#288);
#287 = CARTESIAN_POINT('',(-44.53159105949,49.494423490316,
    30.540818696232));
#288 = VECTOR('',#289,1.);
#289 = DIRECTION('',(0.578024406983,-0.577925582406,0.576098781576));
#290 = PCURVE('',#129,#291);
#291 = DEFINITIONAL_REPRESENTATION('',(#292),#296);
#292 = LINE('',#293,#294);
#293 = CARTESIAN_POINT('',(-10.79437847185,7.644195584721));
#294 = VECTOR('',#295,1.);
#295 = DIRECTION('',(0.816089466702,-0.577925585467));
#296 = ( GEOMETRIC_REPRESENTATION_CONTEXT(2) 
PARAMETRIC_REPRESENTATION_CONTEXT() REPRESENTATION_CONTEXT('2D SPACE',''
  ) );
#297 = PCURVE('',#298,#303);
#298 = PLANE('',#299);
#299 = AXIS2_PLACEMENT_3D('',#300,#301,#302);
#300 = CARTESIAN_POINT('',(36.887718507229,41.850452430611,
    38.16573017004));
#301 = DIRECTION('',(-4.898739428082E-05,0.705961981987,0.708249728266)
  );
#302 = DIRECTION('',(3.418990973208E-21,0.708249729116,-0.705961982834)
  );
#303 = DEFINITIONAL_REPRESENTATION('',(#304),#308);
#304 = LINE('',#305,#306);
#305 = CARTESIAN_POINT('',(10.796738055391,81.419309664419));
#306 = VECTOR('',#307,1.);
#307 = DIRECTION('',(-0.816019475338,-0.578024407676));
#308 = ( GEOMETRIC_REPRESENTATION_CONTEXT(2) 
PARAMETRIC_REPRESENTATION_CONTEXT() REPRESENTATION_CONTEXT('2D SPACE',''
  ) );
#309 = ORIENTED_EDGE('',*,*,#113,.T.);
#310 = ORIENTED_EDGE('',*,*,#311,.T.);
#311 = EDGE_CURVE('',#114,#283,#312,.T.);
#312 = SURFACE_CURVE('',#313,(#317,#324),.PCURVE_S1.);
#313 = LINE('',#314,#315);
#314 = CARTESIAN_POINT('',(-44.52063208697,-49.48310517513,
    30.537357590679));
#315 = VECTOR('',#316,1.);
#316 = DIRECTION('',(8.30127081945E-02,0.993095017721,8.289255730202E-02
    ));
#317 = PCURVE('',#129,#318);
#318 = DEFINITIONAL_REPRESENTATION('',(#319),#323);
#319 = LINE('',#320,#321);
#320 = CARTESIAN_POINT('',(-10.78906041664,-91.33333360507));
#321 = VECTOR('',#322,1.);
#322 = DIRECTION('',(0.117312724495,0.993095022982));
#323 = ( GEOMETRIC_REPRESENTATION_CONTEXT(2) 
PARAMETRIC_REPRESENTATION_CONTEXT() REPRESENTATION_CONTEXT('2D SPACE',''
  ) );
#324 = PCURVE('',#325,#330);
#325 = PLANE('',#326);
#326 = AXIS2_PLACEMENT_3D('',#327,#328,#329);
#327 = CARTESIAN_POINT('',(-36.88608836706,41.850227946091,
    38.160851228488));
#328 = DIRECTION('',(-0.704964151242,-2.718503286881E-04,0.709242886155)
  );
#329 = DIRECTION('',(0.709242912362,1.585449689515E-20,0.704964177291));
#330 = DEFINITIONAL_REPRESENTATION('',(#331),#335);
#331 = LINE('',#332,#333);
#332 = CARTESIAN_POINT('',(-10.78903594293,-91.33333649611));
#333 = VECTOR('',#334,1.);
#334 = DIRECTION('',(0.117312458385,0.993095054417));
#335 = ( GEOMETRIC_REPRESENTATION_CONTEXT(2) 
PARAMETRIC_REPRESENTATION_CONTEXT() REPRESENTATION_CONTEXT('2D SPACE',''
  ) );
#336 = ADVANCED_FACE('',(#337),#325,.T.);
#337 = FACE_BOUND('',#338,.T.);
#338 = EDGE_LOOP('',(#339,#340,#363));
#339 = ORIENTED_EDGE('',*,*,#311,.F.);
#340 = ORIENTED_EDGE('',*,*,#341,.T.);
#341 = EDGE_CURVE('',#114,#342,#344,.T.);
#342 = VERTEX_POINT('',#343);
#343 = CARTESIAN_POINT('',(-36.88606039008,-41.8472270043,
    38.128798093634));
#344 = SURFACE_CURVE('',#345,(#349,#356),.PCURVE_S1.);
#345 = LINE('',#346,#347);
#346 = CARTESIAN_POINT('',(-44.52063208697,-49.48310517513,
    30.537357590679));
#347 = VECTOR('',#348,1.);
#348 = DIRECTION('',(0.578404380584,0.578503360629,0.575136709193));
#349 = PCURVE('',#325,#350);
#350 = DEFINITIONAL_REPRESENTATION('',(#351),#355);
#351 = LINE('',#352,#353);
#352 = CARTESIAN_POINT('',(-10.78903594293,-91.33333649611));
#353 = VECTOR('',#354,1.);
#354 = DIRECTION('',(0.815679984435,0.578503382006));
#355 = ( GEOMETRIC_REPRESENTATION_CONTEXT(2) 
PARAMETRIC_REPRESENTATION_CONTEXT() REPRESENTATION_CONTEXT('2D SPACE',''
  ) );
#356 = PCURVE('',#240,#357);
#357 = DEFINITIONAL_REPRESENTATION('',(#358),#362);
#358 = LINE('',#359,#360);
#359 = CARTESIAN_POINT('',(-5.934853471751E-04,89.038628963132));
#360 = VECTOR('',#361,1.);
#361 = DIRECTION('',(0.815750189838,-0.578404380844));
#362 = ( GEOMETRIC_REPRESENTATION_CONTEXT(2) 
PARAMETRIC_REPRESENTATION_CONTEXT() REPRESENTATION_CONTEXT('2D SPACE',''
  ) );
#363 = ORIENTED_EDGE('',*,*,#364,.F.);
#364 = EDGE_CURVE('',#283,#342,#365,.T.);
#365 = SURFACE_CURVE('',#366,(#370,#377),.PCURVE_S1.);
#366 = LINE('',#367,#368);
#367 = CARTESIAN_POINT('',(-36.88608836706,41.850227946091,
    38.160851228488));
#368 = VECTOR('',#369,1.);
#369 = DIRECTION('',(3.342631167736E-07,-0.999999926669,
    -3.829642433374E-04));
#370 = PCURVE('',#325,#371);
#371 = DEFINITIONAL_REPRESENTATION('',(#372),#376);
#372 = LINE('',#373,#374);
#373 = CARTESIAN_POINT('',(0.,0.));
#374 = VECTOR('',#375,1.);
#375 = DIRECTION('',(-2.6973899899E-04,-0.99999996362));
#376 = ( GEOMETRIC_REPRESENTATION_CONTEXT(2) 
PARAMETRIC_REPRESENTATION_CONTEXT() REPRESENTATION_CONTEXT('2D SPACE',''
  ) );
#377 = PCURVE('',#378,#383);
#378 = PLANE('',#379);
#379 = AXIS2_PLACEMENT_3D('',#380,#381,#382);
#380 = CARTESIAN_POINT('',(36.887718507229,41.850452430611,
    38.16573017004));
#381 = DIRECTION('',(-6.613262105304E-05,-3.829642646057E-04,
    0.999999924482));
#382 = DIRECTION('',(-1.413903502763E-24,0.999999926669,
    3.829642654431E-04));
#383 = DEFINITIONAL_REPRESENTATION('',(#384),#388);
#384 = LINE('',#385,#386);
#385 = CARTESIAN_POINT('',(-2.263529639447E-04,73.773807035615));
#386 = VECTOR('',#387,1.);
#387 = DIRECTION('',(-1.,-3.342631175045E-07));
#388 = ( GEOMETRIC_REPRESENTATION_CONTEXT(2) 
PARAMETRIC_REPRESENTATION_CONTEXT() REPRESENTATION_CONTEXT('2D SPACE',''
  ) );
#389 = ADVANCED_FACE('',(#390),#98,.T.);
#390 = FACE_BOUND('',#391,.T.);
#391 = EDGE_LOOP('',(#392,#418,#419));
#392 = ORIENTED_EDGE('',*,*,#393,.T.);
#393 = EDGE_CURVE('',#57,#172,#394,.T.);
#394 = SURFACE_CURVE('',#395,(#399,#406),.PCURVE_S1.);
#395 = LINE('',#396,#397);
#396 = CARTESIAN_POINT('',(-44.51626267521,49.479838088832,
    3.345827154896E-02));
#397 = VECTOR('',#398,1.);
#398 = DIRECTION('',(0.668828307714,-0.743416902014,6.782725619747E-05)
  );
#399 = PCURVE('',#98,#400);
#400 = DEFINITIONAL_REPRESENTATION('',(#401),#405);
#401 = LINE('',#402,#403);
#402 = CARTESIAN_POINT('',(-0.,0.));
#403 = VECTOR('',#404,1.);
#404 = DIRECTION('',(-0.668828311152,-0.743416902015));
#405 = ( GEOMETRIC_REPRESENTATION_CONTEXT(2) 
PARAMETRIC_REPRESENTATION_CONTEXT() REPRESENTATION_CONTEXT('2D SPACE',''
  ) );
#406 = PCURVE('',#407,#412);
#407 = PLANE('',#408);
#408 = AXIS2_PLACEMENT_3D('',#409,#410,#411);
#409 = CARTESIAN_POINT('',(44.513056723074,49.468907342617,
    2.607718745759E-02));
#410 = DIRECTION('',(-8.292657753795E-05,-1.658435491804E-04,
    -0.99999998281));
#411 = DIRECTION('',(2.573900806925E-24,-0.999999986248,
    1.658435497506E-04));
#412 = DEFINITIONAL_REPRESENTATION('',(#413),#417);
#413 = LINE('',#414,#415);
#414 = CARTESIAN_POINT('',(-1.09295219593E-02,89.029319704407));
#415 = VECTOR('',#416,1.);
#416 = DIRECTION('',(0.743416903039,-0.668828310014));
#417 = ( GEOMETRIC_REPRESENTATION_CONTEXT(2) 
PARAMETRIC_REPRESENTATION_CONTEXT() REPRESENTATION_CONTEXT('2D SPACE',''
  ) );
#418 = ORIENTED_EDGE('',*,*,#200,.F.);
#419 = ORIENTED_EDGE('',*,*,#84,.F.);
#420 = ADVANCED_FACE('',(#421),#407,.T.);
#421 = FACE_BOUND('',#422,.T.);
#422 = EDGE_LOOP('',(#423,#451,#452));
#423 = ORIENTED_EDGE('',*,*,#424,.F.);
#424 = EDGE_CURVE('',#172,#425,#427,.T.);
#425 = VERTEX_POINT('',#426);
#426 = CARTESIAN_POINT('',(44.513056723074,49.468907342617,
    2.607718745759E-02));
#427 = SURFACE_CURVE('',#428,(#432,#439),.PCURVE_S1.);
#428 = LINE('',#429,#430);
#429 = CARTESIAN_POINT('',(44.507429135264,-49.47189049126,
    4.248634748778E-02));
#430 = VECTOR('',#431,1.);
#431 = DIRECTION('',(5.687833378395E-05,0.99999998463,
    -1.658482662079E-04));
#432 = PCURVE('',#407,#433);
#433 = DEFINITIONAL_REPRESENTATION('',(#434),#438);
#434 = LINE('',#435,#436);
#435 = CARTESIAN_POINT('',(98.940799194597,5.627587829894E-03));
#436 = VECTOR('',#437,1.);
#437 = DIRECTION('',(-0.999999998382,-5.687833397952E-05));
#438 = ( GEOMETRIC_REPRESENTATION_CONTEXT(2) 
PARAMETRIC_REPRESENTATION_CONTEXT() REPRESENTATION_CONTEXT('2D SPACE',''
  ) );
#439 = PCURVE('',#440,#445);
#440 = PLANE('',#441);
#441 = AXIS2_PLACEMENT_3D('',#442,#443,#444);
#442 = CARTESIAN_POINT('',(44.507429135264,-49.47189049126,
    4.248634748778E-02));
#443 = DIRECTION('',(0.999999588315,-5.672811530731E-05,9.0562256717E-04
    ));
#444 = DIRECTION('',(-9.056225686272E-04,-4.010976663473E-24,
    0.999999589924));
#445 = DEFINITIONAL_REPRESENTATION('',(#446),#450);
#446 = LINE('',#447,#448);
#447 = CARTESIAN_POINT('',(0.,-0.));
#448 = VECTOR('',#449,1.);
#449 = DIRECTION('',(-1.658997085002E-04,-0.999999986239));
#450 = ( GEOMETRIC_REPRESENTATION_CONTEXT(2) 
PARAMETRIC_REPRESENTATION_CONTEXT() REPRESENTATION_CONTEXT('2D SPACE',''
  ) );
#451 = ORIENTED_EDGE('',*,*,#393,.F.);
#452 = ORIENTED_EDGE('',*,*,#453,.T.);
#453 = EDGE_CURVE('',#57,#425,#454,.T.);
#454 = SURFACE_CURVE('',#455,(#459,#466),.PCURVE_S1.);
#455 = LINE('',#456,#457);
#456 = CARTESIAN_POINT('',(-44.51626267521,49.479838088832,
    3.345827154896E-02));
#457 = VECTOR('',#458,1.);
#458 = DIRECTION('',(0.999999989026,-1.227769252728E-04,
    -8.290621629208E-05));
#459 = PCURVE('',#407,#460);
#460 = DEFINITIONAL_REPRESENTATION('',(#461),#465);
#461 = LINE('',#462,#463);
#462 = CARTESIAN_POINT('',(-1.09295219593E-02,89.029319704407));
#463 = VECTOR('',#464,1.);
#464 = DIRECTION('',(1.227631741232E-04,-0.999999992465));
#465 = ( GEOMETRIC_REPRESENTATION_CONTEXT(2) 
PARAMETRIC_REPRESENTATION_CONTEXT() REPRESENTATION_CONTEXT('2D SPACE',''
  ) );
#466 = PCURVE('',#72,#467);
#467 = DEFINITIONAL_REPRESENTATION('',(#468),#472);
#468 = LINE('',#469,#470);
#469 = CARTESIAN_POINT('',(7.386308503074E-03,-89.02932006887));
#470 = VECTOR('',#471,1.);
#471 = DIRECTION('',(-8.296489821487E-05,0.999999996558));
#472 = ( GEOMETRIC_REPRESENTATION_CONTEXT(2) 
PARAMETRIC_REPRESENTATION_CONTEXT() REPRESENTATION_CONTEXT('2D SPACE',''
  ) );
#473 = ADVANCED_FACE('',(#474),#72,.T.);
#474 = FACE_BOUND('',#475,.T.);
#475 = EDGE_LOOP('',(#476,#477,#478));
#476 = ORIENTED_EDGE('',*,*,#453,.F.);
#477 = ORIENTED_EDGE('',*,*,#56,.F.);
#478 = ORIENTED_EDGE('',*,*,#479,.T.);
#479 = EDGE_CURVE('',#22,#425,#480,.T.);
#480 = SURFACE_CURVE('',#481,(#485,#492),.PCURVE_S1.);
#481 = LINE('',#482,#483);
#482 = CARTESIAN_POINT('',(-44.53159105949,49.494423490316,
    30.540818696232));
#483 = VECTOR('',#484,1.);
#484 = DIRECTION('',(0.945994308078,-2.710789596898E-04,-0.324183120475)
  );
#485 = PCURVE('',#72,#486);
#486 = DEFINITIONAL_REPRESENTATION('',(#487),#491);
#487 = LINE('',#488,#489);
#488 = CARTESIAN_POINT('',(30.514750219787,-89.04464845327));
#489 = VECTOR('',#490,1.);
#490 = DIRECTION('',(-0.324183213019,0.945994315203));
#491 = ( GEOMETRIC_REPRESENTATION_CONTEXT(2) 
PARAMETRIC_REPRESENTATION_CONTEXT() REPRESENTATION_CONTEXT('2D SPACE',''
  ) );
#492 = PCURVE('',#493,#498);
#493 = PLANE('',#494);
#494 = AXIS2_PLACEMENT_3D('',#495,#496,#497);
#495 = CARTESIAN_POINT('',(44.485433624543,49.468292760997,
    30.52780417254));
#496 = DIRECTION('',(2.93550519921E-04,0.999999956706,2.041492171206E-05
    ));
#497 = DIRECTION('',(0.999999956914,-2.935505199822E-04,
    -9.667631522995E-26));
#498 = DEFINITIONAL_REPRESENTATION('',(#499),#503);
#499 = LINE('',#500,#501);
#500 = CARTESIAN_POINT('',(-89.01702851934,-1.301452369553E-02));
#501 = VECTOR('',#502,1.);
#502 = DIRECTION('',(0.945994346894,0.324183120543));
#503 = ( GEOMETRIC_REPRESENTATION_CONTEXT(2) 
PARAMETRIC_REPRESENTATION_CONTEXT() REPRESENTATION_CONTEXT('2D SPACE',''
  ) );
#504 = ADVANCED_FACE('',(#505),#493,.T.);
#505 = FACE_BOUND('',#506,.T.);
#506 = EDGE_LOOP('',(#507,#530,#531));
#507 = ORIENTED_EDGE('',*,*,#508,.T.);
#508 = EDGE_CURVE('',#509,#425,#511,.T.);
#509 = VERTEX_POINT('',#510);
#510 = CARTESIAN_POINT('',(44.485433624543,49.468292760997,
    30.52780417254));
#511 = SURFACE_CURVE('',#512,(#516,#523),.PCURVE_S1.);
#512 = LINE('',#513,#514);
#513 = CARTESIAN_POINT('',(44.485433624543,49.468292760997,
    30.52780417254));
#514 = VECTOR('',#515,1.);
#515 = DIRECTION('',(9.056237114616E-04,2.014906789721E-05,
    -0.99999958972));
#516 = PCURVE('',#493,#517);
#517 = DEFINITIONAL_REPRESENTATION('',(#518),#522);
#518 = LINE('',#519,#520);
#519 = CARTESIAN_POINT('',(0.,0.));
#520 = VECTOR('',#521,1.);
#521 = DIRECTION('',(9.056177576725E-04,0.999999589928));
#522 = ( GEOMETRIC_REPRESENTATION_CONTEXT(2) 
PARAMETRIC_REPRESENTATION_CONTEXT() REPRESENTATION_CONTEXT('2D SPACE',''
  ) );
#523 = PCURVE('',#440,#524);
#524 = DEFINITIONAL_REPRESENTATION('',(#525),#529);
#525 = LINE('',#526,#527);
#526 = CARTESIAN_POINT('',(30.485325243379,-98.94018341146));
#527 = VECTOR('',#528,1.);
#528 = DIRECTION('',(-0.999999999797,-2.014906792963E-05));
#529 = ( GEOMETRIC_REPRESENTATION_CONTEXT(2) 
PARAMETRIC_REPRESENTATION_CONTEXT() REPRESENTATION_CONTEXT('2D SPACE',''
  ) );
#530 = ORIENTED_EDGE('',*,*,#479,.F.);
#531 = ORIENTED_EDGE('',*,*,#532,.T.);
#532 = EDGE_CURVE('',#22,#509,#533,.T.);
#533 = SURFACE_CURVE('',#534,(#538,#545),.PCURVE_S1.);
#534 = LINE('',#535,#536);
#535 = CARTESIAN_POINT('',(-44.53159105949,49.494423490316,
    30.540818696232));
#536 = VECTOR('',#537,1.);
#537 = DIRECTION('',(0.999999946227,-2.935475321297E-04,
    -1.46202628533E-04));
#538 = PCURVE('',#493,#539);
#539 = DEFINITIONAL_REPRESENTATION('',(#540),#544);
#540 = LINE('',#541,#542);
#541 = CARTESIAN_POINT('',(-89.01702851934,-1.301452369553E-02));
#542 = VECTOR('',#543,1.);
#543 = DIRECTION('',(0.999999989312,1.462026285635E-04));
#544 = ( GEOMETRIC_REPRESENTATION_CONTEXT(2) 
PARAMETRIC_REPRESENTATION_CONTEXT() REPRESENTATION_CONTEXT('2D SPACE',''
  ) );
#545 = PCURVE('',#546,#551);
#546 = PLANE('',#547);
#547 = AXIS2_PLACEMENT_3D('',#548,#549,#550);
#548 = CARTESIAN_POINT('',(36.887718507229,41.850452430611,
    38.16573017004));
#549 = DIRECTION('',(3.110644828788E-04,0.70788237671,0.706330265515));
#550 = DIRECTION('',(6.479333903089E-21,-0.706330299687,0.707882410958)
  );
#551 = DEFINITIONAL_REPRESENTATION('',(#552),#556);
#552 = LINE('',#553,#554);
#553 = CARTESIAN_POINT('',(-10.79670908682,-81.41931350583));
#554 = VECTOR('',#555,1.);
#555 = DIRECTION('',(1.038472471674E-04,0.999999994608));
#556 = ( GEOMETRIC_REPRESENTATION_CONTEXT(2) 
PARAMETRIC_REPRESENTATION_CONTEXT() REPRESENTATION_CONTEXT('2D SPACE',''
  ) );
#557 = ADVANCED_FACE('',(#558),#440,.T.);
#558 = FACE_BOUND('',#559,.T.);
#559 = EDGE_LOOP('',(#560,#561,#562));
#560 = ORIENTED_EDGE('',*,*,#424,.T.);
#561 = ORIENTED_EDGE('',*,*,#508,.F.);
#562 = ORIENTED_EDGE('',*,*,#563,.T.);
#563 = EDGE_CURVE('',#509,#172,#564,.T.);
#564 = SURFACE_CURVE('',#565,(#569,#576),.PCURVE_S1.);
#565 = LINE('',#566,#567);
#566 = CARTESIAN_POINT('',(44.485433624543,49.468292760997,
    30.52780417254));
#567 = VECTOR('',#568,1.);
#568 = DIRECTION('',(2.124548948521E-04,-0.955664385167,-0.29445804079)
  );
#569 = PCURVE('',#440,#570);
#570 = DEFINITIONAL_REPRESENTATION('',(#571),#575);
#571 = LINE('',#572,#573);
#572 = CARTESIAN_POINT('',(30.485325243379,-98.94018341146));
#573 = VECTOR('',#574,1.);
#574 = DIRECTION('',(-0.294458112444,0.955664386705));
#575 = ( GEOMETRIC_REPRESENTATION_CONTEXT(2) 
PARAMETRIC_REPRESENTATION_CONTEXT() REPRESENTATION_CONTEXT('2D SPACE',''
  ) );
#576 = PCURVE('',#267,#577);
#577 = DEFINITIONAL_REPRESENTATION('',(#578),#582);
#578 = LINE('',#579,#580);
#579 = CARTESIAN_POINT('',(-8.089430029334E-03,-98.94909965286));
#580 = VECTOR('',#581,1.);
#581 = DIRECTION('',(-0.29445794951,0.955664436908));
#582 = ( GEOMETRIC_REPRESENTATION_CONTEXT(2) 
PARAMETRIC_REPRESENTATION_CONTEXT() REPRESENTATION_CONTEXT('2D SPACE',''
  ) );
#583 = ADVANCED_FACE('',(#584),#267,.T.);
#584 = FACE_BOUND('',#585,.T.);
#585 = EDGE_LOOP('',(#586,#587,#588));
#586 = ORIENTED_EDGE('',*,*,#253,.F.);
#587 = ORIENTED_EDGE('',*,*,#563,.F.);
#588 = ORIENTED_EDGE('',*,*,#589,.T.);
#589 = EDGE_CURVE('',#509,#225,#590,.T.);
#590 = SURFACE_CURVE('',#591,(#595,#602),.PCURVE_S1.);
#591 = LINE('',#592,#593);
#592 = CARTESIAN_POINT('',(44.485433624543,49.468292760997,
    30.52780417254));
#593 = VECTOR('',#594,1.);
#594 = DIRECTION('',(3.290905280816E-04,-0.999999942517,
    8.163943519965E-05));
#595 = PCURVE('',#267,#596);
#596 = DEFINITIONAL_REPRESENTATION('',(#597),#601);
#597 = LINE('',#598,#599);
#598 = CARTESIAN_POINT('',(-8.089430029334E-03,-98.94909965286));
#599 = VECTOR('',#600,1.);
#600 = DIRECTION('',(8.175344728432E-05,0.999999996658));
#601 = ( GEOMETRIC_REPRESENTATION_CONTEXT(2) 
PARAMETRIC_REPRESENTATION_CONTEXT() REPRESENTATION_CONTEXT('2D SPACE',''
  ) );
#602 = PCURVE('',#603,#608);
#603 = PLANE('',#604);
#604 = AXIS2_PLACEMENT_3D('',#605,#606,#607);
#605 = CARTESIAN_POINT('',(44.485433624543,49.468292760997,
    30.52780417254));
#606 = DIRECTION('',(0.706871724879,2.903717827811E-04,0.707341699783));
#607 = DIRECTION('',(0.707341729603,1.475363748519E-20,-0.706871754679)
  );
#608 = DEFINITIONAL_REPRESENTATION('',(#609),#613);
#609 = LINE('',#610,#611);
#610 = CARTESIAN_POINT('',(0.,0.));
#611 = VECTOR('',#612,1.);
#612 = DIRECTION('',(1.750708525185E-04,-0.999999984675));
#613 = ( GEOMETRIC_REPRESENTATION_CONTEXT(2) 
PARAMETRIC_REPRESENTATION_CONTEXT() REPRESENTATION_CONTEXT('2D SPACE',''
  ) );
#614 = ADVANCED_FACE('',(#615),#240,.T.);
#615 = FACE_BOUND('',#616,.T.);
#616 = EDGE_LOOP('',(#617,#643,#644));
#617 = ORIENTED_EDGE('',*,*,#618,.F.);
#618 = EDGE_CURVE('',#342,#225,#619,.T.);
#619 = SURFACE_CURVE('',#620,(#624,#631),.PCURVE_S1.);
#620 = LINE('',#621,#622);
#621 = CARTESIAN_POINT('',(-36.88606039008,-41.8472270043,
    38.128798093634));
#622 = VECTOR('',#623,1.);
#623 = DIRECTION('',(0.991366283993,-9.296426583162E-02,
    -9.246910965502E-02));
#624 = PCURVE('',#240,#625);
#625 = DEFINITIONAL_REPRESENTATION('',(#626),#630);
#626 = LINE('',#627,#628);
#627 = CARTESIAN_POINT('',(10.766792655091,81.404057262807));
#628 = VECTOR('',#629,1.);
#629 = DIRECTION('',(-0.131121661361,-0.991366284439));
#630 = ( GEOMETRIC_REPRESENTATION_CONTEXT(2) 
PARAMETRIC_REPRESENTATION_CONTEXT() REPRESENTATION_CONTEXT('2D SPACE',''
  ) );
#631 = PCURVE('',#632,#637);
#632 = PLANE('',#633);
#633 = AXIS2_PLACEMENT_3D('',#634,#635,#636);
#634 = CARTESIAN_POINT('',(36.88590337868,-41.85015323457,
    38.159772363845));
#635 = DIRECTION('',(-3.24994710364E-04,-0.706956056611,0.707257398971)
  );
#636 = DIRECTION('',(4.031790787306E-21,0.707257436322,0.706956093946));
#637 = DEFINITIONAL_REPRESENTATION('',(#638),#642);
#638 = LINE('',#639,#640);
#639 = CARTESIAN_POINT('',(-1.982785096211E-02,73.771967664722));
#640 = VECTOR('',#641,1.);
#641 = DIRECTION('',(-0.131121268894,-0.991366336348));
#642 = ( GEOMETRIC_REPRESENTATION_CONTEXT(2) 
PARAMETRIC_REPRESENTATION_CONTEXT() REPRESENTATION_CONTEXT('2D SPACE',''
  ) );
#643 = ORIENTED_EDGE('',*,*,#341,.F.);
#644 = ORIENTED_EDGE('',*,*,#224,.T.);
#645 = ADVANCED_FACE('',(#646),#632,.T.);
#646 = FACE_BOUND('',#647,.T.);
#647 = EDGE_LOOP('',(#648,#676,#677));
#648 = ORIENTED_EDGE('',*,*,#649,.F.);
#649 = EDGE_CURVE('',#342,#650,#652,.T.);
#650 = VERTEX_POINT('',#651);
#651 = CARTESIAN_POINT('',(36.88590337868,-41.85015323457,
    38.159772363845));
#652 = SURFACE_CURVE('',#653,(#657,#664),.PCURVE_S1.);
#653 = LINE('',#654,#655);
#654 = CARTESIAN_POINT('',(-36.88606039008,-41.8472270043,
    38.128798093634));
#655 = VECTOR('',#656,1.);
#656 = DIRECTION('',(0.99999991107,-3.966588201351E-05,
    4.198650256103E-04));
#657 = PCURVE('',#632,#658);
#658 = DEFINITIONAL_REPRESENTATION('',(#659),#663);
#659 = LINE('',#660,#661);
#660 = CARTESIAN_POINT('',(-1.982785096211E-02,73.771967664722));
#661 = VECTOR('',#662,1.);
#662 = DIRECTION('',(2.687721484678E-04,-0.999999963881));
#663 = ( GEOMETRIC_REPRESENTATION_CONTEXT(2) 
PARAMETRIC_REPRESENTATION_CONTEXT() REPRESENTATION_CONTEXT('2D SPACE',''
  ) );
#664 = PCURVE('',#665,#670);
#665 = PLANE('',#666);
#666 = AXIS2_PLACEMENT_3D('',#667,#668,#669);
#667 = CARTESIAN_POINT('',(36.887718507229,41.850452430611,
    38.16573017004));
#668 = DIRECTION('',(-4.198678479317E-04,-7.117085346213E-05,
    0.999999909323));
#669 = DIRECTION('',(0.999999911855,2.545334334207E-24,4.19867848995E-04
    ));
#670 = DEFINITIONAL_REPRESENTATION('',(#671),#675);
#671 = LINE('',#672,#673);
#672 = CARTESIAN_POINT('',(-73.77378790115,-83.69767964688));
#673 = VECTOR('',#674,1.);
#674 = DIRECTION('',(0.999999999213,-3.966588211397E-05));
#675 = ( GEOMETRIC_REPRESENTATION_CONTEXT(2) 
PARAMETRIC_REPRESENTATION_CONTEXT() REPRESENTATION_CONTEXT('2D SPACE',''
  ) );
#676 = ORIENTED_EDGE('',*,*,#618,.T.);
#677 = ORIENTED_EDGE('',*,*,#678,.F.);
#678 = EDGE_CURVE('',#650,#225,#679,.T.);
#679 = SURFACE_CURVE('',#680,(#684,#691),.PCURVE_S1.);
#680 = LINE('',#681,#682);
#681 = CARTESIAN_POINT('',(36.88590337868,-41.85015323457,
    38.159772363845));
#682 = VECTOR('',#683,1.);
#683 = DIRECTION('',(0.577593605731,-0.577484236835,-0.576972774771));
#684 = PCURVE('',#632,#685);
#685 = DEFINITIONAL_REPRESENTATION('',(#686),#690);
#686 = LINE('',#687,#688);
#687 = CARTESIAN_POINT('',(0.,0.));
#688 = VECTOR('',#689,1.);
#689 = DIRECTION('',(-0.816324440025,-0.577593636234));
#690 = ( GEOMETRIC_REPRESENTATION_CONTEXT(2) 
PARAMETRIC_REPRESENTATION_CONTEXT() REPRESENTATION_CONTEXT('2D SPACE',''
  ) );
#691 = PCURVE('',#603,#692);
#692 = DEFINITIONAL_REPRESENTATION('',(#693),#697);
#693 = LINE('',#694,#695);
#694 = CARTESIAN_POINT('',(-10.77028761531,-91.31844984536));
#695 = VECTOR('',#696,1.);
#696 = DIRECTION('',(0.816401817789,-0.57748426118));
#697 = ( GEOMETRIC_REPRESENTATION_CONTEXT(2) 
PARAMETRIC_REPRESENTATION_CONTEXT() REPRESENTATION_CONTEXT('2D SPACE',''
  ) );
#698 = ADVANCED_FACE('',(#699),#378,.T.);
#699 = FACE_BOUND('',#700,.T.);
#700 = EDGE_LOOP('',(#701,#724,#725));
#701 = ORIENTED_EDGE('',*,*,#702,.F.);
#702 = EDGE_CURVE('',#283,#703,#705,.T.);
#703 = VERTEX_POINT('',#704);
#704 = CARTESIAN_POINT('',(36.887718507229,41.850452430611,
    38.16573017004));
#705 = SURFACE_CURVE('',#706,(#710,#717),.PCURVE_S1.);
#706 = LINE('',#707,#708);
#707 = CARTESIAN_POINT('',(-36.88608836706,41.850227946091,
    38.160851228488));
#708 = VECTOR('',#709,1.);
#709 = DIRECTION('',(0.999999997809,3.042875637819E-06,6.6133791215E-05)
  );
#710 = PCURVE('',#378,#711);
#711 = DEFINITIONAL_REPRESENTATION('',(#712),#716);
#712 = LINE('',#713,#714);
#713 = CARTESIAN_POINT('',(-2.263529639447E-04,73.773807035615));
#714 = VECTOR('',#715,1.);
#715 = DIRECTION('',(3.068202293456E-06,-0.999999999995));
#716 = ( GEOMETRIC_REPRESENTATION_CONTEXT(2) 
PARAMETRIC_REPRESENTATION_CONTEXT() REPRESENTATION_CONTEXT('2D SPACE',''
  ) );
#717 = PCURVE('',#298,#718);
#718 = DEFINITIONAL_REPRESENTATION('',(#719),#723);
#719 = LINE('',#720,#721);
#720 = CARTESIAN_POINT('',(3.285356151356E-03,73.773806962809));
#721 = VECTOR('',#722,1.);
#722 = DIRECTION('',(-4.453282653225E-05,-0.999999999008));
#723 = ( GEOMETRIC_REPRESENTATION_CONTEXT(2) 
PARAMETRIC_REPRESENTATION_CONTEXT() REPRESENTATION_CONTEXT('2D SPACE',''
  ) );
#724 = ORIENTED_EDGE('',*,*,#364,.T.);
#725 = ORIENTED_EDGE('',*,*,#726,.T.);
#726 = EDGE_CURVE('',#342,#703,#727,.T.);
#727 = SURFACE_CURVE('',#728,(#732,#739),.PCURVE_S1.);
#728 = LINE('',#729,#730);
#729 = CARTESIAN_POINT('',(-36.88606039008,-41.8472270043,
    38.128798093634));
#730 = VECTOR('',#731,1.);
#731 = DIRECTION('',(0.661232892615,0.750180613019,3.310214560992E-04));
#732 = PCURVE('',#378,#733);
#733 = DEFINITIONAL_REPRESENTATION('',(#734),#738);
#734 = LINE('',#735,#736);
#735 = CARTESIAN_POINT('',(-83.69768744095,73.773779058641));
#736 = VECTOR('',#737,1.);
#737 = DIRECTION('',(0.750180684777,-0.661232894061));
#738 = ( GEOMETRIC_REPRESENTATION_CONTEXT(2) 
PARAMETRIC_REPRESENTATION_CONTEXT() REPRESENTATION_CONTEXT('2D SPACE',''
  ) );
#739 = PCURVE('',#665,#740);
#740 = DEFINITIONAL_REPRESENTATION('',(#741),#745);
#741 = LINE('',#742,#743);
#742 = CARTESIAN_POINT('',(-73.77378790115,-83.69767964688));
#743 = VECTOR('',#744,1.);
#744 = DIRECTION('',(0.661232973316,0.750180614919));
#745 = ( GEOMETRIC_REPRESENTATION_CONTEXT(2) 
PARAMETRIC_REPRESENTATION_CONTEXT() REPRESENTATION_CONTEXT('2D SPACE',''
  ) );
#746 = ADVANCED_FACE('',(#747),#665,.T.);
#747 = FACE_BOUND('',#748,.T.);
#748 = EDGE_LOOP('',(#749,#750,#751));
#749 = ORIENTED_EDGE('',*,*,#726,.F.);
#750 = ORIENTED_EDGE('',*,*,#649,.T.);
#751 = ORIENTED_EDGE('',*,*,#752,.T.);
#752 = EDGE_CURVE('',#650,#703,#753,.T.);
#753 = SURFACE_CURVE('',#754,(#758,#765),.PCURVE_S1.);
#754 = LINE('',#755,#756);
#755 = CARTESIAN_POINT('',(36.88590337868,-41.85015323457,
    38.159772363845));
#756 = VECTOR('',#757,1.);
#757 = DIRECTION('',(2.168596665749E-05,0.999999997232,
    7.117996495965E-05));
#758 = PCURVE('',#665,#759);
#759 = DEFINITIONAL_REPRESENTATION('',(#760),#764);
#760 = LINE('',#761,#762);
#761 = CARTESIAN_POINT('',(-1.81762987997E-03,-83.70060587716));
#762 = VECTOR('',#763,1.);
#763 = DIRECTION('',(2.171585092477E-05,0.999999999764));
#764 = ( GEOMETRIC_REPRESENTATION_CONTEXT(2) 
PARAMETRIC_REPRESENTATION_CONTEXT() REPRESENTATION_CONTEXT('2D SPACE',''
  ) );
#765 = PCURVE('',#766,#771);
#766 = PLANE('',#767);
#767 = AXIS2_PLACEMENT_3D('',#768,#769,#770);
#768 = CARTESIAN_POINT('',(36.887718507229,41.850452430611,
    38.16573017004));
#769 = DIRECTION('',(0.709003250461,-6.557190308372E-05,0.705205208813)
  );
#770 = DIRECTION('',(-0.705205210329,3.404671106105E-21,0.709003251985)
  );
#771 = DEFINITIONAL_REPRESENTATION('',(#772),#776);
#772 = LINE('',#773,#774);
#773 = CARTESIAN_POINT('',(-2.944065856886E-03,83.700605845124));
#774 = VECTOR('',#775,1.);
#775 = DIRECTION('',(3.517376995469E-05,-0.999999999381));
#776 = ( GEOMETRIC_REPRESENTATION_CONTEXT(2) 
PARAMETRIC_REPRESENTATION_CONTEXT() REPRESENTATION_CONTEXT('2D SPACE',''
  ) );
#777 = ADVANCED_FACE('',(#778),#298,.T.);
#778 = FACE_BOUND('',#779,.T.);
#779 = EDGE_LOOP('',(#780,#801,#802));
#780 = ORIENTED_EDGE('',*,*,#781,.F.);
#781 = EDGE_CURVE('',#22,#703,#782,.T.);
#782 = SURFACE_CURVE('',#783,(#787,#794),.PCURVE_S1.);
#783 = LINE('',#784,#785);
#784 = CARTESIAN_POINT('',(-44.53159105949,49.494423490316,
    30.540818696232));
#785 = VECTOR('',#786,1.);
#786 = DIRECTION('',(0.991322025448,-9.306928434661E-02,
    9.28372240725E-02));
#787 = PCURVE('',#298,#788);
#788 = DEFINITIONAL_REPRESENTATION('',(#789),#793);
#789 = LINE('',#790,#791);
#790 = CARTESIAN_POINT('',(10.796738055391,81.419309664419));
#791 = VECTOR('',#792,1.);
#792 = DIRECTION('',(-0.131455846215,-0.991322026637));
#793 = ( GEOMETRIC_REPRESENTATION_CONTEXT(2) 
PARAMETRIC_REPRESENTATION_CONTEXT() REPRESENTATION_CONTEXT('2D SPACE',''
  ) );
#794 = PCURVE('',#546,#795);
#795 = DEFINITIONAL_REPRESENTATION('',(#796),#800);
#796 = LINE('',#797,#798);
#797 = CARTESIAN_POINT('',(-10.79670908682,-81.41931350583));
#798 = VECTOR('',#799,1.);
#799 = DIRECTION('',(0.131455493507,0.991322073408));
#800 = ( GEOMETRIC_REPRESENTATION_CONTEXT(2) 
PARAMETRIC_REPRESENTATION_CONTEXT() REPRESENTATION_CONTEXT('2D SPACE',''
  ) );
#801 = ORIENTED_EDGE('',*,*,#282,.T.);
#802 = ORIENTED_EDGE('',*,*,#702,.T.);
#803 = ADVANCED_FACE('',(#804),#546,.T.);
#804 = FACE_BOUND('',#805,.T.);
#805 = EDGE_LOOP('',(#806,#827,#828));
#806 = ORIENTED_EDGE('',*,*,#807,.T.);
#807 = EDGE_CURVE('',#703,#509,#808,.T.);
#808 = SURFACE_CURVE('',#809,(#813,#820),.PCURVE_S1.);
#809 = LINE('',#810,#811);
#810 = CARTESIAN_POINT('',(36.887718507229,41.850452430611,
    38.16573017004));
#811 = VECTOR('',#812,1.);
#812 = DIRECTION('',(0.575824654153,0.577349927696,-0.578872204083));
#813 = PCURVE('',#546,#814);
#814 = DEFINITIONAL_REPRESENTATION('',(#815),#819);
#815 = LINE('',#816,#817);
#816 = CARTESIAN_POINT('',(0.,0.));
#817 = VECTOR('',#818,1.);
#818 = DIRECTION('',(-0.817573198917,0.575824682011));
#819 = ( GEOMETRIC_REPRESENTATION_CONTEXT(2) 
PARAMETRIC_REPRESENTATION_CONTEXT() REPRESENTATION_CONTEXT('2D SPACE',''
  ) );
#820 = PCURVE('',#766,#821);
#821 = DEFINITIONAL_REPRESENTATION('',(#822),#826);
#822 = LINE('',#823,#824);
#823 = CARTESIAN_POINT('',(0.,-0.));
#824 = VECTOR('',#825,1.);
#825 = DIRECTION('',(-0.816496821523,-0.577349928937));
#826 = ( GEOMETRIC_REPRESENTATION_CONTEXT(2) 
PARAMETRIC_REPRESENTATION_CONTEXT() REPRESENTATION_CONTEXT('2D SPACE',''
  ) );
#827 = ORIENTED_EDGE('',*,*,#532,.F.);
#828 = ORIENTED_EDGE('',*,*,#781,.T.);
#829 = ADVANCED_FACE('',(#830),#603,.T.);
#830 = FACE_BOUND('',#831,.T.);
#831 = EDGE_LOOP('',(#832,#853,#854));
#832 = ORIENTED_EDGE('',*,*,#833,.F.);
#833 = EDGE_CURVE('',#650,#509,#834,.T.);
#834 = SURFACE_CURVE('',#835,(#839,#846),.PCURVE_S1.);
#835 = LINE('',#836,#837);
#836 = CARTESIAN_POINT('',(36.88590337868,-41.85015323457,
    38.159772363845));
#837 = VECTOR('',#838,1.);
#838 = DIRECTION('',(8.264725668061E-02,0.993116521903,
    -8.300002943319E-02));
#839 = PCURVE('',#603,#840);
#840 = DEFINITIONAL_REPRESENTATION('',(#841),#845);
#841 = LINE('',#842,#843);
#842 = CARTESIAN_POINT('',(-10.77028761531,-91.31844984536));
#843 = VECTOR('',#844,1.);
#844 = DIRECTION('',(0.117130229931,0.993116563771));
#845 = ( GEOMETRIC_REPRESENTATION_CONTEXT(2) 
PARAMETRIC_REPRESENTATION_CONTEXT() REPRESENTATION_CONTEXT('2D SPACE',''
  ) );
#846 = PCURVE('',#766,#847);
#847 = DEFINITIONAL_REPRESENTATION('',(#848),#852);
#848 = LINE('',#849,#850);
#849 = CARTESIAN_POINT('',(-2.944065856886E-03,83.700605845124));
#850 = VECTOR('',#851,1.);
#851 = DIRECTION('',(-0.117130566814,-0.993116524038));
#852 = ( GEOMETRIC_REPRESENTATION_CONTEXT(2) 
PARAMETRIC_REPRESENTATION_CONTEXT() REPRESENTATION_CONTEXT('2D SPACE',''
  ) );
#853 = ORIENTED_EDGE('',*,*,#678,.T.);
#854 = ORIENTED_EDGE('',*,*,#589,.F.);
#855 = ADVANCED_FACE('',(#856),#766,.T.);
#856 = FACE_BOUND('',#857,.T.);
#857 = EDGE_LOOP('',(#858,#859,#860));
#858 = ORIENTED_EDGE('',*,*,#752,.F.);
#859 = ORIENTED_EDGE('',*,*,#833,.T.);
#860 = ORIENTED_EDGE('',*,*,#807,.F.);
#861 = ( GEOMETRIC_REPRESENTATION_CONTEXT(3) 
GLOBAL_UNCERTAINTY_ASSIGNED_CONTEXT((#865)) GLOBAL_UNIT_ASSIGNED_CONTEXT
((#862,#863,#864)) REPRESENTATION_CONTEXT('Context #1',
  '3D Context with UNIT and UNCERTAINTY') );
#862 = ( LENGTH_UNIT() NAMED_UNIT(*) SI_UNIT(.MILLI.,.METRE.) );
#863 = ( NAMED_UNIT(*) PLANE_ANGLE_UNIT() SI_UNIT($,.RADIAN.) );
#864 = ( NAMED_UNIT(*) SI_UNIT($,.STERADIAN.) SOLID_ANGLE_UNIT() );
#865 = UNCERTAINTY_MEASURE_WITH_UNIT(LENGTH_MEASURE(1.E-07),#862,
  'distance_accuracy_value','confusion accuracy');
#866 = PRODUCT_TYPE('part',$,(#7));
ENDSEC;
END-ISO-10303-21;
