ISO-10303-21;
HEADER;
FILE_DESCRIPTION(('Open CASCADE Model'),'2;1');
FILE_NAME('Open CASCADE Shape Model','2026-10-04T20:52:12',('Author'),(
    'Open CASCADE'),'Open CASCADE STEP processor 7.8','Open CASCADE 7.8'
  ,'Unknown');
FILE_SCHEMA(('AUTOMOTIVE_DESIGN_CC2 { 1 2 10303 214 -1 1 5 4 }'));
ENDSEC;
DATA;
#1 = APPLICATION_PROTOCOL_DEFINITION('committee draft',
  'automotive_design',1997,#2);
#2 = APPLICATION_CONTEXT(
  'core data for automotive mechanical design processes');
#3 = SHAPE_DEFINITION_REPRESENTATION(#4,#10);
#4 = PRODUCT_DEFINITION_SHAPE('','',#5);
#5 = PRODUCT_DEFINITION('design','',#6,#9);
#6 = PRODUCT_DEFINITION_FORMATION('','',#7);
#7 = PRODUCT('Open CASCADE STEP translator 7.8 133',
  'Open CASCADE STEP translator 7.8 133','',(#8));
#8 = MECHANICAL_CONTEXT('',#2,'mechanical');
#9 = PRODUCT_DEFINITION_CONTEXT('part definition',#2,'design');
#10 = ADVANCED_BREP_SHAPE_REPRESENTATION('',(#11,#15),#1697);
#11 = AXIS2_PLACEMENT_3D('',#12,#13,#14);
#12 = CARTESIAN_POINT('',(0.,0.,0.));
#13 = DIRECTION('',(0.,0.,1.));
#14 = DIRECTION('',(1.,0.,-0.));
#15 = MANIFOLD_SOLID_BREP('',#16);
#16 = CLOSED_SHELL('',(#17,#109,#167,#225,#283,#341,#399,#452,#510,#563,
    #621,#652,#710,#761,#812,#818,#876,#929,#955,#986,#1044,#1090,#1121,
    #1147,#1153,#1201,#1232,#1283,#1289,#1347,#1400,#1453,#1484,#1535,
    #1541,#1587,#1613,#1639,#1665,#1691));
#17 = ADVANCED_FACE('',(#18),#32,.T.);
#18 = FACE_BOUND('',#19,.T.);
#19 = EDGE_LOOP('',(#20,#55,#83));
#20 = ORIENTED_EDGE('',*,*,#21,.F.);
#21 = EDGE_CURVE('',#22,#24,#26,.T.);
#22 = VERTEX_POINT('',#23);
#23 = CARTESIAN_POINT('',(21.263481364956,1.652082792102,10.445982064268
    ));
#24 = VERTEX_POINT('',#25);
#25 = CARTESIAN_POINT('',(21.268492433386,1.699717291974,19.632002220728
    ));
#26 = SURFACE_CURVE('',#27,(#31,#43),.PCURVE_S1.);
#27 = LINE('',#28,#29);
#28 = CARTESIAN_POINT('',(21.263481364956,1.652082792102,10.445982064268
    ));
#29 = VECTOR('',#30,1.);
#30 = DIRECTION('',(5.45502864835E-04,5.185472222335E-03,0.99998640656)
  );
#31 = PCURVE('',#32,#37);
#32 = PLANE('',#33);
#33 = AXIS2_PLACEMENT_3D('',#34,#35,#36);
#34 = CARTESIAN_POINT('',(21.268492433386,1.699717291974,19.632002220728
    ));
#35 = DIRECTION('',(0.776230717737,-0.630442522819,2.845744793019E-03));
#36 = DIRECTION('',(0.630445075579,0.776233860816,-6.180464209564E-20));
#37 = DEFINITIONAL_REPRESENTATION('',(#38),#42);
#38 = LINE('',#39,#40);
#39 = CARTESIAN_POINT('',(-4.013471515832E-02,-9.186057352091));
#40 = VECTOR('',#41,1.);
#41 = DIRECTION('',(4.369048718149E-03,0.999990455661));
#42 = ( GEOMETRIC_REPRESENTATION_CONTEXT(2) 
PARAMETRIC_REPRESENTATION_CONTEXT() REPRESENTATION_CONTEXT('2D SPACE',''
  ) );
#43 = PCURVE('',#44,#49);
#44 = PLANE('',#45);
#45 = AXIS2_PLACEMENT_3D('',#46,#47,#48);
#46 = CARTESIAN_POINT('',(21.268492433386,1.699717291974,19.632002220728
    ));
#47 = DIRECTION('',(-1.691740116371E-03,0.999985129155,
    -5.184542736675E-03));
#48 = DIRECTION('',(-1.878507645777E-22,5.184550155732E-03,0.99998656013
    ));
#49 = DEFINITIONAL_REPRESENTATION('',(#50),#54);
#50 = LINE('',#51,#52);
#51 = CARTESIAN_POINT('',(-9.186143660992,-5.011075600255E-03));
#52 = VECTOR('',#53,1.);
#53 = DIRECTION('',(0.999999851213,5.455036454471E-04));
#54 = ( GEOMETRIC_REPRESENTATION_CONTEXT(2) 
PARAMETRIC_REPRESENTATION_CONTEXT() REPRESENTATION_CONTEXT('2D SPACE',''
  ) );
#55 = ORIENTED_EDGE('',*,*,#56,.T.);
#56 = EDGE_CURVE('',#22,#57,#59,.T.);
#57 = VERTEX_POINT('',#58);
#58 = CARTESIAN_POINT('',(30.311967351839,12.792688642716,
    10.375310287692));
#59 = SURFACE_CURVE('',#60,(#64,#71),.PCURVE_S1.);
#60 = LINE('',#61,#62);
#61 = CARTESIAN_POINT('',(21.263481364956,1.652082792102,10.445982064268
    ));
#62 = VECTOR('',#63,1.);
#63 = DIRECTION('',(0.63044830962,0.776215616275,-4.92401735988E-03));
#64 = PCURVE('',#32,#65);
#65 = DEFINITIONAL_REPRESENTATION('',(#66),#70);
#66 = LINE('',#67,#68);
#67 = CARTESIAN_POINT('',(-4.013471515832E-02,-9.186057352091));
#68 = VECTOR('',#69,1.);
#69 = DIRECTION('',(0.999987876855,-4.924037297996E-03));
#70 = ( GEOMETRIC_REPRESENTATION_CONTEXT(2) 
PARAMETRIC_REPRESENTATION_CONTEXT() REPRESENTATION_CONTEXT('2D SPACE',''
  ) );
#71 = PCURVE('',#72,#77);
#72 = PLANE('',#73);
#73 = AXIS2_PLACEMENT_3D('',#74,#75,#76);
#74 = CARTESIAN_POINT('',(30.311967351839,12.792688642716,
    10.375310287692));
#75 = DIRECTION('',(1.79620620388E-02,-8.246543887336E-03,0.999804660342
    ));
#76 = DIRECTION('',(0.999838658177,-9.509295706203E-21,
    -1.796267282934E-02));
#77 = DEFINITIONAL_REPRESENTATION('',(#78),#82);
#78 = LINE('',#79,#80);
#79 = CARTESIAN_POINT('',(-9.048295541658,-11.14098468109));
#80 = VECTOR('',#81,1.);
#81 = DIRECTION('',(0.630435040454,0.776242011082));
#82 = ( GEOMETRIC_REPRESENTATION_CONTEXT(2) 
PARAMETRIC_REPRESENTATION_CONTEXT() REPRESENTATION_CONTEXT('2D SPACE',''
  ) );
#83 = ORIENTED_EDGE('',*,*,#84,.F.);
#84 = EDGE_CURVE('',#24,#57,#85,.T.);
#85 = SURFACE_CURVE('',#86,(#90,#97),.PCURVE_S1.);
#86 = LINE('',#87,#88);
#87 = CARTESIAN_POINT('',(21.268492433386,1.699717291974,19.632002220728
    ));
#88 = VECTOR('',#89,1.);
#89 = DIRECTION('',(0.530571276404,0.650813102457,-0.543080497096));
#90 = PCURVE('',#32,#91);
#91 = DEFINITIONAL_REPRESENTATION('',(#92),#96);
#92 = LINE('',#93,#94);
#93 = CARTESIAN_POINT('',(0.,0.));
#94 = VECTOR('',#95,1.);
#95 = DIRECTION('',(0.839679215643,-0.543082696113));
#96 = ( GEOMETRIC_REPRESENTATION_CONTEXT(2) 
PARAMETRIC_REPRESENTATION_CONTEXT() REPRESENTATION_CONTEXT('2D SPACE',''
  ) );
#97 = PCURVE('',#98,#103);
#98 = PLANE('',#99);
#99 = AXIS2_PLACEMENT_3D('',#100,#101,#102);
#100 = CARTESIAN_POINT('',(21.268492433386,1.699717291974,
    19.632002220728));
#101 = DIRECTION('',(0.833292167579,-0.283088366309,0.474852756454));
#102 = DIRECTION('',(-0.495105631018,-2.009110521055E-17,0.868832788363)
  );
#103 = DEFINITIONAL_REPRESENTATION('',(#104),#108);
#104 = LINE('',#105,#106);
#105 = CARTESIAN_POINT('',(0.,-0.));
#106 = VECTOR('',#107,1.);
#107 = DIRECTION('',(-0.734534969201,-0.678570835669));
#108 = ( GEOMETRIC_REPRESENTATION_CONTEXT(2) 
PARAMETRIC_REPRESENTATION_CONTEXT() REPRESENTATION_CONTEXT('2D SPACE',''
  ) );
#109 = ADVANCED_FACE('',(#110),#98,.T.);
#110 = FACE_BOUND('',#111,.T.);
#111 = EDGE_LOOP('',(#112,#113,#141));
#112 = ORIENTED_EDGE('',*,*,#84,.T.);
#113 = ORIENTED_EDGE('',*,*,#114,.F.);
#114 = EDGE_CURVE('',#115,#57,#117,.T.);
#115 = VERTEX_POINT('',#116);
#116 = CARTESIAN_POINT('',(23.585103888983,8.560655754937,
    19.656931379068));
#117 = SURFACE_CURVE('',#118,(#122,#129),.PCURVE_S1.);
#118 = LINE('',#119,#120);
#119 = CARTESIAN_POINT('',(23.585103888983,8.560655754937,
    19.656931379068));
#120 = VECTOR('',#121,1.);
#121 = DIRECTION('',(0.550515061912,0.346342371908,-0.75959208002));
#122 = PCURVE('',#98,#123);
#123 = DEFINITIONAL_REPRESENTATION('',(#124),#128);
#124 = LINE('',#125,#126);
#125 = CARTESIAN_POINT('',(-1.125308106395,-7.15356333287));
#126 = VECTOR('',#127,1.);
#127 = DIRECTION('',(-0.932521612015,-0.3611141691));
#128 = ( GEOMETRIC_REPRESENTATION_CONTEXT(2) 
PARAMETRIC_REPRESENTATION_CONTEXT() REPRESENTATION_CONTEXT('2D SPACE',''
  ) );
#129 = PCURVE('',#130,#135);
#130 = PLANE('',#131);
#131 = AXIS2_PLACEMENT_3D('',#132,#133,#134);
#132 = CARTESIAN_POINT('',(23.585103888983,8.560655754937,
    19.656931379068));
#133 = DIRECTION('',(-0.48834088607,-0.604369188648,-0.629492702742));
#134 = DIRECTION('',(-3.175576486219E-17,-0.721355149831,0.692565338298)
  );
#135 = DEFINITIONAL_REPRESENTATION('',(#136),#140);
#136 = LINE('',#137,#138);
#137 = CARTESIAN_POINT('',(0.,0.));
#138 = VECTOR('',#139,1.);
#139 = DIRECTION('',(-0.775902999448,-0.630852229486));
#140 = ( GEOMETRIC_REPRESENTATION_CONTEXT(2) 
PARAMETRIC_REPRESENTATION_CONTEXT() REPRESENTATION_CONTEXT('2D SPACE',''
  ) );
#141 = ORIENTED_EDGE('',*,*,#142,.F.);
#142 = EDGE_CURVE('',#24,#115,#143,.T.);
#143 = SURFACE_CURVE('',#144,(#148,#155),.PCURVE_S1.);
#144 = LINE('',#145,#146);
#145 = CARTESIAN_POINT('',(21.268492433386,1.699717291974,
    19.632002220728));
#146 = VECTOR('',#147,1.);
#147 = DIRECTION('',(0.319906262079,0.947442944193,3.442525436131E-03));
#148 = PCURVE('',#98,#149);
#149 = DEFINITIONAL_REPRESENTATION('',(#150),#154);
#150 = LINE('',#151,#152);
#151 = CARTESIAN_POINT('',(0.,-0.));
#152 = VECTOR('',#153,1.);
#153 = DIRECTION('',(-0.15539641278,-0.987852192838));
#154 = ( GEOMETRIC_REPRESENTATION_CONTEXT(2) 
PARAMETRIC_REPRESENTATION_CONTEXT() REPRESENTATION_CONTEXT('2D SPACE',''
  ) );
#155 = PCURVE('',#156,#161);
#156 = PLANE('',#157);
#157 = AXIS2_PLACEMENT_3D('',#158,#159,#160);
#158 = CARTESIAN_POINT('',(23.585103888983,8.560655754937,
    19.656931379068));
#159 = DIRECTION('',(-5.988419234724E-04,-3.431268649945E-03,
    0.999993933874));
#160 = DIRECTION('',(-2.168990140196E-22,0.999994113178,
    3.431269265192E-03));
#161 = DEFINITIONAL_REPRESENTATION('',(#162),#166);
#162 = LINE('',#163,#164);
#163 = CARTESIAN_POINT('',(-6.860983612496,2.316611870979));
#164 = VECTOR('',#165,1.);
#165 = DIRECTION('',(0.947449178997,-0.31990631944));
#166 = ( GEOMETRIC_REPRESENTATION_CONTEXT(2) 
PARAMETRIC_REPRESENTATION_CONTEXT() REPRESENTATION_CONTEXT('2D SPACE',''
  ) );
#167 = ADVANCED_FACE('',(#168),#156,.T.);
#168 = FACE_BOUND('',#169,.T.);
#169 = EDGE_LOOP('',(#170,#198,#224));
#170 = ORIENTED_EDGE('',*,*,#171,.F.);
#171 = EDGE_CURVE('',#172,#115,#174,.T.);
#172 = VERTEX_POINT('',#173);
#173 = CARTESIAN_POINT('',(-57.75189081808,32.901822197748,
    19.691744669209));
#174 = SURFACE_CURVE('',#175,(#179,#186),.PCURVE_S1.);
#175 = LINE('',#176,#177);
#176 = CARTESIAN_POINT('',(-57.75189081808,32.901822197748,
    19.691744669209));
#177 = VECTOR('',#178,1.);
#178 = DIRECTION('',(0.958020271033,-0.286700178151,-4.100451187788E-04)
  );
#179 = PCURVE('',#156,#180);
#180 = DEFINITIONAL_REPRESENTATION('',(#181),#185);
#181 = LINE('',#182,#183);
#182 = CARTESIAN_POINT('',(24.341142604477,81.337009291272));
#183 = VECTOR('',#184,1.);
#184 = DIRECTION('',(-0.286699897374,-0.958020442812));
#185 = ( GEOMETRIC_REPRESENTATION_CONTEXT(2) 
PARAMETRIC_REPRESENTATION_CONTEXT() REPRESENTATION_CONTEXT('2D SPACE',''
  ) );
#186 = PCURVE('',#187,#192);
#187 = PLANE('',#188);
#188 = AXIS2_PLACEMENT_3D('',#189,#190,#191);
#189 = CARTESIAN_POINT('',(57.676651419205,32.898570930234,
    19.647556367253));
#190 = DIRECTION('',(3.82815257979E-04,-1.510299265636E-04,
    0.999999915321));
#191 = DIRECTION('',(0.999999926726,-5.27323646222E-24,
    -3.82815262345E-04));
#192 = DEFINITIONAL_REPRESENTATION('',(#193),#197);
#193 = LINE('',#194,#195);
#194 = CARTESIAN_POINT('',(-115.4285506953,3.251267551076E-03));
#195 = VECTOR('',#196,1.);
#196 = DIRECTION('',(0.958020357807,-0.286700181421));
#197 = ( GEOMETRIC_REPRESENTATION_CONTEXT(2) 
PARAMETRIC_REPRESENTATION_CONTEXT() REPRESENTATION_CONTEXT('2D SPACE',''
  ) );
#198 = ORIENTED_EDGE('',*,*,#199,.T.);
#199 = EDGE_CURVE('',#172,#24,#200,.T.);
#200 = SURFACE_CURVE('',#201,(#205,#212),.PCURVE_S1.);
#201 = LINE('',#202,#203);
#202 = CARTESIAN_POINT('',(-57.75189081808,32.901822197748,
    19.691744669209));
#203 = VECTOR('',#204,1.);
#204 = DIRECTION('',(0.930115396439,-0.36726673524,-7.032030074593E-04)
  );
#205 = PCURVE('',#156,#206);
#206 = DEFINITIONAL_REPRESENTATION('',(#207),#211);
#207 = LINE('',#208,#209);
#208 = CARTESIAN_POINT('',(24.341142604477,81.337009291272));
#209 = VECTOR('',#210,1.);
#210 = DIRECTION('',(-0.367266986085,-0.930115563214));
#211 = ( GEOMETRIC_REPRESENTATION_CONTEXT(2) 
PARAMETRIC_REPRESENTATION_CONTEXT() REPRESENTATION_CONTEXT('2D SPACE',''
  ) );
#212 = PCURVE('',#213,#218);
#213 = PLANE('',#214);
#214 = AXIS2_PLACEMENT_3D('',#215,#216,#217);
#215 = CARTESIAN_POINT('',(21.268492433386,1.699717291974,
    19.632002220728));
#216 = DIRECTION('',(7.566195758459E-04,1.472255756058E-06,
    0.999999713762));
#217 = DIRECTION('',(0.999999713763,-1.001964025906E-25,
    -7.566195758467E-04));
#218 = DEFINITIONAL_REPRESENTATION('',(#219),#223);
#219 = LINE('',#220,#221);
#220 = CARTESIAN_POINT('',(-79.02040583525,31.202104905808));
#221 = VECTOR('',#222,1.);
#222 = DIRECTION('',(0.930115662263,-0.36726673524));
#223 = ( GEOMETRIC_REPRESENTATION_CONTEXT(2) 
PARAMETRIC_REPRESENTATION_CONTEXT() REPRESENTATION_CONTEXT('2D SPACE',''
  ) );
#224 = ORIENTED_EDGE('',*,*,#142,.T.);
#225 = ADVANCED_FACE('',(#226),#213,.T.);
#226 = FACE_BOUND('',#227,.T.);
#227 = EDGE_LOOP('',(#228,#229,#257));
#228 = ORIENTED_EDGE('',*,*,#199,.F.);
#229 = ORIENTED_EDGE('',*,*,#230,.F.);
#230 = EDGE_CURVE('',#231,#172,#233,.T.);
#231 = VERTEX_POINT('',#232);
#232 = CARTESIAN_POINT('',(-57.75295461546,-32.87024014093,
    19.691842307424));
#233 = SURFACE_CURVE('',#234,(#238,#245),.PCURVE_S1.);
#234 = LINE('',#235,#236);
#235 = CARTESIAN_POINT('',(-57.75295461546,-32.87024014093,
    19.691842307424));
#236 = VECTOR('',#237,1.);
#237 = DIRECTION('',(1.617400054416E-05,0.999999999868,
    -1.484493746214E-06));
#238 = PCURVE('',#213,#239);
#239 = DEFINITIONAL_REPRESENTATION('',(#240),#244);
#240 = LINE('',#241,#242);
#241 = CARTESIAN_POINT('',(-79.02146970619,-34.56995743294));
#242 = VECTOR('',#243,1.);
#243 = DIRECTION('',(1.61751191116E-05,0.999999999869));
#244 = ( GEOMETRIC_REPRESENTATION_CONTEXT(2) 
PARAMETRIC_REPRESENTATION_CONTEXT() REPRESENTATION_CONTEXT('2D SPACE',''
  ) );
#245 = PCURVE('',#246,#251);
#246 = PLANE('',#247);
#247 = AXIS2_PLACEMENT_3D('',#248,#249,#250);
#248 = CARTESIAN_POINT('',(-57.75295461546,-32.87024014093,
    19.691842307424));
#249 = DIRECTION('',(-0.999999235928,1.617215324212E-05,
    -1.236075313757E-03));
#250 = DIRECTION('',(1.236075313919E-03,1.470878612192E-24,
    -0.999999236059));
#251 = DEFINITIONAL_REPRESENTATION('',(#252),#256);
#252 = LINE('',#253,#254);
#253 = CARTESIAN_POINT('',(0.,-0.));
#254 = VECTOR('',#255,1.);
#255 = DIRECTION('',(1.504484894948E-06,-0.999999999999));
#256 = ( GEOMETRIC_REPRESENTATION_CONTEXT(2) 
PARAMETRIC_REPRESENTATION_CONTEXT() REPRESENTATION_CONTEXT('2D SPACE',''
  ) );
#257 = ORIENTED_EDGE('',*,*,#258,.T.);
#258 = EDGE_CURVE('',#231,#24,#259,.T.);
#259 = SURFACE_CURVE('',#260,(#264,#271),.PCURVE_S1.);
#260 = LINE('',#261,#262);
#261 = CARTESIAN_POINT('',(-57.75295461546,-32.87024014093,
    19.691842307424));
#262 = VECTOR('',#263,1.);
#263 = DIRECTION('',(0.916165312539,0.400799998466,-6.937788888687E-04)
  );
#264 = PCURVE('',#213,#265);
#265 = DEFINITIONAL_REPRESENTATION('',(#266),#270);
#266 = LINE('',#267,#268);
#267 = CARTESIAN_POINT('',(-79.02146970619,-34.56995743294));
#268 = VECTOR('',#269,1.);
#269 = DIRECTION('',(0.916165575226,0.400799998467));
#270 = ( GEOMETRIC_REPRESENTATION_CONTEXT(2) 
PARAMETRIC_REPRESENTATION_CONTEXT() REPRESENTATION_CONTEXT('2D SPACE',''
  ) );
#271 = PCURVE('',#272,#277);
#272 = PLANE('',#273);
#273 = AXIS2_PLACEMENT_3D('',#274,#275,#276);
#274 = CARTESIAN_POINT('',(57.686103821262,-32.90552608892,
    19.685365211544));
#275 = DIRECTION('',(5.659784438514E-05,1.601609327841E-03,
    0.999998715821));
#276 = DIRECTION('',(4.297632678184E-24,0.999998717423,
    -1.601609330406E-03));
#277 = DEFINITIONAL_REPRESENTATION('',(#278),#282);
#278 = LINE('',#279,#280);
#279 = CARTESIAN_POINT('',(3.527552895836E-02,115.43905862161));
#280 = VECTOR('',#281,1.);
#281 = DIRECTION('',(0.400800595572,-0.916165314007));
#282 = ( GEOMETRIC_REPRESENTATION_CONTEXT(2) 
PARAMETRIC_REPRESENTATION_CONTEXT() REPRESENTATION_CONTEXT('2D SPACE',''
  ) );
#283 = ADVANCED_FACE('',(#284),#246,.T.);
#284 = FACE_BOUND('',#285,.T.);
#285 = EDGE_LOOP('',(#286,#287,#315));
#286 = ORIENTED_EDGE('',*,*,#230,.T.);
#287 = ORIENTED_EDGE('',*,*,#288,.T.);
#288 = EDGE_CURVE('',#172,#289,#291,.T.);
#289 = VERTEX_POINT('',#290);
#290 = CARTESIAN_POINT('',(-57.72861101672,-32.88869519651,
    -2.652289992496E-03));
#291 = SURFACE_CURVE('',#292,(#296,#303),.PCURVE_S1.);
#292 = LINE('',#293,#294);
#293 = CARTESIAN_POINT('',(-57.75189081808,32.901822197748,
    19.691744669209));
#294 = VECTOR('',#295,1.);
#295 = DIRECTION('',(3.389848655778E-04,-0.957997422374,-0.2867766096));
#296 = PCURVE('',#246,#297);
#297 = DEFINITIONAL_REPRESENTATION('',(#298),#302);
#298 = LINE('',#299,#300);
#299 = CARTESIAN_POINT('',(9.895307431114E-05,-65.77206234728));
#300 = VECTOR('',#301,1.);
#301 = DIRECTION('',(0.28677680953,0.9579974225));
#302 = ( GEOMETRIC_REPRESENTATION_CONTEXT(2) 
PARAMETRIC_REPRESENTATION_CONTEXT() REPRESENTATION_CONTEXT('2D SPACE',''
  ) );
#303 = PCURVE('',#304,#309);
#304 = PLANE('',#305);
#305 = AXIS2_PLACEMENT_3D('',#306,#307,#308);
#306 = CARTESIAN_POINT('',(-57.72861101672,-32.88869519651,
    -2.652289992496E-03));
#307 = DIRECTION('',(-0.999998892765,9.078886322995E-05,
    -1.485337272768E-03));
#308 = DIRECTION('',(1.48533727889E-03,-2.2713280701E-23,-0.999998896886
    ));
#309 = DEFINITIONAL_REPRESENTATION('',(#310),#314);
#310 = LINE('',#311,#312);
#311 = CARTESIAN_POINT('',(-19.69440981239,-65.7905176654));
#312 = VECTOR('',#313,1.);
#313 = DIRECTION('',(0.286776796759,0.957997426323));
#314 = ( GEOMETRIC_REPRESENTATION_CONTEXT(2) 
PARAMETRIC_REPRESENTATION_CONTEXT() REPRESENTATION_CONTEXT('2D SPACE',''
  ) );
#315 = ORIENTED_EDGE('',*,*,#316,.F.);
#316 = EDGE_CURVE('',#231,#289,#317,.T.);
#317 = SURFACE_CURVE('',#318,(#322,#329),.PCURVE_S1.);
#318 = LINE('',#319,#320);
#319 = CARTESIAN_POINT('',(-57.75295461546,-32.87024014093,
    19.691842307424));
#320 = VECTOR('',#321,1.);
#321 = DIRECTION('',(1.236059616868E-03,-9.370655990052E-04,
    -0.999998797032));
#322 = PCURVE('',#246,#323);
#323 = DEFINITIONAL_REPRESENTATION('',(#324),#328);
#324 = LINE('',#325,#326);
#325 = CARTESIAN_POINT('',(0.,-0.));
#326 = VECTOR('',#327,1.);
#327 = DIRECTION('',(0.999999560954,9.370655991278E-04));
#328 = ( GEOMETRIC_REPRESENTATION_CONTEXT(2) 
PARAMETRIC_REPRESENTATION_CONTEXT() REPRESENTATION_CONTEXT('2D SPACE',''
  ) );
#329 = PCURVE('',#330,#335);
#330 = PLANE('',#331);
#331 = AXIS2_PLACEMENT_3D('',#332,#333,#334);
#332 = CARTESIAN_POINT('',(57.686103821262,-32.90552608892,
    19.685365211544));
#333 = DIRECTION('',(-3.056146188422E-04,-0.999999514607,
    9.366885130782E-04));
#334 = DIRECTION('',(-1.335299923119E-23,-9.366885568217E-04,
    -0.999999561307));
#335 = DEFINITIONAL_REPRESENTATION('',(#336),#340);
#336 = LINE('',#337,#338);
#337 = CARTESIAN_POINT('',(-6.510144981916E-03,-115.4390638277));
#338 = VECTOR('',#339,1.);
#339 = DIRECTION('',(0.999999236078,1.236059674592E-03));
#340 = ( GEOMETRIC_REPRESENTATION_CONTEXT(2) 
PARAMETRIC_REPRESENTATION_CONTEXT() REPRESENTATION_CONTEXT('2D SPACE',''
  ) );
#341 = ADVANCED_FACE('',(#342),#304,.T.);
#342 = FACE_BOUND('',#343,.T.);
#343 = EDGE_LOOP('',(#344,#345,#373));
#344 = ORIENTED_EDGE('',*,*,#288,.F.);
#345 = ORIENTED_EDGE('',*,*,#346,.T.);
#346 = EDGE_CURVE('',#172,#347,#349,.T.);
#347 = VERTEX_POINT('',#348);
#348 = CARTESIAN_POINT('',(-57.722661118,32.872978294237,
    1.117314954322E-02));
#349 = SURFACE_CURVE('',#350,(#354,#361),.PCURVE_S1.);
#350 = LINE('',#351,#352);
#351 = CARTESIAN_POINT('',(-57.75189081808,32.901822197748,
    19.691744669209));
#352 = VECTOR('',#353,1.);
#353 = DIRECTION('',(1.48520262366E-03,-1.46559975111E-03,
    -0.999997823093));
#354 = PCURVE('',#304,#355);
#355 = DEFINITIONAL_REPRESENTATION('',(#356),#360);
#356 = LINE('',#357,#358);
#357 = CARTESIAN_POINT('',(-19.69440981239,-65.7905176654));
#358 = VECTOR('',#359,1.);
#359 = DIRECTION('',(0.999998926008,1.465599757151E-03));
#360 = ( GEOMETRIC_REPRESENTATION_CONTEXT(2) 
PARAMETRIC_REPRESENTATION_CONTEXT() REPRESENTATION_CONTEXT('2D SPACE',''
  ) );
#361 = PCURVE('',#362,#367);
#362 = PLANE('',#363);
#363 = AXIS2_PLACEMENT_3D('',#364,#365,#366);
#364 = CARTESIAN_POINT('',(57.676651419205,32.898570930234,
    19.647556367253));
#365 = DIRECTION('',(2.760585324331E-05,0.999998925685,
    -1.465560366697E-03));
#366 = DIRECTION('',(-4.209815893792E-24,1.465560367256E-03,
    0.999998926066));
#367 = DEFINITIONAL_REPRESENTATION('',(#368),#372);
#368 = LINE('',#369,#370);
#369 = CARTESIAN_POINT('',(4.41930194287E-02,-115.4285422812));
#370 = VECTOR('',#371,1.);
#371 = DIRECTION('',(-0.999998897086,1.485202624226E-03));
#372 = ( GEOMETRIC_REPRESENTATION_CONTEXT(2) 
PARAMETRIC_REPRESENTATION_CONTEXT() REPRESENTATION_CONTEXT('2D SPACE',''
  ) );
#373 = ORIENTED_EDGE('',*,*,#374,.F.);
#374 = EDGE_CURVE('',#289,#347,#375,.T.);
#375 = SURFACE_CURVE('',#376,(#380,#387),.PCURVE_S1.);
#376 = LINE('',#377,#378);
#377 = CARTESIAN_POINT('',(-57.72861101672,-32.88869519651,
    -2.652289992496E-03));
#378 = VECTOR('',#379,1.);
#379 = DIRECTION('',(9.047669038717E-05,0.999999973807,
    2.102355131752E-04));
#380 = PCURVE('',#304,#381);
#381 = DEFINITIONAL_REPRESENTATION('',(#382),#386);
#382 = LINE('',#383,#384);
#383 = CARTESIAN_POINT('',(0.,-0.));
#384 = VECTOR('',#385,1.);
#385 = DIRECTION('',(-2.101008928604E-04,-0.999999977929));
#386 = ( GEOMETRIC_REPRESENTATION_CONTEXT(2) 
PARAMETRIC_REPRESENTATION_CONTEXT() REPRESENTATION_CONTEXT('2D SPACE',''
  ) );
#387 = PCURVE('',#388,#393);
#388 = PLANE('',#389);
#389 = AXIS2_PLACEMENT_3D('',#390,#391,#392);
#390 = CARTESIAN_POINT('',(27.900949337461,9.128061471291,
    -9.99064348914E-03));
#391 = DIRECTION('',(-1.888656837099E-04,2.102525982278E-04,
    -0.999999960062));
#392 = DIRECTION('',(2.629963703854E-24,-0.999999977897,
    -2.102526019777E-04));
#393 = DEFINITIONAL_REPRESENTATION('',(#394),#398);
#394 = LINE('',#395,#396);
#395 = CARTESIAN_POINT('',(42.016754196195,85.629561881404));
#396 = VECTOR('',#397,1.);
#397 = DIRECTION('',(-0.999999995907,-9.047669200083E-05));
#398 = ( GEOMETRIC_REPRESENTATION_CONTEXT(2) 
PARAMETRIC_REPRESENTATION_CONTEXT() REPRESENTATION_CONTEXT('2D SPACE',''
  ) );
#399 = ADVANCED_FACE('',(#400),#362,.T.);
#400 = FACE_BOUND('',#401,.T.);
#401 = EDGE_LOOP('',(#402,#430,#431));
#402 = ORIENTED_EDGE('',*,*,#403,.F.);
#403 = EDGE_CURVE('',#347,#404,#406,.T.);
#404 = VERTEX_POINT('',#405);
#405 = CARTESIAN_POINT('',(57.676651419205,32.898570930234,
    19.647556367253));
#406 = SURFACE_CURVE('',#407,(#411,#418),.PCURVE_S1.);
#407 = LINE('',#408,#409);
#408 = CARTESIAN_POINT('',(-57.722661118,32.872978294237,
    1.117314954322E-02));
#409 = VECTOR('',#410,1.);
#410 = DIRECTION('',(0.985829698658,2.18631983835E-04,0.167749090741));
#411 = PCURVE('',#362,#412);
#412 = DEFINITIONAL_REPRESENTATION('',(#413),#417);
#413 = LINE('',#414,#415);
#414 = CARTESIAN_POINT('',(-19.63639963708,-115.3993125811));
#415 = VECTOR('',#416,1.);
#416 = DIRECTION('',(0.167749231008,0.985829699033));
#417 = ( GEOMETRIC_REPRESENTATION_CONTEXT(2) 
PARAMETRIC_REPRESENTATION_CONTEXT() REPRESENTATION_CONTEXT('2D SPACE',''
  ) );
#418 = PCURVE('',#419,#424);
#419 = PLANE('',#420);
#420 = AXIS2_PLACEMENT_3D('',#421,#422,#423);
#421 = CARTESIAN_POINT('',(57.676651419205,32.898570930234,
    19.647556367253));
#422 = DIRECTION('',(-3.52931855353E-04,0.999999640663,
    7.707868863299E-04));
#423 = DIRECTION('',(-1.871408374398E-24,-7.707869343348E-04,
    0.999999702944));
#424 = DEFINITIONAL_REPRESENTATION('',(#425),#429);
#425 = LINE('',#426,#427);
#426 = CARTESIAN_POINT('',(-19.63635765813,-115.3993197243));
#427 = VECTOR('',#428,1.);
#428 = DIRECTION('',(0.167748872391,0.985829760056));
#429 = ( GEOMETRIC_REPRESENTATION_CONTEXT(2) 
PARAMETRIC_REPRESENTATION_CONTEXT() REPRESENTATION_CONTEXT('2D SPACE',''
  ) );
#430 = ORIENTED_EDGE('',*,*,#346,.F.);
#431 = ORIENTED_EDGE('',*,*,#432,.T.);
#432 = EDGE_CURVE('',#172,#404,#433,.T.);
#433 = SURFACE_CURVE('',#434,(#438,#445),.PCURVE_S1.);
#434 = LINE('',#435,#436);
#435 = CARTESIAN_POINT('',(-57.75189081808,32.901822197748,
    19.691744669209));
#436 = VECTOR('',#437,1.);
#437 = DIRECTION('',(0.999999926328,-2.816692658029E-05,
    -3.828195162417E-04));
#438 = PCURVE('',#362,#439);
#439 = DEFINITIONAL_REPRESENTATION('',(#440),#444);
#440 = LINE('',#441,#442);
#441 = CARTESIAN_POINT('',(4.41930194287E-02,-115.4285422812));
#442 = VECTOR('',#443,1.);
#443 = DIRECTION('',(-3.8286038545E-04,0.999999926709));
#444 = ( GEOMETRIC_REPRESENTATION_CONTEXT(2) 
PARAMETRIC_REPRESENTATION_CONTEXT() REPRESENTATION_CONTEXT('2D SPACE',''
  ) );
#445 = PCURVE('',#187,#446);
#446 = DEFINITIONAL_REPRESENTATION('',(#447),#451);
#447 = LINE('',#448,#449);
#448 = CARTESIAN_POINT('',(-115.4285506953,3.251267551076E-03));
#449 = VECTOR('',#450,1.);
#450 = DIRECTION('',(0.999999999603,-2.816692690154E-05));
#451 = ( GEOMETRIC_REPRESENTATION_CONTEXT(2) 
PARAMETRIC_REPRESENTATION_CONTEXT() REPRESENTATION_CONTEXT('2D SPACE',''
  ) );
#452 = ADVANCED_FACE('',(#453),#419,.T.);
#453 = FACE_BOUND('',#454,.T.);
#454 = EDGE_LOOP('',(#455,#483,#509));
#455 = ORIENTED_EDGE('',*,*,#456,.T.);
#456 = EDGE_CURVE('',#404,#457,#459,.T.);
#457 = VERTEX_POINT('',#458);
#458 = CARTESIAN_POINT('',(57.734449228734,32.913757559886,
    -2.873259863274E-02));
#459 = SURFACE_CURVE('',#460,(#464,#471),.PCURVE_S1.);
#460 = LINE('',#461,#462);
#461 = CARTESIAN_POINT('',(57.676651419205,32.898570930234,
    19.647556367253));
#462 = VECTOR('',#463,1.);
#463 = DIRECTION('',(2.937420926303E-03,7.718203181562E-04,
    -0.999995387915));
#464 = PCURVE('',#419,#465);
#465 = DEFINITIONAL_REPRESENTATION('',(#466),#470);
#466 = LINE('',#467,#468);
#467 = CARTESIAN_POINT('',(0.,0.));
#468 = VECTOR('',#469,1.);
#469 = DIRECTION('',(-0.999995685769,2.937421109247E-03));
#470 = ( GEOMETRIC_REPRESENTATION_CONTEXT(2) 
PARAMETRIC_REPRESENTATION_CONTEXT() REPRESENTATION_CONTEXT('2D SPACE',''
  ) );
#471 = PCURVE('',#472,#477);
#472 = PLANE('',#473);
#473 = AXIS2_PLACEMENT_3D('',#474,#475,#476);
#474 = CARTESIAN_POINT('',(57.704207751245,-32.91456535216,
    2.535011267993E-02));
#475 = DIRECTION('',(0.999995582386,-4.569841357041E-04,
    2.937068786282E-03));
#476 = DIRECTION('',(-2.937069092963E-03,-1.321769054622E-22,
    0.999995686803));
#477 = DEFINITIONAL_REPRESENTATION('',(#478),#482);
#478 = LINE('',#479,#480);
#479 = CARTESIAN_POINT('',(19.622202554989,-65.81314315442));
#480 = VECTOR('',#481,1.);
#481 = DIRECTION('',(-0.999999702147,-7.718203987476E-04));
#482 = ( GEOMETRIC_REPRESENTATION_CONTEXT(2) 
PARAMETRIC_REPRESENTATION_CONTEXT() REPRESENTATION_CONTEXT('2D SPACE',''
  ) );
#483 = ORIENTED_EDGE('',*,*,#484,.F.);
#484 = EDGE_CURVE('',#347,#457,#485,.T.);
#485 = SURFACE_CURVE('',#486,(#490,#497),.PCURVE_S1.);
#486 = LINE('',#487,#488);
#487 = CARTESIAN_POINT('',(-57.722661118,32.872978294237,
    1.117314954322E-02));
#488 = VECTOR('',#489,1.);
#489 = DIRECTION('',(0.999999877895,3.531983482646E-04,
    -3.456326178908E-04));
#490 = PCURVE('',#419,#491);
#491 = DEFINITIONAL_REPRESENTATION('',(#492),#496);
#492 = LINE('',#493,#494);
#493 = CARTESIAN_POINT('',(-19.63635765813,-115.3993197243));
#494 = VECTOR('',#495,1.);
#495 = DIRECTION('',(-3.459047558905E-04,0.999999940175));
#496 = ( GEOMETRIC_REPRESENTATION_CONTEXT(2) 
PARAMETRIC_REPRESENTATION_CONTEXT() REPRESENTATION_CONTEXT('2D SPACE',''
  ) );
#497 = PCURVE('',#498,#503);
#498 = PLANE('',#499);
#499 = AXIS2_PLACEMENT_3D('',#500,#501,#502);
#500 = CARTESIAN_POINT('',(57.734449228734,32.913757559886,
    -2.873259863274E-02));
#501 = DIRECTION('',(-3.455073758016E-04,-3.545937254405E-04,
    -0.999999877444));
#502 = DIRECTION('',(-1.568976576048E-24,-0.999999937132,
    3.545937466053E-04));
#503 = DEFINITIONAL_REPRESENTATION('',(#504),#508);
#504 = LINE('',#505,#506);
#505 = CARTESIAN_POINT('',(4.079341341427E-02,115.4571172381));
#506 = VECTOR('',#507,1.);
#507 = DIRECTION('',(-3.533208852245E-04,-0.999999937582));
#508 = ( GEOMETRIC_REPRESENTATION_CONTEXT(2) 
PARAMETRIC_REPRESENTATION_CONTEXT() REPRESENTATION_CONTEXT('2D SPACE',''
  ) );
#509 = ORIENTED_EDGE('',*,*,#403,.T.);
#510 = ADVANCED_FACE('',(#511),#330,.T.);
#511 = FACE_BOUND('',#512,.T.);
#512 = EDGE_LOOP('',(#513,#536,#537));
#513 = ORIENTED_EDGE('',*,*,#514,.F.);
#514 = EDGE_CURVE('',#231,#515,#517,.T.);
#515 = VERTEX_POINT('',#516);
#516 = CARTESIAN_POINT('',(57.686103821262,-32.90552608892,
    19.685365211544));
#517 = SURFACE_CURVE('',#518,(#522,#529),.PCURVE_S1.);
#518 = LINE('',#519,#520);
#519 = CARTESIAN_POINT('',(-57.75295461546,-32.87024014093,
    19.691842307424));
#520 = VECTOR('',#521,1.);
#521 = DIRECTION('',(0.99999995171,-3.056673085035E-04,
    -5.610835409265E-05));
#522 = PCURVE('',#330,#523);
#523 = DEFINITIONAL_REPRESENTATION('',(#524),#528);
#524 = LINE('',#525,#526);
#525 = CARTESIAN_POINT('',(-6.510144981916E-03,-115.4390638277));
#526 = VECTOR('',#527,1.);
#527 = DIRECTION('',(5.639464454839E-05,0.99999999841));
#528 = ( GEOMETRIC_REPRESENTATION_CONTEXT(2) 
PARAMETRIC_REPRESENTATION_CONTEXT() REPRESENTATION_CONTEXT('2D SPACE',''
  ) );
#529 = PCURVE('',#272,#530);
#530 = DEFINITIONAL_REPRESENTATION('',(#531),#535);
#531 = LINE('',#532,#533);
#532 = CARTESIAN_POINT('',(3.527552895836E-02,115.43905862161));
#533 = VECTOR('',#534,1.);
#534 = DIRECTION('',(-3.055770527982E-04,-0.999999953311));
#535 = ( GEOMETRIC_REPRESENTATION_CONTEXT(2) 
PARAMETRIC_REPRESENTATION_CONTEXT() REPRESENTATION_CONTEXT('2D SPACE',''
  ) );
#536 = ORIENTED_EDGE('',*,*,#316,.T.);
#537 = ORIENTED_EDGE('',*,*,#538,.T.);
#538 = EDGE_CURVE('',#289,#515,#539,.T.);
#539 = SURFACE_CURVE('',#540,(#544,#551),.PCURVE_S1.);
#540 = LINE('',#541,#542);
#541 = CARTESIAN_POINT('',(-57.72861101672,-32.88869519651,
    -2.652289992496E-03));
#542 = VECTOR('',#543,1.);
#543 = DIRECTION('',(0.9857603992,-1.437531362342E-04,0.168155923783));
#544 = PCURVE('',#330,#545);
#545 = DEFINITIONAL_REPRESENTATION('',(#546),#550);
#546 = LINE('',#547,#548);
#547 = CARTESIAN_POINT('',(19.68799309924,-115.4147202278));
#548 = VECTOR('',#549,1.);
#549 = DIRECTION('',(-0.168155715363,0.985760445235));
#550 = ( GEOMETRIC_REPRESENTATION_CONTEXT(2) 
PARAMETRIC_REPRESENTATION_CONTEXT() REPRESENTATION_CONTEXT('2D SPACE',''
  ) );
#551 = PCURVE('',#552,#557);
#552 = PLANE('',#553);
#553 = AXIS2_PLACEMENT_3D('',#554,#555,#556);
#554 = CARTESIAN_POINT('',(57.686103821262,-32.90552608892,
    19.685365211544));
#555 = DIRECTION('',(-2.242258456801E-04,-0.999999869258,
    4.595725203746E-04));
#556 = DIRECTION('',(-8.07088961298E-24,-4.595725319276E-04,
    -0.999999894397));
#557 = DEFINITIONAL_REPRESENTATION('',(#558),#562);
#558 = LINE('',#559,#560);
#559 = CARTESIAN_POINT('',(19.688007687398,-115.4147177393));
#560 = VECTOR('',#561,1.);
#561 = DIRECTION('',(-0.168155839961,0.985760423981));
#562 = ( GEOMETRIC_REPRESENTATION_CONTEXT(2) 
PARAMETRIC_REPRESENTATION_CONTEXT() REPRESENTATION_CONTEXT('2D SPACE',''
  ) );
#563 = ADVANCED_FACE('',(#564),#552,.T.);
#564 = FACE_BOUND('',#565,.T.);
#565 = EDGE_LOOP('',(#566,#567,#595));
#566 = ORIENTED_EDGE('',*,*,#538,.F.);
#567 = ORIENTED_EDGE('',*,*,#568,.T.);
#568 = EDGE_CURVE('',#289,#569,#571,.T.);
#569 = VERTEX_POINT('',#570);
#570 = CARTESIAN_POINT('',(57.704207751245,-32.91456535216,
    2.535011267993E-02));
#571 = SURFACE_CURVE('',#572,(#576,#583),.PCURVE_S1.);
#572 = LINE('',#573,#574);
#573 = CARTESIAN_POINT('',(-57.72861101672,-32.88869519651,
    -2.652289992496E-03));
#574 = VECTOR('',#575,1.);
#575 = DIRECTION('',(0.999999945462,-2.241143768319E-04,
    2.425861331649E-04));
#576 = PCURVE('',#552,#577);
#577 = DEFINITIONAL_REPRESENTATION('',(#578),#582);
#578 = LINE('',#579,#580);
#579 = CARTESIAN_POINT('',(19.688007687398,-115.4147177393));
#580 = VECTOR('',#581,1.);
#581 = DIRECTION('',(-2.424831107353E-04,0.999999970601));
#582 = ( GEOMETRIC_REPRESENTATION_CONTEXT(2) 
PARAMETRIC_REPRESENTATION_CONTEXT() REPRESENTATION_CONTEXT('2D SPACE',''
  ) );
#583 = PCURVE('',#584,#589);
#584 = PLANE('',#585);
#585 = AXIS2_PLACEMENT_3D('',#586,#587,#588);
#586 = CARTESIAN_POINT('',(57.704207751245,-32.91456535216,
    2.535011267993E-02));
#587 = DIRECTION('',(2.424304978702E-04,-6.942121914366E-04,
    -0.999999729648));
#588 = DIRECTION('',(-7.823368384236E-24,-0.999999759035,
    6.942122118369E-04));
#589 = DEFINITIONAL_REPRESENTATION('',(#590),#594);
#590 = LINE('',#591,#592);
#591 = CARTESIAN_POINT('',(-2.588958903112E-02,115.43282216011));
#592 = VECTOR('',#593,1.);
#593 = DIRECTION('',(2.242827290842E-04,-0.999999974849));
#594 = ( GEOMETRIC_REPRESENTATION_CONTEXT(2) 
PARAMETRIC_REPRESENTATION_CONTEXT() REPRESENTATION_CONTEXT('2D SPACE',''
  ) );
#595 = ORIENTED_EDGE('',*,*,#596,.F.);
#596 = EDGE_CURVE('',#515,#569,#597,.T.);
#597 = SURFACE_CURVE('',#598,(#602,#609),.PCURVE_S1.);
#598 = LINE('',#599,#600);
#599 = CARTESIAN_POINT('',(57.686103821262,-32.90552608892,
    19.685365211544));
#600 = VECTOR('',#601,1.);
#601 = DIRECTION('',(9.208497705933E-04,-4.59778815379E-04,
    -0.999999470319));
#602 = PCURVE('',#552,#603);
#603 = DEFINITIONAL_REPRESENTATION('',(#604),#608);
#604 = LINE('',#605,#606);
#605 = CARTESIAN_POINT('',(-0.,0.));
#606 = VECTOR('',#607,1.);
#607 = DIRECTION('',(0.999999576018,9.208497937422E-04));
#608 = ( GEOMETRIC_REPRESENTATION_CONTEXT(2) 
PARAMETRIC_REPRESENTATION_CONTEXT() REPRESENTATION_CONTEXT('2D SPACE',''
  ) );
#609 = PCURVE('',#610,#615);
#610 = PLANE('',#611);
#611 = AXIS2_PLACEMENT_3D('',#612,#613,#614);
#612 = CARTESIAN_POINT('',(57.686103821262,-32.90552608892,
    19.685365211544));
#613 = DIRECTION('',(0.999999565686,1.441735719152E-04,
    9.207835704221E-04));
#614 = DIRECTION('',(-9.207835799918E-04,-1.072527308859E-23,
    0.999999576079));
#615 = DEFINITIONAL_REPRESENTATION('',(#616),#620);
#616 = LINE('',#617,#618);
#617 = CARTESIAN_POINT('',(0.,0.));
#618 = VECTOR('',#619,1.);
#619 = DIRECTION('',(-0.999999894302,4.597788201574E-04));
#620 = ( GEOMETRIC_REPRESENTATION_CONTEXT(2) 
PARAMETRIC_REPRESENTATION_CONTEXT() REPRESENTATION_CONTEXT('2D SPACE',''
  ) );
#621 = ADVANCED_FACE('',(#622),#272,.T.);
#622 = FACE_BOUND('',#623,.T.);
#623 = EDGE_LOOP('',(#624,#650,#651));
#624 = ORIENTED_EDGE('',*,*,#625,.F.);
#625 = EDGE_CURVE('',#24,#515,#626,.T.);
#626 = SURFACE_CURVE('',#627,(#631,#638),.PCURVE_S1.);
#627 = LINE('',#628,#629);
#628 = CARTESIAN_POINT('',(21.268492433386,1.699717291974,
    19.632002220728));
#629 = VECTOR('',#630,1.);
#630 = DIRECTION('',(0.72491440661,-0.688838133942,1.062222352E-03));
#631 = PCURVE('',#272,#632);
#632 = DEFINITIONAL_REPRESENTATION('',(#633),#637);
#633 = LINE('',#634,#635);
#634 = CARTESIAN_POINT('',(34.605284463673,36.417611446204));
#635 = VECTOR('',#636,1.);
#636 = DIRECTION('',(-0.688838951719,-0.724914407771));
#637 = ( GEOMETRIC_REPRESENTATION_CONTEXT(2) 
PARAMETRIC_REPRESENTATION_CONTEXT() REPRESENTATION_CONTEXT('2D SPACE',''
  ) );
#638 = PCURVE('',#639,#644);
#639 = PLANE('',#640);
#640 = AXIS2_PLACEMENT_3D('',#641,#642,#643);
#641 = CARTESIAN_POINT('',(44.011986253365,1.653627997152,
    19.666472518528));
#642 = DIRECTION('',(-1.515717134119E-03,-5.305173267473E-05,
    0.999998849893));
#643 = DIRECTION('',(0.9999988513,7.636039325061E-24,1.515717136252E-03)
  );
#644 = DEFINITIONAL_REPRESENTATION('',(#645),#649);
#645 = LINE('',#646,#647);
#646 = CARTESIAN_POINT('',(-22.74351994175,4.608929488673E-02));
#647 = VECTOR('',#648,1.);
#648 = DIRECTION('',(0.724915183929,-0.688838134912));
#649 = ( GEOMETRIC_REPRESENTATION_CONTEXT(2) 
PARAMETRIC_REPRESENTATION_CONTEXT() REPRESENTATION_CONTEXT('2D SPACE',''
  ) );
#650 = ORIENTED_EDGE('',*,*,#258,.F.);
#651 = ORIENTED_EDGE('',*,*,#514,.T.);
#652 = ADVANCED_FACE('',(#653),#639,.T.);
#653 = FACE_BOUND('',#654,.T.);
#654 = EDGE_LOOP('',(#655,#683,#684));
#655 = ORIENTED_EDGE('',*,*,#656,.F.);
#656 = EDGE_CURVE('',#24,#657,#659,.T.);
#657 = VERTEX_POINT('',#658);
#658 = CARTESIAN_POINT('',(44.011986253365,1.653627997152,
    19.666472518528));
#659 = SURFACE_CURVE('',#660,(#664,#671),.PCURVE_S1.);
#660 = LINE('',#661,#662);
#661 = CARTESIAN_POINT('',(21.268492433386,1.699717291974,
    19.632002220728));
#662 = VECTOR('',#663,1.);
#663 = DIRECTION('',(0.999996798161,-2.026476126147E-03,
    1.515606516076E-03));
#664 = PCURVE('',#639,#665);
#665 = DEFINITIONAL_REPRESENTATION('',(#666),#670);
#666 = LINE('',#667,#668);
#667 = CARTESIAN_POINT('',(-22.74351994175,4.608929488673E-02));
#668 = VECTOR('',#669,1.);
#669 = DIRECTION('',(0.999997946695,-2.026476128998E-03));
#670 = ( GEOMETRIC_REPRESENTATION_CONTEXT(2) 
PARAMETRIC_REPRESENTATION_CONTEXT() REPRESENTATION_CONTEXT('2D SPACE',''
  ) );
#671 = PCURVE('',#672,#677);
#672 = PLANE('',#673);
#673 = AXIS2_PLACEMENT_3D('',#674,#675,#676);
#674 = CARTESIAN_POINT('',(44.011986253365,1.653627997152,
    19.666472518528));
#675 = DIRECTION('',(2.020432537488E-03,0.999990044533,
    3.978528186346E-03));
#676 = DIRECTION('',(-1.307168829321E-21,-3.978536306841E-03,
    0.999992085593));
#677 = DEFINITIONAL_REPRESENTATION('',(#678),#682);
#678 = LINE('',#679,#680);
#679 = CARTESIAN_POINT('',(-3.46533929211E-02,-22.74354024127));
#680 = VECTOR('',#681,1.);
#681 = DIRECTION('',(1.523656929793E-03,0.999998839234));
#682 = ( GEOMETRIC_REPRESENTATION_CONTEXT(2) 
PARAMETRIC_REPRESENTATION_CONTEXT() REPRESENTATION_CONTEXT('2D SPACE',''
  ) );
#683 = ORIENTED_EDGE('',*,*,#625,.T.);
#684 = ORIENTED_EDGE('',*,*,#685,.F.);
#685 = EDGE_CURVE('',#657,#515,#686,.T.);
#686 = SURFACE_CURVE('',#687,(#691,#698),.PCURVE_S1.);
#687 = LINE('',#688,#689);
#688 = CARTESIAN_POINT('',(44.011986253365,1.653627997152,
    19.666472518528));
#689 = VECTOR('',#690,1.);
#690 = DIRECTION('',(0.36791935436,-0.929857564515,5.083316990752E-04));
#691 = PCURVE('',#639,#692);
#692 = DEFINITIONAL_REPRESENTATION('',(#693),#697);
#693 = LINE('',#694,#695);
#694 = CARTESIAN_POINT('',(0.,0.));
#695 = VECTOR('',#696,1.);
#696 = DIRECTION('',(0.367919702218,-0.929857565824));
#697 = ( GEOMETRIC_REPRESENTATION_CONTEXT(2) 
PARAMETRIC_REPRESENTATION_CONTEXT() REPRESENTATION_CONTEXT('2D SPACE',''
  ) );
#698 = PCURVE('',#699,#704);
#699 = PLANE('',#700);
#700 = AXIS2_PLACEMENT_3D('',#701,#702,#703);
#701 = CARTESIAN_POINT('',(57.676651419205,32.898570930234,
    19.647556367253));
#702 = DIRECTION('',(7.051253743602E-05,5.745767540515E-04,
    0.999999832445));
#703 = DIRECTION('',(7.761077865505E-24,0.999999834931,
    -5.745767554799E-04));
#704 = DEFINITIONAL_REPRESENTATION('',(#705),#709);
#705 = LINE('',#706,#707);
#706 = CARTESIAN_POINT('',(-31.24494864428,13.664665199811));
#707 = VECTOR('',#708,1.);
#708 = DIRECTION('',(-0.9298577031,-0.367919355275));
#709 = ( GEOMETRIC_REPRESENTATION_CONTEXT(2) 
PARAMETRIC_REPRESENTATION_CONTEXT() REPRESENTATION_CONTEXT('2D SPACE',''
  ) );
#710 = ADVANCED_FACE('',(#711),#699,.T.);
#711 = FACE_BOUND('',#712,.T.);
#712 = EDGE_LOOP('',(#713,#739,#740));
#713 = ORIENTED_EDGE('',*,*,#714,.F.);
#714 = EDGE_CURVE('',#657,#404,#715,.T.);
#715 = SURFACE_CURVE('',#716,(#720,#727),.PCURVE_S1.);
#716 = LINE('',#717,#718);
#717 = CARTESIAN_POINT('',(44.011986253365,1.653627997152,
    19.666472518528));
#718 = VECTOR('',#719,1.);
#719 = DIRECTION('',(0.400695770995,0.916210997221,-5.546877093029E-04)
  );
#720 = PCURVE('',#699,#721);
#721 = DEFINITIONAL_REPRESENTATION('',(#722),#726);
#722 = LINE('',#723,#724);
#723 = CARTESIAN_POINT('',(-31.24494864428,13.664665199811));
#724 = VECTOR('',#725,1.);
#725 = DIRECTION('',(0.916211164693,-0.400695771992));
#726 = ( GEOMETRIC_REPRESENTATION_CONTEXT(2) 
PARAMETRIC_REPRESENTATION_CONTEXT() REPRESENTATION_CONTEXT('2D SPACE',''
  ) );
#727 = PCURVE('',#728,#733);
#728 = PLANE('',#729);
#729 = AXIS2_PLACEMENT_3D('',#730,#731,#732);
#730 = CARTESIAN_POINT('',(57.676651419205,32.898570930234,
    19.647556367253));
#731 = DIRECTION('',(-2.28574376356E-04,7.053793773942E-04,
    0.999999725097));
#732 = DIRECTION('',(-1.798714821729E-23,0.99999975122,
    -7.053793958209E-04));
#733 = DEFINITIONAL_REPRESENTATION('',(#734),#738);
#734 = LINE('',#735,#736);
#735 = CARTESIAN_POINT('',(-31.24494850302,13.664665522804));
#736 = VECTOR('',#737,1.);
#737 = DIRECTION('',(0.916211160551,-0.400695781463));
#738 = ( GEOMETRIC_REPRESENTATION_CONTEXT(2) 
PARAMETRIC_REPRESENTATION_CONTEXT() REPRESENTATION_CONTEXT('2D SPACE',''
  ) );
#739 = ORIENTED_EDGE('',*,*,#685,.T.);
#740 = ORIENTED_EDGE('',*,*,#741,.F.);
#741 = EDGE_CURVE('',#404,#515,#742,.T.);
#742 = SURFACE_CURVE('',#743,(#747,#754),.PCURVE_S1.);
#743 = LINE('',#744,#745);
#744 = CARTESIAN_POINT('',(57.676651419205,32.898570930234,
    19.647556367253));
#745 = VECTOR('',#746,1.);
#746 = DIRECTION('',(1.436445575123E-04,-0.99999982462,
    5.745666208114E-04));
#747 = PCURVE('',#699,#748);
#748 = DEFINITIONAL_REPRESENTATION('',(#749),#753);
#749 = LINE('',#750,#751);
#750 = CARTESIAN_POINT('',(0.,0.));
#751 = VECTOR('',#752,1.);
#752 = DIRECTION('',(-0.999999989683,-1.436445578694E-04));
#753 = ( GEOMETRIC_REPRESENTATION_CONTEXT(2) 
PARAMETRIC_REPRESENTATION_CONTEXT() REPRESENTATION_CONTEXT('2D SPACE',''
  ) );
#754 = PCURVE('',#610,#755);
#755 = DEFINITIONAL_REPRESENTATION('',(#756),#760);
#756 = LINE('',#757,#758);
#757 = CARTESIAN_POINT('',(-3.780012464619E-02,-65.80409770306));
#758 = VECTOR('',#759,1.);
#759 = DIRECTION('',(5.744341116905E-04,0.999999835013));
#760 = ( GEOMETRIC_REPRESENTATION_CONTEXT(2) 
PARAMETRIC_REPRESENTATION_CONTEXT() REPRESENTATION_CONTEXT('2D SPACE',''
  ) );
#761 = ADVANCED_FACE('',(#762),#728,.T.);
#762 = FACE_BOUND('',#763,.T.);
#763 = EDGE_LOOP('',(#764,#785,#811));
#764 = ORIENTED_EDGE('',*,*,#765,.F.);
#765 = EDGE_CURVE('',#115,#404,#766,.T.);
#766 = SURFACE_CURVE('',#767,(#771,#778),.PCURVE_S1.);
#767 = LINE('',#768,#769);
#768 = CARTESIAN_POINT('',(23.585103888983,8.560655754937,
    19.656931379068));
#769 = VECTOR('',#770,1.);
#770 = DIRECTION('',(0.813882361158,0.581029648213,-2.238137399026E-04)
  );
#771 = PCURVE('',#728,#772);
#772 = DEFINITIONAL_REPRESENTATION('',(#773),#777);
#773 = LINE('',#774,#775);
#774 = CARTESIAN_POINT('',(-24.33791573344,34.0915484208));
#775 = VECTOR('',#776,1.);
#776 = DIRECTION('',(0.581029661538,-0.813882382419));
#777 = ( GEOMETRIC_REPRESENTATION_CONTEXT(2) 
PARAMETRIC_REPRESENTATION_CONTEXT() REPRESENTATION_CONTEXT('2D SPACE',''
  ) );
#778 = PCURVE('',#187,#779);
#779 = DEFINITIONAL_REPRESENTATION('',(#780),#784);
#780 = LINE('',#781,#782);
#781 = CARTESIAN_POINT('',(-34.0915486211,-24.33791545287));
#782 = VECTOR('',#783,1.);
#783 = DIRECTION('',(0.813882387201,0.58102965484));
#784 = ( GEOMETRIC_REPRESENTATION_CONTEXT(2) 
PARAMETRIC_REPRESENTATION_CONTEXT() REPRESENTATION_CONTEXT('2D SPACE',''
  ) );
#785 = ORIENTED_EDGE('',*,*,#786,.T.);
#786 = EDGE_CURVE('',#115,#657,#787,.T.);
#787 = SURFACE_CURVE('',#788,(#792,#799),.PCURVE_S1.);
#788 = LINE('',#789,#790);
#789 = CARTESIAN_POINT('',(23.585103888983,8.560655754937,
    19.656931379068));
#790 = VECTOR('',#791,1.);
#791 = DIRECTION('',(0.947309999253,-0.320317919463,4.424765685323E-04)
  );
#792 = PCURVE('',#728,#793);
#793 = DEFINITIONAL_REPRESENTATION('',(#794),#798);
#794 = LINE('',#795,#796);
#795 = CARTESIAN_POINT('',(-24.33791573344,34.0915484208));
#796 = VECTOR('',#797,1.);
#797 = DIRECTION('',(-0.320318151888,-0.947310024));
#798 = ( GEOMETRIC_REPRESENTATION_CONTEXT(2) 
PARAMETRIC_REPRESENTATION_CONTEXT() REPRESENTATION_CONTEXT('2D SPACE',''
  ) );
#799 = PCURVE('',#800,#805);
#800 = PLANE('',#801);
#801 = AXIS2_PLACEMENT_3D('',#802,#803,#804);
#802 = CARTESIAN_POINT('',(23.585103888983,8.560655754937,
    19.656931379068));
#803 = DIRECTION('',(-0.320315673384,-0.947307062806,-2.682935419356E-03
    ));
#804 = DIRECTION('',(-0.94731047225,0.320316826229,1.128322916051E-21));
#805 = DEFINITIONAL_REPRESENTATION('',(#806),#810);
#806 = LINE('',#807,#808);
#807 = CARTESIAN_POINT('',(0.,0.));
#808 = VECTOR('',#809,1.);
#809 = DIRECTION('',(-0.999999902107,-4.424781610456E-04));
#810 = ( GEOMETRIC_REPRESENTATION_CONTEXT(2) 
PARAMETRIC_REPRESENTATION_CONTEXT() REPRESENTATION_CONTEXT('2D SPACE',''
  ) );
#811 = ORIENTED_EDGE('',*,*,#714,.T.);
#812 = ADVANCED_FACE('',(#813),#187,.T.);
#813 = FACE_BOUND('',#814,.T.);
#814 = EDGE_LOOP('',(#815,#816,#817));
#815 = ORIENTED_EDGE('',*,*,#432,.F.);
#816 = ORIENTED_EDGE('',*,*,#171,.T.);
#817 = ORIENTED_EDGE('',*,*,#765,.T.);
#818 = ADVANCED_FACE('',(#819),#584,.T.);
#819 = FACE_BOUND('',#820,.T.);
#820 = EDGE_LOOP('',(#821,#822,#850));
#821 = ORIENTED_EDGE('',*,*,#568,.F.);
#822 = ORIENTED_EDGE('',*,*,#823,.T.);
#823 = EDGE_CURVE('',#289,#824,#826,.T.);
#824 = VERTEX_POINT('',#825);
#825 = CARTESIAN_POINT('',(38.772832714855,-4.683188512778,
    1.161997482252E-03));
#826 = SURFACE_CURVE('',#827,(#831,#838),.PCURVE_S1.);
#827 = LINE('',#828,#829);
#828 = CARTESIAN_POINT('',(-57.72861101672,-32.88869519651,
    -2.652289992496E-03));
#829 = VECTOR('',#830,1.);
#830 = DIRECTION('',(0.959841429357,0.280543096602,3.793840796748E-05));
#831 = PCURVE('',#584,#832);
#832 = DEFINITIONAL_REPRESENTATION('',(#833),#837);
#833 = LINE('',#834,#835);
#834 = CARTESIAN_POINT('',(-2.588958903112E-02,115.43282216011));
#835 = VECTOR('',#836,1.);
#836 = DIRECTION('',(-0.280543002664,-0.959841457563));
#837 = ( GEOMETRIC_REPRESENTATION_CONTEXT(2) 
PARAMETRIC_REPRESENTATION_CONTEXT() REPRESENTATION_CONTEXT('2D SPACE',''
  ) );
#838 = PCURVE('',#839,#844);
#839 = PLANE('',#840);
#840 = AXIS2_PLACEMENT_3D('',#841,#842,#843);
#841 = CARTESIAN_POINT('',(27.900949337461,9.128061471291,
    -9.99064348914E-03));
#842 = DIRECTION('',(2.240051940551E-04,-6.31172423528E-04,
    -0.999999775721));
#843 = DIRECTION('',(-1.58105690975E-23,-0.999999800811,
    6.311724393636E-04));
#844 = DEFINITIONAL_REPRESENTATION('',(#845),#849);
#845 = LINE('',#846,#847);
#846 = CARTESIAN_POINT('',(42.016752930279,85.629562502564));
#847 = VECTOR('',#848,1.);
#848 = DIRECTION('',(-0.280543016775,-0.959841453438));
#849 = ( GEOMETRIC_REPRESENTATION_CONTEXT(2) 
PARAMETRIC_REPRESENTATION_CONTEXT() REPRESENTATION_CONTEXT('2D SPACE',''
  ) );
#850 = ORIENTED_EDGE('',*,*,#851,.T.);
#851 = EDGE_CURVE('',#824,#569,#852,.T.);
#852 = SURFACE_CURVE('',#853,(#857,#864),.PCURVE_S1.);
#853 = LINE('',#854,#855);
#854 = CARTESIAN_POINT('',(38.772832714855,-4.683188512778,
    1.161997482252E-03));
#855 = VECTOR('',#856,1.);
#856 = DIRECTION('',(0.55694773149,-0.830547240088,7.115973278472E-04));
#857 = PCURVE('',#584,#858);
#858 = DEFINITIONAL_REPRESENTATION('',(#859),#863);
#859 = LINE('',#860,#861);
#860 = CARTESIAN_POINT('',(-28.23138682829,18.931375592712));
#861 = VECTOR('',#862,1.);
#862 = DIRECTION('',(0.830547533954,-0.556947747857));
#863 = ( GEOMETRIC_REPRESENTATION_CONTEXT(2) 
PARAMETRIC_REPRESENTATION_CONTEXT() REPRESENTATION_CONTEXT('2D SPACE',''
  ) );
#864 = PCURVE('',#865,#870);
#865 = PLANE('',#866);
#866 = AXIS2_PLACEMENT_3D('',#867,#868,#869);
#867 = CARTESIAN_POINT('',(57.734449228734,32.913757559886,
    -2.873259863274E-02));
#868 = DIRECTION('',(5.246970884775E-05,-8.215958929798E-04,
    -0.999999661114));
#869 = DIRECTION('',(-3.122719168923E-24,-0.99999966249,
    8.215958941108E-04));
#870 = DEFINITIONAL_REPRESENTATION('',(#871),#875);
#871 = LINE('',#872,#873);
#872 = CARTESIAN_POINT('',(37.596957944598,18.96161653998));
#873 = VECTOR('',#874,1.);
#874 = DIRECTION('',(0.830547544415,-0.556947732257));
#875 = ( GEOMETRIC_REPRESENTATION_CONTEXT(2) 
PARAMETRIC_REPRESENTATION_CONTEXT() REPRESENTATION_CONTEXT('2D SPACE',''
  ) );
#876 = ADVANCED_FACE('',(#877),#839,.T.);
#877 = FACE_BOUND('',#878,.T.);
#878 = EDGE_LOOP('',(#879,#907,#908));
#879 = ORIENTED_EDGE('',*,*,#880,.T.);
#880 = EDGE_CURVE('',#881,#824,#883,.T.);
#881 = VERTEX_POINT('',#882);
#882 = CARTESIAN_POINT('',(27.900949337461,9.128061471291,
    -9.99064348914E-03));
#883 = SURFACE_CURVE('',#884,(#888,#895),.PCURVE_S1.);
#884 = LINE('',#885,#886);
#885 = CARTESIAN_POINT('',(27.900949337461,9.128061471291,
    -9.99064348914E-03));
#886 = VECTOR('',#887,1.);
#887 = DIRECTION('',(0.618531284025,-0.785759917587,6.345043541075E-04)
  );
#888 = PCURVE('',#839,#889);
#889 = DEFINITIONAL_REPRESENTATION('',(#890),#894);
#890 = LINE('',#891,#892);
#891 = CARTESIAN_POINT('',(0.,-0.));
#892 = VECTOR('',#893,1.);
#893 = DIRECTION('',(0.785760161554,-0.618531299544));
#894 = ( GEOMETRIC_REPRESENTATION_CONTEXT(2) 
PARAMETRIC_REPRESENTATION_CONTEXT() REPRESENTATION_CONTEXT('2D SPACE',''
  ) );
#895 = PCURVE('',#896,#901);
#896 = PLANE('',#897);
#897 = AXIS2_PLACEMENT_3D('',#898,#899,#900);
#898 = CARTESIAN_POINT('',(23.810271868906,1.629691813731,
    10.400042833297));
#899 = DIRECTION('',(0.627028466283,0.494068045664,0.602272420691));
#900 = DIRECTION('',(-0.692726389835,2.121661487589E-18,0.721200491421)
  );
#901 = DEFINITIONAL_REPRESENTATION('',(#902),#906);
#902 = LINE('',#903,#904);
#903 = CARTESIAN_POINT('',(-10.34144149393,-8.624533291048));
#904 = VECTOR('',#905,1.);
#905 = DIRECTION('',(-0.428015338531,0.903771469998));
#906 = ( GEOMETRIC_REPRESENTATION_CONTEXT(2) 
PARAMETRIC_REPRESENTATION_CONTEXT() REPRESENTATION_CONTEXT('2D SPACE',''
  ) );
#907 = ORIENTED_EDGE('',*,*,#823,.F.);
#908 = ORIENTED_EDGE('',*,*,#909,.T.);
#909 = EDGE_CURVE('',#289,#881,#910,.T.);
#910 = SURFACE_CURVE('',#911,(#915,#922),.PCURVE_S1.);
#911 = LINE('',#912,#913);
#912 = CARTESIAN_POINT('',(-57.72861101672,-32.88869519651,
    -2.652289992496E-03));
#913 = VECTOR('',#914,1.);
#914 = DIRECTION('',(0.897748767211,0.440507826324,-7.693602276735E-05)
  );
#915 = PCURVE('',#839,#916);
#916 = DEFINITIONAL_REPRESENTATION('',(#917),#921);
#917 = LINE('',#918,#919);
#918 = CARTESIAN_POINT('',(42.016752930279,85.629562502564));
#919 = VECTOR('',#920,1.);
#920 = DIRECTION('',(-0.440507787139,-0.897748789734));
#921 = ( GEOMETRIC_REPRESENTATION_CONTEXT(2) 
PARAMETRIC_REPRESENTATION_CONTEXT() REPRESENTATION_CONTEXT('2D SPACE',''
  ) );
#922 = PCURVE('',#388,#923);
#923 = DEFINITIONAL_REPRESENTATION('',(#924),#928);
#924 = LINE('',#925,#926);
#925 = CARTESIAN_POINT('',(42.016754196195,85.629561881404));
#926 = VECTOR('',#927,1.);
#927 = DIRECTION('',(-0.440507800411,-0.897748783222));
#928 = ( GEOMETRIC_REPRESENTATION_CONTEXT(2) 
PARAMETRIC_REPRESENTATION_CONTEXT() REPRESENTATION_CONTEXT('2D SPACE',''
  ) );
#929 = ADVANCED_FACE('',(#930),#388,.T.);
#930 = FACE_BOUND('',#931,.T.);
#931 = EDGE_LOOP('',(#932,#933,#934));
#932 = ORIENTED_EDGE('',*,*,#909,.F.);
#933 = ORIENTED_EDGE('',*,*,#374,.T.);
#934 = ORIENTED_EDGE('',*,*,#935,.T.);
#935 = EDGE_CURVE('',#347,#881,#936,.T.);
#936 = SURFACE_CURVE('',#937,(#941,#948),.PCURVE_S1.);
#937 = LINE('',#938,#939);
#938 = CARTESIAN_POINT('',(-57.722661118,32.872978294237,
    1.117314954322E-02));
#939 = VECTOR('',#940,1.);
#940 = DIRECTION('',(0.963632199278,-0.267231973729,-2.381832804802E-04)
  );
#941 = PCURVE('',#388,#942);
#942 = DEFINITIONAL_REPRESENTATION('',(#943),#947);
#943 = LINE('',#944,#945);
#944 = CARTESIAN_POINT('',(-23.74492074785,85.62361198257));
#945 = VECTOR('',#946,1.);
#946 = DIRECTION('',(0.267232017901,-0.963632216465));
#947 = ( GEOMETRIC_REPRESENTATION_CONTEXT(2) 
PARAMETRIC_REPRESENTATION_CONTEXT() REPRESENTATION_CONTEXT('2D SPACE',''
  ) );
#948 = PCURVE('',#498,#949);
#949 = DEFINITIONAL_REPRESENTATION('',(#950),#954);
#950 = LINE('',#951,#952);
#951 = CARTESIAN_POINT('',(4.079341341427E-02,115.4571172381));
#952 = VECTOR('',#953,1.);
#953 = DIRECTION('',(0.26723187247,-0.963632256795));
#954 = ( GEOMETRIC_REPRESENTATION_CONTEXT(2) 
PARAMETRIC_REPRESENTATION_CONTEXT() REPRESENTATION_CONTEXT('2D SPACE',''
  ) );
#955 = ADVANCED_FACE('',(#956),#498,.T.);
#956 = FACE_BOUND('',#957,.T.);
#957 = EDGE_LOOP('',(#958,#984,#985));
#958 = ORIENTED_EDGE('',*,*,#959,.F.);
#959 = EDGE_CURVE('',#881,#457,#960,.T.);
#960 = SURFACE_CURVE('',#961,(#965,#972),.PCURVE_S1.);
#961 = LINE('',#962,#963);
#962 = CARTESIAN_POINT('',(27.900949337461,9.128061471291,
    -9.99064348914E-03));
#963 = VECTOR('',#964,1.);
#964 = DIRECTION('',(0.781904539854,0.623397986259,-4.912068602723E-04)
  );
#965 = PCURVE('',#498,#966);
#966 = DEFINITIONAL_REPRESENTATION('',(#967),#971);
#967 = LINE('',#968,#969);
#968 = CARTESIAN_POINT('',(23.785701239007,29.833501671965));
#969 = VECTOR('',#970,1.);
#970 = DIRECTION('',(-0.623398121245,-0.781904586524));
#971 = ( GEOMETRIC_REPRESENTATION_CONTEXT(2) 
PARAMETRIC_REPRESENTATION_CONTEXT() REPRESENTATION_CONTEXT('2D SPACE',''
  ) );
#972 = PCURVE('',#973,#978);
#973 = PLANE('',#974);
#974 = AXIS2_PLACEMENT_3D('',#975,#976,#977);
#975 = CARTESIAN_POINT('',(57.734449228734,32.913757559886,
    -2.873259863274E-02));
#976 = DIRECTION('',(-2.629990784337E-04,-4.580807520031E-04,
    -0.999999860497));
#977 = DIRECTION('',(6.75452543209E-24,-0.999999895081,
    4.580807678454E-04));
#978 = DEFINITIONAL_REPRESENTATION('',(#979),#983);
#979 = LINE('',#980,#981);
#980 = CARTESIAN_POINT('',(23.785702178353,29.833500923042));
#981 = VECTOR('',#982,1.);
#982 = DIRECTION('',(-0.623398145865,-0.781904566896));
#983 = ( GEOMETRIC_REPRESENTATION_CONTEXT(2) 
PARAMETRIC_REPRESENTATION_CONTEXT() REPRESENTATION_CONTEXT('2D SPACE',''
  ) );
#984 = ORIENTED_EDGE('',*,*,#935,.F.);
#985 = ORIENTED_EDGE('',*,*,#484,.T.);
#986 = ADVANCED_FACE('',(#987),#973,.T.);
#987 = FACE_BOUND('',#988,.T.);
#988 = EDGE_LOOP('',(#989,#1017,#1043));
#989 = ORIENTED_EDGE('',*,*,#990,.F.);
#990 = EDGE_CURVE('',#991,#457,#993,.T.);
#991 = VERTEX_POINT('',#992);
#992 = CARTESIAN_POINT('',(41.482331362632,1.672611402123,
    -1.014733629327E-02));
#993 = SURFACE_CURVE('',#994,(#998,#1005),.PCURVE_S1.);
#994 = LINE('',#995,#996);
#995 = CARTESIAN_POINT('',(41.482331362632,1.672611402123,
    -1.014733629327E-02));
#996 = VECTOR('',#997,1.);
#997 = DIRECTION('',(0.461502915516,0.887138535091,-5.277560023844E-04)
  );
#998 = PCURVE('',#973,#999);
#999 = DEFINITIONAL_REPRESENTATION('',(#1000),#1004);
#1000 = LINE('',#1001,#1002);
#1001 = CARTESIAN_POINT('',(31.241151393525,16.25211842817));
#1002 = VECTOR('',#1003,1.);
#1003 = DIRECTION('',(-0.887138683768,-0.461502931477));
#1004 = ( GEOMETRIC_REPRESENTATION_CONTEXT(2) 
PARAMETRIC_REPRESENTATION_CONTEXT() REPRESENTATION_CONTEXT('2D SPACE',''
  ) );
#1005 = PCURVE('',#1006,#1011);
#1006 = PLANE('',#1007);
#1007 = AXIS2_PLACEMENT_3D('',#1008,#1009,#1010);
#1008 = CARTESIAN_POINT('',(57.734449228734,32.913757559886,
    -2.873259863274E-02));
#1009 = DIRECTION('',(1.261130468991E-02,-7.155426297206E-03,
    -0.999894871908));
#1010 = DIRECTION('',(-0.999920470263,8.436169619681E-21,
    -1.26116275525E-02));
#1011 = DEFINITIONAL_REPRESENTATION('',(#1012),#1016);
#1012 = LINE('',#1013,#1014);
#1013 = CARTESIAN_POINT('',(16.250590949032,-31.24194596377));
#1014 = VECTOR('',#1015,1.);
#1015 = DIRECTION('',(-0.461459556448,0.887161246766));
#1016 = ( GEOMETRIC_REPRESENTATION_CONTEXT(2) 
PARAMETRIC_REPRESENTATION_CONTEXT() REPRESENTATION_CONTEXT('2D SPACE',''
  ) );
#1017 = ORIENTED_EDGE('',*,*,#1018,.F.);
#1018 = EDGE_CURVE('',#881,#991,#1019,.T.);
#1019 = SURFACE_CURVE('',#1020,(#1024,#1031),.PCURVE_S1.);
#1020 = LINE('',#1021,#1022);
#1021 = CARTESIAN_POINT('',(27.900949337461,9.128061471291,
    -9.99064348914E-03));
#1022 = VECTOR('',#1023,1.);
#1023 = DIRECTION('',(0.876605641111,-0.48120946569,-1.011368325897E-05)
  );
#1024 = PCURVE('',#973,#1025);
#1025 = DEFINITIONAL_REPRESENTATION('',(#1026),#1030);
#1026 = LINE('',#1027,#1028);
#1027 = CARTESIAN_POINT('',(23.785702178353,29.833500923042));
#1028 = VECTOR('',#1029,1.);
#1029 = DIRECTION('',(0.481209410569,-0.876605671428));
#1030 = ( GEOMETRIC_REPRESENTATION_CONTEXT(2) 
PARAMETRIC_REPRESENTATION_CONTEXT() REPRESENTATION_CONTEXT('2D SPACE',''
  ) );
#1031 = PCURVE('',#1032,#1037);
#1032 = PLANE('',#1033);
#1033 = AXIS2_PLACEMENT_3D('',#1034,#1035,#1036);
#1034 = CARTESIAN_POINT('',(32.335013792184,10.524087074153,
    10.430786351774));
#1035 = DIRECTION('',(-0.458103222404,-0.834520086864,0.306133405959));
#1036 = DIRECTION('',(-0.876607206181,0.481206614742,8.116040940885E-18)
  );
#1037 = DEFINITIONAL_REPRESENTATION('',(#1038),#1042);
#1038 = LINE('',#1039,#1040);
#1039 = CARTESIAN_POINT('',(3.215156099234,10.96733379609));
#1040 = VECTOR('',#1041,1.);
#1041 = DIRECTION('',(-0.999999999944,1.062374383244E-05));
#1042 = ( GEOMETRIC_REPRESENTATION_CONTEXT(2) 
PARAMETRIC_REPRESENTATION_CONTEXT() REPRESENTATION_CONTEXT('2D SPACE',''
  ) );
#1043 = ORIENTED_EDGE('',*,*,#959,.T.);
#1044 = ADVANCED_FACE('',(#1045),#865,.T.);
#1045 = FACE_BOUND('',#1046,.T.);
#1046 = EDGE_LOOP('',(#1047,#1068,#1069));
#1047 = ORIENTED_EDGE('',*,*,#1048,.F.);
#1048 = EDGE_CURVE('',#569,#457,#1049,.T.);
#1049 = SURFACE_CURVE('',#1050,(#1054,#1061),.PCURVE_S1.);
#1050 = LINE('',#1051,#1052);
#1051 = CARTESIAN_POINT('',(57.704207751245,-32.91456535216,
    2.535011267993E-02));
#1052 = VECTOR('',#1053,1.);
#1053 = DIRECTION('',(4.593989753052E-04,0.999999556986,
    -8.215717028905E-04));
#1054 = PCURVE('',#865,#1055);
#1055 = DEFINITIONAL_REPRESENTATION('',(#1056),#1060);
#1056 = LINE('',#1057,#1058);
#1057 = CARTESIAN_POINT('',(65.828345128471,3.024147753088E-02));
#1058 = VECTOR('',#1059,1.);
#1059 = DIRECTION('',(-0.999999894476,-4.593989759376E-04));
#1060 = ( GEOMETRIC_REPRESENTATION_CONTEXT(2) 
PARAMETRIC_REPRESENTATION_CONTEXT() REPRESENTATION_CONTEXT('2D SPACE',''
  ) );
#1061 = PCURVE('',#472,#1062);
#1062 = DEFINITIONAL_REPRESENTATION('',(#1063),#1067);
#1063 = LINE('',#1064,#1065);
#1064 = CARTESIAN_POINT('',(0.,-0.));
#1065 = VECTOR('',#1066,1.);
#1066 = DIRECTION('',(-8.229174458219E-04,-0.999999661403));
#1067 = ( GEOMETRIC_REPRESENTATION_CONTEXT(2) 
PARAMETRIC_REPRESENTATION_CONTEXT() REPRESENTATION_CONTEXT('2D SPACE',''
  ) );
#1068 = ORIENTED_EDGE('',*,*,#851,.F.);
#1069 = ORIENTED_EDGE('',*,*,#1070,.T.);
#1070 = EDGE_CURVE('',#824,#457,#1071,.T.);
#1071 = SURFACE_CURVE('',#1072,(#1076,#1083),.PCURVE_S1.);
#1072 = LINE('',#1073,#1074);
#1073 = CARTESIAN_POINT('',(38.772832714855,-4.683188512778,
    1.161997482252E-03));
#1074 = VECTOR('',#1075,1.);
#1075 = DIRECTION('',(0.45031033044,0.892871828577,-7.099524159802E-04)
  );
#1076 = PCURVE('',#865,#1077);
#1077 = DEFINITIONAL_REPRESENTATION('',(#1078),#1082);
#1078 = LINE('',#1079,#1080);
#1079 = CARTESIAN_POINT('',(37.596957944598,18.96161653998));
#1080 = VECTOR('',#1081,1.);
#1081 = DIRECTION('',(-0.892872110518,-0.45031033106));
#1082 = ( GEOMETRIC_REPRESENTATION_CONTEXT(2) 
PARAMETRIC_REPRESENTATION_CONTEXT() REPRESENTATION_CONTEXT('2D SPACE',''
  ) );
#1083 = PCURVE('',#1006,#1084);
#1084 = DEFINITIONAL_REPRESENTATION('',(#1085),#1089);
#1085 = LINE('',#1086,#1087);
#1086 = CARTESIAN_POINT('',(18.959731481988,-37.5979085938));
#1087 = VECTOR('',#1088,1.);
#1088 = DIRECTION('',(-0.450265563722,0.89289468703));
#1089 = ( GEOMETRIC_REPRESENTATION_CONTEXT(2) 
PARAMETRIC_REPRESENTATION_CONTEXT() REPRESENTATION_CONTEXT('2D SPACE',''
  ) );
#1090 = ADVANCED_FACE('',(#1091),#1006,.T.);
#1091 = FACE_BOUND('',#1092,.T.);
#1092 = EDGE_LOOP('',(#1093,#1094,#1120));
#1093 = ORIENTED_EDGE('',*,*,#1070,.F.);
#1094 = ORIENTED_EDGE('',*,*,#1095,.T.);
#1095 = EDGE_CURVE('',#824,#991,#1096,.T.);
#1096 = SURFACE_CURVE('',#1097,(#1101,#1108),.PCURVE_S1.);
#1097 = LINE('',#1098,#1099);
#1098 = CARTESIAN_POINT('',(38.772832714855,-4.683188512778,
    1.161997482252E-03));
#1099 = VECTOR('',#1100,1.);
#1100 = DIRECTION('',(0.392155380257,0.919897536952,-1.636840118311E-03)
  );
#1101 = PCURVE('',#1006,#1102);
#1102 = DEFINITIONAL_REPRESENTATION('',(#1103),#1107);
#1103 = LINE('',#1104,#1105);
#1104 = CARTESIAN_POINT('',(18.959731481988,-37.5979085938));
#1105 = VECTOR('',#1106,1.);
#1106 = DIRECTION('',(-0.392103549024,0.919921087291));
#1107 = ( GEOMETRIC_REPRESENTATION_CONTEXT(2) 
PARAMETRIC_REPRESENTATION_CONTEXT() REPRESENTATION_CONTEXT('2D SPACE',''
  ) );
#1108 = PCURVE('',#1109,#1114);
#1109 = PLANE('',#1110);
#1110 = AXIS2_PLACEMENT_3D('',#1111,#1112,#1113);
#1111 = CARTESIAN_POINT('',(41.467106967517,1.680178034924,
    10.437417675457));
#1112 = DIRECTION('',(-0.919898598213,0.392152942067,-1.624510306462E-03
    ));
#1113 = DIRECTION('',(-0.392153459521,-0.919899812037,6.680160023285E-20
    ));
#1114 = DEFINITIONAL_REPRESENTATION('',(#1115),#1119);
#1115 = LINE('',#1116,#1117);
#1116 = CARTESIAN_POINT('',(6.910228660233,-10.43626944881));
#1117 = VECTOR('',#1118,1.);
#1118 = DIRECTION('',(-0.999998660373,-1.636842278154E-03));
#1119 = ( GEOMETRIC_REPRESENTATION_CONTEXT(2) 
PARAMETRIC_REPRESENTATION_CONTEXT() REPRESENTATION_CONTEXT('2D SPACE',''
  ) );
#1120 = ORIENTED_EDGE('',*,*,#990,.T.);
#1121 = ADVANCED_FACE('',(#1122),#472,.T.);
#1122 = FACE_BOUND('',#1123,.T.);
#1123 = EDGE_LOOP('',(#1124,#1125,#1126));
#1124 = ORIENTED_EDGE('',*,*,#1048,.T.);
#1125 = ORIENTED_EDGE('',*,*,#456,.F.);
#1126 = ORIENTED_EDGE('',*,*,#1127,.T.);
#1127 = EDGE_CURVE('',#404,#569,#1128,.T.);
#1128 = SURFACE_CURVE('',#1129,(#1133,#1140),.PCURVE_S1.);
#1129 = LINE('',#1130,#1131);
#1130 = CARTESIAN_POINT('',(57.676651419205,32.898570930234,
    19.647556367253));
#1131 = VECTOR('',#1132,1.);
#1132 = DIRECTION('',(4.012509411718E-04,-0.958312696947,-0.285721217041
    ));
#1133 = PCURVE('',#472,#1134);
#1134 = DEFINITIONAL_REPRESENTATION('',(#1135),#1139);
#1135 = LINE('',#1136,#1137);
#1136 = CARTESIAN_POINT('',(19.622202554989,-65.81314315442));
#1137 = VECTOR('',#1138,1.);
#1138 = DIRECTION('',(-0.285721163171,0.958312797012));
#1139 = ( GEOMETRIC_REPRESENTATION_CONTEXT(2) 
PARAMETRIC_REPRESENTATION_CONTEXT() REPRESENTATION_CONTEXT('2D SPACE',''
  ) );
#1140 = PCURVE('',#610,#1141);
#1141 = DEFINITIONAL_REPRESENTATION('',(#1142),#1146);
#1142 = LINE('',#1143,#1144);
#1143 = CARTESIAN_POINT('',(-3.780012464619E-02,-65.80409770306));
#1144 = VECTOR('',#1145,1.);
#1145 = DIRECTION('',(-0.285721465383,0.958312706907));
#1146 = ( GEOMETRIC_REPRESENTATION_CONTEXT(2) 
PARAMETRIC_REPRESENTATION_CONTEXT() REPRESENTATION_CONTEXT('2D SPACE',''
  ) );
#1147 = ADVANCED_FACE('',(#1148),#610,.T.);
#1148 = FACE_BOUND('',#1149,.T.);
#1149 = EDGE_LOOP('',(#1150,#1151,#1152));
#1150 = ORIENTED_EDGE('',*,*,#596,.T.);
#1151 = ORIENTED_EDGE('',*,*,#1127,.F.);
#1152 = ORIENTED_EDGE('',*,*,#741,.T.);
#1153 = ADVANCED_FACE('',(#1154),#800,.T.);
#1154 = FACE_BOUND('',#1155,.T.);
#1155 = EDGE_LOOP('',(#1156,#1179,#1200));
#1156 = ORIENTED_EDGE('',*,*,#1157,.T.);
#1157 = EDGE_CURVE('',#115,#1158,#1160,.T.);
#1158 = VERTEX_POINT('',#1159);
#1159 = CARTESIAN_POINT('',(43.980485818696,1.690436185993,
    10.430851662391));
#1160 = SURFACE_CURVE('',#1161,(#1165,#1172),.PCURVE_S1.);
#1161 = LINE('',#1162,#1163);
#1162 = CARTESIAN_POINT('',(23.585103888983,8.560655754937,
    19.656931379068));
#1163 = VECTOR('',#1164,1.);
#1164 = DIRECTION('',(0.871015454763,-0.29340305775,-0.394013607972));
#1165 = PCURVE('',#800,#1166);
#1166 = DEFINITIONAL_REPRESENTATION('',(#1167),#1171);
#1167 = LINE('',#1168,#1169);
#1168 = CARTESIAN_POINT('',(0.,0.));
#1169 = VECTOR('',#1170,1.);
#1170 = DIRECTION('',(-0.919103998053,0.394015026063));
#1171 = ( GEOMETRIC_REPRESENTATION_CONTEXT(2) 
PARAMETRIC_REPRESENTATION_CONTEXT() REPRESENTATION_CONTEXT('2D SPACE',''
  ) );
#1172 = PCURVE('',#130,#1173);
#1173 = DEFINITIONAL_REPRESENTATION('',(#1174),#1178);
#1174 = LINE('',#1175,#1176);
#1175 = CARTESIAN_POINT('',(0.,0.));
#1176 = VECTOR('',#1177,1.);
#1177 = DIRECTION('',(-6.123236101483E-02,-0.998123538428));
#1178 = ( GEOMETRIC_REPRESENTATION_CONTEXT(2) 
PARAMETRIC_REPRESENTATION_CONTEXT() REPRESENTATION_CONTEXT('2D SPACE',''
  ) );
#1179 = ORIENTED_EDGE('',*,*,#1180,.T.);
#1180 = EDGE_CURVE('',#1158,#657,#1181,.T.);
#1181 = SURFACE_CURVE('',#1182,(#1186,#1193),.PCURVE_S1.);
#1182 = LINE('',#1183,#1184);
#1183 = CARTESIAN_POINT('',(43.980485818696,1.690436185993,
    10.430851662391));
#1184 = VECTOR('',#1185,1.);
#1185 = DIRECTION('',(3.410707495248E-03,-3.985404229596E-03,
    0.999986241719));
#1186 = PCURVE('',#800,#1187);
#1187 = DEFINITIONAL_REPRESENTATION('',(#1188),#1192);
#1188 = LINE('',#1189,#1190);
#1189 = CARTESIAN_POINT('',(-21.52140581537,9.226112922175));
#1190 = VECTOR('',#1191,1.);
#1191 = DIRECTION('',(-4.507590962094E-03,-0.99998984076));
#1192 = ( GEOMETRIC_REPRESENTATION_CONTEXT(2) 
PARAMETRIC_REPRESENTATION_CONTEXT() REPRESENTATION_CONTEXT('2D SPACE',''
  ) );
#1193 = PCURVE('',#672,#1194);
#1194 = DEFINITIONAL_REPRESENTATION('',(#1195),#1199);
#1195 = LINE('',#1196,#1197);
#1196 = CARTESIAN_POINT('',(-9.235694204391,-3.150049896403E-02));
#1197 = VECTOR('',#1198,1.);
#1198 = DIRECTION('',(0.999994183497,3.410714456775E-03));
#1199 = ( GEOMETRIC_REPRESENTATION_CONTEXT(2) 
PARAMETRIC_REPRESENTATION_CONTEXT() REPRESENTATION_CONTEXT('2D SPACE',''
  ) );
#1200 = ORIENTED_EDGE('',*,*,#786,.F.);
#1201 = ADVANCED_FACE('',(#1202),#130,.T.);
#1202 = FACE_BOUND('',#1203,.T.);
#1203 = EDGE_LOOP('',(#1204,#1205,#1231));
#1204 = ORIENTED_EDGE('',*,*,#114,.T.);
#1205 = ORIENTED_EDGE('',*,*,#1206,.T.);
#1206 = EDGE_CURVE('',#57,#1158,#1207,.T.);
#1207 = SURFACE_CURVE('',#1208,(#1212,#1219),.PCURVE_S1.);
#1208 = LINE('',#1209,#1210);
#1209 = CARTESIAN_POINT('',(30.311967351839,12.792688642716,
    10.375310287692));
#1210 = VECTOR('',#1211,1.);
#1211 = DIRECTION('',(0.776205148178,-0.630472536886,3.154072702358E-03)
  );
#1212 = PCURVE('',#130,#1213);
#1213 = DEFINITIONAL_REPRESENTATION('',(#1214),#1218);
#1214 = LINE('',#1215,#1216);
#1215 = CARTESIAN_POINT('',(-9.480927768957,-7.708520813674));
#1216 = VECTOR('',#1217,1.);
#1217 = DIRECTION('',(0.456979012738,-0.889477476902));
#1218 = ( GEOMETRIC_REPRESENTATION_CONTEXT(2) 
PARAMETRIC_REPRESENTATION_CONTEXT() REPRESENTATION_CONTEXT('2D SPACE',''
  ) );
#1219 = PCURVE('',#1220,#1225);
#1220 = PLANE('',#1221);
#1221 = AXIS2_PLACEMENT_3D('',#1222,#1223,#1224);
#1222 = CARTESIAN_POINT('',(43.980485818696,1.690436185993,
    10.430851662391));
#1223 = DIRECTION('',(2.578952476734E-03,8.177601144641E-03,
    0.999963237246));
#1224 = DIRECTION('',(1.510601897258E-21,0.999966562638,
    -8.177628339373E-03));
#1225 = DEFINITIONAL_REPRESENTATION('',(#1226),#1230);
#1226 = LINE('',#1227,#1228);
#1227 = CARTESIAN_POINT('',(11.102335423412,13.668563921713));
#1228 = VECTOR('',#1229,1.);
#1229 = DIRECTION('',(-0.630477248382,-0.776207729459));
#1230 = ( GEOMETRIC_REPRESENTATION_CONTEXT(2) 
PARAMETRIC_REPRESENTATION_CONTEXT() REPRESENTATION_CONTEXT('2D SPACE',''
  ) );
#1231 = ORIENTED_EDGE('',*,*,#1157,.F.);
#1232 = ADVANCED_FACE('',(#1233),#44,.T.);
#1233 = FACE_BOUND('',#1234,.T.);
#1234 = EDGE_LOOP('',(#1235,#1256,#1282));
#1235 = ORIENTED_EDGE('',*,*,#1236,.T.);
#1236 = EDGE_CURVE('',#24,#1158,#1237,.T.);
#1237 = SURFACE_CURVE('',#1238,(#1242,#1249),.PCURVE_S1.);
#1238 = LINE('',#1239,#1240);
#1239 = CARTESIAN_POINT('',(21.268492433386,1.699717291974,
    19.632002220728));
#1240 = VECTOR('',#1241,1.);
#1241 = DIRECTION('',(0.926830312758,-3.787430814026E-04,-0.375480263006
    ));
#1242 = PCURVE('',#44,#1243);
#1243 = DEFINITIONAL_REPRESENTATION('',(#1244),#1248);
#1244 = LINE('',#1245,#1246);
#1245 = CARTESIAN_POINT('',(0.,0.));
#1246 = VECTOR('',#1247,1.);
#1247 = DIRECTION('',(-0.375477180213,0.926831639048));
#1248 = ( GEOMETRIC_REPRESENTATION_CONTEXT(2) 
PARAMETRIC_REPRESENTATION_CONTEXT() REPRESENTATION_CONTEXT('2D SPACE',''
  ) );
#1249 = PCURVE('',#672,#1250);
#1250 = DEFINITIONAL_REPRESENTATION('',(#1251),#1255);
#1251 = LINE('',#1252,#1253);
#1252 = CARTESIAN_POINT('',(-3.46533929211E-02,-22.74354024127));
#1253 = VECTOR('',#1254,1.);
#1254 = DIRECTION('',(-0.37547578446,0.926832204493));
#1255 = ( GEOMETRIC_REPRESENTATION_CONTEXT(2) 
PARAMETRIC_REPRESENTATION_CONTEXT() REPRESENTATION_CONTEXT('2D SPACE',''
  ) );
#1256 = ORIENTED_EDGE('',*,*,#1257,.F.);
#1257 = EDGE_CURVE('',#22,#1158,#1258,.T.);
#1258 = SURFACE_CURVE('',#1259,(#1263,#1270),.PCURVE_S1.);
#1259 = LINE('',#1260,#1261);
#1260 = CARTESIAN_POINT('',(21.263481364956,1.652082792102,
    10.445982064268));
#1261 = VECTOR('',#1262,1.);
#1262 = DIRECTION('',(0.999998353001,1.688309336757E-03,
    -6.660375045526E-04));
#1263 = PCURVE('',#44,#1264);
#1264 = DEFINITIONAL_REPRESENTATION('',(#1265),#1269);
#1265 = LINE('',#1266,#1267);
#1266 = CARTESIAN_POINT('',(-9.186143660992,-5.011075600255E-03));
#1267 = VECTOR('',#1268,1.);
#1268 = DIRECTION('',(-6.5727542866E-04,0.999999783994));
#1269 = ( GEOMETRIC_REPRESENTATION_CONTEXT(2) 
PARAMETRIC_REPRESENTATION_CONTEXT() REPRESENTATION_CONTEXT('2D SPACE',''
  ) );
#1270 = PCURVE('',#1271,#1276);
#1271 = PLANE('',#1272);
#1272 = AXIS2_PLACEMENT_3D('',#1273,#1274,#1275);
#1273 = CARTESIAN_POINT('',(43.980485818696,1.690436185993,
    10.430851662391));
#1274 = DIRECTION('',(5.48580243575E-04,-0.630980484514,-0.775798509423)
  );
#1275 = DIRECTION('',(8.09178864299E-21,-0.775798626157,0.630980579457)
  );
#1276 = DEFINITIONAL_REPRESENTATION('',(#1277),#1281);
#1277 = LINE('',#1278,#1279);
#1278 = CARTESIAN_POINT('',(3.930150003242E-02,22.717007871971));
#1279 = VECTOR('',#1280,1.);
#1280 = DIRECTION('',(-1.730044794548E-03,-0.999998503471));
#1281 = ( GEOMETRIC_REPRESENTATION_CONTEXT(2) 
PARAMETRIC_REPRESENTATION_CONTEXT() REPRESENTATION_CONTEXT('2D SPACE',''
  ) );
#1282 = ORIENTED_EDGE('',*,*,#21,.T.);
#1283 = ADVANCED_FACE('',(#1284),#672,.T.);
#1284 = FACE_BOUND('',#1285,.T.);
#1285 = EDGE_LOOP('',(#1286,#1287,#1288));
#1286 = ORIENTED_EDGE('',*,*,#1180,.F.);
#1287 = ORIENTED_EDGE('',*,*,#1236,.F.);
#1288 = ORIENTED_EDGE('',*,*,#656,.T.);
#1289 = ADVANCED_FACE('',(#1290),#1032,.T.);
#1290 = FACE_BOUND('',#1291,.T.);
#1291 = EDGE_LOOP('',(#1292,#1320,#1321));
#1292 = ORIENTED_EDGE('',*,*,#1293,.F.);
#1293 = EDGE_CURVE('',#881,#1294,#1296,.T.);
#1294 = VERTEX_POINT('',#1295);
#1295 = CARTESIAN_POINT('',(32.335013792184,10.524087074153,
    10.430786351774));
#1296 = SURFACE_CURVE('',#1297,(#1301,#1308),.PCURVE_S1.);
#1297 = LINE('',#1298,#1299);
#1298 = CARTESIAN_POINT('',(27.900949337461,9.128061471291,
    -9.99064348914E-03));
#1299 = VECTOR('',#1300,1.);
#1300 = DIRECTION('',(0.387969657749,0.122148782654,0.913542127962));
#1301 = PCURVE('',#1032,#1302);
#1302 = DEFINITIONAL_REPRESENTATION('',(#1303),#1307);
#1303 = LINE('',#1304,#1305);
#1304 = CARTESIAN_POINT('',(3.215156099234,10.96733379609));
#1305 = VECTOR('',#1306,1.);
#1306 = DIRECTION('',(-0.281318195567,-0.959614543889));
#1307 = ( GEOMETRIC_REPRESENTATION_CONTEXT(2) 
PARAMETRIC_REPRESENTATION_CONTEXT() REPRESENTATION_CONTEXT('2D SPACE',''
  ) );
#1308 = PCURVE('',#1309,#1314);
#1309 = PLANE('',#1310);
#1310 = AXIS2_PLACEMENT_3D('',#1311,#1312,#1313);
#1311 = CARTESIAN_POINT('',(23.810271868906,1.629691813731,
    10.400042833297));
#1312 = DIRECTION('',(0.706285037211,-0.676207391325,-0.209535224079));
#1313 = DIRECTION('',(0.691559246335,0.722319741395,7.888992935987E-18)
  );
#1314 = DEFINITIONAL_REPRESENTATION('',(#1315),#1319);
#1315 = LINE('',#1316,#1317);
#1316 = CARTESIAN_POINT('',(8.245166259085,-10.64637121375));
#1317 = VECTOR('',#1318,1.);
#1318 = DIRECTION('',(0.356534481212,0.93428216493));
#1319 = ( GEOMETRIC_REPRESENTATION_CONTEXT(2) 
PARAMETRIC_REPRESENTATION_CONTEXT() REPRESENTATION_CONTEXT('2D SPACE',''
  ) );
#1320 = ORIENTED_EDGE('',*,*,#1018,.T.);
#1321 = ORIENTED_EDGE('',*,*,#1322,.F.);
#1322 = EDGE_CURVE('',#1294,#991,#1323,.T.);
#1323 = SURFACE_CURVE('',#1324,(#1328,#1335),.PCURVE_S1.);
#1324 = LINE('',#1325,#1326);
#1325 = CARTESIAN_POINT('',(32.335013792184,10.524087074153,
    10.430786351774));
#1326 = VECTOR('',#1327,1.);
#1327 = DIRECTION('',(0.555623951778,-0.537654001196,-0.634200440877));
#1328 = PCURVE('',#1032,#1329);
#1329 = DEFINITIONAL_REPRESENTATION('',(#1330),#1334);
#1330 = LINE('',#1331,#1332);
#1331 = CARTESIAN_POINT('',(0.,-0.));
#1332 = VECTOR('',#1333,1.);
#1333 = DIRECTION('',(-0.745786621874,0.666184895231));
#1334 = ( GEOMETRIC_REPRESENTATION_CONTEXT(2) 
PARAMETRIC_REPRESENTATION_CONTEXT() REPRESENTATION_CONTEXT('2D SPACE',''
  ) );
#1335 = PCURVE('',#1336,#1341);
#1336 = PLANE('',#1337);
#1337 = AXIS2_PLACEMENT_3D('',#1338,#1339,#1340);
#1338 = CARTESIAN_POINT('',(32.335013792184,10.524087074153,
    10.430786351774));
#1339 = DIRECTION('',(-0.695681062572,-0.718350621661,
    -4.934956603048E-04));
#1340 = DIRECTION('',(-0.718350709134,0.695681147284,2.17893252259E-20)
  );
#1341 = DEFINITIONAL_REPRESENTATION('',(#1342),#1346);
#1342 = LINE('',#1343,#1344);
#1343 = CARTESIAN_POINT('',(0.,0.));
#1344 = VECTOR('',#1345,1.);
#1345 = DIRECTION('',(-0.773168612166,0.634200518103));
#1346 = ( GEOMETRIC_REPRESENTATION_CONTEXT(2) 
PARAMETRIC_REPRESENTATION_CONTEXT() REPRESENTATION_CONTEXT('2D SPACE',''
  ) );
#1347 = ADVANCED_FACE('',(#1348),#1336,.T.);
#1348 = FACE_BOUND('',#1349,.T.);
#1349 = EDGE_LOOP('',(#1350,#1351,#1374));
#1350 = ORIENTED_EDGE('',*,*,#1322,.T.);
#1351 = ORIENTED_EDGE('',*,*,#1352,.F.);
#1352 = EDGE_CURVE('',#1353,#991,#1355,.T.);
#1353 = VERTEX_POINT('',#1354);
#1354 = CARTESIAN_POINT('',(41.467106967517,1.680178034924,
    10.437417675457));
#1355 = SURFACE_CURVE('',#1356,(#1360,#1367),.PCURVE_S1.);
#1356 = LINE('',#1357,#1358);
#1357 = CARTESIAN_POINT('',(41.467106967517,1.680178034924,
    10.437417675457));
#1358 = VECTOR('',#1359,1.);
#1359 = DIRECTION('',(1.457217537323E-03,-7.242474944162E-04,
    -0.99999867599));
#1360 = PCURVE('',#1336,#1361);
#1361 = DEFINITIONAL_REPRESENTATION('',(#1362),#1366);
#1362 = LINE('',#1363,#1364);
#1363 = CARTESIAN_POINT('',(-12.71258639526,-6.631324490379E-03));
#1364 = VECTOR('',#1365,1.);
#1365 = DIRECTION('',(-1.550638579132E-03,0.999998797759));
#1366 = ( GEOMETRIC_REPRESENTATION_CONTEXT(2) 
PARAMETRIC_REPRESENTATION_CONTEXT() REPRESENTATION_CONTEXT('2D SPACE',''
  ) );
#1367 = PCURVE('',#1109,#1368);
#1368 = DEFINITIONAL_REPRESENTATION('',(#1369),#1373);
#1369 = LINE('',#1370,#1371);
#1370 = CARTESIAN_POINT('',(0.,0.));
#1371 = VECTOR('',#1372,1.);
#1372 = DIRECTION('',(9.478223544627E-05,-0.999999995508));
#1373 = ( GEOMETRIC_REPRESENTATION_CONTEXT(2) 
PARAMETRIC_REPRESENTATION_CONTEXT() REPRESENTATION_CONTEXT('2D SPACE',''
  ) );
#1374 = ORIENTED_EDGE('',*,*,#1375,.F.);
#1375 = EDGE_CURVE('',#1294,#1353,#1376,.T.);
#1376 = SURFACE_CURVE('',#1377,(#1381,#1388),.PCURVE_S1.);
#1377 = LINE('',#1378,#1379);
#1378 = CARTESIAN_POINT('',(32.335013792184,10.524087074153,
    10.430786351774));
#1379 = VECTOR('',#1380,1.);
#1380 = DIRECTION('',(0.718350432316,-0.695681237557,5.216344317753E-04)
  );
#1381 = PCURVE('',#1336,#1382);
#1382 = DEFINITIONAL_REPRESENTATION('',(#1383),#1387);
#1383 = LINE('',#1384,#1385);
#1384 = CARTESIAN_POINT('',(0.,0.));
#1385 = VECTOR('',#1386,1.);
#1386 = DIRECTION('',(-0.999999863949,-5.216344952942E-04));
#1387 = ( GEOMETRIC_REPRESENTATION_CONTEXT(2) 
PARAMETRIC_REPRESENTATION_CONTEXT() REPRESENTATION_CONTEXT('2D SPACE',''
  ) );
#1388 = PCURVE('',#1389,#1394);
#1389 = PLANE('',#1390);
#1390 = AXIS2_PLACEMENT_3D('',#1391,#1392,#1393);
#1391 = CARTESIAN_POINT('',(30.311967351839,12.792688642716,
    10.375310287692));
#1392 = DIRECTION('',(0.163580357414,0.169639422299,0.971835342571));
#1393 = DIRECTION('',(-2.53177058045E-18,0.985104689878,-0.171955662831)
  );
#1394 = DEFINITIONAL_REPRESENTATION('',(#1395),#1399);
#1395 = LINE('',#1396,#1397);
#1396 = CARTESIAN_POINT('',(-2.244349468027,-2.050668923968));
#1397 = VECTOR('',#1398,1.);
#1398 = DIRECTION('',(-0.685408547772,-0.728158720775));
#1399 = ( GEOMETRIC_REPRESENTATION_CONTEXT(2) 
PARAMETRIC_REPRESENTATION_CONTEXT() REPRESENTATION_CONTEXT('2D SPACE',''
  ) );
#1400 = ADVANCED_FACE('',(#1401),#1309,.T.);
#1401 = FACE_BOUND('',#1402,.T.);
#1402 = EDGE_LOOP('',(#1403,#1426,#1427));
#1403 = ORIENTED_EDGE('',*,*,#1404,.T.);
#1404 = EDGE_CURVE('',#1405,#881,#1407,.T.);
#1405 = VERTEX_POINT('',#1406);
#1406 = CARTESIAN_POINT('',(23.810271868906,1.629691813731,
    10.400042833297));
#1407 = SURFACE_CURVE('',#1408,(#1412,#1419),.PCURVE_S1.);
#1408 = LINE('',#1409,#1410);
#1409 = CARTESIAN_POINT('',(23.810271868906,1.629691813731,
    10.400042833297));
#1410 = VECTOR('',#1411,1.);
#1411 = DIRECTION('',(0.303782546942,0.556845131398,-0.773071577418));
#1412 = PCURVE('',#1309,#1413);
#1413 = DEFINITIONAL_REPRESENTATION('',(#1414),#1418);
#1414 = LINE('',#1415,#1416);
#1415 = CARTESIAN_POINT('',(0.,0.));
#1416 = VECTOR('',#1417,1.);
#1417 = DIRECTION('',(0.612303860521,-0.790622528386));
#1418 = ( GEOMETRIC_REPRESENTATION_CONTEXT(2) 
PARAMETRIC_REPRESENTATION_CONTEXT() REPRESENTATION_CONTEXT('2D SPACE',''
  ) );
#1419 = PCURVE('',#896,#1420);
#1420 = DEFINITIONAL_REPRESENTATION('',(#1421),#1425);
#1421 = LINE('',#1422,#1423);
#1422 = CARTESIAN_POINT('',(0.,0.));
#1423 = VECTOR('',#1424,1.);
#1424 = DIRECTION('',(-0.767977788576,-0.640476475957));
#1425 = ( GEOMETRIC_REPRESENTATION_CONTEXT(2) 
PARAMETRIC_REPRESENTATION_CONTEXT() REPRESENTATION_CONTEXT('2D SPACE',''
  ) );
#1426 = ORIENTED_EDGE('',*,*,#1293,.T.);
#1427 = ORIENTED_EDGE('',*,*,#1428,.F.);
#1428 = EDGE_CURVE('',#1405,#1294,#1429,.T.);
#1429 = SURFACE_CURVE('',#1430,(#1434,#1441),.PCURVE_S1.);
#1430 = LINE('',#1431,#1432);
#1431 = CARTESIAN_POINT('',(23.810271868906,1.629691813731,
    10.400042833297));
#1432 = VECTOR('',#1433,1.);
#1433 = DIRECTION('',(0.691943253429,0.721947579079,2.495415156075E-03)
  );
#1434 = PCURVE('',#1309,#1435);
#1435 = DEFINITIONAL_REPRESENTATION('',(#1436),#1440);
#1436 = LINE('',#1437,#1438);
#1437 = CARTESIAN_POINT('',(0.,0.));
#1438 = VECTOR('',#1439,1.);
#1439 = DIRECTION('',(0.999996743468,2.55206826599E-03));
#1440 = ( GEOMETRIC_REPRESENTATION_CONTEXT(2) 
PARAMETRIC_REPRESENTATION_CONTEXT() REPRESENTATION_CONTEXT('2D SPACE',''
  ) );
#1441 = PCURVE('',#1442,#1447);
#1442 = PLANE('',#1443);
#1443 = AXIS2_PLACEMENT_3D('',#1444,#1445,#1446);
#1444 = CARTESIAN_POINT('',(30.311967351839,12.792688642716,
    10.375310287692));
#1445 = DIRECTION('',(-1.508243208896E-02,1.099970002504E-02,
    0.999825748239));
#1446 = DIRECTION('',(0.999886239887,2.240269093984E-21,
    1.508334460914E-02));
#1447 = DEFINITIONAL_REPRESENTATION('',(#1448),#1452);
#1448 = LINE('',#1449,#1450);
#1449 = CARTESIAN_POINT('',(-6.500582799812,-11.16367221474));
#1450 = VECTOR('',#1451,1.);
#1451 = DIRECTION('',(0.691902177093,0.721991258489));
#1452 = ( GEOMETRIC_REPRESENTATION_CONTEXT(2) 
PARAMETRIC_REPRESENTATION_CONTEXT() REPRESENTATION_CONTEXT('2D SPACE',''
  ) );
#1453 = ADVANCED_FACE('',(#1454),#896,.T.);
#1454 = FACE_BOUND('',#1455,.T.);
#1455 = EDGE_LOOP('',(#1456,#1482,#1483));
#1456 = ORIENTED_EDGE('',*,*,#1457,.T.);
#1457 = EDGE_CURVE('',#1405,#824,#1458,.T.);
#1458 = SURFACE_CURVE('',#1459,(#1463,#1470),.PCURVE_S1.);
#1459 = LINE('',#1460,#1461);
#1460 = CARTESIAN_POINT('',(23.810271868906,1.629691813731,
    10.400042833297));
#1461 = VECTOR('',#1462,1.);
#1462 = DIRECTION('',(0.775910932957,-0.327365944521,-0.539252967062));
#1463 = PCURVE('',#896,#1464);
#1464 = DEFINITIONAL_REPRESENTATION('',(#1465),#1469);
#1465 = LINE('',#1466,#1467);
#1466 = CARTESIAN_POINT('',(0.,0.));
#1467 = VECTOR('',#1468,1.);
#1468 = DIRECTION('',(-0.926403484267,0.376532315132));
#1469 = ( GEOMETRIC_REPRESENTATION_CONTEXT(2) 
PARAMETRIC_REPRESENTATION_CONTEXT() REPRESENTATION_CONTEXT('2D SPACE',''
  ) );
#1470 = PCURVE('',#1471,#1476);
#1471 = PLANE('',#1472);
#1472 = AXIS2_PLACEMENT_3D('',#1473,#1474,#1475);
#1473 = CARTESIAN_POINT('',(41.467106967517,1.680178034924,
    10.437417675457));
#1474 = DIRECTION('',(-1.340292368572E-03,0.853956588945,-0.520342529315
    ));
#1475 = DIRECTION('',(1.016467133865E-20,0.520342996683,0.853957355962)
  );
#1476 = DEFINITIONAL_REPRESENTATION('',(#1477),#1481);
#1477 = LINE('',#1478,#1479);
#1478 = CARTESIAN_POINT('',(-5.818667301703E-02,-17.65685095785));
#1479 = VECTOR('',#1480,1.);
#1480 = DIRECTION('',(-0.630841614532,0.775911629875));
#1481 = ( GEOMETRIC_REPRESENTATION_CONTEXT(2) 
PARAMETRIC_REPRESENTATION_CONTEXT() REPRESENTATION_CONTEXT('2D SPACE',''
  ) );
#1482 = ORIENTED_EDGE('',*,*,#880,.F.);
#1483 = ORIENTED_EDGE('',*,*,#1404,.F.);
#1484 = ADVANCED_FACE('',(#1485),#1471,.T.);
#1485 = FACE_BOUND('',#1486,.T.);
#1486 = EDGE_LOOP('',(#1487,#1508,#1509));
#1487 = ORIENTED_EDGE('',*,*,#1488,.F.);
#1488 = EDGE_CURVE('',#824,#1353,#1489,.T.);
#1489 = SURFACE_CURVE('',#1490,(#1494,#1501),.PCURVE_S1.);
#1490 = LINE('',#1491,#1492);
#1491 = CARTESIAN_POINT('',(38.772832714855,-4.683188512778,
    1.161997482252E-03));
#1492 = VECTOR('',#1493,1.);
#1493 = DIRECTION('',(0.215254909109,0.5083914106,0.833788640923));
#1494 = PCURVE('',#1471,#1495);
#1495 = DEFINITIONAL_REPRESENTATION('',(#1496),#1500);
#1496 = LINE('',#1497,#1498);
#1497 = CARTESIAN_POINT('',(-12.22325052333,-2.69427667264));
#1498 = VECTOR('',#1499,1.);
#1499 = DIRECTION('',(0.976557853314,0.21525510245));
#1500 = ( GEOMETRIC_REPRESENTATION_CONTEXT(2) 
PARAMETRIC_REPRESENTATION_CONTEXT() REPRESENTATION_CONTEXT('2D SPACE',''
  ) );
#1501 = PCURVE('',#1109,#1502);
#1502 = DEFINITIONAL_REPRESENTATION('',(#1503),#1507);
#1503 = LINE('',#1504,#1505);
#1504 = CARTESIAN_POINT('',(6.910228660233,-10.43626944881));
#1505 = VECTOR('',#1506,1.);
#1506 = DIRECTION('',(-0.552082120338,0.833789741124));
#1507 = ( GEOMETRIC_REPRESENTATION_CONTEXT(2) 
PARAMETRIC_REPRESENTATION_CONTEXT() REPRESENTATION_CONTEXT('2D SPACE',''
  ) );
#1508 = ORIENTED_EDGE('',*,*,#1457,.F.);
#1509 = ORIENTED_EDGE('',*,*,#1510,.T.);
#1510 = EDGE_CURVE('',#1405,#1353,#1511,.T.);
#1511 = SURFACE_CURVE('',#1512,(#1516,#1523),.PCURVE_S1.);
#1512 = LINE('',#1513,#1514);
#1513 = CARTESIAN_POINT('',(23.810271868906,1.629691813731,
    10.400042833297));
#1514 = VECTOR('',#1515,1.);
#1515 = DIRECTION('',(0.999993671973,2.859283752284E-03,
    2.116721679868E-03));
#1516 = PCURVE('',#1471,#1517);
#1517 = DEFINITIONAL_REPRESENTATION('',(#1518),#1522);
#1518 = LINE('',#1519,#1520);
#1519 = CARTESIAN_POINT('',(-5.818667301703E-02,-17.65685095785));
#1520 = VECTOR('',#1521,1.);
#1521 = DIRECTION('',(3.29539832508E-03,0.99999457016));
#1522 = ( GEOMETRIC_REPRESENTATION_CONTEXT(2) 
PARAMETRIC_REPRESENTATION_CONTEXT() REPRESENTATION_CONTEXT('2D SPACE',''
  ) );
#1523 = PCURVE('',#1524,#1529);
#1524 = PLANE('',#1525);
#1525 = AXIS2_PLACEMENT_3D('',#1526,#1527,#1528);
#1526 = CARTESIAN_POINT('',(21.263481364956,1.652082792102,
    10.445982064268));
#1527 = DIRECTION('',(-1.416068458582E-03,0.865750038561,-0.500474640199
    ));
#1528 = DIRECTION('',(-1.905715104498E-20,0.500475141988,0.865750906585)
  );
#1529 = DEFINITIONAL_REPRESENTATION('',(#1530),#1534);
#1530 = LINE('',#1531,#1532);
#1531 = CARTESIAN_POINT('',(-5.097805894065E-02,2.546793057429));
#1532 = VECTOR('',#1533,1.);
#1533 = DIRECTION('',(3.263554155242E-03,0.999994674593));
#1534 = ( GEOMETRIC_REPRESENTATION_CONTEXT(2) 
PARAMETRIC_REPRESENTATION_CONTEXT() REPRESENTATION_CONTEXT('2D SPACE',''
  ) );
#1535 = ADVANCED_FACE('',(#1536),#1109,.T.);
#1536 = FACE_BOUND('',#1537,.T.);
#1537 = EDGE_LOOP('',(#1538,#1539,#1540));
#1538 = ORIENTED_EDGE('',*,*,#1352,.T.);
#1539 = ORIENTED_EDGE('',*,*,#1095,.F.);
#1540 = ORIENTED_EDGE('',*,*,#1488,.T.);
#1541 = ADVANCED_FACE('',(#1542),#72,.T.);
#1542 = FACE_BOUND('',#1543,.T.);
#1543 = EDGE_LOOP('',(#1544,#1545,#1566));
#1544 = ORIENTED_EDGE('',*,*,#56,.F.);
#1545 = ORIENTED_EDGE('',*,*,#1546,.T.);
#1546 = EDGE_CURVE('',#22,#1405,#1547,.T.);
#1547 = SURFACE_CURVE('',#1548,(#1552,#1559),.PCURVE_S1.);
#1548 = LINE('',#1549,#1550);
#1549 = CARTESIAN_POINT('',(21.263481364956,1.652082792102,
    10.445982064268));
#1550 = VECTOR('',#1551,1.);
#1551 = DIRECTION('',(0.999798726237,-8.790071904153E-03,
    -1.803445730545E-02));
#1552 = PCURVE('',#72,#1553);
#1553 = DEFINITIONAL_REPRESENTATION('',(#1554),#1558);
#1554 = LINE('',#1555,#1556);
#1555 = CARTESIAN_POINT('',(-9.048295541658,-11.14098468109));
#1556 = VECTOR('',#1557,1.);
#1557 = DIRECTION('',(0.999961363944,-8.790370805954E-03));
#1558 = ( GEOMETRIC_REPRESENTATION_CONTEXT(2) 
PARAMETRIC_REPRESENTATION_CONTEXT() REPRESENTATION_CONTEXT('2D SPACE',''
  ) );
#1559 = PCURVE('',#1524,#1560);
#1560 = DEFINITIONAL_REPRESENTATION('',(#1561),#1565);
#1561 = LINE('',#1562,#1563);
#1562 = CARTESIAN_POINT('',(0.,0.));
#1563 = VECTOR('',#1564,1.);
#1564 = DIRECTION('',(-2.001256024627E-02,0.999799728662));
#1565 = ( GEOMETRIC_REPRESENTATION_CONTEXT(2) 
PARAMETRIC_REPRESENTATION_CONTEXT() REPRESENTATION_CONTEXT('2D SPACE',''
  ) );
#1566 = ORIENTED_EDGE('',*,*,#1567,.T.);
#1567 = EDGE_CURVE('',#1405,#57,#1568,.T.);
#1568 = SURFACE_CURVE('',#1569,(#1573,#1580),.PCURVE_S1.);
#1569 = LINE('',#1570,#1571);
#1570 = CARTESIAN_POINT('',(23.810271868906,1.629691813731,
    10.400042833297));
#1571 = VECTOR('',#1572,1.);
#1572 = DIRECTION('',(0.503289387441,0.864115806533,-1.914520260109E-03)
  );
#1573 = PCURVE('',#72,#1574);
#1574 = DEFINITIONAL_REPRESENTATION('',(#1575),#1579);
#1575 = LINE('',#1576,#1577);
#1576 = CARTESIAN_POINT('',(-6.501090750156,-11.16337642085));
#1577 = VECTOR('',#1578,1.);
#1578 = DIRECTION('',(0.503242575715,0.86414519034));
#1579 = ( GEOMETRIC_REPRESENTATION_CONTEXT(2) 
PARAMETRIC_REPRESENTATION_CONTEXT() REPRESENTATION_CONTEXT('2D SPACE',''
  ) );
#1580 = PCURVE('',#1442,#1581);
#1581 = DEFINITIONAL_REPRESENTATION('',(#1582),#1586);
#1582 = LINE('',#1583,#1584);
#1583 = CARTESIAN_POINT('',(-6.500582799812,-11.16367221474));
#1584 = VECTOR('',#1585,1.);
#1585 = DIRECTION('',(0.503203255815,0.864168087433));
#1586 = ( GEOMETRIC_REPRESENTATION_CONTEXT(2) 
PARAMETRIC_REPRESENTATION_CONTEXT() REPRESENTATION_CONTEXT('2D SPACE',''
  ) );
#1587 = ADVANCED_FACE('',(#1588),#1442,.T.);
#1588 = FACE_BOUND('',#1589,.T.);
#1589 = EDGE_LOOP('',(#1590,#1591,#1592));
#1590 = ORIENTED_EDGE('',*,*,#1567,.F.);
#1591 = ORIENTED_EDGE('',*,*,#1428,.T.);
#1592 = ORIENTED_EDGE('',*,*,#1593,.F.);
#1593 = EDGE_CURVE('',#57,#1294,#1594,.T.);
#1594 = SURFACE_CURVE('',#1595,(#1599,#1606),.PCURVE_S1.);
#1595 = LINE('',#1596,#1597);
#1596 = CARTESIAN_POINT('',(30.311967351839,12.792688642716,
    10.375310287692));
#1597 = VECTOR('',#1598,1.);
#1598 = DIRECTION('',(0.665448888585,-0.746220335003,1.82479672488E-02)
  );
#1599 = PCURVE('',#1442,#1600);
#1600 = DEFINITIONAL_REPRESENTATION('',(#1601),#1605);
#1601 = LINE('',#1602,#1603);
#1602 = CARTESIAN_POINT('',(0.,0.));
#1603 = VECTOR('',#1604,1.);
#1604 = DIRECTION('',(0.665648427422,-0.746265482968));
#1605 = ( GEOMETRIC_REPRESENTATION_CONTEXT(2) 
PARAMETRIC_REPRESENTATION_CONTEXT() REPRESENTATION_CONTEXT('2D SPACE',''
  ) );
#1606 = PCURVE('',#1389,#1607);
#1607 = DEFINITIONAL_REPRESENTATION('',(#1608),#1612);
#1608 = LINE('',#1609,#1610);
#1609 = CARTESIAN_POINT('',(0.,0.));
#1610 = VECTOR('',#1611,1.);
#1611 = DIRECTION('',(-0.738242992998,-0.674534864399));
#1612 = ( GEOMETRIC_REPRESENTATION_CONTEXT(2) 
PARAMETRIC_REPRESENTATION_CONTEXT() REPRESENTATION_CONTEXT('2D SPACE',''
  ) );
#1613 = ADVANCED_FACE('',(#1614),#1524,.T.);
#1614 = FACE_BOUND('',#1615,.T.);
#1615 = EDGE_LOOP('',(#1616,#1637,#1638));
#1616 = ORIENTED_EDGE('',*,*,#1617,.T.);
#1617 = EDGE_CURVE('',#22,#1353,#1618,.T.);
#1618 = SURFACE_CURVE('',#1619,(#1623,#1630),.PCURVE_S1.);
#1619 = LINE('',#1620,#1621);
#1620 = CARTESIAN_POINT('',(21.263481364956,1.652082792102,
    10.445982064268));
#1621 = VECTOR('',#1622,1.);
#1622 = DIRECTION('',(0.999998943265,1.390602542575E-03,
    -4.239031117161E-04));
#1623 = PCURVE('',#1524,#1624);
#1624 = DEFINITIONAL_REPRESENTATION('',(#1625),#1629);
#1625 = LINE('',#1626,#1627);
#1626 = CARTESIAN_POINT('',(0.,0.));
#1627 = VECTOR('',#1628,1.);
#1628 = DIRECTION('',(3.289675016721E-04,0.99999994589));
#1629 = ( GEOMETRIC_REPRESENTATION_CONTEXT(2) 
PARAMETRIC_REPRESENTATION_CONTEXT() REPRESENTATION_CONTEXT('2D SPACE',''
  ) );
#1630 = PCURVE('',#1271,#1631);
#1631 = DEFINITIONAL_REPRESENTATION('',(#1632),#1636);
#1632 = LINE('',#1633,#1634);
#1633 = CARTESIAN_POINT('',(3.930150003242E-02,22.717007871971));
#1634 = VECTOR('',#1635,1.);
#1635 = DIRECTION('',(-1.346302173125E-03,-0.999999093735));
#1636 = ( GEOMETRIC_REPRESENTATION_CONTEXT(2) 
PARAMETRIC_REPRESENTATION_CONTEXT() REPRESENTATION_CONTEXT('2D SPACE',''
  ) );
#1637 = ORIENTED_EDGE('',*,*,#1510,.F.);
#1638 = ORIENTED_EDGE('',*,*,#1546,.F.);
#1639 = ADVANCED_FACE('',(#1640),#1271,.T.);
#1640 = FACE_BOUND('',#1641,.T.);
#1641 = EDGE_LOOP('',(#1642,#1663,#1664));
#1642 = ORIENTED_EDGE('',*,*,#1643,.F.);
#1643 = EDGE_CURVE('',#1353,#1158,#1644,.T.);
#1644 = SURFACE_CURVE('',#1645,(#1649,#1656),.PCURVE_S1.);
#1645 = LINE('',#1646,#1647);
#1646 = CARTESIAN_POINT('',(41.467106967517,1.680178034924,
    10.437417675457));
#1647 = VECTOR('',#1648,1.);
#1648 = DIRECTION('',(0.999988258837,4.081370630437E-03,
    -2.612394056771E-03));
#1649 = PCURVE('',#1271,#1650);
#1650 = DEFINITIONAL_REPRESENTATION('',(#1651),#1655);
#1651 = LINE('',#1652,#1653);
#1652 = CARTESIAN_POINT('',(1.210128623526E-02,2.513379229368));
#1653 = VECTOR('',#1654,1.);
#1654 = DIRECTION('',(-4.814691643644E-03,-0.999988409305));
#1655 = ( GEOMETRIC_REPRESENTATION_CONTEXT(2) 
PARAMETRIC_REPRESENTATION_CONTEXT() REPRESENTATION_CONTEXT('2D SPACE',''
  ) );
#1656 = PCURVE('',#1220,#1657);
#1657 = DEFINITIONAL_REPRESENTATION('',(#1658),#1662);
#1658 = LINE('',#1659,#1660);
#1659 = CARTESIAN_POINT('',(-1.031150247801E-02,2.513387209457));
#1660 = VECTOR('',#1661,1.);
#1661 = DIRECTION('',(4.102597347843E-03,-0.999991584312));
#1662 = ( GEOMETRIC_REPRESENTATION_CONTEXT(2) 
PARAMETRIC_REPRESENTATION_CONTEXT() REPRESENTATION_CONTEXT('2D SPACE',''
  ) );
#1663 = ORIENTED_EDGE('',*,*,#1617,.F.);
#1664 = ORIENTED_EDGE('',*,*,#1257,.T.);
#1665 = ADVANCED_FACE('',(#1666),#1389,.T.);
#1666 = FACE_BOUND('',#1667,.T.);
#1667 = EDGE_LOOP('',(#1668,#1669,#1670));
#1668 = ORIENTED_EDGE('',*,*,#1593,.T.);
#1669 = ORIENTED_EDGE('',*,*,#1375,.T.);
#1670 = ORIENTED_EDGE('',*,*,#1671,.F.);
#1671 = EDGE_CURVE('',#57,#1353,#1672,.T.);
#1672 = SURFACE_CURVE('',#1673,(#1677,#1684),.PCURVE_S1.);
#1673 = LINE('',#1674,#1675);
#1674 = CARTESIAN_POINT('',(30.311967351839,12.792688642716,
    10.375310287692));
#1675 = VECTOR('',#1676,1.);
#1676 = DIRECTION('',(0.708453651228,-0.705746318346,3.944388608837E-03)
  );
#1677 = PCURVE('',#1389,#1678);
#1678 = DEFINITIONAL_REPRESENTATION('',(#1679),#1683);
#1679 = LINE('',#1680,#1681);
#1680 = CARTESIAN_POINT('',(0.,0.));
#1681 = VECTOR('',#1682,1.);
#1682 = DIRECTION('',(-0.695912268025,-0.71812680998));
#1683 = ( GEOMETRIC_REPRESENTATION_CONTEXT(2) 
PARAMETRIC_REPRESENTATION_CONTEXT() REPRESENTATION_CONTEXT('2D SPACE',''
  ) );
#1684 = PCURVE('',#1220,#1685);
#1685 = DEFINITIONAL_REPRESENTATION('',(#1686),#1690);
#1686 = LINE('',#1687,#1688);
#1687 = CARTESIAN_POINT('',(11.102335423412,13.668563921713));
#1688 = VECTOR('',#1689,1.);
#1689 = DIRECTION('',(-0.705754975796,-0.708456007201));
#1690 = ( GEOMETRIC_REPRESENTATION_CONTEXT(2) 
PARAMETRIC_REPRESENTATION_CONTEXT() REPRESENTATION_CONTEXT('2D SPACE',''
  ) );
#1691 = ADVANCED_FACE('',(#1692),#1220,.T.);
#1692 = FACE_BOUND('',#1693,.T.);
#1693 = EDGE_LOOP('',(#1694,#1695,#1696));
#1694 = ORIENTED_EDGE('',*,*,#1206,.F.);
#1695 = ORIENTED_EDGE('',*,*,#1671,.T.);
#1696 = ORIENTED_EDGE('',*,*,#1643,.T.);
#1697 = ( GEOMETRIC_REPRESENTATION_CONTEXT(3) 
GLOBAL_UNCERTAINTY_ASSIGNED_CONTEXT((#1701)) 
GLOBAL_UNIT_ASSIGNED_CONTEXT((#1698,#1699,#1700)) REPRESENTATION_CONTEXT
('Context #1','3D Context with UNIT and UNCERTAINTY') );
#1698 = ( LENGTH_UNIT() NAMED_UNIT(*) SI_UNIT(.MILLI.,.METRE.) );
#1699 = ( NAMED_UNIT(*) PLANE_ANGLE_UNIT() SI_UNIT($,.RADIAN.) );
#1700 = ( NAMED_UNIT(*) SI_UNIT($,.STERADIAN.) SOLID_ANGLE_UNIT() );
#1701 = UNCERTAINTY_MEASURE_WITH_UNIT(LENGTH_MEASURE(1.E-07),#1698,
  'distance_accuracy_value','confusion accuracy');
#1702 = PRODUCT_TYPE('part',$,(#7));
ENDSEC;
END-ISO-10303-21;
