ISO-10303-21;
HEADER;
FILE_DESCRIPTION(('Open CASCADE Model'),'2;1');
FILE_NAME('Open CASCADE Shape Model','2026-10-04T20:52:15',('Author'),(
    'Open CASCADE'),'Open CASCADE STEP processor 7.8','Open CASCADE 7.8'
  ,'Unknown');
FILE_SCHEMA(('AUTOMOTIVE_DESIGN_CC2 { 1 2 10303 214 -1 1 5 4 }'));
ENDSEC;
DATA;
#1 = APPLICATION_PROTOCOL_DEFINITION('committee draft',
  'automotive_design',1997,#2);
#2 = APPLICATION_CONTEXT(
  'core data for automotive mechanical design processes');
#3 = SHAPE_DEFINITION_REPRESENTATION(#4,#10);
#4 = PRODUCT_DEFINITION_SHAPE('','',#5);
#5 = PRODUCT_DEFINITION('design','',#6,#9);
#6 = PRODUCT_DEFINITION_FORMATION('','',#7);
#7 = PRODUCT('Open CASCADE STEP translator 7.8 139',
  'Open CASCADE STEP translator 7.8 139','',(#8));
#8 = MECHANICAL_CONTEXT('',#2,'mechanical');
#9 = PRODUCT_DEFINITION_CONTEXT('part definition',#2,'design');
#10 = ADVANCED_BREP_SHAPE_REPRESENTATION('',(#11,#15),#1697);
#11 = AXIS2_PLACEMENT_3D('',#12,#13,#14);
#12 = CARTESIAN_POINT('',(0.,0.,0.));
#13 = DIRECTION('',(0.,0.,1.));
#14 = DIRECTION('',(1.,0.,-0.));
#15 = MANIFOLD_SOLID_BREP('',#16);
#16 = CLOSED_SHELL('',(#17,#109,#167,#225,#278,#336,#394,#452,#510,#568,
    #619,#650,#703,#734,#787,#813,#866,#919,#950,#1008,#1059,#1110,#1116
    ,#1142,#1148,#1179,#1232,#1258,#1289,#1347,#1395,#1426,#1457,#1510,
    #1541,#1587,#1613,#1639,#1665,#1691));
#17 = ADVANCED_FACE('',(#18),#32,.T.);
#18 = FACE_BOUND('',#19,.T.);
#19 = EDGE_LOOP('',(#20,#55,#83));
#20 = ORIENTED_EDGE('',*,*,#21,.F.);
#21 = EDGE_CURVE('',#22,#24,#26,.T.);
#22 = VERTEX_POINT('',#23);
#23 = CARTESIAN_POINT('',(-44.98769969392,35.750348890786,7.981728526761
    ));
#24 = VERTEX_POINT('',#25);
#25 = CARTESIAN_POINT('',(-33.95117281128,34.835528236206,
    13.207518059091));
#26 = SURFACE_CURVE('',#27,(#31,#43),.PCURVE_S1.);
#27 = LINE('',#28,#29);
#28 = CARTESIAN_POINT('',(-44.98769969392,35.750348890786,7.981728526761
    ));
#29 = VECTOR('',#30,1.);
#30 = DIRECTION('',(0.901276772401,-7.470707185812E-02,0.426754066114));
#31 = PCURVE('',#32,#37);
#32 = PLANE('',#33);
#33 = AXIS2_PLACEMENT_3D('',#34,#35,#36);
#34 = CARTESIAN_POINT('',(-33.95117281128,34.835528236206,
    13.207518059091));
#35 = DIRECTION('',(-8.510978435939E-02,-0.996357349211,
    5.325155267908E-03));
#36 = DIRECTION('',(-0.996371476503,8.511099112599E-02,
    2.123144803171E-20));
#37 = DEFINITIONAL_REPRESENTATION('',(#38),#42);
#38 = LINE('',#39,#40);
#39 = CARTESIAN_POINT('',(11.074341878141,5.225863628491));
#40 = VECTOR('',#41,1.);
#41 = DIRECTION('',(-0.904364861385,-0.426760117035));
#42 = ( GEOMETRIC_REPRESENTATION_CONTEXT(2) 
PARAMETRIC_REPRESENTATION_CONTEXT() REPRESENTATION_CONTEXT('2D SPACE',''
  ) );
#43 = PCURVE('',#44,#49);
#44 = PLANE('',#45);
#45 = AXIS2_PLACEMENT_3D('',#46,#47,#48);
#46 = CARTESIAN_POINT('',(-44.37102382039,37.505785040744,
    13.245566690534));
#47 = DIRECTION('',(-0.233016141956,-0.91400565438,0.332110134366));
#48 = DIRECTION('',(-3.518931857631E-18,-0.341510951659,-0.939877795193)
  );
#49 = DEFINITIONAL_REPRESENTATION('',(#50),#54);
#50 = LINE('',#51,#52);
#51 = CARTESIAN_POINT('',(5.546865277769,-0.634131701032));
#52 = VECTOR('',#53,1.);
#53 = DIRECTION('',(-0.375583387543,0.926788605347));
#54 = ( GEOMETRIC_REPRESENTATION_CONTEXT(2) 
PARAMETRIC_REPRESENTATION_CONTEXT() REPRESENTATION_CONTEXT('2D SPACE',''
  ) );
#55 = ORIENTED_EDGE('',*,*,#56,.T.);
#56 = EDGE_CURVE('',#22,#57,#59,.T.);
#57 = VERTEX_POINT('',#58);
#58 = CARTESIAN_POINT('',(-34.01860207964,34.813349878505,7.980166220799
    ));
#59 = SURFACE_CURVE('',#60,(#64,#71),.PCURVE_S1.);
#60 = LINE('',#61,#62);
#61 = CARTESIAN_POINT('',(-44.98769969392,35.750348890786,7.981728526761
    ));
#62 = VECTOR('',#63,1.);
#63 = DIRECTION('',(0.996371402151,-8.511174323633E-02,
    -1.419111249523E-04));
#64 = PCURVE('',#32,#65);
#65 = DEFINITIONAL_REPRESENTATION('',(#66),#70);
#66 = LINE('',#67,#68);
#67 = CARTESIAN_POINT('',(11.074341878141,5.225863628491));
#68 = VECTOR('',#69,1.);
#69 = DIRECTION('',(-0.99999998993,1.419131371017E-04));
#70 = ( GEOMETRIC_REPRESENTATION_CONTEXT(2) 
PARAMETRIC_REPRESENTATION_CONTEXT() REPRESENTATION_CONTEXT('2D SPACE',''
  ) );
#71 = PCURVE('',#72,#77);
#72 = PLANE('',#73);
#73 = AXIS2_PLACEMENT_3D('',#74,#75,#76);
#74 = CARTESIAN_POINT('',(-44.98769969392,35.750348890786,7.981728526761
    ));
#75 = DIRECTION('',(7.087973504095E-03,8.131447232292E-02,0.9966632918)
  );
#76 = DIRECTION('',(6.098263572831E-20,0.996688328611,
    -8.131651499376E-02));
#77 = DEFINITIONAL_REPRESENTATION('',(#78),#82);
#78 = LINE('',#79,#80);
#79 = CARTESIAN_POINT('',(0.,0.));
#80 = VECTOR('',#81,1.);
#81 = DIRECTION('',(-8.481834139326E-02,-0.996396431629));
#82 = ( GEOMETRIC_REPRESENTATION_CONTEXT(2) 
PARAMETRIC_REPRESENTATION_CONTEXT() REPRESENTATION_CONTEXT('2D SPACE',''
  ) );
#83 = ORIENTED_EDGE('',*,*,#84,.T.);
#84 = EDGE_CURVE('',#57,#24,#85,.T.);
#85 = SURFACE_CURVE('',#86,(#90,#97),.PCURVE_S1.);
#86 = LINE('',#87,#88);
#87 = CARTESIAN_POINT('',(-34.01860207964,34.813349878505,7.980166220799
    ));
#88 = VECTOR('',#89,1.);
#89 = DIRECTION('',(1.289812787627E-02,4.242360931459E-03,0.999907816087
    ));
#90 = PCURVE('',#32,#91);
#91 = DEFINITIONAL_REPRESENTATION('',(#92),#96);
#92 = LINE('',#93,#94);
#93 = CARTESIAN_POINT('',(6.529697766825E-02,5.227425956605));
#94 = VECTOR('',#95,1.);
#95 = DIRECTION('',(-1.249025517262E-02,-0.99992199372));
#96 = ( GEOMETRIC_REPRESENTATION_CONTEXT(2) 
PARAMETRIC_REPRESENTATION_CONTEXT() REPRESENTATION_CONTEXT('2D SPACE',''
  ) );
#97 = PCURVE('',#98,#103);
#98 = PLANE('',#99);
#99 = AXIS2_PLACEMENT_3D('',#100,#101,#102);
#100 = CARTESIAN_POINT('',(-33.95117281128,34.835528236206,
    13.207518059091));
#101 = DIRECTION('',(-0.89630200293,0.443338475014,9.680708429326E-03));
#102 = DIRECTION('',(-0.443359250454,-0.896344004854,8.921063939216E-19)
  );
#103 = DEFINITIONAL_REPRESENTATION('',(#104),#108);
#104 = LINE('',#105,#106);
#105 = CARTESIAN_POINT('',(4.977482784132E-02,-5.227596799065));
#106 = VECTOR('',#107,1.);
#107 = DIRECTION('',(-9.521119094819E-03,0.999954673118));
#108 = ( GEOMETRIC_REPRESENTATION_CONTEXT(2) 
PARAMETRIC_REPRESENTATION_CONTEXT() REPRESENTATION_CONTEXT('2D SPACE',''
  ) );
#109 = ADVANCED_FACE('',(#110),#44,.T.);
#110 = FACE_BOUND('',#111,.T.);
#111 = EDGE_LOOP('',(#112,#140,#141));
#112 = ORIENTED_EDGE('',*,*,#113,.F.);
#113 = EDGE_CURVE('',#22,#114,#116,.T.);
#114 = VERTEX_POINT('',#115);
#115 = CARTESIAN_POINT('',(-44.37102382039,37.505785040744,
    13.245566690534));
#116 = SURFACE_CURVE('',#117,(#121,#128),.PCURVE_S1.);
#117 = LINE('',#118,#119);
#118 = CARTESIAN_POINT('',(-44.98769969392,35.750348890786,
    7.981728526761));
#119 = VECTOR('',#120,1.);
#120 = DIRECTION('',(0.110456095958,0.314425506412,0.942834053152));
#121 = PCURVE('',#44,#122);
#122 = DEFINITIONAL_REPRESENTATION('',(#123),#127);
#123 = LINE('',#124,#125);
#124 = CARTESIAN_POINT('',(5.546865277769,-0.634131701032));
#125 = VECTOR('',#126,1.);
#126 = DIRECTION('',(-0.99352854503,0.113582702073));
#127 = ( GEOMETRIC_REPRESENTATION_CONTEXT(2) 
PARAMETRIC_REPRESENTATION_CONTEXT() REPRESENTATION_CONTEXT('2D SPACE',''
  ) );
#128 = PCURVE('',#129,#134);
#129 = PLANE('',#130);
#130 = AXIS2_PLACEMENT_3D('',#131,#132,#133);
#131 = CARTESIAN_POINT('',(-45.07235826161,34.796756893679,
    13.171399303488));
#132 = DIRECTION('',(0.967845159819,-0.249739247407,-3.010074616353E-02)
  );
#133 = DIRECTION('',(0.249852463085,0.96828391843,3.032768347547E-19));
#134 = DEFINITIONAL_REPRESENTATION('',(#135),#139);
#135 = LINE('',#136,#137);
#136 = CARTESIAN_POINT('',(0.9444999472,-5.192023438948));
#137 = VECTOR('',#138,1.);
#138 = DIRECTION('',(0.332050889041,0.94326147334));
#139 = ( GEOMETRIC_REPRESENTATION_CONTEXT(2) 
PARAMETRIC_REPRESENTATION_CONTEXT() REPRESENTATION_CONTEXT('2D SPACE',''
  ) );
#140 = ORIENTED_EDGE('',*,*,#21,.T.);
#141 = ORIENTED_EDGE('',*,*,#142,.F.);
#142 = EDGE_CURVE('',#114,#24,#143,.T.);
#143 = SURFACE_CURVE('',#144,(#148,#155),.PCURVE_S1.);
#144 = LINE('',#145,#146);
#145 = CARTESIAN_POINT('',(-44.37102382039,37.505785040744,
    13.245566690534));
#146 = VECTOR('',#147,1.);
#147 = DIRECTION('',(0.968691344536,-0.24824295971,-3.537227155939E-03)
  );
#148 = PCURVE('',#44,#149);
#149 = DEFINITIONAL_REPRESENTATION('',(#150),#154);
#150 = LINE('',#151,#152);
#151 = CARTESIAN_POINT('',(-0.,0.));
#152 = VECTOR('',#153,1.);
#153 = DIRECTION('',(8.810225067383E-02,0.996111436249));
#154 = ( GEOMETRIC_REPRESENTATION_CONTEXT(2) 
PARAMETRIC_REPRESENTATION_CONTEXT() REPRESENTATION_CONTEXT('2D SPACE',''
  ) );
#155 = PCURVE('',#156,#161);
#156 = PLANE('',#157);
#157 = AXIS2_PLACEMENT_3D('',#158,#159,#160);
#158 = CARTESIAN_POINT('',(-33.95117281128,34.835528236206,
    13.207518059091));
#159 = DIRECTION('',(7.292060769097E-03,1.420777485969E-02,0.99987247436
    ));
#160 = DIRECTION('',(4.208643441317E-22,0.999899059105,
    -1.420815261793E-02));
#161 = DEFINITIONAL_REPRESENTATION('',(#162),#166);
#162 = LINE('',#163,#164);
#163 = CARTESIAN_POINT('',(2.669446665663,10.420128053519));
#164 = VECTOR('',#165,1.);
#165 = DIRECTION('',(-0.248167644381,-0.968717100232));
#166 = ( GEOMETRIC_REPRESENTATION_CONTEXT(2) 
PARAMETRIC_REPRESENTATION_CONTEXT() REPRESENTATION_CONTEXT('2D SPACE',''
  ) );
#167 = ADVANCED_FACE('',(#168),#156,.T.);
#168 = FACE_BOUND('',#169,.T.);
#169 = EDGE_LOOP('',(#170,#198,#224));
#170 = ORIENTED_EDGE('',*,*,#171,.F.);
#171 = EDGE_CURVE('',#172,#24,#174,.T.);
#172 = VERTEX_POINT('',#173);
#173 = CARTESIAN_POINT('',(-52.22800489927,43.241710094965,
    13.22136245558));
#174 = SURFACE_CURVE('',#175,(#179,#186),.PCURVE_S1.);
#175 = LINE('',#176,#177);
#176 = CARTESIAN_POINT('',(-52.22800489927,43.241710094965,
    13.22136245558));
#177 = VECTOR('',#178,1.);
#178 = DIRECTION('',(0.908512145366,-0.417857880297,-6.881828478164E-04)
  );
#179 = PCURVE('',#156,#180);
#180 = DEFINITIONAL_REPRESENTATION('',(#181),#185);
#181 = LINE('',#182,#183);
#182 = CARTESIAN_POINT('',(8.40513662794,18.277318034874));
#183 = VECTOR('',#184,1.);
#184 = DIRECTION('',(-0.417805923542,-0.90853630101));
#185 = ( GEOMETRIC_REPRESENTATION_CONTEXT(2) 
PARAMETRIC_REPRESENTATION_CONTEXT() REPRESENTATION_CONTEXT('2D SPACE',''
  ) );
#186 = PCURVE('',#187,#192);
#187 = PLANE('',#188);
#188 = AXIS2_PLACEMENT_3D('',#189,#190,#191);
#189 = CARTESIAN_POINT('',(52.219955482255,43.245788327019,
    13.214191485552));
#190 = DIRECTION('',(6.871430724981E-05,-1.497528995724E-03,
    0.999998876342));
#191 = DIRECTION('',(7.077149098539E-25,0.999998878703,1.49752899926E-03
    ));
#192 = DEFINITIONAL_REPRESENTATION('',(#193),#197);
#193 = LINE('',#194,#195);
#194 = CARTESIAN_POINT('',(-4.06748874564E-03,104.44796062811));
#195 = VECTOR('',#196,1.);
#196 = DIRECTION('',(-0.417858442328,-0.908512147511));
#197 = ( GEOMETRIC_REPRESENTATION_CONTEXT(2) 
PARAMETRIC_REPRESENTATION_CONTEXT() REPRESENTATION_CONTEXT('2D SPACE',''
  ) );
#198 = ORIENTED_EDGE('',*,*,#199,.T.);
#199 = EDGE_CURVE('',#172,#114,#200,.T.);
#200 = SURFACE_CURVE('',#201,(#205,#212),.PCURVE_S1.);
#201 = LINE('',#202,#203);
#202 = CARTESIAN_POINT('',(-52.22800489927,43.241710094965,
    13.22136245558));
#203 = VECTOR('',#204,1.);
#204 = DIRECTION('',(0.807668391198,-0.58963173184,2.488105203429E-03));
#205 = PCURVE('',#156,#206);
#206 = DEFINITIONAL_REPRESENTATION('',(#207),#211);
#207 = LINE('',#208,#209);
#208 = CARTESIAN_POINT('',(8.40513662794,18.277318034874));
#209 = VECTOR('',#210,1.);
#210 = DIRECTION('',(-0.589607565264,-0.807689865594));
#211 = ( GEOMETRIC_REPRESENTATION_CONTEXT(2) 
PARAMETRIC_REPRESENTATION_CONTEXT() REPRESENTATION_CONTEXT('2D SPACE',''
  ) );
#212 = PCURVE('',#213,#218);
#213 = PLANE('',#214);
#214 = AXIS2_PLACEMENT_3D('',#215,#216,#217);
#215 = CARTESIAN_POINT('',(-44.37102382039,37.505785040744,
    13.245566690534));
#216 = DIRECTION('',(-1.939235155148E-02,-2.234542804131E-02,
    0.999562213445));
#217 = DIRECTION('',(2.791147124407E-20,0.999750215804,
    2.234963087443E-02));
#218 = DEFINITIONAL_REPRESENTATION('',(#219),#223);
#219 = LINE('',#220,#221);
#220 = CARTESIAN_POINT('',(5.733951355075,7.858458856805));
#221 = VECTOR('',#222,1.);
#222 = DIRECTION('',(-0.589428842919,-0.807820301265));
#223 = ( GEOMETRIC_REPRESENTATION_CONTEXT(2) 
PARAMETRIC_REPRESENTATION_CONTEXT() REPRESENTATION_CONTEXT('2D SPACE',''
  ) );
#224 = ORIENTED_EDGE('',*,*,#142,.T.);
#225 = ADVANCED_FACE('',(#226),#213,.T.);
#226 = FACE_BOUND('',#227,.T.);
#227 = EDGE_LOOP('',(#228,#229,#257));
#228 = ORIENTED_EDGE('',*,*,#199,.F.);
#229 = ORIENTED_EDGE('',*,*,#230,.T.);
#230 = EDGE_CURVE('',#172,#231,#233,.T.);
#231 = VERTEX_POINT('',#232);
#232 = CARTESIAN_POINT('',(-45.07235826161,34.796756893679,
    13.171399303488));
#233 = SURFACE_CURVE('',#234,(#238,#245),.PCURVE_S1.);
#234 = LINE('',#235,#236);
#235 = CARTESIAN_POINT('',(-52.22800489927,43.241710094965,
    13.22136245558));
#236 = VECTOR('',#237,1.);
#237 = DIRECTION('',(0.646457618173,-0.762936546273,-4.513786375063E-03)
  );
#238 = PCURVE('',#213,#239);
#239 = DEFINITIONAL_REPRESENTATION('',(#240),#244);
#240 = LINE('',#241,#242);
#241 = CARTESIAN_POINT('',(5.733951355075,7.858458856805));
#242 = VECTOR('',#243,1.);
#243 = DIRECTION('',(-0.76284685824,-0.64657920696));
#244 = ( GEOMETRIC_REPRESENTATION_CONTEXT(2) 
PARAMETRIC_REPRESENTATION_CONTEXT() REPRESENTATION_CONTEXT('2D SPACE',''
  ) );
#245 = PCURVE('',#246,#251);
#246 = PLANE('',#247);
#247 = AXIS2_PLACEMENT_3D('',#248,#249,#250);
#248 = CARTESIAN_POINT('',(-52.22800489927,43.241710094965,
    13.22136245558));
#249 = DIRECTION('',(6.802311010215E-03,-1.524060140743E-04,
    0.999976852401));
#250 = DIRECTION('',(0.999976864014,7.12180743971E-23,
    -6.802311089215E-03));
#251 = DEFINITIONAL_REPRESENTATION('',(#252),#256);
#252 = LINE('',#253,#254);
#253 = CARTESIAN_POINT('',(0.,0.));
#254 = VECTOR('',#255,1.);
#255 = DIRECTION('',(0.646473365918,-0.762936555133));
#256 = ( GEOMETRIC_REPRESENTATION_CONTEXT(2) 
PARAMETRIC_REPRESENTATION_CONTEXT() REPRESENTATION_CONTEXT('2D SPACE',''
  ) );
#257 = ORIENTED_EDGE('',*,*,#258,.T.);
#258 = EDGE_CURVE('',#231,#114,#259,.T.);
#259 = SURFACE_CURVE('',#260,(#264,#271),.PCURVE_S1.);
#260 = LINE('',#261,#262);
#261 = CARTESIAN_POINT('',(-45.07235826161,34.796756893679,
    13.171399303488));
#262 = VECTOR('',#263,1.);
#263 = DIRECTION('',(0.250537241697,0.967744345293,2.649476695061E-02));
#264 = PCURVE('',#213,#265);
#265 = DEFINITIONAL_REPRESENTATION('',(#266),#270);
#266 = LINE('',#267,#268);
#267 = CARTESIAN_POINT('',(-2.71000908837,0.701466351494));
#268 = VECTOR('',#269,1.);
#269 = DIRECTION('',(0.968094766311,-0.250584363919));
#270 = ( GEOMETRIC_REPRESENTATION_CONTEXT(2) 
PARAMETRIC_REPRESENTATION_CONTEXT() REPRESENTATION_CONTEXT('2D SPACE',''
  ) );
#271 = PCURVE('',#129,#272);
#272 = DEFINITIONAL_REPRESENTATION('',(#273),#277);
#273 = LINE('',#274,#275);
#274 = CARTESIAN_POINT('',(0.,0.));
#275 = VECTOR('',#276,1.);
#276 = DIRECTION('',(0.999648633632,2.650677797018E-02));
#277 = ( GEOMETRIC_REPRESENTATION_CONTEXT(2) 
PARAMETRIC_REPRESENTATION_CONTEXT() REPRESENTATION_CONTEXT('2D SPACE',''
  ) );
#278 = ADVANCED_FACE('',(#279),#246,.T.);
#279 = FACE_BOUND('',#280,.T.);
#280 = EDGE_LOOP('',(#281,#309,#335));
#281 = ORIENTED_EDGE('',*,*,#282,.T.);
#282 = EDGE_CURVE('',#172,#283,#285,.T.);
#283 = VERTEX_POINT('',#284);
#284 = CARTESIAN_POINT('',(-52.1743273988,-43.24635454751,
    13.207815709756));
#285 = SURFACE_CURVE('',#286,(#290,#297),.PCURVE_S1.);
#286 = LINE('',#287,#288);
#287 = CARTESIAN_POINT('',(-52.22800489927,43.241710094965,
    13.22136245558));
#288 = VECTOR('',#289,1.);
#289 = DIRECTION('',(6.206346469837E-04,-0.99999979514,
    -1.566313583847E-04));
#290 = PCURVE('',#246,#291);
#291 = DEFINITIONAL_REPRESENTATION('',(#292),#296);
#292 = LINE('',#293,#294);
#293 = CARTESIAN_POINT('',(0.,0.));
#294 = VECTOR('',#295,1.);
#295 = DIRECTION('',(6.216857432154E-04,-0.999999806753));
#296 = ( GEOMETRIC_REPRESENTATION_CONTEXT(2) 
PARAMETRIC_REPRESENTATION_CONTEXT() REPRESENTATION_CONTEXT('2D SPACE',''
  ) );
#297 = PCURVE('',#298,#303);
#298 = PLANE('',#299);
#299 = AXIS2_PLACEMENT_3D('',#300,#301,#302);
#300 = CARTESIAN_POINT('',(-52.1743273988,-43.24635454751,
    13.207815709756));
#301 = DIRECTION('',(-0.999999780748,-6.205984563499E-04,
    -2.309990484685E-04));
#302 = DIRECTION('',(6.205984729076E-04,-0.999999807429,
    3.465959074959E-24));
#303 = DEFINITIONAL_REPRESENTATION('',(#304),#308);
#304 = LINE('',#305,#306);
#305 = CARTESIAN_POINT('',(-86.48808129953,1.354674618564E-02));
#306 = VECTOR('',#307,1.);
#307 = DIRECTION('',(0.999999987733,-1.566313625637E-04));
#308 = ( GEOMETRIC_REPRESENTATION_CONTEXT(2) 
PARAMETRIC_REPRESENTATION_CONTEXT() REPRESENTATION_CONTEXT('2D SPACE',''
  ) );
#309 = ORIENTED_EDGE('',*,*,#310,.T.);
#310 = EDGE_CURVE('',#283,#231,#311,.T.);
#311 = SURFACE_CURVE('',#312,(#316,#323),.PCURVE_S1.);
#312 = LINE('',#313,#314);
#313 = CARTESIAN_POINT('',(-52.1743273988,-43.24635454751,
    13.207815709756));
#314 = VECTOR('',#315,1.);
#315 = DIRECTION('',(9.062611092415E-02,0.995884878926,
    -4.646989039423E-04));
#316 = PCURVE('',#246,#317);
#317 = DEFINITIONAL_REPRESENTATION('',(#318),#322);
#318 = LINE('',#319,#320);
#319 = CARTESIAN_POINT('',(5.376840776153E-02,-86.48806564693));
#320 = VECTOR('',#321,1.);
#321 = DIRECTION('',(9.062717522625E-02,0.995884890492));
#322 = ( GEOMETRIC_REPRESENTATION_CONTEXT(2) 
PARAMETRIC_REPRESENTATION_CONTEXT() REPRESENTATION_CONTEXT('2D SPACE',''
  ) );
#323 = PCURVE('',#324,#329);
#324 = PLANE('',#325);
#325 = AXIS2_PLACEMENT_3D('',#326,#327,#328);
#326 = CARTESIAN_POINT('',(-33.95117281128,34.835528236206,
    13.207518059091));
#327 = DIRECTION('',(-3.250383142019E-03,7.624032790853E-04,
    0.99999442686));
#328 = DIRECTION('',(0.999994717488,-3.191371145764E-22,
    3.250384086676E-03));
#329 = DEFINITIONAL_REPRESENTATION('',(#330),#334);
#330 = LINE('',#331,#332);
#331 = CARTESIAN_POINT('',(-18.223057356,-78.08190547661));
#332 = VECTOR('',#333,1.);
#333 = DIRECTION('',(9.062412174068E-02,0.99588516836));
#334 = ( GEOMETRIC_REPRESENTATION_CONTEXT(2) 
PARAMETRIC_REPRESENTATION_CONTEXT() REPRESENTATION_CONTEXT('2D SPACE',''
  ) );
#335 = ORIENTED_EDGE('',*,*,#230,.F.);
#336 = ADVANCED_FACE('',(#337),#298,.T.);
#337 = FACE_BOUND('',#338,.T.);
#338 = EDGE_LOOP('',(#339,#340,#368));
#339 = ORIENTED_EDGE('',*,*,#282,.F.);
#340 = ORIENTED_EDGE('',*,*,#341,.T.);
#341 = EDGE_CURVE('',#172,#342,#344,.T.);
#342 = VERTEX_POINT('',#343);
#343 = CARTESIAN_POINT('',(-52.22500063574,43.313900092397,
    2.189737452537E-02));
#344 = SURFACE_CURVE('',#345,(#349,#356),.PCURVE_S1.);
#345 = LINE('',#346,#347);
#346 = CARTESIAN_POINT('',(-52.22800489927,43.241710094965,
    13.22136245558));
#347 = VECTOR('',#348,1.);
#348 = DIRECTION('',(2.276015357545E-04,5.46907889675E-03,
    -0.999985018575));
#349 = PCURVE('',#298,#350);
#350 = DEFINITIONAL_REPRESENTATION('',(#351),#355);
#351 = LINE('',#352,#353);
#352 = CARTESIAN_POINT('',(-86.48808129953,1.354674618564E-02));
#353 = VECTOR('',#354,1.);
#354 = DIRECTION('',(-5.468936594398E-03,-0.999985045254));
#355 = ( GEOMETRIC_REPRESENTATION_CONTEXT(2) 
PARAMETRIC_REPRESENTATION_CONTEXT() REPRESENTATION_CONTEXT('2D SPACE',''
  ) );
#356 = PCURVE('',#357,#362);
#357 = PLANE('',#358);
#358 = AXIS2_PLACEMENT_3D('',#359,#360,#361);
#359 = CARTESIAN_POINT('',(52.192299465472,43.310940488381,
    -7.327424549513E-03));
#360 = DIRECTION('',(2.98742898358E-05,0.999985043992,5.469085835299E-03
    ));
#361 = DIRECTION('',(-1.750517161102E-23,-5.469085837739E-03,
    0.999985044438));
#362 = DEFINITIONAL_REPRESENTATION('',(#363),#367);
#363 = LINE('',#364,#365);
#364 = CARTESIAN_POINT('',(13.228870664605,-104.4203044113));
#365 = VECTOR('',#366,1.);
#366 = DIRECTION('',(-0.999999974099,2.27601535856E-04));
#367 = ( GEOMETRIC_REPRESENTATION_CONTEXT(2) 
PARAMETRIC_REPRESENTATION_CONTEXT() REPRESENTATION_CONTEXT('2D SPACE',''
  ) );
#368 = ORIENTED_EDGE('',*,*,#369,.T.);
#369 = EDGE_CURVE('',#342,#283,#370,.T.);
#370 = SURFACE_CURVE('',#371,(#375,#382),.PCURVE_S1.);
#371 = LINE('',#372,#373);
#372 = CARTESIAN_POINT('',(-52.22500063574,43.313900092397,
    2.189737452537E-02));
#373 = VECTOR('',#374,1.);
#374 = DIRECTION('',(5.787336010571E-04,-0.988595379116,0.150594958273)
  );
#375 = PCURVE('',#298,#376);
#376 = DEFINITIONAL_REPRESENTATION('',(#377),#381);
#377 = LINE('',#378,#379);
#378 = CARTESIAN_POINT('',(-86.56026941862,-13.18591868703));
#379 = VECTOR('',#380,1.);
#380 = DIRECTION('',(0.988595547902,0.150594962291));
#381 = ( GEOMETRIC_REPRESENTATION_CONTEXT(2) 
PARAMETRIC_REPRESENTATION_CONTEXT() REPRESENTATION_CONTEXT('2D SPACE',''
  ) );
#382 = PCURVE('',#383,#388);
#383 = PLANE('',#384);
#384 = AXIS2_PLACEMENT_3D('',#385,#386,#387);
#385 = CARTESIAN_POINT('',(-52.1743273988,-43.24635454751,
    13.207815709756));
#386 = DIRECTION('',(-0.999996064483,-1.587188865121E-04,
    2.801040423222E-03));
#387 = DIRECTION('',(-2.801040458504E-03,-1.403366411069E-23,
    -0.999996077078));
#388 = DEFINITIONAL_REPRESENTATION('',(#389),#393);
#389 = LINE('',#390,#391);
#390 = CARTESIAN_POINT('',(13.186008545694,-86.5602557302));
#391 = VECTOR('',#392,1.);
#392 = DIRECTION('',(-0.150595988557,0.988595391568));
#393 = ( GEOMETRIC_REPRESENTATION_CONTEXT(2) 
PARAMETRIC_REPRESENTATION_CONTEXT() REPRESENTATION_CONTEXT('2D SPACE',''
  ) );
#394 = ADVANCED_FACE('',(#395),#383,.T.);
#395 = FACE_BOUND('',#396,.T.);
#396 = EDGE_LOOP('',(#397,#398,#426));
#397 = ORIENTED_EDGE('',*,*,#369,.F.);
#398 = ORIENTED_EDGE('',*,*,#399,.T.);
#399 = EDGE_CURVE('',#342,#400,#402,.T.);
#400 = VERTEX_POINT('',#401);
#401 = CARTESIAN_POINT('',(-52.2113613504,-43.26531019689,
    -1.470480855367E-02));
#402 = SURFACE_CURVE('',#403,(#407,#414),.PCURVE_S1.);
#403 = LINE('',#404,#405);
#404 = CARTESIAN_POINT('',(-52.22500063574,43.313900092397,
    2.189737452537E-02));
#405 = VECTOR('',#406,1.);
#406 = DIRECTION('',(1.575353240323E-04,-0.999999898229,
    -4.22759450354E-04));
#407 = PCURVE('',#383,#408);
#408 = DEFINITIONAL_REPRESENTATION('',(#409),#413);
#409 = LINE('',#410,#411);
#410 = CARTESIAN_POINT('',(13.186008545694,-86.5602557302));
#411 = VECTOR('',#412,1.);
#412 = DIRECTION('',(4.223165290856E-04,0.999999910824));
#413 = ( GEOMETRIC_REPRESENTATION_CONTEXT(2) 
PARAMETRIC_REPRESENTATION_CONTEXT() REPRESENTATION_CONTEXT('2D SPACE',''
  ) );
#414 = PCURVE('',#415,#420);
#415 = PLANE('',#416);
#416 = AXIS2_PLACEMENT_3D('',#417,#418,#419);
#417 = CARTESIAN_POINT('',(-52.22500063574,43.313900092397,
    2.189737452537E-02));
#418 = DIRECTION('',(2.943094616326E-03,4.232212659941E-04,
    -0.999995579529));
#419 = DIRECTION('',(-0.999995669087,5.667285390012E-23,
    -2.943094879904E-03));
#420 = DEFINITIONAL_REPRESENTATION('',(#421),#425);
#421 = LINE('',#422,#423);
#422 = CARTESIAN_POINT('',(0.,0.));
#423 = VECTOR('',#424,1.);
#424 = DIRECTION('',(-1.562904205867E-04,-0.999999987787));
#425 = ( GEOMETRIC_REPRESENTATION_CONTEXT(2) 
PARAMETRIC_REPRESENTATION_CONTEXT() REPRESENTATION_CONTEXT('2D SPACE',''
  ) );
#426 = ORIENTED_EDGE('',*,*,#427,.T.);
#427 = EDGE_CURVE('',#400,#283,#428,.T.);
#428 = SURFACE_CURVE('',#429,(#433,#440),.PCURVE_S1.);
#429 = LINE('',#430,#431);
#430 = CARTESIAN_POINT('',(-52.2113613504,-43.26531019689,
    -1.470480855367E-02));
#431 = VECTOR('',#432,1.);
#432 = DIRECTION('',(2.80081004471E-03,1.433581103382E-03,0.999995050142
    ));
#433 = PCURVE('',#383,#434);
#434 = DEFINITIONAL_REPRESENTATION('',(#435),#439);
#435 = LINE('',#436,#437);
#436 = CARTESIAN_POINT('',(13.222572380996,1.895564962066E-02));
#437 = VECTOR('',#438,1.);
#438 = DIRECTION('',(-0.999998972422,-1.433581121439E-03));
#439 = ( GEOMETRIC_REPRESENTATION_CONTEXT(2) 
PARAMETRIC_REPRESENTATION_CONTEXT() REPRESENTATION_CONTEXT('2D SPACE',''
  ) );
#440 = PCURVE('',#441,#446);
#441 = PLANE('',#442);
#442 = AXIS2_PLACEMENT_3D('',#443,#444,#445);
#443 = CARTESIAN_POINT('',(52.202484830532,-43.26261063726,
    3.387153781184E-02));
#444 = DIRECTION('',(2.518748201728E-05,-0.999998972198,
    1.433516180293E-03));
#445 = DIRECTION('',(1.398716964036E-24,-1.433516180748E-03,
    -0.999998972515));
#446 = DEFINITIONAL_REPRESENTATION('',(#447),#451);
#447 = LINE('',#448,#449);
#448 = CARTESIAN_POINT('',(4.858016631646E-02,-104.413846214));
#449 = VECTOR('',#450,1.);
#450 = DIRECTION('',(-0.999996077724,2.800810045598E-03));
#451 = ( GEOMETRIC_REPRESENTATION_CONTEXT(2) 
PARAMETRIC_REPRESENTATION_CONTEXT() REPRESENTATION_CONTEXT('2D SPACE',''
  ) );
#452 = ADVANCED_FACE('',(#453),#441,.T.);
#453 = FACE_BOUND('',#454,.T.);
#454 = EDGE_LOOP('',(#455,#483,#484));
#455 = ORIENTED_EDGE('',*,*,#456,.F.);
#456 = EDGE_CURVE('',#283,#457,#459,.T.);
#457 = VERTEX_POINT('',#458);
#458 = CARTESIAN_POINT('',(52.202484830532,-43.26261063726,
    3.387153781184E-02));
#459 = SURFACE_CURVE('',#460,(#464,#471),.PCURVE_S1.);
#460 = LINE('',#461,#462);
#461 = CARTESIAN_POINT('',(-52.1743273988,-43.24635454751,
    13.207815709756));
#462 = VECTOR('',#463,1.);
#463 = DIRECTION('',(0.992128764312,-1.545183637768E-04,-0.125221767874)
  );
#464 = PCURVE('',#441,#465);
#465 = DEFINITIONAL_REPRESENTATION('',(#466),#470);
#466 = LINE('',#467,#468);
#467 = CARTESIAN_POINT('',(-13.17395393928,-104.3768122624));
#468 = VECTOR('',#469,1.);
#469 = DIRECTION('',(0.125221860715,0.992128764626));
#470 = ( GEOMETRIC_REPRESENTATION_CONTEXT(2) 
PARAMETRIC_REPRESENTATION_CONTEXT() REPRESENTATION_CONTEXT('2D SPACE',''
  ) );
#471 = PCURVE('',#472,#477);
#472 = PLANE('',#473);
#473 = AXIS2_PLACEMENT_3D('',#474,#475,#476);
#474 = CARTESIAN_POINT('',(52.216744009063,-43.26480400219,
    13.202956181466));
#475 = DIRECTION('',(-1.767417685804E-04,-0.999999970543,
    -1.663627146654E-04));
#476 = DIRECTION('',(-0.999999984381,1.767417710262E-04,
    -3.248313904539E-24));
#477 = DEFINITIONAL_REPRESENTATION('',(#478),#482);
#478 = LINE('',#479,#480);
#479 = CARTESIAN_POINT('',(104.39107303819,-4.859528357256E-03));
#480 = VECTOR('',#481,1.);
#481 = DIRECTION('',(-0.992128776126,0.125221769607));
#482 = ( GEOMETRIC_REPRESENTATION_CONTEXT(2) 
PARAMETRIC_REPRESENTATION_CONTEXT() REPRESENTATION_CONTEXT('2D SPACE',''
  ) );
#483 = ORIENTED_EDGE('',*,*,#427,.F.);
#484 = ORIENTED_EDGE('',*,*,#485,.T.);
#485 = EDGE_CURVE('',#400,#457,#486,.T.);
#486 = SURFACE_CURVE('',#487,(#491,#498),.PCURVE_S1.);
#487 = LINE('',#488,#489);
#488 = CARTESIAN_POINT('',(-52.2113613504,-43.26531019689,
    -1.470480855367E-02));
#489 = VECTOR('',#490,1.);
#490 = DIRECTION('',(0.999999891447,2.585441904343E-05,
    4.652289219211E-04));
#491 = PCURVE('',#441,#492);
#492 = DEFINITIONAL_REPRESENTATION('',(#493),#497);
#493 = LINE('',#494,#495);
#494 = CARTESIAN_POINT('',(4.858016631646E-02,-104.413846214));
#495 = VECTOR('',#496,1.);
#496 = DIRECTION('',(-4.652655066335E-04,0.999999891764));
#497 = ( GEOMETRIC_REPRESENTATION_CONTEXT(2) 
PARAMETRIC_REPRESENTATION_CONTEXT() REPRESENTATION_CONTEXT('2D SPACE',''
  ) );
#498 = PCURVE('',#499,#504);
#499 = PLANE('',#500);
#500 = AXIS2_PLACEMENT_3D('',#501,#502,#503);
#501 = CARTESIAN_POINT('',(52.202484830532,-43.26261063726,
    3.387153781184E-02));
#502 = DIRECTION('',(4.652102185601E-04,7.187685488898E-04,
    -0.999999633476));
#503 = DIRECTION('',(3.555605425189E-25,-0.999999741686,
    -7.187686266679E-04));
#504 = DEFINITIONAL_REPRESENTATION('',(#505),#509);
#505 = LINE('',#506,#507);
#506 = CARTESIAN_POINT('',(2.734474082575E-03,104.41385747959));
#507 = VECTOR('',#508,1.);
#508 = DIRECTION('',(-2.618880431816E-05,-0.999999999657));
#509 = ( GEOMETRIC_REPRESENTATION_CONTEXT(2) 
PARAMETRIC_REPRESENTATION_CONTEXT() REPRESENTATION_CONTEXT('2D SPACE',''
  ) );
#510 = ADVANCED_FACE('',(#511),#472,.T.);
#511 = FACE_BOUND('',#512,.T.);
#512 = EDGE_LOOP('',(#513,#541,#542));
#513 = ORIENTED_EDGE('',*,*,#514,.F.);
#514 = EDGE_CURVE('',#283,#515,#517,.T.);
#515 = VERTEX_POINT('',#516);
#516 = CARTESIAN_POINT('',(52.216744009063,-43.26480400219,
    13.202956181466));
#517 = SURFACE_CURVE('',#518,(#522,#529),.PCURVE_S1.);
#518 = LINE('',#519,#520);
#519 = CARTESIAN_POINT('',(-52.1743273988,-43.24635454751,
    13.207815709756));
#520 = VECTOR('',#521,1.);
#521 = DIRECTION('',(0.999999983299,-1.76734026453E-04,
    -4.655118625867E-05));
#522 = PCURVE('',#472,#523);
#523 = DEFINITIONAL_REPRESENTATION('',(#524),#528);
#524 = LINE('',#525,#526);
#525 = CARTESIAN_POINT('',(104.39107303819,-4.859528357256E-03));
#526 = VECTOR('',#527,1.);
#527 = DIRECTION('',(-0.999999998916,4.655118690286E-05));
#528 = ( GEOMETRIC_REPRESENTATION_CONTEXT(2) 
PARAMETRIC_REPRESENTATION_CONTEXT() REPRESENTATION_CONTEXT('2D SPACE',''
  ) );
#529 = PCURVE('',#530,#535);
#530 = PLANE('',#531);
#531 = AXIS2_PLACEMENT_3D('',#532,#533,#534);
#532 = CARTESIAN_POINT('',(52.216744009063,-43.26480400219,
    13.202956181466));
#533 = DIRECTION('',(4.654994065012E-05,-7.052034102899E-06,
    0.999999998892));
#534 = DIRECTION('',(0.999999998917,2.62206052088E-26,
    -4.654994065128E-05));
#535 = DEFINITIONAL_REPRESENTATION('',(#536),#540);
#536 = LINE('',#537,#538);
#537 = CARTESIAN_POINT('',(-104.3910715209,1.844945468423E-02));
#538 = VECTOR('',#539,1.);
#539 = DIRECTION('',(0.999999984383,-1.767340264574E-04));
#540 = ( GEOMETRIC_REPRESENTATION_CONTEXT(2) 
PARAMETRIC_REPRESENTATION_CONTEXT() REPRESENTATION_CONTEXT('2D SPACE',''
  ) );
#541 = ORIENTED_EDGE('',*,*,#456,.T.);
#542 = ORIENTED_EDGE('',*,*,#543,.T.);
#543 = EDGE_CURVE('',#457,#515,#544,.T.);
#544 = SURFACE_CURVE('',#545,(#549,#556),.PCURVE_S1.);
#545 = LINE('',#546,#547);
#546 = CARTESIAN_POINT('',(52.202484830532,-43.26261063726,
    3.387153781184E-02));
#547 = VECTOR('',#548,1.);
#548 = DIRECTION('',(1.082776089622E-03,-1.66553991503E-04,
    0.999999399928));
#549 = PCURVE('',#472,#550);
#550 = DEFINITIONAL_REPRESENTATION('',(#551),#555);
#551 = LINE('',#552,#553);
#552 = CARTESIAN_POINT('',(1.425956596739E-02,13.169084825891));
#553 = VECTOR('',#554,1.);
#554 = DIRECTION('',(-1.082805509758E-03,-0.999999413766));
#555 = ( GEOMETRIC_REPRESENTATION_CONTEXT(2) 
PARAMETRIC_REPRESENTATION_CONTEXT() REPRESENTATION_CONTEXT('2D SPACE',''
  ) );
#556 = PCURVE('',#557,#562);
#557 = PLANE('',#558);
#558 = AXIS2_PLACEMENT_3D('',#559,#560,#561);
#559 = CARTESIAN_POINT('',(52.216744009063,-43.26480400219,
    13.202956181466));
#560 = DIRECTION('',(0.999999406959,1.171345109413E-04,
    -1.082756588003E-03));
#561 = DIRECTION('',(1.082756595431E-03,-3.027224991147E-23,
    0.999999413819));
#562 = DEFINITIONAL_REPRESENTATION('',(#563),#567);
#563 = LINE('',#564,#565);
#564 = CARTESIAN_POINT('',(-13.1690923634,-2.193364943066E-03));
#565 = VECTOR('',#566,1.);
#566 = DIRECTION('',(0.99999998613,1.665539926456E-04));
#567 = ( GEOMETRIC_REPRESENTATION_CONTEXT(2) 
PARAMETRIC_REPRESENTATION_CONTEXT() REPRESENTATION_CONTEXT('2D SPACE',''
  ) );
#568 = ADVANCED_FACE('',(#569),#324,.T.);
#569 = FACE_BOUND('',#570,.T.);
#570 = EDGE_LOOP('',(#571,#597,#598));
#571 = ORIENTED_EDGE('',*,*,#572,.F.);
#572 = EDGE_CURVE('',#231,#24,#573,.T.);
#573 = SURFACE_CURVE('',#574,(#578,#585),.PCURVE_S1.);
#574 = LINE('',#575,#576);
#575 = CARTESIAN_POINT('',(-45.07235826161,34.796756893679,
    13.171399303488));
#576 = VECTOR('',#577,1.);
#577 = DIRECTION('',(0.999988649271,3.486220297104E-03,
    3.247706441938E-03));
#578 = PCURVE('',#324,#579);
#579 = DEFINITIONAL_REPRESENTATION('',(#580),#584);
#580 = LINE('',#581,#582);
#581 = CARTESIAN_POINT('',(-11.12124410235,-3.877135379588E-02));
#582 = VECTOR('',#583,1.);
#583 = DIRECTION('',(0.999993923112,3.486221310303E-03));
#584 = ( GEOMETRIC_REPRESENTATION_CONTEXT(2) 
PARAMETRIC_REPRESENTATION_CONTEXT() REPRESENTATION_CONTEXT('2D SPACE',''
  ) );
#585 = PCURVE('',#586,#591);
#586 = PLANE('',#587);
#587 = AXIS2_PLACEMENT_3D('',#588,#589,#590);
#588 = CARTESIAN_POINT('',(-33.95117281128,34.835528236206,
    13.207518059091));
#589 = DIRECTION('',(-5.254574799195E-04,0.758168995537,-0.652057894746)
  );
#590 = DIRECTION('',(4.719330875012E-21,0.652057984764,0.758169100205));
#591 = DEFINITIONAL_REPRESENTATION('',(#592),#596);
#592 = LINE('',#593,#594);
#593 = CARTESIAN_POINT('',(-5.266528791147E-02,-11.12118698563));
#594 = VECTOR('',#595,1.);
#595 = DIRECTION('',(4.735528452187E-03,0.999988787322));
#596 = ( GEOMETRIC_REPRESENTATION_CONTEXT(2) 
PARAMETRIC_REPRESENTATION_CONTEXT() REPRESENTATION_CONTEXT('2D SPACE',''
  ) );
#597 = ORIENTED_EDGE('',*,*,#310,.F.);
#598 = ORIENTED_EDGE('',*,*,#599,.T.);
#599 = EDGE_CURVE('',#283,#24,#600,.T.);
#600 = SURFACE_CURVE('',#601,(#605,#612),.PCURVE_S1.);
#601 = LINE('',#602,#603);
#602 = CARTESIAN_POINT('',(-52.1743273988,-43.24635454751,
    13.207815709756));
#603 = VECTOR('',#604,1.);
#604 = DIRECTION('',(0.227277501991,0.973830035004,-3.712271615634E-06)
  );
#605 = PCURVE('',#324,#606);
#606 = DEFINITIONAL_REPRESENTATION('',(#607),#611);
#607 = LINE('',#608,#609);
#608 = CARTESIAN_POINT('',(-18.223057356,-78.08190547661));
#609 = VECTOR('',#610,1.);
#610 = DIRECTION('',(0.227276289329,0.973830318027));
#611 = ( GEOMETRIC_REPRESENTATION_CONTEXT(2) 
PARAMETRIC_REPRESENTATION_CONTEXT() REPRESENTATION_CONTEXT('2D SPACE',''
  ) );
#612 = PCURVE('',#530,#613);
#613 = DEFINITIONAL_REPRESENTATION('',(#614),#618);
#614 = LINE('',#615,#616);
#615 = CARTESIAN_POINT('',(-104.3910715209,1.844945468423E-02));
#616 = VECTOR('',#617,1.);
#617 = DIRECTION('',(0.227277501918,0.973830035028));
#618 = ( GEOMETRIC_REPRESENTATION_CONTEXT(2) 
PARAMETRIC_REPRESENTATION_CONTEXT() REPRESENTATION_CONTEXT('2D SPACE',''
  ) );
#619 = ADVANCED_FACE('',(#620),#530,.T.);
#620 = FACE_BOUND('',#621,.T.);
#621 = EDGE_LOOP('',(#622,#648,#649));
#622 = ORIENTED_EDGE('',*,*,#623,.F.);
#623 = EDGE_CURVE('',#24,#515,#624,.T.);
#624 = SURFACE_CURVE('',#625,(#629,#636),.PCURVE_S1.);
#625 = LINE('',#626,#627);
#626 = CARTESIAN_POINT('',(-33.95117281128,34.835528236206,
    13.207518059091));
#627 = VECTOR('',#628,1.);
#628 = DIRECTION('',(0.740941348867,-0.671569740236,-3.922670856908E-05)
  );
#629 = PCURVE('',#530,#630);
#630 = DEFINITIONAL_REPRESENTATION('',(#631),#635);
#631 = LINE('',#632,#633);
#632 = CARTESIAN_POINT('',(-86.16791693934,78.100332240343));
#633 = VECTOR('',#634,1.);
#634 = DIRECTION('',(0.74094134989,-0.671569740252));
#635 = ( GEOMETRIC_REPRESENTATION_CONTEXT(2) 
PARAMETRIC_REPRESENTATION_CONTEXT() REPRESENTATION_CONTEXT('2D SPACE',''
  ) );
#636 = PCURVE('',#637,#642);
#637 = PLANE('',#638);
#638 = AXIS2_PLACEMENT_3D('',#639,#640,#641);
#639 = CARTESIAN_POINT('',(52.219955482255,43.245788327019,
    13.214191485552));
#640 = DIRECTION('',(-6.476866895532E-05,-1.298695993442E-04,
    0.999999989469));
#641 = DIRECTION('',(-1.260182703011E-24,0.999999991567,
    1.298695996166E-04));
#642 = DEFINITIONAL_REPRESENTATION('',(#643),#647);
#643 = LINE('',#644,#645);
#644 = CARTESIAN_POINT('',(-8.410260886563,86.171128474284));
#645 = VECTOR('',#646,1.);
#646 = DIRECTION('',(-0.671569739667,-0.740941350421));
#647 = ( GEOMETRIC_REPRESENTATION_CONTEXT(2) 
PARAMETRIC_REPRESENTATION_CONTEXT() REPRESENTATION_CONTEXT('2D SPACE',''
  ) );
#648 = ORIENTED_EDGE('',*,*,#599,.F.);
#649 = ORIENTED_EDGE('',*,*,#514,.T.);
#650 = ADVANCED_FACE('',(#651),#637,.T.);
#651 = FACE_BOUND('',#652,.T.);
#652 = EDGE_LOOP('',(#653,#676,#677));
#653 = ORIENTED_EDGE('',*,*,#654,.F.);
#654 = EDGE_CURVE('',#24,#655,#657,.T.);
#655 = VERTEX_POINT('',#656);
#656 = CARTESIAN_POINT('',(52.219955482255,43.245788327019,
    13.214191485552));
#657 = SURFACE_CURVE('',#658,(#662,#669),.PCURVE_S1.);
#658 = LINE('',#659,#660);
#659 = CARTESIAN_POINT('',(-33.95117281128,34.835528236206,
    13.207518059091));
#660 = VECTOR('',#661,1.);
#661 = DIRECTION('',(0.995270923632,9.71379566954E-02,7.707764130241E-05
    ));
#662 = PCURVE('',#637,#663);
#663 = DEFINITIONAL_REPRESENTATION('',(#664),#668);
#664 = LINE('',#665,#666);
#665 = CARTESIAN_POINT('',(-8.410260886563,86.171128474284));
#666 = VECTOR('',#667,1.);
#667 = DIRECTION('',(9.713796588627E-02,-0.99527092572));
#668 = ( GEOMETRIC_REPRESENTATION_CONTEXT(2) 
PARAMETRIC_REPRESENTATION_CONTEXT() REPRESENTATION_CONTEXT('2D SPACE',''
  ) );
#669 = PCURVE('',#187,#670);
#670 = DEFINITIONAL_REPRESENTATION('',(#671),#675);
#671 = LINE('',#672,#673);
#672 = CARTESIAN_POINT('',(-8.410260654061,86.171128496977));
#673 = VECTOR('',#674,1.);
#674 = DIRECTION('',(9.713796320088E-02,-0.995270925982));
#675 = ( GEOMETRIC_REPRESENTATION_CONTEXT(2) 
PARAMETRIC_REPRESENTATION_CONTEXT() REPRESENTATION_CONTEXT('2D SPACE',''
  ) );
#676 = ORIENTED_EDGE('',*,*,#623,.T.);
#677 = ORIENTED_EDGE('',*,*,#678,.T.);
#678 = EDGE_CURVE('',#515,#655,#679,.T.);
#679 = SURFACE_CURVE('',#680,(#684,#691),.PCURVE_S1.);
#680 = LINE('',#681,#682);
#681 = CARTESIAN_POINT('',(52.216744009063,-43.26480400219,
    13.202956181466));
#682 = VECTOR('',#683,1.);
#683 = DIRECTION('',(3.712231157255E-05,0.999999990878,
    1.298720038898E-04));
#684 = PCURVE('',#637,#685);
#685 = DEFINITIONAL_REPRESENTATION('',(#686),#690);
#686 = LINE('',#687,#688);
#687 = CARTESIAN_POINT('',(-86.51059305878,3.211473198803E-03));
#688 = VECTOR('',#689,1.);
#689 = DIRECTION('',(0.999999999311,-3.712231165041E-05));
#690 = ( GEOMETRIC_REPRESENTATION_CONTEXT(2) 
PARAMETRIC_REPRESENTATION_CONTEXT() REPRESENTATION_CONTEXT('2D SPACE',''
  ) );
#691 = PCURVE('',#692,#697);
#692 = PLANE('',#693);
#693 = AXIS2_PLACEMENT_3D('',#694,#695,#696);
#694 = CARTESIAN_POINT('',(52.216744009063,-43.26480400219,
    13.202956181466));
#695 = DIRECTION('',(0.999997811254,-3.685054884151E-05,
    -2.091919796187E-03));
#696 = DIRECTION('',(2.091919797607E-03,-1.287436496162E-24,
    0.999997811933));
#697 = DEFINITIONAL_REPRESENTATION('',(#698),#702);
#698 = LINE('',#699,#700);
#699 = CARTESIAN_POINT('',(0.,0.));
#700 = VECTOR('',#701,1.);
#701 = DIRECTION('',(1.299493766197E-04,-0.999999991557));
#702 = ( GEOMETRIC_REPRESENTATION_CONTEXT(2) 
PARAMETRIC_REPRESENTATION_CONTEXT() REPRESENTATION_CONTEXT('2D SPACE',''
  ) );
#703 = ADVANCED_FACE('',(#704),#187,.T.);
#704 = FACE_BOUND('',#705,.T.);
#705 = EDGE_LOOP('',(#706,#732,#733));
#706 = ORIENTED_EDGE('',*,*,#707,.F.);
#707 = EDGE_CURVE('',#172,#655,#708,.T.);
#708 = SURFACE_CURVE('',#709,(#713,#720),.PCURVE_S1.);
#709 = LINE('',#710,#711);
#710 = CARTESIAN_POINT('',(-52.22800489927,43.241710094965,
    13.22136245558));
#711 = VECTOR('',#712,1.);
#712 = DIRECTION('',(0.999999996881,3.904558812352E-05,
    -6.865591228088E-05));
#713 = PCURVE('',#187,#714);
#714 = DEFINITIONAL_REPRESENTATION('',(#715),#719);
#715 = LINE('',#716,#717);
#716 = CARTESIAN_POINT('',(-4.06748874564E-03,104.44796062811));
#717 = VECTOR('',#718,1.);
#718 = DIRECTION('',(3.894273012221E-05,-0.999999999242));
#719 = ( GEOMETRIC_REPRESENTATION_CONTEXT(2) 
PARAMETRIC_REPRESENTATION_CONTEXT() REPRESENTATION_CONTEXT('2D SPACE',''
  ) );
#720 = PCURVE('',#721,#726);
#721 = PLANE('',#722);
#722 = AXIS2_PLACEMENT_3D('',#723,#724,#725);
#723 = CARTESIAN_POINT('',(52.219955482255,43.245788327019,
    13.214191485552));
#724 = DIRECTION('',(-3.870679444824E-05,0.99998785778,
    4.927757634254E-03));
#725 = DIRECTION('',(-8.942535738036E-24,-4.927757637945E-03,
    0.999987858529));
#726 = DEFINITIONAL_REPRESENTATION('',(#727),#731);
#727 = LINE('',#728,#729);
#728 = CARTESIAN_POINT('',(7.190979501264E-03,-104.4479604597));
#729 = VECTOR('',#730,1.);
#730 = DIRECTION('',(-6.884748589219E-05,0.99999999763));
#731 = ( GEOMETRIC_REPRESENTATION_CONTEXT(2) 
PARAMETRIC_REPRESENTATION_CONTEXT() REPRESENTATION_CONTEXT('2D SPACE',''
  ) );
#732 = ORIENTED_EDGE('',*,*,#171,.T.);
#733 = ORIENTED_EDGE('',*,*,#654,.T.);
#734 = ADVANCED_FACE('',(#735),#357,.T.);
#735 = FACE_BOUND('',#736,.T.);
#736 = EDGE_LOOP('',(#737,#765,#766));
#737 = ORIENTED_EDGE('',*,*,#738,.F.);
#738 = EDGE_CURVE('',#342,#739,#741,.T.);
#739 = VERTEX_POINT('',#740);
#740 = CARTESIAN_POINT('',(52.192299465472,43.310940488381,
    -7.327424549513E-03));
#741 = SURFACE_CURVE('',#742,(#746,#753),.PCURVE_S1.);
#742 = LINE('',#743,#744);
#743 = CARTESIAN_POINT('',(-52.22500063574,43.313900092397,
    2.189737452537E-02));
#744 = VECTOR('',#745,1.);
#745 = DIRECTION('',(0.999999960431,-2.83439994744E-05,
    -2.79884634923E-04));
#746 = PCURVE('',#357,#747);
#747 = DEFINITIONAL_REPRESENTATION('',(#748),#752);
#748 = LINE('',#749,#750);
#749 = CARTESIAN_POINT('',(2.920817567319E-02,-104.4173001478));
#750 = VECTOR('',#751,1.);
#751 = DIRECTION('',(-2.79725433325E-04,0.999999960877));
#752 = ( GEOMETRIC_REPRESENTATION_CONTEXT(2) 
PARAMETRIC_REPRESENTATION_CONTEXT() REPRESENTATION_CONTEXT('2D SPACE',''
  ) );
#753 = PCURVE('',#754,#759);
#754 = PLANE('',#755);
#755 = AXIS2_PLACEMENT_3D('',#756,#757,#758);
#756 = CARTESIAN_POINT('',(52.192299465472,43.310940488381,
    -7.327424549513E-03));
#757 = DIRECTION('',(-2.798255346622E-04,2.064075799089E-03,
    -0.999997830642));
#758 = DIRECTION('',(6.561698064107E-23,-0.999997869793,
    -2.0640758799E-03));
#759 = DEFINITIONAL_REPRESENTATION('',(#760),#764);
#760 = LINE('',#761,#762);
#761 = CARTESIAN_POINT('',(-3.019919914594E-03,104.41730418927));
#762 = VECTOR('',#763,1.);
#763 = DIRECTION('',(2.892164221992E-05,-0.999999999582));
#764 = ( GEOMETRIC_REPRESENTATION_CONTEXT(2) 
PARAMETRIC_REPRESENTATION_CONTEXT() REPRESENTATION_CONTEXT('2D SPACE',''
  ) );
#765 = ORIENTED_EDGE('',*,*,#341,.F.);
#766 = ORIENTED_EDGE('',*,*,#767,.T.);
#767 = EDGE_CURVE('',#172,#739,#768,.T.);
#768 = SURFACE_CURVE('',#769,(#773,#780),.PCURVE_S1.);
#769 = LINE('',#770,#771);
#770 = CARTESIAN_POINT('',(-52.22800489927,43.241710094965,
    13.22136245558));
#771 = VECTOR('',#772,1.);
#772 = DIRECTION('',(0.992070315621,6.577400694681E-04,-0.125682362491)
  );
#773 = PCURVE('',#357,#774);
#774 = DEFINITIONAL_REPRESENTATION('',(#775),#779);
#775 = LINE('',#776,#777);
#776 = CARTESIAN_POINT('',(13.228870664605,-104.4203044113));
#777 = VECTOR('',#778,1.);
#778 = DIRECTION('',(-0.125684080078,0.992070316064));
#779 = ( GEOMETRIC_REPRESENTATION_CONTEXT(2) 
PARAMETRIC_REPRESENTATION_CONTEXT() REPRESENTATION_CONTEXT('2D SPACE',''
  ) );
#780 = PCURVE('',#721,#781);
#781 = DEFINITIONAL_REPRESENTATION('',(#782),#786);
#782 = LINE('',#783,#784);
#783 = CARTESIAN_POINT('',(7.190979501264E-03,-104.4479604597));
#784 = VECTOR('',#785,1.);
#785 = DIRECTION('',(-0.125684077706,0.992070316364));
#786 = ( GEOMETRIC_REPRESENTATION_CONTEXT(2) 
PARAMETRIC_REPRESENTATION_CONTEXT() REPRESENTATION_CONTEXT('2D SPACE',''
  ) );
#787 = ADVANCED_FACE('',(#788),#721,.T.);
#788 = FACE_BOUND('',#789,.T.);
#789 = EDGE_LOOP('',(#790,#811,#812));
#790 = ORIENTED_EDGE('',*,*,#791,.F.);
#791 = EDGE_CURVE('',#739,#655,#792,.T.);
#792 = SURFACE_CURVE('',#793,(#797,#804),.PCURVE_S1.);
#793 = LINE('',#794,#795);
#794 = CARTESIAN_POINT('',(52.192299465472,43.310940488381,
    -7.327424549513E-03));
#795 = VECTOR('',#796,1.);
#796 = DIRECTION('',(2.091712812773E-03,-4.927665895302E-03,
    0.999985671321));
#797 = PCURVE('',#721,#798);
#798 = DEFINITIONAL_REPRESENTATION('',(#799),#803);
#799 = LINE('',#800,#801);
#800 = CARTESIAN_POINT('',(-13.22167943546,-2.76560168035E-02));
#801 = VECTOR('',#802,1.);
#802 = DIRECTION('',(0.999997812366,2.09171281434E-03));
#803 = ( GEOMETRIC_REPRESENTATION_CONTEXT(2) 
PARAMETRIC_REPRESENTATION_CONTEXT() REPRESENTATION_CONTEXT('2D SPACE',''
  ) );
#804 = PCURVE('',#692,#805);
#805 = DEFINITIONAL_REPRESENTATION('',(#806),#810);
#806 = LINE('',#807,#808);
#807 = CARTESIAN_POINT('',(-13.21030583705,-86.57574454935));
#808 = VECTOR('',#809,1.);
#809 = DIRECTION('',(0.999987858981,4.927665898648E-03));
#810 = ( GEOMETRIC_REPRESENTATION_CONTEXT(2) 
PARAMETRIC_REPRESENTATION_CONTEXT() REPRESENTATION_CONTEXT('2D SPACE',''
  ) );
#811 = ORIENTED_EDGE('',*,*,#767,.F.);
#812 = ORIENTED_EDGE('',*,*,#707,.T.);
#813 = ADVANCED_FACE('',(#814),#415,.T.);
#814 = FACE_BOUND('',#815,.T.);
#815 = EDGE_LOOP('',(#816,#844,#865));
#816 = ORIENTED_EDGE('',*,*,#817,.T.);
#817 = EDGE_CURVE('',#342,#818,#820,.T.);
#818 = VERTEX_POINT('',#819);
#819 = CARTESIAN_POINT('',(-42.92034589637,34.631892952567,
    4.56075485526E-02));
#820 = SURFACE_CURVE('',#821,(#825,#832),.PCURVE_S1.);
#821 = LINE('',#822,#823);
#822 = CARTESIAN_POINT('',(-52.22500063574,43.313900092397,
    2.189737452537E-02));
#823 = VECTOR('',#824,1.);
#824 = DIRECTION('',(0.73114560481,-0.682218904304,1.863109380723E-03));
#825 = PCURVE('',#415,#826);
#826 = DEFINITIONAL_REPRESENTATION('',(#827),#831);
#827 = LINE('',#828,#829);
#828 = CARTESIAN_POINT('',(0.,0.));
#829 = VECTOR('',#830,1.);
#830 = DIRECTION('',(-0.73114792159,-0.682218965403));
#831 = ( GEOMETRIC_REPRESENTATION_CONTEXT(2) 
PARAMETRIC_REPRESENTATION_CONTEXT() REPRESENTATION_CONTEXT('2D SPACE',''
  ) );
#832 = PCURVE('',#833,#838);
#833 = PLANE('',#834);
#834 = AXIS2_PLACEMENT_3D('',#835,#836,#837);
#835 = CARTESIAN_POINT('',(-38.6132999806,38.046069483785,
    7.215239588146E-03));
#836 = DIRECTION('',(-3.648911588016E-03,-6.641477578377E-03,
    -0.999971287698));
#837 = DIRECTION('',(-1.959368874653E-21,-0.999977944851,
    6.641521792981E-03));
#838 = DEFINITIONAL_REPRESENTATION('',(#839),#843);
#839 = LINE('',#840,#841);
#840 = CARTESIAN_POINT('',(-5.267616914104,13.611791272912));
#841 = VECTOR('',#842,1.);
#842 = DIRECTION('',(0.682216231746,-0.731150472298));
#843 = ( GEOMETRIC_REPRESENTATION_CONTEXT(2) 
PARAMETRIC_REPRESENTATION_CONTEXT() REPRESENTATION_CONTEXT('2D SPACE',''
  ) );
#844 = ORIENTED_EDGE('',*,*,#845,.F.);
#845 = EDGE_CURVE('',#400,#818,#846,.T.);
#846 = SURFACE_CURVE('',#847,(#851,#858),.PCURVE_S1.);
#847 = LINE('',#848,#849);
#848 = CARTESIAN_POINT('',(-52.2113613504,-43.26531019689,
    -1.470480855367E-02));
#849 = VECTOR('',#850,1.);
#850 = DIRECTION('',(0.118433297289,0.992961712771,7.68806311295E-04));
#851 = PCURVE('',#415,#852);
#852 = DEFINITIONAL_REPRESENTATION('',(#853),#857);
#853 = LINE('',#854,#855);
#854 = CARTESIAN_POINT('',(-1.35315025673E-02,-86.57921804316));
#855 = VECTOR('',#856,1.);
#856 = DIRECTION('',(-0.118435047035,0.992961801699));
#857 = ( GEOMETRIC_REPRESENTATION_CONTEXT(2) 
PARAMETRIC_REPRESENTATION_CONTEXT() REPRESENTATION_CONTEXT('2D SPACE',''
  ) );
#858 = PCURVE('',#499,#859);
#859 = DEFINITIONAL_REPRESENTATION('',(#860),#864);
#860 = LINE('',#861,#862);
#861 = CARTESIAN_POINT('',(2.734474082575E-03,104.41385747959));
#862 = VECTOR('',#863,1.);
#863 = DIRECTION('',(-0.992962008869,-0.118433310105));
#864 = ( GEOMETRIC_REPRESENTATION_CONTEXT(2) 
PARAMETRIC_REPRESENTATION_CONTEXT() REPRESENTATION_CONTEXT('2D SPACE',''
  ) );
#865 = ORIENTED_EDGE('',*,*,#399,.F.);
#866 = ADVANCED_FACE('',(#867),#833,.T.);
#867 = FACE_BOUND('',#868,.T.);
#868 = EDGE_LOOP('',(#869,#897,#898));
#869 = ORIENTED_EDGE('',*,*,#870,.F.);
#870 = EDGE_CURVE('',#818,#871,#873,.T.);
#871 = VERTEX_POINT('',#872);
#872 = CARTESIAN_POINT('',(-38.6132999806,38.046069483785,
    7.215239588146E-03));
#873 = SURFACE_CURVE('',#874,(#878,#885),.PCURVE_S1.);
#874 = LINE('',#875,#876);
#875 = CARTESIAN_POINT('',(-42.92034589637,34.631892952567,
    4.56075485526E-02));
#876 = VECTOR('',#877,1.);
#877 = DIRECTION('',(0.783634126127,0.621183357411,-6.985187544713E-03)
  );
#878 = PCURVE('',#833,#879);
#879 = DEFINITIONAL_REPRESENTATION('',(#880),#884);
#880 = LINE('',#881,#882);
#881 = CARTESIAN_POINT('',(3.414356214402,4.307074589258));
#882 = VECTOR('',#883,1.);
#883 = DIRECTION('',(-0.621216049395,-0.783639343049));
#884 = ( GEOMETRIC_REPRESENTATION_CONTEXT(2) 
PARAMETRIC_REPRESENTATION_CONTEXT() REPRESENTATION_CONTEXT('2D SPACE',''
  ) );
#885 = PCURVE('',#886,#891);
#886 = PLANE('',#887);
#887 = AXIS2_PLACEMENT_3D('',#888,#889,#890);
#888 = CARTESIAN_POINT('',(-42.93588873247,34.661553813169,
    8.007065071348));
#889 = DIRECTION('',(0.62121582898,-0.78362862283,4.132227681276E-03));
#890 = DIRECTION('',(-0.783635313265,-0.621221132773,-2.183885367229E-19
    ));
#891 = DEFINITIONAL_REPRESENTATION('',(#892),#896);
#892 = LINE('',#893,#894);
#893 = CARTESIAN_POINT('',(6.246038185476E-03,7.961525495826));
#894 = VECTOR('',#895,1.);
#895 = DIRECTION('',(-0.999975602863,6.985247182583E-03));
#896 = ( GEOMETRIC_REPRESENTATION_CONTEXT(2) 
PARAMETRIC_REPRESENTATION_CONTEXT() REPRESENTATION_CONTEXT('2D SPACE',''
  ) );
#897 = ORIENTED_EDGE('',*,*,#817,.F.);
#898 = ORIENTED_EDGE('',*,*,#899,.T.);
#899 = EDGE_CURVE('',#342,#871,#900,.T.);
#900 = SURFACE_CURVE('',#901,(#905,#912),.PCURVE_S1.);
#901 = LINE('',#902,#903);
#902 = CARTESIAN_POINT('',(-52.22500063574,43.313900092397,
    2.189737452537E-02));
#903 = VECTOR('',#904,1.);
#904 = DIRECTION('',(0.932595643664,-0.360921533732,-1.005935659993E-03)
  );
#905 = PCURVE('',#833,#906);
#906 = DEFINITIONAL_REPRESENTATION('',(#907),#911);
#907 = LINE('',#908,#909);
#908 = CARTESIAN_POINT('',(-5.267616914104,13.611791272912));
#909 = VECTOR('',#910,1.);
#910 = DIRECTION('',(0.36090689261,-0.932601852275));
#911 = ( GEOMETRIC_REPRESENTATION_CONTEXT(2) 
PARAMETRIC_REPRESENTATION_CONTEXT() REPRESENTATION_CONTEXT('2D SPACE',''
  ) );
#912 = PCURVE('',#754,#913);
#913 = DEFINITIONAL_REPRESENTATION('',(#914),#918);
#914 = LINE('',#915,#916);
#915 = CARTESIAN_POINT('',(-3.019919914594E-03,104.41730418927));
#916 = VECTOR('',#917,1.);
#917 = DIRECTION('',(0.360922841222,-0.932595680177));
#918 = ( GEOMETRIC_REPRESENTATION_CONTEXT(2) 
PARAMETRIC_REPRESENTATION_CONTEXT() REPRESENTATION_CONTEXT('2D SPACE',''
  ) );
#919 = ADVANCED_FACE('',(#920),#499,.T.);
#920 = FACE_BOUND('',#921,.T.);
#921 = EDGE_LOOP('',(#922,#923,#924));
#922 = ORIENTED_EDGE('',*,*,#485,.F.);
#923 = ORIENTED_EDGE('',*,*,#845,.T.);
#924 = ORIENTED_EDGE('',*,*,#925,.T.);
#925 = EDGE_CURVE('',#818,#457,#926,.T.);
#926 = SURFACE_CURVE('',#927,(#931,#938),.PCURVE_S1.);
#927 = LINE('',#928,#929);
#928 = CARTESIAN_POINT('',(-42.92034589637,34.631892952567,
    4.56075485526E-02));
#929 = VECTOR('',#930,1.);
#930 = DIRECTION('',(0.773691211642,-0.633562861851,-9.545603616373E-05)
  );
#931 = PCURVE('',#499,#932);
#932 = DEFINITIONAL_REPRESENTATION('',(#933),#937);
#933 = LINE('',#934,#935);
#934 = CARTESIAN_POINT('',(-77.89449190405,95.122841020178));
#935 = VECTOR('',#936,1.);
#936 = DIRECTION('',(0.633562766803,-0.773691295363));
#937 = ( GEOMETRIC_REPRESENTATION_CONTEXT(2) 
PARAMETRIC_REPRESENTATION_CONTEXT() REPRESENTATION_CONTEXT('2D SPACE',''
  ) );
#938 = PCURVE('',#939,#944);
#939 = PLANE('',#940);
#940 = AXIS2_PLACEMENT_3D('',#941,#942,#943);
#941 = CARTESIAN_POINT('',(52.202484830532,-43.26261063726,
    3.387153781184E-02));
#942 = DIRECTION('',(-5.119059056856E-03,-6.100606944945E-03,
    -0.999968288412));
#943 = DIRECTION('',(-1.336802683824E-21,-0.999981390637,
    6.100686879004E-03));
#944 = DEFINITIONAL_REPRESENTATION('',(#945),#949);
#945 = LINE('',#946,#947);
#946 = CARTESIAN_POINT('',(-77.89298242498,95.124077087147));
#947 = VECTOR('',#948,1.);
#948 = DIRECTION('',(0.633550489302,-0.77370134904));
#949 = ( GEOMETRIC_REPRESENTATION_CONTEXT(2) 
PARAMETRIC_REPRESENTATION_CONTEXT() REPRESENTATION_CONTEXT('2D SPACE',''
  ) );
#950 = ADVANCED_FACE('',(#951),#939,.T.);
#951 = FACE_BOUND('',#952,.T.);
#952 = EDGE_LOOP('',(#953,#954,#982));
#953 = ORIENTED_EDGE('',*,*,#925,.F.);
#954 = ORIENTED_EDGE('',*,*,#955,.T.);
#955 = EDGE_CURVE('',#818,#956,#958,.T.);
#956 = VERTEX_POINT('',#957);
#957 = CARTESIAN_POINT('',(-36.10905397331,34.777384666035,
    9.85142130377E-03));
#958 = SURFACE_CURVE('',#959,(#963,#970),.PCURVE_S1.);
#959 = LINE('',#960,#961);
#960 = CARTESIAN_POINT('',(-42.92034589637,34.631892952567,
    4.56075485526E-02));
#961 = VECTOR('',#962,1.);
#962 = DIRECTION('',(0.999758176232,2.135520423389E-02,
    -5.248267284857E-03));
#963 = PCURVE('',#939,#964);
#964 = DEFINITIONAL_REPRESENTATION('',(#965),#969);
#965 = LINE('',#966,#967);
#966 = CARTESIAN_POINT('',(-77.89298242498,95.124077087147));
#967 = VECTOR('',#968,1.);
#968 = DIRECTION('',(-2.13868248625E-02,-0.999771275704));
#969 = ( GEOMETRIC_REPRESENTATION_CONTEXT(2) 
PARAMETRIC_REPRESENTATION_CONTEXT() REPRESENTATION_CONTEXT('2D SPACE',''
  ) );
#970 = PCURVE('',#971,#976);
#971 = PLANE('',#972);
#972 = AXIS2_PLACEMENT_3D('',#973,#974,#975);
#973 = CARTESIAN_POINT('',(-42.93588873247,34.661553813169,
    8.007065071348));
#974 = DIRECTION('',(-2.137510975366E-02,0.999764431678,
    -3.766408749271E-03));
#975 = DIRECTION('',(0.999771523,2.137526136716E-02,-3.327035867588E-21)
  );
#976 = DEFINITIONAL_REPRESENTATION('',(#977),#981);
#977 = LINE('',#978,#979);
#978 = CARTESIAN_POINT('',(1.490527627262E-02,7.961513993357));
#979 = VECTOR('',#980,1.);
#980 = DIRECTION('',(0.999986227555,5.24830451078E-03));
#981 = ( GEOMETRIC_REPRESENTATION_CONTEXT(2) 
PARAMETRIC_REPRESENTATION_CONTEXT() REPRESENTATION_CONTEXT('2D SPACE',''
  ) );
#982 = ORIENTED_EDGE('',*,*,#983,.T.);
#983 = EDGE_CURVE('',#956,#457,#984,.T.);
#984 = SURFACE_CURVE('',#985,(#989,#996),.PCURVE_S1.);
#985 = LINE('',#986,#987);
#986 = CARTESIAN_POINT('',(-36.10905397331,34.777384666035,
    9.85142130377E-03));
#987 = VECTOR('',#988,1.);
#988 = DIRECTION('',(0.749340690132,-0.662184633294,2.03815389529E-04));
#989 = PCURVE('',#939,#990);
#990 = DEFINITIONAL_REPRESENTATION('',(#991),#995);
#991 = LINE('',#992,#993);
#992 = CARTESIAN_POINT('',(-78.03868956788,88.312695918178));
#993 = VECTOR('',#994,1.);
#994 = DIRECTION('',(0.662173553874,-0.749350508474));
#995 = ( GEOMETRIC_REPRESENTATION_CONTEXT(2) 
PARAMETRIC_REPRESENTATION_CONTEXT() REPRESENTATION_CONTEXT('2D SPACE',''
  ) );
#996 = PCURVE('',#997,#1002);
#997 = PLANE('',#998);
#998 = AXIS2_PLACEMENT_3D('',#999,#1000,#1001);
#999 = CARTESIAN_POINT('',(52.192299465472,43.310940488381,
    -7.327424549513E-03));
#1000 = DIRECTION('',(-1.485561933483E-04,-4.759013556068E-04,
    -0.999999875724));
#1001 = DIRECTION('',(5.210503611793E-24,-0.999999886759,
    4.759013608581E-04));
#1002 = DEFINITIONAL_REPRESENTATION('',(#1003),#1007);
#1003 = LINE('',#1004,#1005);
#1004 = CARTESIAN_POINT('',(8.533563031433,88.301354413147));
#1005 = VECTOR('',#1006,1.);
#1006 = DIRECTION('',(0.662184655304,-0.749340698401));
#1007 = ( GEOMETRIC_REPRESENTATION_CONTEXT(2) 
PARAMETRIC_REPRESENTATION_CONTEXT() REPRESENTATION_CONTEXT('2D SPACE',''
  ) );
#1008 = ADVANCED_FACE('',(#1009),#997,.T.);
#1009 = FACE_BOUND('',#1010,.T.);
#1010 = EDGE_LOOP('',(#1011,#1032,#1033));
#1011 = ORIENTED_EDGE('',*,*,#1012,.T.);
#1012 = EDGE_CURVE('',#739,#457,#1013,.T.);
#1013 = SURFACE_CURVE('',#1014,(#1018,#1025),.PCURVE_S1.);
#1014 = LINE('',#1015,#1016);
#1015 = CARTESIAN_POINT('',(52.192299465472,43.310940488381,
    -7.327424549513E-03));
#1016 = VECTOR('',#1017,1.);
#1017 = DIRECTION('',(1.176498330445E-04,-0.999999879847,
    4.75883879955E-04));
#1018 = PCURVE('',#997,#1019);
#1019 = DEFINITIONAL_REPRESENTATION('',(#1020),#1024);
#1020 = LINE('',#1021,#1022);
#1021 = CARTESIAN_POINT('',(0.,0.));
#1022 = VECTOR('',#1023,1.);
#1023 = DIRECTION('',(0.999999993079,-1.176498343427E-04));
#1024 = ( GEOMETRIC_REPRESENTATION_CONTEXT(2) 
PARAMETRIC_REPRESENTATION_CONTEXT() REPRESENTATION_CONTEXT('2D SPACE',''
  ) );
#1025 = PCURVE('',#557,#1026);
#1026 = DEFINITIONAL_REPRESENTATION('',(#1027),#1031);
#1027 = LINE('',#1028,#1029);
#1028 = CARTESIAN_POINT('',(-13.21030232988,-86.5757450845));
#1029 = VECTOR('',#1030,1.);
#1030 = DIRECTION('',(4.760109871335E-04,0.999999886707));
#1031 = ( GEOMETRIC_REPRESENTATION_CONTEXT(2) 
PARAMETRIC_REPRESENTATION_CONTEXT() REPRESENTATION_CONTEXT('2D SPACE',''
  ) );
#1032 = ORIENTED_EDGE('',*,*,#983,.F.);
#1033 = ORIENTED_EDGE('',*,*,#1034,.T.);
#1034 = EDGE_CURVE('',#956,#739,#1035,.T.);
#1035 = SURFACE_CURVE('',#1036,(#1040,#1047),.PCURVE_S1.);
#1036 = LINE('',#1037,#1038);
#1037 = CARTESIAN_POINT('',(-36.10905397331,34.777384666035,
    9.85142130377E-03));
#1038 = VECTOR('',#1039,1.);
#1039 = DIRECTION('',(0.995362670426,9.619312253746E-02,
    -1.936457508006E-04));
#1040 = PCURVE('',#997,#1041);
#1041 = DEFINITIONAL_REPRESENTATION('',(#1042),#1046);
#1042 = LINE('',#1043,#1044);
#1043 = CARTESIAN_POINT('',(8.533563031433,88.301354413147));
#1044 = VECTOR('',#1045,1.);
#1045 = DIRECTION('',(-9.619320380072E-02,-0.995362681409));
#1046 = ( GEOMETRIC_REPRESENTATION_CONTEXT(2) 
PARAMETRIC_REPRESENTATION_CONTEXT() REPRESENTATION_CONTEXT('2D SPACE',''
  ) );
#1047 = PCURVE('',#1048,#1053);
#1048 = PLANE('',#1049);
#1049 = AXIS2_PLACEMENT_3D('',#1050,#1051,#1052);
#1050 = CARTESIAN_POINT('',(52.192299465472,43.310940488381,
    -7.327424549513E-03));
#1051 = DIRECTION('',(-1.085686407551E-04,-8.896737997279E-04,
    -0.999999598347));
#1052 = DIRECTION('',(8.138600435672E-24,-0.99999960424,
    8.896738049712E-04));
#1053 = DEFINITIONAL_REPRESENTATION('',(#1054),#1058);
#1054 = LINE('',#1055,#1056);
#1055 = CARTESIAN_POINT('',(8.533567728677,88.301353959199));
#1056 = VECTOR('',#1057,1.);
#1057 = DIRECTION('',(-9.619325674964E-02,-0.995362676292));
#1058 = ( GEOMETRIC_REPRESENTATION_CONTEXT(2) 
PARAMETRIC_REPRESENTATION_CONTEXT() REPRESENTATION_CONTEXT('2D SPACE',''
  ) );
#1059 = ADVANCED_FACE('',(#1060),#1048,.T.);
#1060 = FACE_BOUND('',#1061,.T.);
#1061 = EDGE_LOOP('',(#1062,#1063,#1089));
#1062 = ORIENTED_EDGE('',*,*,#1034,.F.);
#1063 = ORIENTED_EDGE('',*,*,#1064,.F.);
#1064 = EDGE_CURVE('',#871,#956,#1065,.T.);
#1065 = SURFACE_CURVE('',#1066,(#1070,#1077),.PCURVE_S1.);
#1066 = LINE('',#1067,#1068);
#1067 = CARTESIAN_POINT('',(-38.6132999806,38.046069483785,
    7.215239588146E-03));
#1068 = VECTOR('',#1069,1.);
#1069 = DIRECTION('',(0.608164378868,-0.793810858085,6.402053995487E-04)
  );
#1070 = PCURVE('',#1048,#1071);
#1071 = DEFINITIONAL_REPRESENTATION('',(#1072),#1076);
#1072 = LINE('',#1073,#1074);
#1073 = CARTESIAN_POINT('',(5.264881859199,90.805599981249));
#1074 = VECTOR('',#1075,1.);
#1075 = DIRECTION('',(0.7938111135,-0.608164382452));
#1076 = ( GEOMETRIC_REPRESENTATION_CONTEXT(2) 
PARAMETRIC_REPRESENTATION_CONTEXT() REPRESENTATION_CONTEXT('2D SPACE',''
  ) );
#1077 = PCURVE('',#1078,#1083);
#1078 = PLANE('',#1079);
#1079 = AXIS2_PLACEMENT_3D('',#1080,#1081,#1082);
#1080 = CARTESIAN_POINT('',(-36.07206605553,34.79958909305,
    7.995892544212));
#1081 = DIRECTION('',(-0.793801675795,-0.60815301518,5.367460510059E-03)
  );
#1082 = DIRECTION('',(0.608161775702,-0.793813110609,3.214879731432E-19)
  );
#1083 = DEFINITIONAL_REPRESENTATION('',(#1084),#1088);
#1084 = LINE('',#1085,#1086);
#1085 = CARTESIAN_POINT('',(-4.122580033847,-7.988792382538));
#1086 = VECTOR('',#1087,1.);
#1087 = DIRECTION('',(0.999999795063,6.402146217891E-04));
#1088 = ( GEOMETRIC_REPRESENTATION_CONTEXT(2) 
PARAMETRIC_REPRESENTATION_CONTEXT() REPRESENTATION_CONTEXT('2D SPACE',''
  ) );
#1089 = ORIENTED_EDGE('',*,*,#1090,.T.);
#1090 = EDGE_CURVE('',#871,#739,#1091,.T.);
#1091 = SURFACE_CURVE('',#1092,(#1096,#1103),.PCURVE_S1.);
#1092 = LINE('',#1093,#1094);
#1093 = CARTESIAN_POINT('',(-38.6132999806,38.046069483785,
    7.215239588146E-03));
#1094 = VECTOR('',#1095,1.);
#1095 = DIRECTION('',(0.998323396959,5.788237661465E-02,
    -1.598831123994E-04));
#1096 = PCURVE('',#1048,#1097);
#1097 = DEFINITIONAL_REPRESENTATION('',(#1098),#1102);
#1098 = LINE('',#1099,#1100);
#1099 = CARTESIAN_POINT('',(5.264881859199,90.805599981249));
#1100 = VECTOR('',#1101,1.);
#1101 = DIRECTION('',(-5.788249595094E-02,-0.998323402842));
#1102 = ( GEOMETRIC_REPRESENTATION_CONTEXT(2) 
PARAMETRIC_REPRESENTATION_CONTEXT() REPRESENTATION_CONTEXT('2D SPACE',''
  ) );
#1103 = PCURVE('',#754,#1104);
#1104 = DEFINITIONAL_REPRESENTATION('',(#1105),#1109);
#1105 = LINE('',#1106,#1107);
#1106 = CARTESIAN_POINT('',(5.264829772169,90.805603001225));
#1107 = VECTOR('',#1108,1.);
#1108 = DIRECTION('',(-5.788192330233E-02,-0.998323436044));
#1109 = ( GEOMETRIC_REPRESENTATION_CONTEXT(2) 
PARAMETRIC_REPRESENTATION_CONTEXT() REPRESENTATION_CONTEXT('2D SPACE',''
  ) );
#1110 = ADVANCED_FACE('',(#1111),#754,.T.);
#1111 = FACE_BOUND('',#1112,.T.);
#1112 = EDGE_LOOP('',(#1113,#1114,#1115));
#1113 = ORIENTED_EDGE('',*,*,#1090,.F.);
#1114 = ORIENTED_EDGE('',*,*,#899,.F.);
#1115 = ORIENTED_EDGE('',*,*,#738,.T.);
#1116 = ADVANCED_FACE('',(#1117),#557,.T.);
#1117 = FACE_BOUND('',#1118,.T.);
#1118 = EDGE_LOOP('',(#1119,#1120,#1121));
#1119 = ORIENTED_EDGE('',*,*,#543,.F.);
#1120 = ORIENTED_EDGE('',*,*,#1012,.F.);
#1121 = ORIENTED_EDGE('',*,*,#1122,.T.);
#1122 = EDGE_CURVE('',#739,#515,#1123,.T.);
#1123 = SURFACE_CURVE('',#1124,(#1128,#1135),.PCURVE_S1.);
#1124 = LINE('',#1125,#1126);
#1125 = CARTESIAN_POINT('',(52.192299465472,43.310940488381,
    -7.327424549513E-03));
#1126 = VECTOR('',#1127,1.);
#1127 = DIRECTION('',(2.791180244338E-04,-0.988558067219,0.150840544379)
  );
#1128 = PCURVE('',#557,#1129);
#1129 = DEFINITIONAL_REPRESENTATION('',(#1130),#1134);
#1130 = LINE('',#1131,#1132);
#1131 = CARTESIAN_POINT('',(-13.21030232988,-86.5757450845));
#1132 = VECTOR('',#1133,1.);
#1133 = DIRECTION('',(0.150840758176,0.988558074001));
#1134 = ( GEOMETRIC_REPRESENTATION_CONTEXT(2) 
PARAMETRIC_REPRESENTATION_CONTEXT() REPRESENTATION_CONTEXT('2D SPACE',''
  ) );
#1135 = PCURVE('',#692,#1136);
#1136 = DEFINITIONAL_REPRESENTATION('',(#1137),#1141);
#1137 = LINE('',#1138,#1139);
#1138 = CARTESIAN_POINT('',(-13.21030583705,-86.57574454935));
#1139 = VECTOR('',#1140,1.);
#1140 = DIRECTION('',(0.150840798222,0.988558067891));
#1141 = ( GEOMETRIC_REPRESENTATION_CONTEXT(2) 
PARAMETRIC_REPRESENTATION_CONTEXT() REPRESENTATION_CONTEXT('2D SPACE',''
  ) );
#1142 = ADVANCED_FACE('',(#1143),#692,.T.);
#1143 = FACE_BOUND('',#1144,.T.);
#1144 = EDGE_LOOP('',(#1145,#1146,#1147));
#1145 = ORIENTED_EDGE('',*,*,#1122,.F.);
#1146 = ORIENTED_EDGE('',*,*,#791,.T.);
#1147 = ORIENTED_EDGE('',*,*,#678,.F.);
#1148 = ADVANCED_FACE('',(#1149),#129,.T.);
#1149 = FACE_BOUND('',#1150,.T.);
#1150 = EDGE_LOOP('',(#1151,#1177,#1178));
#1151 = ORIENTED_EDGE('',*,*,#1152,.T.);
#1152 = EDGE_CURVE('',#231,#22,#1153,.T.);
#1153 = SURFACE_CURVE('',#1154,(#1158,#1165),.PCURVE_S1.);
#1154 = LINE('',#1155,#1156);
#1155 = CARTESIAN_POINT('',(-45.07235826161,34.796756893679,
    13.171399303488));
#1156 = VECTOR('',#1157,1.);
#1157 = DIRECTION('',(1.604222678585E-02,0.180699242823,-0.983407560782)
  );
#1158 = PCURVE('',#129,#1159);
#1159 = DEFINITIONAL_REPRESENTATION('',(#1160),#1164);
#1160 = LINE('',#1161,#1162);
#1161 = CARTESIAN_POINT('',(0.,0.));
#1162 = VECTOR('',#1163,1.);
#1163 = DIRECTION('',(0.178976360774,-0.983853374383));
#1164 = ( GEOMETRIC_REPRESENTATION_CONTEXT(2) 
PARAMETRIC_REPRESENTATION_CONTEXT() REPRESENTATION_CONTEXT('2D SPACE',''
  ) );
#1165 = PCURVE('',#1166,#1171);
#1166 = PLANE('',#1167);
#1167 = AXIS2_PLACEMENT_3D('',#1168,#1169,#1170);
#1168 = CARTESIAN_POINT('',(-45.07235826161,34.796756893679,
    13.171399303488));
#1169 = DIRECTION('',(0.517954115471,0.839781811623,0.162757620813));
#1170 = DIRECTION('',(0.851130719055,-0.524953806616,-1.790288415566E-18
    ));
#1171 = DEFINITIONAL_REPRESENTATION('',(#1172),#1176);
#1172 = LINE('',#1173,#1174);
#1173 = CARTESIAN_POINT('',(0.,0.));
#1174 = VECTOR('',#1175,1.);
#1175 = DIRECTION('',(-8.120472335326E-02,0.996697443011));
#1176 = ( GEOMETRIC_REPRESENTATION_CONTEXT(2) 
PARAMETRIC_REPRESENTATION_CONTEXT() REPRESENTATION_CONTEXT('2D SPACE',''
  ) );
#1177 = ORIENTED_EDGE('',*,*,#113,.T.);
#1178 = ORIENTED_EDGE('',*,*,#258,.F.);
#1179 = ADVANCED_FACE('',(#1180),#1166,.T.);
#1180 = FACE_BOUND('',#1181,.T.);
#1181 = EDGE_LOOP('',(#1182,#1205,#1231));
#1182 = ORIENTED_EDGE('',*,*,#1183,.T.);
#1183 = EDGE_CURVE('',#231,#1184,#1186,.T.);
#1184 = VERTEX_POINT('',#1185);
#1185 = CARTESIAN_POINT('',(-36.22810224374,30.346177955691,
    7.989438820104));
#1186 = SURFACE_CURVE('',#1187,(#1191,#1198),.PCURVE_S1.);
#1187 = LINE('',#1188,#1189);
#1188 = CARTESIAN_POINT('',(-45.07235826161,34.796756893679,
    13.171399303488));
#1189 = VECTOR('',#1190,1.);
#1190 = DIRECTION('',(0.791430382916,-0.398261129706,-0.463708983699));
#1191 = PCURVE('',#1166,#1192);
#1192 = DEFINITIONAL_REPRESENTATION('',(#1193),#1197);
#1193 = LINE('',#1194,#1195);
#1194 = CARTESIAN_POINT('',(0.,0.));
#1195 = VECTOR('',#1196,1.);
#1196 = DIRECTION('',(0.88267940696,0.46997559993));
#1197 = ( GEOMETRIC_REPRESENTATION_CONTEXT(2) 
PARAMETRIC_REPRESENTATION_CONTEXT() REPRESENTATION_CONTEXT('2D SPACE',''
  ) );
#1198 = PCURVE('',#586,#1199);
#1199 = DEFINITIONAL_REPRESENTATION('',(#1200),#1204);
#1200 = LINE('',#1201,#1202);
#1201 = CARTESIAN_POINT('',(-5.266528791147E-02,-11.12118698563));
#1202 = VECTOR('',#1203,1.);
#1203 = DIRECTION('',(-0.611259172574,0.791430492175));
#1204 = ( GEOMETRIC_REPRESENTATION_CONTEXT(2) 
PARAMETRIC_REPRESENTATION_CONTEXT() REPRESENTATION_CONTEXT('2D SPACE',''
  ) );
#1205 = ORIENTED_EDGE('',*,*,#1206,.F.);
#1206 = EDGE_CURVE('',#22,#1184,#1207,.T.);
#1207 = SURFACE_CURVE('',#1208,(#1212,#1219),.PCURVE_S1.);
#1208 = LINE('',#1209,#1210);
#1209 = CARTESIAN_POINT('',(-44.98769969392,35.750348890786,
    7.981728526761));
#1210 = VECTOR('',#1211,1.);
#1211 = DIRECTION('',(0.851065604021,-0.525058831443,7.491172394826E-04)
  );
#1212 = PCURVE('',#1166,#1213);
#1213 = DEFINITIONAL_REPRESENTATION('',(#1214),#1218);
#1214 = LINE('',#1215,#1216);
#1215 = CARTESIAN_POINT('',(-0.428536241254,5.259804581044));
#1216 = VECTOR('',#1217,1.);
#1217 = DIRECTION('',(0.999999711777,-7.592408955188E-04));
#1218 = ( GEOMETRIC_REPRESENTATION_CONTEXT(2) 
PARAMETRIC_REPRESENTATION_CONTEXT() REPRESENTATION_CONTEXT('2D SPACE',''
  ) );
#1219 = PCURVE('',#1220,#1225);
#1220 = PLANE('',#1221);
#1221 = AXIS2_PLACEMENT_3D('',#1222,#1223,#1224);
#1222 = CARTESIAN_POINT('',(-42.93588873247,34.661553813169,
    8.007065071348));
#1223 = DIRECTION('',(-8.187349994223E-02,-0.131298857528,0.987956142761
    ));
#1224 = DIRECTION('',(-5.043934756058E-19,0.99128415193,0.131741148215)
  );
#1225 = DEFINITIONAL_REPRESENTATION('',(#1226),#1230);
#1226 = LINE('',#1227,#1228);
#1227 = CARTESIAN_POINT('',(1.075967439665,2.058722650538));
#1228 = VECTOR('',#1229,1.);
#1229 = DIRECTION('',(-0.520383808875,-0.853932486477));
#1230 = ( GEOMETRIC_REPRESENTATION_CONTEXT(2) 
PARAMETRIC_REPRESENTATION_CONTEXT() REPRESENTATION_CONTEXT('2D SPACE',''
  ) );
#1231 = ORIENTED_EDGE('',*,*,#1152,.F.);
#1232 = ADVANCED_FACE('',(#1233),#586,.T.);
#1233 = FACE_BOUND('',#1234,.T.);
#1234 = EDGE_LOOP('',(#1235,#1256,#1257));
#1235 = ORIENTED_EDGE('',*,*,#1236,.F.);
#1236 = EDGE_CURVE('',#1184,#24,#1237,.T.);
#1237 = SURFACE_CURVE('',#1238,(#1242,#1249),.PCURVE_S1.);
#1238 = LINE('',#1239,#1240);
#1239 = CARTESIAN_POINT('',(-36.22810224374,30.346177955691,
    7.989438820104));
#1240 = VECTOR('',#1241,1.);
#1241 = DIRECTION('',(0.314045715988,0.619194079126,0.719704092419));
#1242 = PCURVE('',#586,#1243);
#1243 = DEFINITIONAL_REPRESENTATION('',(#1244),#1248);
#1244 = LINE('',#1245,#1246);
#1245 = CARTESIAN_POINT('',(-6.883503138234,-2.276929746791));
#1246 = VECTOR('',#1247,1.);
#1247 = DIRECTION('',(0.949407847576,0.314045759342));
#1248 = ( GEOMETRIC_REPRESENTATION_CONTEXT(2) 
PARAMETRIC_REPRESENTATION_CONTEXT() REPRESENTATION_CONTEXT('2D SPACE',''
  ) );
#1249 = PCURVE('',#98,#1250);
#1250 = DEFINITIONAL_REPRESENTATION('',(#1251),#1255);
#1251 = LINE('',#1252,#1253);
#1252 = CARTESIAN_POINT('',(5.033499936138,-5.218323765233));
#1253 = VECTOR('',#1254,1.);
#1254 = DIRECTION('',(-0.694245973914,0.719737818726));
#1255 = ( GEOMETRIC_REPRESENTATION_CONTEXT(2) 
PARAMETRIC_REPRESENTATION_CONTEXT() REPRESENTATION_CONTEXT('2D SPACE',''
  ) );
#1256 = ORIENTED_EDGE('',*,*,#1183,.F.);
#1257 = ORIENTED_EDGE('',*,*,#572,.T.);
#1258 = ADVANCED_FACE('',(#1259),#98,.T.);
#1259 = FACE_BOUND('',#1260,.T.);
#1260 = EDGE_LOOP('',(#1261,#1262,#1288));
#1261 = ORIENTED_EDGE('',*,*,#84,.F.);
#1262 = ORIENTED_EDGE('',*,*,#1263,.F.);
#1263 = EDGE_CURVE('',#1184,#57,#1264,.T.);
#1264 = SURFACE_CURVE('',#1265,(#1269,#1276),.PCURVE_S1.);
#1265 = LINE('',#1266,#1267);
#1266 = CARTESIAN_POINT('',(-36.22810224374,30.346177955691,
    7.989438820104));
#1267 = VECTOR('',#1268,1.);
#1268 = DIRECTION('',(0.443342337584,0.896350439267,-1.860572774833E-03)
  );
#1269 = PCURVE('',#98,#1270);
#1270 = DEFINITIONAL_REPRESENTATION('',(#1271),#1275);
#1271 = LINE('',#1272,#1273);
#1272 = CARTESIAN_POINT('',(5.033499936138,-5.218323765233));
#1273 = VECTOR('',#1274,1.);
#1274 = DIRECTION('',(-0.999998268971,-1.860659963788E-03));
#1275 = ( GEOMETRIC_REPRESENTATION_CONTEXT(2) 
PARAMETRIC_REPRESENTATION_CONTEXT() REPRESENTATION_CONTEXT('2D SPACE',''
  ) );
#1276 = PCURVE('',#1277,#1282);
#1277 = PLANE('',#1278);
#1278 = AXIS2_PLACEMENT_3D('',#1279,#1280,#1281);
#1279 = CARTESIAN_POINT('',(-34.01860207964,34.813349878505,
    7.980166220799));
#1280 = DIRECTION('',(7.669711647667E-03,-1.717846634477E-03,
    0.999969111786));
#1281 = DIRECTION('',(0.999970587242,1.632906297392E-21,
    -7.66972296434E-03));
#1282 = DEFINITIONAL_REPRESENTATION('',(#1283),#1287);
#1283 = LINE('',#1284,#1285);
#1284 = CARTESIAN_POINT('',(-2.209506294871,-4.467178514134));
#1285 = VECTOR('',#1286,1.);
#1286 = DIRECTION('',(0.443343567741,0.896351761834));
#1287 = ( GEOMETRIC_REPRESENTATION_CONTEXT(2) 
PARAMETRIC_REPRESENTATION_CONTEXT() REPRESENTATION_CONTEXT('2D SPACE',''
  ) );
#1288 = ORIENTED_EDGE('',*,*,#1236,.T.);
#1289 = ADVANCED_FACE('',(#1290),#1078,.T.);
#1290 = FACE_BOUND('',#1291,.T.);
#1291 = EDGE_LOOP('',(#1292,#1320,#1321));
#1292 = ORIENTED_EDGE('',*,*,#1293,.F.);
#1293 = EDGE_CURVE('',#871,#1294,#1296,.T.);
#1294 = VERTEX_POINT('',#1295);
#1295 = CARTESIAN_POINT('',(-36.07206605553,34.79958909305,
    7.995892544212));
#1296 = SURFACE_CURVE('',#1297,(#1301,#1308),.PCURVE_S1.);
#1297 = LINE('',#1298,#1299);
#1298 = CARTESIAN_POINT('',(-38.6132999806,38.046069483785,
    7.215239588146E-03));
#1299 = VECTOR('',#1300,1.);
#1300 = DIRECTION('',(0.282679755095,-0.361129399666,0.888638122498));
#1301 = PCURVE('',#1078,#1302);
#1302 = DEFINITIONAL_REPRESENTATION('',(#1303),#1307);
#1303 = LINE('',#1304,#1305);
#1304 = CARTESIAN_POINT('',(-4.122580033847,-7.988792382538));
#1305 = VECTOR('',#1306,1.);
#1306 = DIRECTION('',(0.458584273895,0.888650923443));
#1307 = ( GEOMETRIC_REPRESENTATION_CONTEXT(2) 
PARAMETRIC_REPRESENTATION_CONTEXT() REPRESENTATION_CONTEXT('2D SPACE',''
  ) );
#1308 = PCURVE('',#1309,#1314);
#1309 = PLANE('',#1310);
#1310 = AXIS2_PLACEMENT_3D('',#1311,#1312,#1313);
#1311 = CARTESIAN_POINT('',(-42.93588873247,34.661553813169,
    8.007065071348));
#1312 = DIRECTION('',(1.796682437943E-02,-0.924266946165,-0.38132375411)
  );
#1313 = DIRECTION('',(-4.127214267351E-19,0.381385315961,-0.92441616211)
  );
#1314 = DEFINITIONAL_REPRESENTATION('',(#1315),#1319);
#1315 = LINE('',#1316,#1317);
#1316 = CARTESIAN_POINT('',(8.685995057341,4.323286601303));
#1317 = VECTOR('',#1318,1.);
#1318 = DIRECTION('',(-0.959200892898,0.282725391615));
#1319 = ( GEOMETRIC_REPRESENTATION_CONTEXT(2) 
PARAMETRIC_REPRESENTATION_CONTEXT() REPRESENTATION_CONTEXT('2D SPACE',''
  ) );
#1320 = ORIENTED_EDGE('',*,*,#1064,.T.);
#1321 = ORIENTED_EDGE('',*,*,#1322,.T.);
#1322 = EDGE_CURVE('',#956,#1294,#1323,.T.);
#1323 = SURFACE_CURVE('',#1324,(#1328,#1335),.PCURVE_S1.);
#1324 = LINE('',#1325,#1326);
#1325 = CARTESIAN_POINT('',(-36.10905397331,34.777384666035,
    9.85142130377E-03));
#1326 = VECTOR('',#1327,1.);
#1327 = DIRECTION('',(4.631503586259E-03,2.78036422488E-03,
    0.999985409268));
#1328 = PCURVE('',#1078,#1329);
#1329 = DEFINITIONAL_REPRESENTATION('',(#1330),#1334);
#1330 = LINE('',#1331,#1332);
#1331 = CARTESIAN_POINT('',(-4.868472479156E-03,-7.986156162848));
#1332 = VECTOR('',#1333,1.);
#1333 = DIRECTION('',(6.096138712102E-04,0.999999814185));
#1334 = ( GEOMETRIC_REPRESENTATION_CONTEXT(2) 
PARAMETRIC_REPRESENTATION_CONTEXT() REPRESENTATION_CONTEXT('2D SPACE',''
  ) );
#1335 = PCURVE('',#1336,#1341);
#1336 = PLANE('',#1337);
#1337 = AXIS2_PLACEMENT_3D('',#1338,#1339,#1340);
#1338 = CARTESIAN_POINT('',(-36.07206605553,34.79958909305,
    7.995892544212));
#1339 = DIRECTION('',(-0.915527243267,0.402243856879,3.121928832389E-03)
  );
#1340 = DIRECTION('',(-0.402245817116,-0.915531704865,
    -1.791996654771E-19));
#1341 = DEFINITIONAL_REPRESENTATION('',(#1342),#1346);
#1342 = LINE('',#1343,#1344);
#1343 = CARTESIAN_POINT('',(3.520709213241E-02,-7.986080040926));
#1344 = VECTOR('',#1345,1.);
#1345 = DIRECTION('',(-4.408514543481E-03,0.999990282453));
#1346 = ( GEOMETRIC_REPRESENTATION_CONTEXT(2) 
PARAMETRIC_REPRESENTATION_CONTEXT() REPRESENTATION_CONTEXT('2D SPACE',''
  ) );
#1347 = ADVANCED_FACE('',(#1348),#886,.T.);
#1348 = FACE_BOUND('',#1349,.T.);
#1349 = EDGE_LOOP('',(#1350,#1373,#1374));
#1350 = ORIENTED_EDGE('',*,*,#1351,.T.);
#1351 = EDGE_CURVE('',#1352,#818,#1354,.T.);
#1352 = VERTEX_POINT('',#1353);
#1353 = CARTESIAN_POINT('',(-42.93588873247,34.661553813169,
    8.007065071348));
#1354 = SURFACE_CURVE('',#1355,(#1359,#1366),.PCURVE_S1.);
#1355 = LINE('',#1356,#1357);
#1356 = CARTESIAN_POINT('',(-42.93588873247,34.661553813169,
    8.007065071348));
#1357 = VECTOR('',#1358,1.);
#1358 = DIRECTION('',(1.952242861737E-03,-3.725523643691E-03,
    -0.999991154572));
#1359 = PCURVE('',#886,#1360);
#1360 = DEFINITIONAL_REPRESENTATION('',(#1361),#1365);
#1361 = LINE('',#1362,#1363);
#1362 = CARTESIAN_POINT('',(-0.,0.));
#1363 = VECTOR('',#1364,1.);
#1364 = DIRECTION('',(7.845275715795E-04,0.999999692258));
#1365 = ( GEOMETRIC_REPRESENTATION_CONTEXT(2) 
PARAMETRIC_REPRESENTATION_CONTEXT() REPRESENTATION_CONTEXT('2D SPACE',''
  ) );
#1366 = PCURVE('',#971,#1367);
#1367 = DEFINITIONAL_REPRESENTATION('',(#1368),#1372);
#1368 = LINE('',#1369,#1370);
#1369 = CARTESIAN_POINT('',(0.,0.));
#1370 = VECTOR('',#1371,1.);
#1371 = DIRECTION('',(1.872162777531E-03,0.999998247502));
#1372 = ( GEOMETRIC_REPRESENTATION_CONTEXT(2) 
PARAMETRIC_REPRESENTATION_CONTEXT() REPRESENTATION_CONTEXT('2D SPACE',''
  ) );
#1373 = ORIENTED_EDGE('',*,*,#870,.T.);
#1374 = ORIENTED_EDGE('',*,*,#1375,.F.);
#1375 = EDGE_CURVE('',#1352,#871,#1376,.T.);
#1376 = SURFACE_CURVE('',#1377,(#1381,#1388),.PCURVE_S1.);
#1377 = LINE('',#1378,#1379);
#1378 = CARTESIAN_POINT('',(-42.93588873247,34.661553813169,
    8.007065071348));
#1379 = VECTOR('',#1380,1.);
#1380 = DIRECTION('',(0.445515697165,0.348831439935,-0.824519490426));
#1381 = PCURVE('',#886,#1382);
#1382 = DEFINITIONAL_REPRESENTATION('',(#1383),#1387);
#1383 = LINE('',#1384,#1385);
#1384 = CARTESIAN_POINT('',(-0.,0.));
#1385 = VECTOR('',#1386,1.);
#1386 = DIRECTION('',(-0.565823295176,0.824526529977));
#1387 = ( GEOMETRIC_REPRESENTATION_CONTEXT(2) 
PARAMETRIC_REPRESENTATION_CONTEXT() REPRESENTATION_CONTEXT('2D SPACE',''
  ) );
#1388 = PCURVE('',#1309,#1389);
#1389 = DEFINITIONAL_REPRESENTATION('',(#1390),#1394);
#1390 = LINE('',#1391,#1392);
#1391 = CARTESIAN_POINT('',(0.,0.));
#1392 = VECTOR('',#1393,1.);
#1393 = DIRECTION('',(0.895238331861,0.445587622323));
#1394 = ( GEOMETRIC_REPRESENTATION_CONTEXT(2) 
PARAMETRIC_REPRESENTATION_CONTEXT() REPRESENTATION_CONTEXT('2D SPACE',''
  ) );
#1395 = ADVANCED_FACE('',(#1396),#1309,.T.);
#1396 = FACE_BOUND('',#1397,.T.);
#1397 = EDGE_LOOP('',(#1398,#1399,#1400));
#1398 = ORIENTED_EDGE('',*,*,#1375,.T.);
#1399 = ORIENTED_EDGE('',*,*,#1293,.T.);
#1400 = ORIENTED_EDGE('',*,*,#1401,.F.);
#1401 = EDGE_CURVE('',#1352,#1294,#1402,.T.);
#1402 = SURFACE_CURVE('',#1403,(#1407,#1414),.PCURVE_S1.);
#1403 = LINE('',#1404,#1405);
#1404 = CARTESIAN_POINT('',(-42.93588873247,34.661553813169,
    8.007065071348));
#1405 = VECTOR('',#1406,1.);
#1406 = DIRECTION('',(0.999796520151,2.010646238672E-02,
    -1.627410013011E-03));
#1407 = PCURVE('',#1309,#1408);
#1408 = DEFINITIONAL_REPRESENTATION('',(#1409),#1413);
#1409 = LINE('',#1410,#1411);
#1410 = CARTESIAN_POINT('',(0.,0.));
#1411 = VECTOR('',#1412,1.);
#1412 = DIRECTION('',(9.172713628617E-03,0.999957929777));
#1413 = ( GEOMETRIC_REPRESENTATION_CONTEXT(2) 
PARAMETRIC_REPRESENTATION_CONTEXT() REPRESENTATION_CONTEXT('2D SPACE',''
  ) );
#1414 = PCURVE('',#1415,#1420);
#1415 = PLANE('',#1416);
#1416 = AXIS2_PLACEMENT_3D('',#1417,#1418,#1419);
#1417 = CARTESIAN_POINT('',(-44.98769969392,35.750348890786,
    7.981728526761));
#1418 = DIRECTION('',(1.117055377771E-03,2.536782368878E-02,
    0.999677560871));
#1419 = DIRECTION('',(-6.003820795426E-21,0.999678184577,
    -2.536783951594E-02));
#1420 = DEFINITIONAL_REPRESENTATION('',(#1421),#1425);
#1421 = LINE('',#1422,#1423);
#1422 = CARTESIAN_POINT('',(-1.089087419965,-2.051812241589));
#1423 = VECTOR('',#1424,1.);
#1424 = DIRECTION('',(2.014127569305E-02,-0.999797143931));
#1425 = ( GEOMETRIC_REPRESENTATION_CONTEXT(2) 
PARAMETRIC_REPRESENTATION_CONTEXT() REPRESENTATION_CONTEXT('2D SPACE',''
  ) );
#1426 = ADVANCED_FACE('',(#1427),#971,.T.);
#1427 = FACE_BOUND('',#1428,.T.);
#1428 = EDGE_LOOP('',(#1429,#1455,#1456));
#1429 = ORIENTED_EDGE('',*,*,#1430,.T.);
#1430 = EDGE_CURVE('',#1352,#956,#1431,.T.);
#1431 = SURFACE_CURVE('',#1432,(#1436,#1443),.PCURVE_S1.);
#1432 = LINE('',#1433,#1434);
#1433 = CARTESIAN_POINT('',(-42.93588873247,34.661553813169,
    8.007065071348));
#1434 = VECTOR('',#1435,1.);
#1435 = DIRECTION('',(0.64921996655,1.101531018044E-02,-0.760520938551)
  );
#1436 = PCURVE('',#971,#1437);
#1437 = DEFINITIONAL_REPRESENTATION('',(#1438),#1442);
#1438 = LINE('',#1439,#1440);
#1439 = CARTESIAN_POINT('',(0.,0.));
#1440 = VECTOR('',#1441,1.);
#1441 = DIRECTION('',(0.649307089853,0.760526332921));
#1442 = ( GEOMETRIC_REPRESENTATION_CONTEXT(2) 
PARAMETRIC_REPRESENTATION_CONTEXT() REPRESENTATION_CONTEXT('2D SPACE',''
  ) );
#1443 = PCURVE('',#1444,#1449);
#1444 = PLANE('',#1445);
#1445 = AXIS2_PLACEMENT_3D('',#1446,#1447,#1448);
#1446 = CARTESIAN_POINT('',(-37.13944525221,32.370035952335,
    8.014500385471));
#1447 = DIRECTION('',(0.349091906062,0.884043928864,0.310807292323));
#1448 = DIRECTION('',(0.930109509868,-0.367282316008,7.014732772964E-18)
  );
#1449 = DEFINITIONAL_REPRESENTATION('',(#1450),#1454);
#1450 = LINE('',#1451,#1452);
#1451 = CARTESIAN_POINT('',(-6.232961191508,7.822751957027E-03));
#1452 = VECTOR('',#1453,1.);
#1453 = DIRECTION('',(0.59979993625,0.800150008733));
#1454 = ( GEOMETRIC_REPRESENTATION_CONTEXT(2) 
PARAMETRIC_REPRESENTATION_CONTEXT() REPRESENTATION_CONTEXT('2D SPACE',''
  ) );
#1455 = ORIENTED_EDGE('',*,*,#955,.F.);
#1456 = ORIENTED_EDGE('',*,*,#1351,.F.);
#1457 = ADVANCED_FACE('',(#1458),#1444,.T.);
#1458 = FACE_BOUND('',#1459,.T.);
#1459 = EDGE_LOOP('',(#1460,#1483,#1484));
#1460 = ORIENTED_EDGE('',*,*,#1461,.T.);
#1461 = EDGE_CURVE('',#1462,#956,#1464,.T.);
#1462 = VERTEX_POINT('',#1463);
#1463 = CARTESIAN_POINT('',(-37.13944525221,32.370035952335,
    8.014500385471));
#1464 = SURFACE_CURVE('',#1465,(#1469,#1476),.PCURVE_S1.);
#1465 = LINE('',#1466,#1467);
#1466 = CARTESIAN_POINT('',(-37.13944525221,32.370035952335,
    8.014500385471));
#1467 = VECTOR('',#1468,1.);
#1468 = DIRECTION('',(0.122344031903,0.285837772369,-0.95043606084));
#1469 = PCURVE('',#1444,#1470);
#1470 = DEFINITIONAL_REPRESENTATION('',(#1471),#1475);
#1471 = LINE('',#1472,#1473);
#1472 = CARTESIAN_POINT('',(0.,0.));
#1473 = VECTOR('',#1474,1.);
#1474 = DIRECTION('',(8.810188509833E-03,0.999961189536));
#1475 = ( GEOMETRIC_REPRESENTATION_CONTEXT(2) 
PARAMETRIC_REPRESENTATION_CONTEXT() REPRESENTATION_CONTEXT('2D SPACE',''
  ) );
#1476 = PCURVE('',#1336,#1477);
#1477 = DEFINITIONAL_REPRESENTATION('',(#1478),#1482);
#1478 = LINE('',#1479,#1480);
#1479 = CARTESIAN_POINT('',(2.65368174612,1.860793193984E-02));
#1480 = VECTOR('',#1481,1.);
#1481 = DIRECTION('',(-0.310905918134,-0.950440692558));
#1482 = ( GEOMETRIC_REPRESENTATION_CONTEXT(2) 
PARAMETRIC_REPRESENTATION_CONTEXT() REPRESENTATION_CONTEXT('2D SPACE',''
  ) );
#1483 = ORIENTED_EDGE('',*,*,#1430,.F.);
#1484 = ORIENTED_EDGE('',*,*,#1485,.T.);
#1485 = EDGE_CURVE('',#1352,#1462,#1486,.T.);
#1486 = SURFACE_CURVE('',#1487,(#1491,#1498),.PCURVE_S1.);
#1487 = LINE('',#1488,#1489);
#1488 = CARTESIAN_POINT('',(-42.93588873247,34.661553813169,
    8.007065071348));
#1489 = VECTOR('',#1490,1.);
#1490 = DIRECTION('',(0.929965507076,-0.367644845789,1.192901421737E-03)
  );
#1491 = PCURVE('',#1444,#1492);
#1492 = DEFINITIONAL_REPRESENTATION('',(#1493),#1497);
#1493 = LINE('',#1494,#1495);
#1494 = CARTESIAN_POINT('',(-6.232961191508,7.822751957027E-03));
#1495 = VECTOR('',#1496,1.);
#1496 = DIRECTION('',(0.999999212411,-1.255060886079E-03));
#1497 = ( GEOMETRIC_REPRESENTATION_CONTEXT(2) 
PARAMETRIC_REPRESENTATION_CONTEXT() REPRESENTATION_CONTEXT('2D SPACE',''
  ) );
#1498 = PCURVE('',#1499,#1504);
#1499 = PLANE('',#1500);
#1500 = AXIS2_PLACEMENT_3D('',#1501,#1502,#1503);
#1501 = CARTESIAN_POINT('',(-37.13944525221,32.370035952335,
    8.014500385471));
#1502 = DIRECTION('',(-7.51502077169E-03,-1.576518939027E-02,
    0.999847480002));
#1503 = DIRECTION('',(1.983403641945E-20,0.99987571466,1.57656345829E-02
    ));
#1504 = DEFINITIONAL_REPRESENTATION('',(#1505),#1509);
#1505 = LINE('',#1506,#1507);
#1506 = CARTESIAN_POINT('',(2.291115836311,5.796607165825));
#1507 = VECTOR('',#1508,1.);
#1508 = DIRECTION('',(-0.367580346076,-0.929991768339));
#1509 = ( GEOMETRIC_REPRESENTATION_CONTEXT(2) 
PARAMETRIC_REPRESENTATION_CONTEXT() REPRESENTATION_CONTEXT('2D SPACE',''
  ) );
#1510 = ADVANCED_FACE('',(#1511),#1336,.T.);
#1511 = FACE_BOUND('',#1512,.T.);
#1512 = EDGE_LOOP('',(#1513,#1514,#1515));
#1513 = ORIENTED_EDGE('',*,*,#1322,.F.);
#1514 = ORIENTED_EDGE('',*,*,#1461,.F.);
#1515 = ORIENTED_EDGE('',*,*,#1516,.T.);
#1516 = EDGE_CURVE('',#1462,#1294,#1517,.T.);
#1517 = SURFACE_CURVE('',#1518,(#1522,#1529),.PCURVE_S1.);
#1518 = LINE('',#1519,#1520);
#1519 = CARTESIAN_POINT('',(-37.13944525221,32.370035952335,
    8.014500385471));
#1520 = VECTOR('',#1521,1.);
#1521 = DIRECTION('',(0.402215886586,0.915518002916,-7.011912348241E-03)
  );
#1522 = PCURVE('',#1336,#1523);
#1523 = DEFINITIONAL_REPRESENTATION('',(#1524),#1528);
#1524 = LINE('',#1525,#1526);
#1525 = CARTESIAN_POINT('',(2.65368174612,1.860793193984E-02));
#1526 = VECTOR('',#1527,1.);
#1527 = DIRECTION('',(-0.999975416001,-7.011946519081E-03));
#1528 = ( GEOMETRIC_REPRESENTATION_CONTEXT(2) 
PARAMETRIC_REPRESENTATION_CONTEXT() REPRESENTATION_CONTEXT('2D SPACE',''
  ) );
#1529 = PCURVE('',#1530,#1535);
#1530 = PLANE('',#1531);
#1531 = AXIS2_PLACEMENT_3D('',#1532,#1533,#1534);
#1532 = CARTESIAN_POINT('',(-36.07206605553,34.79958909305,
    7.995892544212));
#1533 = DIRECTION('',(2.252268517253E-02,-2.237930538095E-03,
    0.999743827348));
#1534 = DIRECTION('',(0.999746330882,-1.108935138512E-20,
    -2.252274157329E-02));
#1535 = DEFINITIONAL_REPRESENTATION('',(#1536),#1540);
#1536 = LINE('',#1537,#1538);
#1537 = CARTESIAN_POINT('',(-1.067527535142,-2.429559224743));
#1538 = VECTOR('',#1539,1.);
#1539 = DIRECTION('',(0.402271784326,0.915520295534));
#1540 = ( GEOMETRIC_REPRESENTATION_CONTEXT(2) 
PARAMETRIC_REPRESENTATION_CONTEXT() REPRESENTATION_CONTEXT('2D SPACE',''
  ) );
#1541 = ADVANCED_FACE('',(#1542),#1220,.T.);
#1542 = FACE_BOUND('',#1543,.T.);
#1543 = EDGE_LOOP('',(#1544,#1565,#1566));
#1544 = ORIENTED_EDGE('',*,*,#1545,.F.);
#1545 = EDGE_CURVE('',#22,#1352,#1546,.T.);
#1546 = SURFACE_CURVE('',#1547,(#1551,#1558),.PCURVE_S1.);
#1547 = LINE('',#1548,#1549);
#1548 = CARTESIAN_POINT('',(-44.98769969392,35.750348890786,
    7.981728526761));
#1549 = VECTOR('',#1550,1.);
#1550 = DIRECTION('',(0.883282383791,-0.468714481835,1.090710787702E-02)
  );
#1551 = PCURVE('',#1220,#1552);
#1552 = DEFINITIONAL_REPRESENTATION('',(#1553),#1557);
#1553 = LINE('',#1554,#1555);
#1554 = CARTESIAN_POINT('',(1.075967439665,2.058722650538));
#1555 = VECTOR('',#1556,1.);
#1556 = DIRECTION('',(-0.463192322707,-0.886257791043));
#1557 = ( GEOMETRIC_REPRESENTATION_CONTEXT(2) 
PARAMETRIC_REPRESENTATION_CONTEXT() REPRESENTATION_CONTEXT('2D SPACE',''
  ) );
#1558 = PCURVE('',#1415,#1559);
#1559 = DEFINITIONAL_REPRESENTATION('',(#1560),#1564);
#1560 = LINE('',#1561,#1562);
#1561 = CARTESIAN_POINT('',(0.,0.));
#1562 = VECTOR('',#1563,1.);
#1563 = DIRECTION('',(-0.468840332047,-0.883282934877));
#1564 = ( GEOMETRIC_REPRESENTATION_CONTEXT(2) 
PARAMETRIC_REPRESENTATION_CONTEXT() REPRESENTATION_CONTEXT('2D SPACE',''
  ) );
#1565 = ORIENTED_EDGE('',*,*,#1206,.T.);
#1566 = ORIENTED_EDGE('',*,*,#1567,.F.);
#1567 = EDGE_CURVE('',#1352,#1184,#1568,.T.);
#1568 = SURFACE_CURVE('',#1569,(#1573,#1580),.PCURVE_S1.);
#1569 = LINE('',#1570,#1571);
#1570 = CARTESIAN_POINT('',(-42.93588873247,34.661553813169,
    8.007065071348));
#1571 = VECTOR('',#1572,1.);
#1572 = DIRECTION('',(0.8409923139,-0.541042553132,-2.209900664575E-03)
  );
#1573 = PCURVE('',#1220,#1574);
#1574 = DEFINITIONAL_REPRESENTATION('',(#1575),#1579);
#1575 = LINE('',#1576,#1577);
#1576 = CARTESIAN_POINT('',(0.,0.));
#1577 = VECTOR('',#1578,1.);
#1578 = DIRECTION('',(-0.53661804329,-0.843825263674));
#1579 = ( GEOMETRIC_REPRESENTATION_CONTEXT(2) 
PARAMETRIC_REPRESENTATION_CONTEXT() REPRESENTATION_CONTEXT('2D SPACE',''
  ) );
#1580 = PCURVE('',#1499,#1581);
#1581 = DEFINITIONAL_REPRESENTATION('',(#1582),#1586);
#1582 = LINE('',#1583,#1584);
#1583 = CARTESIAN_POINT('',(2.291115836311,5.796607165825));
#1584 = VECTOR('',#1585,1.);
#1585 = DIRECTION('',(-0.54101014996,-0.841016062653));
#1586 = ( GEOMETRIC_REPRESENTATION_CONTEXT(2) 
PARAMETRIC_REPRESENTATION_CONTEXT() REPRESENTATION_CONTEXT('2D SPACE',''
  ) );
#1587 = ADVANCED_FACE('',(#1588),#1499,.T.);
#1588 = FACE_BOUND('',#1589,.T.);
#1589 = EDGE_LOOP('',(#1590,#1591,#1592));
#1590 = ORIENTED_EDGE('',*,*,#1485,.F.);
#1591 = ORIENTED_EDGE('',*,*,#1567,.T.);
#1592 = ORIENTED_EDGE('',*,*,#1593,.F.);
#1593 = EDGE_CURVE('',#1462,#1184,#1594,.T.);
#1594 = SURFACE_CURVE('',#1595,(#1599,#1606),.PCURVE_S1.);
#1595 = LINE('',#1596,#1597);
#1596 = CARTESIAN_POINT('',(-37.13944525221,32.370035952335,
    8.014500385471));
#1597 = VECTOR('',#1598,1.);
#1598 = DIRECTION('',(0.410565882199,-0.911761034113,-1.12903962598E-02)
  );
#1599 = PCURVE('',#1499,#1600);
#1600 = DEFINITIONAL_REPRESENTATION('',(#1601),#1605);
#1601 = LINE('',#1602,#1603);
#1602 = CARTESIAN_POINT('',(0.,0.));
#1603 = VECTOR('',#1604,1.);
#1604 = DIRECTION('',(-0.911825715844,-0.410577476155));
#1605 = ( GEOMETRIC_REPRESENTATION_CONTEXT(2) 
PARAMETRIC_REPRESENTATION_CONTEXT() REPRESENTATION_CONTEXT('2D SPACE',''
  ) );
#1606 = PCURVE('',#1530,#1607);
#1607 = DEFINITIONAL_REPRESENTATION('',(#1608),#1612);
#1608 = LINE('',#1609,#1610);
#1609 = CARTESIAN_POINT('',(-1.067527535142,-2.429559224743));
#1610 = VECTOR('',#1611,1.);
#1611 = DIRECTION('',(0.410716024991,-0.911763317323));
#1612 = ( GEOMETRIC_REPRESENTATION_CONTEXT(2) 
PARAMETRIC_REPRESENTATION_CONTEXT() REPRESENTATION_CONTEXT('2D SPACE',''
  ) );
#1613 = ADVANCED_FACE('',(#1614),#1530,.T.);
#1614 = FACE_BOUND('',#1615,.T.);
#1615 = EDGE_LOOP('',(#1616,#1617,#1618));
#1616 = ORIENTED_EDGE('',*,*,#1516,.F.);
#1617 = ORIENTED_EDGE('',*,*,#1593,.T.);
#1618 = ORIENTED_EDGE('',*,*,#1619,.T.);
#1619 = EDGE_CURVE('',#1184,#1294,#1620,.T.);
#1620 = SURFACE_CURVE('',#1621,(#1625,#1632),.PCURVE_S1.);
#1621 = LINE('',#1622,#1623);
#1622 = CARTESIAN_POINT('',(-36.22810224374,30.346177955691,
    7.989438820104));
#1623 = VECTOR('',#1624,1.);
#1624 = DIRECTION('',(3.501593073842E-02,0.999385704869,
    1.448274012413E-03));
#1625 = PCURVE('',#1530,#1626);
#1626 = DEFINITIONAL_REPRESENTATION('',(#1627),#1631);
#1627 = LINE('',#1628,#1629);
#1628 = CARTESIAN_POINT('',(-0.155851251084,-4.453422289484));
#1629 = VECTOR('',#1630,1.);
#1630 = DIRECTION('',(3.497442917684E-02,0.999388207507));
#1631 = ( GEOMETRIC_REPRESENTATION_CONTEXT(2) 
PARAMETRIC_REPRESENTATION_CONTEXT() REPRESENTATION_CONTEXT('2D SPACE',''
  ) );
#1632 = PCURVE('',#1277,#1633);
#1633 = DEFINITIONAL_REPRESENTATION('',(#1634),#1638);
#1634 = LINE('',#1635,#1636);
#1635 = CARTESIAN_POINT('',(-2.209506294871,-4.467178514134));
#1636 = VECTOR('',#1637,1.);
#1637 = DIRECTION('',(3.500379296288E-02,0.999387179465));
#1638 = ( GEOMETRIC_REPRESENTATION_CONTEXT(2) 
PARAMETRIC_REPRESENTATION_CONTEXT() REPRESENTATION_CONTEXT('2D SPACE',''
  ) );
#1639 = ADVANCED_FACE('',(#1640),#1277,.T.);
#1640 = FACE_BOUND('',#1641,.T.);
#1641 = EDGE_LOOP('',(#1642,#1663,#1664));
#1642 = ORIENTED_EDGE('',*,*,#1643,.F.);
#1643 = EDGE_CURVE('',#1294,#57,#1644,.T.);
#1644 = SURFACE_CURVE('',#1645,(#1649,#1656),.PCURVE_S1.);
#1645 = LINE('',#1646,#1647);
#1646 = CARTESIAN_POINT('',(-36.07206605553,34.79958909305,
    7.995892544212));
#1647 = VECTOR('',#1648,1.);
#1648 = DIRECTION('',(0.999948224788,6.700907904294E-03,
    -7.658039957808E-03));
#1649 = PCURVE('',#1277,#1650);
#1650 = DEFINITIONAL_REPRESENTATION('',(#1651),#1655);
#1651 = LINE('',#1652,#1653);
#1652 = CARTESIAN_POINT('',(-2.053524194396,-1.376080575887E-02));
#1653 = VECTOR('',#1654,1.);
#1654 = DIRECTION('',(0.999977548598,6.700917791496E-03));
#1655 = ( GEOMETRIC_REPRESENTATION_CONTEXT(2) 
PARAMETRIC_REPRESENTATION_CONTEXT() REPRESENTATION_CONTEXT('2D SPACE',''
  ) );
#1656 = PCURVE('',#72,#1657);
#1657 = DEFINITIONAL_REPRESENTATION('',(#1658),#1662);
#1658 = LINE('',#1659,#1660);
#1659 = CARTESIAN_POINT('',(-0.948762962254,-8.915857604733));
#1660 = VECTOR('',#1661,1.);
#1661 = DIRECTION('',(7.301441820359E-03,-0.999973344118));
#1662 = ( GEOMETRIC_REPRESENTATION_CONTEXT(2) 
PARAMETRIC_REPRESENTATION_CONTEXT() REPRESENTATION_CONTEXT('2D SPACE',''
  ) );
#1663 = ORIENTED_EDGE('',*,*,#1619,.F.);
#1664 = ORIENTED_EDGE('',*,*,#1263,.T.);
#1665 = ADVANCED_FACE('',(#1666),#1415,.T.);
#1666 = FACE_BOUND('',#1667,.T.);
#1667 = EDGE_LOOP('',(#1668,#1669,#1670));
#1668 = ORIENTED_EDGE('',*,*,#1545,.T.);
#1669 = ORIENTED_EDGE('',*,*,#1401,.T.);
#1670 = ORIENTED_EDGE('',*,*,#1671,.F.);
#1671 = EDGE_CURVE('',#22,#1294,#1672,.T.);
#1672 = SURFACE_CURVE('',#1673,(#1677,#1684),.PCURVE_S1.);
#1673 = LINE('',#1674,#1675);
#1674 = CARTESIAN_POINT('',(-44.98769969392,35.750348890786,
    7.981728526761));
#1675 = VECTOR('',#1676,1.);
#1676 = DIRECTION('',(0.994360795753,-0.106038259017,1.579713145995E-03)
  );
#1677 = PCURVE('',#1415,#1678);
#1678 = DEFINITIONAL_REPRESENTATION('',(#1679),#1683);
#1679 = LINE('',#1680,#1681);
#1680 = CARTESIAN_POINT('',(0.,0.));
#1681 = VECTOR('',#1682,1.);
#1682 = DIRECTION('',(-0.106044208179,-0.994361416142));
#1683 = ( GEOMETRIC_REPRESENTATION_CONTEXT(2) 
PARAMETRIC_REPRESENTATION_CONTEXT() REPRESENTATION_CONTEXT('2D SPACE',''
  ) );
#1684 = PCURVE('',#72,#1685);
#1685 = DEFINITIONAL_REPRESENTATION('',(#1686),#1690);
#1686 = LINE('',#1687,#1688);
#1687 = CARTESIAN_POINT('',(0.,0.));
#1688 = VECTOR('',#1689,1.);
#1689 = DIRECTION('',(-0.105815551916,-0.994385774724));
#1690 = ( GEOMETRIC_REPRESENTATION_CONTEXT(2) 
PARAMETRIC_REPRESENTATION_CONTEXT() REPRESENTATION_CONTEXT('2D SPACE',''
  ) );
#1691 = ADVANCED_FACE('',(#1692),#72,.T.);
#1692 = FACE_BOUND('',#1693,.T.);
#1693 = EDGE_LOOP('',(#1694,#1695,#1696));
#1694 = ORIENTED_EDGE('',*,*,#1671,.T.);
#1695 = ORIENTED_EDGE('',*,*,#1643,.T.);
#1696 = ORIENTED_EDGE('',*,*,#56,.F.);
#1697 = ( GEOMETRIC_REPRESENTATION_CONTEXT(3) 
GLOBAL_UNCERTAINTY_ASSIGNED_CONTEXT((#1701)) 
GLOBAL_UNIT_ASSIGNED_CONTEXT((#1698,#1699,#1700)) REPRESENTATION_CONTEXT
('Context #1','3D Context with UNIT and UNCERTAINTY') );
#1698 = ( LENGTH_UNIT() NAMED_UNIT(*) SI_UNIT(.MILLI.,.METRE.) );
#1699 = ( NAMED_UNIT(*) PLANE_ANGLE_UNIT() SI_UNIT($,.RADIAN.) );
#1700 = ( NAMED_UNIT(*) SI_UNIT($,.STERADIAN.) SOLID_ANGLE_UNIT() );
#1701 = UNCERTAINTY_MEASURE_WITH_UNIT(LENGTH_MEASURE(1.E-07),#1698,
  'distance_accuracy_value','confusion accuracy');
#1702 = PRODUCT_TYPE('part',$,(#7));
ENDSEC;
END-ISO-10303-21;
