ISO-10303-21;
HEADER;
FILE_DESCRIPTION(('Open CASCADE Model'),'2;1');
FILE_NAME('Open CASCADE Shape Model','2026-10-04T20:47:37',('Author'),(
    'Open CASCADE'),'Open CASCADE STEP processor 7.8','Open CASCADE 7.8'
  ,'Unknown');
FILE_SCHEMA(('AUTOMOTIVE_DESIGN_CC2 { 1 2 10303 214 -1 1 5 4 }'));
ENDSEC;
DATA;
#1 = APPLICATION_PROTOCOL_DEFINITION('committee draft',
  'automotive_design',1997,#2);
#2 = APPLICATION_CONTEXT(
  'core data for automotive mechanical design processes');
#3 = SHAPE_DEFINITION_REPRESENTATION(#4,#10);
#4 = PRODUCT_DEFINITION_SHAPE('','',#5);
#5 = PRODUCT_DEFINITION('design','',#6,#9);
#6 = PRODUCT_DEFINITION_FORMATION('','',#7);
#7 = PRODUCT('Open CASCADE STEP translator 7.8 9',
  'Open CASCADE STEP translator 7.8 9','',(#8));
#8 = MECHANICAL_CONTEXT('',#2,'mechanical');
#9 = PRODUCT_DEFINITION_CONTEXT('part definition',#2,'design');
#10 = ADVANCED_BREP_SHAPE_REPRESENTATION('',(#11,#15),#1861);
#11 = AXIS2_PLACEMENT_3D('',#12,#13,#14);
#12 = CARTESIAN_POINT('',(0.,0.,0.));
#13 = DIRECTION('',(0.,0.,1.));
#14 = DIRECTION('',(1.,0.,-0.));
#15 = MANIFOLD_SOLID_BREP('',#16);
#16 = CLOSED_SHELL('',(#17,#109,#167,#225,#283,#341,#399,#457,#515,#571,
    #629,#677,#703,#734,#792,#850,#901,#927,#958,#1016,#1074,#1132,#1188
    ,#1236,#1262,#1293,#1351,#1409,#1460,#1486,#1517,#1543,#1549,#1595,
    #1621,#1647,#1673,#1699,#1705,#1751,#1777,#1803,#1829,#1855));
#17 = ADVANCED_FACE('',(#18),#32,.T.);
#18 = FACE_BOUND('',#19,.T.);
#19 = EDGE_LOOP('',(#20,#55,#83));
#20 = ORIENTED_EDGE('',*,*,#21,.F.);
#21 = EDGE_CURVE('',#22,#24,#26,.T.);
#22 = VERTEX_POINT('',#23);
#23 = CARTESIAN_POINT('',(40.435967948172,48.266674293415,
    -3.085298473275E-02));
#24 = VERTEX_POINT('',#25);
#25 = CARTESIAN_POINT('',(40.497232373626,48.270512200596,7.977485493919
    ));
#26 = SURFACE_CURVE('',#27,(#31,#43),.PCURVE_S1.);
#27 = LINE('',#28,#29);
#28 = CARTESIAN_POINT('',(40.435967948172,48.266674293415,
    -3.085298473275E-02));
#29 = VECTOR('',#30,1.);
#30 = DIRECTION('',(7.649854704666E-03,4.792248044318E-04,0.999970624602
    ));
#31 = PCURVE('',#32,#37);
#32 = PLANE('',#33);
#33 = AXIS2_PLACEMENT_3D('',#34,#35,#36);
#34 = CARTESIAN_POINT('',(40.497232373626,48.270512200596,7.977485493919
    ));
#35 = DIRECTION('',(3.543491748359E-04,0.999999821081,
    -4.819495958527E-04));
#36 = DIRECTION('',(1.589627416902E-23,4.819496261103E-04,0.999999883862
    ));
#37 = DEFINITIONAL_REPRESENTATION('',(#38),#42);
#38 = LINE('',#39,#40);
#39 = CARTESIAN_POINT('',(-8.008339398259,-6.126442930064E-02));
#40 = VECTOR('',#41,1.);
#41 = DIRECTION('',(0.99997073943,7.649855184937E-03));
#42 = ( GEOMETRIC_REPRESENTATION_CONTEXT(2) 
PARAMETRIC_REPRESENTATION_CONTEXT() REPRESENTATION_CONTEXT('2D SPACE',''
  ) );
#43 = PCURVE('',#44,#49);
#44 = PLANE('',#45);
#45 = AXIS2_PLACEMENT_3D('',#46,#47,#48);
#46 = CARTESIAN_POINT('',(40.47120561941,-48.25661172273,7.972299860526)
  );
#47 = DIRECTION('',(0.999970704177,-2.69212652454E-04,
    -7.649726296251E-03));
#48 = DIRECTION('',(7.64972657346E-03,-6.326912563765E-23,0.999970740414
    ));
#49 = DEFINITIONAL_REPRESENTATION('',(#50),#54);
#50 = LINE('',#51,#52);
#51 = CARTESIAN_POINT('',(-8.003188234867,-96.52328951393));
#52 = VECTOR('',#53,1.);
#53 = DIRECTION('',(0.999999885172,-4.792248217978E-04));
#54 = ( GEOMETRIC_REPRESENTATION_CONTEXT(2) 
PARAMETRIC_REPRESENTATION_CONTEXT() REPRESENTATION_CONTEXT('2D SPACE',''
  ) );
#55 = ORIENTED_EDGE('',*,*,#56,.F.);
#56 = EDGE_CURVE('',#57,#22,#59,.T.);
#57 = VERTEX_POINT('',#58);
#58 = CARTESIAN_POINT('',(-40.45829761808,48.295341729158,
    -2.542843017279E-02));
#59 = SURFACE_CURVE('',#60,(#64,#71),.PCURVE_S1.);
#60 = LINE('',#61,#62);
#61 = CARTESIAN_POINT('',(-40.45829761808,48.295341729158,
    -2.542843017279E-02));
#62 = VECTOR('',#63,1.);
#63 = DIRECTION('',(0.999999934959,-3.543815334517E-04,
    -6.705733922143E-05));
#64 = PCURVE('',#32,#65);
#65 = DEFINITIONAL_REPRESENTATION('',(#66),#70);
#66 = LINE('',#67,#68);
#67 = CARTESIAN_POINT('',(-8.002901028069,-80.95553507423));
#68 = VECTOR('',#69,1.);
#69 = DIRECTION('',(-6.722812548109E-05,0.99999999774));
#70 = ( GEOMETRIC_REPRESENTATION_CONTEXT(2) 
PARAMETRIC_REPRESENTATION_CONTEXT() REPRESENTATION_CONTEXT('2D SPACE',''
  ) );
#71 = PCURVE('',#72,#77);
#72 = PLANE('',#73);
#73 = AXIS2_PLACEMENT_3D('',#74,#75,#76);
#74 = CARTESIAN_POINT('',(40.435967948172,48.266674293415,
    -3.085298473275E-02));
#75 = DIRECTION('',(-6.794177885363E-05,-2.496304744791E-03,
    -0.999996881918));
#76 = DIRECTION('',(4.880101181352E-24,-0.999996884226,
    2.496304750553E-03));
#77 = DEFINITIONAL_REPRESENTATION('',(#78),#82);
#78 = LINE('',#79,#80);
#79 = CARTESIAN_POINT('',(-2.865380508084E-02,80.894265752965));
#80 = VECTOR('',#81,1.);
#81 = DIRECTION('',(3.542130337247E-04,-0.999999937267));
#82 = ( GEOMETRIC_REPRESENTATION_CONTEXT(2) 
PARAMETRIC_REPRESENTATION_CONTEXT() REPRESENTATION_CONTEXT('2D SPACE',''
  ) );
#83 = ORIENTED_EDGE('',*,*,#84,.T.);
#84 = EDGE_CURVE('',#57,#24,#85,.T.);
#85 = SURFACE_CURVE('',#86,(#90,#97),.PCURVE_S1.);
#86 = LINE('',#87,#88);
#87 = CARTESIAN_POINT('',(-40.45829761808,48.295341729158,
    -2.542843017279E-02));
#88 = VECTOR('',#89,1.);
#89 = DIRECTION('',(0.995149254547,-3.052180233005E-04,
    9.837615573116E-02));
#90 = PCURVE('',#32,#91);
#91 = DEFINITIONAL_REPRESENTATION('',(#92),#96);
#92 = LINE('',#93,#94);
#93 = CARTESIAN_POINT('',(-8.002901028069,-80.95553507423));
#94 = VECTOR('',#95,1.);
#95 = DIRECTION('',(9.837599720627E-02,0.995149317024));
#96 = ( GEOMETRIC_REPRESENTATION_CONTEXT(2) 
PARAMETRIC_REPRESENTATION_CONTEXT() REPRESENTATION_CONTEXT('2D SPACE',''
  ) );
#97 = PCURVE('',#98,#103);
#98 = PLANE('',#99);
#99 = AXIS2_PLACEMENT_3D('',#100,#101,#102);
#100 = CARTESIAN_POINT('',(40.497232373626,48.270512200596,
    7.977485493919));
#101 = DIRECTION('',(-2.234401447012E-04,0.999985595216,
    5.362782436607E-03));
#102 = DIRECTION('',(-2.581390241545E-24,-5.362782570477E-03,
    0.999985620178));
#103 = DEFINITIONAL_REPRESENTATION('',(#104),#108);
#104 = LINE('',#105,#106);
#105 = CARTESIAN_POINT('',(-8.002931998978,-80.95553201258));
#106 = VECTOR('',#107,1.);
#107 = DIRECTION('',(9.837637791747E-02,0.995149279389));
#108 = ( GEOMETRIC_REPRESENTATION_CONTEXT(2) 
PARAMETRIC_REPRESENTATION_CONTEXT() REPRESENTATION_CONTEXT('2D SPACE',''
  ) );
#109 = ADVANCED_FACE('',(#110),#98,.T.);
#110 = FACE_BOUND('',#111,.T.);
#111 = EDGE_LOOP('',(#112,#113,#141));
#112 = ORIENTED_EDGE('',*,*,#84,.F.);
#113 = ORIENTED_EDGE('',*,*,#114,.F.);
#114 = EDGE_CURVE('',#115,#57,#117,.T.);
#115 = VERTEX_POINT('',#116);
#116 = CARTESIAN_POINT('',(-40.4590159844,48.252249692584,8.009813692897
    ));
#117 = SURFACE_CURVE('',#118,(#122,#129),.PCURVE_S1.);
#118 = LINE('',#119,#120);
#119 = CARTESIAN_POINT('',(-40.4590159844,48.252249692584,8.009813692897
    ));
#120 = VECTOR('',#121,1.);
#121 = DIRECTION('',(8.940066460325E-05,5.362802524457E-03,
    -0.999985616075));
#122 = PCURVE('',#98,#123);
#123 = DEFINITIONAL_REPRESENTATION('',(#124),#128);
#124 = LINE('',#125,#126);
#125 = CARTESIAN_POINT('',(3.24256719641E-02,-80.95625037892));
#126 = VECTOR('',#127,1.);
#127 = DIRECTION('',(-0.999999996004,8.940066683494E-05));
#128 = ( GEOMETRIC_REPRESENTATION_CONTEXT(2) 
PARAMETRIC_REPRESENTATION_CONTEXT() REPRESENTATION_CONTEXT('2D SPACE',''
  ) );
#129 = PCURVE('',#130,#135);
#130 = PLANE('',#131);
#131 = AXIS2_PLACEMENT_3D('',#132,#133,#134);
#132 = CARTESIAN_POINT('',(-40.44169447144,-48.27050263643,
    7.991036734493));
#133 = DIRECTION('',(-0.999999979818,-1.794376499887E-04,
    -9.036425127395E-05));
#134 = DIRECTION('',(1.794376507213E-04,-0.999999983901,
    -1.533864838203E-24));
#135 = DEFINITIONAL_REPRESENTATION('',(#136),#140);
#136 = LINE('',#137,#138);
#137 = CARTESIAN_POINT('',(-96.52275388323,1.87769584809E-02));
#138 = VECTOR('',#139,1.);
#139 = DIRECTION('',(-5.362786396276E-03,-0.999985620158));
#140 = ( GEOMETRIC_REPRESENTATION_CONTEXT(2) 
PARAMETRIC_REPRESENTATION_CONTEXT() REPRESENTATION_CONTEXT('2D SPACE',''
  ) );
#141 = ORIENTED_EDGE('',*,*,#142,.T.);
#142 = EDGE_CURVE('',#115,#24,#143,.T.);
#143 = SURFACE_CURVE('',#144,(#148,#155),.PCURVE_S1.);
#144 = LINE('',#145,#146);
#145 = CARTESIAN_POINT('',(-40.4590159844,48.252249692584,8.009813692897
    ));
#146 = VECTOR('',#147,1.);
#147 = DIRECTION('',(0.999999894824,2.255848864341E-04,
    -3.993292208286E-04));
#148 = PCURVE('',#98,#149);
#149 = DEFINITIONAL_REPRESENTATION('',(#150),#154);
#150 = LINE('',#151,#152);
#151 = CARTESIAN_POINT('',(3.24256719641E-02,-80.95625037892));
#152 = VECTOR('',#153,1.);
#153 = DIRECTION('',(-4.005332412427E-04,0.999999919787));
#154 = ( GEOMETRIC_REPRESENTATION_CONTEXT(2) 
PARAMETRIC_REPRESENTATION_CONTEXT() REPRESENTATION_CONTEXT('2D SPACE',''
  ) );
#155 = PCURVE('',#156,#161);
#156 = PLANE('',#157);
#157 = AXIS2_PLACEMENT_3D('',#158,#159,#160);
#158 = CARTESIAN_POINT('',(40.497232373626,48.270512200596,
    7.977485493919));
#159 = DIRECTION('',(3.988056930394E-04,2.316054776895E-03,
    0.999997238418));
#160 = DIRECTION('',(1.20423720762E-22,0.999997317941,
    -2.316054961075E-03));
#161 = DEFINITIONAL_REPRESENTATION('',(#162),#166);
#162 = LINE('',#163,#164);
#163 = CARTESIAN_POINT('',(-1.833733291726E-02,80.956254795915));
#164 = VECTOR('',#165,1.);
#165 = DIRECTION('',(2.265091498252E-04,-0.999999974347));
#166 = ( GEOMETRIC_REPRESENTATION_CONTEXT(2) 
PARAMETRIC_REPRESENTATION_CONTEXT() REPRESENTATION_CONTEXT('2D SPACE',''
  ) );
#167 = ADVANCED_FACE('',(#168),#130,.T.);
#168 = FACE_BOUND('',#169,.T.);
#169 = EDGE_LOOP('',(#170,#198,#199));
#170 = ORIENTED_EDGE('',*,*,#171,.F.);
#171 = EDGE_CURVE('',#115,#172,#174,.T.);
#172 = VERTEX_POINT('',#173);
#173 = CARTESIAN_POINT('',(-40.44169447144,-48.27050263643,
    7.991036734493));
#174 = SURFACE_CURVE('',#175,(#179,#186),.PCURVE_S1.);
#175 = LINE('',#176,#177);
#176 = CARTESIAN_POINT('',(-40.4590159844,48.252249692584,8.009813692897
    ));
#177 = VECTOR('',#178,1.);
#178 = DIRECTION('',(1.794552262457E-04,-0.999999964976,
    -1.945340066827E-04));
#179 = PCURVE('',#130,#180);
#180 = DEFINITIONAL_REPRESENTATION('',(#181),#185);
#181 = LINE('',#182,#183);
#182 = CARTESIAN_POINT('',(-96.52275388323,1.87769584809E-02));
#183 = VECTOR('',#184,1.);
#184 = DIRECTION('',(0.999999981078,-1.945340074769E-04));
#185 = ( GEOMETRIC_REPRESENTATION_CONTEXT(2) 
PARAMETRIC_REPRESENTATION_CONTEXT() REPRESENTATION_CONTEXT('2D SPACE',''
  ) );
#186 = PCURVE('',#187,#192);
#187 = PLANE('',#188);
#188 = AXIS2_PLACEMENT_3D('',#189,#190,#191);
#189 = CARTESIAN_POINT('',(-1.675832061898,26.591379208701,8.04451459674
    ));
#190 = DIRECTION('',(-1.003490594932E-03,-1.94713993499E-04,
    0.999999477546));
#191 = DIRECTION('',(0.999999496503,9.512488151334E-24,
    1.003490613955E-03));
#192 = DEFINITIONAL_REPRESENTATION('',(#193),#197);
#193 = LINE('',#194,#195);
#194 = CARTESIAN_POINT('',(-38.78319921732,21.660870894503));
#195 = VECTOR('',#196,1.);
#196 = DIRECTION('',(1.792599228408E-04,-0.999999983933));
#197 = ( GEOMETRIC_REPRESENTATION_CONTEXT(2) 
PARAMETRIC_REPRESENTATION_CONTEXT() REPRESENTATION_CONTEXT('2D SPACE',''
  ) );
#198 = ORIENTED_EDGE('',*,*,#114,.T.);
#199 = ORIENTED_EDGE('',*,*,#200,.T.);
#200 = EDGE_CURVE('',#57,#172,#201,.T.);
#201 = SURFACE_CURVE('',#202,(#206,#213),.PCURVE_S1.);
#202 = LINE('',#203,#204);
#203 = CARTESIAN_POINT('',(-40.45829761808,48.295341729158,
    -2.542843017279E-02));
#204 = VECTOR('',#205,1.);
#205 = DIRECTION('',(1.713466037603E-04,-0.99657190443,
    8.273094910975E-02));
#206 = PCURVE('',#130,#207);
#207 = DEFINITIONAL_REPRESENTATION('',(#208),#212);
#208 = LINE('',#209,#210);
#209 = CARTESIAN_POINT('',(-96.56584579021,-8.016465197395));
#210 = VECTOR('',#211,1.);
#211 = DIRECTION('',(0.996571919133,8.273094944753E-02));
#212 = ( GEOMETRIC_REPRESENTATION_CONTEXT(2) 
PARAMETRIC_REPRESENTATION_CONTEXT() REPRESENTATION_CONTEXT('2D SPACE',''
  ) );
#213 = PCURVE('',#214,#219);
#214 = PLANE('',#215);
#215 = AXIS2_PLACEMENT_3D('',#216,#217,#218);
#216 = CARTESIAN_POINT('',(-40.44169447144,-48.27050263643,
    7.991036734493));
#217 = DIRECTION('',(-0.999982864678,3.133505047247E-04,
    5.845695983582E-03));
#218 = DIRECTION('',(-5.845696270573E-03,9.049576224405E-23,
    -0.999982913772));
#219 = DEFINITIONAL_REPRESENTATION('',(#220),#224);
#220 = LINE('',#221,#222);
#221 = CARTESIAN_POINT('',(8.016425250463,-96.56584910641));
#222 = VECTOR('',#223,1.);
#223 = DIRECTION('',(-8.273053719006E-02,0.996571953356));
#224 = ( GEOMETRIC_REPRESENTATION_CONTEXT(2) 
PARAMETRIC_REPRESENTATION_CONTEXT() REPRESENTATION_CONTEXT('2D SPACE',''
  ) );
#225 = ADVANCED_FACE('',(#226),#214,.T.);
#226 = FACE_BOUND('',#227,.T.);
#227 = EDGE_LOOP('',(#228,#229,#257));
#228 = ORIENTED_EDGE('',*,*,#200,.F.);
#229 = ORIENTED_EDGE('',*,*,#230,.F.);
#230 = EDGE_CURVE('',#231,#57,#233,.T.);
#231 = VERTEX_POINT('',#232);
#232 = CARTESIAN_POINT('',(-40.48828627986,-48.24148992635,
    1.9342460074E-02));
#233 = SURFACE_CURVE('',#234,(#238,#245),.PCURVE_S1.);
#234 = LINE('',#235,#236);
#235 = CARTESIAN_POINT('',(-40.48828627986,-48.24148992635,
    1.9342460074E-02));
#236 = VECTOR('',#237,1.);
#237 = DIRECTION('',(3.106447206688E-04,0.999999844209,
    -4.637699674217E-04));
#238 = PCURVE('',#214,#239);
#239 = DEFINITIONAL_REPRESENTATION('',(#240),#244);
#240 = LINE('',#241,#242);
#241 = CARTESIAN_POINT('',(7.97183042979,-2.901271150468E-02));
#242 = VECTOR('',#243,1.);
#243 = DIRECTION('',(4.61946108657E-04,-0.999999893303));
#244 = ( GEOMETRIC_REPRESENTATION_CONTEXT(2) 
PARAMETRIC_REPRESENTATION_CONTEXT() REPRESENTATION_CONTEXT('2D SPACE',''
  ) );
#245 = PCURVE('',#246,#251);
#246 = PLANE('',#247);
#247 = AXIS2_PLACEMENT_3D('',#248,#249,#250);
#248 = CARTESIAN_POINT('',(-6.318630379284,19.005198017777,
    4.536940558131E-02));
#249 = DIRECTION('',(1.675429737623E-03,-4.642898022539E-04,
    -0.999998488684));
#250 = DIRECTION('',(-0.999998596466,-6.683755637317E-23,
    -1.675429918205E-03));
#251 = DEFINITIONAL_REPRESENTATION('',(#252),#256);
#252 = LINE('',#253,#254);
#253 = CARTESIAN_POINT('',(34.169651548638,-67.24669519214));
#254 = VECTOR('',#255,1.);
#255 = DIRECTION('',(-3.098672705899E-04,0.999999951991));
#256 = ( GEOMETRIC_REPRESENTATION_CONTEXT(2) 
PARAMETRIC_REPRESENTATION_CONTEXT() REPRESENTATION_CONTEXT('2D SPACE',''
  ) );
#257 = ORIENTED_EDGE('',*,*,#258,.T.);
#258 = EDGE_CURVE('',#231,#172,#259,.T.);
#259 = SURFACE_CURVE('',#260,(#264,#271),.PCURVE_S1.);
#260 = LINE('',#261,#262);
#261 = CARTESIAN_POINT('',(-40.48828627986,-48.24148992635,
    1.9342460074E-02));
#262 = VECTOR('',#263,1.);
#263 = DIRECTION('',(5.844517175029E-03,-3.639379713014E-03,
    0.999976297986));
#264 = PCURVE('',#214,#265);
#265 = DEFINITIONAL_REPRESENTATION('',(#266),#270);
#266 = LINE('',#267,#268);
#267 = CARTESIAN_POINT('',(7.97183042979,-2.901271150468E-02));
#268 = VECTOR('',#269,1.);
#269 = DIRECTION('',(-0.999993377435,3.639379891687E-03));
#270 = ( GEOMETRIC_REPRESENTATION_CONTEXT(2) 
PARAMETRIC_REPRESENTATION_CONTEXT() REPRESENTATION_CONTEXT('2D SPACE',''
  ) );
#271 = PCURVE('',#272,#277);
#272 = PLANE('',#273);
#273 = AXIS2_PLACEMENT_3D('',#274,#275,#276);
#274 = CARTESIAN_POINT('',(40.47120561941,-48.25661172273,7.972299860526
    ));
#275 = DIRECTION('',(1.708332164348E-04,-0.999993358983,
    -3.640440267265E-03));
#276 = DIRECTION('',(1.591673577254E-24,3.640440320387E-03,
    -0.999993373575));
#277 = DEFINITIONAL_REPRESENTATION('',(#278),#282);
#278 = LINE('',#279,#280);
#279 = CARTESIAN_POINT('',(7.952959750775,-80.95949308063));
#280 = VECTOR('',#281,1.);
#281 = DIRECTION('',(-0.999982920663,5.844517260312E-03));
#282 = ( GEOMETRIC_REPRESENTATION_CONTEXT(2) 
PARAMETRIC_REPRESENTATION_CONTEXT() REPRESENTATION_CONTEXT('2D SPACE',''
  ) );
#283 = ADVANCED_FACE('',(#284),#272,.T.);
#284 = FACE_BOUND('',#285,.T.);
#285 = EDGE_LOOP('',(#286,#314,#315));
#286 = ORIENTED_EDGE('',*,*,#287,.F.);
#287 = EDGE_CURVE('',#172,#288,#290,.T.);
#288 = VERTEX_POINT('',#289);
#289 = CARTESIAN_POINT('',(40.47120561941,-48.25661172273,7.972299860526
    ));
#290 = SURFACE_CURVE('',#291,(#295,#302),.PCURVE_S1.);
#291 = LINE('',#292,#293);
#292 = CARTESIAN_POINT('',(-40.44169447144,-48.27050263643,
    7.991036734493));
#293 = VECTOR('',#294,1.);
#294 = DIRECTION('',(0.999999958451,1.716773604839E-04,
    -2.315684293419E-04));
#295 = PCURVE('',#272,#296);
#296 = DEFINITIONAL_REPRESENTATION('',(#297),#301);
#297 = LINE('',#298,#299);
#298 = CARTESIAN_POINT('',(-1.878731884984E-02,-80.91290127153));
#299 = VECTOR('',#300,1.);
#300 = DIRECTION('',(2.321918760563E-04,0.999999973043));
#301 = ( GEOMETRIC_REPRESENTATION_CONTEXT(2) 
PARAMETRIC_REPRESENTATION_CONTEXT() REPRESENTATION_CONTEXT('2D SPACE',''
  ) );
#302 = PCURVE('',#303,#308);
#303 = PLANE('',#304);
#304 = AXIS2_PLACEMENT_3D('',#305,#306,#307);
#305 = CARTESIAN_POINT('',(40.47120561941,-48.25661172273,7.972299860526
    ));
#306 = DIRECTION('',(2.325029814979E-04,-5.463767944899E-03,
    0.999985046479));
#307 = DIRECTION('',(2.174571071874E-23,0.999985073508,
    5.463768092578E-03));
#308 = DEFINITIONAL_REPRESENTATION('',(#309),#313);
#309 = LINE('',#310,#311);
#310 = CARTESIAN_POINT('',(-1.37883324171E-02,80.912902277831));
#311 = VECTOR('',#312,1.);
#312 = DIRECTION('',(1.704095617476E-04,-0.99999998548));
#313 = ( GEOMETRIC_REPRESENTATION_CONTEXT(2) 
PARAMETRIC_REPRESENTATION_CONTEXT() REPRESENTATION_CONTEXT('2D SPACE',''
  ) );
#314 = ORIENTED_EDGE('',*,*,#258,.F.);
#315 = ORIENTED_EDGE('',*,*,#316,.T.);
#316 = EDGE_CURVE('',#231,#288,#317,.T.);
#317 = SURFACE_CURVE('',#318,(#322,#329),.PCURVE_S1.);
#318 = LINE('',#319,#320);
#319 = CARTESIAN_POINT('',(-40.48828627986,-48.24148992635,
    1.9342460074E-02));
#320 = VECTOR('',#321,1.);
#321 = DIRECTION('',(0.995209686036,-1.858875084444E-04,
    9.776321530533E-02));
#322 = PCURVE('',#272,#323);
#323 = DEFINITIONAL_REPRESENTATION('',(#324),#328);
#324 = LINE('',#325,#326);
#325 = CARTESIAN_POINT('',(7.952959750775,-80.95949308063));
#326 = VECTOR('',#327,1.);
#327 = DIRECTION('',(-9.776324419711E-02,0.995209700558));
#328 = ( GEOMETRIC_REPRESENTATION_CONTEXT(2) 
PARAMETRIC_REPRESENTATION_CONTEXT() REPRESENTATION_CONTEXT('2D SPACE',''
  ) );
#329 = PCURVE('',#330,#335);
#330 = PLANE('',#331);
#331 = AXIS2_PLACEMENT_3D('',#332,#333,#334);
#332 = CARTESIAN_POINT('',(40.47120561941,-48.25661172273,7.972299860526
    ));
#333 = DIRECTION('',(-4.897099003402E-04,-0.999995125319,
    3.08375121381E-03));
#334 = DIRECTION('',(-1.471783909135E-22,-3.083751583577E-03,
    -0.999995245227));
#335 = DEFINITIONAL_REPRESENTATION('',(#336),#340);
#336 = LINE('',#337,#338);
#337 = CARTESIAN_POINT('',(7.95287295408,-80.95950160695));
#338 = VECTOR('',#339,1.);
#339 = DIRECTION('',(-9.776217723251E-02,0.995209805369));
#340 = ( GEOMETRIC_REPRESENTATION_CONTEXT(2) 
PARAMETRIC_REPRESENTATION_CONTEXT() REPRESENTATION_CONTEXT('2D SPACE',''
  ) );
#341 = ADVANCED_FACE('',(#342),#303,.T.);
#342 = FACE_BOUND('',#343,.T.);
#343 = EDGE_LOOP('',(#344,#372,#398));
#344 = ORIENTED_EDGE('',*,*,#345,.F.);
#345 = EDGE_CURVE('',#346,#288,#348,.T.);
#346 = VERTEX_POINT('',#347);
#347 = CARTESIAN_POINT('',(1.465506868423,-43.12130616571,8.00942747486)
  );
#348 = SURFACE_CURVE('',#349,(#353,#360),.PCURVE_S1.);
#349 = LINE('',#350,#351);
#350 = CARTESIAN_POINT('',(1.465506868423,-43.12130616571,8.00942747486)
  );
#351 = VECTOR('',#352,1.);
#352 = DIRECTION('',(0.991444064982,-0.130528829874,-9.437070493905E-04)
  );
#353 = PCURVE('',#303,#354);
#354 = DEFINITIONAL_REPRESENTATION('',(#355),#359);
#355 = LINE('',#356,#357);
#356 = CARTESIAN_POINT('',(5.135431761602,39.005699805265));
#357 = VECTOR('',#358,1.);
#358 = DIRECTION('',(-0.130532037733,-0.99144409178));
#359 = ( GEOMETRIC_REPRESENTATION_CONTEXT(2) 
PARAMETRIC_REPRESENTATION_CONTEXT() REPRESENTATION_CONTEXT('2D SPACE',''
  ) );
#360 = PCURVE('',#361,#366);
#361 = PLANE('',#362);
#362 = AXIS2_PLACEMENT_3D('',#363,#364,#365);
#363 = CARTESIAN_POINT('',(40.47120561941,-48.25661172273,7.972299860526
    ));
#364 = DIRECTION('',(2.246708351365E-03,9.835579174422E-03,
    0.999949105547));
#365 = DIRECTION('',(-2.541933434494E-22,0.999951629277,
    -9.835603998034E-03));
#366 = DEFINITIONAL_REPRESENTATION('',(#367),#371);
#367 = LINE('',#368,#369);
#368 = CARTESIAN_POINT('',(5.134691986073,39.005797195862));
#369 = VECTOR('',#370,1.);
#370 = DIRECTION('',(-0.130513234171,-0.991446567247));
#371 = ( GEOMETRIC_REPRESENTATION_CONTEXT(2) 
PARAMETRIC_REPRESENTATION_CONTEXT() REPRESENTATION_CONTEXT('2D SPACE',''
  ) );
#372 = ORIENTED_EDGE('',*,*,#373,.F.);
#373 = EDGE_CURVE('',#172,#346,#374,.T.);
#374 = SURFACE_CURVE('',#375,(#379,#386),.PCURVE_S1.);
#375 = LINE('',#376,#377);
#376 = CARTESIAN_POINT('',(-40.44169447144,-48.27050263643,
    7.991036734493));
#377 = VECTOR('',#378,1.);
#378 = DIRECTION('',(0.992535628204,0.121954241524,4.355686960705E-04));
#379 = PCURVE('',#303,#380);
#380 = DEFINITIONAL_REPRESENTATION('',(#381),#385);
#381 = LINE('',#382,#383);
#382 = CARTESIAN_POINT('',(-1.37883324171E-02,80.912902277831));
#383 = VECTOR('',#384,1.);
#384 = DIRECTION('',(0.121954801022,-0.992535655031));
#385 = ( GEOMETRIC_REPRESENTATION_CONTEXT(2) 
PARAMETRIC_REPRESENTATION_CONTEXT() REPRESENTATION_CONTEXT('2D SPACE',''
  ) );
#386 = PCURVE('',#387,#392);
#387 = PLANE('',#388);
#388 = AXIS2_PLACEMENT_3D('',#389,#390,#391);
#389 = CARTESIAN_POINT('',(5.126215691877,-40.26139734548,8.066711825466
    ));
#390 = DIRECTION('',(2.399055751922E-03,-2.309554413471E-02,
    0.99973038384));
#391 = DIRECTION('',(4.63078656466E-21,0.999733260811,2.309561059784E-02
    ));
#392 = DEFINITIONAL_REPRESENTATION('',(#393),#397);
#393 = LINE('',#394,#395);
#394 = CARTESIAN_POINT('',(-8.008716711124,45.56804129622));
#395 = VECTOR('',#396,1.);
#396 = DIRECTION('',(0.121931771274,-0.99253848447));
#397 = ( GEOMETRIC_REPRESENTATION_CONTEXT(2) 
PARAMETRIC_REPRESENTATION_CONTEXT() REPRESENTATION_CONTEXT('2D SPACE',''
  ) );
#398 = ORIENTED_EDGE('',*,*,#287,.T.);
#399 = ADVANCED_FACE('',(#400),#361,.T.);
#400 = FACE_BOUND('',#401,.T.);
#401 = EDGE_LOOP('',(#402,#430,#456));
#402 = ORIENTED_EDGE('',*,*,#403,.F.);
#403 = EDGE_CURVE('',#404,#288,#406,.T.);
#404 = VERTEX_POINT('',#405);
#405 = CARTESIAN_POINT('',(5.804234446842,-41.92168388661,7.987879542799
    ));
#406 = SURFACE_CURVE('',#407,(#411,#418),.PCURVE_S1.);
#407 = LINE('',#408,#409);
#408 = CARTESIAN_POINT('',(5.804234446842,-41.92168388661,7.987879542799
    ));
#409 = VECTOR('',#410,1.);
#410 = DIRECTION('',(0.983710399724,-0.179759990075,-4.420892555038E-04)
  );
#411 = PCURVE('',#361,#412);
#412 = DEFINITIONAL_REPRESENTATION('',(#413),#417);
#413 = LINE('',#414,#415);
#414 = CARTESIAN_POINT('',(6.334468175499,34.667058667107));
#415 = VECTOR('',#416,1.);
#416 = DIRECTION('',(-0.179746946739,-0.98371288247));
#417 = ( GEOMETRIC_REPRESENTATION_CONTEXT(2) 
PARAMETRIC_REPRESENTATION_CONTEXT() REPRESENTATION_CONTEXT('2D SPACE',''
  ) );
#418 = PCURVE('',#419,#424);
#419 = PLANE('',#420);
#420 = AXIS2_PLACEMENT_3D('',#421,#422,#423);
#421 = CARTESIAN_POINT('',(40.47120561941,-48.25661172273,7.972299860526
    ));
#422 = DIRECTION('',(-8.878655723969E-03,-5.104317978727E-02,
    0.998656979783));
#423 = DIRECTION('',(-9.964173903025E-20,0.998696344439,
    5.104519178662E-02));
#424 = DEFINITIONAL_REPRESENTATION('',(#425),#429);
#425 = LINE('',#426,#427);
#426 = CARTESIAN_POINT('',(6.327464540089,34.668337661171));
#427 = VECTOR('',#428,1.);
#428 = DIRECTION('',(-0.179548211495,-0.983749175222));
#429 = ( GEOMETRIC_REPRESENTATION_CONTEXT(2) 
PARAMETRIC_REPRESENTATION_CONTEXT() REPRESENTATION_CONTEXT('2D SPACE',''
  ) );
#430 = ORIENTED_EDGE('',*,*,#431,.F.);
#431 = EDGE_CURVE('',#346,#404,#432,.T.);
#432 = SURFACE_CURVE('',#433,(#437,#444),.PCURVE_S1.);
#433 = LINE('',#434,#435);
#434 = CARTESIAN_POINT('',(1.465506868423,-43.12130616571,8.00942747486)
  );
#435 = VECTOR('',#436,1.);
#436 = DIRECTION('',(0.963825833226,0.266489868702,-4.786761371174E-03)
  );
#437 = PCURVE('',#361,#438);
#438 = DEFINITIONAL_REPRESENTATION('',(#439),#443);
#439 = LINE('',#440,#441);
#440 = CARTESIAN_POINT('',(5.134691986073,39.005797195862));
#441 = VECTOR('',#442,1.);
#442 = DIRECTION('',(0.266524059084,-0.963828265787));
#443 = ( GEOMETRIC_REPRESENTATION_CONTEXT(2) 
PARAMETRIC_REPRESENTATION_CONTEXT() REPRESENTATION_CONTEXT('2D SPACE',''
  ) );
#444 = PCURVE('',#445,#450);
#445 = PLANE('',#446);
#446 = AXIS2_PLACEMENT_3D('',#447,#448,#449);
#447 = CARTESIAN_POINT('',(5.804234446842,-41.92168388661,7.987879542799
    ));
#448 = DIRECTION('',(-0.266515520278,0.963812536327,-5.905274713051E-03)
  );
#449 = DIRECTION('',(0.963829341932,0.2665201674,8.882330627461E-20));
#450 = DEFINITIONAL_REPRESENTATION('',(#451),#455);
#451 = LINE('',#452,#453);
#452 = CARTESIAN_POINT('',(-4.501516477372,-2.154830778288E-02));
#453 = VECTOR('',#454,1.);
#454 = DIRECTION('',(0.999988542993,4.786844835973E-03));
#455 = ( GEOMETRIC_REPRESENTATION_CONTEXT(2) 
PARAMETRIC_REPRESENTATION_CONTEXT() REPRESENTATION_CONTEXT('2D SPACE',''
  ) );
#456 = ORIENTED_EDGE('',*,*,#345,.T.);
#457 = ADVANCED_FACE('',(#458),#419,.T.);
#458 = FACE_BOUND('',#459,.T.);
#459 = EDGE_LOOP('',(#460,#488,#514));
#460 = ORIENTED_EDGE('',*,*,#461,.F.);
#461 = EDGE_CURVE('',#462,#288,#464,.T.);
#462 = VERTEX_POINT('',#463);
#463 = CARTESIAN_POINT('',(5.126215691877,-40.26139734548,8.066711825466
    ));
#464 = SURFACE_CURVE('',#465,(#469,#476),.PCURVE_S1.);
#465 = LINE('',#466,#467);
#466 = CARTESIAN_POINT('',(5.126215691877,-40.26139734548,8.066711825466
    ));
#467 = VECTOR('',#468,1.);
#468 = DIRECTION('',(0.975354097593,-0.220629999329,-2.605322481474E-03)
  );
#469 = PCURVE('',#419,#470);
#470 = DEFINITIONAL_REPRESENTATION('',(#471),#475);
#471 = LINE('',#472,#473);
#472 = CARTESIAN_POINT('',(7.989610648421,35.346383142004));
#473 = VECTOR('',#474,1.);
#474 = DIRECTION('',(-0.220475362989,-0.975392543705));
#475 = ( GEOMETRIC_REPRESENTATION_CONTEXT(2) 
PARAMETRIC_REPRESENTATION_CONTEXT() REPRESENTATION_CONTEXT('2D SPACE',''
  ) );
#476 = PCURVE('',#477,#482);
#477 = PLANE('',#478);
#478 = AXIS2_PLACEMENT_3D('',#479,#480,#481);
#479 = CARTESIAN_POINT('',(-1.675832061898,26.591379208701,8.04451459674
    ));
#480 = DIRECTION('',(2.810947001447E-03,6.180346525462E-04,
    0.999995858296));
#481 = DIRECTION('',(0.999996049279,8.838336790831E-23,
    -2.810947538291E-03));
#482 = DEFINITIONAL_REPRESENTATION('',(#483),#487);
#483 = LINE('',#484,#485);
#484 = CARTESIAN_POINT('',(6.801958485538,-66.85278932196));
#485 = VECTOR('',#486,1.);
#486 = DIRECTION('',(0.975357567666,-0.220630041465));
#487 = ( GEOMETRIC_REPRESENTATION_CONTEXT(2) 
PARAMETRIC_REPRESENTATION_CONTEXT() REPRESENTATION_CONTEXT('2D SPACE',''
  ) );
#488 = ORIENTED_EDGE('',*,*,#489,.T.);
#489 = EDGE_CURVE('',#462,#404,#490,.T.);
#490 = SURFACE_CURVE('',#491,(#495,#502),.PCURVE_S1.);
#491 = LINE('',#492,#493);
#492 = CARTESIAN_POINT('',(5.126215691877,-40.26139734548,8.066711825466
    ));
#493 = VECTOR('',#494,1.);
#494 = DIRECTION('',(0.377699930247,-0.924886083433,-4.39146372374E-02)
  );
#495 = PCURVE('',#419,#496);
#496 = DEFINITIONAL_REPRESENTATION('',(#497),#501);
#497 = LINE('',#498,#499);
#498 = CARTESIAN_POINT('',(7.989610648421,35.346383142004));
#499 = VECTOR('',#500,1.);
#500 = DIRECTION('',(-0.925921981627,-0.37771481827));
#501 = ( GEOMETRIC_REPRESENTATION_CONTEXT(2) 
PARAMETRIC_REPRESENTATION_CONTEXT() REPRESENTATION_CONTEXT('2D SPACE',''
  ) );
#502 = PCURVE('',#503,#508);
#503 = PLANE('',#504);
#504 = AXIS2_PLACEMENT_3D('',#505,#506,#507);
#505 = CARTESIAN_POINT('',(5.126215691877,-40.26139734548,8.066711825466
    ));
#506 = DIRECTION('',(-0.925666941793,-0.378294771313,5.811959097992E-03)
  );
#507 = DIRECTION('',(0.37830116066,-0.92568257618,1.668666736217E-19));
#508 = DEFINITIONAL_REPRESENTATION('',(#509),#513);
#509 = LINE('',#510,#511);
#510 = CARTESIAN_POINT('',(0.,0.));
#511 = VECTOR('',#512,1.);
#512 = DIRECTION('',(0.999035254379,-4.391537894957E-02));
#513 = ( GEOMETRIC_REPRESENTATION_CONTEXT(2) 
PARAMETRIC_REPRESENTATION_CONTEXT() REPRESENTATION_CONTEXT('2D SPACE',''
  ) );
#514 = ORIENTED_EDGE('',*,*,#403,.T.);
#515 = ADVANCED_FACE('',(#516),#387,.T.);
#516 = FACE_BOUND('',#517,.T.);
#517 = EDGE_LOOP('',(#518,#544,#545));
#518 = ORIENTED_EDGE('',*,*,#519,.F.);
#519 = EDGE_CURVE('',#172,#462,#520,.T.);
#520 = SURFACE_CURVE('',#521,(#525,#532),.PCURVE_S1.);
#521 = LINE('',#522,#523);
#522 = CARTESIAN_POINT('',(-40.44169447144,-48.27050263643,
    7.991036734493));
#523 = VECTOR('',#524,1.);
#524 = DIRECTION('',(0.984901452815,0.173108211646,1.635635840544E-03));
#525 = PCURVE('',#387,#526);
#526 = DEFINITIONAL_REPRESENTATION('',(#527),#531);
#527 = LINE('',#528,#529);
#528 = CARTESIAN_POINT('',(-8.008716711124,45.56804129622));
#529 = VECTOR('',#530,1.);
#530 = DIRECTION('',(0.17309981291,-0.984904287111));
#531 = ( GEOMETRIC_REPRESENTATION_CONTEXT(2) 
PARAMETRIC_REPRESENTATION_CONTEXT() REPRESENTATION_CONTEXT('2D SPACE',''
  ) );
#532 = PCURVE('',#533,#538);
#533 = PLANE('',#534);
#534 = AXIS2_PLACEMENT_3D('',#535,#536,#537);
#535 = CARTESIAN_POINT('',(-1.675832061898,26.591379208701,8.04451459674
    ));
#536 = DIRECTION('',(-1.688863905042E-03,1.601947504035E-04,
    0.999998561037));
#537 = DIRECTION('',(0.999998573868,1.066435835525E-23,
    1.688863926712E-03));
#538 = DEFINITIONAL_REPRESENTATION('',(#539),#543);
#539 = LINE('',#540,#541);
#540 = CARTESIAN_POINT('',(-38.76589744115,-74.86188280569));
#541 = VECTOR('',#542,1.);
#542 = DIRECTION('',(0.984902810582,0.173108213867));
#543 = ( GEOMETRIC_REPRESENTATION_CONTEXT(2) 
PARAMETRIC_REPRESENTATION_CONTEXT() REPRESENTATION_CONTEXT('2D SPACE',''
  ) );
#544 = ORIENTED_EDGE('',*,*,#373,.T.);
#545 = ORIENTED_EDGE('',*,*,#546,.T.);
#546 = EDGE_CURVE('',#346,#462,#547,.T.);
#547 = SURFACE_CURVE('',#548,(#552,#559),.PCURVE_S1.);
#548 = LINE('',#549,#550);
#549 = CARTESIAN_POINT('',(1.465506868423,-43.12130616571,8.00942747486)
  );
#550 = VECTOR('',#551,1.);
#551 = DIRECTION('',(0.78796654904,0.615594572615,1.233044042511E-02));
#552 = PCURVE('',#387,#553);
#553 = DEFINITIONAL_REPRESENTATION('',(#554),#558);
#554 = LINE('',#555,#556);
#555 = CARTESIAN_POINT('',(-2.860468987518,3.660719358047));
#556 = VECTOR('',#557,1.);
#557 = DIRECTION('',(0.615715148468,-0.787968816608));
#558 = ( GEOMETRIC_REPRESENTATION_CONTEXT(2) 
PARAMETRIC_REPRESENTATION_CONTEXT() REPRESENTATION_CONTEXT('2D SPACE',''
  ) );
#559 = PCURVE('',#560,#565);
#560 = PLANE('',#561);
#561 = AXIS2_PLACEMENT_3D('',#562,#563,#564);
#562 = CARTESIAN_POINT('',(1.465506868423,-43.12130616571,8.00942747486)
  );
#563 = DIRECTION('',(0.615530647749,-0.788062802513,8.89049922261E-03));
#564 = DIRECTION('',(-0.788093948986,-0.615554975263,3.650549141747E-19)
  );
#565 = DEFINITIONAL_REPRESENTATION('',(#566),#570);
#566 = LINE('',#567,#568);
#567 = CARTESIAN_POINT('',(0.,0.));
#568 = VECTOR('',#569,1.);
#569 = DIRECTION('',(-0.99992397122,-1.233092775903E-02));
#570 = ( GEOMETRIC_REPRESENTATION_CONTEXT(2) 
PARAMETRIC_REPRESENTATION_CONTEXT() REPRESENTATION_CONTEXT('2D SPACE',''
  ) );
#571 = ADVANCED_FACE('',(#572),#330,.T.);
#572 = FACE_BOUND('',#573,.T.);
#573 = EDGE_LOOP('',(#574,#575,#603));
#574 = ORIENTED_EDGE('',*,*,#316,.F.);
#575 = ORIENTED_EDGE('',*,*,#576,.T.);
#576 = EDGE_CURVE('',#231,#577,#579,.T.);
#577 = VERTEX_POINT('',#578);
#578 = CARTESIAN_POINT('',(40.449496219112,-48.28118498861,
    2.633064926398E-04));
#579 = SURFACE_CURVE('',#580,(#584,#591),.PCURVE_S1.);
#580 = LINE('',#581,#582);
#581 = CARTESIAN_POINT('',(-40.48828627986,-48.24148992635,
    1.9342460074E-02));
#582 = VECTOR('',#583,1.);
#583 = DIRECTION('',(0.999999851951,-4.904391393326E-04,
    -2.357261363932E-04));
#584 = PCURVE('',#330,#585);
#585 = DEFINITIONAL_REPRESENTATION('',(#586),#590);
#586 = LINE('',#587,#588);
#587 = CARTESIAN_POINT('',(7.95287295408,-80.95950160695));
#588 = VECTOR('',#589,1.);
#589 = DIRECTION('',(2.372374080415E-04,0.999999971859));
#590 = ( GEOMETRIC_REPRESENTATION_CONTEXT(2) 
PARAMETRIC_REPRESENTATION_CONTEXT() REPRESENTATION_CONTEXT('2D SPACE',''
  ) );
#591 = PCURVE('',#592,#597);
#592 = PLANE('',#593);
#593 = AXIS2_PLACEMENT_3D('',#594,#595,#596);
#594 = CARTESIAN_POINT('',(40.449496219112,-48.28118498861,
    2.633064926398E-04));
#595 = DIRECTION('',(-2.379980643018E-04,-4.637546317922E-03,
    -0.999989218202));
#596 = DIRECTION('',(1.096516790054E-23,-0.999989246524,
    4.637546449265E-03));
#597 = DEFINITIONAL_REPRESENTATION('',(#598),#602);
#598 = LINE('',#599,#600);
#599 = CARTESIAN_POINT('',(-3.960615494423E-02,80.937784791256));
#600 = VECTOR('',#601,1.);
#601 = DIRECTION('',(4.893406745001E-04,-0.999999880273));
#602 = ( GEOMETRIC_REPRESENTATION_CONTEXT(2) 
PARAMETRIC_REPRESENTATION_CONTEXT() REPRESENTATION_CONTEXT('2D SPACE',''
  ) );
#603 = ORIENTED_EDGE('',*,*,#604,.T.);
#604 = EDGE_CURVE('',#577,#288,#605,.T.);
#605 = SURFACE_CURVE('',#606,(#610,#617),.PCURVE_S1.);
#606 = LINE('',#607,#608);
#607 = CARTESIAN_POINT('',(40.449496219112,-48.28118498861,
    2.633064926398E-04));
#608 = VECTOR('',#609,1.);
#609 = DIRECTION('',(2.723170738403E-03,3.082406592038E-03,0.99999154152
    ));
#610 = PCURVE('',#330,#611);
#611 = DEFINITIONAL_REPRESENTATION('',(#612),#616);
#612 = LINE('',#613,#614);
#613 = CARTESIAN_POINT('',(7.972074426656,-2.170940290109E-02));
#614 = VECTOR('',#615,1.);
#615 = DIRECTION('',(-0.999996292163,2.723171064932E-03));
#616 = ( GEOMETRIC_REPRESENTATION_CONTEXT(2) 
PARAMETRIC_REPRESENTATION_CONTEXT() REPRESENTATION_CONTEXT('2D SPACE',''
  ) );
#617 = PCURVE('',#618,#623);
#618 = PLANE('',#619);
#619 = AXIS2_PLACEMENT_3D('',#620,#621,#622);
#620 = CARTESIAN_POINT('',(40.47120561941,-48.25661172273,7.972299860526
    ));
#621 = DIRECTION('',(0.999996281266,1.392415326584E-04,
    -2.723612848298E-03));
#622 = DIRECTION('',(2.723612874701E-03,1.013890765536E-23,0.99999629096
    ));
#623 = DEFINITIONAL_REPRESENTATION('',(#624),#628);
#624 = LINE('',#625,#626);
#625 = CARTESIAN_POINT('',(-7.97206611343,2.457326611682E-02));
#626 = VECTOR('',#627,1.);
#627 = DIRECTION('',(0.999995249373,-3.082406621919E-03));
#628 = ( GEOMETRIC_REPRESENTATION_CONTEXT(2) 
PARAMETRIC_REPRESENTATION_CONTEXT() REPRESENTATION_CONTEXT('2D SPACE',''
  ) );
#629 = ADVANCED_FACE('',(#630),#533,.T.);
#630 = FACE_BOUND('',#631,.T.);
#631 = EDGE_LOOP('',(#632,#655,#656));
#632 = ORIENTED_EDGE('',*,*,#633,.F.);
#633 = EDGE_CURVE('',#172,#634,#636,.T.);
#634 = VERTEX_POINT('',#635);
#635 = CARTESIAN_POINT('',(-1.675832061898,26.591379208701,8.04451459674
    ));
#636 = SURFACE_CURVE('',#637,(#641,#648),.PCURVE_S1.);
#637 = LINE('',#638,#639);
#638 = CARTESIAN_POINT('',(-40.44169447144,-48.27050263643,
    7.991036734493));
#639 = VECTOR('',#640,1.);
#640 = DIRECTION('',(0.45983640367,0.888003423114,6.343485304633E-04));
#641 = PCURVE('',#533,#642);
#642 = DEFINITIONAL_REPRESENTATION('',(#643),#647);
#643 = LINE('',#644,#645);
#644 = CARTESIAN_POINT('',(-38.76589744115,-74.86188280569));
#645 = VECTOR('',#646,1.);
#646 = DIRECTION('',(0.459836819211,0.888003434508));
#647 = ( GEOMETRIC_REPRESENTATION_CONTEXT(2) 
PARAMETRIC_REPRESENTATION_CONTEXT() REPRESENTATION_CONTEXT('2D SPACE',''
  ) );
#648 = PCURVE('',#187,#649);
#649 = DEFINITIONAL_REPRESENTATION('',(#650),#654);
#650 = LINE('',#651,#652);
#651 = CARTESIAN_POINT('',(-38.76589655558,-74.86188326427));
#652 = VECTOR('',#653,1.);
#653 = DIRECTION('',(0.459836808707,0.888003439947));
#654 = ( GEOMETRIC_REPRESENTATION_CONTEXT(2) 
PARAMETRIC_REPRESENTATION_CONTEXT() REPRESENTATION_CONTEXT('2D SPACE',''
  ) );
#655 = ORIENTED_EDGE('',*,*,#519,.T.);
#656 = ORIENTED_EDGE('',*,*,#657,.F.);
#657 = EDGE_CURVE('',#634,#462,#658,.T.);
#658 = SURFACE_CURVE('',#659,(#663,#670),.PCURVE_S1.);
#659 = LINE('',#660,#661);
#660 = CARTESIAN_POINT('',(-1.675832061898,26.591379208701,8.04451459674
    ));
#661 = VECTOR('',#662,1.);
#662 = DIRECTION('',(0.101224063607,-0.994863598606,3.303260685384E-04)
  );
#663 = PCURVE('',#533,#664);
#664 = DEFINITIONAL_REPRESENTATION('',(#665),#669);
#665 = LINE('',#666,#667);
#666 = CARTESIAN_POINT('',(0.,0.));
#667 = VECTOR('',#668,1.);
#668 = DIRECTION('',(0.101224477124,-0.994863611371));
#669 = ( GEOMETRIC_REPRESENTATION_CONTEXT(2) 
PARAMETRIC_REPRESENTATION_CONTEXT() REPRESENTATION_CONTEXT('2D SPACE',''
  ) );
#670 = PCURVE('',#477,#671);
#671 = DEFINITIONAL_REPRESENTATION('',(#672),#676);
#672 = LINE('',#673,#674);
#673 = CARTESIAN_POINT('',(0.,0.));
#674 = VECTOR('',#675,1.);
#675 = DIRECTION('',(0.10122273517,-0.994863788609));
#676 = ( GEOMETRIC_REPRESENTATION_CONTEXT(2) 
PARAMETRIC_REPRESENTATION_CONTEXT() REPRESENTATION_CONTEXT('2D SPACE',''
  ) );
#677 = ADVANCED_FACE('',(#678),#187,.T.);
#678 = FACE_BOUND('',#679,.T.);
#679 = EDGE_LOOP('',(#680,#701,#702));
#680 = ORIENTED_EDGE('',*,*,#681,.F.);
#681 = EDGE_CURVE('',#115,#634,#682,.T.);
#682 = SURFACE_CURVE('',#683,(#687,#694),.PCURVE_S1.);
#683 = LINE('',#684,#685);
#684 = CARTESIAN_POINT('',(-40.4590159844,48.252249692584,8.009813692897
    ));
#685 = VECTOR('',#686,1.);
#686 = DIRECTION('',(0.873059042845,-0.487613881563,7.811617002712E-04)
  );
#687 = PCURVE('',#187,#688);
#688 = DEFINITIONAL_REPRESENTATION('',(#689),#693);
#689 = LINE('',#690,#691);
#690 = CARTESIAN_POINT('',(-38.78319921732,21.660870894503));
#691 = VECTOR('',#692,1.);
#692 = DIRECTION('',(0.873059387151,-0.487613890807));
#693 = ( GEOMETRIC_REPRESENTATION_CONTEXT(2) 
PARAMETRIC_REPRESENTATION_CONTEXT() REPRESENTATION_CONTEXT('2D SPACE',''
  ) );
#694 = PCURVE('',#156,#695);
#695 = DEFINITIONAL_REPRESENTATION('',(#696),#700);
#696 = LINE('',#697,#698);
#697 = CARTESIAN_POINT('',(-1.833733291726E-02,80.956254795915));
#698 = VECTOR('',#699,1.);
#699 = DIRECTION('',(-0.487614382968,-0.873059112273));
#700 = ( GEOMETRIC_REPRESENTATION_CONTEXT(2) 
PARAMETRIC_REPRESENTATION_CONTEXT() REPRESENTATION_CONTEXT('2D SPACE',''
  ) );
#701 = ORIENTED_EDGE('',*,*,#171,.T.);
#702 = ORIENTED_EDGE('',*,*,#633,.T.);
#703 = ADVANCED_FACE('',(#704),#477,.T.);
#704 = FACE_BOUND('',#705,.T.);
#705 = EDGE_LOOP('',(#706,#707,#708));
#706 = ORIENTED_EDGE('',*,*,#657,.T.);
#707 = ORIENTED_EDGE('',*,*,#461,.T.);
#708 = ORIENTED_EDGE('',*,*,#709,.F.);
#709 = EDGE_CURVE('',#634,#288,#710,.T.);
#710 = SURFACE_CURVE('',#711,(#715,#722),.PCURVE_S1.);
#711 = LINE('',#712,#713);
#712 = CARTESIAN_POINT('',(-1.675832061898,26.591379208701,8.04451459674
    ));
#713 = VECTOR('',#714,1.);
#714 = DIRECTION('',(0.490659350024,-0.871351074748,-8.406957518676E-04)
  );
#715 = PCURVE('',#477,#716);
#716 = DEFINITIONAL_REPRESENTATION('',(#717),#721);
#717 = LINE('',#718,#719);
#718 = CARTESIAN_POINT('',(0.,0.));
#719 = VECTOR('',#720,1.);
#720 = DIRECTION('',(0.490659774718,-0.871351241162));
#721 = ( GEOMETRIC_REPRESENTATION_CONTEXT(2) 
PARAMETRIC_REPRESENTATION_CONTEXT() REPRESENTATION_CONTEXT('2D SPACE',''
  ) );
#722 = PCURVE('',#723,#728);
#723 = PLANE('',#724);
#724 = AXIS2_PLACEMENT_3D('',#725,#726,#727);
#725 = CARTESIAN_POINT('',(9.172339364224,14.043372170939,8.024768376937
    ));
#726 = DIRECTION('',(2.019807897208E-03,1.725407931252E-04,
    0.999997945301));
#727 = DIRECTION('',(0.999997960186,-1.614639632752E-23,
    -2.019807927273E-03));
#728 = DEFINITIONAL_REPRESENTATION('',(#729),#733);
#729 = LINE('',#730,#731);
#730 = CARTESIAN_POINT('',(-10.84818918144,12.548007224541));
#731 = VECTOR('',#732,1.);
#732 = DIRECTION('',(0.490660047214,-0.871351087718));
#733 = ( GEOMETRIC_REPRESENTATION_CONTEXT(2) 
PARAMETRIC_REPRESENTATION_CONTEXT() REPRESENTATION_CONTEXT('2D SPACE',''
  ) );
#734 = ADVANCED_FACE('',(#735),#723,.T.);
#735 = FACE_BOUND('',#736,.T.);
#736 = EDGE_LOOP('',(#737,#765,#766));
#737 = ORIENTED_EDGE('',*,*,#738,.F.);
#738 = EDGE_CURVE('',#634,#739,#741,.T.);
#739 = VERTEX_POINT('',#740);
#740 = CARTESIAN_POINT('',(9.172339364224,14.043372170939,8.024768376937
    ));
#741 = SURFACE_CURVE('',#742,(#746,#753),.PCURVE_S1.);
#742 = LINE('',#743,#744);
#743 = CARTESIAN_POINT('',(-1.675832061898,26.591379208701,8.04451459674
    ));
#744 = VECTOR('',#745,1.);
#745 = DIRECTION('',(0.65400801621,-0.756486680363,-1.190448190173E-03)
  );
#746 = PCURVE('',#723,#747);
#747 = DEFINITIONAL_REPRESENTATION('',(#748),#752);
#748 = LINE('',#749,#750);
#749 = CARTESIAN_POINT('',(-10.84818918144,12.548007224541));
#750 = VECTOR('',#751,1.);
#751 = DIRECTION('',(0.654009086632,-0.756486691623));
#752 = ( GEOMETRIC_REPRESENTATION_CONTEXT(2) 
PARAMETRIC_REPRESENTATION_CONTEXT() REPRESENTATION_CONTEXT('2D SPACE',''
  ) );
#753 = PCURVE('',#754,#759);
#754 = PLANE('',#755);
#755 = AXIS2_PLACEMENT_3D('',#756,#757,#758);
#756 = CARTESIAN_POINT('',(9.172339364224,14.043372170939,8.024768376937
    ));
#757 = DIRECTION('',(0.518616621527,0.449505936648,-0.727310946428));
#758 = DIRECTION('',(-0.814205074705,3.011659256929E-17,-0.580577381857)
  );
#759 = DEFINITIONAL_REPRESENTATION('',(#760),#764);
#760 = LINE('',#761,#762);
#761 = CARTESIAN_POINT('',(8.821172017826,14.047156938519));
#762 = VECTOR('',#763,1.);
#763 = DIRECTION('',(-0.531805498402,-0.846866525415));
#764 = ( GEOMETRIC_REPRESENTATION_CONTEXT(2) 
PARAMETRIC_REPRESENTATION_CONTEXT() REPRESENTATION_CONTEXT('2D SPACE',''
  ) );
#765 = ORIENTED_EDGE('',*,*,#709,.T.);
#766 = ORIENTED_EDGE('',*,*,#767,.F.);
#767 = EDGE_CURVE('',#739,#288,#768,.T.);
#768 = SURFACE_CURVE('',#769,(#773,#780),.PCURVE_S1.);
#769 = LINE('',#770,#771);
#770 = CARTESIAN_POINT('',(9.172339364224,14.043372170939,8.024768376937
    ));
#771 = VECTOR('',#772,1.);
#772 = DIRECTION('',(0.448920901392,-0.893571182363,-7.525580476155E-04)
  );
#773 = PCURVE('',#723,#774);
#774 = DEFINITIONAL_REPRESENTATION('',(#775),#779);
#775 = LINE('',#776,#777);
#776 = CARTESIAN_POINT('',(0.,0.));
#777 = VECTOR('',#778,1.);
#778 = DIRECTION('',(0.4489215057,-0.893571195664));
#779 = ( GEOMETRIC_REPRESENTATION_CONTEXT(2) 
PARAMETRIC_REPRESENTATION_CONTEXT() REPRESENTATION_CONTEXT('2D SPACE',''
  ) );
#780 = PCURVE('',#781,#786);
#781 = PLANE('',#782);
#782 = AXIS2_PLACEMENT_3D('',#783,#784,#785);
#783 = CARTESIAN_POINT('',(10.713672652899,19.035106630255,
    8.011592106868));
#784 = DIRECTION('',(4.292303719413E-03,1.31422589805E-03,0.999989924419
    ));
#785 = DIRECTION('',(0.999990788006,-3.809176501639E-22,
    -4.292307426229E-03));
#786 = DEFINITIONAL_REPRESENTATION('',(#787),#791);
#787 = LINE('',#788,#789);
#788 = CARTESIAN_POINT('',(-1.541375646524,-4.991738770158));
#789 = VECTOR('',#790,1.);
#790 = DIRECTION('',(0.448919996146,-0.893571954047));
#791 = ( GEOMETRIC_REPRESENTATION_CONTEXT(2) 
PARAMETRIC_REPRESENTATION_CONTEXT() REPRESENTATION_CONTEXT('2D SPACE',''
  ) );
#792 = ADVANCED_FACE('',(#793),#781,.T.);
#793 = FACE_BOUND('',#794,.T.);
#794 = EDGE_LOOP('',(#795,#823,#824));
#795 = ORIENTED_EDGE('',*,*,#796,.F.);
#796 = EDGE_CURVE('',#739,#797,#799,.T.);
#797 = VERTEX_POINT('',#798);
#798 = CARTESIAN_POINT('',(10.713672652899,19.035106630255,
    8.011592106868));
#799 = SURFACE_CURVE('',#800,(#804,#811),.PCURVE_S1.);
#800 = LINE('',#801,#802);
#801 = CARTESIAN_POINT('',(9.172339364224,14.043372170939,8.024768376937
    ));
#802 = VECTOR('',#803,1.);
#803 = DIRECTION('',(0.295031627351,0.955484158848,-2.522112789908E-03)
  );
#804 = PCURVE('',#781,#805);
#805 = DEFINITIONAL_REPRESENTATION('',(#806),#810);
#806 = LINE('',#807,#808);
#807 = CARTESIAN_POINT('',(-1.541375646524,-4.991738770158));
#808 = VECTOR('',#809,1.);
#809 = DIRECTION('',(0.295039735204,0.955484984001));
#810 = ( GEOMETRIC_REPRESENTATION_CONTEXT(2) 
PARAMETRIC_REPRESENTATION_CONTEXT() REPRESENTATION_CONTEXT('2D SPACE',''
  ) );
#811 = PCURVE('',#812,#817);
#812 = PLANE('',#813);
#813 = AXIS2_PLACEMENT_3D('',#814,#815,#816);
#814 = CARTESIAN_POINT('',(10.713672652899,19.035106630255,
    8.011592106868));
#815 = DIRECTION('',(-0.955487073495,0.295032929047,1.521888429979E-04)
  );
#816 = DIRECTION('',(-0.295032932464,-0.95548708456,5.472729769542E-21)
  );
#817 = DEFINITIONAL_REPRESENTATION('',(#818),#822);
#818 = LINE('',#819,#820);
#819 = CARTESIAN_POINT('',(5.224281885494,1.317627022162E-02));
#820 = VECTOR('',#821,1.);
#821 = DIRECTION('',(-0.999996819468,-2.522112819116E-03));
#822 = ( GEOMETRIC_REPRESENTATION_CONTEXT(2) 
PARAMETRIC_REPRESENTATION_CONTEXT() REPRESENTATION_CONTEXT('2D SPACE',''
  ) );
#823 = ORIENTED_EDGE('',*,*,#767,.T.);
#824 = ORIENTED_EDGE('',*,*,#825,.F.);
#825 = EDGE_CURVE('',#797,#288,#826,.T.);
#826 = SURFACE_CURVE('',#827,(#831,#838),.PCURVE_S1.);
#827 = LINE('',#828,#829);
#828 = CARTESIAN_POINT('',(10.713672652899,19.035106630255,
    8.011592106868));
#829 = VECTOR('',#830,1.);
#830 = DIRECTION('',(0.404436482992,-0.914565933131,-5.340233660155E-04)
  );
#831 = PCURVE('',#781,#832);
#832 = DEFINITIONAL_REPRESENTATION('',(#833),#837);
#833 = LINE('',#834,#835);
#834 = CARTESIAN_POINT('',(0.,0.));
#835 = VECTOR('',#836,1.);
#836 = DIRECTION('',(0.404435049518,-0.914566722946));
#837 = ( GEOMETRIC_REPRESENTATION_CONTEXT(2) 
PARAMETRIC_REPRESENTATION_CONTEXT() REPRESENTATION_CONTEXT('2D SPACE',''
  ) );
#838 = PCURVE('',#839,#844);
#839 = PLANE('',#840);
#840 = AXIS2_PLACEMENT_3D('',#841,#842,#843);
#841 = CARTESIAN_POINT('',(40.497232373626,48.270512200596,
    7.977485493919));
#842 = DIRECTION('',(1.198198543224E-03,-5.404506701344E-05,
    0.999999280699));
#843 = DIRECTION('',(0.99999928216,1.742913714412E-23,
    -1.198198544973E-03));
#844 = DEFINITIONAL_REPRESENTATION('',(#845),#849);
#845 = LINE('',#846,#847);
#846 = CARTESIAN_POINT('',(-29.78357920738,-29.23540561303));
#847 = VECTOR('',#848,1.);
#848 = DIRECTION('',(0.404436832538,-0.914565934467));
#849 = ( GEOMETRIC_REPRESENTATION_CONTEXT(2) 
PARAMETRIC_REPRESENTATION_CONTEXT() REPRESENTATION_CONTEXT('2D SPACE',''
  ) );
#850 = ADVANCED_FACE('',(#851),#839,.T.);
#851 = FACE_BOUND('',#852,.T.);
#852 = EDGE_LOOP('',(#853,#879,#880));
#853 = ORIENTED_EDGE('',*,*,#854,.F.);
#854 = EDGE_CURVE('',#797,#24,#855,.T.);
#855 = SURFACE_CURVE('',#856,(#860,#867),.PCURVE_S1.);
#856 = LINE('',#857,#858);
#857 = CARTESIAN_POINT('',(10.713672652899,19.035106630255,
    8.011592106868));
#858 = VECTOR('',#859,1.);
#859 = DIRECTION('',(0.713643203254,0.70050889401,-8.172277842329E-04));
#860 = PCURVE('',#839,#861);
#861 = DEFINITIONAL_REPRESENTATION('',(#862),#866);
#862 = LINE('',#863,#864);
#863 = CARTESIAN_POINT('',(-29.78357920738,-29.23540561303));
#864 = VECTOR('',#865,1.);
#865 = DIRECTION('',(0.713643670174,0.700508895033));
#866 = ( GEOMETRIC_REPRESENTATION_CONTEXT(2) 
PARAMETRIC_REPRESENTATION_CONTEXT() REPRESENTATION_CONTEXT('2D SPACE',''
  ) );
#867 = PCURVE('',#868,#873);
#868 = PLANE('',#869);
#869 = AXIS2_PLACEMENT_3D('',#870,#871,#872);
#870 = CARTESIAN_POINT('',(40.497232373626,48.270512200596,
    7.977485493919));
#871 = DIRECTION('',(2.077798353646E-03,-9.501392876551E-04,
    0.999997389991));
#872 = DIRECTION('',(0.999997841373,-2.984279606667E-22,
    -2.077799291528E-03));
#873 = DEFINITIONAL_REPRESENTATION('',(#874),#878);
#874 = LINE('',#875,#876);
#875 = CARTESIAN_POINT('',(-29.78356629581,-29.23541876669));
#876 = VECTOR('',#877,1.);
#877 = DIRECTION('',(0.7136433608,0.700509210208));
#878 = ( GEOMETRIC_REPRESENTATION_CONTEXT(2) 
PARAMETRIC_REPRESENTATION_CONTEXT() REPRESENTATION_CONTEXT('2D SPACE',''
  ) );
#879 = ORIENTED_EDGE('',*,*,#825,.T.);
#880 = ORIENTED_EDGE('',*,*,#881,.T.);
#881 = EDGE_CURVE('',#288,#24,#882,.T.);
#882 = SURFACE_CURVE('',#883,(#887,#894),.PCURVE_S1.);
#883 = LINE('',#884,#885);
#884 = CARTESIAN_POINT('',(40.47120561941,-48.25661172273,7.972299860526
    ));
#885 = VECTOR('',#886,1.);
#886 = DIRECTION('',(2.696315001936E-04,0.999999962206,
    5.372203154243E-05));
#887 = PCURVE('',#839,#888);
#888 = DEFINITIONAL_REPRESENTATION('',(#889),#893);
#889 = LINE('',#890,#891);
#890 = CARTESIAN_POINT('',(-2.602052211503E-02,-96.5271240643));
#891 = VECTOR('',#892,1.);
#892 = DIRECTION('',(2.695669369813E-04,0.999999963667));
#893 = ( GEOMETRIC_REPRESENTATION_CONTEXT(2) 
PARAMETRIC_REPRESENTATION_CONTEXT() REPRESENTATION_CONTEXT('2D SPACE',''
  ) );
#894 = PCURVE('',#44,#895);
#895 = DEFINITIONAL_REPRESENTATION('',(#896),#900);
#896 = LINE('',#897,#898);
#897 = CARTESIAN_POINT('',(0.,0.));
#898 = VECTOR('',#899,1.);
#899 = DIRECTION('',(5.578306691008E-05,-0.999999998444));
#900 = ( GEOMETRIC_REPRESENTATION_CONTEXT(2) 
PARAMETRIC_REPRESENTATION_CONTEXT() REPRESENTATION_CONTEXT('2D SPACE',''
  ) );
#901 = ADVANCED_FACE('',(#902),#156,.T.);
#902 = FACE_BOUND('',#903,.T.);
#903 = EDGE_LOOP('',(#904,#905,#906));
#904 = ORIENTED_EDGE('',*,*,#142,.F.);
#905 = ORIENTED_EDGE('',*,*,#681,.T.);
#906 = ORIENTED_EDGE('',*,*,#907,.T.);
#907 = EDGE_CURVE('',#634,#24,#908,.T.);
#908 = SURFACE_CURVE('',#909,(#913,#920),.PCURVE_S1.);
#909 = LINE('',#910,#911);
#910 = CARTESIAN_POINT('',(-1.675832061898,26.591379208701,8.04451459674
    ));
#911 = VECTOR('',#912,1.);
#912 = DIRECTION('',(0.889371567473,0.457182913989,-1.413551019831E-03)
  );
#913 = PCURVE('',#156,#914);
#914 = DEFINITIONAL_REPRESENTATION('',(#915),#919);
#915 = LINE('',#916,#917);
#916 = CARTESIAN_POINT('',(-21.67923009027,42.173067789253));
#917 = VECTOR('',#918,1.);
#918 = DIRECTION('',(0.457184961659,-0.889371638199));
#919 = ( GEOMETRIC_REPRESENTATION_CONTEXT(2) 
PARAMETRIC_REPRESENTATION_CONTEXT() REPRESENTATION_CONTEXT('2D SPACE',''
  ) );
#920 = PCURVE('',#868,#921);
#921 = DEFINITIONAL_REPRESENTATION('',(#922),#926);
#922 = LINE('',#923,#924);
#923 = CARTESIAN_POINT('',(-42.17311267262,-21.67914277748));
#924 = VECTOR('',#925,1.);
#925 = DIRECTION('',(0.889372584727,0.457183120353));
#926 = ( GEOMETRIC_REPRESENTATION_CONTEXT(2) 
PARAMETRIC_REPRESENTATION_CONTEXT() REPRESENTATION_CONTEXT('2D SPACE',''
  ) );
#927 = ADVANCED_FACE('',(#928),#868,.T.);
#928 = FACE_BOUND('',#929,.T.);
#929 = EDGE_LOOP('',(#930,#931,#957));
#930 = ORIENTED_EDGE('',*,*,#907,.F.);
#931 = ORIENTED_EDGE('',*,*,#932,.T.);
#932 = EDGE_CURVE('',#634,#797,#933,.T.);
#933 = SURFACE_CURVE('',#934,(#938,#945),.PCURVE_S1.);
#934 = LINE('',#935,#936);
#935 = CARTESIAN_POINT('',(-1.675832061898,26.591379208701,8.04451459674
    ));
#936 = VECTOR('',#937,1.);
#937 = DIRECTION('',(0.853742010775,-0.520691302323,-2.268638928672E-03)
  );
#938 = PCURVE('',#868,#939);
#939 = DEFINITIONAL_REPRESENTATION('',(#940),#944);
#940 = LINE('',#941,#942);
#941 = CARTESIAN_POINT('',(-42.17311267262,-21.67914277748));
#942 = VECTOR('',#943,1.);
#943 = DIRECTION('',(0.853744881641,-0.520691537354));
#944 = ( GEOMETRIC_REPRESENTATION_CONTEXT(2) 
PARAMETRIC_REPRESENTATION_CONTEXT() REPRESENTATION_CONTEXT('2D SPACE',''
  ) );
#945 = PCURVE('',#946,#951);
#946 = PLANE('',#947);
#947 = AXIS2_PLACEMENT_3D('',#948,#949,#950);
#948 = CARTESIAN_POINT('',(-1.675832061898,26.591379208701,8.04451459674
    ));
#949 = DIRECTION('',(-0.520695726426,-0.853726911956,-5.130329892266E-03
    ));
#950 = DIRECTION('',(-0.853738147345,0.520702578991,-3.594809491247E-19)
  );
#951 = DEFINITIONAL_REPRESENTATION('',(#952),#956);
#952 = LINE('',#953,#954);
#953 = CARTESIAN_POINT('',(0.,0.));
#954 = VECTOR('',#955,1.);
#955 = DIRECTION('',(-0.999997426568,2.268668784872E-03));
#956 = ( GEOMETRIC_REPRESENTATION_CONTEXT(2) 
PARAMETRIC_REPRESENTATION_CONTEXT() REPRESENTATION_CONTEXT('2D SPACE',''
  ) );
#957 = ORIENTED_EDGE('',*,*,#854,.T.);
#958 = ADVANCED_FACE('',(#959),#592,.T.);
#959 = FACE_BOUND('',#960,.T.);
#960 = EDGE_LOOP('',(#961,#962,#990));
#961 = ORIENTED_EDGE('',*,*,#576,.F.);
#962 = ORIENTED_EDGE('',*,*,#963,.T.);
#963 = EDGE_CURVE('',#231,#964,#966,.T.);
#964 = VERTEX_POINT('',#965);
#965 = CARTESIAN_POINT('',(1.490712206788,-43.19213579888,
    -1.406543414602E-02));
#966 = SURFACE_CURVE('',#967,(#971,#978),.PCURVE_S1.);
#967 = LINE('',#968,#969);
#968 = CARTESIAN_POINT('',(-40.48828627986,-48.24148992635,
    1.9342460074E-02));
#969 = VECTOR('',#970,1.);
#970 = DIRECTION('',(0.992843267715,0.119422030837,-7.901284942624E-04)
  );
#971 = PCURVE('',#592,#972);
#972 = DEFINITIONAL_REPRESENTATION('',(#973),#977);
#973 = LINE('',#974,#975);
#974 = CARTESIAN_POINT('',(-3.960615494423E-02,80.937784791256));
#975 = VECTOR('',#976,1.);
#976 = DIRECTION('',(-0.119424410892,-0.992843295834));
#977 = ( GEOMETRIC_REPRESENTATION_CONTEXT(2) 
PARAMETRIC_REPRESENTATION_CONTEXT() REPRESENTATION_CONTEXT('2D SPACE',''
  ) );
#978 = PCURVE('',#979,#984);
#979 = PLANE('',#980);
#980 = AXIS2_PLACEMENT_3D('',#981,#982,#983);
#981 = CARTESIAN_POINT('',(5.081592061583,-40.27627717958,
    -8.978665982952E-03));
#982 = DIRECTION('',(-1.180522647299E-03,3.198321596288E-03,
    -0.999994188536));
#983 = DIRECTION('',(-3.596678929876E-22,-0.999994885349,
    -3.198323824934E-03));
#984 = DEFINITIONAL_REPRESENTATION('',(#985),#989);
#985 = LINE('',#986,#987);
#986 = CARTESIAN_POINT('',(7.965081427349,45.569910095337));
#987 = VECTOR('',#988,1.);
#988 = DIRECTION('',(-0.119418892948,-0.992843959546));
#989 = ( GEOMETRIC_REPRESENTATION_CONTEXT(2) 
PARAMETRIC_REPRESENTATION_CONTEXT() REPRESENTATION_CONTEXT('2D SPACE',''
  ) );
#990 = ORIENTED_EDGE('',*,*,#991,.T.);
#991 = EDGE_CURVE('',#964,#577,#992,.T.);
#992 = SURFACE_CURVE('',#993,(#997,#1004),.PCURVE_S1.);
#993 = LINE('',#994,#995);
#994 = CARTESIAN_POINT('',(1.490712206788,-43.19213579888,
    -1.406543414602E-02));
#995 = VECTOR('',#996,1.);
#996 = DIRECTION('',(0.99157594781,-0.12952608511,3.646939949462E-04));
#997 = PCURVE('',#592,#998);
#998 = DEFINITIONAL_REPRESENTATION('',(#999),#1003);
#999 = LINE('',#1000,#1001);
#1000 = CARTESIAN_POINT('',(-5.089060914962,38.958785115697));
#1001 = VECTOR('',#1002,1.);
#1002 = DIRECTION('',(0.12952638354,-0.991575975893));
#1003 = ( GEOMETRIC_REPRESENTATION_CONTEXT(2) 
PARAMETRIC_REPRESENTATION_CONTEXT() REPRESENTATION_CONTEXT('2D SPACE',''
  ) );
#1004 = PCURVE('',#1005,#1010);
#1005 = PLANE('',#1006);
#1006 = AXIS2_PLACEMENT_3D('',#1007,#1008,#1009);
#1007 = CARTESIAN_POINT('',(40.449496219112,-48.28118498861,
    2.633064926398E-04));
#1008 = DIRECTION('',(3.650522601647E-03,2.51315712168E-02,
    -0.999677486899));
#1009 = DIRECTION('',(-9.216737147706E-21,-0.999684147974,
    -2.51317386741E-02));
#1010 = DEFINITIONAL_REPRESENTATION('',(#1011),#1015);
#1011 = LINE('',#1012,#1013);
#1012 = CARTESIAN_POINT('',(-5.087081697072,38.959043603437));
#1013 = VECTOR('',#1014,1.);
#1014 = DIRECTION('',(0.129476008639,-0.991582554902));
#1015 = ( GEOMETRIC_REPRESENTATION_CONTEXT(2) 
PARAMETRIC_REPRESENTATION_CONTEXT() REPRESENTATION_CONTEXT('2D SPACE',''
  ) );
#1016 = ADVANCED_FACE('',(#1017),#979,.T.);
#1017 = FACE_BOUND('',#1018,.T.);
#1018 = EDGE_LOOP('',(#1019,#1047,#1048));
#1019 = ORIENTED_EDGE('',*,*,#1020,.F.);
#1020 = EDGE_CURVE('',#964,#1021,#1023,.T.);
#1021 = VERTEX_POINT('',#1022);
#1022 = CARTESIAN_POINT('',(5.081592061583,-40.27627717958,
    -8.978665982952E-03));
#1023 = SURFACE_CURVE('',#1024,(#1028,#1035),.PCURVE_S1.);
#1024 = LINE('',#1025,#1026);
#1025 = CARTESIAN_POINT('',(1.490712206788,-43.19213579888,
    -1.406543414602E-02));
#1026 = VECTOR('',#1027,1.);
#1027 = DIRECTION('',(0.776296672262,0.630366772066,1.099686248841E-03)
  );
#1028 = PCURVE('',#979,#1029);
#1029 = DEFINITIONAL_REPRESENTATION('',(#1030),#1034);
#1030 = LINE('',#1031,#1032);
#1031 = CARTESIAN_POINT('',(2.915859974829,3.590882356983));
#1032 = VECTOR('',#1033,1.);
#1033 = DIRECTION('',(-0.630367065113,-0.776297213199));
#1034 = ( GEOMETRIC_REPRESENTATION_CONTEXT(2) 
PARAMETRIC_REPRESENTATION_CONTEXT() REPRESENTATION_CONTEXT('2D SPACE',''
  ) );
#1035 = PCURVE('',#1036,#1041);
#1036 = PLANE('',#1037);
#1037 = AXIS2_PLACEMENT_3D('',#1038,#1039,#1040);
#1038 = CARTESIAN_POINT('',(5.126215691877,-40.26139734548,
    8.066711825466));
#1039 = DIRECTION('',(0.630367577459,-0.776294082873,-2.052847688668E-03
    ));
#1040 = DIRECTION('',(-0.776295718601,-0.630368905706,1.405073391517E-19
    ));
#1041 = DEFINITIONAL_REPRESENTATION('',(#1042),#1046);
#1042 = LINE('',#1043,#1044);
#1043 = CARTESIAN_POINT('',(4.669672182213,8.080794286606));
#1044 = VECTOR('',#1045,1.);
#1045 = DIRECTION('',(-0.999999395342,-1.099688565989E-03));
#1046 = ( GEOMETRIC_REPRESENTATION_CONTEXT(2) 
PARAMETRIC_REPRESENTATION_CONTEXT() REPRESENTATION_CONTEXT('2D SPACE',''
  ) );
#1047 = ORIENTED_EDGE('',*,*,#963,.F.);
#1048 = ORIENTED_EDGE('',*,*,#1049,.T.);
#1049 = EDGE_CURVE('',#231,#1021,#1050,.T.);
#1050 = SURFACE_CURVE('',#1051,(#1055,#1062),.PCURVE_S1.);
#1051 = LINE('',#1052,#1053);
#1052 = CARTESIAN_POINT('',(-40.48828627986,-48.24148992635,
    1.9342460074E-02));
#1053 = VECTOR('',#1054,1.);
#1054 = DIRECTION('',(0.985065190624,0.172180705728,-6.122060548185E-04)
  );
#1055 = PCURVE('',#979,#1056);
#1056 = DEFINITIONAL_REPRESENTATION('',(#1057),#1061);
#1057 = LINE('',#1058,#1059);
#1058 = CARTESIAN_POINT('',(7.965081427349,45.569910095337));
#1059 = VECTOR('',#1060,1.);
#1060 = DIRECTION('',(-0.17217786705,-0.985065877035));
#1061 = ( GEOMETRIC_REPRESENTATION_CONTEXT(2) 
PARAMETRIC_REPRESENTATION_CONTEXT() REPRESENTATION_CONTEXT('2D SPACE',''
  ) );
#1062 = PCURVE('',#1063,#1068);
#1063 = PLANE('',#1064);
#1064 = AXIS2_PLACEMENT_3D('',#1065,#1066,#1067);
#1065 = CARTESIAN_POINT('',(-6.318630379284,19.005198017777,
    4.536940558131E-02));
#1066 = DIRECTION('',(-7.563102209424E-04,7.713359856152E-04,
    -0.999999416518));
#1067 = DIRECTION('',(8.253010362014E-23,-0.99999970252,
    -7.713362062194E-04));
#1068 = DEFINITIONAL_REPRESENTATION('',(#1069),#1073);
#1069 = LINE('',#1070,#1071);
#1070 = CARTESIAN_POINT('',(67.24668801512,34.169665673192));
#1071 = VECTOR('',#1072,1.);
#1072 = DIRECTION('',(-0.172180182291,-0.985065472355));
#1073 = ( GEOMETRIC_REPRESENTATION_CONTEXT(2) 
PARAMETRIC_REPRESENTATION_CONTEXT() REPRESENTATION_CONTEXT('2D SPACE',''
  ) );
#1074 = ADVANCED_FACE('',(#1075),#1005,.T.);
#1075 = FACE_BOUND('',#1076,.T.);
#1076 = EDGE_LOOP('',(#1077,#1078,#1106));
#1077 = ORIENTED_EDGE('',*,*,#991,.F.);
#1078 = ORIENTED_EDGE('',*,*,#1079,.T.);
#1079 = EDGE_CURVE('',#964,#1080,#1082,.T.);
#1080 = VERTEX_POINT('',#1081);
#1081 = CARTESIAN_POINT('',(5.821906719835,-41.96553915,
    3.258703638445E-02));
#1082 = SURFACE_CURVE('',#1083,(#1087,#1094),.PCURVE_S1.);
#1083 = LINE('',#1084,#1085);
#1084 = CARTESIAN_POINT('',(1.490712206788,-43.19213579888,
    -1.406543414602E-02));
#1085 = VECTOR('',#1086,1.);
#1086 = DIRECTION('',(0.962108561787,0.272469669554,1.036313220076E-02)
  );
#1087 = PCURVE('',#1005,#1088);
#1088 = DEFINITIONAL_REPRESENTATION('',(#1089),#1093);
#1089 = LINE('',#1090,#1091);
#1090 = CARTESIAN_POINT('',(-5.087081697072,38.959043603437));
#1091 = VECTOR('',#1092,1.);
#1092 = DIRECTION('',(-0.272644052987,-0.962114972532));
#1093 = ( GEOMETRIC_REPRESENTATION_CONTEXT(2) 
PARAMETRIC_REPRESENTATION_CONTEXT() REPRESENTATION_CONTEXT('2D SPACE',''
  ) );
#1094 = PCURVE('',#1095,#1100);
#1095 = PLANE('',#1096);
#1096 = AXIS2_PLACEMENT_3D('',#1097,#1098,#1099);
#1097 = CARTESIAN_POINT('',(1.465506868423,-43.12130616571,8.00942747486
    ));
#1098 = DIRECTION('',(-0.272379164849,0.962144574278,-9.349264356556E-03
    ));
#1099 = DIRECTION('',(0.962186626959,0.27239106979,-1.54810430073E-20));
#1100 = DEFINITIONAL_REPRESENTATION('',(#1101),#1105);
#1101 = LINE('',#1102,#1103);
#1102 = CARTESIAN_POINT('',(4.958879950299E-03,8.023843593715));
#1103 = VECTOR('',#1104,1.);
#1104 = DIRECTION('',(0.999946296609,-1.036358514463E-02));
#1105 = ( GEOMETRIC_REPRESENTATION_CONTEXT(2) 
PARAMETRIC_REPRESENTATION_CONTEXT() REPRESENTATION_CONTEXT('2D SPACE',''
  ) );
#1106 = ORIENTED_EDGE('',*,*,#1107,.T.);
#1107 = EDGE_CURVE('',#1080,#577,#1108,.T.);
#1108 = SURFACE_CURVE('',#1109,(#1113,#1120),.PCURVE_S1.);
#1109 = LINE('',#1110,#1111);
#1110 = CARTESIAN_POINT('',(5.821906719835,-41.96553915,
    3.258703638445E-02));
#1111 = VECTOR('',#1112,1.);
#1112 = DIRECTION('',(0.983770740151,-0.179427666523,-9.183180273285E-04
    ));
#1113 = PCURVE('',#1005,#1114);
#1114 = DEFINITIONAL_REPRESENTATION('',(#1115),#1119);
#1115 = LINE('',#1116,#1117);
#1116 = CARTESIAN_POINT('',(-6.31446338061,34.627820230671));
#1117 = VECTOR('',#1118,1.);
#1118 = DIRECTION('',(0.17939407286,-0.983777295236));
#1119 = ( GEOMETRIC_REPRESENTATION_CONTEXT(2) 
PARAMETRIC_REPRESENTATION_CONTEXT() REPRESENTATION_CONTEXT('2D SPACE',''
  ) );
#1120 = PCURVE('',#1121,#1126);
#1121 = PLANE('',#1122);
#1122 = AXIS2_PLACEMENT_3D('',#1123,#1124,#1125);
#1123 = CARTESIAN_POINT('',(40.449496219112,-48.28118498861,
    2.633064926398E-04));
#1124 = DIRECTION('',(-5.889962465634E-03,-2.717758048987E-02,
    -0.99961326895));
#1125 = DIRECTION('',(-7.035226420927E-22,-0.999630608522,
    2.71780519198E-02));
#1126 = DEFINITIONAL_REPRESENTATION('',(#1127),#1131);
#1127 = LINE('',#1128,#1129);
#1128 = CARTESIAN_POINT('',(-6.312434396848,34.628190159149));
#1129 = VECTOR('',#1130,1.);
#1130 = DIRECTION('',(0.179336429377,-0.983787804914));
#1131 = ( GEOMETRIC_REPRESENTATION_CONTEXT(2) 
PARAMETRIC_REPRESENTATION_CONTEXT() REPRESENTATION_CONTEXT('2D SPACE',''
  ) );
#1132 = ADVANCED_FACE('',(#1133),#1121,.T.);
#1133 = FACE_BOUND('',#1134,.T.);
#1134 = EDGE_LOOP('',(#1135,#1136,#1162));
#1135 = ORIENTED_EDGE('',*,*,#1107,.F.);
#1136 = ORIENTED_EDGE('',*,*,#1137,.F.);
#1137 = EDGE_CURVE('',#1021,#1080,#1138,.T.);
#1138 = SURFACE_CURVE('',#1139,(#1143,#1150),.PCURVE_S1.);
#1139 = LINE('',#1140,#1141);
#1140 = CARTESIAN_POINT('',(5.081592061583,-40.27627717958,
    -8.978665982952E-03));
#1141 = VECTOR('',#1142,1.);
#1142 = DIRECTION('',(0.401291427949,-0.91567327586,2.253090610969E-02)
  );
#1143 = PCURVE('',#1121,#1144);
#1144 = DEFINITIONAL_REPRESENTATION('',(#1145),#1149);
#1145 = LINE('',#1146,#1147);
#1146 = CARTESIAN_POINT('',(-8.002202043108,35.368517659107));
#1147 = VECTOR('',#1148,1.);
#1148 = DIRECTION('',(0.915947380091,-0.401298388862));
#1149 = ( GEOMETRIC_REPRESENTATION_CONTEXT(2) 
PARAMETRIC_REPRESENTATION_CONTEXT() REPRESENTATION_CONTEXT('2D SPACE',''
  ) );
#1150 = PCURVE('',#1151,#1156);
#1151 = PLANE('',#1152);
#1152 = AXIS2_PLACEMENT_3D('',#1153,#1154,#1155);
#1153 = CARTESIAN_POINT('',(5.804234446842,-41.92168388661,
    7.987879542799));
#1154 = DIRECTION('',(-0.915907377988,-0.401389640156,1.781057291439E-04
    ));
#1155 = DIRECTION('',(0.401389646523,-0.915907392515,6.395340605108E-21)
  );
#1156 = DEFINITIONAL_REPRESENTATION('',(#1157),#1161);
#1157 = LINE('',#1158,#1159);
#1158 = CARTESIAN_POINT('',(-1.797101338241,-7.996858335619));
#1159 = VECTOR('',#1160,1.);
#1160 = DIRECTION('',(0.999746146906,2.253090646705E-02));
#1161 = ( GEOMETRIC_REPRESENTATION_CONTEXT(2) 
PARAMETRIC_REPRESENTATION_CONTEXT() REPRESENTATION_CONTEXT('2D SPACE',''
  ) );
#1162 = ORIENTED_EDGE('',*,*,#1163,.T.);
#1163 = EDGE_CURVE('',#1021,#577,#1164,.T.);
#1164 = SURFACE_CURVE('',#1165,(#1169,#1176),.PCURVE_S1.);
#1165 = LINE('',#1166,#1167);
#1166 = CARTESIAN_POINT('',(5.081592061583,-40.27627717958,
    -8.978665982952E-03));
#1167 = VECTOR('',#1168,1.);
#1168 = DIRECTION('',(0.975330604396,-0.220749059281,2.548632387229E-04)
  );
#1169 = PCURVE('',#1121,#1170);
#1170 = DEFINITIONAL_REPRESENTATION('',(#1171),#1175);
#1171 = LINE('',#1172,#1173);
#1172 = CARTESIAN_POINT('',(-8.002202043108,35.368517659107));
#1173 = VECTOR('',#1174,1.);
#1174 = DIRECTION('',(0.220674443146,-0.975347522754));
#1175 = ( GEOMETRIC_REPRESENTATION_CONTEXT(2) 
PARAMETRIC_REPRESENTATION_CONTEXT() REPRESENTATION_CONTEXT('2D SPACE',''
  ) );
#1176 = PCURVE('',#1177,#1182);
#1177 = PLANE('',#1178);
#1178 = AXIS2_PLACEMENT_3D('',#1179,#1180,#1181);
#1179 = CARTESIAN_POINT('',(-6.318630379284,19.005198017777,
    4.536940558131E-02));
#1180 = DIRECTION('',(4.901399121824E-04,1.011036602672E-03,
    -0.999999368784));
#1181 = DIRECTION('',(-7.415120784311E-23,-0.999999488902,
    -1.011036724116E-03));
#1182 = DEFINITIONAL_REPRESENTATION('',(#1183),#1187);
#1183 = LINE('',#1184,#1185);
#1184 = CARTESIAN_POINT('',(59.281499846631,-11.40022381024));
#1185 = VECTOR('',#1186,1.);
#1186 = DIRECTION('',(0.22074868878,-0.975330721551));
#1187 = ( GEOMETRIC_REPRESENTATION_CONTEXT(2) 
PARAMETRIC_REPRESENTATION_CONTEXT() REPRESENTATION_CONTEXT('2D SPACE',''
  ) );
#1188 = ADVANCED_FACE('',(#1189),#1063,.T.);
#1189 = FACE_BOUND('',#1190,.T.);
#1190 = EDGE_LOOP('',(#1191,#1214,#1215));
#1191 = ORIENTED_EDGE('',*,*,#1192,.T.);
#1192 = EDGE_CURVE('',#1193,#1021,#1195,.T.);
#1193 = VERTEX_POINT('',#1194);
#1194 = CARTESIAN_POINT('',(-6.318630379284,19.005198017777,
    4.536940558131E-02));
#1195 = SURFACE_CURVE('',#1196,(#1200,#1207),.PCURVE_S1.);
#1196 = LINE('',#1197,#1198);
#1197 = CARTESIAN_POINT('',(-6.318630379284,19.005198017777,
    4.536940558131E-02));
#1198 = VECTOR('',#1199,1.);
#1199 = DIRECTION('',(0.188846338673,-0.982006237179,-9.002836902606E-04
    ));
#1200 = PCURVE('',#1063,#1201);
#1201 = DEFINITIONAL_REPRESENTATION('',(#1202),#1206);
#1202 = LINE('',#1203,#1204);
#1203 = CARTESIAN_POINT('',(0.,0.));
#1204 = VECTOR('',#1205,1.);
#1205 = DIRECTION('',(0.982006639474,-0.188846392684));
#1206 = ( GEOMETRIC_REPRESENTATION_CONTEXT(2) 
PARAMETRIC_REPRESENTATION_CONTEXT() REPRESENTATION_CONTEXT('2D SPACE',''
  ) );
#1207 = PCURVE('',#1177,#1208);
#1208 = DEFINITIONAL_REPRESENTATION('',(#1209),#1213);
#1209 = LINE('',#1210,#1211);
#1210 = CARTESIAN_POINT('',(-0.,0.));
#1211 = VECTOR('',#1212,1.);
#1212 = DIRECTION('',(0.982006645498,-0.188846361357));
#1213 = ( GEOMETRIC_REPRESENTATION_CONTEXT(2) 
PARAMETRIC_REPRESENTATION_CONTEXT() REPRESENTATION_CONTEXT('2D SPACE',''
  ) );
#1214 = ORIENTED_EDGE('',*,*,#1049,.F.);
#1215 = ORIENTED_EDGE('',*,*,#1216,.T.);
#1216 = EDGE_CURVE('',#231,#1193,#1217,.T.);
#1217 = SURFACE_CURVE('',#1218,(#1222,#1229),.PCURVE_S1.);
#1218 = LINE('',#1219,#1220);
#1219 = CARTESIAN_POINT('',(-40.48828627986,-48.24148992635,
    1.9342460074E-02));
#1220 = VECTOR('',#1221,1.);
#1221 = DIRECTION('',(0.452998293808,0.891511316109,3.450477213508E-04)
  );
#1222 = PCURVE('',#1063,#1223);
#1223 = DEFINITIONAL_REPRESENTATION('',(#1224),#1228);
#1224 = LINE('',#1225,#1226);
#1225 = CARTESIAN_POINT('',(67.24668801512,34.169665673192));
#1226 = VECTOR('',#1227,1.);
#1227 = DIRECTION('',(-0.89151131705,-0.452998423366));
#1228 = ( GEOMETRIC_REPRESENTATION_CONTEXT(2) 
PARAMETRIC_REPRESENTATION_CONTEXT() REPRESENTATION_CONTEXT('2D SPACE',''
  ) );
#1229 = PCURVE('',#246,#1230);
#1230 = DEFINITIONAL_REPRESENTATION('',(#1231),#1235);
#1231 = LINE('',#1232,#1233);
#1232 = CARTESIAN_POINT('',(34.169651548638,-67.24669519214));
#1233 = VECTOR('',#1234,1.);
#1234 = DIRECTION('',(-0.452998236112,0.891511412198));
#1235 = ( GEOMETRIC_REPRESENTATION_CONTEXT(2) 
PARAMETRIC_REPRESENTATION_CONTEXT() REPRESENTATION_CONTEXT('2D SPACE',''
  ) );
#1236 = ADVANCED_FACE('',(#1237),#246,.T.);
#1237 = FACE_BOUND('',#1238,.T.);
#1238 = EDGE_LOOP('',(#1239,#1240,#1241));
#1239 = ORIENTED_EDGE('',*,*,#1216,.F.);
#1240 = ORIENTED_EDGE('',*,*,#230,.T.);
#1241 = ORIENTED_EDGE('',*,*,#1242,.T.);
#1242 = EDGE_CURVE('',#57,#1193,#1243,.T.);
#1243 = SURFACE_CURVE('',#1244,(#1248,#1255),.PCURVE_S1.);
#1244 = LINE('',#1245,#1246);
#1245 = CARTESIAN_POINT('',(-40.45829761808,48.295341729158,
    -2.542843017279E-02));
#1246 = VECTOR('',#1247,1.);
#1247 = DIRECTION('',(0.758952713558,-0.651143840822,1.573893769491E-03)
  );
#1248 = PCURVE('',#246,#1249);
#1249 = DEFINITIONAL_REPRESENTATION('',(#1250),#1254);
#1250 = LINE('',#1251,#1252);
#1251 = CARTESIAN_POINT('',(34.139737939441,29.290146868348));
#1252 = VECTOR('',#1253,1.);
#1253 = DIRECTION('',(-0.758954285291,-0.651143911004));
#1254 = ( GEOMETRIC_REPRESENTATION_CONTEXT(2) 
PARAMETRIC_REPRESENTATION_CONTEXT() REPRESENTATION_CONTEXT('2D SPACE',''
  ) );
#1255 = PCURVE('',#72,#1256);
#1256 = DEFINITIONAL_REPRESENTATION('',(#1257),#1261);
#1257 = LINE('',#1258,#1259);
#1258 = CARTESIAN_POINT('',(-2.865380508084E-02,80.894265752965));
#1259 = VECTOR('',#1260,1.);
#1260 = DIRECTION('',(0.651145740924,-0.75895271531));
#1261 = ( GEOMETRIC_REPRESENTATION_CONTEXT(2) 
PARAMETRIC_REPRESENTATION_CONTEXT() REPRESENTATION_CONTEXT('2D SPACE',''
  ) );
#1262 = ADVANCED_FACE('',(#1263),#1177,.T.);
#1263 = FACE_BOUND('',#1264,.T.);
#1264 = EDGE_LOOP('',(#1265,#1291,#1292));
#1265 = ORIENTED_EDGE('',*,*,#1266,.T.);
#1266 = EDGE_CURVE('',#1193,#577,#1267,.T.);
#1267 = SURFACE_CURVE('',#1268,(#1272,#1279),.PCURVE_S1.);
#1268 = LINE('',#1269,#1270);
#1269 = CARTESIAN_POINT('',(-6.318630379284,19.005198017777,
    4.536940558131E-02));
#1270 = VECTOR('',#1271,1.);
#1271 = DIRECTION('',(0.570737115026,-0.821132658303,-5.504544812112E-04
    ));
#1272 = PCURVE('',#1177,#1273);
#1273 = DEFINITIONAL_REPRESENTATION('',(#1274),#1278);
#1274 = LINE('',#1275,#1276);
#1275 = CARTESIAN_POINT('',(-0.,0.));
#1276 = VECTOR('',#1277,1.);
#1277 = DIRECTION('',(0.821132795154,-0.570737183582));
#1278 = ( GEOMETRIC_REPRESENTATION_CONTEXT(2) 
PARAMETRIC_REPRESENTATION_CONTEXT() REPRESENTATION_CONTEXT('2D SPACE',''
  ) );
#1279 = PCURVE('',#1280,#1285);
#1280 = PLANE('',#1281);
#1281 = AXIS2_PLACEMENT_3D('',#1282,#1283,#1284);
#1282 = CARTESIAN_POINT('',(9.178028765969,14.065935211439,
    3.877490674503E-03));
#1283 = DIRECTION('',(-3.164949592275E-03,-1.529476518028E-03,
    -0.999993821879));
#1284 = DIRECTION('',(-0.999994991523,-7.116447537247E-22,
    3.164953294162E-03));
#1285 = DEFINITIONAL_REPRESENTATION('',(#1286),#1290);
#1286 = LINE('',#1287,#1288);
#1287 = CARTESIAN_POINT('',(15.496712850561,4.939268583552));
#1288 = VECTOR('',#1289,1.);
#1289 = DIRECTION('',(-0.570735998665,-0.821133618742));
#1290 = ( GEOMETRIC_REPRESENTATION_CONTEXT(2) 
PARAMETRIC_REPRESENTATION_CONTEXT() REPRESENTATION_CONTEXT('2D SPACE',''
  ) );
#1291 = ORIENTED_EDGE('',*,*,#1163,.F.);
#1292 = ORIENTED_EDGE('',*,*,#1192,.F.);
#1293 = ADVANCED_FACE('',(#1294),#1280,.T.);
#1294 = FACE_BOUND('',#1295,.T.);
#1295 = EDGE_LOOP('',(#1296,#1324,#1325));
#1296 = ORIENTED_EDGE('',*,*,#1297,.T.);
#1297 = EDGE_CURVE('',#1298,#577,#1300,.T.);
#1298 = VERTEX_POINT('',#1299);
#1299 = CARTESIAN_POINT('',(9.178028765969,14.065935211439,
    3.877490674503E-03));
#1300 = SURFACE_CURVE('',#1301,(#1305,#1312),.PCURVE_S1.);
#1301 = LINE('',#1302,#1303);
#1302 = CARTESIAN_POINT('',(9.178028765969,14.065935211439,
    3.877490674503E-03));
#1303 = VECTOR('',#1304,1.);
#1304 = DIRECTION('',(0.448336193509,-0.89386500933,-5.181623091933E-05)
  );
#1305 = PCURVE('',#1280,#1306);
#1306 = DEFINITIONAL_REPRESENTATION('',(#1307),#1311);
#1307 = LINE('',#1308,#1309);
#1308 = CARTESIAN_POINT('',(0.,0.));
#1309 = VECTOR('',#1310,1.);
#1310 = DIRECTION('',(-0.448334112024,-0.89386605484));
#1311 = ( GEOMETRIC_REPRESENTATION_CONTEXT(2) 
PARAMETRIC_REPRESENTATION_CONTEXT() REPRESENTATION_CONTEXT('2D SPACE',''
  ) );
#1312 = PCURVE('',#1313,#1318);
#1313 = PLANE('',#1314);
#1314 = AXIS2_PLACEMENT_3D('',#1315,#1316,#1317);
#1315 = CARTESIAN_POINT('',(10.773068868778,19.047010433124,
    2.36979551814E-03));
#1316 = DIRECTION('',(-4.388629797093E-04,-1.621519256644E-04,
    -0.999999890553));
#1317 = DIRECTION('',(-0.9999999037,8.718220079058E-24,
    4.388629854789E-04));
#1318 = DEFINITIONAL_REPRESENTATION('',(#1319),#1323);
#1319 = LINE('',#1320,#1321);
#1320 = CARTESIAN_POINT('',(1.595040610878,-4.981075287169));
#1321 = VECTOR('',#1322,1.);
#1322 = DIRECTION('',(-0.448336173075,-0.893865021081));
#1323 = ( GEOMETRIC_REPRESENTATION_CONTEXT(2) 
PARAMETRIC_REPRESENTATION_CONTEXT() REPRESENTATION_CONTEXT('2D SPACE',''
  ) );
#1324 = ORIENTED_EDGE('',*,*,#1266,.F.);
#1325 = ORIENTED_EDGE('',*,*,#1326,.T.);
#1326 = EDGE_CURVE('',#1193,#1298,#1327,.T.);
#1327 = SURFACE_CURVE('',#1328,(#1332,#1339),.PCURVE_S1.);
#1328 = LINE('',#1329,#1330);
#1329 = CARTESIAN_POINT('',(-6.318630379284,19.005198017777,
    4.536940558131E-02));
#1330 = VECTOR('',#1331,1.);
#1331 = DIRECTION('',(0.95277143034,-0.303677614943,-2.551021529399E-03)
  );
#1332 = PCURVE('',#1280,#1333);
#1333 = DEFINITIONAL_REPRESENTATION('',(#1334),#1338);
#1334 = LINE('',#1335,#1336);
#1335 = CARTESIAN_POINT('',(15.496712850561,4.939268583552));
#1336 = VECTOR('',#1337,1.);
#1337 = DIRECTION('',(-0.95277473227,-0.30367797014));
#1338 = ( GEOMETRIC_REPRESENTATION_CONTEXT(2) 
PARAMETRIC_REPRESENTATION_CONTEXT() REPRESENTATION_CONTEXT('2D SPACE',''
  ) );
#1339 = PCURVE('',#1340,#1345);
#1340 = PLANE('',#1341);
#1341 = AXIS2_PLACEMENT_3D('',#1342,#1343,#1344);
#1342 = CARTESIAN_POINT('',(9.172339364224,14.043372170939,
    8.024768376937));
#1343 = DIRECTION('',(0.303684367851,0.952768293101,2.895580090306E-03)
  );
#1344 = DIRECTION('',(0.952772287314,-0.303685640963,2.600639074387E-20)
  );
#1345 = DEFINITIONAL_REPRESENTATION('',(#1346),#1350);
#1346 = LINE('',#1347,#1348);
#1347 = CARTESIAN_POINT('',(-16.26620193787,7.979432422739));
#1348 = VECTOR('',#1349,1.);
#1349 = DIRECTION('',(0.999996746112,2.551032223838E-03));
#1350 = ( GEOMETRIC_REPRESENTATION_CONTEXT(2) 
PARAMETRIC_REPRESENTATION_CONTEXT() REPRESENTATION_CONTEXT('2D SPACE',''
  ) );
#1351 = ADVANCED_FACE('',(#1352),#1313,.T.);
#1352 = FACE_BOUND('',#1353,.T.);
#1353 = EDGE_LOOP('',(#1354,#1382,#1383));
#1354 = ORIENTED_EDGE('',*,*,#1355,.T.);
#1355 = EDGE_CURVE('',#1356,#577,#1358,.T.);
#1356 = VERTEX_POINT('',#1357);
#1357 = CARTESIAN_POINT('',(10.773068868778,19.047010433124,
    2.36979551814E-03));
#1358 = SURFACE_CURVE('',#1359,(#1363,#1370),.PCURVE_S1.);
#1359 = LINE('',#1360,#1361);
#1360 = CARTESIAN_POINT('',(10.773068868778,19.047010433124,
    2.36979551814E-03));
#1361 = VECTOR('',#1362,1.);
#1362 = DIRECTION('',(0.403330872113,-0.91505420975,-2.862918927949E-05)
  );
#1363 = PCURVE('',#1313,#1364);
#1364 = DEFINITIONAL_REPRESENTATION('',(#1365),#1369);
#1365 = LINE('',#1366,#1367);
#1366 = CARTESIAN_POINT('',(0.,0.));
#1367 = VECTOR('',#1368,1.);
#1368 = DIRECTION('',(-0.403330845837,-0.91505422178));
#1369 = ( GEOMETRIC_REPRESENTATION_CONTEXT(2) 
PARAMETRIC_REPRESENTATION_CONTEXT() REPRESENTATION_CONTEXT('2D SPACE',''
  ) );
#1370 = PCURVE('',#1371,#1376);
#1371 = PLANE('',#1372);
#1372 = AXIS2_PLACEMENT_3D('',#1373,#1374,#1375);
#1373 = CARTESIAN_POINT('',(40.435967948172,48.266674293415,
    -3.085298473275E-02));
#1374 = DIRECTION('',(-8.024271766159E-04,-3.224010897211E-04,
    -0.999999626084));
#1375 = DIRECTION('',(-0.999999678055,-2.096583017919E-23,
    8.02427218319E-04));
#1376 = DEFINITIONAL_REPRESENTATION('',(#1377),#1381);
#1377 = LINE('',#1378,#1379);
#1378 = CARTESIAN_POINT('',(29.662916188442,-29.21966537887));
#1379 = VECTOR('',#1380,1.);
#1380 = DIRECTION('',(-0.403330765236,-0.915054257306));
#1381 = ( GEOMETRIC_REPRESENTATION_CONTEXT(2) 
PARAMETRIC_REPRESENTATION_CONTEXT() REPRESENTATION_CONTEXT('2D SPACE',''
  ) );
#1382 = ORIENTED_EDGE('',*,*,#1297,.F.);
#1383 = ORIENTED_EDGE('',*,*,#1384,.T.);
#1384 = EDGE_CURVE('',#1298,#1356,#1385,.T.);
#1385 = SURFACE_CURVE('',#1386,(#1390,#1397),.PCURVE_S1.);
#1386 = LINE('',#1387,#1388);
#1387 = CARTESIAN_POINT('',(9.178028765969,14.065935211439,
    3.877490674503E-03));
#1388 = VECTOR('',#1389,1.);
#1389 = DIRECTION('',(0.304965800226,0.952363259264,-2.882657677681E-04)
  );
#1390 = PCURVE('',#1313,#1391);
#1391 = DEFINITIONAL_REPRESENTATION('',(#1392),#1396);
#1392 = LINE('',#1393,#1394);
#1393 = CARTESIAN_POINT('',(1.595040610878,-4.981075287169));
#1394 = VECTOR('',#1395,1.);
#1395 = DIRECTION('',(-0.304965897367,0.952363271784));
#1396 = ( GEOMETRIC_REPRESENTATION_CONTEXT(2) 
PARAMETRIC_REPRESENTATION_CONTEXT() REPRESENTATION_CONTEXT('2D SPACE',''
  ) );
#1397 = PCURVE('',#1398,#1403);
#1398 = PLANE('',#1399);
#1399 = AXIS2_PLACEMENT_3D('',#1400,#1401,#1402);
#1400 = CARTESIAN_POINT('',(10.713672652899,19.035106630255,
    8.011592106868));
#1401 = DIRECTION('',(-0.952343078611,0.30495733744,-6.60930874462E-03)
  );
#1402 = DIRECTION('',(-0.304963998378,-0.952363879876,
    -1.304428215825E-19));
#1403 = DEFINITIONAL_REPRESENTATION('',(#1404),#1408);
#1404 = LINE('',#1405,#1406);
#1405 = CARTESIAN_POINT('',(5.200775472038,-8.00788952227));
#1406 = VECTOR('',#1407,1.);
#1407 = DIRECTION('',(-0.99999995845,-2.882720641257E-04));
#1408 = ( GEOMETRIC_REPRESENTATION_CONTEXT(2) 
PARAMETRIC_REPRESENTATION_CONTEXT() REPRESENTATION_CONTEXT('2D SPACE',''
  ) );
#1409 = ADVANCED_FACE('',(#1410),#1371,.T.);
#1410 = FACE_BOUND('',#1411,.T.);
#1411 = EDGE_LOOP('',(#1412,#1433,#1434));
#1412 = ORIENTED_EDGE('',*,*,#1413,.T.);
#1413 = EDGE_CURVE('',#22,#577,#1414,.T.);
#1414 = SURFACE_CURVE('',#1415,(#1419,#1426),.PCURVE_S1.);
#1415 = LINE('',#1416,#1417);
#1416 = CARTESIAN_POINT('',(40.435967948172,48.266674293415,
    -3.085298473275E-02));
#1417 = VECTOR('',#1418,1.);
#1418 = DIRECTION('',(1.401198349207E-04,-0.999999938248,
    3.222887543577E-04));
#1419 = PCURVE('',#1371,#1420);
#1420 = DEFINITIONAL_REPRESENTATION('',(#1421),#1425);
#1421 = LINE('',#1422,#1423);
#1422 = CARTESIAN_POINT('',(0.,0.));
#1423 = VECTOR('',#1424,1.);
#1424 = DIRECTION('',(-1.398611765412E-04,-0.999999990219));
#1425 = ( GEOMETRIC_REPRESENTATION_CONTEXT(2) 
PARAMETRIC_REPRESENTATION_CONTEXT() REPRESENTATION_CONTEXT('2D SPACE',''
  ) );
#1426 = PCURVE('',#618,#1427);
#1427 = DEFINITIONAL_REPRESENTATION('',(#1428),#1432);
#1428 = LINE('',#1429,#1430);
#1429 = CARTESIAN_POINT('',(-8.003219135017,-96.52328695185));
#1430 = VECTOR('',#1431,1.);
#1431 = DIRECTION('',(3.22669191162E-04,0.999999947942));
#1432 = ( GEOMETRIC_REPRESENTATION_CONTEXT(2) 
PARAMETRIC_REPRESENTATION_CONTEXT() REPRESENTATION_CONTEXT('2D SPACE',''
  ) );
#1433 = ORIENTED_EDGE('',*,*,#1355,.F.);
#1434 = ORIENTED_EDGE('',*,*,#1435,.T.);
#1435 = EDGE_CURVE('',#1356,#22,#1436,.T.);
#1436 = SURFACE_CURVE('',#1437,(#1441,#1448),.PCURVE_S1.);
#1437 = LINE('',#1438,#1439);
#1438 = CARTESIAN_POINT('',(10.773068868778,19.047010433124,
    2.36979551814E-03));
#1439 = VECTOR('',#1440,1.);
#1440 = DIRECTION('',(0.712409078261,0.701763969264,-7.979061720323E-04)
  );
#1441 = PCURVE('',#1371,#1442);
#1442 = DEFINITIONAL_REPRESENTATION('',(#1443),#1447);
#1443 = LINE('',#1444,#1445);
#1444 = CARTESIAN_POINT('',(29.662916188442,-29.21966537887));
#1445 = VECTOR('',#1446,1.);
#1446 = DIRECTION('',(-0.712409489167,0.701764005735));
#1447 = ( GEOMETRIC_REPRESENTATION_CONTEXT(2) 
PARAMETRIC_REPRESENTATION_CONTEXT() REPRESENTATION_CONTEXT('2D SPACE',''
  ) );
#1448 = PCURVE('',#1449,#1454);
#1449 = PLANE('',#1450);
#1450 = AXIS2_PLACEMENT_3D('',#1451,#1452,#1453);
#1451 = CARTESIAN_POINT('',(40.435967948172,48.266674293415,
    -3.085298473275E-02));
#1452 = DIRECTION('',(-2.519282853101E-03,1.420502026295E-03,
    -0.999995817685));
#1453 = DIRECTION('',(-0.999996826596,1.948716563795E-22,
    2.519285394842E-03));
#1454 = DEFINITIONAL_REPRESENTATION('',(#1455),#1459);
#1455 = LINE('',#1456,#1457);
#1456 = CARTESIAN_POINT('',(29.662888644682,-29.21969334043));
#1457 = VECTOR('',#1458,1.);
#1458 = DIRECTION('',(-0.712408827653,0.701764677283));
#1459 = ( GEOMETRIC_REPRESENTATION_CONTEXT(2) 
PARAMETRIC_REPRESENTATION_CONTEXT() REPRESENTATION_CONTEXT('2D SPACE',''
  ) );
#1460 = ADVANCED_FACE('',(#1461),#72,.T.);
#1461 = FACE_BOUND('',#1462,.T.);
#1462 = EDGE_LOOP('',(#1463,#1484,#1485));
#1463 = ORIENTED_EDGE('',*,*,#1464,.F.);
#1464 = EDGE_CURVE('',#1193,#22,#1465,.T.);
#1465 = SURFACE_CURVE('',#1466,(#1470,#1477),.PCURVE_S1.);
#1466 = LINE('',#1467,#1468);
#1467 = CARTESIAN_POINT('',(-6.318630379284,19.005198017777,
    4.536940558131E-02));
#1468 = VECTOR('',#1469,1.);
#1469 = DIRECTION('',(0.847672601362,0.530517908432,-1.381931065411E-03)
  );
#1470 = PCURVE('',#72,#1471);
#1471 = DEFINITIONAL_REPRESENTATION('',(#1472),#1476);
#1472 = LINE('',#1473,#1474);
#1473 = CARTESIAN_POINT('',(29.261575377819,46.754598435367));
#1474 = VECTOR('',#1475,1.);
#1475 = DIRECTION('',(-0.530519705179,-0.847672603318));
#1476 = ( GEOMETRIC_REPRESENTATION_CONTEXT(2) 
PARAMETRIC_REPRESENTATION_CONTEXT() REPRESENTATION_CONTEXT('2D SPACE',''
  ) );
#1477 = PCURVE('',#1449,#1478);
#1478 = DEFINITIONAL_REPRESENTATION('',(#1479),#1483);
#1479 = LINE('',#1480,#1481);
#1480 = CARTESIAN_POINT('',(46.754641982158,-29.26150579796));
#1481 = VECTOR('',#1482,1.);
#1482 = DIRECTION('',(-0.847673392833,0.530518443679));
#1483 = ( GEOMETRIC_REPRESENTATION_CONTEXT(2) 
PARAMETRIC_REPRESENTATION_CONTEXT() REPRESENTATION_CONTEXT('2D SPACE',''
  ) );
#1484 = ORIENTED_EDGE('',*,*,#1242,.F.);
#1485 = ORIENTED_EDGE('',*,*,#56,.T.);
#1486 = ADVANCED_FACE('',(#1487),#1449,.T.);
#1487 = FACE_BOUND('',#1488,.T.);
#1488 = EDGE_LOOP('',(#1489,#1490,#1516));
#1489 = ORIENTED_EDGE('',*,*,#1435,.F.);
#1490 = ORIENTED_EDGE('',*,*,#1491,.F.);
#1491 = EDGE_CURVE('',#1193,#1356,#1492,.T.);
#1492 = SURFACE_CURVE('',#1493,(#1497,#1504),.PCURVE_S1.);
#1493 = LINE('',#1494,#1495);
#1494 = CARTESIAN_POINT('',(-6.318630379284,19.005198017777,
    4.536940558131E-02));
#1495 = VECTOR('',#1496,1.);
#1496 = DIRECTION('',(0.999993843052,2.446342947157E-03,
    -2.515802828774E-03));
#1497 = PCURVE('',#1449,#1498);
#1498 = DEFINITIONAL_REPRESENTATION('',(#1499),#1503);
#1499 = LINE('',#1500,#1501);
#1500 = CARTESIAN_POINT('',(46.754641982158,-29.26150579796));
#1501 = VECTOR('',#1502,1.);
#1502 = DIRECTION('',(-0.999997007693,2.446345415308E-03));
#1503 = ( GEOMETRIC_REPRESENTATION_CONTEXT(2) 
PARAMETRIC_REPRESENTATION_CONTEXT() REPRESENTATION_CONTEXT('2D SPACE',''
  ) );
#1504 = PCURVE('',#1505,#1510);
#1505 = PLANE('',#1506);
#1506 = AXIS2_PLACEMENT_3D('',#1507,#1508,#1509);
#1507 = CARTESIAN_POINT('',(-1.675832061898,26.591379208701,
    8.04451459674));
#1508 = DIRECTION('',(3.506021376849E-03,-0.726599092313,0.687052739507)
  );
#1509 = DIRECTION('',(1.898976340988E-19,-0.687056962236,-0.7266035581)
  );
#1510 = DEFINITIONAL_REPRESENTATION('',(#1511),#1515);
#1511 = LINE('',#1512,#1513);
#1512 = CARTESIAN_POINT('',(11.024345961659,-4.642826852718));
#1513 = VECTOR('',#1514,1.);
#1514 = DIRECTION('',(1.472143330036E-04,0.999999989164));
#1515 = ( GEOMETRIC_REPRESENTATION_CONTEXT(2) 
PARAMETRIC_REPRESENTATION_CONTEXT() REPRESENTATION_CONTEXT('2D SPACE',''
  ) );
#1516 = ORIENTED_EDGE('',*,*,#1464,.T.);
#1517 = ADVANCED_FACE('',(#1518),#618,.T.);
#1518 = FACE_BOUND('',#1519,.T.);
#1519 = EDGE_LOOP('',(#1520,#1521,#1522));
#1520 = ORIENTED_EDGE('',*,*,#604,.F.);
#1521 = ORIENTED_EDGE('',*,*,#1413,.F.);
#1522 = ORIENTED_EDGE('',*,*,#1523,.T.);
#1523 = EDGE_CURVE('',#22,#288,#1524,.T.);
#1524 = SURFACE_CURVE('',#1525,(#1529,#1536),.PCURVE_S1.);
#1525 = LINE('',#1526,#1527);
#1526 = CARTESIAN_POINT('',(40.435967948172,48.266674293415,
    -3.085298473275E-02));
#1527 = VECTOR('',#1528,1.);
#1528 = DIRECTION('',(3.638206482293E-04,-0.996580172695,
    8.263066637926E-02));
#1529 = PCURVE('',#618,#1530);
#1530 = DEFINITIONAL_REPRESENTATION('',(#1531),#1535);
#1531 = LINE('',#1532,#1533);
#1532 = CARTESIAN_POINT('',(-8.003219135017,-96.52328695185));
#1533 = VECTOR('',#1534,1.);
#1534 = DIRECTION('',(8.263135080538E-02,0.996580182356));
#1535 = ( GEOMETRIC_REPRESENTATION_CONTEXT(2) 
PARAMETRIC_REPRESENTATION_CONTEXT() REPRESENTATION_CONTEXT('2D SPACE',''
  ) );
#1536 = PCURVE('',#44,#1537);
#1537 = DEFINITIONAL_REPRESENTATION('',(#1538),#1542);
#1538 = LINE('',#1539,#1540);
#1539 = CARTESIAN_POINT('',(-8.003188234867,-96.52328951393));
#1540 = VECTOR('',#1541,1.);
#1541 = DIRECTION('',(8.263103176862E-02,0.996580208809));
#1542 = ( GEOMETRIC_REPRESENTATION_CONTEXT(2) 
PARAMETRIC_REPRESENTATION_CONTEXT() REPRESENTATION_CONTEXT('2D SPACE',''
  ) );
#1543 = ADVANCED_FACE('',(#1544),#44,.T.);
#1544 = FACE_BOUND('',#1545,.T.);
#1545 = EDGE_LOOP('',(#1546,#1547,#1548));
#1546 = ORIENTED_EDGE('',*,*,#1523,.F.);
#1547 = ORIENTED_EDGE('',*,*,#21,.T.);
#1548 = ORIENTED_EDGE('',*,*,#881,.F.);
#1549 = ADVANCED_FACE('',(#1550),#1151,.T.);
#1550 = FACE_BOUND('',#1551,.T.);
#1551 = EDGE_LOOP('',(#1552,#1573,#1574));
#1552 = ORIENTED_EDGE('',*,*,#1553,.F.);
#1553 = EDGE_CURVE('',#1021,#404,#1554,.T.);
#1554 = SURFACE_CURVE('',#1555,(#1559,#1566),.PCURVE_S1.);
#1555 = LINE('',#1556,#1557);
#1556 = CARTESIAN_POINT('',(5.081592061583,-40.27627717958,
    -8.978665982952E-03));
#1557 = VECTOR('',#1558,1.);
#1558 = DIRECTION('',(8.816691408697E-02,-0.200749962548,0.975666975867)
  );
#1559 = PCURVE('',#1151,#1560);
#1560 = DEFINITIONAL_REPRESENTATION('',(#1561),#1565);
#1561 = LINE('',#1562,#1563);
#1562 = CARTESIAN_POINT('',(-1.797101338241,-7.996858335619));
#1563 = VECTOR('',#1564,1.);
#1564 = DIRECTION('',(0.219257661225,0.975666991342));
#1565 = ( GEOMETRIC_REPRESENTATION_CONTEXT(2) 
PARAMETRIC_REPRESENTATION_CONTEXT() REPRESENTATION_CONTEXT('2D SPACE',''
  ) );
#1566 = PCURVE('',#503,#1567);
#1567 = DEFINITIONAL_REPRESENTATION('',(#1568),#1572);
#1568 = LINE('',#1569,#1570);
#1569 = CARTESIAN_POINT('',(-3.107167969988E-03,-8.075826888748));
#1570 = VECTOR('',#1571,1.);
#1571 = DIRECTION('',(0.21918438843,0.975683454748));
#1572 = ( GEOMETRIC_REPRESENTATION_CONTEXT(2) 
PARAMETRIC_REPRESENTATION_CONTEXT() REPRESENTATION_CONTEXT('2D SPACE',''
  ) );
#1573 = ORIENTED_EDGE('',*,*,#1137,.T.);
#1574 = ORIENTED_EDGE('',*,*,#1575,.F.);
#1575 = EDGE_CURVE('',#404,#1080,#1576,.T.);
#1576 = SURFACE_CURVE('',#1577,(#1581,#1588),.PCURVE_S1.);
#1577 = LINE('',#1578,#1579);
#1578 = CARTESIAN_POINT('',(5.804234446842,-41.92168388661,
    7.987879542799));
#1579 = VECTOR('',#1580,1.);
#1580 = DIRECTION('',(2.221409313529E-03,-5.512618019682E-03,
    -0.999982338036));
#1581 = PCURVE('',#1151,#1582);
#1582 = DEFINITIONAL_REPRESENTATION('',(#1583),#1587);
#1583 = LINE('',#1584,#1585);
#1584 = CARTESIAN_POINT('',(0.,0.));
#1585 = VECTOR('',#1586,1.);
#1586 = DIRECTION('',(5.94069829548E-03,-0.999982353896));
#1587 = ( GEOMETRIC_REPRESENTATION_CONTEXT(2) 
PARAMETRIC_REPRESENTATION_CONTEXT() REPRESENTATION_CONTEXT('2D SPACE',''
  ) );
#1588 = PCURVE('',#445,#1589);
#1589 = DEFINITIONAL_REPRESENTATION('',(#1590),#1594);
#1590 = LINE('',#1591,#1592);
#1591 = CARTESIAN_POINT('',(0.,0.));
#1592 = VECTOR('',#1593,1.);
#1593 = DIRECTION('',(6.718355993992E-04,0.999999774318));
#1594 = ( GEOMETRIC_REPRESENTATION_CONTEXT(2) 
PARAMETRIC_REPRESENTATION_CONTEXT() REPRESENTATION_CONTEXT('2D SPACE',''
  ) );
#1595 = ADVANCED_FACE('',(#1596),#503,.T.);
#1596 = FACE_BOUND('',#1597,.T.);
#1597 = EDGE_LOOP('',(#1598,#1619,#1620));
#1598 = ORIENTED_EDGE('',*,*,#1599,.F.);
#1599 = EDGE_CURVE('',#1021,#462,#1600,.T.);
#1600 = SURFACE_CURVE('',#1601,(#1605,#1612),.PCURVE_S1.);
#1601 = LINE('',#1602,#1603);
#1602 = CARTESIAN_POINT('',(5.081592061583,-40.27627717958,
    -8.978665982952E-03));
#1603 = VECTOR('',#1604,1.);
#1604 = DIRECTION('',(5.525579932074E-03,1.842515101426E-03,
    0.999983036408));
#1605 = PCURVE('',#503,#1606);
#1606 = DEFINITIONAL_REPRESENTATION('',(#1607),#1611);
#1607 = LINE('',#1608,#1609);
#1608 = CARTESIAN_POINT('',(-3.107167969988E-03,-8.075826888748));
#1609 = VECTOR('',#1610,1.);
#1610 = DIRECTION('',(3.847491758815E-04,0.999999925984));
#1611 = ( GEOMETRIC_REPRESENTATION_CONTEXT(2) 
PARAMETRIC_REPRESENTATION_CONTEXT() REPRESENTATION_CONTEXT('2D SPACE',''
  ) );
#1612 = PCURVE('',#1036,#1613);
#1613 = DEFINITIONAL_REPRESENTATION('',(#1614),#1618);
#1614 = LINE('',#1615,#1616);
#1615 = CARTESIAN_POINT('',(4.402091788481E-02,8.075707507724));
#1616 = VECTOR('',#1617,1.);
#1617 = DIRECTION('',(-5.450948272292E-03,-0.999985143471));
#1618 = ( GEOMETRIC_REPRESENTATION_CONTEXT(2) 
PARAMETRIC_REPRESENTATION_CONTEXT() REPRESENTATION_CONTEXT('2D SPACE',''
  ) );
#1619 = ORIENTED_EDGE('',*,*,#1553,.T.);
#1620 = ORIENTED_EDGE('',*,*,#489,.F.);
#1621 = ADVANCED_FACE('',(#1622),#1036,.T.);
#1622 = FACE_BOUND('',#1623,.T.);
#1623 = EDGE_LOOP('',(#1624,#1645,#1646));
#1624 = ORIENTED_EDGE('',*,*,#1625,.F.);
#1625 = EDGE_CURVE('',#964,#462,#1626,.T.);
#1626 = SURFACE_CURVE('',#1627,(#1631,#1638),.PCURVE_S1.);
#1627 = LINE('',#1628,#1629);
#1628 = CARTESIAN_POINT('',(1.490712206788,-43.19213579888,
    -1.406543414602E-02));
#1629 = VECTOR('',#1630,1.);
#1630 = DIRECTION('',(0.389531727426,0.314018571861,0.86582756358));
#1631 = PCURVE('',#1036,#1632);
#1632 = DEFINITIONAL_REPRESENTATION('',(#1633),#1637);
#1633 = LINE('',#1634,#1635);
#1634 = CARTESIAN_POINT('',(4.669672182213,8.080794286606));
#1635 = VECTOR('',#1636,1.);
#1636 = DIRECTION('',(-0.500339355776,-0.865829387964));
#1637 = ( GEOMETRIC_REPRESENTATION_CONTEXT(2) 
PARAMETRIC_REPRESENTATION_CONTEXT() REPRESENTATION_CONTEXT('2D SPACE',''
  ) );
#1638 = PCURVE('',#560,#1639);
#1639 = DEFINITIONAL_REPRESENTATION('',(#1640),#1644);
#1640 = LINE('',#1641,#1642);
#1641 = CARTESIAN_POINT('',(2.373535844783E-02,8.023810020161));
#1642 = VECTOR('',#1643,1.);
#1643 = DIRECTION('',(-0.500283291557,-0.865861783537));
#1644 = ( GEOMETRIC_REPRESENTATION_CONTEXT(2) 
PARAMETRIC_REPRESENTATION_CONTEXT() REPRESENTATION_CONTEXT('2D SPACE',''
  ) );
#1645 = ORIENTED_EDGE('',*,*,#1020,.T.);
#1646 = ORIENTED_EDGE('',*,*,#1599,.T.);
#1647 = ADVANCED_FACE('',(#1648),#560,.T.);
#1648 = FACE_BOUND('',#1649,.T.);
#1649 = EDGE_LOOP('',(#1650,#1671,#1672));
#1650 = ORIENTED_EDGE('',*,*,#1651,.T.);
#1651 = EDGE_CURVE('',#346,#964,#1652,.T.);
#1652 = SURFACE_CURVE('',#1653,(#1657,#1664),.PCURVE_S1.);
#1653 = LINE('',#1654,#1655);
#1654 = CARTESIAN_POINT('',(1.465506868423,-43.12130616571,8.00942747486
    ));
#1655 = VECTOR('',#1656,1.);
#1656 = DIRECTION('',(3.141304196358E-03,-8.8273928597E-03,
    -0.999956103708));
#1657 = PCURVE('',#560,#1658);
#1658 = DEFINITIONAL_REPRESENTATION('',(#1659),#1663);
#1659 = LINE('',#1660,#1661);
#1660 = CARTESIAN_POINT('',(0.,0.));
#1661 = VECTOR('',#1662,1.);
#1662 = DIRECTION('',(2.958102764317E-03,0.999995624804));
#1663 = ( GEOMETRIC_REPRESENTATION_CONTEXT(2) 
PARAMETRIC_REPRESENTATION_CONTEXT() REPRESENTATION_CONTEXT('2D SPACE',''
  ) );
#1664 = PCURVE('',#1095,#1665);
#1665 = DEFINITIONAL_REPRESENTATION('',(#1666),#1670);
#1666 = LINE('',#1667,#1668);
#1667 = CARTESIAN_POINT('',(0.,0.));
#1668 = VECTOR('',#1669,1.);
#1669 = DIRECTION('',(6.180179044331E-04,0.999999809027));
#1670 = ( GEOMETRIC_REPRESENTATION_CONTEXT(2) 
PARAMETRIC_REPRESENTATION_CONTEXT() REPRESENTATION_CONTEXT('2D SPACE',''
  ) );
#1671 = ORIENTED_EDGE('',*,*,#1625,.T.);
#1672 = ORIENTED_EDGE('',*,*,#546,.F.);
#1673 = ADVANCED_FACE('',(#1674),#1095,.T.);
#1674 = FACE_BOUND('',#1675,.T.);
#1675 = EDGE_LOOP('',(#1676,#1697,#1698));
#1676 = ORIENTED_EDGE('',*,*,#1677,.T.);
#1677 = EDGE_CURVE('',#346,#1080,#1678,.T.);
#1678 = SURFACE_CURVE('',#1679,(#1683,#1690),.PCURVE_S1.);
#1679 = LINE('',#1680,#1681);
#1680 = CARTESIAN_POINT('',(1.465506868423,-43.12130616571,8.00942747486
    ));
#1681 = VECTOR('',#1682,1.);
#1682 = DIRECTION('',(0.475480711046,0.126146575423,-0.87063490335));
#1683 = PCURVE('',#1095,#1684);
#1684 = DEFINITIONAL_REPRESENTATION('',(#1685),#1689);
#1685 = LINE('',#1686,#1687);
#1686 = CARTESIAN_POINT('',(0.,0.));
#1687 = VECTOR('',#1688,1.);
#1688 = DIRECTION('',(0.491862382176,0.870672956397));
#1689 = ( GEOMETRIC_REPRESENTATION_CONTEXT(2) 
PARAMETRIC_REPRESENTATION_CONTEXT() REPRESENTATION_CONTEXT('2D SPACE',''
  ) );
#1690 = PCURVE('',#445,#1691);
#1691 = DEFINITIONAL_REPRESENTATION('',(#1692),#1696);
#1692 = LINE('',#1693,#1694);
#1693 = CARTESIAN_POINT('',(-4.501516477372,-2.154830778288E-02));
#1694 = VECTOR('',#1695,1.);
#1695 = DIRECTION('',(0.491902867228,0.870650084255));
#1696 = ( GEOMETRIC_REPRESENTATION_CONTEXT(2) 
PARAMETRIC_REPRESENTATION_CONTEXT() REPRESENTATION_CONTEXT('2D SPACE',''
  ) );
#1697 = ORIENTED_EDGE('',*,*,#1079,.F.);
#1698 = ORIENTED_EDGE('',*,*,#1651,.F.);
#1699 = ADVANCED_FACE('',(#1700),#445,.T.);
#1700 = FACE_BOUND('',#1701,.T.);
#1701 = EDGE_LOOP('',(#1702,#1703,#1704));
#1702 = ORIENTED_EDGE('',*,*,#1575,.T.);
#1703 = ORIENTED_EDGE('',*,*,#1677,.F.);
#1704 = ORIENTED_EDGE('',*,*,#431,.T.);
#1705 = ADVANCED_FACE('',(#1706),#946,.T.);
#1706 = FACE_BOUND('',#1707,.T.);
#1707 = EDGE_LOOP('',(#1708,#1729,#1750));
#1708 = ORIENTED_EDGE('',*,*,#1709,.T.);
#1709 = EDGE_CURVE('',#634,#1356,#1710,.T.);
#1710 = SURFACE_CURVE('',#1711,(#1715,#1722),.PCURVE_S1.);
#1711 = LINE('',#1712,#1713);
#1712 = CARTESIAN_POINT('',(-1.675832061898,26.591379208701,
    8.04451459674));
#1713 = VECTOR('',#1714,1.);
#1714 = DIRECTION('',(0.748564926995,-0.453650478316,-0.483582251119));
#1715 = PCURVE('',#946,#1716);
#1716 = DEFINITIONAL_REPRESENTATION('',(#1717),#1721);
#1717 = LINE('',#1718,#1719);
#1718 = CARTESIAN_POINT('',(0.,0.));
#1719 = VECTOR('',#1720,1.);
#1720 = DIRECTION('',(-0.87529540796,0.483588615255));
#1721 = ( GEOMETRIC_REPRESENTATION_CONTEXT(2) 
PARAMETRIC_REPRESENTATION_CONTEXT() REPRESENTATION_CONTEXT('2D SPACE',''
  ) );
#1722 = PCURVE('',#1505,#1723);
#1723 = DEFINITIONAL_REPRESENTATION('',(#1724),#1728);
#1724 = LINE('',#1725,#1726);
#1725 = CARTESIAN_POINT('',(0.,0.));
#1726 = VECTOR('',#1727,1.);
#1727 = DIRECTION('',(0.663056303845,0.748569527787));
#1728 = ( GEOMETRIC_REPRESENTATION_CONTEXT(2) 
PARAMETRIC_REPRESENTATION_CONTEXT() REPRESENTATION_CONTEXT('2D SPACE',''
  ) );
#1729 = ORIENTED_EDGE('',*,*,#1730,.F.);
#1730 = EDGE_CURVE('',#797,#1356,#1731,.T.);
#1731 = SURFACE_CURVE('',#1732,(#1736,#1743),.PCURVE_S1.);
#1732 = LINE('',#1733,#1734);
#1733 = CARTESIAN_POINT('',(10.713672652899,19.035106630255,
    8.011592106868));
#1734 = VECTOR('',#1735,1.);
#1735 = DIRECTION('',(7.415765818704E-03,1.486219502695E-03,
    -0.999971398375));
#1736 = PCURVE('',#946,#1737);
#1737 = DEFINITIONAL_REPRESENTATION('',(#1738),#1742);
#1738 = LINE('',#1739,#1740);
#1739 = CARTESIAN_POINT('',(-14.51196342088,3.29229231451E-02));
#1740 = VECTOR('',#1741,1.);
#1741 = DIRECTION('',(-5.557243843206E-03,0.999984558401));
#1742 = ( GEOMETRIC_REPRESENTATION_CONTEXT(2) 
PARAMETRIC_REPRESENTATION_CONTEXT() REPRESENTATION_CONTEXT('2D SPACE',''
  ) );
#1743 = PCURVE('',#1398,#1744);
#1744 = DEFINITIONAL_REPRESENTATION('',(#1745),#1749);
#1745 = LINE('',#1746,#1747);
#1746 = CARTESIAN_POINT('',(-0.,0.));
#1747 = VECTOR('',#1748,1.);
#1748 = DIRECTION('',(-3.676963367044E-03,-0.999993239947));
#1749 = ( GEOMETRIC_REPRESENTATION_CONTEXT(2) 
PARAMETRIC_REPRESENTATION_CONTEXT() REPRESENTATION_CONTEXT('2D SPACE',''
  ) );
#1750 = ORIENTED_EDGE('',*,*,#932,.F.);
#1751 = ADVANCED_FACE('',(#1752),#1505,.T.);
#1752 = FACE_BOUND('',#1753,.T.);
#1753 = EDGE_LOOP('',(#1754,#1775,#1776));
#1754 = ORIENTED_EDGE('',*,*,#1755,.F.);
#1755 = EDGE_CURVE('',#1193,#634,#1756,.T.);
#1756 = SURFACE_CURVE('',#1757,(#1761,#1768),.PCURVE_S1.);
#1757 = LINE('',#1758,#1759);
#1758 = CARTESIAN_POINT('',(-6.318630379284,19.005198017777,
    4.536940558131E-02));
#1759 = VECTOR('',#1760,1.);
#1760 = DIRECTION('',(0.388125407104,0.634184270307,0.66870694602));
#1761 = PCURVE('',#1505,#1762);
#1762 = DEFINITIONAL_REPRESENTATION('',(#1763),#1767);
#1763 = LINE('',#1764,#1765);
#1764 = CARTESIAN_POINT('',(11.024345961659,-4.642826852718));
#1765 = VECTOR('',#1766,1.);
#1766 = DIRECTION('',(-0.921605564559,0.388127792581));
#1767 = ( GEOMETRIC_REPRESENTATION_CONTEXT(2) 
PARAMETRIC_REPRESENTATION_CONTEXT() REPRESENTATION_CONTEXT('2D SPACE',''
  ) );
#1768 = PCURVE('',#754,#1769);
#1769 = DEFINITIONAL_REPRESENTATION('',(#1770),#1774);
#1770 = LINE('',#1771,#1772);
#1771 = CARTESIAN_POINT('',(17.245484740853,5.554630800124));
#1772 = VECTOR('',#1773,1.);
#1773 = DIRECTION('',(-0.704249804036,0.709952261434));
#1774 = ( GEOMETRIC_REPRESENTATION_CONTEXT(2) 
PARAMETRIC_REPRESENTATION_CONTEXT() REPRESENTATION_CONTEXT('2D SPACE',''
  ) );
#1775 = ORIENTED_EDGE('',*,*,#1491,.T.);
#1776 = ORIENTED_EDGE('',*,*,#1709,.F.);
#1777 = ADVANCED_FACE('',(#1778),#754,.T.);
#1778 = FACE_BOUND('',#1779,.T.);
#1779 = EDGE_LOOP('',(#1780,#1801,#1802));
#1780 = ORIENTED_EDGE('',*,*,#1781,.F.);
#1781 = EDGE_CURVE('',#1193,#739,#1782,.T.);
#1782 = SURFACE_CURVE('',#1783,(#1787,#1794),.PCURVE_S1.);
#1783 = LINE('',#1784,#1785);
#1784 = CARTESIAN_POINT('',(-6.318630379284,19.005198017777,
    4.536940558131E-02));
#1785 = VECTOR('',#1786,1.);
#1786 = DIRECTION('',(0.855006038008,-0.27386220029,0.440413635372));
#1787 = PCURVE('',#754,#1788);
#1788 = DEFINITIONAL_REPRESENTATION('',(#1789),#1793);
#1789 = LINE('',#1790,#1791);
#1790 = CARTESIAN_POINT('',(17.245484740853,5.554630800124));
#1791 = VECTOR('',#1792,1.);
#1792 = DIRECTION('',(-0.951844450408,-0.306581379452));
#1793 = ( GEOMETRIC_REPRESENTATION_CONTEXT(2) 
PARAMETRIC_REPRESENTATION_CONTEXT() REPRESENTATION_CONTEXT('2D SPACE',''
  ) );
#1794 = PCURVE('',#1340,#1795);
#1795 = DEFINITIONAL_REPRESENTATION('',(#1796),#1800);
#1796 = LINE('',#1797,#1798);
#1797 = CARTESIAN_POINT('',(-16.26620193787,7.979432422739));
#1798 = VECTOR('',#1799,1.);
#1799 = DIRECTION('',(0.897794076331,-0.440415481683));
#1800 = ( GEOMETRIC_REPRESENTATION_CONTEXT(2) 
PARAMETRIC_REPRESENTATION_CONTEXT() REPRESENTATION_CONTEXT('2D SPACE',''
  ) );
#1801 = ORIENTED_EDGE('',*,*,#1755,.T.);
#1802 = ORIENTED_EDGE('',*,*,#738,.T.);
#1803 = ADVANCED_FACE('',(#1804),#1340,.T.);
#1804 = FACE_BOUND('',#1805,.T.);
#1805 = EDGE_LOOP('',(#1806,#1827,#1828));
#1806 = ORIENTED_EDGE('',*,*,#1807,.T.);
#1807 = EDGE_CURVE('',#739,#1298,#1808,.T.);
#1808 = SURFACE_CURVE('',#1809,(#1813,#1820),.PCURVE_S1.);
#1809 = LINE('',#1810,#1811);
#1810 = CARTESIAN_POINT('',(9.172339364224,14.043372170939,
    8.024768376937));
#1811 = VECTOR('',#1812,1.);
#1812 = DIRECTION('',(7.093199351358E-04,2.813022377683E-03,
    -0.999995791876));
#1813 = PCURVE('',#1340,#1814);
#1814 = DEFINITIONAL_REPRESENTATION('',(#1815),#1819);
#1815 = LINE('',#1816,#1817);
#1816 = CARTESIAN_POINT('',(0.,0.));
#1817 = VECTOR('',#1818,1.);
#1818 = DIRECTION('',(-1.784541267722E-04,0.999999984077));
#1819 = ( GEOMETRIC_REPRESENTATION_CONTEXT(2) 
PARAMETRIC_REPRESENTATION_CONTEXT() REPRESENTATION_CONTEXT('2D SPACE',''
  ) );
#1820 = PCURVE('',#812,#1821);
#1821 = DEFINITIONAL_REPRESENTATION('',(#1822),#1826);
#1822 = LINE('',#1823,#1824);
#1823 = CARTESIAN_POINT('',(5.224281885494,1.317627022162E-02));
#1824 = VECTOR('',#1825,1.);
#1825 = DIRECTION('',(-2.897079290974E-03,-0.999995803457));
#1826 = ( GEOMETRIC_REPRESENTATION_CONTEXT(2) 
PARAMETRIC_REPRESENTATION_CONTEXT() REPRESENTATION_CONTEXT('2D SPACE',''
  ) );
#1827 = ORIENTED_EDGE('',*,*,#1326,.F.);
#1828 = ORIENTED_EDGE('',*,*,#1781,.T.);
#1829 = ADVANCED_FACE('',(#1830),#812,.T.);
#1830 = FACE_BOUND('',#1831,.T.);
#1831 = EDGE_LOOP('',(#1832,#1853,#1854));
#1832 = ORIENTED_EDGE('',*,*,#1833,.F.);
#1833 = EDGE_CURVE('',#1298,#797,#1834,.T.);
#1834 = SURFACE_CURVE('',#1835,(#1839,#1846),.PCURVE_S1.);
#1835 = LINE('',#1836,#1837);
#1836 = CARTESIAN_POINT('',(9.178028765969,14.065935211439,
    3.877490674503E-03));
#1837 = VECTOR('',#1838,1.);
#1838 = DIRECTION('',(0.160825219666,0.520412376719,0.838633535507));
#1839 = PCURVE('',#812,#1840);
#1840 = DEFINITIONAL_REPRESENTATION('',(#1841),#1845);
#1841 = LINE('',#1842,#1843);
#1842 = CARTESIAN_POINT('',(5.201044630827,-8.007714708928));
#1843 = VECTOR('',#1844,1.);
#1844 = DIRECTION('',(-0.544696040773,0.838633545219));
#1845 = ( GEOMETRIC_REPRESENTATION_CONTEXT(2) 
PARAMETRIC_REPRESENTATION_CONTEXT() REPRESENTATION_CONTEXT('2D SPACE',''
  ) );
#1846 = PCURVE('',#1398,#1847);
#1847 = DEFINITIONAL_REPRESENTATION('',(#1848),#1852);
#1848 = LINE('',#1849,#1850);
#1849 = CARTESIAN_POINT('',(5.200775472038,-8.00788952227));
#1850 = VECTOR('',#1851,1.);
#1851 = DIRECTION('',(-0.544667852257,0.838651853105));
#1852 = ( GEOMETRIC_REPRESENTATION_CONTEXT(2) 
PARAMETRIC_REPRESENTATION_CONTEXT() REPRESENTATION_CONTEXT('2D SPACE',''
  ) );
#1853 = ORIENTED_EDGE('',*,*,#1807,.F.);
#1854 = ORIENTED_EDGE('',*,*,#796,.T.);
#1855 = ADVANCED_FACE('',(#1856),#1398,.T.);
#1856 = FACE_BOUND('',#1857,.T.);
#1857 = EDGE_LOOP('',(#1858,#1859,#1860));
#1858 = ORIENTED_EDGE('',*,*,#1730,.T.);
#1859 = ORIENTED_EDGE('',*,*,#1384,.F.);
#1860 = ORIENTED_EDGE('',*,*,#1833,.T.);
#1861 = ( GEOMETRIC_REPRESENTATION_CONTEXT(3) 
GLOBAL_UNCERTAINTY_ASSIGNED_CONTEXT((#1865)) 
GLOBAL_UNIT_ASSIGNED_CONTEXT((#1862,#1863,#1864)) REPRESENTATION_CONTEXT
('Context #1','3D Context with UNIT and UNCERTAINTY') );
#1862 = ( LENGTH_UNIT() NAMED_UNIT(*) SI_UNIT(.MILLI.,.METRE.) );
#1863 = ( NAMED_UNIT(*) PLANE_ANGLE_UNIT() SI_UNIT($,.RADIAN.) );
#1864 = ( NAMED_UNIT(*) SI_UNIT($,.STERADIAN.) SOLID_ANGLE_UNIT() );
#1865 = UNCERTAINTY_MEASURE_WITH_UNIT(LENGTH_MEASURE(1.E-07),#1862,
  'distance_accuracy_value','confusion accuracy');
#1866 = PRODUCT_TYPE('part',$,(#7));
ENDSEC;
END-ISO-10303-21;
