ISO-10303-21;
HEADER;
FILE_DESCRIPTION(('Open CASCADE Model'),'2;1');
FILE_NAME('Open CASCADE Shape Model','2026-10-04T20:44:43',('Author'),(
    'Open CASCADE'),'Open CASCADE STEP processor 7.8','Open CASCADE 7.8'
  ,'Unknown');
FILE_SCHEMA(('AUTOMOTIVE_DESIGN_CC2 { 1 2 10303 214 -1 1 5 4 }'));
ENDSEC;
DATA;
#1 = APPLICATION_PROTOCOL_DEFINITION('committee draft',
  'automotive_design',1997,#2);
#2 = APPLICATION_CONTEXT(
  'core data for automotive mechanical design processes');
#3 = SHAPE_DEFINITION_REPRESENTATION(#4,#10);
#4 = PRODUCT_DEFINITION_SHAPE('','',#5);
#5 = PRODUCT_DEFINITION('design','',#6,#9);
#6 = PRODUCT_DEFINITION_FORMATION('','',#7);
#7 = PRODUCT('Open CASCADE STEP translator 7.8 122',
  'Open CASCADE STEP translator 7.8 122','',(#8));
#8 = MECHANICAL_CONTEXT('',#2,'mechanical');
#9 = PRODUCT_DEFINITION_CONTEXT('part definition',#2,'design');
#10 = ADVANCED_BREP_SHAPE_REPRESENTATION('',(#11,#15),#861);
#11 = AXIS2_PLACEMENT_3D('',#12,#13,#14);
#12 = CARTESIAN_POINT('',(0.,0.,0.));
#13 = DIRECTION('',(0.,0.,1.));
#14 = DIRECTION('',(1.,0.,-0.));
#15 = MANIFOLD_SOLID_BREP('',#16);
#16 = CLOSED_SHELL('',(#17,#109,#167,#220,#278,#336,#394,#425,#473,#504,
    #562,#588,#619,#672,#703,#751,#777,#803,#829,#855));
#17 = ADVANCED_FACE('',(#18),#32,.T.);
#18 = FACE_BOUND('',#19,.T.);
#19 = EDGE_LOOP('',(#20,#55,#83));
#20 = ORIENTED_EDGE('',*,*,#21,.F.);
#21 = EDGE_CURVE('',#22,#24,#26,.T.);
#22 = VERTEX_POINT('',#23);
#23 = CARTESIAN_POINT('',(-33.73082334637,28.814396602347,
    5.975134985315E-04));
#24 = VERTEX_POINT('',#25);
#25 = CARTESIAN_POINT('',(-33.72769954164,-28.81062648226,
    19.943658245164));
#26 = SURFACE_CURVE('',#27,(#31,#43),.PCURVE_S1.);
#27 = LINE('',#28,#29);
#28 = CARTESIAN_POINT('',(-33.73082334637,28.814396602347,
    5.975134985315E-04));
#29 = VECTOR('',#30,1.);
#30 = DIRECTION('',(5.122802796423E-05,-0.945006664886,0.327051067415));
#31 = PCURVE('',#32,#37);
#32 = PLANE('',#33);
#33 = AXIS2_PLACEMENT_3D('',#34,#35,#36);
#34 = CARTESIAN_POINT('',(-33.72769954164,-28.81062648226,
    19.943658245164));
#35 = DIRECTION('',(-0.999999771999,1.718037309263E-04,
    6.530591346171E-04));
#36 = DIRECTION('',(-6.530591442551E-04,8.960252565868E-24,
    -0.999999786757));
#37 = DEFINITIONAL_REPRESENTATION('',(#38),#42);
#38 = LINE('',#39,#40);
#39 = CARTESIAN_POINT('',(19.943058518974,-57.62502393505));
#40 = VECTOR('',#41,1.);
#41 = DIRECTION('',(-0.327051031129,0.945006678832));
#42 = ( GEOMETRIC_REPRESENTATION_CONTEXT(2) 
PARAMETRIC_REPRESENTATION_CONTEXT() REPRESENTATION_CONTEXT('2D SPACE',''
  ) );
#43 = PCURVE('',#44,#49);
#44 = PLANE('',#45);
#45 = AXIS2_PLACEMENT_3D('',#46,#47,#48);
#46 = CARTESIAN_POINT('',(-33.72769954164,-28.81062648226,
    19.943658245164));
#47 = DIRECTION('',(-0.999999994944,-2.011161119022E-05,
    9.852412757299E-05));
#48 = DIRECTION('',(-9.852412759292E-05,1.334699977517E-25,
    -0.999999995146));
#49 = DEFINITIONAL_REPRESENTATION('',(#50),#54);
#50 = LINE('',#51,#52);
#51 = CARTESIAN_POINT('',(19.943060942642,-57.62502309626));
#52 = VECTOR('',#53,1.);
#53 = DIRECTION('',(-0.327051070875,0.945006665077));
#54 = ( GEOMETRIC_REPRESENTATION_CONTEXT(2) 
PARAMETRIC_REPRESENTATION_CONTEXT() REPRESENTATION_CONTEXT('2D SPACE',''
  ) );
#55 = ORIENTED_EDGE('',*,*,#56,.F.);
#56 = EDGE_CURVE('',#57,#22,#59,.T.);
#57 = VERTEX_POINT('',#58);
#58 = CARTESIAN_POINT('',(-33.74074809145,-28.82591136833,
    -3.29719601678E-02));
#59 = SURFACE_CURVE('',#60,(#64,#71),.PCURVE_S1.);
#60 = LINE('',#61,#62);
#61 = CARTESIAN_POINT('',(-33.74074809145,-28.82591136833,
    -3.29719601678E-02));
#62 = VECTOR('',#63,1.);
#63 = DIRECTION('',(1.721840773326E-04,0.999999815584,5.823956994238E-04
    ));
#64 = PCURVE('',#32,#65);
#65 = DEFINITIONAL_REPRESENTATION('',(#66),#70);
#66 = LINE('',#67,#68);
#67 = CARTESIAN_POINT('',(19.976634466928,1.528488629288E-02));
#68 = VECTOR('',#69,1.);
#69 = DIRECTION('',(-5.825080216181E-04,-0.999999830342));
#70 = ( GEOMETRIC_REPRESENTATION_CONTEXT(2) 
PARAMETRIC_REPRESENTATION_CONTEXT() REPRESENTATION_CONTEXT('2D SPACE',''
  ) );
#71 = PCURVE('',#72,#77);
#72 = PLANE('',#73);
#73 = AXIS2_PLACEMENT_3D('',#74,#75,#76);
#74 = CARTESIAN_POINT('',(33.73134495808,-28.81530763372,
    -2.333573525846E-03));
#75 = DIRECTION('',(4.539981222658E-04,5.823174768013E-04,
    -0.999999727396));
#76 = DIRECTION('',(2.29501296843E-23,-0.999999830453,
    -5.823175368133E-04));
#77 = DEFINITIONAL_REPRESENTATION('',(#78),#82);
#78 = LINE('',#79,#80);
#79 = CARTESIAN_POINT('',(1.06215740774E-02,67.472100003015));
#80 = VECTOR('',#81,1.);
#81 = DIRECTION('',(-0.999999985176,-1.721840950774E-04));
#82 = ( GEOMETRIC_REPRESENTATION_CONTEXT(2) 
PARAMETRIC_REPRESENTATION_CONTEXT() REPRESENTATION_CONTEXT('2D SPACE',''
  ) );
#83 = ORIENTED_EDGE('',*,*,#84,.T.);
#84 = EDGE_CURVE('',#57,#24,#85,.T.);
#85 = SURFACE_CURVE('',#86,(#90,#97),.PCURVE_S1.);
#86 = LINE('',#87,#88);
#87 = CARTESIAN_POINT('',(-33.74074809145,-28.82591136833,
    -3.29719601678E-02));
#88 = VECTOR('',#89,1.);
#89 = DIRECTION('',(6.531904066252E-04,7.651379724872E-04,0.999999493953
    ));
#90 = PCURVE('',#32,#91);
#91 = DEFINITIONAL_REPRESENTATION('',(#92),#96);
#92 = LINE('',#93,#94);
#93 = CARTESIAN_POINT('',(19.976634466928,1.528488629288E-02));
#94 = VECTOR('',#95,1.);
#95 = DIRECTION('',(-0.999999707282,-7.651379837793E-04));
#96 = ( GEOMETRIC_REPRESENTATION_CONTEXT(2) 
PARAMETRIC_REPRESENTATION_CONTEXT() REPRESENTATION_CONTEXT('2D SPACE',''
  ) );
#97 = PCURVE('',#98,#103);
#98 = PLANE('',#99);
#99 = AXIS2_PLACEMENT_3D('',#100,#101,#102);
#100 = CARTESIAN_POINT('',(33.73134495808,-28.81530763372,
    -2.333573525846E-03));
#101 = DIRECTION('',(1.568098962724E-04,-0.999999695065,
    7.650356995944E-04));
#102 = DIRECTION('',(1.213823574299E-23,-7.650357090002E-04,
    -0.99999970736));
#103 = DEFINITIONAL_REPRESENTATION('',(#104),#108);
#104 = LINE('',#105,#106);
#105 = CARTESIAN_POINT('',(3.064648991156E-02,-67.47209387907));
#106 = VECTOR('',#107,1.);
#107 = DIRECTION('',(-0.999999786671,6.531904146559E-04));
#108 = ( GEOMETRIC_REPRESENTATION_CONTEXT(2) 
PARAMETRIC_REPRESENTATION_CONTEXT() REPRESENTATION_CONTEXT('2D SPACE',''
  ) );
#109 = ADVANCED_FACE('',(#110),#44,.T.);
#110 = FACE_BOUND('',#111,.T.);
#111 = EDGE_LOOP('',(#112,#140,#166));
#112 = ORIENTED_EDGE('',*,*,#113,.F.);
#113 = EDGE_CURVE('',#114,#24,#116,.T.);
#114 = VERTEX_POINT('',#115);
#115 = CARTESIAN_POINT('',(-33.72885837793,28.80956003686,
    19.943643031064));
#116 = SURFACE_CURVE('',#117,(#121,#128),.PCURVE_S1.);
#117 = LINE('',#118,#119);
#118 = CARTESIAN_POINT('',(-33.72885837793,28.80956003686,
    19.943643031064));
#119 = VECTOR('',#120,1.);
#120 = DIRECTION('',(2.011163730225E-05,-0.999999999798,
    2.640411601252E-07));
#121 = PCURVE('',#44,#122);
#122 = DEFINITIONAL_REPRESENTATION('',(#123),#127);
#123 = LINE('',#124,#125);
#124 = CARTESIAN_POINT('',(1.532827415915E-05,-57.62018653077));
#125 = VECTOR('',#126,1.);
#126 = DIRECTION('',(-2.660226403634E-07,1.));
#127 = ( GEOMETRIC_REPRESENTATION_CONTEXT(2) 
PARAMETRIC_REPRESENTATION_CONTEXT() REPRESENTATION_CONTEXT('2D SPACE',''
  ) );
#128 = PCURVE('',#129,#134);
#129 = PLANE('',#130);
#130 = AXIS2_PLACEMENT_3D('',#131,#132,#133);
#131 = CARTESIAN_POINT('',(-28.74768576474,23.829966525607,
    24.949169580932));
#132 = DIRECTION('',(-0.708836048615,-1.40696059417E-05,0.705373274222)
  );
#133 = DIRECTION('',(-0.705373274292,-1.84982769599E-22,-0.708836048685)
  );
#134 = DEFINITIONAL_REPRESENTATION('',(#135),#139);
#135 = LINE('',#136,#137);
#136 = CARTESIAN_POINT('',(7.061683697175,-4.979593511746));
#137 = VECTOR('',#138,1.);
#138 = DIRECTION('',(-1.437337334789E-05,0.999999999897));
#139 = ( GEOMETRIC_REPRESENTATION_CONTEXT(2) 
PARAMETRIC_REPRESENTATION_CONTEXT() REPRESENTATION_CONTEXT('2D SPACE',''
  ) );
#140 = ORIENTED_EDGE('',*,*,#141,.F.);
#141 = EDGE_CURVE('',#22,#114,#142,.T.);
#142 = SURFACE_CURVE('',#143,(#147,#154),.PCURVE_S1.);
#143 = LINE('',#144,#145);
#144 = CARTESIAN_POINT('',(-33.73082334637,28.814396602347,
    5.975134985315E-04));
#145 = VECTOR('',#146,1.);
#146 = DIRECTION('',(9.852900214121E-05,-2.42518892934E-04,
    0.999999965738));
#147 = PCURVE('',#44,#148);
#148 = DEFINITIONAL_REPRESENTATION('',(#149),#153);
#149 = LINE('',#150,#151);
#150 = CARTESIAN_POINT('',(19.943060942642,-57.62502309626));
#151 = VECTOR('',#152,1.);
#152 = DIRECTION('',(-0.999999970592,2.42518892983E-04));
#153 = ( GEOMETRIC_REPRESENTATION_CONTEXT(2) 
PARAMETRIC_REPRESENTATION_CONTEXT() REPRESENTATION_CONTEXT('2D SPACE',''
  ) );
#154 = PCURVE('',#155,#160);
#155 = PLANE('',#156);
#156 = AXIS2_PLACEMENT_3D('',#157,#158,#159);
#157 = CARTESIAN_POINT('',(33.71319021015,28.793651398726,
    3.01199308811E-02));
#158 = DIRECTION('',(3.074853065186E-04,0.999999923326,
    2.424885864267E-04));
#159 = DIRECTION('',(0.999999952726,-3.074853155587E-04,
    6.670685137947E-24));
#160 = DEFINITIONAL_REPRESENTATION('',(#161),#165);
#161 = LINE('',#162,#163);
#162 = CARTESIAN_POINT('',(-67.44401674705,2.952241825054E-02));
#163 = VECTOR('',#164,1.);
#164 = DIRECTION('',(9.860356848171E-05,-0.999999995139));
#165 = ( GEOMETRIC_REPRESENTATION_CONTEXT(2) 
PARAMETRIC_REPRESENTATION_CONTEXT() REPRESENTATION_CONTEXT('2D SPACE',''
  ) );
#166 = ORIENTED_EDGE('',*,*,#21,.T.);
#167 = ADVANCED_FACE('',(#168),#98,.T.);
#168 = FACE_BOUND('',#169,.T.);
#169 = EDGE_LOOP('',(#170,#198,#199));
#170 = ORIENTED_EDGE('',*,*,#171,.F.);
#171 = EDGE_CURVE('',#24,#172,#174,.T.);
#172 = VERTEX_POINT('',#173);
#173 = CARTESIAN_POINT('',(33.73134495808,-28.81530763372,
    -2.333573525846E-03));
#174 = SURFACE_CURVE('',#175,(#179,#186),.PCURVE_S1.);
#175 = LINE('',#176,#177);
#176 = CARTESIAN_POINT('',(-33.72769954164,-28.81062648226,
    19.943658245164));
#177 = VECTOR('',#178,1.);
#178 = DIRECTION('',(0.958960089612,-6.654463398796E-05,-0.28354107657)
  );
#179 = PCURVE('',#98,#180);
#180 = DEFINITIONAL_REPRESENTATION('',(#181),#185);
#181 = LINE('',#182,#183);
#182 = CARTESIAN_POINT('',(-19.94598956294,-67.4590453291));
#183 = VECTOR('',#184,1.);
#184 = DIRECTION('',(0.283541044504,0.958960101402));
#185 = ( GEOMETRIC_REPRESENTATION_CONTEXT(2) 
PARAMETRIC_REPRESENTATION_CONTEXT() REPRESENTATION_CONTEXT('2D SPACE',''
  ) );
#186 = PCURVE('',#187,#192);
#187 = PLANE('',#188);
#188 = AXIS2_PLACEMENT_3D('',#189,#190,#191);
#189 = CARTESIAN_POINT('',(33.701259051299,-28.79678572582,
    19.935928277573));
#190 = DIRECTION('',(2.053707146524E-04,-0.999999547138,
    9.292724918955E-04));
#191 = DIRECTION('',(-5.898370255982E-24,-9.292725114925E-04,
    -0.999999568226));
#192 = DEFINITIONAL_REPRESENTATION('',(#193),#197);
#193 = LINE('',#194,#195);
#194 = CARTESIAN_POINT('',(-7.717102419132E-03,-67.42896001492));
#195 = VECTOR('',#196,1.);
#196 = DIRECTION('',(0.283541015983,0.958960109835));
#197 = ( GEOMETRIC_REPRESENTATION_CONTEXT(2) 
PARAMETRIC_REPRESENTATION_CONTEXT() REPRESENTATION_CONTEXT('2D SPACE',''
  ) );
#198 = ORIENTED_EDGE('',*,*,#84,.F.);
#199 = ORIENTED_EDGE('',*,*,#200,.T.);
#200 = EDGE_CURVE('',#57,#172,#201,.T.);
#201 = SURFACE_CURVE('',#202,(#206,#213),.PCURVE_S1.);
#202 = LINE('',#203,#204);
#203 = CARTESIAN_POINT('',(-33.74074809145,-28.82591136833,
    -3.29719601678E-02));
#204 = VECTOR('',#205,1.);
#205 = DIRECTION('',(0.999999884552,1.5715732093E-04,4.540897090939E-04)
  );
#206 = PCURVE('',#98,#207);
#207 = DEFINITIONAL_REPRESENTATION('',(#208),#212);
#208 = LINE('',#209,#210);
#209 = CARTESIAN_POINT('',(3.064648991156E-02,-67.47209387907));
#210 = VECTOR('',#211,1.);
#211 = DIRECTION('',(-4.542098071716E-04,0.999999896847));
#212 = ( GEOMETRIC_REPRESENTATION_CONTEXT(2) 
PARAMETRIC_REPRESENTATION_CONTEXT() REPRESENTATION_CONTEXT('2D SPACE',''
  ) );
#213 = PCURVE('',#72,#214);
#214 = DEFINITIONAL_REPRESENTATION('',(#215),#219);
#215 = LINE('',#216,#217);
#216 = CARTESIAN_POINT('',(1.06215740774E-02,67.472100003015));
#217 = VECTOR('',#218,1.);
#218 = DIRECTION('',(-1.574217186854E-04,-0.999999987609));
#219 = ( GEOMETRIC_REPRESENTATION_CONTEXT(2) 
PARAMETRIC_REPRESENTATION_CONTEXT() REPRESENTATION_CONTEXT('2D SPACE',''
  ) );
#220 = ADVANCED_FACE('',(#221),#187,.T.);
#221 = FACE_BOUND('',#222,.T.);
#222 = EDGE_LOOP('',(#223,#251,#252));
#223 = ORIENTED_EDGE('',*,*,#224,.F.);
#224 = EDGE_CURVE('',#24,#225,#227,.T.);
#225 = VERTEX_POINT('',#226);
#226 = CARTESIAN_POINT('',(33.701259051299,-28.79678572582,
    19.935928277573));
#227 = SURFACE_CURVE('',#228,(#232,#239),.PCURVE_S1.);
#228 = LINE('',#229,#230);
#229 = CARTESIAN_POINT('',(-33.72769954164,-28.81062648226,
    19.943658245164));
#230 = VECTOR('',#231,1.);
#231 = DIRECTION('',(0.999999972362,2.052642713532E-04,
    -1.14638688464E-04));
#232 = PCURVE('',#187,#233);
#233 = DEFINITIONAL_REPRESENTATION('',(#234),#238);
#234 = LINE('',#235,#236);
#235 = CARTESIAN_POINT('',(-7.717102419132E-03,-67.42896001492));
#236 = VECTOR('',#237,1.);
#237 = DIRECTION('',(1.14447892521E-04,0.999999993451));
#238 = ( GEOMETRIC_REPRESENTATION_CONTEXT(2) 
PARAMETRIC_REPRESENTATION_CONTEXT() REPRESENTATION_CONTEXT('2D SPACE',''
  ) );
#239 = PCURVE('',#240,#245);
#240 = PLANE('',#241);
#241 = AXIS2_PLACEMENT_3D('',#242,#243,#244);
#242 = CARTESIAN_POINT('',(28.744934121439,-23.82832727284,
    24.93000179572));
#243 = DIRECTION('',(2.263594523345E-04,-0.708810158607,0.705399254193)
  );
#244 = DIRECTION('',(6.72151743013E-21,-0.705399272265,-0.708810176766)
  );
#245 = DEFINITIONAL_REPRESENTATION('',(#246),#250);
#246 = LINE('',#247,#248);
#247 = CARTESIAN_POINT('',(7.048881290017,-62.47263526358));
#248 = VECTOR('',#249,1.);
#249 = DIRECTION('',(-6.353619860018E-05,0.999999997982));
#250 = ( GEOMETRIC_REPRESENTATION_CONTEXT(2) 
PARAMETRIC_REPRESENTATION_CONTEXT() REPRESENTATION_CONTEXT('2D SPACE',''
  ) );
#251 = ORIENTED_EDGE('',*,*,#171,.T.);
#252 = ORIENTED_EDGE('',*,*,#253,.F.);
#253 = EDGE_CURVE('',#225,#172,#254,.T.);
#254 = SURFACE_CURVE('',#255,(#259,#266),.PCURVE_S1.);
#255 = LINE('',#256,#257);
#256 = CARTESIAN_POINT('',(33.701259051299,-28.79678572582,
    19.935928277573));
#257 = VECTOR('',#258,1.);
#258 = DIRECTION('',(1.508950969344E-03,-9.289615593345E-04,
    -0.999998430047));
#259 = PCURVE('',#187,#260);
#260 = DEFINITIONAL_REPRESENTATION('',(#261),#265);
#261 = LINE('',#262,#263);
#262 = CARTESIAN_POINT('',(-0.,0.));
#263 = VECTOR('',#264,1.);
#264 = DIRECTION('',(0.999998861533,1.508951001165E-03));
#265 = ( GEOMETRIC_REPRESENTATION_CONTEXT(2) 
PARAMETRIC_REPRESENTATION_CONTEXT() REPRESENTATION_CONTEXT('2D SPACE',''
  ) );
#266 = PCURVE('',#267,#272);
#267 = PLANE('',#268);
#268 = AXIS2_PLACEMENT_3D('',#269,#270,#271);
#269 = CARTESIAN_POINT('',(33.701259051299,-28.79678572582,
    19.935928277573));
#270 = DIRECTION('',(0.999998812584,3.142873154811E-04,
    1.508659585281E-03));
#271 = DIRECTION('',(-1.508659659791E-03,-1.313584146749E-23,
    0.999998861972));
#272 = DEFINITIONAL_REPRESENTATION('',(#273),#277);
#273 = LINE('',#274,#275);
#274 = CARTESIAN_POINT('',(0.,0.));
#275 = VECTOR('',#276,1.);
#276 = DIRECTION('',(-0.999999568515,9.289616052143E-04));
#277 = ( GEOMETRIC_REPRESENTATION_CONTEXT(2) 
PARAMETRIC_REPRESENTATION_CONTEXT() REPRESENTATION_CONTEXT('2D SPACE',''
  ) );
#278 = ADVANCED_FACE('',(#279),#129,.T.);
#279 = FACE_BOUND('',#280,.T.);
#280 = EDGE_LOOP('',(#281,#309,#310));
#281 = ORIENTED_EDGE('',*,*,#282,.F.);
#282 = EDGE_CURVE('',#114,#283,#285,.T.);
#283 = VERTEX_POINT('',#284);
#284 = CARTESIAN_POINT('',(-28.74768576474,23.829966525607,
    24.949169580932));
#285 = SURFACE_CURVE('',#286,(#290,#297),.PCURVE_S1.);
#286 = LINE('',#287,#288);
#287 = CARTESIAN_POINT('',(-33.72885837793,28.80956003686,
    19.943643031064));
#288 = VECTOR('',#289,1.);
#289 = DIRECTION('',(0.576470059236,-0.5762873101,0.579288535207));
#290 = PCURVE('',#129,#291);
#291 = DEFINITIONAL_REPRESENTATION('',(#292),#296);
#292 = LINE('',#293,#294);
#293 = CARTESIAN_POINT('',(7.061683697175,-4.979593511746));
#294 = VECTOR('',#295,1.);
#295 = DIRECTION('',(-0.817247169559,0.576287310157));
#296 = ( GEOMETRIC_REPRESENTATION_CONTEXT(2) 
PARAMETRIC_REPRESENTATION_CONTEXT() REPRESENTATION_CONTEXT('2D SPACE',''
  ) );
#297 = PCURVE('',#298,#303);
#298 = PLANE('',#299);
#299 = AXIS2_PLACEMENT_3D('',#300,#301,#302);
#300 = CARTESIAN_POINT('',(28.744485867178,23.827889834125,
    24.924509074027));
#301 = DIRECTION('',(3.28058702432E-04,0.70910403754,0.70510379117));
#302 = DIRECTION('',(-3.892220065461E-21,-0.705103829112,0.709104075698)
  );
#303 = DEFINITIONAL_REPRESENTATION('',(#304),#308);
#304 = LINE('',#305,#306);
#305 = CARTESIAN_POINT('',(-7.044547146893,-62.47334760688));
#306 = VECTOR('',#307,1.);
#307 = DIRECTION('',(0.817118250341,0.576470090256));
#308 = ( GEOMETRIC_REPRESENTATION_CONTEXT(2) 
PARAMETRIC_REPRESENTATION_CONTEXT() REPRESENTATION_CONTEXT('2D SPACE',''
  ) );
#309 = ORIENTED_EDGE('',*,*,#113,.T.);
#310 = ORIENTED_EDGE('',*,*,#311,.T.);
#311 = EDGE_CURVE('',#24,#283,#312,.T.);
#312 = SURFACE_CURVE('',#313,(#317,#324),.PCURVE_S1.);
#313 = LINE('',#314,#315);
#314 = CARTESIAN_POINT('',(-33.72769954164,-28.81062648226,
    19.943658245164));
#315 = VECTOR('',#316,1.);
#316 = DIRECTION('',(9.376432782538E-02,0.991123727932,9.42443990813E-02
    ));
#317 = PCURVE('',#129,#318);
#318 = DEFINITIONAL_REPRESENTATION('',(#319),#323);
#319 = LINE('',#320,#321);
#320 = CARTESIAN_POINT('',(7.060855500721,52.640593013081));
#321 = VECTOR('',#322,1.);
#322 = DIRECTION('',(-0.132942678385,-0.99112372803));
#323 = ( GEOMETRIC_REPRESENTATION_CONTEXT(2) 
PARAMETRIC_REPRESENTATION_CONTEXT() REPRESENTATION_CONTEXT('2D SPACE',''
  ) );
#324 = PCURVE('',#325,#330);
#325 = PLANE('',#326);
#326 = AXIS2_PLACEMENT_3D('',#327,#328,#329);
#327 = CARTESIAN_POINT('',(-28.74768576474,23.829966525607,
    24.949169580932));
#328 = DIRECTION('',(-0.707042235032,-3.547366796804E-04,0.707171232477)
  );
#329 = DIRECTION('',(0.707171276971,1.612723649899E-21,0.707042279519));
#330 = DEFINITIONAL_REPRESENTATION('',(#331),#335);
#331 = LINE('',#332,#333);
#332 = CARTESIAN_POINT('',(-7.060830846942,-52.64059631996));
#333 = VECTOR('',#334,1.);
#334 = DIRECTION('',(0.132942214201,0.991123790292));
#335 = ( GEOMETRIC_REPRESENTATION_CONTEXT(2) 
PARAMETRIC_REPRESENTATION_CONTEXT() REPRESENTATION_CONTEXT('2D SPACE',''
  ) );
#336 = ADVANCED_FACE('',(#337),#325,.T.);
#337 = FACE_BOUND('',#338,.T.);
#338 = EDGE_LOOP('',(#339,#340,#368));
#339 = ORIENTED_EDGE('',*,*,#311,.F.);
#340 = ORIENTED_EDGE('',*,*,#341,.T.);
#341 = EDGE_CURVE('',#24,#342,#344,.T.);
#342 = VERTEX_POINT('',#343);
#343 = CARTESIAN_POINT('',(-28.74488381185,-23.82835983892,
    24.928064286008));
#344 = SURFACE_CURVE('',#345,(#349,#356),.PCURVE_S1.);
#345 = LINE('',#346,#347);
#346 = CARTESIAN_POINT('',(-33.72769954164,-28.81062648226,
    19.943658245164));
#347 = VECTOR('',#348,1.);
#348 = DIRECTION('',(0.577310047456,0.577246430188,0.57749430122));
#349 = PCURVE('',#325,#350);
#350 = DEFINITIONAL_REPRESENTATION('',(#351),#355);
#351 = LINE('',#352,#353);
#352 = CARTESIAN_POINT('',(-7.060830846942,-52.64059631996));
#353 = VECTOR('',#354,1.);
#354 = DIRECTION('',(0.816569970611,0.577246466508));
#355 = ( GEOMETRIC_REPRESENTATION_CONTEXT(2) 
PARAMETRIC_REPRESENTATION_CONTEXT() REPRESENTATION_CONTEXT('2D SPACE',''
  ) );
#356 = PCURVE('',#357,#362);
#357 = PLANE('',#358);
#358 = AXIS2_PLACEMENT_3D('',#359,#360,#361);
#359 = CARTESIAN_POINT('',(28.744934121439,-23.82832727284,
    24.93000179572));
#360 = DIRECTION('',(-2.342541043738E-05,-0.707246839738,0.706966694499)
  );
#361 = DIRECTION('',(-1.193825572798E-21,-0.706966694693,-0.707246839932
    ));
#362 = DEFINITIONAL_REPRESENTATION('',(#363),#367);
#363 = LINE('',#364,#365);
#364 = CARTESIAN_POINT('',(7.048895323002,-62.47263368022));
#365 = VECTOR('',#366,1.);
#366 = DIRECTION('',(-0.81652502039,0.577310047614));
#367 = ( GEOMETRIC_REPRESENTATION_CONTEXT(2) 
PARAMETRIC_REPRESENTATION_CONTEXT() REPRESENTATION_CONTEXT('2D SPACE',''
  ) );
#368 = ORIENTED_EDGE('',*,*,#369,.F.);
#369 = EDGE_CURVE('',#283,#342,#370,.T.);
#370 = SURFACE_CURVE('',#371,(#375,#382),.PCURVE_S1.);
#371 = LINE('',#372,#373);
#372 = CARTESIAN_POINT('',(-28.74768576474,23.829966525607,
    24.949169580932));
#373 = VECTOR('',#374,1.);
#374 = DIRECTION('',(5.879250951834E-05,-0.999999900215,
    -4.428458661326E-04));
#375 = PCURVE('',#325,#376);
#376 = DEFINITIONAL_REPRESENTATION('',(#377),#381);
#377 = LINE('',#378,#379);
#378 = CARTESIAN_POINT('',(0.,0.));
#379 = VECTOR('',#380,1.);
#380 = DIRECTION('',(-2.715343766334E-04,-0.999999963135));
#381 = ( GEOMETRIC_REPRESENTATION_CONTEXT(2) 
PARAMETRIC_REPRESENTATION_CONTEXT() REPRESENTATION_CONTEXT('2D SPACE',''
  ) );
#382 = PCURVE('',#383,#388);
#383 = PLANE('',#384);
#384 = AXIS2_PLACEMENT_3D('',#385,#386,#387);
#385 = CARTESIAN_POINT('',(28.744485867178,23.827889834125,
    24.924509074027));
#386 = DIRECTION('',(4.28920702017E-04,-4.428206088401E-04,
    0.999999809968));
#387 = DIRECTION('',(1.648050715633E-23,0.999999901955,
    4.428206495736E-04));
#388 = DEFINITIONAL_REPRESENTATION('',(#389),#393);
#389 = LINE('',#390,#391);
#390 = CARTESIAN_POINT('',(2.087611460272E-03,57.492176920424));
#391 = VECTOR('',#392,1.);
#392 = DIRECTION('',(-0.999999998272,-5.879251492646E-05));
#393 = ( GEOMETRIC_REPRESENTATION_CONTEXT(2) 
PARAMETRIC_REPRESENTATION_CONTEXT() REPRESENTATION_CONTEXT('2D SPACE',''
  ) );
#394 = ADVANCED_FACE('',(#395),#72,.T.);
#395 = FACE_BOUND('',#396,.T.);
#396 = EDGE_LOOP('',(#397,#398,#399));
#397 = ORIENTED_EDGE('',*,*,#200,.F.);
#398 = ORIENTED_EDGE('',*,*,#56,.T.);
#399 = ORIENTED_EDGE('',*,*,#400,.T.);
#400 = EDGE_CURVE('',#22,#172,#401,.T.);
#401 = SURFACE_CURVE('',#402,(#406,#413),.PCURVE_S1.);
#402 = LINE('',#403,#404);
#403 = CARTESIAN_POINT('',(-33.73082334637,28.814396602347,
    5.975134985315E-04));
#404 = VECTOR('',#405,1.);
#405 = DIRECTION('',(0.760341567508,-0.649523440399,-3.303521601264E-05)
  );
#406 = PCURVE('',#72,#407);
#407 = DEFINITIONAL_REPRESENTATION('',(#408),#412);
#408 = LINE('',#409,#410);
#409 = CARTESIAN_POINT('',(-57.62969617196,67.462175256916));
#410 = VECTOR('',#411,1.);
#411 = DIRECTION('',(0.649523349511,-0.760341645867));
#412 = ( GEOMETRIC_REPRESENTATION_CONTEXT(2) 
PARAMETRIC_REPRESENTATION_CONTEXT() REPRESENTATION_CONTEXT('2D SPACE',''
  ) );
#413 = PCURVE('',#414,#419);
#414 = PLANE('',#415);
#415 = AXIS2_PLACEMENT_3D('',#416,#417,#418);
#416 = CARTESIAN_POINT('',(33.71319021015,28.793651398726,
    3.01199308811E-02));
#417 = DIRECTION('',(4.379054240255E-04,5.63479131561E-04,
    -0.999999745365));
#418 = DIRECTION('',(5.573004747469E-23,-0.999999841246,
    -5.634791855877E-04));
#419 = DEFINITIONAL_REPRESENTATION('',(#420),#424);
#420 = LINE('',#421,#422);
#421 = CARTESIAN_POINT('',(-2.072856506005E-02,67.444020023099));
#422 = VECTOR('',#423,1.);
#423 = DIRECTION('',(0.649523355899,-0.76034164041));
#424 = ( GEOMETRIC_REPRESENTATION_CONTEXT(2) 
PARAMETRIC_REPRESENTATION_CONTEXT() REPRESENTATION_CONTEXT('2D SPACE',''
  ) );
#425 = ADVANCED_FACE('',(#426),#414,.T.);
#426 = FACE_BOUND('',#427,.T.);
#427 = EDGE_LOOP('',(#428,#451,#452));
#428 = ORIENTED_EDGE('',*,*,#429,.T.);
#429 = EDGE_CURVE('',#430,#172,#432,.T.);
#430 = VERTEX_POINT('',#431);
#431 = CARTESIAN_POINT('',(33.71319021015,28.793651398726,
    3.01199308811E-02));
#432 = SURFACE_CURVE('',#433,(#437,#444),.PCURVE_S1.);
#433 = LINE('',#434,#435);
#434 = CARTESIAN_POINT('',(33.71319021015,28.793651398726,
    3.01199308811E-02));
#435 = VECTOR('',#436,1.);
#436 = DIRECTION('',(3.151375142407E-04,-0.999999791668,
    -5.633411571896E-04));
#437 = PCURVE('',#414,#438);
#438 = DEFINITIONAL_REPRESENTATION('',(#439),#443);
#439 = LINE('',#440,#441);
#440 = CARTESIAN_POINT('',(0.,0.));
#441 = VECTOR('',#442,1.);
#442 = DIRECTION('',(0.999999950344,-3.151375444563E-04));
#443 = ( GEOMETRIC_REPRESENTATION_CONTEXT(2) 
PARAMETRIC_REPRESENTATION_CONTEXT() REPRESENTATION_CONTEXT('2D SPACE',''
  ) );
#444 = PCURVE('',#267,#445);
#445 = DEFINITIONAL_REPRESENTATION('',(#446),#450);
#446 = LINE('',#447,#448);
#447 = CARTESIAN_POINT('',(-19.90580369339,-57.59043996884));
#448 = VECTOR('',#449,1.);
#449 = DIRECTION('',(-5.638159513468E-04,0.999999841056));
#450 = ( GEOMETRIC_REPRESENTATION_CONTEXT(2) 
PARAMETRIC_REPRESENTATION_CONTEXT() REPRESENTATION_CONTEXT('2D SPACE',''
  ) );
#451 = ORIENTED_EDGE('',*,*,#400,.F.);
#452 = ORIENTED_EDGE('',*,*,#453,.T.);
#453 = EDGE_CURVE('',#22,#430,#454,.T.);
#454 = SURFACE_CURVE('',#455,(#459,#466),.PCURVE_S1.);
#455 = LINE('',#456,#457);
#456 = CARTESIAN_POINT('',(-33.73082334637,28.814396602347,
    5.975134985315E-04));
#457 = VECTOR('',#458,1.);
#458 = DIRECTION('',(0.999999856889,-3.075914311489E-04,
    4.377321514658E-04));
#459 = PCURVE('',#414,#460);
#460 = DEFINITIONAL_REPRESENTATION('',(#461),#465);
#461 = LINE('',#462,#463);
#462 = CARTESIAN_POINT('',(-2.072856506005E-02,67.444020023099));
#463 = VECTOR('',#464,1.);
#464 = DIRECTION('',(3.073447293612E-04,-0.99999995277));
#465 = ( GEOMETRIC_REPRESENTATION_CONTEXT(2) 
PARAMETRIC_REPRESENTATION_CONTEXT() REPRESENTATION_CONTEXT('2D SPACE',''
  ) );
#466 = PCURVE('',#155,#467);
#467 = DEFINITIONAL_REPRESENTATION('',(#468),#472);
#468 = LINE('',#469,#470);
#469 = CARTESIAN_POINT('',(-67.44401674705,2.952241825054E-02));
#470 = VECTOR('',#471,1.);
#471 = DIRECTION('',(0.999999904195,-4.377321643353E-04));
#472 = ( GEOMETRIC_REPRESENTATION_CONTEXT(2) 
PARAMETRIC_REPRESENTATION_CONTEXT() REPRESENTATION_CONTEXT('2D SPACE',''
  ) );
#473 = ADVANCED_FACE('',(#474),#155,.T.);
#474 = FACE_BOUND('',#475,.T.);
#475 = EDGE_LOOP('',(#476,#477,#478));
#476 = ORIENTED_EDGE('',*,*,#453,.F.);
#477 = ORIENTED_EDGE('',*,*,#141,.T.);
#478 = ORIENTED_EDGE('',*,*,#479,.T.);
#479 = EDGE_CURVE('',#114,#430,#480,.T.);
#480 = SURFACE_CURVE('',#481,(#485,#492),.PCURVE_S1.);
#481 = LINE('',#482,#483);
#482 = CARTESIAN_POINT('',(-33.72885837793,28.80956003686,
    19.943643031064));
#483 = VECTOR('',#484,1.);
#484 = DIRECTION('',(0.959066114092,-2.262303129256E-04,-0.283182163315)
  );
#485 = PCURVE('',#155,#486);
#486 = DEFINITIONAL_REPRESENTATION('',(#487),#491);
#487 = LINE('',#488,#489);
#488 = CARTESIAN_POINT('',(-67.44205029152,-19.91352368564));
#489 = VECTOR('',#490,1.);
#490 = DIRECTION('',(0.959066138316,0.283182171641));
#491 = ( GEOMETRIC_REPRESENTATION_CONTEXT(2) 
PARAMETRIC_REPRESENTATION_CONTEXT() REPRESENTATION_CONTEXT('2D SPACE',''
  ) );
#492 = PCURVE('',#493,#498);
#493 = PLANE('',#494);
#494 = AXIS2_PLACEMENT_3D('',#495,#496,#497);
#495 = CARTESIAN_POINT('',(33.704053840072,28.782956127279,
    19.933302462685));
#496 = DIRECTION('',(3.946064513826E-04,0.999999777665,
    5.375459086634E-04));
#497 = DIRECTION('',(-4.571583088282E-23,-5.375459505152E-04,
    0.999999855522));
#498 = DEFINITIONAL_REPRESENTATION('',(#499),#503);
#499 = LINE('',#500,#501);
#500 = CARTESIAN_POINT('',(1.032626606023E-02,-67.43291746814));
#501 = VECTOR('',#502,1.);
#502 = DIRECTION('',(-0.283182000792,0.959066188762));
#503 = ( GEOMETRIC_REPRESENTATION_CONTEXT(2) 
PARAMETRIC_REPRESENTATION_CONTEXT() REPRESENTATION_CONTEXT('2D SPACE',''
  ) );
#504 = ADVANCED_FACE('',(#505),#493,.T.);
#505 = FACE_BOUND('',#506,.T.);
#506 = EDGE_LOOP('',(#507,#535,#536));
#507 = ORIENTED_EDGE('',*,*,#508,.T.);
#508 = EDGE_CURVE('',#509,#430,#511,.T.);
#509 = VERTEX_POINT('',#510);
#510 = CARTESIAN_POINT('',(33.704053840072,28.782956127279,
    19.933302462685));
#511 = SURFACE_CURVE('',#512,(#516,#523),.PCURVE_S1.);
#512 = LINE('',#513,#514);
#513 = CARTESIAN_POINT('',(33.704053840072,28.782956127279,
    19.933302462685));
#514 = VECTOR('',#515,1.);
#515 = DIRECTION('',(4.590405469925E-04,5.373647535306E-04,
    -0.99999975026));
#516 = PCURVE('',#493,#517);
#517 = DEFINITIONAL_REPRESENTATION('',(#518),#522);
#518 = LINE('',#519,#520);
#519 = CARTESIAN_POINT('',(0.,0.));
#520 = VECTOR('',#521,1.);
#521 = DIRECTION('',(-0.999999894641,4.59040582732E-04));
#522 = ( GEOMETRIC_REPRESENTATION_CONTEXT(2) 
PARAMETRIC_REPRESENTATION_CONTEXT() REPRESENTATION_CONTEXT('2D SPACE',''
  ) );
#523 = PCURVE('',#524,#529);
#524 = PLANE('',#525);
#525 = AXIS2_PLACEMENT_3D('',#526,#527,#528);
#526 = CARTESIAN_POINT('',(33.701259051299,-28.79678572582,
    19.935928277573));
#527 = DIRECTION('',(0.999999893476,-4.851677166561E-05,
    4.590145415246E-04));
#528 = DIRECTION('',(-4.590145420649E-04,3.538053528534E-24,
    0.999999894653));
#529 = DEFINITIONAL_REPRESENTATION('',(#530),#534);
#530 = LINE('',#531,#532);
#531 = CARTESIAN_POINT('',(-2.62709745982E-03,-57.57974192087));
#532 = VECTOR('',#533,1.);
#533 = DIRECTION('',(-0.99999985562,-5.373647541631E-04));
#534 = ( GEOMETRIC_REPRESENTATION_CONTEXT(2) 
PARAMETRIC_REPRESENTATION_CONTEXT() REPRESENTATION_CONTEXT('2D SPACE',''
  ) );
#535 = ORIENTED_EDGE('',*,*,#479,.F.);
#536 = ORIENTED_EDGE('',*,*,#537,.T.);
#537 = EDGE_CURVE('',#114,#509,#538,.T.);
#538 = SURFACE_CURVE('',#539,(#543,#550),.PCURVE_S1.);
#539 = LINE('',#540,#541);
#540 = CARTESIAN_POINT('',(-33.72885837793,28.80956003686,
    19.943643031064));
#541 = VECTOR('',#542,1.);
#542 = DIRECTION('',(0.999999910418,-3.945240732337E-04,
    -1.533460014054E-04));
#543 = PCURVE('',#493,#544);
#544 = DEFINITIONAL_REPRESENTATION('',(#545),#549);
#545 = LINE('',#546,#547);
#546 = CARTESIAN_POINT('',(1.032626606023E-02,-67.43291746814));
#547 = VECTOR('',#548,1.);
#548 = DIRECTION('',(-1.531339044323E-04,0.999999988275));
#549 = ( GEOMETRIC_REPRESENTATION_CONTEXT(2) 
PARAMETRIC_REPRESENTATION_CONTEXT() REPRESENTATION_CONTEXT('2D SPACE',''
  ) );
#550 = PCURVE('',#551,#556);
#551 = PLANE('',#552);
#552 = AXIS2_PLACEMENT_3D('',#553,#554,#555);
#553 = CARTESIAN_POINT('',(28.744485867178,23.827889834125,
    24.924509074027));
#554 = DIRECTION('',(3.879734639678E-04,0.709478575019,0.704726898214));
#555 = DIRECTION('',(9.819183062001E-21,-0.704726951253,0.709478628415)
  );
#556 = DEFINITIONAL_REPRESENTATION('',(#557),#561);
#557 = LINE('',#558,#559);
#558 = CARTESIAN_POINT('',(-7.044535262602,-62.47334894696));
#559 = VECTOR('',#560,1.);
#560 = DIRECTION('',(1.692360365759E-04,0.99999998568));
#561 = ( GEOMETRIC_REPRESENTATION_CONTEXT(2) 
PARAMETRIC_REPRESENTATION_CONTEXT() REPRESENTATION_CONTEXT('2D SPACE',''
  ) );
#562 = ADVANCED_FACE('',(#563),#267,.T.);
#563 = FACE_BOUND('',#564,.T.);
#564 = EDGE_LOOP('',(#565,#566,#567));
#565 = ORIENTED_EDGE('',*,*,#253,.T.);
#566 = ORIENTED_EDGE('',*,*,#429,.F.);
#567 = ORIENTED_EDGE('',*,*,#568,.F.);
#568 = EDGE_CURVE('',#225,#430,#569,.T.);
#569 = SURFACE_CURVE('',#570,(#574,#581),.PCURVE_S1.);
#570 = LINE('',#571,#572);
#571 = CARTESIAN_POINT('',(33.701259051299,-28.79678572582,
    19.935928277573));
#572 = VECTOR('',#573,1.);
#573 = DIRECTION('',(1.958060081228E-04,0.94513481383,-0.326680494284));
#574 = PCURVE('',#267,#575);
#575 = DEFINITIONAL_REPRESENTATION('',(#576),#580);
#576 = LINE('',#577,#578);
#577 = CARTESIAN_POINT('',(0.,0.));
#578 = VECTOR('',#579,1.);
#579 = DIRECTION('',(-0.326680417917,-0.945134860509));
#580 = ( GEOMETRIC_REPRESENTATION_CONTEXT(2) 
PARAMETRIC_REPRESENTATION_CONTEXT() REPRESENTATION_CONTEXT('2D SPACE',''
  ) );
#581 = PCURVE('',#524,#582);
#582 = DEFINITIONAL_REPRESENTATION('',(#583),#587);
#583 = LINE('',#584,#585);
#584 = CARTESIAN_POINT('',(0.,-0.));
#585 = VECTOR('',#586,1.);
#586 = DIRECTION('',(-0.326680549747,-0.945134814943));
#587 = ( GEOMETRIC_REPRESENTATION_CONTEXT(2) 
PARAMETRIC_REPRESENTATION_CONTEXT() REPRESENTATION_CONTEXT('2D SPACE',''
  ) );
#588 = ADVANCED_FACE('',(#589),#524,.T.);
#589 = FACE_BOUND('',#590,.T.);
#590 = EDGE_LOOP('',(#591,#592,#593));
#591 = ORIENTED_EDGE('',*,*,#568,.T.);
#592 = ORIENTED_EDGE('',*,*,#508,.F.);
#593 = ORIENTED_EDGE('',*,*,#594,.F.);
#594 = EDGE_CURVE('',#225,#509,#595,.T.);
#595 = SURFACE_CURVE('',#596,(#600,#607),.PCURVE_S1.);
#596 = LINE('',#597,#598);
#597 = CARTESIAN_POINT('',(33.701259051299,-28.79678572582,
    19.935928277573));
#598 = VECTOR('',#599,1.);
#599 = DIRECTION('',(4.853770921573E-05,0.999999997782,
    -4.560310271326E-05));
#600 = PCURVE('',#524,#601);
#601 = DEFINITIONAL_REPRESENTATION('',(#602),#606);
#602 = LINE('',#603,#604);
#603 = CARTESIAN_POINT('',(0.,-0.));
#604 = VECTOR('',#605,1.);
#605 = DIRECTION('',(-4.562537742347E-05,-0.999999998959));
#606 = ( GEOMETRIC_REPRESENTATION_CONTEXT(2) 
PARAMETRIC_REPRESENTATION_CONTEXT() REPRESENTATION_CONTEXT('2D SPACE',''
  ) );
#607 = PCURVE('',#608,#613);
#608 = PLANE('',#609);
#609 = AXIS2_PLACEMENT_3D('',#610,#611,#612);
#610 = CARTESIAN_POINT('',(28.744485867178,23.827889834125,
    24.924509074027));
#611 = DIRECTION('',(0.709352587492,-2.286828507808E-06,0.704853819322)
  );
#612 = DIRECTION('',(-0.704853819324,-8.77637992933E-23,0.709352587494)
  );
#613 = DEFINITIONAL_REPRESENTATION('',(#614),#618);
#614 = LINE('',#615,#616);
#615 = CARTESIAN_POINT('',(-7.032463206237,52.62467556009));
#616 = VECTOR('',#617,1.);
#617 = DIRECTION('',(-6.656066862935E-05,-0.999999997785));
#618 = ( GEOMETRIC_REPRESENTATION_CONTEXT(2) 
PARAMETRIC_REPRESENTATION_CONTEXT() REPRESENTATION_CONTEXT('2D SPACE',''
  ) );
#619 = ADVANCED_FACE('',(#620),#357,.T.);
#620 = FACE_BOUND('',#621,.T.);
#621 = EDGE_LOOP('',(#622,#650,#651));
#622 = ORIENTED_EDGE('',*,*,#623,.F.);
#623 = EDGE_CURVE('',#342,#624,#626,.T.);
#624 = VERTEX_POINT('',#625);
#625 = CARTESIAN_POINT('',(28.744934121439,-23.82832727284,
    24.93000179572));
#626 = SURFACE_CURVE('',#627,(#631,#638),.PCURVE_S1.);
#627 = LINE('',#628,#629);
#628 = CARTESIAN_POINT('',(-28.74488381185,-23.82835983892,
    24.928064286008));
#629 = VECTOR('',#630,1.);
#630 = DIRECTION('',(0.999999999432,5.664668685973E-07,
    3.370178894152E-05));
#631 = PCURVE('',#357,#632);
#632 = DEFINITIONAL_REPRESENTATION('',(#633),#637);
#633 = LINE('',#634,#635);
#634 = CARTESIAN_POINT('',(1.393320752637E-03,-57.48981794906));
#635 = VECTOR('',#636,1.);
#636 = DIRECTION('',(-2.42359569387E-05,0.999999999706));
#637 = ( GEOMETRIC_REPRESENTATION_CONTEXT(2) 
PARAMETRIC_REPRESENTATION_CONTEXT() REPRESENTATION_CONTEXT('2D SPACE',''
  ) );
#638 = PCURVE('',#639,#644);
#639 = PLANE('',#640);
#640 = AXIS2_PLACEMENT_3D('',#641,#642,#643);
#641 = CARTESIAN_POINT('',(28.744485867178,23.827889834125,
    24.924509074027));
#642 = DIRECTION('',(-3.370185400688E-05,1.15256872656E-04,0.99999999279
    ));
#643 = DIRECTION('',(1.92307280944E-25,0.999999993358,
    -1.152568727215E-04));
#644 = DEFINITIONAL_REPRESENTATION('',(#645),#649);
#645 = LINE('',#646,#647);
#646 = CARTESIAN_POINT('',(-47.65624976627,57.489369711683));
#647 = VECTOR('',#648,1.);
#648 = DIRECTION('',(5.625825020363E-07,-1.));
#649 = ( GEOMETRIC_REPRESENTATION_CONTEXT(2) 
PARAMETRIC_REPRESENTATION_CONTEXT() REPRESENTATION_CONTEXT('2D SPACE',''
  ) );
#650 = ORIENTED_EDGE('',*,*,#341,.F.);
#651 = ORIENTED_EDGE('',*,*,#652,.T.);
#652 = EDGE_CURVE('',#24,#624,#653,.T.);
#653 = SURFACE_CURVE('',#654,(#658,#665),.PCURVE_S1.);
#654 = LINE('',#655,#656);
#655 = CARTESIAN_POINT('',(-33.72769954164,-28.81062648226,
    19.943658245164));
#656 = VECTOR('',#657,1.);
#657 = DIRECTION('',(0.993694641764,7.924884445827E-02,
    7.931317406763E-02));
#658 = PCURVE('',#357,#659);
#659 = DEFINITIONAL_REPRESENTATION('',(#660),#664);
#660 = LINE('',#661,#662);
#661 = CARTESIAN_POINT('',(7.048895323002,-62.47263368022));
#662 = VECTOR('',#663,1.);
#663 = DIRECTION('',(-0.112120285349,0.993694642037));
#664 = ( GEOMETRIC_REPRESENTATION_CONTEXT(2) 
PARAMETRIC_REPRESENTATION_CONTEXT() REPRESENTATION_CONTEXT('2D SPACE',''
  ) );
#665 = PCURVE('',#240,#666);
#666 = DEFINITIONAL_REPRESENTATION('',(#667),#671);
#667 = LINE('',#668,#669);
#668 = CARTESIAN_POINT('',(7.048881290017,-62.47263526358));
#669 = VECTOR('',#670,1.);
#670 = DIRECTION('',(-0.11212006214,0.993694667222));
#671 = ( GEOMETRIC_REPRESENTATION_CONTEXT(2) 
PARAMETRIC_REPRESENTATION_CONTEXT() REPRESENTATION_CONTEXT('2D SPACE',''
  ) );
#672 = ADVANCED_FACE('',(#673),#240,.T.);
#673 = FACE_BOUND('',#674,.T.);
#674 = EDGE_LOOP('',(#675,#676,#677));
#675 = ORIENTED_EDGE('',*,*,#652,.F.);
#676 = ORIENTED_EDGE('',*,*,#224,.T.);
#677 = ORIENTED_EDGE('',*,*,#678,.F.);
#678 = EDGE_CURVE('',#624,#225,#679,.T.);
#679 = SURFACE_CURVE('',#680,(#684,#691),.PCURVE_S1.);
#680 = LINE('',#681,#682);
#681 = CARTESIAN_POINT('',(28.744934121439,-23.82832727284,
    24.93000179572));
#682 = VECTOR('',#683,1.);
#683 = DIRECTION('',(0.575416982796,-0.576825654618,-0.5797994999));
#684 = PCURVE('',#240,#685);
#685 = DEFINITIONAL_REPRESENTATION('',(#686),#690);
#686 = LINE('',#687,#688);
#687 = CARTESIAN_POINT('',(0.,0.));
#688 = VECTOR('',#689,1.);
#689 = DIRECTION('',(0.817860183004,0.575416997538));
#690 = ( GEOMETRIC_REPRESENTATION_CONTEXT(2) 
PARAMETRIC_REPRESENTATION_CONTEXT() REPRESENTATION_CONTEXT('2D SPACE',''
  ) );
#691 = PCURVE('',#692,#697);
#692 = PLANE('',#693);
#693 = AXIS2_PLACEMENT_3D('',#694,#695,#696);
#694 = CARTESIAN_POINT('',(28.744485867178,23.827889834125,
    24.924509074027));
#695 = DIRECTION('',(0.709827907449,8.786093893248E-05,0.704375137329));
#696 = DIRECTION('',(-0.704375140048,3.898039507145E-21,0.709827910189)
  );
#697 = DEFINITIONAL_REPRESENTATION('',(#698),#702);
#698 = LINE('',#699,#700);
#699 = CARTESIAN_POINT('',(3.583148002594E-03,47.656217290914));
#700 = VECTOR('',#701,1.);
#701 = DIRECTION('',(-0.816867285186,0.576825656844));
#702 = ( GEOMETRIC_REPRESENTATION_CONTEXT(2) 
PARAMETRIC_REPRESENTATION_CONTEXT() REPRESENTATION_CONTEXT('2D SPACE',''
  ) );
#703 = ADVANCED_FACE('',(#704),#383,.T.);
#704 = FACE_BOUND('',#705,.T.);
#705 = EDGE_LOOP('',(#706,#729,#730));
#706 = ORIENTED_EDGE('',*,*,#707,.F.);
#707 = EDGE_CURVE('',#283,#708,#710,.T.);
#708 = VERTEX_POINT('',#709);
#709 = CARTESIAN_POINT('',(28.744485867178,23.827889834125,
    24.924509074027));
#710 = SURFACE_CURVE('',#711,(#715,#722),.PCURVE_S1.);
#711 = LINE('',#712,#713);
#712 = CARTESIAN_POINT('',(-28.74768576474,23.829966525607,
    24.949169580932));
#713 = VECTOR('',#714,1.);
#714 = DIRECTION('',(0.999999907354,-3.612128800933E-05,
    -4.289367390416E-04));
#715 = PCURVE('',#383,#716);
#716 = DEFINITIONAL_REPRESENTATION('',(#717),#721);
#717 = LINE('',#718,#719);
#718 = CARTESIAN_POINT('',(2.087611460272E-03,57.492176920424));
#719 = VECTOR('',#720,1.);
#720 = DIRECTION('',(-3.631122651322E-05,-0.999999999341));
#721 = ( GEOMETRIC_REPRESENTATION_CONTEXT(2) 
PARAMETRIC_REPRESENTATION_CONTEXT() REPRESENTATION_CONTEXT('2D SPACE',''
  ) );
#722 = PCURVE('',#298,#723);
#723 = DEFINITIONAL_REPRESENTATION('',(#724),#728);
#724 = LINE('',#725,#726);
#725 = CARTESIAN_POINT('',(1.602258283906E-02,-57.49217472564));
#726 = VECTOR('',#727,1.);
#727 = DIRECTION('',(-2.78691531383E-04,0.999999961166));
#728 = ( GEOMETRIC_REPRESENTATION_CONTEXT(2) 
PARAMETRIC_REPRESENTATION_CONTEXT() REPRESENTATION_CONTEXT('2D SPACE',''
  ) );
#729 = ORIENTED_EDGE('',*,*,#369,.T.);
#730 = ORIENTED_EDGE('',*,*,#731,.T.);
#731 = EDGE_CURVE('',#342,#708,#732,.T.);
#732 = SURFACE_CURVE('',#733,(#737,#744),.PCURVE_S1.);
#733 = LINE('',#734,#735);
#734 = CARTESIAN_POINT('',(-28.74488381185,-23.82835983892,
    24.928064286008));
#735 = VECTOR('',#736,1.);
#736 = DIRECTION('',(0.769875479745,0.638194126753,-4.761002851836E-05)
  );
#737 = PCURVE('',#383,#738);
#738 = DEFINITIONAL_REPRESENTATION('',(#739),#743);
#739 = LINE('',#740,#741);
#740 = CARTESIAN_POINT('',(-47.65624342626,57.48937496728));
#741 = VECTOR('',#742,1.);
#742 = DIRECTION('',(0.638194043098,-0.769875550563));
#743 = ( GEOMETRIC_REPRESENTATION_CONTEXT(2) 
PARAMETRIC_REPRESENTATION_CONTEXT() REPRESENTATION_CONTEXT('2D SPACE',''
  ) );
#744 = PCURVE('',#639,#745);
#745 = DEFINITIONAL_REPRESENTATION('',(#746),#750);
#746 = LINE('',#747,#748);
#747 = CARTESIAN_POINT('',(-47.65624976627,57.489369711683));
#748 = VECTOR('',#749,1.);
#749 = DIRECTION('',(0.638194128001,-0.769875480182));
#750 = ( GEOMETRIC_REPRESENTATION_CONTEXT(2) 
PARAMETRIC_REPRESENTATION_CONTEXT() REPRESENTATION_CONTEXT('2D SPACE',''
  ) );
#751 = ADVANCED_FACE('',(#752),#639,.T.);
#752 = FACE_BOUND('',#753,.T.);
#753 = EDGE_LOOP('',(#754,#755,#756));
#754 = ORIENTED_EDGE('',*,*,#731,.F.);
#755 = ORIENTED_EDGE('',*,*,#623,.T.);
#756 = ORIENTED_EDGE('',*,*,#757,.F.);
#757 = EDGE_CURVE('',#708,#624,#758,.T.);
#758 = SURFACE_CURVE('',#759,(#763,#770),.PCURVE_S1.);
#759 = LINE('',#760,#761);
#760 = CARTESIAN_POINT('',(28.744485867178,23.827889834125,
    24.924509074027));
#761 = VECTOR('',#762,1.);
#762 = DIRECTION('',(9.405997482854E-06,-0.999999993314,
    1.152571897159E-04));
#763 = PCURVE('',#639,#764);
#764 = DEFINITIONAL_REPRESENTATION('',(#765),#769);
#765 = LINE('',#766,#767);
#766 = CARTESIAN_POINT('',(0.,-0.));
#767 = VECTOR('',#768,1.);
#768 = DIRECTION('',(-0.999999999956,-9.405997488196E-06));
#769 = ( GEOMETRIC_REPRESENTATION_CONTEXT(2) 
PARAMETRIC_REPRESENTATION_CONTEXT() REPRESENTATION_CONTEXT('2D SPACE',''
  ) );
#770 = PCURVE('',#692,#771);
#771 = DEFINITIONAL_REPRESENTATION('',(#772),#776);
#772 = LINE('',#773,#774);
#773 = CARTESIAN_POINT('',(0.,0.));
#774 = VECTOR('',#775,1.);
#775 = DIRECTION('',(7.5187419316E-05,0.999999997173));
#776 = ( GEOMETRIC_REPRESENTATION_CONTEXT(2) 
PARAMETRIC_REPRESENTATION_CONTEXT() REPRESENTATION_CONTEXT('2D SPACE',''
  ) );
#777 = ADVANCED_FACE('',(#778),#298,.T.);
#778 = FACE_BOUND('',#779,.T.);
#779 = EDGE_LOOP('',(#780,#801,#802));
#780 = ORIENTED_EDGE('',*,*,#781,.F.);
#781 = EDGE_CURVE('',#114,#708,#782,.T.);
#782 = SURFACE_CURVE('',#783,(#787,#794),.PCURVE_S1.);
#783 = LINE('',#784,#785);
#784 = CARTESIAN_POINT('',(-33.72885837793,28.80956003686,
    19.943643031064));
#785 = VECTOR('',#786,1.);
#786 = DIRECTION('',(0.993702434472,-7.923855954907E-02,
    7.922576856543E-02));
#787 = PCURVE('',#298,#788);
#788 = DEFINITIONAL_REPRESENTATION('',(#789),#793);
#789 = LINE('',#790,#791);
#790 = CARTESIAN_POINT('',(-7.044547146893,-62.47334760688));
#791 = VECTOR('',#792,1.);
#792 = DIRECTION('',(0.112050727141,0.993702487944));
#793 = ( GEOMETRIC_REPRESENTATION_CONTEXT(2) 
PARAMETRIC_REPRESENTATION_CONTEXT() REPRESENTATION_CONTEXT('2D SPACE',''
  ) );
#794 = PCURVE('',#551,#795);
#795 = DEFINITIONAL_REPRESENTATION('',(#796),#800);
#796 = LINE('',#797,#798);
#797 = CARTESIAN_POINT('',(-7.044535262602,-62.47334894696));
#798 = VECTOR('',#799,1.);
#799 = DIRECTION('',(0.11205053811,0.99370250926));
#800 = ( GEOMETRIC_REPRESENTATION_CONTEXT(2) 
PARAMETRIC_REPRESENTATION_CONTEXT() REPRESENTATION_CONTEXT('2D SPACE',''
  ) );
#801 = ORIENTED_EDGE('',*,*,#282,.T.);
#802 = ORIENTED_EDGE('',*,*,#707,.T.);
#803 = ADVANCED_FACE('',(#804),#551,.T.);
#804 = FACE_BOUND('',#805,.T.);
#805 = EDGE_LOOP('',(#806,#827,#828));
#806 = ORIENTED_EDGE('',*,*,#807,.T.);
#807 = EDGE_CURVE('',#708,#509,#808,.T.);
#808 = SURFACE_CURVE('',#809,(#813,#820),.PCURVE_S1.);
#809 = LINE('',#810,#811);
#810 = CARTESIAN_POINT('',(28.744485867178,23.827889834125,
    24.924509074027));
#811 = VECTOR('',#812,1.);
#812 = DIRECTION('',(0.576296150758,0.575773060699,-0.579972524517));
#813 = PCURVE('',#551,#814);
#814 = DEFINITIONAL_REPRESENTATION('',(#815),#819);
#815 = LINE('',#816,#817);
#816 = CARTESIAN_POINT('',(0.,0.));
#817 = VECTOR('',#818,1.);
#818 = DIRECTION('',(-0.817240904893,0.576296194131));
#819 = ( GEOMETRIC_REPRESENTATION_CONTEXT(2) 
PARAMETRIC_REPRESENTATION_CONTEXT() REPRESENTATION_CONTEXT('2D SPACE',''
  ) );
#820 = PCURVE('',#608,#821);
#821 = DEFINITIONAL_REPRESENTATION('',(#822),#826);
#822 = LINE('',#823,#824);
#823 = CARTESIAN_POINT('',(0.,-0.));
#824 = VECTOR('',#825,1.);
#825 = DIRECTION('',(-0.817609553865,-0.5757730607));
#826 = ( GEOMETRIC_REPRESENTATION_CONTEXT(2) 
PARAMETRIC_REPRESENTATION_CONTEXT() REPRESENTATION_CONTEXT('2D SPACE',''
  ) );
#827 = ORIENTED_EDGE('',*,*,#537,.F.);
#828 = ORIENTED_EDGE('',*,*,#781,.T.);
#829 = ADVANCED_FACE('',(#830),#692,.T.);
#830 = FACE_BOUND('',#831,.T.);
#831 = EDGE_LOOP('',(#832,#833,#834));
#832 = ORIENTED_EDGE('',*,*,#757,.T.);
#833 = ORIENTED_EDGE('',*,*,#678,.T.);
#834 = ORIENTED_EDGE('',*,*,#835,.F.);
#835 = EDGE_CURVE('',#708,#225,#836,.T.);
#836 = SURFACE_CURVE('',#837,(#841,#848),.PCURVE_S1.);
#837 = LINE('',#838,#839);
#838 = CARTESIAN_POINT('',(28.744485867178,23.827889834125,
    24.924509074027));
#839 = VECTOR('',#840,1.);
#840 = DIRECTION('',(9.336110633086E-02,-0.991188773035,
    -9.396020452777E-02));
#841 = PCURVE('',#692,#842);
#842 = DEFINITIONAL_REPRESENTATION('',(#843),#847);
#843 = LINE('',#844,#845);
#844 = CARTESIAN_POINT('',(0.,0.));
#845 = VECTOR('',#846,1.);
#846 = DIRECTION('',(-0.132456817968,0.99118877686));
#847 = ( GEOMETRIC_REPRESENTATION_CONTEXT(2) 
PARAMETRIC_REPRESENTATION_CONTEXT() REPRESENTATION_CONTEXT('2D SPACE',''
  ) );
#848 = PCURVE('',#608,#849);
#849 = DEFINITIONAL_REPRESENTATION('',(#850),#854);
#850 = LINE('',#851,#852);
#851 = CARTESIAN_POINT('',(0.,-0.));
#852 = VECTOR('',#853,1.);
#853 = DIRECTION('',(-0.132456846577,0.991188773037));
#854 = ( GEOMETRIC_REPRESENTATION_CONTEXT(2) 
PARAMETRIC_REPRESENTATION_CONTEXT() REPRESENTATION_CONTEXT('2D SPACE',''
  ) );
#855 = ADVANCED_FACE('',(#856),#608,.T.);
#856 = FACE_BOUND('',#857,.T.);
#857 = EDGE_LOOP('',(#858,#859,#860));
#858 = ORIENTED_EDGE('',*,*,#835,.T.);
#859 = ORIENTED_EDGE('',*,*,#594,.T.);
#860 = ORIENTED_EDGE('',*,*,#807,.F.);
#861 = ( GEOMETRIC_REPRESENTATION_CONTEXT(3) 
GLOBAL_UNCERTAINTY_ASSIGNED_CONTEXT((#865)) GLOBAL_UNIT_ASSIGNED_CONTEXT
((#862,#863,#864)) REPRESENTATION_CONTEXT('Context #1',
  '3D Context with UNIT and UNCERTAINTY') );
#862 = ( LENGTH_UNIT() NAMED_UNIT(*) SI_UNIT(.MILLI.,.METRE.) );
#863 = ( NAMED_UNIT(*) PLANE_ANGLE_UNIT() SI_UNIT($,.RADIAN.) );
#864 = ( NAMED_UNIT(*) SI_UNIT($,.STERADIAN.) SOLID_ANGLE_UNIT() );
#865 = UNCERTAINTY_MEASURE_WITH_UNIT(LENGTH_MEASURE(1.E-07),#862,
  'distance_accuracy_value','confusion accuracy');
#866 = PRODUCT_TYPE('part',$,(#7));
ENDSEC;
END-ISO-10303-21;
