ISO-10303-21;
HEADER;
FILE_DESCRIPTION(('Open CASCADE Model'),'2;1');
FILE_NAME('Open CASCADE Shape Model','2026-10-04T20:44:43',('Author'),(
    'Open CASCADE'),'Open CASCADE STEP processor 7.8','Open CASCADE 7.8'
  ,'Unknown');
FILE_SCHEMA(('AUTOMOTIVE_DESIGN_CC2 { 1 2 10303 214 -1 1 5 4 }'));
ENDSEC;
DATA;
#1 = APPLICATION_PROTOCOL_DEFINITION('committee draft',
  'automotive_design',1997,#2);
#2 = APPLICATION_CONTEXT(
  'core data for automotive mechanical design processes');
#3 = SHAPE_DEFINITION_REPRESENTATION(#4,#10);
#4 = PRODUCT_DEFINITION_SHAPE('','',#5);
#5 = PRODUCT_DEFINITION('design','',#6,#9);
#6 = PRODUCT_DEFINITION_FORMATION('','',#7);
#7 = PRODUCT('Open CASCADE STEP translator 7.8 119',
  'Open CASCADE STEP translator 7.8 119','',(#8));
#8 = MECHANICAL_CONTEXT('',#2,'mechanical');
#9 = PRODUCT_DEFINITION_CONTEXT('part definition',#2,'design');
#10 = ADVANCED_BREP_SHAPE_REPRESENTATION('',(#11,#15),#861);
#11 = AXIS2_PLACEMENT_3D('',#12,#13,#14);
#12 = CARTESIAN_POINT('',(0.,0.,0.));
#13 = DIRECTION('',(0.,0.,1.));
#14 = DIRECTION('',(1.,0.,-0.));
#15 = MANIFOLD_SOLID_BREP('',#16);
#16 = CLOSED_SHELL('',(#17,#109,#167,#225,#283,#336,#394,#447,#473,#526,
    #552,#578,#609,#640,#693,#724,#777,#803,#829,#855));
#17 = ADVANCED_FACE('',(#18),#32,.T.);
#18 = FACE_BOUND('',#19,.T.);
#19 = EDGE_LOOP('',(#20,#55,#83));
#20 = ORIENTED_EDGE('',*,*,#21,.T.);
#21 = EDGE_CURVE('',#22,#24,#26,.T.);
#22 = VERTEX_POINT('',#23);
#23 = CARTESIAN_POINT('',(-53.17368849958,-37.5460385734,27.042119182378
    ));
#24 = VERTEX_POINT('',#25);
#25 = CARTESIAN_POINT('',(-53.12462374315,37.496547332309,
    6.133271735801E-03));
#26 = SURFACE_CURVE('',#27,(#31,#43),.PCURVE_S1.);
#27 = LINE('',#28,#29);
#28 = CARTESIAN_POINT('',(-53.17368849958,-37.5460385734,27.042119182378
    ));
#29 = VECTOR('',#30,1.);
#30 = DIRECTION('',(6.151220921406E-04,0.940804679259,-0.338948634913));
#31 = PCURVE('',#32,#37);
#32 = PLANE('',#33);
#33 = AXIS2_PLACEMENT_3D('',#34,#35,#36);
#34 = CARTESIAN_POINT('',(-53.17368849958,-37.5460385734,27.042119182378
    ));
#35 = DIRECTION('',(-0.999996391588,-3.076568105638E-04,
    -2.668737225457E-03));
#36 = DIRECTION('',(2.668737351758E-03,-1.577562316491E-22,
    -0.999996438914));
#37 = DEFINITIONAL_REPRESENTATION('',(#38),#42);
#38 = LINE('',#39,#40);
#39 = CARTESIAN_POINT('',(0.,0.));
#40 = VECTOR('',#41,1.);
#41 = DIRECTION('',(0.338949069487,-0.940804723784));
#42 = ( GEOMETRIC_REPRESENTATION_CONTEXT(2) 
PARAMETRIC_REPRESENTATION_CONTEXT() REPRESENTATION_CONTEXT('2D SPACE',''
  ) );
#43 = PCURVE('',#44,#49);
#44 = PLANE('',#45);
#45 = AXIS2_PLACEMENT_3D('',#46,#47,#48);
#46 = CARTESIAN_POINT('',(-53.17368849958,-37.5460385734,27.042119182378
    ));
#47 = DIRECTION('',(-0.999996098597,-3.448525017633E-04,
    -2.771979122602E-03));
#48 = DIRECTION('',(2.771979287429E-03,1.361896943163E-22,
    -0.999996158058));
#49 = DEFINITIONAL_REPRESENTATION('',(#50),#54);
#50 = LINE('',#51,#52);
#51 = CARTESIAN_POINT('',(0.,0.));
#52 = VECTOR('',#53,1.);
#53 = DIRECTION('',(0.338949037798,-0.940804735201));
#54 = ( GEOMETRIC_REPRESENTATION_CONTEXT(2) 
PARAMETRIC_REPRESENTATION_CONTEXT() REPRESENTATION_CONTEXT('2D SPACE',''
  ) );
#55 = ORIENTED_EDGE('',*,*,#56,.T.);
#56 = EDGE_CURVE('',#24,#57,#59,.T.);
#57 = VERTEX_POINT('',#58);
#58 = CARTESIAN_POINT('',(-53.10153390558,-37.52977796433,
    3.362559372691E-03));
#59 = SURFACE_CURVE('',#60,(#64,#71),.PCURVE_S1.);
#60 = LINE('',#61,#62);
#61 = CARTESIAN_POINT('',(-53.12462374315,37.496547332309,
    6.133271735801E-03));
#62 = VECTOR('',#63,1.);
#63 = DIRECTION('',(3.077564624078E-04,-0.999999951961,
    -3.692986720399E-05));
#64 = PCURVE('',#32,#65);
#65 = DEFINITIONAL_REPRESENTATION('',(#66),#70);
#66 = LINE('',#67,#68);
#67 = CARTESIAN_POINT('',(27.036020574123,-75.0425894572));
#68 = VECTOR('',#69,1.);
#69 = DIRECTION('',(3.775105686004E-05,0.999999999287));
#70 = ( GEOMETRIC_REPRESENTATION_CONTEXT(2) 
PARAMETRIC_REPRESENTATION_CONTEXT() REPRESENTATION_CONTEXT('2D SPACE',''
  ) );
#71 = PCURVE('',#72,#77);
#72 = PLANE('',#73);
#73 = AXIS2_PLACEMENT_3D('',#74,#75,#76);
#74 = CARTESIAN_POINT('',(53.138651654429,37.491289051376,
    8.57337880597E-03));
#75 = DIRECTION('',(2.296467225877E-05,3.693693646977E-05,
    -0.999999999054));
#76 = DIRECTION('',(8.750325816657E-26,-0.999999999318,
    -3.693693647951E-05));
#77 = DEFINITIONAL_REPRESENTATION('',(#78),#82);
#78 = LINE('',#79,#80);
#79 = CARTESIAN_POINT('',(-5.258190798863E-03,106.2632754256));
#80 = VECTOR('',#81,1.);
#81 = DIRECTION('',(0.999999952643,-3.077564624889E-04));
#82 = ( GEOMETRIC_REPRESENTATION_CONTEXT(2) 
PARAMETRIC_REPRESENTATION_CONTEXT() REPRESENTATION_CONTEXT('2D SPACE',''
  ) );
#83 = ORIENTED_EDGE('',*,*,#84,.F.);
#84 = EDGE_CURVE('',#22,#57,#85,.T.);
#85 = SURFACE_CURVE('',#86,(#90,#97),.PCURVE_S1.);
#86 = LINE('',#87,#88);
#87 = CARTESIAN_POINT('',(-53.17368849958,-37.5460385734,27.042119182378
    ));
#88 = VECTOR('',#89,1.);
#89 = DIRECTION('',(2.668551851391E-03,6.013792889842E-04,-0.99999625858
    ));
#90 = PCURVE('',#32,#91);
#91 = DEFINITIONAL_REPRESENTATION('',(#92),#96);
#92 = LINE('',#93,#94);
#93 = CARTESIAN_POINT('',(0.,0.));
#94 = VECTOR('',#95,1.);
#95 = DIRECTION('',(0.999999819171,-6.013793174453E-04));
#96 = ( GEOMETRIC_REPRESENTATION_CONTEXT(2) 
PARAMETRIC_REPRESENTATION_CONTEXT() REPRESENTATION_CONTEXT('2D SPACE',''
  ) );
#97 = PCURVE('',#98,#103);
#98 = PLANE('',#99);
#99 = AXIS2_PLACEMENT_3D('',#100,#101,#102);
#100 = CARTESIAN_POINT('',(53.117921847265,-37.49634282826,
    27.030511324148));
#101 = DIRECTION('',(4.674758838586E-04,-0.999999710653,
    -6.001338766943E-04));
#102 = DIRECTION('',(-3.201486308849E-23,6.00133942269E-04,
    -0.99999981992));
#103 = DEFINITIONAL_REPRESENTATION('',(#104),#108);
#104 = LINE('',#105,#106);
#105 = CARTESIAN_POINT('',(-1.163768024326E-02,-106.291621961));
#106 = VECTOR('',#107,1.);
#107 = DIRECTION('',(0.999996439408,2.668552142975E-03));
#108 = ( GEOMETRIC_REPRESENTATION_CONTEXT(2) 
PARAMETRIC_REPRESENTATION_CONTEXT() REPRESENTATION_CONTEXT('2D SPACE',''
  ) );
#109 = ADVANCED_FACE('',(#110),#44,.T.);
#110 = FACE_BOUND('',#111,.T.);
#111 = EDGE_LOOP('',(#112,#140,#166));
#112 = ORIENTED_EDGE('',*,*,#113,.F.);
#113 = EDGE_CURVE('',#114,#22,#116,.T.);
#114 = VERTEX_POINT('',#115);
#115 = CARTESIAN_POINT('',(-53.19962895731,37.537176890142,
    27.059334980083));
#116 = SURFACE_CURVE('',#117,(#121,#128),.PCURVE_S1.);
#117 = LINE('',#118,#119);
#118 = CARTESIAN_POINT('',(-53.19962895731,37.537176890142,
    27.059334980083));
#119 = VECTOR('',#120,1.);
#120 = DIRECTION('',(3.45489405839E-04,-0.999999914032,
    -2.292895438569E-04));
#121 = PCURVE('',#44,#122);
#122 = DEFINITIONAL_REPRESENTATION('',(#123),#127);
#123 = LINE('',#124,#125);
#124 = CARTESIAN_POINT('',(-1.72876379744E-02,-75.08321992811));
#125 = VECTOR('',#126,1.);
#126 = DIRECTION('',(2.302463524168E-04,0.999999973493));
#127 = ( GEOMETRIC_REPRESENTATION_CONTEXT(2) 
PARAMETRIC_REPRESENTATION_CONTEXT() REPRESENTATION_CONTEXT('2D SPACE',''
  ) );
#128 = PCURVE('',#129,#134);
#129 = PLANE('',#130);
#130 = AXIS2_PLACEMENT_3D('',#131,#132,#133);
#131 = CARTESIAN_POINT('',(-53.19962895731,37.537176890142,
    27.059334980083));
#132 = DIRECTION('',(-0.705465289428,-4.062384884188E-04,0.708744354745)
  );
#133 = DIRECTION('',(0.708744413227,-1.286724151604E-20,0.705465347639)
  );
#134 = DEFINITIONAL_REPRESENTATION('',(#135),#139);
#135 = LINE('',#136,#137);
#136 = CARTESIAN_POINT('',(0.,0.));
#137 = VECTOR('',#138,1.);
#138 = DIRECTION('',(8.31078584504E-05,-0.999999996547));
#139 = ( GEOMETRIC_REPRESENTATION_CONTEXT(2) 
PARAMETRIC_REPRESENTATION_CONTEXT() REPRESENTATION_CONTEXT('2D SPACE',''
  ) );
#140 = ORIENTED_EDGE('',*,*,#141,.T.);
#141 = EDGE_CURVE('',#114,#24,#142,.T.);
#142 = SURFACE_CURVE('',#143,(#147,#154),.PCURVE_S1.);
#143 = LINE('',#144,#145);
#144 = CARTESIAN_POINT('',(-53.19962895731,37.537176890142,
    27.059334980083));
#145 = VECTOR('',#146,1.);
#146 = DIRECTION('',(2.772494069788E-03,-1.501831698044E-03,
    -0.999995028877));
#147 = PCURVE('',#44,#148);
#148 = DEFINITIONAL_REPRESENTATION('',(#149),#153);
#149 = LINE('',#150,#151);
#150 = CARTESIAN_POINT('',(-1.72876379744E-02,-75.08321992811));
#151 = VECTOR('',#152,1.);
#152 = DIRECTION('',(0.99999887225,1.501831787345E-03));
#153 = ( GEOMETRIC_REPRESENTATION_CONTEXT(2) 
PARAMETRIC_REPRESENTATION_CONTEXT() REPRESENTATION_CONTEXT('2D SPACE',''
  ) );
#154 = PCURVE('',#155,#160);
#155 = PLANE('',#156);
#156 = AXIS2_PLACEMENT_3D('',#157,#158,#159);
#157 = CARTESIAN_POINT('',(53.131023074184,37.483502830073,
    27.021399719439));
#158 = DIRECTION('',(5.042485139418E-04,0.999998747207,
    -1.500439249413E-03));
#159 = DIRECTION('',(6.734646474765E-23,1.500439440169E-03,0.99999887434
    ));
#160 = DEFINITIONAL_REPRESENTATION('',(#161),#165);
#161 = LINE('',#162,#163);
#162 = CARTESIAN_POINT('',(3.801575261871E-02,-106.3306655496));
#163 = VECTOR('',#164,1.);
#164 = DIRECTION('',(-0.99999615663,2.772494422265E-03));
#165 = ( GEOMETRIC_REPRESENTATION_CONTEXT(2) 
PARAMETRIC_REPRESENTATION_CONTEXT() REPRESENTATION_CONTEXT('2D SPACE',''
  ) );
#166 = ORIENTED_EDGE('',*,*,#21,.F.);
#167 = ADVANCED_FACE('',(#168),#98,.T.);
#168 = FACE_BOUND('',#169,.T.);
#169 = EDGE_LOOP('',(#170,#198,#199));
#170 = ORIENTED_EDGE('',*,*,#171,.F.);
#171 = EDGE_CURVE('',#22,#172,#174,.T.);
#172 = VERTEX_POINT('',#173);
#173 = CARTESIAN_POINT('',(53.117921847265,-37.49634282826,
    27.030511324148));
#174 = SURFACE_CURVE('',#175,(#179,#186),.PCURVE_S1.);
#175 = LINE('',#176,#177);
#176 = CARTESIAN_POINT('',(-53.17368849958,-37.5460385734,
    27.042119182378));
#177 = VECTOR('',#178,1.);
#178 = DIRECTION('',(0.999999884739,4.675415044687E-04,
    -1.092076491677E-04));
#179 = PCURVE('',#98,#180);
#180 = DEFINITIONAL_REPRESENTATION('',(#181),#185);
#181 = LINE('',#182,#183);
#182 = CARTESIAN_POINT('',(-1.163768024326E-02,-106.291621961));
#183 = VECTOR('',#184,1.);
#184 = DIRECTION('',(1.094882170278E-04,0.999999994006));
#185 = ( GEOMETRIC_REPRESENTATION_CONTEXT(2) 
PARAMETRIC_REPRESENTATION_CONTEXT() REPRESENTATION_CONTEXT('2D SPACE',''
  ) );
#186 = PCURVE('',#187,#192);
#187 = PLANE('',#188);
#188 = AXIS2_PLACEMENT_3D('',#189,#190,#191);
#189 = CARTESIAN_POINT('',(53.117921847265,-37.49634282826,
    27.030511324148));
#190 = DIRECTION('',(4.070725484665E-04,-0.705013625331,0.709193642378)
  );
#191 = DIRECTION('',(1.694129262888E-20,0.709193701138,0.705013683744));
#192 = DEFINITIONAL_REPRESENTATION('',(#193),#197);
#193 = LINE('',#194,#195);
#194 = CARTESIAN_POINT('',(-2.706021053678E-02,106.29161915354));
#195 = VECTOR('',#196,1.);
#196 = DIRECTION('',(2.545846029568E-04,-0.999999967593));
#197 = ( GEOMETRIC_REPRESENTATION_CONTEXT(2) 
PARAMETRIC_REPRESENTATION_CONTEXT() REPRESENTATION_CONTEXT('2D SPACE',''
  ) );
#198 = ORIENTED_EDGE('',*,*,#84,.T.);
#199 = ORIENTED_EDGE('',*,*,#200,.T.);
#200 = EDGE_CURVE('',#57,#172,#201,.T.);
#201 = SURFACE_CURVE('',#202,(#206,#213),.PCURVE_S1.);
#202 = LINE('',#203,#204);
#203 = CARTESIAN_POINT('',(-53.10153390558,-37.52977796433,
    3.362559372691E-03));
#204 = VECTOR('',#205,1.);
#205 = DIRECTION('',(0.969120093428,3.050539278652E-04,0.246589033528));
#206 = PCURVE('',#98,#207);
#207 = DEFINITIONAL_REPRESENTATION('',(#208),#212);
#208 = LINE('',#209,#210);
#209 = CARTESIAN_POINT('',(27.027123832156,-106.2194673591));
#210 = VECTOR('',#211,1.);
#211 = DIRECTION('',(-0.246588806049,0.969120199321));
#212 = ( GEOMETRIC_REPRESENTATION_CONTEXT(2) 
PARAMETRIC_REPRESENTATION_CONTEXT() REPRESENTATION_CONTEXT('2D SPACE',''
  ) );
#213 = PCURVE('',#214,#219);
#214 = PLANE('',#215);
#215 = AXIS2_PLACEMENT_3D('',#216,#217,#218);
#216 = CARTESIAN_POINT('',(53.117921847265,-37.49634282826,
    27.030511324148));
#217 = DIRECTION('',(5.677228862426E-05,-0.999999484318,
    1.013972930267E-03));
#218 = DIRECTION('',(7.694286408633E-24,-1.013972931902E-03,
    -0.999999485929));
#219 = DEFINITIONAL_REPRESENTATION('',(#220),#224);
#220 = LINE('',#221,#222);
#221 = CARTESIAN_POINT('',(27.027168773234,-106.219455924));
#222 = VECTOR('',#223,1.);
#223 = DIRECTION('',(-0.246589216081,0.96912009499));
#224 = ( GEOMETRIC_REPRESENTATION_CONTEXT(2) 
PARAMETRIC_REPRESENTATION_CONTEXT() REPRESENTATION_CONTEXT('2D SPACE',''
  ) );
#225 = ADVANCED_FACE('',(#226),#214,.T.);
#226 = FACE_BOUND('',#227,.T.);
#227 = EDGE_LOOP('',(#228,#229,#257));
#228 = ORIENTED_EDGE('',*,*,#200,.F.);
#229 = ORIENTED_EDGE('',*,*,#230,.T.);
#230 = EDGE_CURVE('',#57,#231,#233,.T.);
#231 = VERTEX_POINT('',#232);
#232 = CARTESIAN_POINT('',(53.119796075313,-37.52373758404,
    1.31746288944E-02));
#233 = SURFACE_CURVE('',#234,(#238,#245),.PCURVE_S1.);
#234 = LINE('',#235,#236);
#235 = CARTESIAN_POINT('',(-53.10153390558,-37.52977796433,
    3.362559372691E-03));
#236 = VECTOR('',#237,1.);
#237 = DIRECTION('',(0.999999994117,5.686598216271E-05,
    9.237381480482E-05));
#238 = PCURVE('',#214,#239);
#239 = DEFINITIONAL_REPRESENTATION('',(#240),#244);
#240 = LINE('',#241,#242);
#241 = CARTESIAN_POINT('',(27.027168773234,-106.219455924));
#242 = VECTOR('',#243,1.);
#243 = DIRECTION('',(-9.243142788481E-05,0.999999995728));
#244 = ( GEOMETRIC_REPRESENTATION_CONTEXT(2) 
PARAMETRIC_REPRESENTATION_CONTEXT() REPRESENTATION_CONTEXT('2D SPACE',''
  ) );
#245 = PCURVE('',#246,#251);
#246 = PLANE('',#247);
#247 = AXIS2_PLACEMENT_3D('',#248,#249,#250);
#248 = CARTESIAN_POINT('',(53.138651654429,37.491289051376,
    8.57337880597E-03));
#249 = DIRECTION('',(9.237730412989E-05,-6.13609311914E-05,
    -0.999999993851));
#250 = DIRECTION('',(-0.999999995733,-6.583009364761E-25,
    -9.237730430379E-05));
#251 = DEFINITIONAL_REPRESENTATION('',(#252),#256);
#252 = LINE('',#253,#254);
#253 = CARTESIAN_POINT('',(106.24018558806,-75.02106715694));
#254 = VECTOR('',#255,1.);
#255 = DIRECTION('',(-0.999999998383,5.686598226976E-05));
#256 = ( GEOMETRIC_REPRESENTATION_CONTEXT(2) 
PARAMETRIC_REPRESENTATION_CONTEXT() REPRESENTATION_CONTEXT('2D SPACE',''
  ) );
#257 = ORIENTED_EDGE('',*,*,#258,.F.);
#258 = EDGE_CURVE('',#172,#231,#259,.T.);
#259 = SURFACE_CURVE('',#260,(#264,#271),.PCURVE_S1.);
#260 = LINE('',#261,#262);
#261 = CARTESIAN_POINT('',(53.117921847265,-37.49634282826,
    27.030511324148));
#262 = VECTOR('',#263,1.);
#263 = DIRECTION('',(6.937127449017E-05,-1.013968991098E-03,
    -0.999999483527));
#264 = PCURVE('',#214,#265);
#265 = DEFINITIONAL_REPRESENTATION('',(#266),#270);
#266 = LINE('',#267,#268);
#267 = CARTESIAN_POINT('',(0.,0.));
#268 = VECTOR('',#269,1.);
#269 = DIRECTION('',(0.999999997594,6.937127460196E-05));
#270 = ( GEOMETRIC_REPRESENTATION_CONTEXT(2) 
PARAMETRIC_REPRESENTATION_CONTEXT() REPRESENTATION_CONTEXT('2D SPACE',''
  ) );
#271 = PCURVE('',#272,#277);
#272 = PLANE('',#273);
#273 = AXIS2_PLACEMENT_3D('',#274,#275,#276);
#274 = CARTESIAN_POINT('',(53.117921847265,-37.49634282826,
    27.030511324148));
#275 = DIRECTION('',(0.999999965987,-2.513530815574E-04,
    6.962617232118E-05));
#276 = DIRECTION('',(2.513530821666E-04,0.999999968411,
    -5.368334499432E-25));
#277 = DEFINITIONAL_REPRESENTATION('',(#278),#282);
#278 = LINE('',#279,#280);
#279 = CARTESIAN_POINT('',(0.,0.));
#280 = VECTOR('',#281,1.);
#281 = DIRECTION('',(-1.013951522384E-03,-0.999999485951));
#282 = ( GEOMETRIC_REPRESENTATION_CONTEXT(2) 
PARAMETRIC_REPRESENTATION_CONTEXT() REPRESENTATION_CONTEXT('2D SPACE',''
  ) );
#283 = ADVANCED_FACE('',(#284),#129,.T.);
#284 = FACE_BOUND('',#285,.T.);
#285 = EDGE_LOOP('',(#286,#287,#310));
#286 = ORIENTED_EDGE('',*,*,#113,.T.);
#287 = ORIENTED_EDGE('',*,*,#288,.T.);
#288 = EDGE_CURVE('',#22,#289,#291,.T.);
#289 = VERTEX_POINT('',#290);
#290 = CARTESIAN_POINT('',(-46.39873011427,-30.754614671,33.789625365559
    ));
#291 = SURFACE_CURVE('',#292,(#296,#303),.PCURVE_S1.);
#292 = LINE('',#293,#294);
#293 = CARTESIAN_POINT('',(-53.17368849958,-37.5460385734,
    27.042119182378));
#294 = VECTOR('',#295,1.);
#295 = DIRECTION('',(0.577660459515,0.579064376355,0.5753197733));
#296 = PCURVE('',#129,#297);
#297 = DEFINITIONAL_REPRESENTATION('',(#298),#302);
#298 = LINE('',#299,#300);
#299 = CARTESIAN_POINT('',(6.240005779188E-03,-75.08322165902));
#300 = VECTOR('',#301,1.);
#301 = DIRECTION('',(0.815281787298,0.579064424136));
#302 = ( GEOMETRIC_REPRESENTATION_CONTEXT(2) 
PARAMETRIC_REPRESENTATION_CONTEXT() REPRESENTATION_CONTEXT('2D SPACE',''
  ) );
#303 = PCURVE('',#187,#304);
#304 = DEFINITIONAL_REPRESENTATION('',(#305),#309);
#305 = LINE('',#306,#307);
#306 = CARTESIAN_POINT('',(-2.706021053678E-02,106.29161915354));
#307 = VECTOR('',#308,1.);
#308 = DIRECTION('',(0.816277120969,-0.577660507376));
#309 = ( GEOMETRIC_REPRESENTATION_CONTEXT(2) 
PARAMETRIC_REPRESENTATION_CONTEXT() REPRESENTATION_CONTEXT('2D SPACE',''
  ) );
#310 = ORIENTED_EDGE('',*,*,#311,.F.);
#311 = EDGE_CURVE('',#114,#289,#312,.T.);
#312 = SURFACE_CURVE('',#313,(#317,#324),.PCURVE_S1.);
#313 = LINE('',#314,#315);
#314 = CARTESIAN_POINT('',(-53.19962895731,37.537176890142,
    27.059334980083));
#315 = VECTOR('',#316,1.);
#316 = DIRECTION('',(9.862262111978E-02,-0.990327255289,
    9.759869894142E-02));
#317 = PCURVE('',#129,#318);
#318 = DEFINITIONAL_REPRESENTATION('',(#319),#323);
#319 = LINE('',#320,#321);
#320 = CARTESIAN_POINT('',(0.,0.));
#321 = VECTOR('',#322,1.);
#322 = DIRECTION('',(0.138750731814,-0.990327337006));
#323 = ( GEOMETRIC_REPRESENTATION_CONTEXT(2) 
PARAMETRIC_REPRESENTATION_CONTEXT() REPRESENTATION_CONTEXT('2D SPACE',''
  ) );
#324 = PCURVE('',#325,#330);
#325 = PLANE('',#326);
#326 = AXIS2_PLACEMENT_3D('',#327,#328,#329);
#327 = CARTESIAN_POINT('',(-46.36655842979,30.814812277626,
    33.822743241946));
#328 = DIRECTION('',(-0.703481954742,-1.470063660004E-05,0.710713120138)
  );
#329 = DIRECTION('',(0.710713120215,8.650882472351E-22,0.703481954818));
#330 = DEFINITIONAL_REPRESENTATION('',(#331),#335);
#331 = LINE('',#332,#333);
#332 = CARTESIAN_POINT('',(-9.614288540551,6.722364613242));
#333 = VECTOR('',#334,1.);
#334 = DIRECTION('',(0.138751314299,-0.990327255396));
#335 = ( GEOMETRIC_REPRESENTATION_CONTEXT(2) 
PARAMETRIC_REPRESENTATION_CONTEXT() REPRESENTATION_CONTEXT('2D SPACE',''
  ) );
#336 = ADVANCED_FACE('',(#337),#325,.T.);
#337 = FACE_BOUND('',#338,.T.);
#338 = EDGE_LOOP('',(#339,#367,#368));
#339 = ORIENTED_EDGE('',*,*,#340,.F.);
#340 = EDGE_CURVE('',#114,#341,#343,.T.);
#341 = VERTEX_POINT('',#342);
#342 = CARTESIAN_POINT('',(-46.36655842979,30.814812277626,
    33.822743241946));
#343 = SURFACE_CURVE('',#344,(#348,#355),.PCURVE_S1.);
#344 = LINE('',#345,#346);
#345 = CARTESIAN_POINT('',(-53.19962895731,37.537176890142,
    27.059334980083));
#346 = VECTOR('',#347,1.);
#347 = DIRECTION('',(0.582462088528,-0.573025335577,0.576523963261));
#348 = PCURVE('',#325,#349);
#349 = DEFINITIONAL_REPRESENTATION('',(#350),#354);
#350 = LINE('',#351,#352);
#351 = CARTESIAN_POINT('',(-9.614288540551,6.722364613242));
#352 = VECTOR('',#353,1.);
#353 = DIRECTION('',(0.819537653019,-0.573025335639));
#354 = ( GEOMETRIC_REPRESENTATION_CONTEXT(2) 
PARAMETRIC_REPRESENTATION_CONTEXT() REPRESENTATION_CONTEXT('2D SPACE',''
  ) );
#355 = PCURVE('',#356,#361);
#356 = PLANE('',#357);
#357 = AXIS2_PLACEMENT_3D('',#358,#359,#360);
#358 = CARTESIAN_POINT('',(53.131023074184,37.483502830073,
    27.021399719439));
#359 = DIRECTION('',(6.09569283307E-04,0.709563278853,0.704641456153));
#360 = DIRECTION('',(5.148012778033E-21,-0.704641587066,0.709563410681)
  );
#361 = DEFINITIONAL_REPRESENTATION('',(#362),#366);
#362 = LINE('',#363,#364);
#363 = CARTESIAN_POINT('',(-1.09035019441E-02,-106.3306717863));
#364 = VECTOR('',#365,1.);
#365 = DIRECTION('',(0.812857791601,0.582462196742));
#366 = ( GEOMETRIC_REPRESENTATION_CONTEXT(2) 
PARAMETRIC_REPRESENTATION_CONTEXT() REPRESENTATION_CONTEXT('2D SPACE',''
  ) );
#367 = ORIENTED_EDGE('',*,*,#311,.T.);
#368 = ORIENTED_EDGE('',*,*,#369,.T.);
#369 = EDGE_CURVE('',#289,#341,#370,.T.);
#370 = SURFACE_CURVE('',#371,(#375,#382),.PCURVE_S1.);
#371 = LINE('',#372,#373);
#372 = CARTESIAN_POINT('',(-46.39873011427,-30.754614671,33.789625365559
    ));
#373 = VECTOR('',#374,1.);
#374 = DIRECTION('',(5.225267966991E-04,0.999999718817,
    5.378946778687E-04));
#375 = PCURVE('',#325,#376);
#376 = DEFINITIONAL_REPRESENTATION('',(#377),#381);
#377 = LINE('',#378,#379);
#378 = CARTESIAN_POINT('',(-4.616266668265E-02,-61.56942695528));
#379 = VECTOR('',#380,1.);
#380 = DIRECTION('',(7.497658495511E-04,0.999999718926));
#381 = ( GEOMETRIC_REPRESENTATION_CONTEXT(2) 
PARAMETRIC_REPRESENTATION_CONTEXT() REPRESENTATION_CONTEXT('2D SPACE',''
  ) );
#382 = PCURVE('',#383,#388);
#383 = PLANE('',#384);
#384 = AXIS2_PLACEMENT_3D('',#385,#386,#387);
#385 = CARTESIAN_POINT('',(46.38231860133,-30.76647923606,
    33.776222923107));
#386 = DIRECTION('',(1.443835543483E-04,-5.379701899694E-04,
    0.999999844871));
#387 = DIRECTION('',(-7.160956035844E-24,0.999999855294,
    5.379701955768E-04));
#388 = DEFINITIONAL_REPRESENTATION('',(#389),#393);
#389 = LINE('',#390,#391);
#390 = CARTESIAN_POINT('',(1.187177346144E-02,92.781049682694));
#391 = VECTOR('',#392,1.);
#392 = DIRECTION('',(0.999999863483,-5.225268021456E-04));
#393 = ( GEOMETRIC_REPRESENTATION_CONTEXT(2) 
PARAMETRIC_REPRESENTATION_CONTEXT() REPRESENTATION_CONTEXT('2D SPACE',''
  ) );
#394 = ADVANCED_FACE('',(#395),#72,.T.);
#395 = FACE_BOUND('',#396,.T.);
#396 = EDGE_LOOP('',(#397,#420,#421));
#397 = ORIENTED_EDGE('',*,*,#398,.F.);
#398 = EDGE_CURVE('',#57,#399,#401,.T.);
#399 = VERTEX_POINT('',#400);
#400 = CARTESIAN_POINT('',(53.138651654429,37.491289051376,
    8.57337880597E-03));
#401 = SURFACE_CURVE('',#402,(#406,#413),.PCURVE_S1.);
#402 = LINE('',#403,#404);
#403 = CARTESIAN_POINT('',(-53.10153390558,-37.52977796433,
    3.362559372691E-03));
#404 = VECTOR('',#405,1.);
#405 = DIRECTION('',(0.816866439521,0.576826853033,4.00652869252E-05));
#406 = PCURVE('',#72,#407);
#407 = DEFINITIONAL_REPRESENTATION('',(#408),#412);
#408 = LINE('',#409,#410);
#409 = CARTESIAN_POINT('',(75.021067157005,106.24018558802));
#410 = VECTOR('',#411,1.);
#411 = DIRECTION('',(-0.576826854119,-0.816866439736));
#412 = ( GEOMETRIC_REPRESENTATION_CONTEXT(2) 
PARAMETRIC_REPRESENTATION_CONTEXT() REPRESENTATION_CONTEXT('2D SPACE',''
  ) );
#413 = PCURVE('',#246,#414);
#414 = DEFINITIONAL_REPRESENTATION('',(#415),#419);
#415 = LINE('',#416,#417);
#416 = CARTESIAN_POINT('',(106.24018558806,-75.02106715694));
#417 = VECTOR('',#418,1.);
#418 = DIRECTION('',(-0.816866439737,0.576826854118));
#419 = ( GEOMETRIC_REPRESENTATION_CONTEXT(2) 
PARAMETRIC_REPRESENTATION_CONTEXT() REPRESENTATION_CONTEXT('2D SPACE',''
  ) );
#420 = ORIENTED_EDGE('',*,*,#56,.F.);
#421 = ORIENTED_EDGE('',*,*,#422,.T.);
#422 = EDGE_CURVE('',#24,#399,#423,.T.);
#423 = SURFACE_CURVE('',#424,(#428,#435),.PCURVE_S1.);
#424 = LINE('',#425,#426);
#425 = CARTESIAN_POINT('',(-53.12462374315,37.496547332309,
    6.133271735801E-03));
#426 = VECTOR('',#427,1.);
#427 = DIRECTION('',(0.999999998512,-4.948352010638E-05,
    2.296284447669E-05));
#428 = PCURVE('',#72,#429);
#429 = DEFINITIONAL_REPRESENTATION('',(#430),#434);
#430 = LINE('',#431,#432);
#431 = CARTESIAN_POINT('',(-5.258190798863E-03,106.2632754256));
#432 = VECTOR('',#433,1.);
#433 = DIRECTION('',(4.94826718955E-05,-0.999999998776));
#434 = ( GEOMETRIC_REPRESENTATION_CONTEXT(2) 
PARAMETRIC_REPRESENTATION_CONTEXT() REPRESENTATION_CONTEXT('2D SPACE',''
  ) );
#435 = PCURVE('',#436,#441);
#436 = PLANE('',#437);
#437 = AXIS2_PLACEMENT_3D('',#438,#439,#440);
#438 = CARTESIAN_POINT('',(53.131023074184,37.483502830073,
    27.021399719439));
#439 = DIRECTION('',(4.947689889514E-05,0.99999995723,2.882555979477E-04
    ));
#440 = DIRECTION('',(-9.370332508146E-25,-2.882555983005E-04,
    0.999999958454));
#441 = DEFINITIONAL_REPRESENTATION('',(#442),#446);
#442 = LINE('',#443,#444);
#443 = CARTESIAN_POINT('',(-27.01526908548,-106.2556469473));
#444 = VECTOR('',#445,1.);
#445 = DIRECTION('',(2.297710742437E-05,0.999999999736));
#446 = ( GEOMETRIC_REPRESENTATION_CONTEXT(2) 
PARAMETRIC_REPRESENTATION_CONTEXT() REPRESENTATION_CONTEXT('2D SPACE',''
  ) );
#447 = ADVANCED_FACE('',(#448),#246,.T.);
#448 = FACE_BOUND('',#449,.T.);
#449 = EDGE_LOOP('',(#450,#471,#472));
#450 = ORIENTED_EDGE('',*,*,#451,.F.);
#451 = EDGE_CURVE('',#231,#399,#452,.T.);
#452 = SURFACE_CURVE('',#453,(#457,#464),.PCURVE_S1.);
#453 = LINE('',#454,#455);
#454 = CARTESIAN_POINT('',(53.119796075313,-37.52373758404,
    1.31746288944E-02));
#455 = VECTOR('',#456,1.);
#456 = DIRECTION('',(2.513573524036E-04,0.999999966529,
    -6.133770980016E-05));
#457 = PCURVE('',#246,#458);
#458 = DEFINITIONAL_REPRESENTATION('',(#459),#463);
#459 = LINE('',#460,#461);
#460 = CARTESIAN_POINT('',(1.885515398516E-02,-75.01502677664));
#461 = VECTOR('',#462,1.);
#462 = DIRECTION('',(-2.513516851189E-04,0.999999968411));
#463 = ( GEOMETRIC_REPRESENTATION_CONTEXT(2) 
PARAMETRIC_REPRESENTATION_CONTEXT() REPRESENTATION_CONTEXT('2D SPACE',''
  ) );
#464 = PCURVE('',#272,#465);
#465 = DEFINITIONAL_REPRESENTATION('',(#466),#470);
#466 = LINE('',#467,#468);
#467 = CARTESIAN_POINT('',(-2.739428382131E-02,-27.01733676074));
#468 = VECTOR('',#469,1.);
#469 = DIRECTION('',(0.999999998119,-6.133770994884E-05));
#470 = ( GEOMETRIC_REPRESENTATION_CONTEXT(2) 
PARAMETRIC_REPRESENTATION_CONTEXT() REPRESENTATION_CONTEXT('2D SPACE',''
  ) );
#471 = ORIENTED_EDGE('',*,*,#230,.F.);
#472 = ORIENTED_EDGE('',*,*,#398,.T.);
#473 = ADVANCED_FACE('',(#474),#436,.T.);
#474 = FACE_BOUND('',#475,.T.);
#475 = EDGE_LOOP('',(#476,#504,#505));
#476 = ORIENTED_EDGE('',*,*,#477,.T.);
#477 = EDGE_CURVE('',#478,#399,#480,.T.);
#478 = VERTEX_POINT('',#479);
#479 = CARTESIAN_POINT('',(53.131023074184,37.483502830073,
    27.021399719439));
#480 = SURFACE_CURVE('',#481,(#485,#492),.PCURVE_S1.);
#481 = LINE('',#482,#483);
#482 = CARTESIAN_POINT('',(53.131023074184,37.483502830073,
    27.021399719439));
#483 = VECTOR('',#484,1.);
#484 = DIRECTION('',(2.824058293083E-04,2.882416142418E-04,
    -0.999999918582));
#485 = PCURVE('',#436,#486);
#486 = DEFINITIONAL_REPRESENTATION('',(#487),#491);
#487 = LINE('',#488,#489);
#488 = CARTESIAN_POINT('',(0.,0.));
#489 = VECTOR('',#490,1.);
#490 = DIRECTION('',(-0.999999960123,2.82405829654E-04));
#491 = ( GEOMETRIC_REPRESENTATION_CONTEXT(2) 
PARAMETRIC_REPRESENTATION_CONTEXT() REPRESENTATION_CONTEXT('2D SPACE',''
  ) );
#492 = PCURVE('',#493,#498);
#493 = PLANE('',#494);
#494 = AXIS2_PLACEMENT_3D('',#495,#496,#497);
#495 = CARTESIAN_POINT('',(53.117921847265,-37.49634282826,
    27.030511324148));
#496 = DIRECTION('',(0.999999944878,-1.746956581472E-04,
    2.82355482172E-04));
#497 = DIRECTION('',(-2.823554864806E-04,5.128030502693E-24,
    0.999999960138));
#498 = DEFINITIONAL_REPRESENTATION('',(#499),#503);
#499 = LINE('',#500,#501);
#500 = CARTESIAN_POINT('',(-9.115303549242E-03,-74.97984680247));
#501 = VECTOR('',#502,1.);
#502 = DIRECTION('',(-0.999999958458,-2.882416186402E-04));
#503 = ( GEOMETRIC_REPRESENTATION_CONTEXT(2) 
PARAMETRIC_REPRESENTATION_CONTEXT() REPRESENTATION_CONTEXT('2D SPACE',''
  ) );
#504 = ORIENTED_EDGE('',*,*,#422,.F.);
#505 = ORIENTED_EDGE('',*,*,#506,.T.);
#506 = EDGE_CURVE('',#24,#478,#507,.T.);
#507 = SURFACE_CURVE('',#508,(#512,#519),.PCURVE_S1.);
#508 = LINE('',#509,#510);
#509 = CARTESIAN_POINT('',(-53.12462374315,37.496547332309,
    6.133271735801E-03));
#510 = VECTOR('',#511,1.);
#511 = DIRECTION('',(0.969166086963,-1.189799278178E-04,0.246408363749)
  );
#512 = PCURVE('',#436,#513);
#513 = DEFINITIONAL_REPRESENTATION('',(#514),#518);
#514 = LINE('',#515,#516);
#515 = CARTESIAN_POINT('',(-27.01526908548,-106.2556469473));
#516 = VECTOR('',#517,1.);
#517 = DIRECTION('',(0.246408387809,0.969166088149));
#518 = ( GEOMETRIC_REPRESENTATION_CONTEXT(2) 
PARAMETRIC_REPRESENTATION_CONTEXT() REPRESENTATION_CONTEXT('2D SPACE',''
  ) );
#519 = PCURVE('',#155,#520);
#520 = DEFINITIONAL_REPRESENTATION('',(#521),#525);
#521 = LINE('',#522,#523);
#522 = CARTESIAN_POINT('',(-27.01521646521,-106.2556603259));
#523 = VECTOR('',#524,1.);
#524 = DIRECTION('',(0.246407907855,0.969166210176));
#525 = ( GEOMETRIC_REPRESENTATION_CONTEXT(2) 
PARAMETRIC_REPRESENTATION_CONTEXT() REPRESENTATION_CONTEXT('2D SPACE',''
  ) );
#526 = ADVANCED_FACE('',(#527),#155,.T.);
#527 = FACE_BOUND('',#528,.T.);
#528 = EDGE_LOOP('',(#529,#530,#531));
#529 = ORIENTED_EDGE('',*,*,#506,.F.);
#530 = ORIENTED_EDGE('',*,*,#141,.F.);
#531 = ORIENTED_EDGE('',*,*,#532,.T.);
#532 = EDGE_CURVE('',#114,#478,#533,.T.);
#533 = SURFACE_CURVE('',#534,(#538,#545),.PCURVE_S1.);
#534 = LINE('',#535,#536);
#535 = CARTESIAN_POINT('',(-53.19962895731,37.537176890142,
    27.059334980083));
#536 = VECTOR('',#537,1.);
#537 = DIRECTION('',(0.999999808955,-5.047843570053E-04,
    -3.567668651716E-04));
#538 = PCURVE('',#155,#539);
#539 = DEFINITIONAL_REPRESENTATION('',(#540),#544);
#540 = LINE('',#541,#542);
#541 = CARTESIAN_POINT('',(3.801575261871E-02,-106.3306655496));
#542 = VECTOR('',#543,1.);
#543 = DIRECTION('',(-3.575238619315E-04,0.999999936088));
#544 = ( GEOMETRIC_REPRESENTATION_CONTEXT(2) 
PARAMETRIC_REPRESENTATION_CONTEXT() REPRESENTATION_CONTEXT('2D SPACE',''
  ) );
#545 = PCURVE('',#356,#546);
#546 = DEFINITIONAL_REPRESENTATION('',(#547),#551);
#547 = LINE('',#548,#549);
#548 = CARTESIAN_POINT('',(-1.09035019441E-02,-106.3306717863));
#549 = VECTOR('',#550,1.);
#550 = DIRECTION('',(1.025433367776E-04,0.999999994742));
#551 = ( GEOMETRIC_REPRESENTATION_CONTEXT(2) 
PARAMETRIC_REPRESENTATION_CONTEXT() REPRESENTATION_CONTEXT('2D SPACE',''
  ) );
#552 = ADVANCED_FACE('',(#553),#272,.T.);
#553 = FACE_BOUND('',#554,.T.);
#554 = EDGE_LOOP('',(#555,#556,#557));
#555 = ORIENTED_EDGE('',*,*,#258,.T.);
#556 = ORIENTED_EDGE('',*,*,#451,.T.);
#557 = ORIENTED_EDGE('',*,*,#558,.F.);
#558 = EDGE_CURVE('',#172,#399,#559,.T.);
#559 = SURFACE_CURVE('',#560,(#564,#571),.PCURVE_S1.);
#560 = LINE('',#561,#562);
#561 = CARTESIAN_POINT('',(53.117921847265,-37.49634282826,
    27.030511324148));
#562 = VECTOR('',#563,1.);
#563 = DIRECTION('',(2.600725634456E-04,0.940781816967,-0.339012544349)
  );
#564 = PCURVE('',#272,#565);
#565 = DEFINITIONAL_REPRESENTATION('',(#566),#570);
#566 = LINE('',#567,#568);
#567 = CARTESIAN_POINT('',(0.,0.));
#568 = VECTOR('',#569,1.);
#569 = DIRECTION('',(0.940781852619,-0.33901254517));
#570 = ( GEOMETRIC_REPRESENTATION_CONTEXT(2) 
PARAMETRIC_REPRESENTATION_CONTEXT() REPRESENTATION_CONTEXT('2D SPACE',''
  ) );
#571 = PCURVE('',#493,#572);
#572 = DEFINITIONAL_REPRESENTATION('',(#573),#577);
#573 = LINE('',#574,#575);
#574 = CARTESIAN_POINT('',(0.,-0.));
#575 = VECTOR('',#576,1.);
#576 = DIRECTION('',(-0.339012604268,-0.940781831323));
#577 = ( GEOMETRIC_REPRESENTATION_CONTEXT(2) 
PARAMETRIC_REPRESENTATION_CONTEXT() REPRESENTATION_CONTEXT('2D SPACE',''
  ) );
#578 = ADVANCED_FACE('',(#579),#493,.T.);
#579 = FACE_BOUND('',#580,.T.);
#580 = EDGE_LOOP('',(#581,#582,#583));
#581 = ORIENTED_EDGE('',*,*,#558,.T.);
#582 = ORIENTED_EDGE('',*,*,#477,.F.);
#583 = ORIENTED_EDGE('',*,*,#584,.F.);
#584 = EDGE_CURVE('',#172,#478,#585,.T.);
#585 = SURFACE_CURVE('',#586,(#590,#597),.PCURVE_S1.);
#586 = LINE('',#587,#588);
#587 = CARTESIAN_POINT('',(53.117921847265,-37.49634282826,
    27.030511324148));
#588 = VECTOR('',#589,1.);
#589 = DIRECTION('',(1.747299758622E-04,0.999999977351,
    -1.215207156374E-04));
#590 = PCURVE('',#493,#591);
#591 = DEFINITIONAL_REPRESENTATION('',(#592),#596);
#592 = LINE('',#593,#594);
#593 = CARTESIAN_POINT('',(0.,-0.));
#594 = VECTOR('',#595,1.);
#595 = DIRECTION('',(-1.215700467606E-04,-0.99999999261));
#596 = ( GEOMETRIC_REPRESENTATION_CONTEXT(2) 
PARAMETRIC_REPRESENTATION_CONTEXT() REPRESENTATION_CONTEXT('2D SPACE',''
  ) );
#597 = PCURVE('',#598,#603);
#598 = PLANE('',#599);
#599 = AXIS2_PLACEMENT_3D('',#600,#601,#602);
#600 = CARTESIAN_POINT('',(46.37090550774,30.789100652131,
    33.805049432797));
#601 = DIRECTION('',(0.708353048518,-3.799410466624E-05,0.705858312419)
  );
#602 = DIRECTION('',(-0.705858312929,-1.333951024228E-21,0.708353049029)
  );
#603 = DEFINITIONAL_REPRESENTATION('',(#604),#608);
#604 = LINE('',#605,#606);
#605 = CARTESIAN_POINT('',(-9.561202295747,68.285443529681));
#606 = VECTOR('',#607,1.);
#607 = DIRECTION('',(-2.094141754222E-04,-0.999999978073));
#608 = ( GEOMETRIC_REPRESENTATION_CONTEXT(2) 
PARAMETRIC_REPRESENTATION_CONTEXT() REPRESENTATION_CONTEXT('2D SPACE',''
  ) );
#609 = ADVANCED_FACE('',(#610),#187,.T.);
#610 = FACE_BOUND('',#611,.T.);
#611 = EDGE_LOOP('',(#612,#638,#639));
#612 = ORIENTED_EDGE('',*,*,#613,.F.);
#613 = EDGE_CURVE('',#289,#172,#614,.T.);
#614 = SURFACE_CURVE('',#615,(#619,#626),.PCURVE_S1.);
#615 = LINE('',#616,#617);
#616 = CARTESIAN_POINT('',(-46.39873011427,-30.754614671,33.789625365559
    ));
#617 = VECTOR('',#618,1.);
#618 = DIRECTION('',(0.995430316786,-6.743515243925E-02,
    -6.760905736697E-02));
#619 = PCURVE('',#187,#620);
#620 = DEFINITIONAL_REPRESENTATION('',(#621),#625);
#621 = LINE('',#622,#623);
#622 = CARTESIAN_POINT('',(9.546459033095,99.5166602069));
#623 = VECTOR('',#624,1.);
#624 = DIRECTION('',(-9.548989593394E-02,-0.995430399262));
#625 = ( GEOMETRIC_REPRESENTATION_CONTEXT(2) 
PARAMETRIC_REPRESENTATION_CONTEXT() REPRESENTATION_CONTEXT('2D SPACE',''
  ) );
#626 = PCURVE('',#627,#632);
#627 = PLANE('',#628);
#628 = AXIS2_PLACEMENT_3D('',#629,#630,#631);
#629 = CARTESIAN_POINT('',(46.38231860133,-30.76647923606,
    33.776222923107));
#630 = DIRECTION('',(1.149562394227E-05,-0.707932148256,0.706280449492)
  );
#631 = DIRECTION('',(9.73302474284E-23,-0.706280449538,-0.707932148302)
  );
#632 = DEFINITIONAL_REPRESENTATION('',(#633),#637);
#633 = LINE('',#634,#635);
#634 = CARTESIAN_POINT('',(-1.786773022373E-02,-92.78104872173));
#635 = VECTOR('',#636,1.);
#636 = DIRECTION('',(9.549075500597E-02,0.995430316852));
#637 = ( GEOMETRIC_REPRESENTATION_CONTEXT(2) 
PARAMETRIC_REPRESENTATION_CONTEXT() REPRESENTATION_CONTEXT('2D SPACE',''
  ) );
#638 = ORIENTED_EDGE('',*,*,#288,.F.);
#639 = ORIENTED_EDGE('',*,*,#171,.T.);
#640 = ADVANCED_FACE('',(#641),#627,.T.);
#641 = FACE_BOUND('',#642,.T.);
#642 = EDGE_LOOP('',(#643,#666,#667));
#643 = ORIENTED_EDGE('',*,*,#644,.F.);
#644 = EDGE_CURVE('',#289,#645,#647,.T.);
#645 = VERTEX_POINT('',#646);
#646 = CARTESIAN_POINT('',(46.38231860133,-30.76647923606,
    33.776222923107));
#647 = SURFACE_CURVE('',#648,(#652,#659),.PCURVE_S1.);
#648 = LINE('',#649,#650);
#649 = CARTESIAN_POINT('',(-46.39873011427,-30.754614671,33.789625365559
    ));
#650 = VECTOR('',#651,1.);
#651 = DIRECTION('',(0.99999998139,-1.278770288456E-04,
    -1.444523680997E-04));
#652 = PCURVE('',#627,#653);
#653 = DEFINITIONAL_REPRESENTATION('',(#654),#658);
#654 = LINE('',#655,#656);
#655 = CARTESIAN_POINT('',(-1.786773022373E-02,-92.78104872173));
#656 = VECTOR('',#657,1.);
#657 = DIRECTION('',(1.925795206948E-04,0.999999981457));
#658 = ( GEOMETRIC_REPRESENTATION_CONTEXT(2) 
PARAMETRIC_REPRESENTATION_CONTEXT() REPRESENTATION_CONTEXT('2D SPACE',''
  ) );
#659 = PCURVE('',#383,#660);
#660 = DEFINITIONAL_REPRESENTATION('',(#661),#665);
#661 = LINE('',#662,#663);
#662 = CARTESIAN_POINT('',(1.187177346144E-02,92.781049682694));
#663 = VECTOR('',#664,1.);
#664 = DIRECTION('',(-1.279547214097E-04,-0.999999991814));
#665 = ( GEOMETRIC_REPRESENTATION_CONTEXT(2) 
PARAMETRIC_REPRESENTATION_CONTEXT() REPRESENTATION_CONTEXT('2D SPACE',''
  ) );
#666 = ORIENTED_EDGE('',*,*,#613,.T.);
#667 = ORIENTED_EDGE('',*,*,#668,.F.);
#668 = EDGE_CURVE('',#645,#172,#669,.T.);
#669 = SURFACE_CURVE('',#670,(#674,#681),.PCURVE_S1.);
#670 = LINE('',#671,#672);
#671 = CARTESIAN_POINT('',(46.38231860133,-30.76647923606,
    33.776222923107));
#672 = VECTOR('',#673,1.);
#673 = DIRECTION('',(0.577225200493,-0.576733325799,-0.578091462338));
#674 = PCURVE('',#627,#675);
#675 = DEFINITIONAL_REPRESENTATION('',(#676),#680);
#676 = LINE('',#677,#678);
#677 = CARTESIAN_POINT('',(0.,0.));
#678 = VECTOR('',#679,1.);
#679 = DIRECTION('',(0.816585003458,0.577225200531));
#680 = ( GEOMETRIC_REPRESENTATION_CONTEXT(2) 
PARAMETRIC_REPRESENTATION_CONTEXT() REPRESENTATION_CONTEXT('2D SPACE',''
  ) );
#681 = PCURVE('',#682,#687);
#682 = PLANE('',#683);
#683 = AXIS2_PLACEMENT_3D('',#684,#685,#686);
#684 = CARTESIAN_POINT('',(46.37090550774,30.789100652131,
    33.805049432797));
#685 = DIRECTION('',(0.707537112091,-1.997515077769E-04,0.70667616));
#686 = DIRECTION('',(-0.706676174099,-1.000984739155E-20,0.707537126207)
  );
#687 = DEFINITIONAL_REPRESENTATION('',(#688),#692);
#688 = LINE('',#689,#690);
#689 = CARTESIAN_POINT('',(-2.846118713681E-02,61.555581116251));
#690 = VECTOR('',#691,1.);
#691 = DIRECTION('',(-0.816932468225,0.576733337306));
#692 = ( GEOMETRIC_REPRESENTATION_CONTEXT(2) 
PARAMETRIC_REPRESENTATION_CONTEXT() REPRESENTATION_CONTEXT('2D SPACE',''
  ) );
#693 = ADVANCED_FACE('',(#694),#383,.T.);
#694 = FACE_BOUND('',#695,.T.);
#695 = EDGE_LOOP('',(#696,#722,#723));
#696 = ORIENTED_EDGE('',*,*,#697,.F.);
#697 = EDGE_CURVE('',#341,#645,#698,.T.);
#698 = SURFACE_CURVE('',#699,(#703,#710),.PCURVE_S1.);
#699 = LINE('',#700,#701);
#700 = CARTESIAN_POINT('',(-46.36655842979,30.814812277626,
    33.822743241946));
#701 = VECTOR('',#702,1.);
#702 = DIRECTION('',(0.833090524967,-0.553136513535,-4.17855591176E-04)
  );
#703 = PCURVE('',#383,#704);
#704 = DEFINITIONAL_REPRESENTATION('',(#705),#709);
#705 = LINE('',#706,#707);
#706 = CARTESIAN_POINT('',(61.581307629056,92.748877997874));
#707 = VECTOR('',#708,1.);
#708 = DIRECTION('',(-0.553136658287,-0.833090533651));
#709 = ( GEOMETRIC_REPRESENTATION_CONTEXT(2) 
PARAMETRIC_REPRESENTATION_CONTEXT() REPRESENTATION_CONTEXT('2D SPACE',''
  ) );
#710 = PCURVE('',#711,#716);
#711 = PLANE('',#712);
#712 = AXIS2_PLACEMENT_3D('',#713,#714,#715);
#713 = CARTESIAN_POINT('',(46.37090550774,30.789100652131,
    33.805049432797));
#714 = DIRECTION('',(1.906647678298E-04,-4.682651025678E-04,
    0.999999872187));
#715 = DIRECTION('',(2.260750643672E-24,0.999999890364,
    4.682651110792E-04));
#716 = DEFINITIONAL_REPRESENTATION('',(#717),#721);
#717 = LINE('',#718,#719);
#718 = CARTESIAN_POINT('',(2.571990806974E-02,92.73746562318));
#719 = VECTOR('',#720,1.);
#720 = DIRECTION('',(-0.553136648559,-0.83309054011));
#721 = ( GEOMETRIC_REPRESENTATION_CONTEXT(2) 
PARAMETRIC_REPRESENTATION_CONTEXT() REPRESENTATION_CONTEXT('2D SPACE',''
  ) );
#722 = ORIENTED_EDGE('',*,*,#369,.F.);
#723 = ORIENTED_EDGE('',*,*,#644,.T.);
#724 = ADVANCED_FACE('',(#725),#711,.T.);
#725 = FACE_BOUND('',#726,.T.);
#726 = EDGE_LOOP('',(#727,#755,#756));
#727 = ORIENTED_EDGE('',*,*,#728,.F.);
#728 = EDGE_CURVE('',#341,#729,#731,.T.);
#729 = VERTEX_POINT('',#730);
#730 = CARTESIAN_POINT('',(46.37090550774,30.789100652131,
    33.805049432797));
#731 = SURFACE_CURVE('',#732,(#736,#743),.PCURVE_S1.);
#732 = LINE('',#733,#734);
#733 = CARTESIAN_POINT('',(-46.36655842979,30.814812277626,
    33.822743241946));
#734 = VECTOR('',#735,1.);
#735 = DIRECTION('',(0.999999943364,-2.772517486167E-04,
    -1.907946087358E-04));
#736 = PCURVE('',#711,#737);
#737 = DEFINITIONAL_REPRESENTATION('',(#738),#742);
#738 = LINE('',#739,#740);
#739 = CARTESIAN_POINT('',(2.571990806974E-02,92.73746562318));
#740 = VECTOR('',#741,1.);
#741 = DIRECTION('',(-2.773410606785E-04,-0.999999961541));
#742 = ( GEOMETRIC_REPRESENTATION_CONTEXT(2) 
PARAMETRIC_REPRESENTATION_CONTEXT() REPRESENTATION_CONTEXT('2D SPACE',''
  ) );
#743 = PCURVE('',#744,#749);
#744 = PLANE('',#745);
#745 = AXIS2_PLACEMENT_3D('',#746,#747,#748);
#746 = CARTESIAN_POINT('',(46.37090550774,30.789100652131,
    33.805049432797));
#747 = DIRECTION('',(3.313424411077E-04,0.71160828082,0.702576362313));
#748 = DIRECTION('',(7.44693155311E-21,-0.70257640088,0.711608319883));
#749 = DEFINITIONAL_REPRESENTATION('',(#750),#754);
#750 = LINE('',#751,#752);
#751 = CARTESIAN_POINT('',(-5.473319500168E-03,-92.73746902825));
#752 = VECTOR('',#753,1.);
#753 = DIRECTION('',(5.90195047157E-05,0.999999998258));
#754 = ( GEOMETRIC_REPRESENTATION_CONTEXT(2) 
PARAMETRIC_REPRESENTATION_CONTEXT() REPRESENTATION_CONTEXT('2D SPACE',''
  ) );
#755 = ORIENTED_EDGE('',*,*,#697,.T.);
#756 = ORIENTED_EDGE('',*,*,#757,.F.);
#757 = EDGE_CURVE('',#729,#645,#758,.T.);
#758 = SURFACE_CURVE('',#759,(#763,#770),.PCURVE_S1.);
#759 = LINE('',#760,#761);
#760 = CARTESIAN_POINT('',(46.37090550774,30.789100652131,
    33.805049432797));
#761 = VECTOR('',#762,1.);
#762 = DIRECTION('',(1.854111708958E-04,-0.999999873159,
    -4.68300454405E-04));
#763 = PCURVE('',#711,#764);
#764 = DEFINITIONAL_REPRESENTATION('',(#765),#769);
#765 = LINE('',#766,#767);
#766 = CARTESIAN_POINT('',(0.,0.));
#767 = VECTOR('',#768,1.);
#768 = DIRECTION('',(-0.999999982811,-1.85411174266E-04));
#769 = ( GEOMETRIC_REPRESENTATION_CONTEXT(2) 
PARAMETRIC_REPRESENTATION_CONTEXT() REPRESENTATION_CONTEXT('2D SPACE',''
  ) );
#770 = PCURVE('',#682,#771);
#771 = DEFINITIONAL_REPRESENTATION('',(#772),#776);
#772 = LINE('',#773,#774);
#773 = CARTESIAN_POINT('',(0.,-0.));
#774 = VECTOR('',#775,1.);
#775 = DIRECTION('',(-4.623656145949E-04,0.999999893109));
#776 = ( GEOMETRIC_REPRESENTATION_CONTEXT(2) 
PARAMETRIC_REPRESENTATION_CONTEXT() REPRESENTATION_CONTEXT('2D SPACE',''
  ) );
#777 = ADVANCED_FACE('',(#778),#356,.T.);
#778 = FACE_BOUND('',#779,.T.);
#779 = EDGE_LOOP('',(#780,#781,#782));
#780 = ORIENTED_EDGE('',*,*,#532,.F.);
#781 = ORIENTED_EDGE('',*,*,#340,.T.);
#782 = ORIENTED_EDGE('',*,*,#783,.T.);
#783 = EDGE_CURVE('',#341,#478,#784,.T.);
#784 = SURFACE_CURVE('',#785,(#789,#796),.PCURVE_S1.);
#785 = LINE('',#786,#787);
#786 = CARTESIAN_POINT('',(-46.36655842979,30.814812277626,
    33.822743241946));
#787 = VECTOR('',#788,1.);
#788 = DIRECTION('',(0.995448843647,6.671860962574E-02,
    -6.804576998137E-02));
#789 = PCURVE('',#356,#790);
#790 = DEFINITIONAL_REPRESENTATION('',(#791),#795);
#791 = LINE('',#792,#793);
#792 = CARTESIAN_POINT('',(9.52502120157,-99.49759998937));
#793 = VECTOR('',#794,1.);
#794 = DIRECTION('',(-9.529549560391E-02,0.995449028588));
#795 = ( GEOMETRIC_REPRESENTATION_CONTEXT(2) 
PARAMETRIC_REPRESENTATION_CONTEXT() REPRESENTATION_CONTEXT('2D SPACE',''
  ) );
#796 = PCURVE('',#744,#797);
#797 = DEFINITIONAL_REPRESENTATION('',(#798),#802);
#798 = LINE('',#799,#800);
#799 = CARTESIAN_POINT('',(-5.473319500168E-03,-92.73746902825));
#800 = VECTOR('',#801,1.);
#801 = DIRECTION('',(-9.529685667415E-02,0.995448898291));
#802 = ( GEOMETRIC_REPRESENTATION_CONTEXT(2) 
PARAMETRIC_REPRESENTATION_CONTEXT() REPRESENTATION_CONTEXT('2D SPACE',''
  ) );
#803 = ADVANCED_FACE('',(#804),#744,.T.);
#804 = FACE_BOUND('',#805,.T.);
#805 = EDGE_LOOP('',(#806,#827,#828));
#806 = ORIENTED_EDGE('',*,*,#807,.T.);
#807 = EDGE_CURVE('',#729,#478,#808,.T.);
#808 = SURFACE_CURVE('',#809,(#813,#820),.PCURVE_S1.);
#809 = LINE('',#810,#811);
#810 = CARTESIAN_POINT('',(46.37090550774,30.789100652131,
    33.805049432797));
#811 = VECTOR('',#812,1.);
#812 = DIRECTION('',(0.578544597427,0.572920540949,-0.580558526375));
#813 = PCURVE('',#744,#814);
#814 = DEFINITIONAL_REPRESENTATION('',(#815),#819);
#815 = LINE('',#816,#817);
#816 = CARTESIAN_POINT('',(0.,0.));
#817 = VECTOR('',#818,1.);
#818 = DIRECTION('',(-0.815650729198,0.578544629185));
#819 = ( GEOMETRIC_REPRESENTATION_CONTEXT(2) 
PARAMETRIC_REPRESENTATION_CONTEXT() REPRESENTATION_CONTEXT('2D SPACE',''
  ) );
#820 = PCURVE('',#598,#821);
#821 = DEFINITIONAL_REPRESENTATION('',(#822),#826);
#822 = LINE('',#823,#824);
#823 = CARTESIAN_POINT('',(0.,-0.));
#824 = VECTOR('',#825,1.);
#825 = DIRECTION('',(-0.819610915791,-0.572920541363));
#826 = ( GEOMETRIC_REPRESENTATION_CONTEXT(2) 
PARAMETRIC_REPRESENTATION_CONTEXT() REPRESENTATION_CONTEXT('2D SPACE',''
  ) );
#827 = ORIENTED_EDGE('',*,*,#783,.F.);
#828 = ORIENTED_EDGE('',*,*,#728,.T.);
#829 = ADVANCED_FACE('',(#830),#682,.T.);
#830 = FACE_BOUND('',#831,.T.);
#831 = EDGE_LOOP('',(#832,#833,#834));
#832 = ORIENTED_EDGE('',*,*,#757,.T.);
#833 = ORIENTED_EDGE('',*,*,#668,.T.);
#834 = ORIENTED_EDGE('',*,*,#835,.F.);
#835 = EDGE_CURVE('',#729,#172,#836,.T.);
#836 = SURFACE_CURVE('',#837,(#841,#848),.PCURVE_S1.);
#837 = LINE('',#838,#839);
#838 = CARTESIAN_POINT('',(46.37090550774,30.789100652131,
    33.805049432797));
#839 = VECTOR('',#840,1.);
#840 = DIRECTION('',(9.785153228699E-02,-0.99033927609,
    -9.825067868659E-02));
#841 = PCURVE('',#682,#842);
#842 = DEFINITIONAL_REPRESENTATION('',(#843),#847);
#843 = LINE('',#844,#845);
#844 = CARTESIAN_POINT('',(0.,-0.));
#845 = VECTOR('',#846,1.);
#846 = DIRECTION('',(-0.138665349312,0.990339295848));
#847 = ( GEOMETRIC_REPRESENTATION_CONTEXT(2) 
PARAMETRIC_REPRESENTATION_CONTEXT() REPRESENTATION_CONTEXT('2D SPACE',''
  ) );
#848 = PCURVE('',#598,#849);
#849 = DEFINITIONAL_REPRESENTATION('',(#850),#854);
#850 = LINE('',#851,#852);
#851 = CARTESIAN_POINT('',(0.,-0.));
#852 = VECTOR('',#853,1.);
#853 = DIRECTION('',(-0.138665485314,0.990339276805));
#854 = ( GEOMETRIC_REPRESENTATION_CONTEXT(2) 
PARAMETRIC_REPRESENTATION_CONTEXT() REPRESENTATION_CONTEXT('2D SPACE',''
  ) );
#855 = ADVANCED_FACE('',(#856),#598,.T.);
#856 = FACE_BOUND('',#857,.T.);
#857 = EDGE_LOOP('',(#858,#859,#860));
#858 = ORIENTED_EDGE('',*,*,#835,.T.);
#859 = ORIENTED_EDGE('',*,*,#584,.T.);
#860 = ORIENTED_EDGE('',*,*,#807,.F.);
#861 = ( GEOMETRIC_REPRESENTATION_CONTEXT(3) 
GLOBAL_UNCERTAINTY_ASSIGNED_CONTEXT((#865)) GLOBAL_UNIT_ASSIGNED_CONTEXT
((#862,#863,#864)) REPRESENTATION_CONTEXT('Context #1',
  '3D Context with UNIT and UNCERTAINTY') );
#862 = ( LENGTH_UNIT() NAMED_UNIT(*) SI_UNIT(.MILLI.,.METRE.) );
#863 = ( NAMED_UNIT(*) PLANE_ANGLE_UNIT() SI_UNIT($,.RADIAN.) );
#864 = ( NAMED_UNIT(*) SI_UNIT($,.STERADIAN.) SOLID_ANGLE_UNIT() );
#865 = UNCERTAINTY_MEASURE_WITH_UNIT(LENGTH_MEASURE(1.E-07),#862,
  'distance_accuracy_value','confusion accuracy');
#866 = PRODUCT_TYPE('part',$,(#7));
ENDSEC;
END-ISO-10303-21;
