ISO-10303-21;
HEADER;
FILE_DESCRIPTION(('Open CASCADE Model'),'2;1');
FILE_NAME('Open CASCADE Shape Model','2026-10-04T20:44:42',('Author'),(
    'Open CASCADE'),'Open CASCADE STEP processor 7.8','Open CASCADE 7.8'
  ,'Unknown');
FILE_SCHEMA(('AUTOMOTIVE_DESIGN_CC2 { 1 2 10303 214 -1 1 5 4 }'));
ENDSEC;
DATA;
#1 = APPLICATION_PROTOCOL_DEFINITION('committee draft',
  'automotive_design',1997,#2);
#2 = APPLICATION_CONTEXT(
  'core data for automotive mechanical design processes');
#3 = SHAPE_DEFINITION_REPRESENTATION(#4,#10);
#4 = PRODUCT_DEFINITION_SHAPE('','',#5);
#5 = PRODUCT_DEFINITION('design','',#6,#9);
#6 = PRODUCT_DEFINITION_FORMATION('','',#7);
#7 = PRODUCT('Open CASCADE STEP translator 7.8 105',
  'Open CASCADE STEP translator 7.8 105','',(#8));
#8 = MECHANICAL_CONTEXT('',#2,'mechanical');
#9 = PRODUCT_DEFINITION_CONTEXT('part definition',#2,'design');
#10 = ADVANCED_BREP_SHAPE_REPRESENTATION('',(#11,#15),#861);
#11 = AXIS2_PLACEMENT_3D('',#12,#13,#14);
#12 = CARTESIAN_POINT('',(0.,0.,0.));
#13 = DIRECTION('',(0.,0.,1.));
#14 = DIRECTION('',(1.,0.,-0.));
#15 = MANIFOLD_SOLID_BREP('',#16);
#16 = CLOSED_SHELL('',(#17,#109,#167,#225,#283,#341,#399,#452,#483,#531,
    #562,#588,#619,#667,#698,#729,#777,#803,#829,#855));
#17 = ADVANCED_FACE('',(#18),#32,.T.);
#18 = FACE_BOUND('',#19,.T.);
#19 = EDGE_LOOP('',(#20,#55,#83));
#20 = ORIENTED_EDGE('',*,*,#21,.T.);
#21 = EDGE_CURVE('',#22,#24,#26,.T.);
#22 = VERTEX_POINT('',#23);
#23 = CARTESIAN_POINT('',(-31.96689512203,-43.5053639014,
    3.409001664487E-03));
#24 = VERTEX_POINT('',#25);
#25 = CARTESIAN_POINT('',(-31.92427214456,43.52615349589,10.199998286887
    ));
#26 = SURFACE_CURVE('',#27,(#31,#43),.PCURVE_S1.);
#27 = LINE('',#28,#29);
#28 = CARTESIAN_POINT('',(-31.96689512203,-43.5053639014,
    3.409001664487E-03));
#29 = VECTOR('',#30,1.);
#30 = DIRECTION('',(4.864148202162E-04,0.993206537748,0.116363812142));
#31 = PCURVE('',#32,#37);
#32 = PLANE('',#33);
#33 = AXIS2_PLACEMENT_3D('',#34,#35,#36);
#34 = CARTESIAN_POINT('',(-31.96689512203,-43.5053639014,
    3.409001664487E-03));
#35 = DIRECTION('',(-0.999997170049,2.121213659768E-04,
    2.369577887895E-03));
#36 = DIRECTION('',(-2.369577941205E-03,7.274178879746E-23,
    -0.999997192546));
#37 = DEFINITIONAL_REPRESENTATION('',(#38),#42);
#38 = LINE('',#39,#40);
#39 = CARTESIAN_POINT('',(0.,0.));
#40 = VECTOR('',#41,1.);
#41 = DIRECTION('',(-0.116364638053,-0.993206560092));
#42 = ( GEOMETRIC_REPRESENTATION_CONTEXT(2) 
PARAMETRIC_REPRESENTATION_CONTEXT() REPRESENTATION_CONTEXT('2D SPACE',''
  ) );
#43 = PCURVE('',#44,#49);
#44 = PLANE('',#45);
#45 = AXIS2_PLACEMENT_3D('',#46,#47,#48);
#46 = CARTESIAN_POINT('',(-31.97016660862,-43.46853530913,
    10.221114076413));
#47 = DIRECTION('',(-0.999999809017,5.274765042592E-04,
    -3.220793864495E-04));
#48 = DIRECTION('',(-5.274765316182E-04,-0.999999860884,
    -1.955951990655E-23));
#49 = DEFINITIONAL_REPRESENTATION('',(#50),#54);
#50 = LINE('',#51,#52);
#51 = CARTESIAN_POINT('',(3.682686150756E-02,-10.21770560471));
#52 = VECTOR('',#53,1.);
#53 = DIRECTION('',(-0.993206656149,0.116363818177));
#54 = ( GEOMETRIC_REPRESENTATION_CONTEXT(2) 
PARAMETRIC_REPRESENTATION_CONTEXT() REPRESENTATION_CONTEXT('2D SPACE',''
  ) );
#55 = ORIENTED_EDGE('',*,*,#56,.F.);
#56 = EDGE_CURVE('',#57,#24,#59,.T.);
#57 = VERTEX_POINT('',#58);
#58 = CARTESIAN_POINT('',(-31.94842588787,43.522085714359,
    7.122914509046E-03));
#59 = SURFACE_CURVE('',#60,(#64,#71),.PCURVE_S1.);
#60 = LINE('',#61,#62);
#61 = CARTESIAN_POINT('',(-31.94842588787,43.522085714359,
    7.122914509046E-03));
#62 = VECTOR('',#63,1.);
#63 = DIRECTION('',(2.369662405609E-03,3.990797137704E-04,0.999997112714
    ));
#64 = PCURVE('',#32,#65);
#65 = DEFINITIONAL_REPRESENTATION('',(#66),#70);
#66 = LINE('',#67,#68);
#67 = CARTESIAN_POINT('',(-3.757666707784E-03,-87.02745157368));
#68 = VECTOR('',#69,1.);
#69 = DIRECTION('',(-0.999999920368,-3.990797227488E-04));
#70 = ( GEOMETRIC_REPRESENTATION_CONTEXT(2) 
PARAMETRIC_REPRESENTATION_CONTEXT() REPRESENTATION_CONTEXT('2D SPACE',''
  ) );
#71 = PCURVE('',#72,#77);
#72 = PLANE('',#73);
#73 = AXIS2_PLACEMENT_3D('',#74,#75,#76);
#74 = CARTESIAN_POINT('',(31.928271594775,43.501499682857,
    10.241725762341));
#75 = DIRECTION('',(3.863667539885E-04,0.999999845362,
    -3.999963657332E-04));
#76 = DIRECTION('',(8.746327459699E-24,3.999963955888E-04,0.999999920001
    ));
#77 = DEFINITIONAL_REPRESENTATION('',(#78),#82);
#78 = LINE('',#79,#80);
#79 = CARTESIAN_POINT('',(-10.23459379474,-63.87670225038));
#80 = VECTOR('',#81,1.);
#81 = DIRECTION('',(0.999997192346,2.369662582479E-03));
#82 = ( GEOMETRIC_REPRESENTATION_CONTEXT(2) 
PARAMETRIC_REPRESENTATION_CONTEXT() REPRESENTATION_CONTEXT('2D SPACE',''
  ) );
#83 = ORIENTED_EDGE('',*,*,#84,.F.);
#84 = EDGE_CURVE('',#22,#57,#85,.T.);
#85 = SURFACE_CURVE('',#86,(#90,#97),.PCURVE_S1.);
#86 = LINE('',#87,#88);
#87 = CARTESIAN_POINT('',(-31.96689512203,-43.5053639014,
    3.409001664487E-03));
#88 = VECTOR('',#89,1.);
#89 = DIRECTION('',(2.122230837692E-04,0.99999997657,4.267518781649E-05)
  );
#90 = PCURVE('',#32,#91);
#91 = DEFINITIONAL_REPRESENTATION('',(#92),#96);
#92 = LINE('',#93,#94);
#93 = CARTESIAN_POINT('',(0.,0.));
#94 = VECTOR('',#95,1.);
#95 = DIRECTION('',(-4.317794714579E-05,-0.999999999068));
#96 = ( GEOMETRIC_REPRESENTATION_CONTEXT(2) 
PARAMETRIC_REPRESENTATION_CONTEXT() REPRESENTATION_CONTEXT('2D SPACE',''
  ) );
#97 = PCURVE('',#98,#103);
#98 = PLANE('',#99);
#99 = AXIS2_PLACEMENT_3D('',#100,#101,#102);
#100 = CARTESIAN_POINT('',(31.942946627134,43.480899558852,
    -2.449851327534E-02));
#101 = DIRECTION('',(-4.948972089016E-04,4.278021216552E-05,
    -0.999999876623));
#102 = DIRECTION('',(-0.999999877538,1.31637078586E-24,
    4.948972093545E-04));
#103 = DEFINITIONAL_REPRESENTATION('',(#104),#108);
#104 = LINE('',#105,#106);
#105 = CARTESIAN_POINT('',(63.909847734021,-86.98626353985));
#106 = VECTOR('',#107,1.);
#107 = DIRECTION('',(-2.122019379487E-04,0.999999977485));
#108 = ( GEOMETRIC_REPRESENTATION_CONTEXT(2) 
PARAMETRIC_REPRESENTATION_CONTEXT() REPRESENTATION_CONTEXT('2D SPACE',''
  ) );
#109 = ADVANCED_FACE('',(#110),#44,.T.);
#110 = FACE_BOUND('',#111,.T.);
#111 = EDGE_LOOP('',(#112,#140,#141));
#112 = ORIENTED_EDGE('',*,*,#113,.T.);
#113 = EDGE_CURVE('',#114,#24,#116,.T.);
#114 = VERTEX_POINT('',#115);
#115 = CARTESIAN_POINT('',(-31.97016660862,-43.46853530913,
    10.221114076413));
#116 = SURFACE_CURVE('',#117,(#121,#128),.PCURVE_S1.);
#117 = LINE('',#118,#119);
#118 = CARTESIAN_POINT('',(-31.97016660862,-43.46853530913,
    10.221114076413));
#119 = VECTOR('',#120,1.);
#120 = DIRECTION('',(5.275546927926E-04,0.999999831385,
    -2.427250014455E-04));
#121 = PCURVE('',#44,#122);
#122 = DEFINITIONAL_REPRESENTATION('',(#123),#127);
#123 = LINE('',#124,#125);
#124 = CARTESIAN_POINT('',(-0.,0.));
#125 = VECTOR('',#126,1.);
#126 = DIRECTION('',(-0.999999970542,-2.42725014035E-04));
#127 = ( GEOMETRIC_REPRESENTATION_CONTEXT(2) 
PARAMETRIC_REPRESENTATION_CONTEXT() REPRESENTATION_CONTEXT('2D SPACE',''
  ) );
#128 = PCURVE('',#129,#134);
#129 = PLANE('',#130);
#130 = AXIS2_PLACEMENT_3D('',#131,#132,#133);
#131 = CARTESIAN_POINT('',(-29.38172167623,40.918317917321,
    12.768184977231));
#132 = DIRECTION('',(-0.710367638019,5.455951577678E-04,0.703830605459)
  );
#133 = DIRECTION('',(-0.703830710215,-1.847377486272E-20,-0.710367743748
    ));
#134 = DEFINITIONAL_REPRESENTATION('',(#135),#139);
#135 = LINE('',#136,#137);
#136 = CARTESIAN_POINT('',(3.631184044103,84.386865786352));
#137 = VECTOR('',#138,1.);
#138 = DIRECTION('',(-1.988851824775E-04,-0.999999980222));
#139 = ( GEOMETRIC_REPRESENTATION_CONTEXT(2) 
PARAMETRIC_REPRESENTATION_CONTEXT() REPRESENTATION_CONTEXT('2D SPACE',''
  ) );
#140 = ORIENTED_EDGE('',*,*,#21,.F.);
#141 = ORIENTED_EDGE('',*,*,#142,.F.);
#142 = EDGE_CURVE('',#114,#22,#143,.T.);
#143 = SURFACE_CURVE('',#144,(#148,#155),.PCURVE_S1.);
#144 = LINE('',#145,#146);
#145 = CARTESIAN_POINT('',(-31.97016660862,-43.46853530913,
    10.221114076413));
#146 = VECTOR('',#147,1.);
#147 = DIRECTION('',(3.201761204417E-04,-3.604366232629E-03,
    -0.999993452994));
#148 = PCURVE('',#44,#149);
#149 = DEFINITIONAL_REPRESENTATION('',(#150),#154);
#150 = LINE('',#151,#152);
#151 = CARTESIAN_POINT('',(-0.,0.));
#152 = VECTOR('',#153,1.);
#153 = DIRECTION('',(3.604196845816E-03,-0.999993504861));
#154 = ( GEOMETRIC_REPRESENTATION_CONTEXT(2) 
PARAMETRIC_REPRESENTATION_CONTEXT() REPRESENTATION_CONTEXT('2D SPACE',''
  ) );
#155 = PCURVE('',#156,#161);
#156 = PLANE('',#157);
#157 = AXIS2_PLACEMENT_3D('',#158,#159,#160);
#158 = CARTESIAN_POINT('',(31.925213212,-43.52542600132,10.274929212932)
  );
#159 = DIRECTION('',(-8.934019040697E-04,-0.9999931062,3.60407893482E-03
    ));
#160 = DIRECTION('',(1.622489583829E-22,-3.60408037315E-03,
    -0.999993505281));
#161 = DEFINITIONAL_REPRESENTATION('',(#162),#166);
#162 = LINE('',#163,#164);
#163 = CARTESIAN_POINT('',(5.360974837769E-02,-63.89540532023));
#164 = VECTOR('',#165,1.);
#165 = DIRECTION('',(0.999999948744,3.201762482188E-04));
#166 = ( GEOMETRIC_REPRESENTATION_CONTEXT(2) 
PARAMETRIC_REPRESENTATION_CONTEXT() REPRESENTATION_CONTEXT('2D SPACE',''
  ) );
#167 = ADVANCED_FACE('',(#168),#156,.T.);
#168 = FACE_BOUND('',#169,.T.);
#169 = EDGE_LOOP('',(#170,#198,#199));
#170 = ORIENTED_EDGE('',*,*,#171,.F.);
#171 = EDGE_CURVE('',#114,#172,#174,.T.);
#172 = VERTEX_POINT('',#173);
#173 = CARTESIAN_POINT('',(31.925213212,-43.52542600132,10.274929212932)
  );
#174 = SURFACE_CURVE('',#175,(#179,#186),.PCURVE_S1.);
#175 = LINE('',#176,#177);
#176 = CARTESIAN_POINT('',(-31.97016660862,-43.46853530913,
    10.221114076413));
#177 = VECTOR('',#178,1.);
#178 = DIRECTION('',(0.999999248937,-8.903718800535E-04,
    8.422376743277E-04));
#179 = PCURVE('',#156,#180);
#180 = DEFINITIONAL_REPRESENTATION('',(#181),#185);
#181 = LINE('',#182,#183);
#182 = CARTESIAN_POINT('',(5.360974837769E-02,-63.89540532023));
#183 = VECTOR('',#184,1.);
#184 = DIRECTION('',(-8.390232324131E-04,0.99999964802));
#185 = ( GEOMETRIC_REPRESENTATION_CONTEXT(2) 
PARAMETRIC_REPRESENTATION_CONTEXT() REPRESENTATION_CONTEXT('2D SPACE',''
  ) );
#186 = PCURVE('',#187,#192);
#187 = PLANE('',#188);
#188 = AXIS2_PLACEMENT_3D('',#189,#190,#191);
#189 = CARTESIAN_POINT('',(29.354661428898,-40.9261555968,
    12.783505078563));
#190 = DIRECTION('',(-1.22439077563E-03,-0.695068125483,0.718942836257)
  );
#191 = DIRECTION('',(3.17554622413E-20,0.718943375153,0.695068646483));
#192 = DEFINITIONAL_REPRESENTATION('',(#193),#197);
#193 = LINE('',#194,#195);
#194 = CARTESIAN_POINT('',(-3.608864696932,61.324874004608));
#195 = VECTOR('',#196,1.);
#196 = DIRECTION('',(-5.471396427511E-05,-0.999999998503));
#197 = ( GEOMETRIC_REPRESENTATION_CONTEXT(2) 
PARAMETRIC_REPRESENTATION_CONTEXT() REPRESENTATION_CONTEXT('2D SPACE',''
  ) );
#198 = ORIENTED_EDGE('',*,*,#142,.T.);
#199 = ORIENTED_EDGE('',*,*,#200,.T.);
#200 = EDGE_CURVE('',#22,#172,#201,.T.);
#201 = SURFACE_CURVE('',#202,(#206,#213),.PCURVE_S1.);
#202 = LINE('',#203,#204);
#203 = CARTESIAN_POINT('',(-31.96689512203,-43.5053639014,
    3.409001664487E-03));
#204 = VECTOR('',#205,1.);
#205 = DIRECTION('',(0.987322707115,-3.100189886141E-04,0.15872547339));
#206 = PCURVE('',#156,#207);
#207 = DEFINITIONAL_REPRESENTATION('',(#208),#212);
#208 = LINE('',#209,#210);
#209 = CARTESIAN_POINT('',(10.271381195212,-63.89213383233));
#210 = VECTOR('',#211,1.);
#211 = DIRECTION('',(-0.158723325179,0.98732310114));
#212 = ( GEOMETRIC_REPRESENTATION_CONTEXT(2) 
PARAMETRIC_REPRESENTATION_CONTEXT() REPRESENTATION_CONTEXT('2D SPACE',''
  ) );
#213 = PCURVE('',#214,#219);
#214 = PLANE('',#215);
#215 = AXIS2_PLACEMENT_3D('',#216,#217,#218);
#216 = CARTESIAN_POINT('',(31.925213212,-43.52542600132,10.274929212932)
  );
#217 = DIRECTION('',(-5.191382295084E-04,-0.999999051123,
    1.276028751756E-03));
#218 = DIRECTION('',(-7.05186375407E-23,-1.276028923704E-03,
    -0.999999185875));
#219 = DEFINITIONAL_REPRESENTATION('',(#220),#224);
#220 = LINE('',#221,#222);
#221 = CARTESIAN_POINT('',(10.271486249144,-63.89211694364));
#222 = VECTOR('',#223,1.);
#223 = DIRECTION('',(-0.158724948574,0.987322840159));
#224 = ( GEOMETRIC_REPRESENTATION_CONTEXT(2) 
PARAMETRIC_REPRESENTATION_CONTEXT() REPRESENTATION_CONTEXT('2D SPACE',''
  ) );
#225 = ADVANCED_FACE('',(#226),#214,.T.);
#226 = FACE_BOUND('',#227,.T.);
#227 = EDGE_LOOP('',(#228,#229,#257));
#228 = ORIENTED_EDGE('',*,*,#200,.F.);
#229 = ORIENTED_EDGE('',*,*,#230,.T.);
#230 = EDGE_CURVE('',#22,#231,#233,.T.);
#231 = VERTEX_POINT('',#232);
#232 = CARTESIAN_POINT('',(31.919507642014,-43.53854597259,
    -9.259745129445E-03));
#233 = SURFACE_CURVE('',#234,(#238,#245),.PCURVE_S1.);
#234 = LINE('',#235,#236);
#235 = CARTESIAN_POINT('',(-31.96689512203,-43.5053639014,
    3.409001664487E-03));
#236 = VECTOR('',#237,1.);
#237 = DIRECTION('',(0.999999845454,-5.193916800399E-04,
    -1.98301113976E-04));
#238 = PCURVE('',#214,#239);
#239 = DEFINITIONAL_REPRESENTATION('',(#240),#244);
#240 = LINE('',#241,#242);
#241 = CARTESIAN_POINT('',(10.271486249144,-63.89211694364));
#242 = VECTOR('',#243,1.);
#243 = DIRECTION('',(1.989637113406E-04,0.999999980207));
#244 = ( GEOMETRIC_REPRESENTATION_CONTEXT(2) 
PARAMETRIC_REPRESENTATION_CONTEXT() REPRESENTATION_CONTEXT('2D SPACE',''
  ) );
#245 = PCURVE('',#246,#251);
#246 = PLANE('',#247);
#247 = AXIS2_PLACEMENT_3D('',#248,#249,#250);
#248 = CARTESIAN_POINT('',(31.942946627134,43.480899558852,
    -2.449851327534E-02));
#249 = DIRECTION('',(-1.983920653477E-04,-1.750656696418E-04,
    -0.999999964996));
#250 = DIRECTION('',(-0.99999998032,2.316743741724E-24,
    1.983920683878E-04));
#251 = DEFINITIONAL_REPRESENTATION('',(#252),#256);
#252 = LINE('',#253,#254);
#253 = CARTESIAN_POINT('',(63.909846028076,-86.98626479323));
#254 = VECTOR('',#255,1.);
#255 = DIRECTION('',(-0.999999865116,-5.193916879991E-04));
#256 = ( GEOMETRIC_REPRESENTATION_CONTEXT(2) 
PARAMETRIC_REPRESENTATION_CONTEXT() REPRESENTATION_CONTEXT('2D SPACE',''
  ) );
#257 = ORIENTED_EDGE('',*,*,#258,.T.);
#258 = EDGE_CURVE('',#231,#172,#259,.T.);
#259 = SURFACE_CURVE('',#260,(#264,#271),.PCURVE_S1.);
#260 = LINE('',#261,#262);
#261 = CARTESIAN_POINT('',(31.919507642014,-43.53854597259,
    -9.259745129445E-03));
#262 = VECTOR('',#263,1.);
#263 = DIRECTION('',(5.547899292154E-04,1.275740714862E-03,
    0.999999032346));
#264 = PCURVE('',#214,#265);
#265 = DEFINITIONAL_REPRESENTATION('',(#266),#270);
#266 = LINE('',#267,#268);
#267 = CARTESIAN_POINT('',(10.284197326907,-5.705570753935E-03));
#268 = VECTOR('',#269,1.);
#269 = DIRECTION('',(-0.999999846104,5.547900039746E-04));
#270 = ( GEOMETRIC_REPRESENTATION_CONTEXT(2) 
PARAMETRIC_REPRESENTATION_CONTEXT() REPRESENTATION_CONTEXT('2D SPACE',''
  ) );
#271 = PCURVE('',#272,#277);
#272 = PLANE('',#273);
#273 = AXIS2_PLACEMENT_3D('',#274,#275,#276);
#274 = CARTESIAN_POINT('',(31.925213212,-43.52542600132,10.274929212932)
  );
#275 = DIRECTION('',(0.999999845504,-3.535459555788E-05,
    -5.547452770068E-04));
#276 = DIRECTION('',(5.547452773535E-04,-2.16657390071E-24,
    0.999999846129));
#277 = DEFINITIONAL_REPRESENTATION('',(#278),#282);
#278 = LINE('',#279,#280);
#279 = CARTESIAN_POINT('',(-10.28419054076,1.311997127692E-02));
#280 = VECTOR('',#281,1.);
#281 = DIRECTION('',(0.999999186242,-1.275740715659E-03));
#282 = ( GEOMETRIC_REPRESENTATION_CONTEXT(2) 
PARAMETRIC_REPRESENTATION_CONTEXT() REPRESENTATION_CONTEXT('2D SPACE',''
  ) );
#283 = ADVANCED_FACE('',(#284),#129,.T.);
#284 = FACE_BOUND('',#285,.T.);
#285 = EDGE_LOOP('',(#286,#314,#315));
#286 = ORIENTED_EDGE('',*,*,#287,.F.);
#287 = EDGE_CURVE('',#24,#288,#290,.T.);
#288 = VERTEX_POINT('',#289);
#289 = CARTESIAN_POINT('',(-29.38172167623,40.918317917321,
    12.768184977231));
#290 = SURFACE_CURVE('',#291,(#295,#302),.PCURVE_S1.);
#291 = LINE('',#292,#293);
#292 = CARTESIAN_POINT('',(-31.92427214456,43.52615349589,
    10.199998286887));
#293 = VECTOR('',#294,1.);
#294 = DIRECTION('',(0.57051826065,-0.585167467421,0.576270725733));
#295 = PCURVE('',#129,#296);
#296 = DEFINITIONAL_REPRESENTATION('',(#297),#301);
#297 = LINE('',#298,#299);
#298 = CARTESIAN_POINT('',(3.613882086628,-2.607835966711));
#299 = VECTOR('',#300,1.);
#300 = DIRECTION('',(-0.810912407811,0.585167554516));
#301 = ( GEOMETRIC_REPRESENTATION_CONTEXT(2) 
PARAMETRIC_REPRESENTATION_CONTEXT() REPRESENTATION_CONTEXT('2D SPACE',''
  ) );
#302 = PCURVE('',#303,#308);
#303 = PLANE('',#304);
#304 = AXIS2_PLACEMENT_3D('',#305,#306,#307);
#305 = CARTESIAN_POINT('',(29.411771492057,40.928606273211,
    12.765437877848));
#306 = DIRECTION('',(-8.948502127704E-05,0.701625386492,0.712546004846)
  );
#307 = DIRECTION('',(-2.430740800322E-21,0.712546007699,-0.701625389301)
  );
#308 = DEFINITIONAL_REPRESENTATION('',(#309),#313);
#309 = LINE('',#310,#311);
#310 = CARTESIAN_POINT('',(3.650849455066,61.336043882195));
#311 = VECTOR('',#312,1.);
#312 = DIRECTION('',(-0.821284915032,-0.570518262934));
#313 = ( GEOMETRIC_REPRESENTATION_CONTEXT(2) 
PARAMETRIC_REPRESENTATION_CONTEXT() REPRESENTATION_CONTEXT('2D SPACE',''
  ) );
#314 = ORIENTED_EDGE('',*,*,#113,.F.);
#315 = ORIENTED_EDGE('',*,*,#316,.T.);
#316 = EDGE_CURVE('',#114,#288,#317,.T.);
#317 = SURFACE_CURVE('',#318,(#322,#329),.PCURVE_S1.);
#318 = LINE('',#319,#320);
#319 = CARTESIAN_POINT('',(-31.97016660862,-43.46853530913,
    10.221114076413));
#320 = VECTOR('',#321,1.);
#321 = DIRECTION('',(3.064519402054E-02,0.999075335751,
    3.015535735866E-02));
#322 = PCURVE('',#129,#323);
#323 = DEFINITIONAL_REPRESENTATION('',(#324),#328);
#324 = LINE('',#325,#326);
#325 = CARTESIAN_POINT('',(3.631184044103,84.386865786352));
#326 = VECTOR('',#327,1.);
#327 = DIRECTION('',(-4.299042184095E-02,-0.99907548445));
#328 = ( GEOMETRIC_REPRESENTATION_CONTEXT(2) 
PARAMETRIC_REPRESENTATION_CONTEXT() REPRESENTATION_CONTEXT('2D SPACE',''
  ) );
#329 = PCURVE('',#330,#335);
#330 = PLANE('',#331);
#331 = AXIS2_PLACEMENT_3D('',#332,#333,#334);
#332 = CARTESIAN_POINT('',(-29.38172167623,40.918317917321,
    12.768184977231));
#333 = DIRECTION('',(-0.707320663526,3.597083101856E-04,0.706892742613)
  );
#334 = DIRECTION('',(-0.706892788345,1.187655296108E-20,-0.707320709286)
  );
#335 = DEFINITIONAL_REPRESENTATION('',(#336),#340);
#336 = LINE('',#337,#338);
#337 = CARTESIAN_POINT('',(3.63134905191,84.386858685871));
#338 = VECTOR('',#339,1.);
#339 = DIRECTION('',(-4.299237540627E-02,-0.999075400386));
#340 = ( GEOMETRIC_REPRESENTATION_CONTEXT(2) 
PARAMETRIC_REPRESENTATION_CONTEXT() REPRESENTATION_CONTEXT('2D SPACE',''
  ) );
#341 = ADVANCED_FACE('',(#342),#330,.T.);
#342 = FACE_BOUND('',#343,.T.);
#343 = EDGE_LOOP('',(#344,#345,#373));
#344 = ORIENTED_EDGE('',*,*,#316,.F.);
#345 = ORIENTED_EDGE('',*,*,#346,.T.);
#346 = EDGE_CURVE('',#114,#347,#349,.T.);
#347 = VERTEX_POINT('',#348);
#348 = CARTESIAN_POINT('',(-29.39092317508,-40.98244983289,
    12.800653801867));
#349 = SURFACE_CURVE('',#350,(#354,#361),.PCURVE_S1.);
#350 = LINE('',#351,#352);
#351 = CARTESIAN_POINT('',(-31.97016660862,-43.46853530913,
    10.221114076413));
#352 = VECTOR('',#353,1.);
#353 = DIRECTION('',(0.584276271025,0.563173189712,0.584343390061));
#354 = PCURVE('',#330,#355);
#355 = DEFINITIONAL_REPRESENTATION('',(#356),#360);
#356 = LINE('',#357,#358);
#357 = CARTESIAN_POINT('',(3.63134905191,84.386858685871));
#358 = VECTOR('',#359,1.);
#359 = DIRECTION('',(-0.826338863513,-0.563173226146));
#360 = ( GEOMETRIC_REPRESENTATION_CONTEXT(2) 
PARAMETRIC_REPRESENTATION_CONTEXT() REPRESENTATION_CONTEXT('2D SPACE',''
  ) );
#361 = PCURVE('',#362,#367);
#362 = PLANE('',#363);
#363 = AXIS2_PLACEMENT_3D('',#364,#365,#366);
#364 = CARTESIAN_POINT('',(29.354661428898,-40.9261555968,
    12.783505078563));
#365 = DIRECTION('',(8.928483111601E-04,-0.720475100004,0.693480232664)
  );
#366 = DIRECTION('',(-1.336205926583E-20,-0.693480509078,-0.720475387178
    ));
#367 = DEFINITIONAL_REPRESENTATION('',(#368),#372);
#368 = LINE('',#369,#370);
#369 = CARTESIAN_POINT('',(3.609230426556,-61.32485248094));
#370 = VECTOR('',#371,1.);
#371 = DIRECTION('',(-0.811554660499,0.584276503911));
#372 = ( GEOMETRIC_REPRESENTATION_CONTEXT(2) 
PARAMETRIC_REPRESENTATION_CONTEXT() REPRESENTATION_CONTEXT('2D SPACE',''
  ) );
#373 = ORIENTED_EDGE('',*,*,#374,.T.);
#374 = EDGE_CURVE('',#347,#288,#375,.T.);
#375 = SURFACE_CURVE('',#376,(#380,#387),.PCURVE_S1.);
#376 = LINE('',#377,#378);
#377 = CARTESIAN_POINT('',(-29.39092317508,-40.98244983289,
    12.800653801867));
#378 = VECTOR('',#379,1.);
#379 = DIRECTION('',(1.123493506236E-04,0.999999915106,
    -3.964409952532E-04));
#380 = PCURVE('',#330,#381);
#381 = DEFINITIONAL_REPRESENTATION('',(#382),#386);
#382 = LINE('',#383,#384);
#383 = CARTESIAN_POINT('',(-1.646139888926E-02,81.900773048786));
#384 = VECTOR('',#385,1.);
#385 = DIRECTION('',(2.009919802216E-04,-0.999999979801));
#386 = ( GEOMETRIC_REPRESENTATION_CONTEXT(2) 
PARAMETRIC_REPRESENTATION_CONTEXT() REPRESENTATION_CONTEXT('2D SPACE',''
  ) );
#387 = PCURVE('',#388,#393);
#388 = PLANE('',#389);
#389 = AXIS2_PLACEMENT_3D('',#390,#391,#392);
#390 = CARTESIAN_POINT('',(-29.38172167623,40.918317917321,
    12.768184977231));
#391 = DIRECTION('',(2.915351995269E-04,3.964082271199E-04,
    0.999999878934));
#392 = DIRECTION('',(-1.548432944462E-24,0.99999992143,
    -3.964082439658E-04));
#393 = DEFINITIONAL_REPRESENTATION('',(#394),#398);
#394 = LINE('',#395,#396);
#395 = CARTESIAN_POINT('',(-81.90077418619,9.201499244491E-03));
#396 = VECTOR('',#397,1.);
#397 = DIRECTION('',(0.999999993689,-1.12349355398E-04));
#398 = ( GEOMETRIC_REPRESENTATION_CONTEXT(2) 
PARAMETRIC_REPRESENTATION_CONTEXT() REPRESENTATION_CONTEXT('2D SPACE',''
  ) );
#399 = ADVANCED_FACE('',(#400),#98,.T.);
#400 = FACE_BOUND('',#401,.T.);
#401 = EDGE_LOOP('',(#402,#425,#426));
#402 = ORIENTED_EDGE('',*,*,#403,.F.);
#403 = EDGE_CURVE('',#22,#404,#406,.T.);
#404 = VERTEX_POINT('',#405);
#405 = CARTESIAN_POINT('',(31.942946627134,43.480899558852,
    -2.449851327534E-02));
#406 = SURFACE_CURVE('',#407,(#411,#418),.PCURVE_S1.);
#407 = LINE('',#408,#409);
#408 = CARTESIAN_POINT('',(-31.96689512203,-43.5053639014,
    3.409001664487E-03));
#409 = VECTOR('',#410,1.);
#410 = DIRECTION('',(0.592085839644,0.805874861034,-2.585461638345E-04)
  );
#411 = PCURVE('',#98,#412);
#412 = DEFINITIONAL_REPRESENTATION('',(#413),#417);
#413 = LINE('',#414,#415);
#414 = CARTESIAN_POINT('',(63.909847734021,-86.98626353985));
#415 = VECTOR('',#416,1.);
#416 = DIRECTION('',(-0.59208589509,0.805874861772));
#417 = ( GEOMETRIC_REPRESENTATION_CONTEXT(2) 
PARAMETRIC_REPRESENTATION_CONTEXT() REPRESENTATION_CONTEXT('2D SPACE',''
  ) );
#418 = PCURVE('',#246,#419);
#419 = DEFINITIONAL_REPRESENTATION('',(#420),#424);
#420 = LINE('',#421,#422);
#421 = CARTESIAN_POINT('',(63.909846028076,-86.98626479323));
#422 = VECTOR('',#423,1.);
#423 = DIRECTION('',(-0.592085879285,0.805874873384));
#424 = ( GEOMETRIC_REPRESENTATION_CONTEXT(2) 
PARAMETRIC_REPRESENTATION_CONTEXT() REPRESENTATION_CONTEXT('2D SPACE',''
  ) );
#425 = ORIENTED_EDGE('',*,*,#84,.T.);
#426 = ORIENTED_EDGE('',*,*,#427,.T.);
#427 = EDGE_CURVE('',#57,#404,#428,.T.);
#428 = SURFACE_CURVE('',#429,(#433,#440),.PCURVE_S1.);
#429 = LINE('',#430,#431);
#430 = CARTESIAN_POINT('',(-31.94842588787,43.522085714359,
    7.122914509046E-03));
#431 = VECTOR('',#432,1.);
#432 = DIRECTION('',(0.999999669752,-6.446275965573E-04,
    -4.949246838305E-04));
#433 = PCURVE('',#98,#434);
#434 = DEFINITIONAL_REPRESENTATION('',(#435),#439);
#435 = LINE('',#436,#437);
#436 = CARTESIAN_POINT('',(63.891380340125,4.118615554442E-02));
#437 = VECTOR('',#438,1.);
#438 = DIRECTION('',(-0.999999792228,-6.446275971472E-04));
#439 = ( GEOMETRIC_REPRESENTATION_CONTEXT(2) 
PARAMETRIC_REPRESENTATION_CONTEXT() REPRESENTATION_CONTEXT('2D SPACE',''
  ) );
#440 = PCURVE('',#441,#446);
#441 = PLANE('',#442);
#442 = AXIS2_PLACEMENT_3D('',#443,#444,#445);
#443 = CARTESIAN_POINT('',(31.928271594775,43.501499682857,
    10.241725762341));
#444 = DIRECTION('',(6.436337246373E-04,0.999997781514,
    -2.005667556611E-03));
#445 = DIRECTION('',(-1.867035678675E-22,2.00566797205E-03,
    0.999997988646));
#446 = DEFINITIONAL_REPRESENTATION('',(#447),#451);
#447 = LINE('',#448,#449);
#448 = CARTESIAN_POINT('',(-10.23454097367,-63.87671071357));
#449 = VECTOR('',#450,1.);
#450 = DIRECTION('',(-4.96216597286E-04,0.999999876885));
#451 = ( GEOMETRIC_REPRESENTATION_CONTEXT(2) 
PARAMETRIC_REPRESENTATION_CONTEXT() REPRESENTATION_CONTEXT('2D SPACE',''
  ) );
#452 = ADVANCED_FACE('',(#453),#246,.T.);
#453 = FACE_BOUND('',#454,.T.);
#454 = EDGE_LOOP('',(#455,#481,#482));
#455 = ORIENTED_EDGE('',*,*,#456,.F.);
#456 = EDGE_CURVE('',#231,#404,#457,.T.);
#457 = SURFACE_CURVE('',#458,(#462,#469),.PCURVE_S1.);
#458 = LINE('',#459,#460);
#459 = CARTESIAN_POINT('',(31.919507642014,-43.53854597259,
    -9.259745129445E-03));
#460 = VECTOR('',#461,1.);
#461 = DIRECTION('',(2.693534044841E-04,0.999999948391,
    -1.751191043148E-04));
#462 = PCURVE('',#246,#463);
#463 = DEFINITIONAL_REPRESENTATION('',(#464),#468);
#464 = LINE('',#465,#466);
#465 = CARTESIAN_POINT('',(2.344200790933E-02,-87.01944686493));
#466 = VECTOR('',#467,1.);
#467 = DIRECTION('',(-2.693881414246E-04,0.999999963715));
#468 = ( GEOMETRIC_REPRESENTATION_CONTEXT(2) 
PARAMETRIC_REPRESENTATION_CONTEXT() REPRESENTATION_CONTEXT('2D SPACE',''
  ) );
#469 = PCURVE('',#470,#475);
#470 = PLANE('',#471);
#471 = AXIS2_PLACEMENT_3D('',#472,#473,#474);
#472 = CARTESIAN_POINT('',(31.919507642014,-43.53854597259,
    -9.259745129445E-03));
#473 = DIRECTION('',(0.999998941361,-2.691027152989E-04,
    1.42998632984E-03));
#474 = DIRECTION('',(-1.429986381617E-03,4.576264072056E-23,
    0.999998977569));
#475 = DEFINITIONAL_REPRESENTATION('',(#476),#480);
#476 = LINE('',#477,#478);
#477 = CARTESIAN_POINT('',(0.,-0.));
#478 = VECTOR('',#479,1.);
#479 = DIRECTION('',(-1.755040969679E-04,-0.999999984599));
#480 = ( GEOMETRIC_REPRESENTATION_CONTEXT(2) 
PARAMETRIC_REPRESENTATION_CONTEXT() REPRESENTATION_CONTEXT('2D SPACE',''
  ) );
#481 = ORIENTED_EDGE('',*,*,#230,.F.);
#482 = ORIENTED_EDGE('',*,*,#403,.T.);
#483 = ADVANCED_FACE('',(#484),#441,.T.);
#484 = FACE_BOUND('',#485,.T.);
#485 = EDGE_LOOP('',(#486,#509,#510));
#486 = ORIENTED_EDGE('',*,*,#487,.T.);
#487 = EDGE_CURVE('',#488,#404,#490,.T.);
#488 = VERTEX_POINT('',#489);
#489 = CARTESIAN_POINT('',(31.928271594775,43.501499682857,
    10.241725762341));
#490 = SURFACE_CURVE('',#491,(#495,#502),.PCURVE_S1.);
#491 = LINE('',#492,#493);
#492 = CARTESIAN_POINT('',(31.928271594775,43.501499682857,
    10.241725762341));
#493 = VECTOR('',#494,1.);
#494 = DIRECTION('',(1.429443525577E-03,-2.006585959349E-03,
    -0.999996965147));
#495 = PCURVE('',#441,#496);
#496 = DEFINITIONAL_REPRESENTATION('',(#497),#501);
#497 = LINE('',#498,#499);
#498 = CARTESIAN_POINT('',(0.,0.));
#499 = VECTOR('',#500,1.);
#500 = DIRECTION('',(-0.999998978345,1.42944382166E-03));
#501 = ( GEOMETRIC_REPRESENTATION_CONTEXT(2) 
PARAMETRIC_REPRESENTATION_CONTEXT() REPRESENTATION_CONTEXT('2D SPACE',''
  ) );
#502 = PCURVE('',#470,#503);
#503 = DEFINITIONAL_REPRESENTATION('',(#504),#508);
#504 = LINE('',#505,#506);
#505 = CARTESIAN_POINT('',(10.250962494211,-87.040048807));
#506 = VECTOR('',#507,1.);
#507 = DIRECTION('',(-0.999997986804,2.006586032004E-03));
#508 = ( GEOMETRIC_REPRESENTATION_CONTEXT(2) 
PARAMETRIC_REPRESENTATION_CONTEXT() REPRESENTATION_CONTEXT('2D SPACE',''
  ) );
#509 = ORIENTED_EDGE('',*,*,#427,.F.);
#510 = ORIENTED_EDGE('',*,*,#511,.T.);
#511 = EDGE_CURVE('',#57,#488,#512,.T.);
#512 = SURFACE_CURVE('',#513,(#517,#524),.PCURVE_S1.);
#513 = LINE('',#514,#515);
#514 = CARTESIAN_POINT('',(-31.94842588787,43.522085714359,
    7.122914509046E-03));
#515 = VECTOR('',#516,1.);
#516 = DIRECTION('',(0.987405997847,-3.182188775787E-04,0.158206492129)
  );
#517 = PCURVE('',#441,#518);
#518 = DEFINITIONAL_REPRESENTATION('',(#519),#523);
#519 = LINE('',#520,#521);
#520 = CARTESIAN_POINT('',(-10.23454097367,-63.87671071357));
#521 = VECTOR('',#522,1.);
#522 = DIRECTION('',(0.158205535679,0.987406202371));
#523 = ( GEOMETRIC_REPRESENTATION_CONTEXT(2) 
PARAMETRIC_REPRESENTATION_CONTEXT() REPRESENTATION_CONTEXT('2D SPACE',''
  ) );
#524 = PCURVE('',#72,#525);
#525 = DEFINITIONAL_REPRESENTATION('',(#526),#530);
#526 = LINE('',#527,#528);
#527 = CARTESIAN_POINT('',(-10.23459379474,-63.87670225038));
#528 = VECTOR('',#529,1.);
#529 = DIRECTION('',(0.158206352187,0.987406071547));
#530 = ( GEOMETRIC_REPRESENTATION_CONTEXT(2) 
PARAMETRIC_REPRESENTATION_CONTEXT() REPRESENTATION_CONTEXT('2D SPACE',''
  ) );
#531 = ADVANCED_FACE('',(#532),#72,.T.);
#532 = FACE_BOUND('',#533,.T.);
#533 = EDGE_LOOP('',(#534,#535,#536));
#534 = ORIENTED_EDGE('',*,*,#511,.F.);
#535 = ORIENTED_EDGE('',*,*,#56,.T.);
#536 = ORIENTED_EDGE('',*,*,#537,.T.);
#537 = EDGE_CURVE('',#24,#488,#538,.T.);
#538 = SURFACE_CURVE('',#539,(#543,#550),.PCURVE_S1.);
#539 = LINE('',#540,#541);
#540 = CARTESIAN_POINT('',(-31.92427214456,43.52615349589,
    10.199998286887));
#541 = VECTOR('',#542,1.);
#542 = DIRECTION('',(0.999999711932,-3.861053058596E-04,
    6.534972765309E-04));
#543 = PCURVE('',#72,#544);
#544 = DEFINITIONAL_REPRESENTATION('',(#545),#549);
#545 = LINE('',#546,#547);
#546 = CARTESIAN_POINT('',(-4.171761067909E-02,-63.85254850526));
#547 = VECTOR('',#548,1.);
#548 = DIRECTION('',(6.533427835214E-04,0.999999786572));
#549 = ( GEOMETRIC_REPRESENTATION_CONTEXT(2) 
PARAMETRIC_REPRESENTATION_CONTEXT() REPRESENTATION_CONTEXT('2D SPACE',''
  ) );
#550 = PCURVE('',#551,#556);
#551 = PLANE('',#552);
#552 = AXIS2_PLACEMENT_3D('',#553,#554,#555);
#553 = CARTESIAN_POINT('',(29.411771492057,40.928606273211,
    12.765437877848));
#554 = DIRECTION('',(-1.960588879756E-04,0.700348440988,0.71380110869));
#555 = DIRECTION('',(-4.058341681533E-21,0.713801122408,-0.700348454448)
  );
#556 = DEFINITIONAL_REPRESENTATION('',(#557),#561);
#557 = LINE('',#558,#559);
#558 = CARTESIAN_POINT('',(3.650833775568,61.33604481547));
#559 = VECTOR('',#560,1.);
#560 = DIRECTION('',(-7.332782082951E-04,-0.999999731151));
#561 = ( GEOMETRIC_REPRESENTATION_CONTEXT(2) 
PARAMETRIC_REPRESENTATION_CONTEXT() REPRESENTATION_CONTEXT('2D SPACE',''
  ) );
#562 = ADVANCED_FACE('',(#563),#470,.T.);
#563 = FACE_BOUND('',#564,.T.);
#564 = EDGE_LOOP('',(#565,#566,#567));
#565 = ORIENTED_EDGE('',*,*,#456,.T.);
#566 = ORIENTED_EDGE('',*,*,#487,.F.);
#567 = ORIENTED_EDGE('',*,*,#568,.F.);
#568 = EDGE_CURVE('',#231,#488,#569,.T.);
#569 = SURFACE_CURVE('',#570,(#574,#581),.PCURVE_S1.);
#570 = LINE('',#571,#572);
#571 = CARTESIAN_POINT('',(31.919507642014,-43.53854597259,
    -9.259745129445E-03));
#572 = VECTOR('',#573,1.);
#573 = DIRECTION('',(9.999762054707E-05,0.993136053536,0.116964820217));
#574 = PCURVE('',#470,#575);
#575 = DEFINITIONAL_REPRESENTATION('',(#576),#580);
#576 = LINE('',#577,#578);
#577 = CARTESIAN_POINT('',(0.,-0.));
#578 = VECTOR('',#579,1.);
#579 = DIRECTION('',(0.116964557633,-0.993136089495));
#580 = ( GEOMETRIC_REPRESENTATION_CONTEXT(2) 
PARAMETRIC_REPRESENTATION_CONTEXT() REPRESENTATION_CONTEXT('2D SPACE',''
  ) );
#581 = PCURVE('',#272,#582);
#582 = DEFINITIONAL_REPRESENTATION('',(#583),#587);
#583 = LINE('',#584,#585);
#584 = CARTESIAN_POINT('',(-10.28419054076,1.311997127692E-02));
#585 = VECTOR('',#586,1.);
#586 = DIRECTION('',(0.116964857692,-0.993136054156));
#587 = ( GEOMETRIC_REPRESENTATION_CONTEXT(2) 
PARAMETRIC_REPRESENTATION_CONTEXT() REPRESENTATION_CONTEXT('2D SPACE',''
  ) );
#588 = ADVANCED_FACE('',(#589),#272,.T.);
#589 = FACE_BOUND('',#590,.T.);
#590 = EDGE_LOOP('',(#591,#592,#593));
#591 = ORIENTED_EDGE('',*,*,#258,.F.);
#592 = ORIENTED_EDGE('',*,*,#568,.T.);
#593 = ORIENTED_EDGE('',*,*,#594,.F.);
#594 = EDGE_CURVE('',#172,#488,#595,.T.);
#595 = SURFACE_CURVE('',#596,(#600,#607),.PCURVE_S1.);
#596 = LINE('',#597,#598);
#597 = CARTESIAN_POINT('',(31.925213212,-43.52542600132,10.274929212932)
  );
#598 = VECTOR('',#599,1.);
#599 = DIRECTION('',(3.514294601115E-05,0.9999999266,-3.815307491746E-04
    ));
#600 = PCURVE('',#272,#601);
#601 = DEFINITIONAL_REPRESENTATION('',(#602),#606);
#602 = LINE('',#603,#604);
#603 = CARTESIAN_POINT('',(0.,0.));
#604 = VECTOR('',#605,1.);
#605 = DIRECTION('',(-3.815111950847E-04,-0.999999927225));
#606 = ( GEOMETRIC_REPRESENTATION_CONTEXT(2) 
PARAMETRIC_REPRESENTATION_CONTEXT() REPRESENTATION_CONTEXT('2D SPACE',''
  ) );
#607 = PCURVE('',#608,#613);
#608 = PLANE('',#609);
#609 = AXIS2_PLACEMENT_3D('',#610,#611,#612);
#610 = CARTESIAN_POINT('',(29.411771492057,40.928606273211,
    12.765437877848));
#611 = DIRECTION('',(0.707993155192,2.445634131524E-04,0.70621925235));
#612 = DIRECTION('',(-0.70621927347,9.053573521508E-21,0.707993176365));
#613 = DEFINITIONAL_REPRESENTATION('',(#614),#618);
#614 = LINE('',#615,#616);
#615 = CARTESIAN_POINT('',(-3.538304125806,84.454034800188));
#616 = VECTOR('',#617,1.);
#617 = DIRECTION('',(-2.949397927888E-04,-0.999999956505));
#618 = ( GEOMETRIC_REPRESENTATION_CONTEXT(2) 
PARAMETRIC_REPRESENTATION_CONTEXT() REPRESENTATION_CONTEXT('2D SPACE',''
  ) );
#619 = ADVANCED_FACE('',(#620),#362,.T.);
#620 = FACE_BOUND('',#621,.T.);
#621 = EDGE_LOOP('',(#622,#645,#646));
#622 = ORIENTED_EDGE('',*,*,#623,.F.);
#623 = EDGE_CURVE('',#347,#624,#626,.T.);
#624 = VERTEX_POINT('',#625);
#625 = CARTESIAN_POINT('',(29.354661428898,-40.9261555968,
    12.783505078563));
#626 = SURFACE_CURVE('',#627,(#631,#638),.PCURVE_S1.);
#627 = LINE('',#628,#629);
#628 = CARTESIAN_POINT('',(-29.39092317508,-40.98244983289,
    12.800653801867));
#629 = VECTOR('',#630,1.);
#630 = DIRECTION('',(0.999999498251,9.582713019609E-04,
    -2.919149552182E-04));
#631 = PCURVE('',#362,#632);
#632 = DEFINITIONAL_REPRESENTATION('',(#633),#637);
#633 = LINE('',#634,#635);
#634 = CARTESIAN_POINT('',(2.668372243928E-02,-58.74560801934));
#635 = VECTOR('',#636,1.);
#636 = DIRECTION('',(-4.542249299351E-04,0.99999989684));
#637 = ( GEOMETRIC_REPRESENTATION_CONTEXT(2) 
PARAMETRIC_REPRESENTATION_CONTEXT() REPRESENTATION_CONTEXT('2D SPACE',''
  ) );
#638 = PCURVE('',#388,#639);
#639 = DEFINITIONAL_REPRESENTATION('',(#640),#644);
#640 = LINE('',#641,#642);
#641 = CARTESIAN_POINT('',(-81.90077418619,9.201499244491E-03));
#642 = VECTOR('',#643,1.);
#643 = DIRECTION('',(9.583869441646E-04,-0.999999540747));
#644 = ( GEOMETRIC_REPRESENTATION_CONTEXT(2) 
PARAMETRIC_REPRESENTATION_CONTEXT() REPRESENTATION_CONTEXT('2D SPACE',''
  ) );
#645 = ORIENTED_EDGE('',*,*,#346,.F.);
#646 = ORIENTED_EDGE('',*,*,#647,.T.);
#647 = EDGE_CURVE('',#114,#624,#648,.T.);
#648 = SURFACE_CURVE('',#649,(#653,#660),.PCURVE_S1.);
#649 = LINE('',#650,#651);
#650 = CARTESIAN_POINT('',(-31.97016660862,-43.46853530913,
    10.221114076413));
#651 = VECTOR('',#652,1.);
#652 = DIRECTION('',(0.998272174929,4.13859607299E-02,4.171171319337E-02
    ));
#653 = PCURVE('',#362,#654);
#654 = DEFINITIONAL_REPRESENTATION('',(#655),#659);
#655 = LINE('',#656,#657);
#656 = CARTESIAN_POINT('',(3.609230426556,-61.32485248094));
#657 = VECTOR('',#658,1.);
#658 = DIRECTION('',(-5.87526198285E-02,0.998272572829));
#659 = ( GEOMETRIC_REPRESENTATION_CONTEXT(2) 
PARAMETRIC_REPRESENTATION_CONTEXT() REPRESENTATION_CONTEXT('2D SPACE',''
  ) );
#660 = PCURVE('',#187,#661);
#661 = DEFINITIONAL_REPRESENTATION('',(#662),#666);
#662 = LINE('',#663,#664);
#663 = CARTESIAN_POINT('',(-3.608864696932,61.324874004608));
#664 = VECTOR('',#665,1.);
#665 = DIRECTION('',(5.874666632291E-02,-0.998272923201));
#666 = ( GEOMETRIC_REPRESENTATION_CONTEXT(2) 
PARAMETRIC_REPRESENTATION_CONTEXT() REPRESENTATION_CONTEXT('2D SPACE',''
  ) );
#667 = ADVANCED_FACE('',(#668),#187,.T.);
#668 = FACE_BOUND('',#669,.T.);
#669 = EDGE_LOOP('',(#670,#671,#672));
#670 = ORIENTED_EDGE('',*,*,#647,.F.);
#671 = ORIENTED_EDGE('',*,*,#171,.T.);
#672 = ORIENTED_EDGE('',*,*,#673,.F.);
#673 = EDGE_CURVE('',#624,#172,#674,.T.);
#674 = SURFACE_CURVE('',#675,(#679,#686),.PCURVE_S1.);
#675 = LINE('',#676,#677);
#676 = CARTESIAN_POINT('',(29.354661428898,-40.9261555968,
    12.783505078563));
#677 = VECTOR('',#678,1.);
#678 = DIRECTION('',(0.579787552623,-0.586265033193,-0.565808894131));
#679 = PCURVE('',#187,#680);
#680 = DEFINITIONAL_REPRESENTATION('',(#681),#685);
#681 = LINE('',#682,#683);
#682 = CARTESIAN_POINT('',(0.,0.));
#683 = VECTOR('',#684,1.);
#684 = DIRECTION('',(-0.81476738391,-0.579787987213));
#685 = ( GEOMETRIC_REPRESENTATION_CONTEXT(2) 
PARAMETRIC_REPRESENTATION_CONTEXT() REPRESENTATION_CONTEXT('2D SPACE',''
  ) );
#686 = PCURVE('',#687,#692);
#687 = PLANE('',#688);
#688 = AXIS2_PLACEMENT_3D('',#689,#690,#691);
#689 = CARTESIAN_POINT('',(29.411771492057,40.928606273211,
    12.765437877848));
#690 = DIRECTION('',(0.698256073682,-3.291693544219E-04,0.715847991695)
  );
#691 = DIRECTION('',(0.715848030477,1.248280792373E-20,-0.698256111511)
  );
#692 = DEFINITIONAL_REPRESENTATION('',(#693),#697);
#693 = LINE('',#694,#695);
#694 = CARTESIAN_POINT('',(-5.349765954962E-02,-81.85476630459));
#695 = VECTOR('',#696,1.);
#696 = DIRECTION('',(0.810119295915,-0.586265064955));
#697 = ( GEOMETRIC_REPRESENTATION_CONTEXT(2) 
PARAMETRIC_REPRESENTATION_CONTEXT() REPRESENTATION_CONTEXT('2D SPACE',''
  ) );
#698 = ADVANCED_FACE('',(#699),#388,.T.);
#699 = FACE_BOUND('',#700,.T.);
#700 = EDGE_LOOP('',(#701,#702,#703));
#701 = ORIENTED_EDGE('',*,*,#374,.F.);
#702 = ORIENTED_EDGE('',*,*,#623,.T.);
#703 = ORIENTED_EDGE('',*,*,#704,.F.);
#704 = EDGE_CURVE('',#288,#624,#705,.T.);
#705 = SURFACE_CURVE('',#706,(#710,#717),.PCURVE_S1.);
#706 = LINE('',#707,#708);
#707 = CARTESIAN_POINT('',(-29.38172167623,40.918317917321,
    12.768184977231));
#708 = VECTOR('',#709,1.);
#709 = DIRECTION('',(0.58305118595,-0.812435407547,1.520761541361E-04));
#710 = PCURVE('',#388,#711);
#711 = DEFINITIONAL_REPRESENTATION('',(#712),#716);
#712 = LINE('',#713,#714);
#713 = CARTESIAN_POINT('',(0.,0.));
#714 = VECTOR('',#715,1.);
#715 = DIRECTION('',(-0.812435403998,-0.583051210727));
#716 = ( GEOMETRIC_REPRESENTATION_CONTEXT(2) 
PARAMETRIC_REPRESENTATION_CONTEXT() REPRESENTATION_CONTEXT('2D SPACE',''
  ) );
#717 = PCURVE('',#718,#723);
#718 = PLANE('',#719);
#719 = AXIS2_PLACEMENT_3D('',#720,#721,#722);
#720 = CARTESIAN_POINT('',(29.411771492057,40.928606273211,
    12.765437877848));
#721 = DIRECTION('',(4.66859277679E-05,2.206900809021E-04,0.999999974558
    ));
#722 = DIRECTION('',(3.904200620491E-25,0.999999975648,
    -2.206900811426E-04));
#723 = DEFINITIONAL_REPRESENTATION('',(#724),#728);
#724 = LINE('',#725,#726);
#725 = CARTESIAN_POINT('',(-1.028896189688E-02,58.79349323236));
#726 = VECTOR('',#727,1.);
#727 = DIRECTION('',(-0.812435421324,-0.583051186585));
#728 = ( GEOMETRIC_REPRESENTATION_CONTEXT(2) 
PARAMETRIC_REPRESENTATION_CONTEXT() REPRESENTATION_CONTEXT('2D SPACE',''
  ) );
#729 = ADVANCED_FACE('',(#730),#718,.T.);
#730 = FACE_BOUND('',#731,.T.);
#731 = EDGE_LOOP('',(#732,#755,#756));
#732 = ORIENTED_EDGE('',*,*,#733,.F.);
#733 = EDGE_CURVE('',#288,#734,#736,.T.);
#734 = VERTEX_POINT('',#735);
#735 = CARTESIAN_POINT('',(29.411771492057,40.928606273211,
    12.765437877848));
#736 = SURFACE_CURVE('',#737,(#741,#748),.PCURVE_S1.);
#737 = LINE('',#738,#739);
#738 = CARTESIAN_POINT('',(-29.38172167623,40.918317917321,
    12.768184977231));
#739 = VECTOR('',#740,1.);
#740 = DIRECTION('',(0.999999983597,1.749914006917E-04,
    -4.672454705726E-05));
#741 = PCURVE('',#718,#742);
#742 = DEFINITIONAL_REPRESENTATION('',(#743),#747);
#743 = LINE('',#744,#745);
#744 = CARTESIAN_POINT('',(-1.028896189688E-02,58.79349323236));
#745 = VECTOR('',#746,1.);
#746 = DIRECTION('',(1.750017080744E-04,-0.999999984687));
#747 = ( GEOMETRIC_REPRESENTATION_CONTEXT(2) 
PARAMETRIC_REPRESENTATION_CONTEXT() REPRESENTATION_CONTEXT('2D SPACE',''
  ) );
#748 = PCURVE('',#303,#749);
#749 = DEFINITIONAL_REPRESENTATION('',(#750),#754);
#750 = LINE('',#751,#752);
#751 = CARTESIAN_POINT('',(-9.258361589318E-03,58.793493403684));
#752 = VECTOR('',#753,1.);
#753 = DIRECTION('',(1.574725524635E-04,-0.999999987601));
#754 = ( GEOMETRIC_REPRESENTATION_CONTEXT(2) 
PARAMETRIC_REPRESENTATION_CONTEXT() REPRESENTATION_CONTEXT('2D SPACE',''
  ) );
#755 = ORIENTED_EDGE('',*,*,#704,.T.);
#756 = ORIENTED_EDGE('',*,*,#757,.T.);
#757 = EDGE_CURVE('',#624,#734,#758,.T.);
#758 = SURFACE_CURVE('',#759,(#763,#770),.PCURVE_S1.);
#759 = LINE('',#760,#761);
#760 = CARTESIAN_POINT('',(29.354661428898,-40.9261555968,
    12.783505078563));
#761 = VECTOR('',#762,1.);
#762 = DIRECTION('',(6.97699761899E-04,0.999999732248,
    -2.207226001882E-04));
#763 = PCURVE('',#718,#764);
#764 = DEFINITIONAL_REPRESENTATION('',(#765),#769);
#765 = LINE('',#766,#767);
#766 = CARTESIAN_POINT('',(-81.85476386393,5.711006322056E-02));
#767 = VECTOR('',#768,1.);
#768 = DIRECTION('',(0.999999756607,-6.976997626593E-04));
#769 = ( GEOMETRIC_REPRESENTATION_CONTEXT(2) 
PARAMETRIC_REPRESENTATION_CONTEXT() REPRESENTATION_CONTEXT('2D SPACE',''
  ) );
#770 = PCURVE('',#687,#771);
#771 = DEFINITIONAL_REPRESENTATION('',(#772),#776);
#772 = LINE('',#773,#774);
#773 = CARTESIAN_POINT('',(-5.349765954962E-02,-81.85476630459));
#774 = VECTOR('',#775,1.);
#775 = DIRECTION('',(6.535679049495E-04,0.999999786424));
#776 = ( GEOMETRIC_REPRESENTATION_CONTEXT(2) 
PARAMETRIC_REPRESENTATION_CONTEXT() REPRESENTATION_CONTEXT('2D SPACE',''
  ) );
#777 = ADVANCED_FACE('',(#778),#303,.T.);
#778 = FACE_BOUND('',#779,.T.);
#779 = EDGE_LOOP('',(#780,#801,#802));
#780 = ORIENTED_EDGE('',*,*,#781,.F.);
#781 = EDGE_CURVE('',#24,#734,#782,.T.);
#782 = SURFACE_CURVE('',#783,(#787,#794),.PCURVE_S1.);
#783 = LINE('',#784,#785);
#784 = CARTESIAN_POINT('',(-31.92427214456,43.52615349589,
    10.199998286887));
#785 = VECTOR('',#786,1.);
#786 = DIRECTION('',(0.998233249614,-4.227462110995E-02,
    4.175207508894E-02));
#787 = PCURVE('',#303,#788);
#788 = DEFINITIONAL_REPRESENTATION('',(#789),#793);
#789 = LINE('',#790,#791);
#790 = CARTESIAN_POINT('',(3.650849455066,61.336043882195));
#791 = VECTOR('',#792,1.);
#792 = DIRECTION('',(-5.94169284373E-02,-0.998233253611));
#793 = ( GEOMETRIC_REPRESENTATION_CONTEXT(2) 
PARAMETRIC_REPRESENTATION_CONTEXT() REPRESENTATION_CONTEXT('2D SPACE',''
  ) );
#794 = PCURVE('',#551,#795);
#795 = DEFINITIONAL_REPRESENTATION('',(#796),#800);
#796 = LINE('',#797,#798);
#797 = CARTESIAN_POINT('',(3.650833775568,61.33604481547));
#798 = VECTOR('',#799,1.);
#799 = DIRECTION('',(-5.941667325623E-02,-0.9982332688));
#800 = ( GEOMETRIC_REPRESENTATION_CONTEXT(2) 
PARAMETRIC_REPRESENTATION_CONTEXT() REPRESENTATION_CONTEXT('2D SPACE',''
  ) );
#801 = ORIENTED_EDGE('',*,*,#287,.T.);
#802 = ORIENTED_EDGE('',*,*,#733,.T.);
#803 = ADVANCED_FACE('',(#804),#551,.T.);
#804 = FACE_BOUND('',#805,.T.);
#805 = EDGE_LOOP('',(#806,#827,#828));
#806 = ORIENTED_EDGE('',*,*,#807,.T.);
#807 = EDGE_CURVE('',#734,#488,#808,.T.);
#808 = SURFACE_CURVE('',#809,(#813,#820),.PCURVE_S1.);
#809 = LINE('',#810,#811);
#810 = CARTESIAN_POINT('',(29.411771492057,40.928606273211,
    12.765437877848));
#811 = VECTOR('',#812,1.);
#812 = DIRECTION('',(0.572498764318,0.585328129395,-0.574139482873));
#813 = PCURVE('',#551,#814);
#814 = DEFINITIONAL_REPRESENTATION('',(#815),#819);
#815 = LINE('',#816,#817);
#816 = CARTESIAN_POINT('',(0.,-0.));
#817 = VECTOR('',#818,1.);
#818 = DIRECTION('',(0.819905575207,-0.572498775322));
#819 = ( GEOMETRIC_REPRESENTATION_CONTEXT(2) 
PARAMETRIC_REPRESENTATION_CONTEXT() REPRESENTATION_CONTEXT('2D SPACE',''
  ) );
#820 = PCURVE('',#608,#821);
#821 = DEFINITIONAL_REPRESENTATION('',(#822),#826);
#822 = LINE('',#823,#824);
#823 = CARTESIAN_POINT('',(0.,0.));
#824 = VECTOR('',#825,1.);
#825 = DIRECTION('',(-0.810796497555,-0.585328146899));
#826 = ( GEOMETRIC_REPRESENTATION_CONTEXT(2) 
PARAMETRIC_REPRESENTATION_CONTEXT() REPRESENTATION_CONTEXT('2D SPACE',''
  ) );
#827 = ORIENTED_EDGE('',*,*,#537,.F.);
#828 = ORIENTED_EDGE('',*,*,#781,.T.);
#829 = ADVANCED_FACE('',(#830),#687,.T.);
#830 = FACE_BOUND('',#831,.T.);
#831 = EDGE_LOOP('',(#832,#833,#834));
#832 = ORIENTED_EDGE('',*,*,#757,.F.);
#833 = ORIENTED_EDGE('',*,*,#673,.T.);
#834 = ORIENTED_EDGE('',*,*,#835,.F.);
#835 = EDGE_CURVE('',#734,#172,#836,.T.);
#836 = SURFACE_CURVE('',#837,(#841,#848),.PCURVE_S1.);
#837 = LINE('',#838,#839);
#838 = CARTESIAN_POINT('',(29.411771492057,40.928606273211,
    12.765437877848));
#839 = VECTOR('',#840,1.);
#840 = DIRECTION('',(2.973497610723E-02,-0.999123477548,
    -2.946366930196E-02));
#841 = PCURVE('',#687,#842);
#842 = DEFINITIONAL_REPRESENTATION('',(#843),#847);
#843 = LINE('',#844,#845);
#844 = CARTESIAN_POINT('',(0.,0.));
#845 = VECTOR('',#846,1.);
#846 = DIRECTION('',(4.185891124027E-02,-0.999123531677));
#847 = ( GEOMETRIC_REPRESENTATION_CONTEXT(2) 
PARAMETRIC_REPRESENTATION_CONTEXT() REPRESENTATION_CONTEXT('2D SPACE',''
  ) );
#848 = PCURVE('',#608,#849);
#849 = DEFINITIONAL_REPRESENTATION('',(#850),#854);
#850 = LINE('',#851,#852);
#851 = CARTESIAN_POINT('',(0.,0.));
#852 = VECTOR('',#853,1.);
#853 = DIRECTION('',(-4.185949003956E-02,0.999123507427));
#854 = ( GEOMETRIC_REPRESENTATION_CONTEXT(2) 
PARAMETRIC_REPRESENTATION_CONTEXT() REPRESENTATION_CONTEXT('2D SPACE',''
  ) );
#855 = ADVANCED_FACE('',(#856),#608,.T.);
#856 = FACE_BOUND('',#857,.T.);
#857 = EDGE_LOOP('',(#858,#859,#860));
#858 = ORIENTED_EDGE('',*,*,#835,.T.);
#859 = ORIENTED_EDGE('',*,*,#594,.T.);
#860 = ORIENTED_EDGE('',*,*,#807,.F.);
#861 = ( GEOMETRIC_REPRESENTATION_CONTEXT(3) 
GLOBAL_UNCERTAINTY_ASSIGNED_CONTEXT((#865)) GLOBAL_UNIT_ASSIGNED_CONTEXT
((#862,#863,#864)) REPRESENTATION_CONTEXT('Context #1',
  '3D Context with UNIT and UNCERTAINTY') );
#862 = ( LENGTH_UNIT() NAMED_UNIT(*) SI_UNIT(.MILLI.,.METRE.) );
#863 = ( NAMED_UNIT(*) PLANE_ANGLE_UNIT() SI_UNIT($,.RADIAN.) );
#864 = ( NAMED_UNIT(*) SI_UNIT($,.STERADIAN.) SOLID_ANGLE_UNIT() );
#865 = UNCERTAINTY_MEASURE_WITH_UNIT(LENGTH_MEASURE(1.E-07),#862,
  'distance_accuracy_value','confusion accuracy');
#866 = PRODUCT_TYPE('part',$,(#7));
ENDSEC;
END-ISO-10303-21;
