ISO-10303-21;
HEADER;
FILE_DESCRIPTION(('Open CASCADE Model'),'2;1');
FILE_NAME('Open CASCADE Shape Model','2026-10-04T20:44:43',('Author'),(
    'Open CASCADE'),'Open CASCADE STEP processor 7.8','Open CASCADE 7.8'
  ,'Unknown');
FILE_SCHEMA(('AUTOMOTIVE_DESIGN_CC2 { 1 2 10303 214 -1 1 5 4 }'));
ENDSEC;
DATA;
#1 = APPLICATION_PROTOCOL_DEFINITION('committee draft',
  'automotive_design',1997,#2);
#2 = APPLICATION_CONTEXT(
  'core data for automotive mechanical design processes');
#3 = SHAPE_DEFINITION_REPRESENTATION(#4,#10);
#4 = PRODUCT_DEFINITION_SHAPE('','',#5);
#5 = PRODUCT_DEFINITION('design','',#6,#9);
#6 = PRODUCT_DEFINITION_FORMATION('','',#7);
#7 = PRODUCT('Open CASCADE STEP translator 7.8 115',
  'Open CASCADE STEP translator 7.8 115','',(#8));
#8 = MECHANICAL_CONTEXT('',#2,'mechanical');
#9 = PRODUCT_DEFINITION_CONTEXT('part definition',#2,'design');
#10 = ADVANCED_BREP_SHAPE_REPRESENTATION('',(#11,#15),#861);
#11 = AXIS2_PLACEMENT_3D('',#12,#13,#14);
#12 = CARTESIAN_POINT('',(0.,0.,0.));
#13 = DIRECTION('',(0.,0.,1.));
#14 = DIRECTION('',(1.,0.,-0.));
#15 = MANIFOLD_SOLID_BREP('',#16);
#16 = CLOSED_SHELL('',(#17,#109,#167,#220,#278,#336,#389,#420,#473,#504,
    #557,#583,#614,#645,#698,#746,#777,#803,#829,#855));
#17 = ADVANCED_FACE('',(#18),#32,.T.);
#18 = FACE_BOUND('',#19,.T.);
#19 = EDGE_LOOP('',(#20,#55,#83));
#20 = ORIENTED_EDGE('',*,*,#21,.F.);
#21 = EDGE_CURVE('',#22,#24,#26,.T.);
#22 = VERTEX_POINT('',#23);
#23 = CARTESIAN_POINT('',(-44.50131923262,49.46838945621,30.50568994841)
  );
#24 = VERTEX_POINT('',#25);
#25 = CARTESIAN_POINT('',(-44.49229125555,-49.5118723382,
    1.451224743431E-02));
#26 = SURFACE_CURVE('',#27,(#31,#43),.PCURVE_S1.);
#27 = LINE('',#28,#29);
#28 = CARTESIAN_POINT('',(-44.50131923262,49.46838945621,30.50568994841)
  );
#29 = VECTOR('',#30,1.);
#30 = DIRECTION('',(8.716763645018E-05,-0.955682032361,-0.294400824428)
  );
#31 = PCURVE('',#32,#37);
#32 = PLANE('',#33);
#33 = AXIS2_PLACEMENT_3D('',#34,#35,#36);
#34 = CARTESIAN_POINT('',(-44.49229125555,-49.5118723382,
    1.451224743431E-02));
#35 = DIRECTION('',(-0.999999825445,-2.55349650035E-04,
    5.328295244366E-04));
#36 = DIRECTION('',(-5.328295418078E-04,7.975958288914E-24,
    -0.999999858046));
#37 = DEFINITIONAL_REPRESENTATION('',(#38),#42);
#38 = LINE('',#39,#40);
#39 = CARTESIAN_POINT('',(-30.49116856226,-98.98026502134));
#40 = VECTOR('',#41,1.);
#41 = DIRECTION('',(0.294400736191,0.955682063518));
#42 = ( GEOMETRIC_REPRESENTATION_CONTEXT(2) 
PARAMETRIC_REPRESENTATION_CONTEXT() REPRESENTATION_CONTEXT('2D SPACE',''
  ) );
#43 = PCURVE('',#44,#49);
#44 = PLANE('',#45);
#45 = AXIS2_PLACEMENT_3D('',#46,#47,#48);
#46 = CARTESIAN_POINT('',(-44.51289669988,-49.45713491744,
    30.549499399365));
#47 = DIRECTION('',(-0.999999765358,1.167331910892E-04,
    -6.750233450855E-04));
#48 = DIRECTION('',(6.750233496846E-04,-2.687052506034E-24,
    -0.999999772172));
#49 = DEFINITIONAL_REPRESENTATION('',(#50),#54);
#50 = LINE('',#51,#52);
#51 = CARTESIAN_POINT('',(4.381725603433E-02,-98.92552504766));
#52 = VECTOR('',#53,1.);
#53 = DIRECTION('',(0.294400816195,0.955682038873));
#54 = ( GEOMETRIC_REPRESENTATION_CONTEXT(2) 
PARAMETRIC_REPRESENTATION_CONTEXT() REPRESENTATION_CONTEXT('2D SPACE',''
  ) );
#55 = ORIENTED_EDGE('',*,*,#56,.F.);
#56 = EDGE_CURVE('',#57,#22,#59,.T.);
#57 = VERTEX_POINT('',#58);
#58 = CARTESIAN_POINT('',(-44.51754688755,49.448055481963,
    4.032790668952E-02));
#59 = SURFACE_CURVE('',#60,(#64,#71),.PCURVE_S1.);
#60 = LINE('',#61,#62);
#61 = CARTESIAN_POINT('',(-44.51754688755,49.448055481963,
    4.032790668952E-02));
#62 = VECTOR('',#63,1.);
#63 = DIRECTION('',(5.326589911847E-04,6.67445435413E-04,0.999999635395)
  );
#64 = PCURVE('',#32,#65);
#65 = DEFINITIONAL_REPRESENTATION('',(#66),#70);
#66 = LINE('',#67,#68);
#67 = CARTESIAN_POINT('',(-2.580219864376E-02,-98.95993104643));
#68 = VECTOR('',#69,1.);
#69 = DIRECTION('',(-0.999999777258,-6.674454571729E-04));
#70 = ( GEOMETRIC_REPRESENTATION_CONTEXT(2) 
PARAMETRIC_REPRESENTATION_CONTEXT() REPRESENTATION_CONTEXT('2D SPACE',''
  ) );
#71 = PCURVE('',#72,#77);
#72 = PLANE('',#73);
#73 = AXIS2_PLACEMENT_3D('',#74,#75,#76);
#74 = CARTESIAN_POINT('',(44.477755624196,49.450749532444,
    5.915846775097E-02));
#75 = DIRECTION('',(-3.013059939444E-05,0.999999776815,
    -6.674294804623E-04));
#76 = DIRECTION('',(1.638370617175E-24,6.674294807653E-04,0.999999777269
    ));
#77 = DEFINITIONAL_REPRESENTATION('',(#78),#82);
#78 = LINE('',#79,#80);
#79 = CARTESIAN_POINT('',(-1.883235495601E-02,-88.99530255215));
#80 = VECTOR('',#81,1.);
#81 = DIRECTION('',(0.999999858137,5.326589914265E-04));
#82 = ( GEOMETRIC_REPRESENTATION_CONTEXT(2) 
PARAMETRIC_REPRESENTATION_CONTEXT() REPRESENTATION_CONTEXT('2D SPACE',''
  ) );
#83 = ORIENTED_EDGE('',*,*,#84,.T.);
#84 = EDGE_CURVE('',#57,#24,#85,.T.);
#85 = SURFACE_CURVE('',#86,(#90,#97),.PCURVE_S1.);
#86 = LINE('',#87,#88);
#87 = CARTESIAN_POINT('',(-44.51754688755,49.448055481963,
    4.032790668952E-02));
#88 = VECTOR('',#89,1.);
#89 = DIRECTION('',(2.552106784424E-04,-0.999999933407,
    -2.608698096767E-04));
#90 = PCURVE('',#32,#91);
#91 = DEFINITIONAL_REPRESENTATION('',(#92),#96);
#92 = LINE('',#93,#94);
#93 = CARTESIAN_POINT('',(-2.580219864376E-02,-98.95993104643));
#94 = VECTOR('',#95,1.);
#95 = DIRECTION('',(2.607337888565E-04,0.999999966009));
#96 = ( GEOMETRIC_REPRESENTATION_CONTEXT(2) 
PARAMETRIC_REPRESENTATION_CONTEXT() REPRESENTATION_CONTEXT('2D SPACE',''
  ) );
#97 = PCURVE('',#98,#103);
#98 = PLANE('',#99);
#99 = AXIS2_PLACEMENT_3D('',#100,#101,#102);
#100 = CARTESIAN_POINT('',(-44.51754688755,49.448055481963,
    4.032790668952E-02));
#101 = DIRECTION('',(1.708087279564E-04,2.609134065781E-04,
    -0.999999951374));
#102 = DIRECTION('',(-7.417500783254E-25,-0.999999965962,
    -2.609134103842E-04));
#103 = DEFINITIONAL_REPRESENTATION('',(#104),#108);
#104 = LINE('',#105,#106);
#105 = CARTESIAN_POINT('',(-0.,0.));
#106 = VECTOR('',#107,1.);
#107 = DIRECTION('',(0.999999967434,-2.552106821653E-04));
#108 = ( GEOMETRIC_REPRESENTATION_CONTEXT(2) 
PARAMETRIC_REPRESENTATION_CONTEXT() REPRESENTATION_CONTEXT('2D SPACE',''
  ) );
#109 = ADVANCED_FACE('',(#110),#44,.T.);
#110 = FACE_BOUND('',#111,.T.);
#111 = EDGE_LOOP('',(#112,#140,#141));
#112 = ORIENTED_EDGE('',*,*,#113,.T.);
#113 = EDGE_CURVE('',#114,#22,#116,.T.);
#114 = VERTEX_POINT('',#115);
#115 = CARTESIAN_POINT('',(-44.51289669988,-49.45713491744,
    30.549499399365));
#116 = SURFACE_CURVE('',#117,(#121,#128),.PCURVE_S1.);
#117 = LINE('',#118,#119);
#118 = CARTESIAN_POINT('',(-44.51289669988,-49.45713491744,
    30.549499399365));
#119 = VECTOR('',#120,1.);
#120 = DIRECTION('',(1.170321422882E-04,0.999999895092,
    -4.428528090811E-04));
#121 = PCURVE('',#44,#122);
#122 = DEFINITIONAL_REPRESENTATION('',(#123),#127);
#123 = LINE('',#124,#125);
#124 = CARTESIAN_POINT('',(0.,-0.));
#125 = VECTOR('',#126,1.);
#126 = DIRECTION('',(4.429317076154E-04,-0.999999901906));
#127 = ( GEOMETRIC_REPRESENTATION_CONTEXT(2) 
PARAMETRIC_REPRESENTATION_CONTEXT() REPRESENTATION_CONTEXT('2D SPACE',''
  ) );
#128 = PCURVE('',#129,#134);
#129 = PLANE('',#130);
#130 = AXIS2_PLACEMENT_3D('',#131,#132,#133);
#131 = CARTESIAN_POINT('',(-36.87268665268,41.8774413693,38.172165190035
    ));
#132 = DIRECTION('',(-0.708658283924,3.953914156618E-04,0.705551755927)
  );
#133 = DIRECTION('',(-0.705551811078,2.022538778987E-20,-0.708658339318)
  );
#134 = DEFINITIONAL_REPRESENTATION('',(#135),#139);
#135 = LINE('',#136,#137);
#136 = CARTESIAN_POINT('',(10.792429716213,91.334583426114));
#137 = VECTOR('',#138,1.);
#138 = DIRECTION('',(2.312590962997E-04,-0.99999997326));
#139 = ( GEOMETRIC_REPRESENTATION_CONTEXT(2) 
PARAMETRIC_REPRESENTATION_CONTEXT() REPRESENTATION_CONTEXT('2D SPACE',''
  ) );
#140 = ORIENTED_EDGE('',*,*,#21,.T.);
#141 = ORIENTED_EDGE('',*,*,#142,.F.);
#142 = EDGE_CURVE('',#114,#24,#143,.T.);
#143 = SURFACE_CURVE('',#144,(#148,#155),.PCURVE_S1.);
#144 = LINE('',#145,#146);
#145 = CARTESIAN_POINT('',(-44.51289669988,-49.45713491744,
    30.549499399365));
#146 = VECTOR('',#147,1.);
#147 = DIRECTION('',(6.748130080787E-04,-1.7926099028E-03,
    -0.999998165587));
#148 = PCURVE('',#44,#149);
#149 = DEFINITIONAL_REPRESENTATION('',(#150),#154);
#150 = LINE('',#151,#152);
#151 = CARTESIAN_POINT('',(0.,-0.));
#152 = VECTOR('',#153,1.);
#153 = DIRECTION('',(0.999998393274,1.792609915013E-03));
#154 = ( GEOMETRIC_REPRESENTATION_CONTEXT(2) 
PARAMETRIC_REPRESENTATION_CONTEXT() REPRESENTATION_CONTEXT('2D SPACE',''
  ) );
#155 = PCURVE('',#156,#161);
#156 = PLANE('',#157);
#157 = AXIS2_PLACEMENT_3D('',#158,#159,#160);
#158 = CARTESIAN_POINT('',(44.485407707446,-49.4601434489,
    2.972391251107E-02));
#159 = DIRECTION('',(5.810615859109E-04,-0.999998223754,
    1.793002115706E-03));
#160 = DIRECTION('',(1.194022451677E-22,-1.793002418394E-03,
    -0.99999839257));
#161 = DEFINITIONAL_REPRESENTATION('',(#162),#166);
#162 = LINE('',#163,#164);
#163 = CARTESIAN_POINT('',(-30.51973182275,-88.9983194317));
#164 = VECTOR('',#165,1.);
#165 = DIRECTION('',(0.999999772314,6.748131219981E-04));
#166 = ( GEOMETRIC_REPRESENTATION_CONTEXT(2) 
PARAMETRIC_REPRESENTATION_CONTEXT() REPRESENTATION_CONTEXT('2D SPACE',''
  ) );
#167 = ADVANCED_FACE('',(#168),#156,.T.);
#168 = FACE_BOUND('',#169,.T.);
#169 = EDGE_LOOP('',(#170,#198,#199));
#170 = ORIENTED_EDGE('',*,*,#171,.F.);
#171 = EDGE_CURVE('',#114,#172,#174,.T.);
#172 = VERTEX_POINT('',#173);
#173 = CARTESIAN_POINT('',(44.485407707446,-49.4601434489,
    2.972391251107E-02));
#174 = SURFACE_CURVE('',#175,(#179,#186),.PCURVE_S1.);
#175 = LINE('',#176,#177);
#176 = CARTESIAN_POINT('',(-44.51289669988,-49.45713491744,
    30.549499399365));
#177 = VECTOR('',#178,1.);
#178 = DIRECTION('',(0.945926147125,-3.197643586344E-05,-0.324382063565)
  );
#179 = PCURVE('',#156,#180);
#180 = DEFINITIONAL_REPRESENTATION('',(#181),#185);
#181 = LINE('',#182,#183);
#182 = CARTESIAN_POINT('',(-30.51973182275,-88.9983194317));
#183 = VECTOR('',#184,1.);
#184 = DIRECTION('',(0.324381599477,0.945926306813));
#185 = ( GEOMETRIC_REPRESENTATION_CONTEXT(2) 
PARAMETRIC_REPRESENTATION_CONTEXT() REPRESENTATION_CONTEXT('2D SPACE',''
  ) );
#186 = PCURVE('',#187,#192);
#187 = PLANE('',#188);
#188 = AXIS2_PLACEMENT_3D('',#189,#190,#191);
#189 = CARTESIAN_POINT('',(44.518946665964,-49.53004572327,
    30.563979826139));
#190 = DIRECTION('',(-8.185549205947E-04,-0.999997046591,
    -2.288400760101E-03));
#191 = DIRECTION('',(-6.37942939134E-23,2.288401526753E-03,
    -0.999997381606));
#192 = DEFINITIONAL_REPRESENTATION('',(#193),#197);
#193 = LINE('',#194,#195);
#194 = CARTESIAN_POINT('',(1.464723805851E-02,-89.03187319296));
#195 = VECTOR('',#196,1.);
#196 = DIRECTION('',(0.32438114103,0.945926464026));
#197 = ( GEOMETRIC_REPRESENTATION_CONTEXT(2) 
PARAMETRIC_REPRESENTATION_CONTEXT() REPRESENTATION_CONTEXT('2D SPACE',''
  ) );
#198 = ORIENTED_EDGE('',*,*,#142,.T.);
#199 = ORIENTED_EDGE('',*,*,#200,.T.);
#200 = EDGE_CURVE('',#24,#172,#201,.T.);
#201 = SURFACE_CURVE('',#202,(#206,#213),.PCURVE_S1.);
#202 = LINE('',#203,#204);
#203 = CARTESIAN_POINT('',(-44.49229125555,-49.5118723382,
    1.451224743431E-02));
#204 = VECTOR('',#205,1.);
#205 = DIRECTION('',(0.999999816391,5.813690442218E-04,
    1.709603918853E-04));
#206 = PCURVE('',#156,#207);
#207 = DEFINITIONAL_REPRESENTATION('',(#208),#212);
#208 = LINE('',#209,#210);
#209 = CARTESIAN_POINT('',(1.530439064869E-02,-88.97771398389));
#210 = VECTOR('',#211,1.);
#211 = DIRECTION('',(-1.720025131806E-04,0.999999985208));
#212 = ( GEOMETRIC_REPRESENTATION_CONTEXT(2) 
PARAMETRIC_REPRESENTATION_CONTEXT() REPRESENTATION_CONTEXT('2D SPACE',''
  ) );
#213 = PCURVE('',#98,#214);
#214 = DEFINITIONAL_REPRESENTATION('',(#215),#219);
#215 = LINE('',#216,#217);
#216 = CARTESIAN_POINT('',(98.959931187435,-2.525563236786E-02));
#217 = VECTOR('',#218,1.);
#218 = DIRECTION('',(-5.814136302921E-04,-0.999999830979));
#219 = ( GEOMETRIC_REPRESENTATION_CONTEXT(2) 
PARAMETRIC_REPRESENTATION_CONTEXT() REPRESENTATION_CONTEXT('2D SPACE',''
  ) );
#220 = ADVANCED_FACE('',(#221),#187,.T.);
#221 = FACE_BOUND('',#222,.T.);
#222 = EDGE_LOOP('',(#223,#251,#252));
#223 = ORIENTED_EDGE('',*,*,#224,.F.);
#224 = EDGE_CURVE('',#114,#225,#227,.T.);
#225 = VERTEX_POINT('',#226);
#226 = CARTESIAN_POINT('',(44.518946665964,-49.53004572327,
    30.563979826139));
#227 = SURFACE_CURVE('',#228,(#232,#239),.PCURVE_S1.);
#228 = LINE('',#229,#230);
#229 = CARTESIAN_POINT('',(-44.51289669988,-49.45713491744,
    30.549499399365));
#230 = VECTOR('',#231,1.);
#231 = DIRECTION('',(0.999999651451,-8.189292466881E-04,
    1.626431755204E-04));
#232 = PCURVE('',#187,#233);
#233 = DEFINITIONAL_REPRESENTATION('',(#234),#238);
#234 = LINE('',#235,#236);
#235 = CARTESIAN_POINT('',(1.464723805851E-02,-89.03187319296));
#236 = VECTOR('',#237,1.);
#237 = DIRECTION('',(-1.645167885949E-04,0.999999986467));
#238 = ( GEOMETRIC_REPRESENTATION_CONTEXT(2) 
PARAMETRIC_REPRESENTATION_CONTEXT() REPRESENTATION_CONTEXT('2D SPACE',''
  ) );
#239 = PCURVE('',#240,#245);
#240 = PLANE('',#241);
#241 = AXIS2_PLACEMENT_3D('',#242,#243,#244);
#242 = CARTESIAN_POINT('',(44.518946665964,-49.53004572327,
    30.563979826139));
#243 = DIRECTION('',(-6.950340136657E-04,-0.708566208836,0.705643992835)
  );
#244 = DIRECTION('',(6.154208053243E-20,-0.705644163273,-0.70856637998)
  );
#245 = DEFINITIONAL_REPRESENTATION('',(#246),#250);
#246 = LINE('',#247,#248);
#247 = CARTESIAN_POINT('',(-4.118874099453E-02,-89.03186487026));
#248 = VECTOR('',#249,1.);
#249 = DIRECTION('',(4.626291569521E-04,0.999999892987));
#250 = ( GEOMETRIC_REPRESENTATION_CONTEXT(2) 
PARAMETRIC_REPRESENTATION_CONTEXT() REPRESENTATION_CONTEXT('2D SPACE',''
  ) );
#251 = ORIENTED_EDGE('',*,*,#171,.T.);
#252 = ORIENTED_EDGE('',*,*,#253,.T.);
#253 = EDGE_CURVE('',#172,#225,#254,.T.);
#254 = SURFACE_CURVE('',#255,(#259,#266),.PCURVE_S1.);
#255 = LINE('',#256,#257);
#256 = CARTESIAN_POINT('',(44.485407707446,-49.4601434489,
    2.972391251107E-02));
#257 = VECTOR('',#258,1.);
#258 = DIRECTION('',(1.098400776275E-03,-2.289299245599E-03,
    0.999996776307));
#259 = PCURVE('',#187,#260);
#260 = DEFINITIONAL_REPRESENTATION('',(#261),#265);
#261 = LINE('',#262,#263);
#262 = CARTESIAN_POINT('',(30.534335927381,-3.353896975392E-02));
#263 = VECTOR('',#264,1.);
#264 = DIRECTION('',(-0.999999396757,1.098401144258E-03));
#265 = ( GEOMETRIC_REPRESENTATION_CONTEXT(2) 
PARAMETRIC_REPRESENTATION_CONTEXT() REPRESENTATION_CONTEXT('2D SPACE',''
  ) );
#266 = PCURVE('',#267,#272);
#267 = PLANE('',#268);
#268 = AXIS2_PLACEMENT_3D('',#269,#270,#271);
#269 = CARTESIAN_POINT('',(44.518946665964,-49.53004572327,
    30.563979826139));
#270 = DIRECTION('',(0.999999348254,-3.089433008753E-04,
    -1.099110867259E-03));
#271 = DIRECTION('',(1.099110919712E-03,3.186845404649E-23,
    0.999999395977));
#272 = DEFINITIONAL_REPRESENTATION('',(#273),#277);
#273 = LINE('',#274,#275);
#274 = CARTESIAN_POINT('',(-30.53427433328,-6.990227770739E-02));
#275 = VECTOR('',#276,1.);
#276 = DIRECTION('',(0.999997379551,2.289299354851E-03));
#277 = ( GEOMETRIC_REPRESENTATION_CONTEXT(2) 
PARAMETRIC_REPRESENTATION_CONTEXT() REPRESENTATION_CONTEXT('2D SPACE',''
  ) );
#278 = ADVANCED_FACE('',(#279),#129,.T.);
#279 = FACE_BOUND('',#280,.T.);
#280 = EDGE_LOOP('',(#281,#309,#310));
#281 = ORIENTED_EDGE('',*,*,#282,.F.);
#282 = EDGE_CURVE('',#22,#283,#285,.T.);
#283 = VERTEX_POINT('',#284);
#284 = CARTESIAN_POINT('',(-36.87268665268,41.8774413693,38.172165190035
    ));
#285 = SURFACE_CURVE('',#286,(#290,#297),.PCURVE_S1.);
#286 = LINE('',#287,#288);
#287 = CARTESIAN_POINT('',(-44.50131923262,49.46838945621,30.50568994841
    ));
#288 = VECTOR('',#289,1.);
#289 = DIRECTION('',(0.577341563223,-0.574489567942,0.580205528844));
#290 = PCURVE('',#129,#291);
#291 = DEFINITIONAL_REPRESENTATION('',(#292),#296);
#292 = LINE('',#293,#294);
#293 = CARTESIAN_POINT('',(10.815307145981,-7.590948680273));
#294 = VECTOR('',#295,1.);
#295 = DIRECTION('',(-0.818511872076,0.574489612848));
#296 = ( GEOMETRIC_REPRESENTATION_CONTEXT(2) 
PARAMETRIC_REPRESENTATION_CONTEXT() REPRESENTATION_CONTEXT('2D SPACE',''
  ) );
#297 = PCURVE('',#298,#303);
#298 = PLANE('',#299);
#299 = AXIS2_PLACEMENT_3D('',#300,#301,#302);
#300 = CARTESIAN_POINT('',(36.857081052691,41.842514497128,
    38.164227182542));
#301 = DIRECTION('',(4.124475488941E-04,0.710803493358,0.703390520065));
#302 = DIRECTION('',(-2.774347410426E-20,-0.703390579892,0.710803553817)
  );
#303 = DEFINITIONAL_REPRESENTATION('',(#304),#308);
#304 = LINE('',#305,#306);
#305 = CARTESIAN_POINT('',(-10.80768409271,-81.35840720538));
#306 = VECTOR('',#307,1.);
#307 = DIRECTION('',(0.816502702183,0.577341612329));
#308 = ( GEOMETRIC_REPRESENTATION_CONTEXT(2) 
PARAMETRIC_REPRESENTATION_CONTEXT() REPRESENTATION_CONTEXT('2D SPACE',''
  ) );
#309 = ORIENTED_EDGE('',*,*,#113,.F.);
#310 = ORIENTED_EDGE('',*,*,#311,.T.);
#311 = EDGE_CURVE('',#114,#283,#312,.T.);
#312 = SURFACE_CURVE('',#313,(#317,#324),.PCURVE_S1.);
#313 = LINE('',#314,#315);
#314 = CARTESIAN_POINT('',(-44.51289669988,-49.45713491744,
    30.549499399365));
#315 = VECTOR('',#316,1.);
#316 = DIRECTION('',(8.307284166969E-02,0.993090863727,
    8.288208104448E-02));
#317 = PCURVE('',#129,#318);
#318 = DEFINITIONAL_REPRESENTATION('',(#319),#323);
#319 = LINE('',#320,#321);
#320 = CARTESIAN_POINT('',(10.792429716213,91.334583426114));
#321 = VECTOR('',#322,1.);
#322 = DIRECTION('',(-0.117347271804,-0.993090941354));
#323 = ( GEOMETRIC_REPRESENTATION_CONTEXT(2) 
PARAMETRIC_REPRESENTATION_CONTEXT() REPRESENTATION_CONTEXT('2D SPACE',''
  ) );
#324 = PCURVE('',#325,#330);
#325 = PLANE('',#326);
#326 = AXIS2_PLACEMENT_3D('',#327,#328,#329);
#327 = CARTESIAN_POINT('',(-36.87268665268,41.8774413693,38.172165190035
    ));
#328 = DIRECTION('',(-0.708142981549,3.091180675558E-04,0.706068992471)
  );
#329 = DIRECTION('',(-0.706069026205,8.061695429935E-21,-0.708143015382)
  );
#330 = DEFINITIONAL_REPRESENTATION('',(#331),#335);
#331 = LINE('',#332,#333);
#332 = CARTESIAN_POINT('',(10.792453206285,91.334580650438));
#333 = VECTOR('',#334,1.);
#334 = DIRECTION('',(-0.117347527214,-0.993090911174));
#335 = ( GEOMETRIC_REPRESENTATION_CONTEXT(2) 
PARAMETRIC_REPRESENTATION_CONTEXT() REPRESENTATION_CONTEXT('2D SPACE',''
  ) );
#336 = ADVANCED_FACE('',(#337),#325,.T.);
#337 = FACE_BOUND('',#338,.T.);
#338 = EDGE_LOOP('',(#339,#340,#363));
#339 = ORIENTED_EDGE('',*,*,#311,.F.);
#340 = ORIENTED_EDGE('',*,*,#341,.T.);
#341 = EDGE_CURVE('',#114,#342,#344,.T.);
#342 = VERTEX_POINT('',#343);
#343 = CARTESIAN_POINT('',(-36.89163338833,-41.85579833705,
    38.189821339086));
#344 = SURFACE_CURVE('',#345,(#349,#356),.PCURVE_S1.);
#345 = LINE('',#346,#347);
#346 = CARTESIAN_POINT('',(-44.51289669988,-49.45713491744,
    30.549499399365));
#347 = VECTOR('',#348,1.);
#348 = DIRECTION('',(0.577370931831,0.575861324452,0.578814773548));
#349 = PCURVE('',#325,#350);
#350 = DEFINITIONAL_REPRESENTATION('',(#351),#355);
#351 = LINE('',#352,#353);
#352 = CARTESIAN_POINT('',(10.792453206285,91.334580650438));
#353 = VECTOR('',#354,1.);
#354 = DIRECTION('',(-0.817547370685,-0.575861351965));
#355 = ( GEOMETRIC_REPRESENTATION_CONTEXT(2) 
PARAMETRIC_REPRESENTATION_CONTEXT() REPRESENTATION_CONTEXT('2D SPACE',''
  ) );
#356 = PCURVE('',#240,#357);
#357 = DEFINITIONAL_REPRESENTATION('',(#358),#362);
#358 = LINE('',#359,#360);
#359 = CARTESIAN_POINT('',(-4.118874099453E-02,-89.03186487026));
#360 = VECTOR('',#361,1.);
#361 = DIRECTION('',(-0.816481871226,0.577371071287));
#362 = ( GEOMETRIC_REPRESENTATION_CONTEXT(2) 
PARAMETRIC_REPRESENTATION_CONTEXT() REPRESENTATION_CONTEXT('2D SPACE',''
  ) );
#363 = ORIENTED_EDGE('',*,*,#364,.T.);
#364 = EDGE_CURVE('',#342,#283,#365,.T.);
#365 = SURFACE_CURVE('',#366,(#370,#377),.PCURVE_S1.);
#366 = LINE('',#367,#368);
#367 = CARTESIAN_POINT('',(-36.89163338833,-41.85579833705,
    38.189821339086));
#368 = VECTOR('',#369,1.);
#369 = DIRECTION('',(2.262749514421E-04,0.999999952168,
    -2.108618783628E-04));
#370 = PCURVE('',#325,#371);
#371 = DEFINITIONAL_REPRESENTATION('',(#372),#376);
#372 = LINE('',#373,#374);
#373 = CARTESIAN_POINT('',(8.746245650356E-04,83.733243706874));
#374 = VECTOR('',#375,1.);
#375 = DIRECTION('',(-1.044536824645E-05,-0.999999999945));
#376 = ( GEOMETRIC_REPRESENTATION_CONTEXT(2) 
PARAMETRIC_REPRESENTATION_CONTEXT() REPRESENTATION_CONTEXT('2D SPACE',''
  ) );
#377 = PCURVE('',#378,#383);
#378 = PLANE('',#379);
#379 = AXIS2_PLACEMENT_3D('',#380,#381,#382);
#380 = CARTESIAN_POINT('',(36.857081052691,41.842514497128,
    38.164227182542));
#381 = DIRECTION('',(1.077634097048E-04,2.108374983761E-04,
    0.999999971967));
#382 = DIRECTION('',(6.332207036038E-25,0.999999977774,
    -2.108374996004E-04));
#383 = DEFINITIONAL_REPRESENTATION('',(#384),#388);
#384 = LINE('',#385,#386);
#385 = CARTESIAN_POINT('',(-83.69831637009,73.748714869249));
#386 = VECTOR('',#387,1.);
#387 = DIRECTION('',(0.9999999744,-2.262749527559E-04));
#388 = ( GEOMETRIC_REPRESENTATION_CONTEXT(2) 
PARAMETRIC_REPRESENTATION_CONTEXT() REPRESENTATION_CONTEXT('2D SPACE',''
  ) );
#389 = ADVANCED_FACE('',(#390),#98,.T.);
#390 = FACE_BOUND('',#391,.T.);
#391 = EDGE_LOOP('',(#392,#418,#419));
#392 = ORIENTED_EDGE('',*,*,#393,.T.);
#393 = EDGE_CURVE('',#57,#172,#394,.T.);
#394 = SURFACE_CURVE('',#395,(#399,#406),.PCURVE_S1.);
#395 = LINE('',#396,#397);
#396 = CARTESIAN_POINT('',(-44.51754688755,49.448055481963,
    4.032790668952E-02));
#397 = VECTOR('',#398,1.);
#398 = DIRECTION('',(0.668904833731,-0.743348045709,-7.969469098078E-05)
  );
#399 = PCURVE('',#98,#400);
#400 = DEFINITIONAL_REPRESENTATION('',(#401),#405);
#401 = LINE('',#402,#403);
#402 = CARTESIAN_POINT('',(-0.,0.));
#403 = VECTOR('',#404,1.);
#404 = DIRECTION('',(0.7433480412,-0.668904843489));
#405 = ( GEOMETRIC_REPRESENTATION_CONTEXT(2) 
PARAMETRIC_REPRESENTATION_CONTEXT() REPRESENTATION_CONTEXT('2D SPACE',''
  ) );
#406 = PCURVE('',#407,#412);
#407 = PLANE('',#408);
#408 = AXIS2_PLACEMENT_3D('',#409,#410,#411);
#409 = CARTESIAN_POINT('',(44.477755624196,49.450749532444,
    5.915846775097E-02));
#410 = DIRECTION('',(2.115814825872E-04,2.976029376487E-04,
    -0.999999933333));
#411 = DIRECTION('',(1.802553786762E-24,-0.999999955716,
    -2.9760294431E-04));
#412 = DEFINITIONAL_REPRESENTATION('',(#413),#417);
#413 = LINE('',#414,#415);
#414 = CARTESIAN_POINT('',(2.699654391939E-03,88.995304503767));
#415 = VECTOR('',#416,1.);
#416 = DIRECTION('',(0.743348036508,-0.668904848704));
#417 = ( GEOMETRIC_REPRESENTATION_CONTEXT(2) 
PARAMETRIC_REPRESENTATION_CONTEXT() REPRESENTATION_CONTEXT('2D SPACE',''
  ) );
#418 = ORIENTED_EDGE('',*,*,#200,.F.);
#419 = ORIENTED_EDGE('',*,*,#84,.F.);
#420 = ADVANCED_FACE('',(#421),#407,.T.);
#421 = FACE_BOUND('',#422,.T.);
#422 = EDGE_LOOP('',(#423,#451,#452));
#423 = ORIENTED_EDGE('',*,*,#424,.T.);
#424 = EDGE_CURVE('',#425,#172,#427,.T.);
#425 = VERTEX_POINT('',#426);
#426 = CARTESIAN_POINT('',(44.477755624196,49.450749532444,
    5.915846775097E-02));
#427 = SURFACE_CURVE('',#428,(#432,#439),.PCURVE_S1.);
#428 = LINE('',#429,#430);
#429 = CARTESIAN_POINT('',(44.477755624196,49.450749532444,
    5.915846775097E-02));
#430 = VECTOR('',#431,1.);
#431 = DIRECTION('',(7.736339909163E-05,-0.999999952729,
    -2.975865747571E-04));
#432 = PCURVE('',#407,#433);
#433 = DEFINITIONAL_REPRESENTATION('',(#434),#438);
#434 = LINE('',#435,#436);
#435 = CARTESIAN_POINT('',(0.,0.));
#436 = VECTOR('',#437,1.);
#437 = DIRECTION('',(0.999999997007,-7.736340082329E-05));
#438 = ( GEOMETRIC_REPRESENTATION_CONTEXT(2) 
PARAMETRIC_REPRESENTATION_CONTEXT() REPRESENTATION_CONTEXT('2D SPACE',''
  ) );
#439 = PCURVE('',#440,#445);
#440 = PLANE('',#441);
#441 = AXIS2_PLACEMENT_3D('',#442,#443,#444);
#442 = CARTESIAN_POINT('',(44.485407707446,-49.4601434489,
    2.972391251107E-02));
#443 = DIRECTION('',(0.999997222654,7.806416639986E-05,
    -2.355544713487E-03));
#444 = DIRECTION('',(2.355544720665E-03,1.934944984464E-23,
    0.999997225701));
#445 = DEFINITIONAL_REPRESENTATION('',(#446),#450);
#446 = LINE('',#447,#448);
#447 = CARTESIAN_POINT('',(2.941644875533E-02,-98.91089328273));
#448 = VECTOR('',#449,1.);
#449 = DIRECTION('',(-2.974035162166E-04,0.999999955776));
#450 = ( GEOMETRIC_REPRESENTATION_CONTEXT(2) 
PARAMETRIC_REPRESENTATION_CONTEXT() REPRESENTATION_CONTEXT('2D SPACE',''
  ) );
#451 = ORIENTED_EDGE('',*,*,#393,.F.);
#452 = ORIENTED_EDGE('',*,*,#453,.T.);
#453 = EDGE_CURVE('',#57,#425,#454,.T.);
#454 = SURFACE_CURVE('',#455,(#459,#466),.PCURVE_S1.);
#455 = LINE('',#456,#457);
#456 = CARTESIAN_POINT('',(-44.51754688755,49.448055481963,
    4.032790668952E-02));
#457 = VECTOR('',#458,1.);
#458 = DIRECTION('',(0.999999977157,3.027182720042E-05,
    2.115905008448E-04));
#459 = PCURVE('',#407,#460);
#460 = DEFINITIONAL_REPRESENTATION('',(#461),#465);
#461 = LINE('',#462,#463);
#462 = CARTESIAN_POINT('',(2.699654391939E-03,88.995304503767));
#463 = VECTOR('',#464,1.);
#464 = DIRECTION('',(-3.033479581591E-05,-0.99999999954));
#465 = ( GEOMETRIC_REPRESENTATION_CONTEXT(2) 
PARAMETRIC_REPRESENTATION_CONTEXT() REPRESENTATION_CONTEXT('2D SPACE',''
  ) );
#466 = PCURVE('',#72,#467);
#467 = DEFINITIONAL_REPRESENTATION('',(#468),#472);
#468 = LINE('',#469,#470);
#469 = CARTESIAN_POINT('',(-1.883235495601E-02,-88.99530255215));
#470 = VECTOR('',#471,1.);
#471 = DIRECTION('',(2.116106580269E-04,0.99999997761));
#472 = ( GEOMETRIC_REPRESENTATION_CONTEXT(2) 
PARAMETRIC_REPRESENTATION_CONTEXT() REPRESENTATION_CONTEXT('2D SPACE',''
  ) );
#473 = ADVANCED_FACE('',(#474),#72,.T.);
#474 = FACE_BOUND('',#475,.T.);
#475 = EDGE_LOOP('',(#476,#477,#478));
#476 = ORIENTED_EDGE('',*,*,#453,.F.);
#477 = ORIENTED_EDGE('',*,*,#56,.T.);
#478 = ORIENTED_EDGE('',*,*,#479,.T.);
#479 = EDGE_CURVE('',#22,#425,#480,.T.);
#480 = SURFACE_CURVE('',#481,(#485,#492),.PCURVE_S1.);
#481 = LINE('',#482,#483);
#482 = CARTESIAN_POINT('',(-44.50131923262,49.46838945621,30.50568994841
    ));
#483 = VECTOR('',#484,1.);
#484 = DIRECTION('',(0.946143379405,-1.875710341026E-04,-0.323747850072)
  );
#485 = PCURVE('',#72,#486);
#486 = DEFINITIONAL_REPRESENTATION('',(#487),#491);
#487 = LINE('',#488,#489);
#488 = CARTESIAN_POINT('',(30.446536472675,-88.97907489721));
#489 = VECTOR('',#490,1.);
#490 = DIRECTION('',(-0.323747903153,0.946143379834));
#491 = ( GEOMETRIC_REPRESENTATION_CONTEXT(2) 
PARAMETRIC_REPRESENTATION_CONTEXT() REPRESENTATION_CONTEXT('2D SPACE',''
  ) );
#492 = PCURVE('',#493,#498);
#493 = PLANE('',#494);
#494 = AXIS2_PLACEMENT_3D('',#495,#496,#497);
#495 = CARTESIAN_POINT('',(44.549466698113,49.473994134891,
    30.503364816455));
#496 = DIRECTION('',(-6.295791672315E-05,0.999999706654,
    -7.633662898871E-04));
#497 = DIRECTION('',(-2.242523393038E-24,7.633662914E-04,0.999999708636)
  );
#498 = DEFINITIONAL_REPRESENTATION('',(#499),#503);
#499 = LINE('',#500,#501);
#500 = CARTESIAN_POINT('',(2.320852855056E-03,-89.05078610722));
#501 = VECTOR('',#502,1.);
#502 = DIRECTION('',(-0.323747898929,0.94614338128));
#503 = ( GEOMETRIC_REPRESENTATION_CONTEXT(2) 
PARAMETRIC_REPRESENTATION_CONTEXT() REPRESENTATION_CONTEXT('2D SPACE',''
  ) );
#504 = ADVANCED_FACE('',(#505),#493,.T.);
#505 = FACE_BOUND('',#506,.T.);
#506 = EDGE_LOOP('',(#507,#530,#531));
#507 = ORIENTED_EDGE('',*,*,#508,.F.);
#508 = EDGE_CURVE('',#425,#509,#511,.T.);
#509 = VERTEX_POINT('',#510);
#510 = CARTESIAN_POINT('',(44.549466698113,49.473994134891,
    30.503364816455));
#511 = SURFACE_CURVE('',#512,(#516,#523),.PCURVE_S1.);
#512 = LINE('',#513,#514);
#513 = CARTESIAN_POINT('',(44.477755624196,49.450749532444,
    5.915846775097E-02));
#514 = VECTOR('',#515,1.);
#515 = DIRECTION('',(2.355484431281E-03,7.635124700516E-04,
    0.999996934366));
#516 = PCURVE('',#493,#517);
#517 = DEFINITIONAL_REPRESENTATION('',(#518),#522);
#518 = LINE('',#519,#520);
#519 = CARTESIAN_POINT('',(-30.4442152225,-7.17110740591E-02));
#520 = VECTOR('',#521,1.);
#521 = DIRECTION('',(0.999997225843,2.35548443595E-03));
#522 = ( GEOMETRIC_REPRESENTATION_CONTEXT(2) 
PARAMETRIC_REPRESENTATION_CONTEXT() REPRESENTATION_CONTEXT('2D SPACE',''
  ) );
#523 = PCURVE('',#440,#524);
#524 = DEFINITIONAL_REPRESENTATION('',(#525),#529);
#525 = LINE('',#526,#527);
#526 = CARTESIAN_POINT('',(2.941644875533E-02,-98.91089328273));
#527 = VECTOR('',#528,1.);
#528 = DIRECTION('',(0.999999708524,-7.63512472378E-04));
#529 = ( GEOMETRIC_REPRESENTATION_CONTEXT(2) 
PARAMETRIC_REPRESENTATION_CONTEXT() REPRESENTATION_CONTEXT('2D SPACE',''
  ) );
#530 = ORIENTED_EDGE('',*,*,#479,.F.);
#531 = ORIENTED_EDGE('',*,*,#532,.T.);
#532 = EDGE_CURVE('',#22,#509,#533,.T.);
#533 = SURFACE_CURVE('',#534,(#538,#545),.PCURVE_S1.);
#534 = LINE('',#535,#536);
#535 = CARTESIAN_POINT('',(-44.50131923262,49.46838945621,30.50568994841
    ));
#536 = VECTOR('',#537,1.);
#537 = DIRECTION('',(0.999999997679,6.293800340923E-05,
    -2.611017887822E-05));
#538 = PCURVE('',#493,#539);
#539 = DEFINITIONAL_REPRESENTATION('',(#540),#544);
#540 = LINE('',#541,#542);
#541 = CARTESIAN_POINT('',(2.320852855056E-03,-89.05078610722));
#542 = VECTOR('',#543,1.);
#543 = DIRECTION('',(-2.60621265204E-05,0.99999999966));
#544 = ( GEOMETRIC_REPRESENTATION_CONTEXT(2) 
PARAMETRIC_REPRESENTATION_CONTEXT() REPRESENTATION_CONTEXT('2D SPACE',''
  ) );
#545 = PCURVE('',#546,#551);
#546 = PLANE('',#547);
#547 = AXIS2_PLACEMENT_3D('',#548,#549,#550);
#548 = CARTESIAN_POINT('',(36.857081052691,41.842514497128,
    38.164227182542));
#549 = DIRECTION('',(-2.616331128656E-05,0.708477244467,0.705733656125)
  );
#550 = DIRECTION('',(-9.116733021248E-22,-0.705733656367,0.70847724471)
  );
#551 = DEFINITIONAL_REPRESENTATION('',(#552),#556);
#552 = LINE('',#553,#554);
#553 = CARTESIAN_POINT('',(-10.80773597601,-81.35840031316));
#554 = VECTOR('',#555,1.);
#555 = DIRECTION('',(-6.291593486093E-05,0.999999998021));
#556 = ( GEOMETRIC_REPRESENTATION_CONTEXT(2) 
PARAMETRIC_REPRESENTATION_CONTEXT() REPRESENTATION_CONTEXT('2D SPACE',''
  ) );
#557 = ADVANCED_FACE('',(#558),#440,.T.);
#558 = FACE_BOUND('',#559,.T.);
#559 = EDGE_LOOP('',(#560,#561,#562));
#560 = ORIENTED_EDGE('',*,*,#424,.F.);
#561 = ORIENTED_EDGE('',*,*,#508,.T.);
#562 = ORIENTED_EDGE('',*,*,#563,.F.);
#563 = EDGE_CURVE('',#172,#509,#564,.T.);
#564 = SURFACE_CURVE('',#565,(#569,#576),.PCURVE_S1.);
#565 = LINE('',#566,#567);
#566 = CARTESIAN_POINT('',(44.485407707446,-49.4601434489,
    2.972391251107E-02));
#567 = VECTOR('',#568,1.);
#568 = DIRECTION('',(6.188015158037E-04,0.955690897782,0.294371406528));
#569 = PCURVE('',#440,#570);
#570 = DEFINITIONAL_REPRESENTATION('',(#571),#575);
#571 = LINE('',#572,#573);
#572 = CARTESIAN_POINT('',(0.,0.));
#573 = VECTOR('',#574,1.);
#574 = DIRECTION('',(0.294372047468,-0.955690900694));
#575 = ( GEOMETRIC_REPRESENTATION_CONTEXT(2) 
PARAMETRIC_REPRESENTATION_CONTEXT() REPRESENTATION_CONTEXT('2D SPACE',''
  ) );
#576 = PCURVE('',#267,#577);
#577 = DEFINITIONAL_REPRESENTATION('',(#578),#582);
#578 = LINE('',#579,#580);
#579 = CARTESIAN_POINT('',(-30.53427433328,-6.990227770739E-02));
#580 = VECTOR('',#581,1.);
#581 = DIRECTION('',(0.294371908853,-0.95569094339));
#582 = ( GEOMETRIC_REPRESENTATION_CONTEXT(2) 
PARAMETRIC_REPRESENTATION_CONTEXT() REPRESENTATION_CONTEXT('2D SPACE',''
  ) );
#583 = ADVANCED_FACE('',(#584),#267,.T.);
#584 = FACE_BOUND('',#585,.T.);
#585 = EDGE_LOOP('',(#586,#587,#588));
#586 = ORIENTED_EDGE('',*,*,#253,.F.);
#587 = ORIENTED_EDGE('',*,*,#563,.T.);
#588 = ORIENTED_EDGE('',*,*,#589,.F.);
#589 = EDGE_CURVE('',#225,#509,#590,.T.);
#590 = SURFACE_CURVE('',#591,(#595,#602),.PCURVE_S1.);
#591 = LINE('',#592,#593);
#592 = CARTESIAN_POINT('',(44.518946665964,-49.53004572327,
    30.563979826139));
#593 = VECTOR('',#594,1.);
#594 = DIRECTION('',(3.082705011087E-04,0.999999765061,
    -6.122476974731E-04));
#595 = PCURVE('',#267,#596);
#596 = DEFINITIONAL_REPRESENTATION('',(#597),#601);
#597 = LINE('',#598,#599);
#598 = CARTESIAN_POINT('',(0.,0.));
#599 = VECTOR('',#600,1.);
#600 = DIRECTION('',(-6.119085041876E-04,-0.999999812784));
#601 = ( GEOMETRIC_REPRESENTATION_CONTEXT(2) 
PARAMETRIC_REPRESENTATION_CONTEXT() REPRESENTATION_CONTEXT('2D SPACE',''
  ) );
#602 = PCURVE('',#603,#608);
#603 = PLANE('',#604);
#604 = AXIS2_PLACEMENT_3D('',#605,#606,#607);
#605 = CARTESIAN_POINT('',(44.549466698113,49.473994134891,
    30.503364816455));
#606 = DIRECTION('',(0.703384950845,2.183584490792E-04,0.710809090575));
#607 = DIRECTION('',(0.710809107521,-9.199187768026E-21,-0.703384967614)
  );
#608 = DEFINITIONAL_REPRESENTATION('',(#609),#613);
#609 = LINE('',#610,#611);
#610 = CARTESIAN_POINT('',(-6.432960343736E-02,-99.00404221844));
#611 = VECTOR('',#612,1.);
#612 = DIRECTION('',(6.497673066269E-04,0.999999788901));
#613 = ( GEOMETRIC_REPRESENTATION_CONTEXT(2) 
PARAMETRIC_REPRESENTATION_CONTEXT() REPRESENTATION_CONTEXT('2D SPACE',''
  ) );
#614 = ADVANCED_FACE('',(#615),#240,.T.);
#615 = FACE_BOUND('',#616,.T.);
#616 = EDGE_LOOP('',(#617,#643,#644));
#617 = ORIENTED_EDGE('',*,*,#618,.F.);
#618 = EDGE_CURVE('',#342,#225,#619,.T.);
#619 = SURFACE_CURVE('',#620,(#624,#631),.PCURVE_S1.);
#620 = LINE('',#621,#622);
#621 = CARTESIAN_POINT('',(-36.89163338833,-41.85579833705,
    38.189821339086));
#622 = VECTOR('',#623,1.);
#623 = DIRECTION('',(0.991285063042,-9.344444909967E-02,
    -9.285504144388E-02));
#624 = PCURVE('',#240,#625);
#625 = DEFINITIONAL_REPRESENTATION('',(#626),#630);
#626 = LINE('',#627,#628);
#627 = CARTESIAN_POINT('',(-10.81870279073,-81.4105997179));
#628 = VECTOR('',#629,1.);
#629 = DIRECTION('',(0.131732490676,0.991285302474));
#630 = ( GEOMETRIC_REPRESENTATION_CONTEXT(2) 
PARAMETRIC_REPRESENTATION_CONTEXT() REPRESENTATION_CONTEXT('2D SPACE',''
  ) );
#631 = PCURVE('',#632,#637);
#632 = PLANE('',#633);
#633 = AXIS2_PLACEMENT_3D('',#634,#635,#636);
#634 = CARTESIAN_POINT('',(36.901324794117,-41.86992370586,
    38.099685270181));
#635 = DIRECTION('',(7.37031645069E-04,-0.700921046598,0.713238489722));
#636 = DIRECTION('',(-6.208436746639E-20,0.713238683443,0.700921236974)
  );
#637 = DEFINITIONAL_REPRESENTATION('',(#638),#642);
#638 = LINE('',#639,#640);
#639 = CARTESIAN_POINT('',(7.325304436732E-02,73.792978225208));
#640 = VECTOR('',#641,1.);
#641 = DIRECTION('',(-0.131732266359,-0.991285332283));
#642 = ( GEOMETRIC_REPRESENTATION_CONTEXT(2) 
PARAMETRIC_REPRESENTATION_CONTEXT() REPRESENTATION_CONTEXT('2D SPACE',''
  ) );
#643 = ORIENTED_EDGE('',*,*,#341,.F.);
#644 = ORIENTED_EDGE('',*,*,#224,.T.);
#645 = ADVANCED_FACE('',(#646),#632,.T.);
#646 = FACE_BOUND('',#647,.T.);
#647 = EDGE_LOOP('',(#648,#676,#677));
#648 = ORIENTED_EDGE('',*,*,#649,.F.);
#649 = EDGE_CURVE('',#342,#650,#652,.T.);
#650 = VERTEX_POINT('',#651);
#651 = CARTESIAN_POINT('',(36.901324794117,-41.86992370586,
    38.099685270181));
#652 = SURFACE_CURVE('',#653,(#657,#664),.PCURVE_S1.);
#653 = LINE('',#654,#655);
#654 = CARTESIAN_POINT('',(-36.89163338833,-41.85579833705,
    38.189821339086));
#655 = VECTOR('',#656,1.);
#656 = DIRECTION('',(0.999999235683,-1.914187798364E-04,
    -1.221471563578E-03));
#657 = PCURVE('',#632,#658);
#658 = DEFINITIONAL_REPRESENTATION('',(#659),#663);
#659 = LINE('',#660,#661);
#660 = CARTESIAN_POINT('',(7.325304436732E-02,73.792978225208));
#661 = VECTOR('',#662,1.);
#662 = DIRECTION('',(-9.926826377882E-04,-0.99999950729));
#663 = ( GEOMETRIC_REPRESENTATION_CONTEXT(2) 
PARAMETRIC_REPRESENTATION_CONTEXT() REPRESENTATION_CONTEXT('2D SPACE',''
  ) );
#664 = PCURVE('',#665,#670);
#665 = PLANE('',#666);
#666 = AXIS2_PLACEMENT_3D('',#667,#668,#669);
#667 = CARTESIAN_POINT('',(36.857081052691,41.842514497128,
    38.164227182542));
#668 = DIRECTION('',(1.221323764327E-03,-7.703491921364E-04,
    0.999998957465));
#669 = DIRECTION('',(0.999999254183,-8.030405993182E-23,
    -1.221324126717E-03));
#670 = DEFINITIONAL_REPRESENTATION('',(#671),#675);
#671 = LINE('',#672,#673);
#672 = CARTESIAN_POINT('',(-73.74869069677,-83.69833766906));
#673 = VECTOR('',#674,1.);
#674 = DIRECTION('',(0.999999981679,-1.91418836634E-04));
#675 = ( GEOMETRIC_REPRESENTATION_CONTEXT(2) 
PARAMETRIC_REPRESENTATION_CONTEXT() REPRESENTATION_CONTEXT('2D SPACE',''
  ) );
#676 = ORIENTED_EDGE('',*,*,#618,.T.);
#677 = ORIENTED_EDGE('',*,*,#678,.F.);
#678 = EDGE_CURVE('',#650,#225,#679,.T.);
#679 = SURFACE_CURVE('',#680,(#684,#691),.PCURVE_S1.);
#680 = LINE('',#681,#682);
#681 = CARTESIAN_POINT('',(36.901324794117,-41.86992370586,
    38.099685270181));
#682 = VECTOR('',#683,1.);
#683 = DIRECTION('',(0.578334462651,-0.581561099423,-0.572115317876));
#684 = PCURVE('',#632,#685);
#685 = DEFINITIONAL_REPRESENTATION('',(#686),#690);
#686 = LINE('',#687,#688);
#687 = CARTESIAN_POINT('',(0.,0.));
#688 = VECTOR('',#689,1.);
#689 = DIRECTION('',(-0.815799649191,-0.578334619731));
#690 = ( GEOMETRIC_REPRESENTATION_CONTEXT(2) 
PARAMETRIC_REPRESENTATION_CONTEXT() REPRESENTATION_CONTEXT('2D SPACE',''
  ) );
#691 = PCURVE('',#603,#692);
#692 = DEFINITIONAL_REPRESENTATION('',(#693),#697);
#693 = LINE('',#694,#695);
#694 = CARTESIAN_POINT('',(-10.7795065373,-91.34392001841));
#695 = VECTOR('',#696,1.);
#696 = DIRECTION('',(0.813502717581,-0.581561113288));
#697 = ( GEOMETRIC_REPRESENTATION_CONTEXT(2) 
PARAMETRIC_REPRESENTATION_CONTEXT() REPRESENTATION_CONTEXT('2D SPACE',''
  ) );
#698 = ADVANCED_FACE('',(#699),#378,.T.);
#699 = FACE_BOUND('',#700,.T.);
#700 = EDGE_LOOP('',(#701,#724,#725));
#701 = ORIENTED_EDGE('',*,*,#702,.F.);
#702 = EDGE_CURVE('',#283,#703,#705,.T.);
#703 = VERTEX_POINT('',#704);
#704 = CARTESIAN_POINT('',(36.857081052691,41.842514497128,
    38.164227182542));
#705 = SURFACE_CURVE('',#706,(#710,#717),.PCURVE_S1.);
#706 = LINE('',#707,#708);
#707 = CARTESIAN_POINT('',(-36.87268665268,41.8774413693,38.172165190035
    ));
#708 = VECTOR('',#709,1.);
#709 = DIRECTION('',(0.999999882002,-4.737146085997E-04,
    -1.076635232039E-04));
#710 = PCURVE('',#378,#711);
#711 = DEFINITIONAL_REPRESENTATION('',(#712),#716);
#712 = LINE('',#713,#714);
#713 = CARTESIAN_POINT('',(3.492519776607E-02,73.729768133484));
#714 = VECTOR('',#715,1.);
#715 = DIRECTION('',(-4.736918985628E-04,-0.999999887808));
#716 = ( GEOMETRIC_REPRESENTATION_CONTEXT(2) 
PARAMETRIC_REPRESENTATION_CONTEXT() REPRESENTATION_CONTEXT('2D SPACE',''
  ) );
#717 = PCURVE('',#298,#718);
#718 = DEFINITIONAL_REPRESENTATION('',(#719),#723);
#719 = LINE('',#720,#721);
#720 = CARTESIAN_POINT('',(-1.892486893477E-02,-73.72977397657));
#721 = VECTOR('',#722,1.);
#722 = DIRECTION('',(2.566787783367E-04,0.999999967058));
#723 = ( GEOMETRIC_REPRESENTATION_CONTEXT(2) 
PARAMETRIC_REPRESENTATION_CONTEXT() REPRESENTATION_CONTEXT('2D SPACE',''
  ) );
#724 = ORIENTED_EDGE('',*,*,#364,.F.);
#725 = ORIENTED_EDGE('',*,*,#726,.T.);
#726 = EDGE_CURVE('',#342,#703,#727,.T.);
#727 = SURFACE_CURVE('',#728,(#732,#739),.PCURVE_S1.);
#728 = LINE('',#729,#730);
#729 = CARTESIAN_POINT('',(-36.89163338833,-41.85579833705,
    38.189821339086));
#730 = VECTOR('',#731,1.);
#731 = DIRECTION('',(0.6611036391,0.75029455931,-2.294330166793E-04));
#732 = PCURVE('',#378,#733);
#733 = DEFINITIONAL_REPRESENTATION('',(#734),#738);
#734 = LINE('',#735,#736);
#735 = CARTESIAN_POINT('',(-83.69831637009,73.748714869249));
#736 = VECTOR('',#737,1.);
#737 = DIRECTION('',(0.750294591006,-0.661103642938));
#738 = ( GEOMETRIC_REPRESENTATION_CONTEXT(2) 
PARAMETRIC_REPRESENTATION_CONTEXT() REPRESENTATION_CONTEXT('2D SPACE',''
  ) );
#739 = PCURVE('',#665,#740);
#740 = DEFINITIONAL_REPRESENTATION('',(#741),#745);
#741 = LINE('',#742,#743);
#742 = CARTESIAN_POINT('',(-73.74869069677,-83.69833766906));
#743 = VECTOR('',#744,1.);
#744 = DIRECTION('',(0.66110342625,0.750294781936));
#745 = ( GEOMETRIC_REPRESENTATION_CONTEXT(2) 
PARAMETRIC_REPRESENTATION_CONTEXT() REPRESENTATION_CONTEXT('2D SPACE',''
  ) );
#746 = ADVANCED_FACE('',(#747),#665,.T.);
#747 = FACE_BOUND('',#748,.T.);
#748 = EDGE_LOOP('',(#749,#750,#751));
#749 = ORIENTED_EDGE('',*,*,#726,.F.);
#750 = ORIENTED_EDGE('',*,*,#649,.T.);
#751 = ORIENTED_EDGE('',*,*,#752,.F.);
#752 = EDGE_CURVE('',#703,#650,#753,.T.);
#753 = SURFACE_CURVE('',#754,(#758,#765),.PCURVE_S1.);
#754 = LINE('',#755,#756);
#755 = CARTESIAN_POINT('',(36.857081052691,41.842514497128,
    38.164227182542));
#756 = VECTOR('',#757,1.);
#757 = DIRECTION('',(5.285202897757E-04,-0.999999563116,
    -7.70995153763E-04));
#758 = PCURVE('',#665,#759);
#759 = DEFINITIONAL_REPRESENTATION('',(#760),#764);
#760 = LINE('',#761,#762);
#761 = CARTESIAN_POINT('',(0.,0.));
#762 = VECTOR('',#763,1.);
#763 = DIRECTION('',(5.294615305793E-04,-0.999999859835));
#764 = ( GEOMETRIC_REPRESENTATION_CONTEXT(2) 
PARAMETRIC_REPRESENTATION_CONTEXT() REPRESENTATION_CONTEXT('2D SPACE',''
  ) );
#765 = PCURVE('',#766,#771);
#766 = PLANE('',#767);
#767 = AXIS2_PLACEMENT_3D('',#768,#769,#770);
#768 = CARTESIAN_POINT('',(36.857081052691,41.842514497128,
    38.164227182542));
#769 = DIRECTION('',(0.705739728918,-1.732301517247E-04,0.708471174444)
  );
#770 = DIRECTION('',(0.708471185074,9.548550227223E-21,-0.705739739507)
  );
#771 = DEFINITIONAL_REPRESENTATION('',(#772),#776);
#772 = LINE('',#773,#774);
#773 = CARTESIAN_POINT('',(0.,0.));
#774 = VECTOR('',#775,1.);
#775 = DIRECTION('',(9.18563315011E-04,-0.999999578121));
#776 = ( GEOMETRIC_REPRESENTATION_CONTEXT(2) 
PARAMETRIC_REPRESENTATION_CONTEXT() REPRESENTATION_CONTEXT('2D SPACE',''
  ) );
#777 = ADVANCED_FACE('',(#778),#298,.T.);
#778 = FACE_BOUND('',#779,.T.);
#779 = EDGE_LOOP('',(#780,#801,#802));
#780 = ORIENTED_EDGE('',*,*,#781,.F.);
#781 = EDGE_CURVE('',#22,#703,#782,.T.);
#782 = SURFACE_CURVE('',#783,(#787,#794),.PCURVE_S1.);
#783 = LINE('',#784,#785);
#784 = CARTESIAN_POINT('',(-44.50131923262,49.46838945621,30.50568994841
    ));
#785 = VECTOR('',#786,1.);
#786 = DIRECTION('',(0.991291713,-9.291562548922E-02,9.331359106464E-02)
  );
#787 = PCURVE('',#298,#788);
#788 = DEFINITIONAL_REPRESENTATION('',(#789),#793);
#789 = LINE('',#790,#791);
#790 = CARTESIAN_POINT('',(-10.80768409271,-81.35840720538));
#791 = VECTOR('',#792,1.);
#792 = DIRECTION('',(0.131683607842,0.991291797316));
#793 = ( GEOMETRIC_REPRESENTATION_CONTEXT(2) 
PARAMETRIC_REPRESENTATION_CONTEXT() REPRESENTATION_CONTEXT('2D SPACE',''
  ) );
#794 = PCURVE('',#546,#795);
#795 = DEFINITIONAL_REPRESENTATION('',(#796),#800);
#796 = LINE('',#797,#798);
#797 = CARTESIAN_POINT('',(-10.80773597601,-81.35840031316));
#798 = VECTOR('',#799,1.);
#799 = DIRECTION('',(0.131684240002,0.991291713339));
#800 = ( GEOMETRIC_REPRESENTATION_CONTEXT(2) 
PARAMETRIC_REPRESENTATION_CONTEXT() REPRESENTATION_CONTEXT('2D SPACE',''
  ) );
#801 = ORIENTED_EDGE('',*,*,#282,.T.);
#802 = ORIENTED_EDGE('',*,*,#702,.T.);
#803 = ADVANCED_FACE('',(#804),#546,.T.);
#804 = FACE_BOUND('',#805,.T.);
#805 = EDGE_LOOP('',(#806,#827,#828));
#806 = ORIENTED_EDGE('',*,*,#807,.T.);
#807 = EDGE_CURVE('',#703,#509,#808,.T.);
#808 = SURFACE_CURVE('',#809,(#813,#820),.PCURVE_S1.);
#809 = LINE('',#810,#811);
#810 = CARTESIAN_POINT('',(36.857081052691,41.842514497128,
    38.164227182542));
#811 = VECTOR('',#812,1.);
#812 = DIRECTION('',(0.579668934025,0.575079288867,-0.577293459553));
#813 = PCURVE('',#546,#814);
#814 = DEFINITIONAL_REPRESENTATION('',(#815),#819);
#815 = LINE('',#816,#817);
#816 = CARTESIAN_POINT('',(0.,0.));
#817 = VECTOR('',#818,1.);
#818 = DIRECTION('',(-0.814852088846,0.579668934223));
#819 = ( GEOMETRIC_REPRESENTATION_CONTEXT(2) 
PARAMETRIC_REPRESENTATION_CONTEXT() REPRESENTATION_CONTEXT('2D SPACE',''
  ) );
#820 = PCURVE('',#766,#821);
#821 = DEFINITIONAL_REPRESENTATION('',(#822),#826);
#822 = LINE('',#823,#824);
#823 = CARTESIAN_POINT('',(0.,0.));
#824 = VECTOR('',#825,1.);
#825 = DIRECTION('',(0.818097672404,0.575079297495));
#826 = ( GEOMETRIC_REPRESENTATION_CONTEXT(2) 
PARAMETRIC_REPRESENTATION_CONTEXT() REPRESENTATION_CONTEXT('2D SPACE',''
  ) );
#827 = ORIENTED_EDGE('',*,*,#532,.F.);
#828 = ORIENTED_EDGE('',*,*,#781,.T.);
#829 = ADVANCED_FACE('',(#830),#603,.T.);
#830 = FACE_BOUND('',#831,.T.);
#831 = EDGE_LOOP('',(#832,#853,#854));
#832 = ORIENTED_EDGE('',*,*,#833,.F.);
#833 = EDGE_CURVE('',#650,#509,#834,.T.);
#834 = SURFACE_CURVE('',#835,(#839,#846),.PCURVE_S1.);
#835 = LINE('',#836,#837);
#836 = CARTESIAN_POINT('',(36.901324794117,-41.86992370586,
    38.099685270181));
#837 = VECTOR('',#838,1.);
#838 = DIRECTION('',(8.315207267238E-02,0.993108677875,
    -8.258865987841E-02));
#839 = PCURVE('',#603,#840);
#840 = DEFINITIONAL_REPRESENTATION('',(#841),#845);
#841 = LINE('',#842,#843);
#842 = CARTESIAN_POINT('',(-10.7795065373,-91.34392001841));
#843 = VECTOR('',#844,1.);
#844 = DIRECTION('',(0.117196872419,0.99310870155));
#845 = ( GEOMETRIC_REPRESENTATION_CONTEXT(2) 
PARAMETRIC_REPRESENTATION_CONTEXT() REPRESENTATION_CONTEXT('2D SPACE',''
  ) );
#846 = PCURVE('',#766,#847);
#847 = DEFINITIONAL_REPRESENTATION('',(#848),#852);
#848 = LINE('',#849,#850);
#849 = CARTESIAN_POINT('',(7.689520833766E-02,-83.71243945904));
#850 = VECTOR('',#851,1.);
#851 = DIRECTION('',(0.117196946776,0.993108692776));
#852 = ( GEOMETRIC_REPRESENTATION_CONTEXT(2) 
PARAMETRIC_REPRESENTATION_CONTEXT() REPRESENTATION_CONTEXT('2D SPACE',''
  ) );
#853 = ORIENTED_EDGE('',*,*,#678,.T.);
#854 = ORIENTED_EDGE('',*,*,#589,.T.);
#855 = ADVANCED_FACE('',(#856),#766,.T.);
#856 = FACE_BOUND('',#857,.T.);
#857 = EDGE_LOOP('',(#858,#859,#860));
#858 = ORIENTED_EDGE('',*,*,#752,.T.);
#859 = ORIENTED_EDGE('',*,*,#833,.T.);
#860 = ORIENTED_EDGE('',*,*,#807,.F.);
#861 = ( GEOMETRIC_REPRESENTATION_CONTEXT(3) 
GLOBAL_UNCERTAINTY_ASSIGNED_CONTEXT((#865)) GLOBAL_UNIT_ASSIGNED_CONTEXT
((#862,#863,#864)) REPRESENTATION_CONTEXT('Context #1',
  '3D Context with UNIT and UNCERTAINTY') );
#862 = ( LENGTH_UNIT() NAMED_UNIT(*) SI_UNIT(.MILLI.,.METRE.) );
#863 = ( NAMED_UNIT(*) PLANE_ANGLE_UNIT() SI_UNIT($,.RADIAN.) );
#864 = ( NAMED_UNIT(*) SI_UNIT($,.STERADIAN.) SOLID_ANGLE_UNIT() );
#865 = UNCERTAINTY_MEASURE_WITH_UNIT(LENGTH_MEASURE(1.E-07),#862,
  'distance_accuracy_value','confusion accuracy');
#866 = PRODUCT_TYPE('part',$,(#7));
ENDSEC;
END-ISO-10303-21;
