ISO-10303-21;
HEADER;
FILE_DESCRIPTION(('Open CASCADE Model'),'2;1');
FILE_NAME('Open CASCADE Shape Model','2026-10-04T20:44:43',('Author'),(
    'Open CASCADE'),'Open CASCADE STEP processor 7.8','Open CASCADE 7.8'
  ,'Unknown');
FILE_SCHEMA(('AUTOMOTIVE_DESIGN_CC2 { 1 2 10303 214 -1 1 5 4 }'));
ENDSEC;
DATA;
#1 = APPLICATION_PROTOCOL_DEFINITION('committee draft',
  'automotive_design',1997,#2);
#2 = APPLICATION_CONTEXT(
  'core data for automotive mechanical design processes');
#3 = SHAPE_DEFINITION_REPRESENTATION(#4,#10);
#4 = PRODUCT_DEFINITION_SHAPE('','',#5);
#5 = PRODUCT_DEFINITION('design','',#6,#9);
#6 = PRODUCT_DEFINITION_FORMATION('','',#7);
#7 = PRODUCT('Open CASCADE STEP translator 7.8 120',
  'Open CASCADE STEP translator 7.8 120','',(#8));
#8 = MECHANICAL_CONTEXT('',#2,'mechanical');
#9 = PRODUCT_DEFINITION_CONTEXT('part definition',#2,'design');
#10 = ADVANCED_BREP_SHAPE_REPRESENTATION('',(#11,#15),#861);
#11 = AXIS2_PLACEMENT_3D('',#12,#13,#14);
#12 = CARTESIAN_POINT('',(0.,0.,0.));
#13 = DIRECTION('',(0.,0.,1.));
#14 = DIRECTION('',(1.,0.,-0.));
#15 = MANIFOLD_SOLID_BREP('',#16);
#16 = CLOSED_SHELL('',(#17,#109,#167,#225,#283,#336,#394,#447,#473,#526,
    #552,#578,#609,#640,#693,#724,#777,#803,#829,#855));
#17 = ADVANCED_FACE('',(#18),#32,.T.);
#18 = FACE_BOUND('',#19,.T.);
#19 = EDGE_LOOP('',(#20,#55,#83));
#20 = ORIENTED_EDGE('',*,*,#21,.F.);
#21 = EDGE_CURVE('',#22,#24,#26,.T.);
#22 = VERTEX_POINT('',#23);
#23 = CARTESIAN_POINT('',(-53.11293734629,37.459091155206,
    2.045619417483E-02));
#24 = VERTEX_POINT('',#25);
#25 = CARTESIAN_POINT('',(-53.10649018174,-37.55977751699,
    27.047900412014));
#26 = SURFACE_CURVE('',#27,(#31,#43),.PCURVE_S1.);
#27 = LINE('',#28,#29);
#28 = CARTESIAN_POINT('',(-53.11293734629,37.459091155206,
    2.045619417483E-02));
#29 = VECTOR('',#30,1.);
#30 = DIRECTION('',(8.0853307049E-05,-0.940804842018,0.338948731667));
#31 = PCURVE('',#32,#37);
#32 = PLANE('',#33);
#33 = AXIS2_PLACEMENT_3D('',#34,#35,#36);
#34 = CARTESIAN_POINT('',(-53.10649018174,-37.55977751699,
    27.047900412014));
#35 = DIRECTION('',(-0.999999832445,1.182226285314E-04,5.66686631089E-04
    ));
#36 = DIRECTION('',(-5.666866350491E-04,-2.339759523372E-24,
    -0.999999839433));
#37 = DEFINITIONAL_REPRESENTATION('',(#38),#42);
#38 = LINE('',#39,#40);
#39 = CARTESIAN_POINT('',(27.027443531649,-75.01886919645));
#40 = VECTOR('',#41,1.);
#41 = DIRECTION('',(-0.338948723061,0.940804848593));
#42 = ( GEOMETRIC_REPRESENTATION_CONTEXT(2) 
PARAMETRIC_REPRESENTATION_CONTEXT() REPRESENTATION_CONTEXT('2D SPACE',''
  ) );
#43 = PCURVE('',#44,#49);
#44 = PLANE('',#45);
#45 = AXIS2_PLACEMENT_3D('',#46,#47,#48);
#46 = CARTESIAN_POINT('',(-53.10649018174,-37.55977751699,
    27.047900412014));
#47 = DIRECTION('',(-0.999998005551,-7.524678140781E-04,
    -1.850050342636E-03));
#48 = DIRECTION('',(1.850050866393E-03,-6.525218867891E-23,
    -0.999998288654));
#49 = DEFINITIONAL_REPRESENTATION('',(#50),#54);
#50 = LINE('',#51,#52);
#51 = CARTESIAN_POINT('',(27.02738603696,-75.01888991034));
#52 = VECTOR('',#53,1.);
#53 = DIRECTION('',(-0.338948002026,0.940805108364));
#54 = ( GEOMETRIC_REPRESENTATION_CONTEXT(2) 
PARAMETRIC_REPRESENTATION_CONTEXT() REPRESENTATION_CONTEXT('2D SPACE',''
  ) );
#55 = ORIENTED_EDGE('',*,*,#56,.F.);
#56 = EDGE_CURVE('',#57,#22,#59,.T.);
#57 = VERTEX_POINT('',#58);
#58 = CARTESIAN_POINT('',(-53.12177541497,-37.51882877008,
    6.637146230795E-02));
#59 = SURFACE_CURVE('',#60,(#64,#71),.PCURVE_S1.);
#60 = LINE('',#61,#62);
#61 = CARTESIAN_POINT('',(-53.12177541497,-37.51882877008,
    6.637146230795E-02));
#62 = VECTOR('',#63,1.);
#63 = DIRECTION('',(1.178755956133E-04,0.999999805546,
    -6.123837424464E-04));
#64 = PCURVE('',#32,#65);
#65 = DEFINITIONAL_REPRESENTATION('',(#66),#70);
#66 = LINE('',#67,#68);
#67 = CARTESIAN_POINT('',(26.981533279304,-4.094874719373E-02));
#68 = VECTOR('',#69,1.);
#69 = DIRECTION('',(6.123168455932E-04,-0.999999812534));
#70 = ( GEOMETRIC_REPRESENTATION_CONTEXT(2) 
PARAMETRIC_REPRESENTATION_CONTEXT() REPRESENTATION_CONTEXT('2D SPACE',''
  ) );
#71 = PCURVE('',#72,#77);
#72 = PLANE('',#73);
#73 = AXIS2_PLACEMENT_3D('',#74,#75,#76);
#74 = CARTESIAN_POINT('',(53.141543401251,37.545846887817,
    2.509567254607E-02));
#75 = DIRECTION('',(4.416383870051E-05,-6.123889519415E-04,
    -0.999999811515));
#76 = DIRECTION('',(3.785013785653E-24,-0.99999981249,6.123889525387E-04
    ));
#77 = DEFINITIONAL_REPRESENTATION('',(#78),#82);
#78 = LINE('',#79,#80);
#79 = CARTESIAN_POINT('',(75.064686859357,106.26331891986));
#80 = VECTOR('',#81,1.);
#81 = DIRECTION('',(-0.999999993053,-1.178755957282E-04));
#82 = ( GEOMETRIC_REPRESENTATION_CONTEXT(2) 
PARAMETRIC_REPRESENTATION_CONTEXT() REPRESENTATION_CONTEXT('2D SPACE',''
  ) );
#83 = ORIENTED_EDGE('',*,*,#84,.T.);
#84 = EDGE_CURVE('',#57,#24,#85,.T.);
#85 = SURFACE_CURVE('',#86,(#90,#97),.PCURVE_S1.);
#86 = LINE('',#87,#88);
#87 = CARTESIAN_POINT('',(-53.12177541497,-37.51882877008,
    6.637146230795E-02));
#88 = VECTOR('',#89,1.);
#89 = DIRECTION('',(5.665065611146E-04,-1.51765651438E-03,0.999998687894
    ));
#90 = PCURVE('',#32,#91);
#91 = DEFINITIONAL_REPRESENTATION('',(#92),#96);
#92 = LINE('',#93,#94);
#93 = CARTESIAN_POINT('',(26.981533279304,-4.094874719373E-02));
#94 = VECTOR('',#95,1.);
#95 = DIRECTION('',(-0.999998848359,1.517656524986E-03));
#96 = ( GEOMETRIC_REPRESENTATION_CONTEXT(2) 
PARAMETRIC_REPRESENTATION_CONTEXT() REPRESENTATION_CONTEXT('2D SPACE',''
  ) );
#97 = PCURVE('',#98,#103);
#98 = PLANE('',#99);
#99 = AXIS2_PLACEMENT_3D('',#100,#101,#102);
#100 = CARTESIAN_POINT('',(53.111731690598,-37.53765753583,
    27.00715561628));
#101 = DIRECTION('',(2.076678879775E-04,-0.999998826617,
    -1.51777437029E-03));
#102 = DIRECTION('',(1.901127600789E-23,1.517774403018E-03,
    -0.99999884818));
#103 = DEFINITIONAL_REPRESENTATION('',(#104),#108);
#104 = LINE('',#105,#106);
#105 = CARTESIAN_POINT('',(26.940781700851,-106.2335093962));
#106 = VECTOR('',#107,1.);
#107 = DIRECTION('',(-0.999999839535,5.665065733302E-04));
#108 = ( GEOMETRIC_REPRESENTATION_CONTEXT(2) 
PARAMETRIC_REPRESENTATION_CONTEXT() REPRESENTATION_CONTEXT('2D SPACE',''
  ) );
#109 = ADVANCED_FACE('',(#110),#44,.T.);
#110 = FACE_BOUND('',#111,.T.);
#111 = EDGE_LOOP('',(#112,#140,#166));
#112 = ORIENTED_EDGE('',*,*,#113,.F.);
#113 = EDGE_CURVE('',#114,#24,#116,.T.);
#114 = VERTEX_POINT('',#115);
#115 = CARTESIAN_POINT('',(-53.16300284355,37.600445713844,
    27.024603868967));
#116 = SURFACE_CURVE('',#117,(#121,#128),.PCURVE_S1.);
#117 = LINE('',#118,#119);
#118 = CARTESIAN_POINT('',(-53.16300284355,37.600445713844,
    27.024603868967));
#119 = VECTOR('',#120,1.);
#120 = DIRECTION('',(7.518956263794E-04,-0.999999669289,
    3.099583042886E-04));
#121 = PCURVE('',#44,#122);
#122 = DEFINITIONAL_REPRESENTATION('',(#123),#127);
#123 = LINE('',#124,#125);
#124 = CARTESIAN_POINT('',(2.319195187961E-02,-75.160244509));
#125 = VECTOR('',#126,1.);
#126 = DIRECTION('',(-3.085667286878E-04,0.999999952393));
#127 = ( GEOMETRIC_REPRESENTATION_CONTEXT(2) 
PARAMETRIC_REPRESENTATION_CONTEXT() REPRESENTATION_CONTEXT('2D SPACE',''
  ) );
#128 = PCURVE('',#129,#134);
#129 = PLANE('',#130);
#130 = AXIS2_PLACEMENT_3D('',#131,#132,#133);
#131 = CARTESIAN_POINT('',(-46.3997695003,-30.77469861704,
    33.761100306822));
#132 = DIRECTION('',(0.707290021874,3.126915917218E-04,-0.706923423846)
  );
#133 = DIRECTION('',(0.706923458406,2.864949589533E-21,0.707290056452));
#134 = DEFINITIONAL_REPRESENTATION('',(#135),#139);
#135 = LINE('',#136,#137);
#136 = CARTESIAN_POINT('',(-9.54574525084,-68.37514767361));
#137 = VECTOR('',#138,1.);
#138 = DIRECTION('',(7.507630830984E-04,0.999999718177));
#139 = ( GEOMETRIC_REPRESENTATION_CONTEXT(2) 
PARAMETRIC_REPRESENTATION_CONTEXT() REPRESENTATION_CONTEXT('2D SPACE',''
  ) );
#140 = ORIENTED_EDGE('',*,*,#141,.T.);
#141 = EDGE_CURVE('',#114,#22,#142,.T.);
#142 = SURFACE_CURVE('',#143,(#147,#154),.PCURVE_S1.);
#143 = LINE('',#144,#145);
#144 = CARTESIAN_POINT('',(-53.16300284355,37.600445713844,
    27.024603868967));
#145 = VECTOR('',#146,1.);
#146 = DIRECTION('',(1.853964284784E-03,-5.234469195583E-03,
    -0.999984581455));
#147 = PCURVE('',#44,#148);
#148 = DEFINITIONAL_REPRESENTATION('',(#149),#153);
#149 = LINE('',#150,#151);
#150 = CARTESIAN_POINT('',(2.319195187961E-02,-75.160244509));
#151 = VECTOR('',#152,1.);
#152 = DIRECTION('',(0.999986300065,5.234470677483E-03));
#153 = ( GEOMETRIC_REPRESENTATION_CONTEXT(2) 
PARAMETRIC_REPRESENTATION_CONTEXT() REPRESENTATION_CONTEXT('2D SPACE',''
  ) );
#154 = PCURVE('',#155,#160);
#155 = PLANE('',#156);
#156 = AXIS2_PLACEMENT_3D('',#157,#158,#159);
#157 = CARTESIAN_POINT('',(53.153008358221,37.593557038982,
    27.069852873252));
#158 = DIRECTION('',(6.702122943223E-05,0.99998629843,
    -5.234353926289E-03));
#159 = DIRECTION('',(3.510459814015E-23,5.234353938045E-03,
    0.999986300676));
#160 = DEFINITIONAL_REPRESENTATION('',(#161),#165);
#161 = LINE('',#162,#163);
#162 = CARTESIAN_POINT('',(-4.521232664125E-02,-106.3160114405));
#163 = VECTOR('',#164,1.);
#164 = DIRECTION('',(-0.999998281407,1.853964288947E-03));
#165 = ( GEOMETRIC_REPRESENTATION_CONTEXT(2) 
PARAMETRIC_REPRESENTATION_CONTEXT() REPRESENTATION_CONTEXT('2D SPACE',''
  ) );
#166 = ORIENTED_EDGE('',*,*,#21,.T.);
#167 = ADVANCED_FACE('',(#168),#98,.T.);
#168 = FACE_BOUND('',#169,.T.);
#169 = EDGE_LOOP('',(#170,#198,#199));
#170 = ORIENTED_EDGE('',*,*,#171,.F.);
#171 = EDGE_CURVE('',#24,#172,#174,.T.);
#172 = VERTEX_POINT('',#173);
#173 = CARTESIAN_POINT('',(53.111731690598,-37.53765753583,
    27.00715561628));
#174 = SURFACE_CURVE('',#175,(#179,#186),.PCURVE_S1.);
#175 = LINE('',#176,#177);
#176 = CARTESIAN_POINT('',(-53.10649018174,-37.55977751699,
    27.047900412014));
#177 = VECTOR('',#178,1.);
#178 = DIRECTION('',(0.999999904743,2.082503233989E-04,
    -3.83595122703E-04));
#179 = PCURVE('',#98,#180);
#180 = DEFINITIONAL_REPRESENTATION('',(#181),#185);
#181 = LINE('',#182,#183);
#182 = CARTESIAN_POINT('',(-4.077832194415E-02,-106.2182241627));
#183 = VECTOR('',#184,1.);
#184 = DIRECTION('',(3.839107578806E-04,0.999999926306));
#185 = ( GEOMETRIC_REPRESENTATION_CONTEXT(2) 
PARAMETRIC_REPRESENTATION_CONTEXT() REPRESENTATION_CONTEXT('2D SPACE',''
  ) );
#186 = PCURVE('',#187,#192);
#187 = PLANE('',#188);
#188 = AXIS2_PLACEMENT_3D('',#189,#190,#191);
#189 = CARTESIAN_POINT('',(53.111731690598,-37.53765753583,
    27.00715561628));
#190 = DIRECTION('',(4.191163534539E-04,-0.703540682411,0.710654861753)
  );
#191 = DIRECTION('',(2.100706983328E-21,0.71065492417,0.703540744203));
#192 = DEFINITIONAL_REPRESENTATION('',(#193),#197);
#193 = LINE('',#194,#195);
#194 = CARTESIAN_POINT('',(1.29459503769E-02,106.21823120141));
#195 = VECTOR('',#196,1.);
#196 = DIRECTION('',(-1.218806803156E-04,-0.999999992573));
#197 = ( GEOMETRIC_REPRESENTATION_CONTEXT(2) 
PARAMETRIC_REPRESENTATION_CONTEXT() REPRESENTATION_CONTEXT('2D SPACE',''
  ) );
#198 = ORIENTED_EDGE('',*,*,#84,.F.);
#199 = ORIENTED_EDGE('',*,*,#200,.T.);
#200 = EDGE_CURVE('',#57,#172,#201,.T.);
#201 = SURFACE_CURVE('',#202,(#206,#213),.PCURVE_S1.);
#202 = LINE('',#203,#204);
#203 = CARTESIAN_POINT('',(-53.12177541497,-37.51882877008,
    6.637146230795E-02));
#204 = VECTOR('',#205,1.);
#205 = DIRECTION('',(0.969315931347,-1.718009985852E-04,0.245818216822)
  );
#206 = PCURVE('',#98,#207);
#207 = DEFINITIONAL_REPRESENTATION('',(#208),#212);
#208 = LINE('',#209,#210);
#209 = CARTESIAN_POINT('',(26.940781700851,-106.2335093962));
#210 = VECTOR('',#211,1.);
#211 = DIRECTION('',(-0.245818194439,0.969315952248));
#212 = ( GEOMETRIC_REPRESENTATION_CONTEXT(2) 
PARAMETRIC_REPRESENTATION_CONTEXT() REPRESENTATION_CONTEXT('2D SPACE',''
  ) );
#213 = PCURVE('',#214,#219);
#214 = PLANE('',#215);
#215 = AXIS2_PLACEMENT_3D('',#216,#217,#218);
#216 = CARTESIAN_POINT('',(53.111731690598,-37.53765753583,
    27.00715561628));
#217 = DIRECTION('',(-1.49960850563E-04,-0.999999982971,
    -1.075654785574E-04));
#218 = DIRECTION('',(-0.999999988756,1.499608514305E-04,
    -2.363497693431E-24));
#219 = DEFINITIONAL_REPRESENTATION('',(#220),#224);
#220 = LINE('',#221,#222);
#221 = CARTESIAN_POINT('',(106.23350873465,26.940784309829));
#222 = VECTOR('',#223,1.);
#223 = DIRECTION('',(-0.969315946211,-0.245818218244));
#224 = ( GEOMETRIC_REPRESENTATION_CONTEXT(2) 
PARAMETRIC_REPRESENTATION_CONTEXT() REPRESENTATION_CONTEXT('2D SPACE',''
  ) );
#225 = ADVANCED_FACE('',(#226),#214,.T.);
#226 = FACE_BOUND('',#227,.T.);
#227 = EDGE_LOOP('',(#228,#229,#257));
#228 = ORIENTED_EDGE('',*,*,#200,.F.);
#229 = ORIENTED_EDGE('',*,*,#230,.T.);
#230 = EDGE_CURVE('',#57,#231,#233,.T.);
#231 = VERTEX_POINT('',#232);
#232 = CARTESIAN_POINT('',(53.167616425411,-37.53475780877,
    -2.853998096179E-02));
#233 = SURFACE_CURVE('',#234,(#238,#245),.PCURVE_S1.);
#234 = LINE('',#235,#236);
#235 = CARTESIAN_POINT('',(-53.12177541497,-37.51882877008,
    6.637146230795E-02));
#236 = VECTOR('',#237,1.);
#237 = DIRECTION('',(0.999999590088,-1.498647407548E-04,
    -8.929527464689E-04));
#238 = PCURVE('',#214,#239);
#239 = DEFINITIONAL_REPRESENTATION('',(#240),#244);
#240 = LINE('',#241,#242);
#241 = CARTESIAN_POINT('',(106.23350873465,26.940784309829));
#242 = VECTOR('',#243,1.);
#243 = DIRECTION('',(-0.999999601318,8.929527516348E-04));
#244 = ( GEOMETRIC_REPRESENTATION_CONTEXT(2) 
PARAMETRIC_REPRESENTATION_CONTEXT() REPRESENTATION_CONTEXT('2D SPACE',''
  ) );
#245 = PCURVE('',#246,#251);
#246 = PLANE('',#247);
#247 = AXIS2_PLACEMENT_3D('',#248,#249,#250);
#248 = CARTESIAN_POINT('',(53.141543401251,37.545846887817,
    2.509567254607E-02));
#249 = DIRECTION('',(-8.928455159044E-04,7.140637650601E-04,
    -0.99999934647));
#250 = DIRECTION('',(-0.999999601413,-9.469236483283E-23,
    8.928457435297E-04));
#251 = DEFINITIONAL_REPRESENTATION('',(#252),#256);
#252 = LINE('',#253,#254);
#253 = CARTESIAN_POINT('',(106.26331331398,-75.06469479516));
#254 = VECTOR('',#255,1.);
#255 = DIRECTION('',(-0.99999998877,-1.498647789618E-04));
#256 = ( GEOMETRIC_REPRESENTATION_CONTEXT(2) 
PARAMETRIC_REPRESENTATION_CONTEXT() REPRESENTATION_CONTEXT('2D SPACE',''
  ) );
#257 = ORIENTED_EDGE('',*,*,#258,.F.);
#258 = EDGE_CURVE('',#172,#231,#259,.T.);
#259 = SURFACE_CURVE('',#260,(#264,#271),.PCURVE_S1.);
#260 = LINE('',#261,#262);
#261 = CARTESIAN_POINT('',(53.111731690598,-37.53765753583,
    27.00715561628));
#262 = VECTOR('',#263,1.);
#263 = DIRECTION('',(2.067067773396E-03,1.072552707223E-04,
    -0.999997857861));
#264 = PCURVE('',#214,#265);
#265 = DEFINITIONAL_REPRESENTATION('',(#266),#270);
#266 = LINE('',#267,#268);
#267 = CARTESIAN_POINT('',(0.,0.));
#268 = VECTOR('',#269,1.);
#269 = DIRECTION('',(-2.067051666061E-03,0.999997863646));
#270 = ( GEOMETRIC_REPRESENTATION_CONTEXT(2) 
PARAMETRIC_REPRESENTATION_CONTEXT() REPRESENTATION_CONTEXT('2D SPACE',''
  ) );
#271 = PCURVE('',#272,#277);
#272 = PLANE('',#273);
#273 = AXIS2_PLACEMENT_3D('',#274,#275,#276);
#274 = CARTESIAN_POINT('',(53.111731690598,-37.53765753583,
    27.00715561628));
#275 = DIRECTION('',(0.999997803751,3.457896548413E-04,
    2.067104749389E-03));
#276 = DIRECTION('',(-2.067104872971E-03,-2.759282401302E-23,
    0.999997863536));
#277 = DEFINITIONAL_REPRESENTATION('',(#278),#282);
#278 = LINE('',#279,#280);
#279 = CARTESIAN_POINT('',(0.,0.));
#280 = VECTOR('',#281,1.);
#281 = DIRECTION('',(-0.999999994248,-1.072552771346E-04));
#282 = ( GEOMETRIC_REPRESENTATION_CONTEXT(2) 
PARAMETRIC_REPRESENTATION_CONTEXT() REPRESENTATION_CONTEXT('2D SPACE',''
  ) );
#283 = ADVANCED_FACE('',(#284),#129,.F.);
#284 = FACE_BOUND('',#285,.F.);
#285 = EDGE_LOOP('',(#286,#309,#310));
#286 = ORIENTED_EDGE('',*,*,#287,.F.);
#287 = EDGE_CURVE('',#24,#288,#290,.T.);
#288 = VERTEX_POINT('',#289);
#289 = CARTESIAN_POINT('',(-46.3997695003,-30.77469861704,
    33.761100306822));
#290 = SURFACE_CURVE('',#291,(#295,#302),.PCURVE_S1.);
#291 = LINE('',#292,#293);
#292 = CARTESIAN_POINT('',(-53.10649018174,-37.55977751699,
    27.047900412014));
#293 = VECTOR('',#294,1.);
#294 = DIRECTION('',(0.574918080525,0.581635157129,0.575473496068));
#295 = PCURVE('',#129,#296);
#296 = DEFINITIONAL_REPRESENTATION('',(#297),#301);
#297 = LINE('',#298,#299);
#298 = CARTESIAN_POINT('',(-9.48931771126,6.785079231656));
#299 = VECTOR('',#300,1.);
#300 = DIRECTION('',(0.813449759306,-0.581635185564));
#301 = ( GEOMETRIC_REPRESENTATION_CONTEXT(2) 
PARAMETRIC_REPRESENTATION_CONTEXT() REPRESENTATION_CONTEXT('2D SPACE',''
  ) );
#302 = PCURVE('',#187,#303);
#303 = DEFINITIONAL_REPRESENTATION('',(#304),#308);
#304 = LINE('',#305,#306);
#305 = CARTESIAN_POINT('',(1.29459503769E-02,106.21823120141));
#306 = VECTOR('',#307,1.);
#307 = DIRECTION('',(0.818210940177,-0.57491813102));
#308 = ( GEOMETRIC_REPRESENTATION_CONTEXT(2) 
PARAMETRIC_REPRESENTATION_CONTEXT() REPRESENTATION_CONTEXT('2D SPACE',''
  ) );
#309 = ORIENTED_EDGE('',*,*,#113,.F.);
#310 = ORIENTED_EDGE('',*,*,#311,.T.);
#311 = EDGE_CURVE('',#114,#288,#312,.T.);
#312 = SURFACE_CURVE('',#313,(#317,#324),.PCURVE_S1.);
#313 = LINE('',#314,#315);
#314 = CARTESIAN_POINT('',(-53.16300284355,37.600445713844,
    27.024603868967));
#315 = VECTOR('',#316,1.);
#316 = DIRECTION('',(9.796354697792E-02,-0.990394878281,
    9.757627036691E-02));
#317 = PCURVE('',#129,#318);
#318 = DEFINITIONAL_REPRESENTATION('',(#319),#323);
#319 = LINE('',#320,#321);
#320 = CARTESIAN_POINT('',(-9.54574525084,-68.37514767361));
#321 = VECTOR('',#322,1.);
#322 = DIRECTION('',(0.138267455204,0.990394926699));
#323 = ( GEOMETRIC_REPRESENTATION_CONTEXT(2) 
PARAMETRIC_REPRESENTATION_CONTEXT() REPRESENTATION_CONTEXT('2D SPACE',''
  ) );
#324 = PCURVE('',#325,#330);
#325 = PLANE('',#326);
#326 = AXIS2_PLACEMENT_3D('',#327,#328,#329);
#327 = CARTESIAN_POINT('',(-46.37731216366,30.746858705456,
    33.731255782543));
#328 = DIRECTION('',(-0.702644862468,6.016609550184E-04,0.711540466349)
  );
#329 = DIRECTION('',(0.711540595136,-2.494028512213E-20,0.702644989645)
  );
#330 = DEFINITIONAL_REPRESENTATION('',(#331),#335);
#331 = LINE('',#332,#333);
#332 = CARTESIAN_POINT('',(-9.540689749148,6.853588248873));
#333 = VECTOR('',#334,1.);
#334 = DIRECTION('',(0.138266518,-0.99039505754));
#335 = ( GEOMETRIC_REPRESENTATION_CONTEXT(2) 
PARAMETRIC_REPRESENTATION_CONTEXT() REPRESENTATION_CONTEXT('2D SPACE',''
  ) );
#336 = ADVANCED_FACE('',(#337),#325,.T.);
#337 = FACE_BOUND('',#338,.T.);
#338 = EDGE_LOOP('',(#339,#367,#368));
#339 = ORIENTED_EDGE('',*,*,#340,.F.);
#340 = EDGE_CURVE('',#114,#341,#343,.T.);
#341 = VERTEX_POINT('',#342);
#342 = CARTESIAN_POINT('',(-46.37731216366,30.746858705456,
    33.731255782543));
#343 = SURFACE_CURVE('',#344,(#348,#355),.PCURVE_S1.);
#344 = LINE('',#345,#346);
#345 = CARTESIAN_POINT('',(-53.16300284355,37.600445713844,
    27.024603868967));
#346 = VECTOR('',#347,1.);
#347 = DIRECTION('',(0.577643816635,-0.583423610643,0.570915503072));
#348 = PCURVE('',#325,#349);
#349 = DEFINITIONAL_REPRESENTATION('',(#350),#354);
#350 = LINE('',#351,#352);
#351 = CARTESIAN_POINT('',(-9.540689749148,6.853588248873));
#352 = VECTOR('',#353,1.);
#353 = DIRECTION('',(0.81216794281,-0.583423716241));
#354 = ( GEOMETRIC_REPRESENTATION_CONTEXT(2) 
PARAMETRIC_REPRESENTATION_CONTEXT() REPRESENTATION_CONTEXT('2D SPACE',''
  ) );
#355 = PCURVE('',#356,#361);
#356 = PLANE('',#357);
#357 = AXIS2_PLACEMENT_3D('',#358,#359,#360);
#358 = CARTESIAN_POINT('',(53.153008358221,37.593557038982,
    27.069852873252));
#359 = DIRECTION('',(-2.589394830353E-04,0.699272704305,0.714854962887)
  );
#360 = DIRECTION('',(5.202702072333E-21,0.714854986853,-0.699272727748)
  );
#361 = DEFINITIONAL_REPRESENTATION('',(#362),#366);
#362 = LINE('',#363,#364);
#363 = CARTESIAN_POINT('',(3.656579823139E-02,106.316014766));
#364 = VECTOR('',#365,1.);
#365 = DIRECTION('',(-0.816288918662,-0.577643836001));
#366 = ( GEOMETRIC_REPRESENTATION_CONTEXT(2) 
PARAMETRIC_REPRESENTATION_CONTEXT() REPRESENTATION_CONTEXT('2D SPACE',''
  ) );
#367 = ORIENTED_EDGE('',*,*,#311,.T.);
#368 = ORIENTED_EDGE('',*,*,#369,.T.);
#369 = EDGE_CURVE('',#288,#341,#370,.T.);
#370 = SURFACE_CURVE('',#371,(#375,#382),.PCURVE_S1.);
#371 = LINE('',#372,#373);
#372 = CARTESIAN_POINT('',(-46.3997695003,-30.77469861704,
    33.761100306822));
#373 = VECTOR('',#374,1.);
#374 = DIRECTION('',(3.650319249335E-04,0.999999815712,
    -4.851066858069E-04));
#375 = PCURVE('',#325,#376);
#376 = DEFINITIONAL_REPRESENTATION('',(#377),#381);
#377 = LINE('',#378,#379);
#378 = CARTESIAN_POINT('',(4.990798779559E-03,-61.52156845778));
#379 = VECTOR('',#380,1.);
#380 = DIRECTION('',(-8.11227491146E-05,0.99999999671));
#381 = ( GEOMETRIC_REPRESENTATION_CONTEXT(2) 
PARAMETRIC_REPRESENTATION_CONTEXT() REPRESENTATION_CONTEXT('2D SPACE',''
  ) );
#382 = PCURVE('',#383,#388);
#383 = PLANE('',#384);
#384 = AXIS2_PLACEMENT_3D('',#385,#386,#387);
#385 = CARTESIAN_POINT('',(46.394340823189,-30.78766346529,
    33.835148927054));
#386 = DIRECTION('',(-7.979201974004E-04,4.853978300294E-04,
    0.999999563856));
#387 = DIRECTION('',(0.999999681662,-1.509731077247E-24,
    7.979202913999E-04));
#388 = DEFINITIONAL_REPRESENTATION('',(#389),#393);
#389 = LINE('',#390,#391);
#390 = CARTESIAN_POINT('',(-92.79413986845,1.296484977344E-02));
#391 = VECTOR('',#392,1.);
#392 = DIRECTION('',(3.646447322617E-04,0.999999933517));
#393 = ( GEOMETRIC_REPRESENTATION_CONTEXT(2) 
PARAMETRIC_REPRESENTATION_CONTEXT() REPRESENTATION_CONTEXT('2D SPACE',''
  ) );
#394 = ADVANCED_FACE('',(#395),#72,.T.);
#395 = FACE_BOUND('',#396,.T.);
#396 = EDGE_LOOP('',(#397,#420,#421));
#397 = ORIENTED_EDGE('',*,*,#398,.F.);
#398 = EDGE_CURVE('',#57,#399,#401,.T.);
#399 = VERTEX_POINT('',#400);
#400 = CARTESIAN_POINT('',(53.141543401251,37.545846887817,
    2.509567254607E-02));
#401 = SURFACE_CURVE('',#402,(#406,#413),.PCURVE_S1.);
#402 = LINE('',#403,#404);
#403 = CARTESIAN_POINT('',(-53.12177541497,-37.51882877008,
    6.637146230795E-02));
#404 = VECTOR('',#405,1.);
#405 = DIRECTION('',(0.816767611967,0.576966695217,-3.172564965166E-04)
  );
#406 = PCURVE('',#72,#407);
#407 = DEFINITIONAL_REPRESENTATION('',(#408),#412);
#408 = LINE('',#409,#410);
#409 = CARTESIAN_POINT('',(75.064686859357,106.26331891986));
#410 = VECTOR('',#411,1.);
#411 = DIRECTION('',(-0.576966781314,-0.816767612764));
#412 = ( GEOMETRIC_REPRESENTATION_CONTEXT(2) 
PARAMETRIC_REPRESENTATION_CONTEXT() REPRESENTATION_CONTEXT('2D SPACE',''
  ) );
#413 = PCURVE('',#246,#414);
#414 = DEFINITIONAL_REPRESENTATION('',(#415),#419);
#415 = LINE('',#416,#417);
#416 = CARTESIAN_POINT('',(106.26331331398,-75.06469479516));
#417 = VECTOR('',#418,1.);
#418 = DIRECTION('',(-0.816767569675,0.576966842311));
#419 = ( GEOMETRIC_REPRESENTATION_CONTEXT(2) 
PARAMETRIC_REPRESENTATION_CONTEXT() REPRESENTATION_CONTEXT('2D SPACE',''
  ) );
#420 = ORIENTED_EDGE('',*,*,#56,.T.);
#421 = ORIENTED_EDGE('',*,*,#422,.T.);
#422 = EDGE_CURVE('',#22,#399,#423,.T.);
#423 = SURFACE_CURVE('',#424,(#428,#435),.PCURVE_S1.);
#424 = LINE('',#425,#426);
#425 = CARTESIAN_POINT('',(-53.11293734629,37.459091155206,
    2.045619417483E-02));
#426 = VECTOR('',#427,1.);
#427 = DIRECTION('',(0.999999665719,8.164898364777E-04,
    4.366382281213E-05));
#428 = PCURVE('',#72,#429);
#429 = DEFINITIONAL_REPRESENTATION('',(#430),#434);
#430 = LINE('',#431,#432);
#431 = CARTESIAN_POINT('',(8.675287517851E-02,106.25448085116));
#432 = VECTOR('',#433,1.);
#433 = DIRECTION('',(-8.164629441348E-04,-0.999999666694));
#434 = ( GEOMETRIC_REPRESENTATION_CONTEXT(2) 
PARAMETRIC_REPRESENTATION_CONTEXT() REPRESENTATION_CONTEXT('2D SPACE',''
  ) );
#435 = PCURVE('',#436,#441);
#436 = PLANE('',#437);
#437 = AXIS2_PLACEMENT_3D('',#438,#439,#440);
#438 = CARTESIAN_POINT('',(53.153008358221,37.593557038982,
    27.069852873252));
#439 = DIRECTION('',(-8.164115543878E-04,0.999998111294,
    -1.763768873115E-03));
#440 = DIRECTION('',(-7.919489098267E-23,1.763769460916E-03,
    0.999998444557));
#441 = DEFINITIONAL_REPRESENTATION('',(#442),#446);
#442 = LINE('',#443,#444);
#443 = CARTESIAN_POINT('',(-27.04959177211,-106.2659811191));
#444 = VECTOR('',#445,1.);
#445 = DIRECTION('',(4.510385473429E-05,0.999999998983));
#446 = ( GEOMETRIC_REPRESENTATION_CONTEXT(2) 
PARAMETRIC_REPRESENTATION_CONTEXT() REPRESENTATION_CONTEXT('2D SPACE',''
  ) );
#447 = ADVANCED_FACE('',(#448),#246,.T.);
#448 = FACE_BOUND('',#449,.T.);
#449 = EDGE_LOOP('',(#450,#471,#472));
#450 = ORIENTED_EDGE('',*,*,#451,.T.);
#451 = EDGE_CURVE('',#399,#231,#452,.T.);
#452 = SURFACE_CURVE('',#453,(#457,#464),.PCURVE_S1.);
#453 = LINE('',#454,#455);
#454 = CARTESIAN_POINT('',(53.141543401251,37.545846887817,
    2.509567254607E-02));
#455 = VECTOR('',#456,1.);
#456 = DIRECTION('',(3.472669944596E-04,-0.999999684538,
    -7.143740624437E-04));
#457 = PCURVE('',#246,#458);
#458 = DEFINITIONAL_REPRESENTATION('',(#459),#463);
#459 = LINE('',#460,#461);
#460 = CARTESIAN_POINT('',(0.,0.));
#461 = VECTOR('',#462,1.);
#462 = DIRECTION('',(-3.479046818845E-04,-0.999999939481));
#463 = ( GEOMETRIC_REPRESENTATION_CONTEXT(2) 
PARAMETRIC_REPRESENTATION_CONTEXT() REPRESENTATION_CONTEXT('2D SPACE',''
  ) );
#464 = PCURVE('',#272,#465);
#465 = DEFINITIONAL_REPRESENTATION('',(#466),#470);
#466 = LINE('',#467,#468);
#467 = CARTESIAN_POINT('',(-26.98206392147,-75.08350891253));
#468 = VECTOR('',#469,1.);
#469 = DIRECTION('',(-7.150903735061E-04,0.999999744323));
#470 = ( GEOMETRIC_REPRESENTATION_CONTEXT(2) 
PARAMETRIC_REPRESENTATION_CONTEXT() REPRESENTATION_CONTEXT('2D SPACE',''
  ) );
#471 = ORIENTED_EDGE('',*,*,#230,.F.);
#472 = ORIENTED_EDGE('',*,*,#398,.T.);
#473 = ADVANCED_FACE('',(#474),#436,.T.);
#474 = FACE_BOUND('',#475,.T.);
#475 = EDGE_LOOP('',(#476,#504,#505));
#476 = ORIENTED_EDGE('',*,*,#477,.F.);
#477 = EDGE_CURVE('',#399,#478,#480,.T.);
#478 = VERTEX_POINT('',#479);
#479 = CARTESIAN_POINT('',(53.153008358221,37.593557038982,
    27.069852873252));
#480 = SURFACE_CURVE('',#481,(#485,#492),.PCURVE_S1.);
#481 = LINE('',#482,#483);
#482 = CARTESIAN_POINT('',(53.141543401251,37.545846887817,
    2.509567254607E-02));
#483 = VECTOR('',#484,1.);
#484 = DIRECTION('',(4.239246082074E-04,1.764115398956E-03,
    0.999998354091));
#485 = PCURVE('',#436,#486);
#486 = DEFINITIONAL_REPRESENTATION('',(#487),#491);
#487 = LINE('',#488,#489);
#488 = CARTESIAN_POINT('',(-27.04479928384,-1.146496079151E-02));
#489 = VECTOR('',#490,1.);
#490 = DIRECTION('',(0.999999910144,4.239247494862E-04));
#491 = ( GEOMETRIC_REPRESENTATION_CONTEXT(2) 
PARAMETRIC_REPRESENTATION_CONTEXT() REPRESENTATION_CONTEXT('2D SPACE',''
  ) );
#492 = PCURVE('',#493,#498);
#493 = PLANE('',#494);
#494 = AXIS2_PLACEMENT_3D('',#495,#496,#497);
#495 = CARTESIAN_POINT('',(53.111731690598,-37.53765753583,
    27.00715561628));
#496 = DIRECTION('',(0.999999759831,-5.49041296925E-04,
    -4.229566303352E-04));
#497 = DIRECTION('',(5.490413460347E-04,0.999999849277,
    -1.675906942955E-23));
#498 = DEFINITIONAL_REPRESENTATION('',(#499),#503);
#499 = LINE('',#500,#501);
#500 = CARTESIAN_POINT('',(75.083509474686,-26.98206235717));
#501 = VECTOR('',#502,1.);
#502 = DIRECTION('',(1.7643478852E-03,0.999998443537));
#503 = ( GEOMETRIC_REPRESENTATION_CONTEXT(2) 
PARAMETRIC_REPRESENTATION_CONTEXT() REPRESENTATION_CONTEXT('2D SPACE',''
  ) );
#504 = ORIENTED_EDGE('',*,*,#422,.F.);
#505 = ORIENTED_EDGE('',*,*,#506,.T.);
#506 = EDGE_CURVE('',#22,#478,#507,.T.);
#507 = SURFACE_CURVE('',#508,(#512,#519),.PCURVE_S1.);
#508 = LINE('',#509,#510);
#509 = CARTESIAN_POINT('',(-53.11293734629,37.459091155206,
    2.045619417483E-02));
#510 = VECTOR('',#511,1.);
#511 = DIRECTION('',(0.969096699866,1.226267204876E-03,0.24667809505));
#512 = PCURVE('',#436,#513);
#513 = DEFINITIONAL_REPRESENTATION('',(#514),#518);
#514 = LINE('',#515,#516);
#515 = CARTESIAN_POINT('',(-27.04959177211,-106.2659811191));
#516 = VECTOR('',#517,1.);
#517 = DIRECTION('',(0.246679874209,0.969097022831));
#518 = ( GEOMETRIC_REPRESENTATION_CONTEXT(2) 
PARAMETRIC_REPRESENTATION_CONTEXT() REPRESENTATION_CONTEXT('2D SPACE',''
  ) );
#519 = PCURVE('',#155,#520);
#520 = DEFINITIONAL_REPRESENTATION('',(#521),#525);
#521 = LINE('',#522,#523);
#522 = CARTESIAN_POINT('',(-27.04972996264,-106.2659459431));
#523 = VECTOR('',#524,1.);
#524 = DIRECTION('',(0.246681134443,0.969096702043));
#525 = ( GEOMETRIC_REPRESENTATION_CONTEXT(2) 
PARAMETRIC_REPRESENTATION_CONTEXT() REPRESENTATION_CONTEXT('2D SPACE',''
  ) );
#526 = ADVANCED_FACE('',(#527),#155,.T.);
#527 = FACE_BOUND('',#528,.T.);
#528 = EDGE_LOOP('',(#529,#530,#531));
#529 = ORIENTED_EDGE('',*,*,#506,.F.);
#530 = ORIENTED_EDGE('',*,*,#141,.F.);
#531 = ORIENTED_EDGE('',*,*,#532,.T.);
#532 = EDGE_CURVE('',#114,#478,#533,.T.);
#533 = SURFACE_CURVE('',#534,(#538,#545),.PCURVE_S1.);
#534 = LINE('',#535,#536);
#535 = CARTESIAN_POINT('',(-53.16300284355,37.600445713844,
    27.024603868967));
#536 = VECTOR('',#537,1.);
#537 = DIRECTION('',(0.99999990733,-6.479432538199E-05,
    4.256085191656E-04));
#538 = PCURVE('',#155,#539);
#539 = DEFINITIONAL_REPRESENTATION('',(#540),#544);
#540 = LINE('',#541,#542);
#541 = CARTESIAN_POINT('',(-4.521232664125E-02,-106.3160114405));
#542 = VECTOR('',#543,1.);
#543 = DIRECTION('',(4.252635321842E-04,0.999999909575));
#544 = ( GEOMETRIC_REPRESENTATION_CONTEXT(2) 
PARAMETRIC_REPRESENTATION_CONTEXT() REPRESENTATION_CONTEXT('2D SPACE',''
  ) );
#545 = PCURVE('',#356,#546);
#546 = DEFINITIONAL_REPRESENTATION('',(#547),#551);
#547 = LINE('',#548,#549);
#548 = CARTESIAN_POINT('',(3.656579823139E-02,106.316014766));
#549 = VECTOR('',#550,1.);
#550 = DIRECTION('',(-3.439349767686E-04,-0.999999940854));
#551 = ( GEOMETRIC_REPRESENTATION_CONTEXT(2) 
PARAMETRIC_REPRESENTATION_CONTEXT() REPRESENTATION_CONTEXT('2D SPACE',''
  ) );
#552 = ADVANCED_FACE('',(#553),#272,.T.);
#553 = FACE_BOUND('',#554,.T.);
#554 = EDGE_LOOP('',(#555,#556,#557));
#555 = ORIENTED_EDGE('',*,*,#258,.T.);
#556 = ORIENTED_EDGE('',*,*,#451,.F.);
#557 = ORIENTED_EDGE('',*,*,#558,.F.);
#558 = EDGE_CURVE('',#172,#399,#559,.T.);
#559 = SURFACE_CURVE('',#560,(#564,#571),.PCURVE_S1.);
#560 = LINE('',#561,#562);
#561 = CARTESIAN_POINT('',(53.111731690598,-37.53765753583,
    27.00715561628));
#562 = VECTOR('',#563,1.);
#563 = DIRECTION('',(3.736529504935E-04,0.941078936658,-0.338186775852)
  );
#564 = PCURVE('',#272,#565);
#565 = DEFINITIONAL_REPRESENTATION('',(#566),#570);
#566 = LINE('',#567,#568);
#567 = CARTESIAN_POINT('',(0.,0.));
#568 = VECTOR('',#569,1.);
#569 = DIRECTION('',(-0.338186825708,-0.941078992921));
#570 = ( GEOMETRIC_REPRESENTATION_CONTEXT(2) 
PARAMETRIC_REPRESENTATION_CONTEXT() REPRESENTATION_CONTEXT('2D SPACE',''
  ) );
#571 = PCURVE('',#493,#572);
#572 = DEFINITIONAL_REPRESENTATION('',(#573),#577);
#573 = LINE('',#574,#575);
#574 = CARTESIAN_POINT('',(0.,0.));
#575 = VECTOR('',#576,1.);
#576 = DIRECTION('',(0.941078999967,-0.338186806102));
#577 = ( GEOMETRIC_REPRESENTATION_CONTEXT(2) 
PARAMETRIC_REPRESENTATION_CONTEXT() REPRESENTATION_CONTEXT('2D SPACE',''
  ) );
#578 = ADVANCED_FACE('',(#579),#493,.T.);
#579 = FACE_BOUND('',#580,.T.);
#580 = EDGE_LOOP('',(#581,#582,#583));
#581 = ORIENTED_EDGE('',*,*,#558,.T.);
#582 = ORIENTED_EDGE('',*,*,#477,.T.);
#583 = ORIENTED_EDGE('',*,*,#584,.F.);
#584 = EDGE_CURVE('',#172,#478,#585,.T.);
#585 = SURFACE_CURVE('',#586,(#590,#597),.PCURVE_S1.);
#586 = LINE('',#587,#588);
#587 = CARTESIAN_POINT('',(53.111731690598,-37.53765753583,
    27.00715561628));
#588 = VECTOR('',#589,1.);
#589 = DIRECTION('',(5.493941134247E-04,0.999999500885,
    8.345030229147E-04));
#590 = PCURVE('',#493,#591);
#591 = DEFINITIONAL_REPRESENTATION('',(#592),#596);
#592 = LINE('',#593,#594);
#593 = CARTESIAN_POINT('',(0.,0.));
#594 = VECTOR('',#595,1.);
#595 = DIRECTION('',(0.999999651802,8.345030975578E-04));
#596 = ( GEOMETRIC_REPRESENTATION_CONTEXT(2) 
PARAMETRIC_REPRESENTATION_CONTEXT() REPRESENTATION_CONTEXT('2D SPACE',''
  ) );
#597 = PCURVE('',#598,#603);
#598 = PLANE('',#599);
#599 = AXIS2_PLACEMENT_3D('',#600,#601,#602);
#600 = CARTESIAN_POINT('',(46.407849186415,30.768880376674,
    33.760477388023));
#601 = DIRECTION('',(0.704729794905,-9.792340286383E-04,0.709475128016)
  );
#602 = DIRECTION('',(0.709475468174,-8.805546342687E-20,-0.704730132788)
  );
#603 = DEFINITIONAL_REPRESENTATION('',(#604),#608);
#604 = LINE('',#605,#606);
#605 = CARTESIAN_POINT('',(9.515509527198,-68.30657066207));
#606 = VECTOR('',#607,1.);
#607 = DIRECTION('',(-1.983177803163E-04,0.999999980335));
#608 = ( GEOMETRIC_REPRESENTATION_CONTEXT(2) 
PARAMETRIC_REPRESENTATION_CONTEXT() REPRESENTATION_CONTEXT('2D SPACE',''
  ) );
#609 = ADVANCED_FACE('',(#610),#187,.T.);
#610 = FACE_BOUND('',#611,.T.);
#611 = EDGE_LOOP('',(#612,#638,#639));
#612 = ORIENTED_EDGE('',*,*,#613,.F.);
#613 = EDGE_CURVE('',#288,#172,#614,.T.);
#614 = SURFACE_CURVE('',#615,(#619,#626),.PCURVE_S1.);
#615 = LINE('',#616,#617);
#616 = CARTESIAN_POINT('',(-46.3997695003,-30.77469861704,
    33.761100306822));
#617 = VECTOR('',#618,1.);
#618 = DIRECTION('',(0.9954190468,-6.765025187966E-02,
    -6.756008205629E-02));
#619 = PCURVE('',#187,#620);
#620 = DEFINITIONAL_REPRESENTATION('',(#621),#625);
#621 = LINE('',#622,#623);
#622 = CARTESIAN_POINT('',(9.557805331479,99.51150993092));
#623 = VECTOR('',#624,1.);
#624 = DIRECTION('',(-9.560725502788E-02,-0.995419134227));
#625 = ( GEOMETRIC_REPRESENTATION_CONTEXT(2) 
PARAMETRIC_REPRESENTATION_CONTEXT() REPRESENTATION_CONTEXT('2D SPACE',''
  ) );
#626 = PCURVE('',#627,#632);
#627 = PLANE('',#628);
#628 = AXIS2_PLACEMENT_3D('',#629,#630,#631);
#629 = CARTESIAN_POINT('',(46.394340823189,-30.78766346529,
    33.835148927054));
#630 = DIRECTION('',(-6.601555614675E-04,-0.711481526619,0.702704490859)
  );
#631 = DIRECTION('',(-3.323728723938E-20,-0.702704643981,-0.711481681653
    ));
#632 = DEFINITIONAL_REPRESENTATION('',(#633),#637);
#633 = LINE('',#634,#635);
#634 = CARTESIAN_POINT('',(4.35737777757E-02,-92.79413054358));
#635 = VECTOR('',#636,1.);
#636 = DIRECTION('',(9.560590695634E-02,0.995419263705));
#637 = ( GEOMETRIC_REPRESENTATION_CONTEXT(2) 
PARAMETRIC_REPRESENTATION_CONTEXT() REPRESENTATION_CONTEXT('2D SPACE',''
  ) );
#638 = ORIENTED_EDGE('',*,*,#287,.F.);
#639 = ORIENTED_EDGE('',*,*,#171,.T.);
#640 = ADVANCED_FACE('',(#641),#627,.T.);
#641 = FACE_BOUND('',#642,.T.);
#642 = EDGE_LOOP('',(#643,#666,#667));
#643 = ORIENTED_EDGE('',*,*,#644,.F.);
#644 = EDGE_CURVE('',#288,#645,#647,.T.);
#645 = VERTEX_POINT('',#646);
#646 = CARTESIAN_POINT('',(46.394340823189,-30.78766346529,
    33.835148927054));
#647 = SURFACE_CURVE('',#648,(#652,#659),.PCURVE_S1.);
#648 = LINE('',#649,#650);
#649 = CARTESIAN_POINT('',(-46.3997695003,-30.77469861704,
    33.761100306822));
#650 = VECTOR('',#651,1.);
#651 = DIRECTION('',(0.999999671847,-1.397162378782E-04,
    7.97988101557E-04));
#652 = PCURVE('',#627,#653);
#653 = DEFINITIONAL_REPRESENTATION('',(#654),#658);
#654 = LINE('',#655,#656);
#655 = CARTESIAN_POINT('',(4.35737777757E-02,-92.79413054358));
#656 = VECTOR('',#657,1.);
#657 = DIRECTION('',(-4.695746672384E-04,0.99999988975));
#658 = ( GEOMETRIC_REPRESENTATION_CONTEXT(2) 
PARAMETRIC_REPRESENTATION_CONTEXT() REPRESENTATION_CONTEXT('2D SPACE',''
  ) );
#659 = PCURVE('',#383,#660);
#660 = DEFINITIONAL_REPRESENTATION('',(#661),#665);
#661 = LINE('',#662,#663);
#662 = CARTESIAN_POINT('',(-92.79413986845,1.296484977344E-02));
#663 = VECTOR('',#664,1.);
#664 = DIRECTION('',(0.99999999024,-1.397162543376E-04));
#665 = ( GEOMETRIC_REPRESENTATION_CONTEXT(2) 
PARAMETRIC_REPRESENTATION_CONTEXT() REPRESENTATION_CONTEXT('2D SPACE',''
  ) );
#666 = ORIENTED_EDGE('',*,*,#613,.T.);
#667 = ORIENTED_EDGE('',*,*,#668,.F.);
#668 = EDGE_CURVE('',#645,#172,#669,.T.);
#669 = SURFACE_CURVE('',#670,(#674,#681),.PCURVE_S1.);
#670 = LINE('',#671,#672);
#671 = CARTESIAN_POINT('',(46.394340823189,-30.78766346529,
    33.835148927054));
#672 = VECTOR('',#673,1.);
#673 = DIRECTION('',(0.573262958552,-0.576045319896,-0.582701784602));
#674 = PCURVE('',#627,#675);
#675 = DEFINITIONAL_REPRESENTATION('',(#676),#680);
#676 = LINE('',#677,#678);
#677 = CARTESIAN_POINT('',(-0.,0.));
#678 = VECTOR('',#679,1.);
#679 = DIRECTION('',(0.819371367045,0.573263083467));
#680 = ( GEOMETRIC_REPRESENTATION_CONTEXT(2) 
PARAMETRIC_REPRESENTATION_CONTEXT() REPRESENTATION_CONTEXT('2D SPACE',''
  ) );
#681 = PCURVE('',#682,#687);
#682 = PLANE('',#683);
#683 = AXIS2_PLACEMENT_3D('',#684,#685,#686);
#684 = CARTESIAN_POINT('',(46.407849186415,30.768880376674,
    33.760477388023));
#685 = DIRECTION('',(0.713199405821,6.937957667501E-04,0.700960859238));
#686 = DIRECTION('',(-0.700961027943,1.365430003743E-20,0.713199577471)
  );
#687 = DEFINITIONAL_REPRESENTATION('',(#688),#692);
#688 = LINE('',#689,#690);
#689 = CARTESIAN_POINT('',(6.272454625874E-02,61.556558657175));
#690 = VECTOR('',#691,1.);
#691 = DIRECTION('',(-0.817417659278,0.576045458537));
#692 = ( GEOMETRIC_REPRESENTATION_CONTEXT(2) 
PARAMETRIC_REPRESENTATION_CONTEXT() REPRESENTATION_CONTEXT('2D SPACE',''
  ) );
#693 = ADVANCED_FACE('',(#694),#383,.T.);
#694 = FACE_BOUND('',#695,.T.);
#695 = EDGE_LOOP('',(#696,#722,#723));
#696 = ORIENTED_EDGE('',*,*,#697,.F.);
#697 = EDGE_CURVE('',#341,#645,#698,.T.);
#698 = SURFACE_CURVE('',#699,(#703,#710),.PCURVE_S1.);
#699 = LINE('',#700,#701);
#700 = CARTESIAN_POINT('',(-46.37731216366,30.746858705456,
    33.731255782543));
#701 = VECTOR('',#702,1.);
#702 = DIRECTION('',(0.833346338146,-0.552750404564,9.332481285906E-04)
  );
#703 = PCURVE('',#383,#704);
#704 = DEFINITIONAL_REPRESENTATION('',(#705),#709);
#705 = LINE('',#706,#707);
#706 = CARTESIAN_POINT('',(-92.77170635251,61.53452941986));
#707 = VECTOR('',#708,1.);
#708 = DIRECTION('',(0.833346817518,-0.552750469681));
#709 = ( GEOMETRIC_REPRESENTATION_CONTEXT(2) 
PARAMETRIC_REPRESENTATION_CONTEXT() REPRESENTATION_CONTEXT('2D SPACE',''
  ) );
#710 = PCURVE('',#711,#716);
#711 = PLANE('',#712);
#712 = AXIS2_PLACEMENT_3D('',#713,#714,#715);
#713 = CARTESIAN_POINT('',(46.394340823189,-30.78766346529,
    33.835148927054));
#714 = DIRECTION('',(3.152260245497E-04,-1.213124290317E-03,
    -0.999999214481));
#715 = DIRECTION('',(2.256012369369E-23,-0.999999264164,
    1.213124350589E-03));
#716 = DEFINITIONAL_REPRESENTATION('',(#717),#721);
#717 = LINE('',#718,#719);
#718 = CARTESIAN_POINT('',(-61.53460292676,92.771657596097));
#719 = VECTOR('',#720,1.);
#720 = DIRECTION('',(0.552751129977,-0.83334637955));
#721 = ( GEOMETRIC_REPRESENTATION_CONTEXT(2) 
PARAMETRIC_REPRESENTATION_CONTEXT() REPRESENTATION_CONTEXT('2D SPACE',''
  ) );
#722 = ORIENTED_EDGE('',*,*,#369,.F.);
#723 = ORIENTED_EDGE('',*,*,#644,.T.);
#724 = ADVANCED_FACE('',(#725),#711,.F.);
#725 = FACE_BOUND('',#726,.F.);
#726 = EDGE_LOOP('',(#727,#728,#756));
#727 = ORIENTED_EDGE('',*,*,#697,.F.);
#728 = ORIENTED_EDGE('',*,*,#729,.T.);
#729 = EDGE_CURVE('',#341,#730,#732,.T.);
#730 = VERTEX_POINT('',#731);
#731 = CARTESIAN_POINT('',(46.407849186415,30.768880376674,
    33.760477388023));
#732 = SURFACE_CURVE('',#733,(#737,#744),.PCURVE_S1.);
#733 = LINE('',#734,#735);
#734 = CARTESIAN_POINT('',(-46.37731216366,30.746858705456,
    33.731255782543));
#735 = VECTOR('',#736,1.);
#736 = DIRECTION('',(0.999999922242,2.373404236693E-04,
    3.149383239954E-04));
#737 = PCURVE('',#711,#738);
#738 = DEFINITIONAL_REPRESENTATION('',(#739),#743);
#739 = LINE('',#740,#741);
#740 = CARTESIAN_POINT('',(-61.53460292676,92.771657596097));
#741 = VECTOR('',#742,1.);
#742 = DIRECTION('',(-2.36958189676E-04,-0.999999971925));
#743 = ( GEOMETRIC_REPRESENTATION_CONTEXT(2) 
PARAMETRIC_REPRESENTATION_CONTEXT() REPRESENTATION_CONTEXT('2D SPACE',''
  ) );
#744 = PCURVE('',#745,#750);
#745 = PLANE('',#746);
#746 = AXIS2_PLACEMENT_3D('',#747,#748,#749);
#747 = CARTESIAN_POINT('',(46.407849186415,30.768880376674,
    33.760477388023));
#748 = DIRECTION('',(-3.910309561722E-04,0.700255865418,0.713891847581)
  );
#749 = DIRECTION('',(2.241245706533E-20,0.71389190216,-0.700255918954));
#750 = DEFINITIONAL_REPRESENTATION('',(#751),#755);
#751 = LINE('',#752,#753);
#752 = CARTESIAN_POINT('',(4.741509444187E-03,92.785168443749));
#753 = VECTOR('',#754,1.);
#754 = DIRECTION('',(-5.110201897052E-05,-0.999999998694));
#755 = ( GEOMETRIC_REPRESENTATION_CONTEXT(2) 
PARAMETRIC_REPRESENTATION_CONTEXT() REPRESENTATION_CONTEXT('2D SPACE',''
  ) );
#756 = ORIENTED_EDGE('',*,*,#757,.F.);
#757 = EDGE_CURVE('',#645,#730,#758,.T.);
#758 = SURFACE_CURVE('',#759,(#763,#770),.PCURVE_S1.);
#759 = LINE('',#760,#761);
#760 = CARTESIAN_POINT('',(46.394340823189,-30.78766346529,
    33.835148927054));
#761 = VECTOR('',#762,1.);
#762 = DIRECTION('',(2.194462541085E-04,0.99999924017,
    -1.213055146256E-03));
#763 = PCURVE('',#711,#764);
#764 = DEFINITIONAL_REPRESENTATION('',(#765),#769);
#765 = LINE('',#766,#767);
#766 = CARTESIAN_POINT('',(0.,-0.));
#767 = VECTOR('',#768,1.);
#768 = DIRECTION('',(-0.999999975922,-2.194462650114E-04));
#769 = ( GEOMETRIC_REPRESENTATION_CONTEXT(2) 
PARAMETRIC_REPRESENTATION_CONTEXT() REPRESENTATION_CONTEXT('2D SPACE',''
  ) );
#770 = PCURVE('',#682,#771);
#771 = DEFINITIONAL_REPRESENTATION('',(#772),#776);
#772 = LINE('',#773,#774);
#773 = CARTESIAN_POINT('',(6.272454625874E-02,61.556558657175));
#774 = VECTOR('',#775,1.);
#775 = DIRECTION('',(-1.018973689617E-03,-0.999999480846));
#776 = ( GEOMETRIC_REPRESENTATION_CONTEXT(2) 
PARAMETRIC_REPRESENTATION_CONTEXT() REPRESENTATION_CONTEXT('2D SPACE',''
  ) );
#777 = ADVANCED_FACE('',(#778),#356,.T.);
#778 = FACE_BOUND('',#779,.T.);
#779 = EDGE_LOOP('',(#780,#781,#782));
#780 = ORIENTED_EDGE('',*,*,#532,.F.);
#781 = ORIENTED_EDGE('',*,*,#340,.T.);
#782 = ORIENTED_EDGE('',*,*,#783,.T.);
#783 = EDGE_CURVE('',#341,#478,#784,.T.);
#784 = SURFACE_CURVE('',#785,(#789,#796),.PCURVE_S1.);
#785 = LINE('',#786,#787);
#786 = CARTESIAN_POINT('',(-46.37731216366,30.746858705456,
    33.731255782543));
#787 = VECTOR('',#788,1.);
#788 = DIRECTION('',(0.995425835798,6.847541910216E-02,
    -6.662223655869E-02));
#789 = PCURVE('',#356,#790);
#790 = DEFINITIONAL_REPRESENTATION('',(#791),#795);
#791 = LINE('',#792,#793);
#792 = CARTESIAN_POINT('',(-9.552533830205,99.530323858625));
#793 = VECTOR('',#794,1.);
#794 = DIRECTION('',(9.553710790906E-02,-0.99542586917));
#795 = ( GEOMETRIC_REPRESENTATION_CONTEXT(2) 
PARAMETRIC_REPRESENTATION_CONTEXT() REPRESENTATION_CONTEXT('2D SPACE',''
  ) );
#796 = PCURVE('',#745,#797);
#797 = DEFINITIONAL_REPRESENTATION('',(#798),#802);
#798 = LINE('',#799,#800);
#799 = CARTESIAN_POINT('',(4.741509444187E-03,92.785168443749));
#800 = VECTOR('',#801,1.);
#801 = DIRECTION('',(9.553666267823E-02,-0.995425911901));
#802 = ( GEOMETRIC_REPRESENTATION_CONTEXT(2) 
PARAMETRIC_REPRESENTATION_CONTEXT() REPRESENTATION_CONTEXT('2D SPACE',''
  ) );
#803 = ADVANCED_FACE('',(#804),#745,.T.);
#804 = FACE_BOUND('',#805,.T.);
#805 = EDGE_LOOP('',(#806,#827,#828));
#806 = ORIENTED_EDGE('',*,*,#807,.T.);
#807 = EDGE_CURVE('',#730,#478,#808,.T.);
#808 = SURFACE_CURVE('',#809,(#813,#820),.PCURVE_S1.);
#809 = LINE('',#810,#811);
#810 = CARTESIAN_POINT('',(46.407849186415,30.768880376674,
    33.760477388023));
#811 = VECTOR('',#812,1.);
#812 = DIRECTION('',(0.576619197276,0.583416859181,-0.571957227208));
#813 = PCURVE('',#745,#814);
#814 = DEFINITIONAL_REPRESENTATION('',(#815),#819);
#815 = LINE('',#816,#817);
#816 = CARTESIAN_POINT('',(0.,-0.));
#817 = VECTOR('',#818,1.);
#818 = DIRECTION('',(0.817013005094,-0.57661924136));
#819 = ( GEOMETRIC_REPRESENTATION_CONTEXT(2) 
PARAMETRIC_REPRESENTATION_CONTEXT() REPRESENTATION_CONTEXT('2D SPACE',''
  ) );
#820 = PCURVE('',#598,#821);
#821 = DEFINITIONAL_REPRESENTATION('',(#822),#826);
#822 = LINE('',#823,#824);
#823 = CARTESIAN_POINT('',(0.,0.));
#824 = VECTOR('',#825,1.);
#825 = DIRECTION('',(0.812172667625,0.5834171389));
#826 = ( GEOMETRIC_REPRESENTATION_CONTEXT(2) 
PARAMETRIC_REPRESENTATION_CONTEXT() REPRESENTATION_CONTEXT('2D SPACE',''
  ) );
#827 = ORIENTED_EDGE('',*,*,#783,.F.);
#828 = ORIENTED_EDGE('',*,*,#729,.T.);
#829 = ADVANCED_FACE('',(#830),#682,.T.);
#830 = FACE_BOUND('',#831,.T.);
#831 = EDGE_LOOP('',(#832,#833,#834));
#832 = ORIENTED_EDGE('',*,*,#757,.F.);
#833 = ORIENTED_EDGE('',*,*,#668,.T.);
#834 = ORIENTED_EDGE('',*,*,#835,.F.);
#835 = EDGE_CURVE('',#730,#172,#836,.T.);
#836 = SURFACE_CURVE('',#837,(#841,#848),.PCURVE_S1.);
#837 = LINE('',#838,#839);
#838 = CARTESIAN_POINT('',(46.407849186415,30.768880376674,
    33.760477388023));
#839 = VECTOR('',#840,1.);
#840 = DIRECTION('',(9.720537715378E-02,-0.990435434349,
    -9.792223975486E-02));
#841 = PCURVE('',#682,#842);
#842 = DEFINITIONAL_REPRESENTATION('',(#843),#847);
#843 = LINE('',#844,#845);
#844 = CARTESIAN_POINT('',(0.,0.));
#845 = VECTOR('',#846,1.);
#846 = DIRECTION('',(-0.13797528111,0.990435672723));
#847 = ( GEOMETRIC_REPRESENTATION_CONTEXT(2) 
PARAMETRIC_REPRESENTATION_CONTEXT() REPRESENTATION_CONTEXT('2D SPACE',''
  ) );
#848 = PCURVE('',#598,#849);
#849 = DEFINITIONAL_REPRESENTATION('',(#850),#854);
#850 = LINE('',#851,#852);
#851 = CARTESIAN_POINT('',(0.,0.));
#852 = VECTOR('',#853,1.);
#853 = DIRECTION('',(0.137973583491,-0.990435909213));
#854 = ( GEOMETRIC_REPRESENTATION_CONTEXT(2) 
PARAMETRIC_REPRESENTATION_CONTEXT() REPRESENTATION_CONTEXT('2D SPACE',''
  ) );
#855 = ADVANCED_FACE('',(#856),#598,.T.);
#856 = FACE_BOUND('',#857,.T.);
#857 = EDGE_LOOP('',(#858,#859,#860));
#858 = ORIENTED_EDGE('',*,*,#835,.T.);
#859 = ORIENTED_EDGE('',*,*,#584,.T.);
#860 = ORIENTED_EDGE('',*,*,#807,.F.);
#861 = ( GEOMETRIC_REPRESENTATION_CONTEXT(3) 
GLOBAL_UNCERTAINTY_ASSIGNED_CONTEXT((#865)) GLOBAL_UNIT_ASSIGNED_CONTEXT
((#862,#863,#864)) REPRESENTATION_CONTEXT('Context #1',
  '3D Context with UNIT and UNCERTAINTY') );
#862 = ( LENGTH_UNIT() NAMED_UNIT(*) SI_UNIT(.MILLI.,.METRE.) );
#863 = ( NAMED_UNIT(*) PLANE_ANGLE_UNIT() SI_UNIT($,.RADIAN.) );
#864 = ( NAMED_UNIT(*) SI_UNIT($,.STERADIAN.) SOLID_ANGLE_UNIT() );
#865 = UNCERTAINTY_MEASURE_WITH_UNIT(LENGTH_MEASURE(1.E-07),#862,
  'distance_accuracy_value','confusion accuracy');
#866 = PRODUCT_TYPE('part',$,(#7));
ENDSEC;
END-ISO-10303-21;
