ISO-10303-21;
HEADER;
FILE_DESCRIPTION(('Open CASCADE Model'),'2;1');
FILE_NAME('Open CASCADE Shape Model','2026-10-04T20:44:42',('Author'),(
    'Open CASCADE'),'Open CASCADE STEP processor 7.8','Open CASCADE 7.8'
  ,'Unknown');
FILE_SCHEMA(('AUTOMOTIVE_DESIGN_CC2 { 1 2 10303 214 -1 1 5 4 }'));
ENDSEC;
DATA;
#1 = APPLICATION_PROTOCOL_DEFINITION('committee draft',
  'automotive_design',1997,#2);
#2 = APPLICATION_CONTEXT(
  'core data for automotive mechanical design processes');
#3 = SHAPE_DEFINITION_REPRESENTATION(#4,#10);
#4 = PRODUCT_DEFINITION_SHAPE('','',#5);
#5 = PRODUCT_DEFINITION('design','',#6,#9);
#6 = PRODUCT_DEFINITION_FORMATION('','',#7);
#7 = PRODUCT('Open CASCADE STEP translator 7.8 100',
  'Open CASCADE STEP translator 7.8 100','',(#8));
#8 = MECHANICAL_CONTEXT('',#2,'mechanical');
#9 = PRODUCT_DEFINITION_CONTEXT('part definition',#2,'design');
#10 = ADVANCED_BREP_SHAPE_REPRESENTATION('',(#11,#15),#861);
#11 = AXIS2_PLACEMENT_3D('',#12,#13,#14);
#12 = CARTESIAN_POINT('',(0.,0.,0.));
#13 = DIRECTION('',(0.,0.,1.));
#14 = DIRECTION('',(1.,0.,-0.));
#15 = MANIFOLD_SOLID_BREP('',#16);
#16 = CLOSED_SHELL('',(#17,#109,#167,#220,#278,#331,#389,#420,#473,#504,
    #552,#578,#609,#640,#693,#724,#777,#803,#829,#855));
#17 = ADVANCED_FACE('',(#18),#32,.T.);
#18 = FACE_BOUND('',#19,.T.);
#19 = EDGE_LOOP('',(#20,#55,#83));
#20 = ORIENTED_EDGE('',*,*,#21,.F.);
#21 = EDGE_CURVE('',#22,#24,#26,.T.);
#22 = VERTEX_POINT('',#23);
#23 = CARTESIAN_POINT('',(-30.7734067651,20.579446327474,21.704493087142
    ));
#24 = VERTEX_POINT('',#25);
#25 = CARTESIAN_POINT('',(-30.75183729782,-20.57355065681,
    1.465306440269E-02));
#26 = SURFACE_CURVE('',#27,(#31,#43),.PCURVE_S1.);
#27 = LINE('',#28,#29);
#28 = CARTESIAN_POINT('',(-30.7734067651,20.579446327474,21.704493087142
    ));
#29 = VECTOR('',#30,1.);
#30 = DIRECTION('',(4.636699019835E-04,-0.884648926942,-0.466257505109)
  );
#31 = PCURVE('',#32,#37);
#32 = PLANE('',#33);
#33 = AXIS2_PLACEMENT_3D('',#34,#35,#36);
#34 = CARTESIAN_POINT('',(-30.75183729782,-20.57355065681,
    1.465306440269E-02));
#35 = DIRECTION('',(-0.999999541491,-8.008487677129E-04,
    5.250324357911E-04));
#36 = DIRECTION('',(8.008488780936E-04,-0.99999967932,
    -1.533943449902E-24));
#37 = DEFINITIONAL_REPRESENTATION('',(#38),#42);
#38 = LINE('',#39,#40);
#39 = CARTESIAN_POINT('',(-41.15300106124,21.689843012241));
#40 = VECTOR('',#41,1.);
#41 = DIRECTION('',(0.884649014583,-0.466257569373));
#42 = ( GEOMETRIC_REPRESENTATION_CONTEXT(2) 
PARAMETRIC_REPRESENTATION_CONTEXT() REPRESENTATION_CONTEXT('2D SPACE',''
  ) );
#43 = PCURVE('',#44,#49);
#44 = PLANE('',#45);
#45 = AXIS2_PLACEMENT_3D('',#46,#47,#48);
#46 = CARTESIAN_POINT('',(-30.75183729782,-20.57355065681,
    1.465306440269E-02));
#47 = DIRECTION('',(0.999999264176,-1.124935806439E-04,1.20788808767E-03
    ));
#48 = DIRECTION('',(-1.207888095313E-03,-1.256022648392E-23,
    0.999999270503));
#49 = DEFINITIONAL_REPRESENTATION('',(#50),#54);
#50 = LINE('',#51,#52);
#51 = CARTESIAN_POINT('',(21.689850253567,-41.15299724467));
#52 = VECTOR('',#53,1.);
#53 = DIRECTION('',(-0.466257725037,0.884648932539));
#54 = ( GEOMETRIC_REPRESENTATION_CONTEXT(2) 
PARAMETRIC_REPRESENTATION_CONTEXT() REPRESENTATION_CONTEXT('2D SPACE',''
  ) );
#55 = ORIENTED_EDGE('',*,*,#56,.F.);
#56 = EDGE_CURVE('',#57,#22,#59,.T.);
#57 = VERTEX_POINT('',#58);
#58 = CARTESIAN_POINT('',(-30.78483575229,20.592566712907,
    -4.363851295495E-02));
#59 = SURFACE_CURVE('',#60,(#64,#71),.PCURVE_S1.);
#60 = LINE('',#61,#62);
#61 = CARTESIAN_POINT('',(-30.78483575229,20.592566712907,
    -4.363851295495E-02));
#62 = VECTOR('',#63,1.);
#63 = DIRECTION('',(5.255156509479E-04,-6.032877432954E-04,
    0.999999679939));
#64 = PCURVE('',#32,#65);
#65 = DEFINITIONAL_REPRESENTATION('',(#66),#70);
#66 = LINE('',#67,#68);
#67 = CARTESIAN_POINT('',(-41.16613059536,-5.829158539195E-02));
#68 = VECTOR('',#69,1.);
#69 = DIRECTION('',(6.037084084528E-04,0.999999817768));
#70 = ( GEOMETRIC_REPRESENTATION_CONTEXT(2) 
PARAMETRIC_REPRESENTATION_CONTEXT() REPRESENTATION_CONTEXT('2D SPACE',''
  ) );
#71 = PCURVE('',#72,#77);
#72 = PLANE('',#73);
#73 = AXIS2_PLACEMENT_3D('',#74,#75,#76);
#74 = CARTESIAN_POINT('',(-30.7734067651,20.579446327474,21.704493087142
    ));
#75 = DIRECTION('',(-1.317579432201E-04,-0.999999809384,
    -6.032185805045E-04));
#76 = DIRECTION('',(-7.251547199365E-24,6.032185857405E-04,
    -0.999999818064));
#77 = DEFINITIONAL_REPRESENTATION('',(#78),#82);
#78 = LINE('',#79,#80);
#79 = CARTESIAN_POINT('',(21.748135557782,-1.142898729191E-02));
#80 = VECTOR('',#81,1.);
#81 = DIRECTION('',(-0.999999861917,5.255156555095E-04));
#82 = ( GEOMETRIC_REPRESENTATION_CONTEXT(2) 
PARAMETRIC_REPRESENTATION_CONTEXT() REPRESENTATION_CONTEXT('2D SPACE',''
  ) );
#83 = ORIENTED_EDGE('',*,*,#84,.T.);
#84 = EDGE_CURVE('',#57,#24,#85,.T.);
#85 = SURFACE_CURVE('',#86,(#90,#97),.PCURVE_S1.);
#86 = LINE('',#87,#88);
#87 = CARTESIAN_POINT('',(-30.78483575229,20.592566712907,
    -4.363851295495E-02));
#88 = VECTOR('',#89,1.);
#89 = DIRECTION('',(8.015915245505E-04,-0.999998676187,
    1.416006753005E-03));
#90 = PCURVE('',#32,#91);
#91 = DEFINITIONAL_REPRESENTATION('',(#92),#96);
#92 = LINE('',#93,#94);
#93 = CARTESIAN_POINT('',(-41.16613059536,-5.829158539195E-02));
#94 = VECTOR('',#95,1.);
#95 = DIRECTION('',(0.999998997462,1.416006948172E-03));
#96 = ( GEOMETRIC_REPRESENTATION_CONTEXT(2) 
PARAMETRIC_REPRESENTATION_CONTEXT() REPRESENTATION_CONTEXT('2D SPACE',''
  ) );
#97 = PCURVE('',#98,#103);
#98 = PLANE('',#99);
#99 = AXIS2_PLACEMENT_3D('',#100,#101,#102);
#100 = CARTESIAN_POINT('',(30.827757024962,-20.60463389346,
    1.174813206334E-02));
#101 = DIRECTION('',(-4.788834249832E-05,-1.416045593171E-03,
    -0.99999899626));
#102 = DIRECTION('',(4.969353846844E-24,-0.999998997407,
    1.416045594795E-03));
#103 = DEFINITIONAL_REPRESENTATION('',(#104),#108);
#104 = LINE('',#105,#106);
#105 = CARTESIAN_POINT('',(-41.19723773236,61.612592847905));
#106 = VECTOR('',#107,1.);
#107 = DIRECTION('',(0.999999678725,-8.015915254697E-04));
#108 = ( GEOMETRIC_REPRESENTATION_CONTEXT(2) 
PARAMETRIC_REPRESENTATION_CONTEXT() REPRESENTATION_CONTEXT('2D SPACE',''
  ) );
#109 = ADVANCED_FACE('',(#110),#44,.F.);
#110 = FACE_BOUND('',#111,.F.);
#111 = EDGE_LOOP('',(#112,#113,#141));
#112 = ORIENTED_EDGE('',*,*,#21,.F.);
#113 = ORIENTED_EDGE('',*,*,#114,.F.);
#114 = EDGE_CURVE('',#115,#22,#117,.T.);
#115 = VERTEX_POINT('',#116);
#116 = CARTESIAN_POINT('',(-30.7780430164,-20.60494063486,
    21.707199245659));
#117 = SURFACE_CURVE('',#118,(#122,#129),.PCURVE_S1.);
#118 = LINE('',#119,#120);
#119 = CARTESIAN_POINT('',(-30.7780430164,-20.60494063486,
    21.707199245659));
#120 = VECTOR('',#121,1.);
#121 = DIRECTION('',(1.125730308666E-04,0.999999991505,
    -6.570835924428E-05));
#122 = PCURVE('',#44,#123);
#123 = DEFINITIONAL_REPRESENTATION('',(#124),#128);
#124 = LINE('',#125,#126);
#125 = CARTESIAN_POINT('',(21.692562010183,3.138997824726E-02));
#126 = VECTOR('',#127,1.);
#127 = DIRECTION('',(-6.584428693406E-05,-0.999999997832));
#128 = ( GEOMETRIC_REPRESENTATION_CONTEXT(2) 
PARAMETRIC_REPRESENTATION_CONTEXT() REPRESENTATION_CONTEXT('2D SPACE',''
  ) );
#129 = PCURVE('',#130,#135);
#130 = PLANE('',#131);
#131 = AXIS2_PLACEMENT_3D('',#132,#133,#134);
#132 = CARTESIAN_POINT('',(-30.7734067651,20.579446327474,
    21.704493087142));
#133 = DIRECTION('',(-0.705222745832,1.259753565708E-04,0.708985798794)
  );
#134 = DIRECTION('',(0.70898580442,1.727390584185E-21,0.705222751428));
#135 = DEFINITIONAL_REPRESENTATION('',(#136),#140);
#136 = LINE('',#137,#138);
#137 = CARTESIAN_POINT('',(-1.378591805349E-03,-41.18438728912));
#138 = VECTOR('',#139,1.);
#139 = DIRECTION('',(3.347365094687E-05,0.99999999944));
#140 = ( GEOMETRIC_REPRESENTATION_CONTEXT(2) 
PARAMETRIC_REPRESENTATION_CONTEXT() REPRESENTATION_CONTEXT('2D SPACE',''
  ) );
#141 = ORIENTED_EDGE('',*,*,#142,.T.);
#142 = EDGE_CURVE('',#115,#24,#143,.T.);
#143 = SURFACE_CURVE('',#144,(#148,#155),.PCURVE_S1.);
#144 = LINE('',#145,#146);
#145 = CARTESIAN_POINT('',(-30.7780430164,-20.60494063486,
    21.707199245659));
#146 = VECTOR('',#147,1.);
#147 = DIRECTION('',(1.208049612987E-03,1.447037245757E-03,
    -0.999998223348));
#148 = PCURVE('',#44,#149);
#149 = DEFINITIONAL_REPRESENTATION('',(#150),#154);
#150 = LINE('',#151,#152);
#151 = CARTESIAN_POINT('',(21.692562010183,3.138997824726E-02));
#152 = VECTOR('',#153,1.);
#153 = DIRECTION('',(-0.999998953041,-1.447037254913E-03));
#154 = ( GEOMETRIC_REPRESENTATION_CONTEXT(2) 
PARAMETRIC_REPRESENTATION_CONTEXT() REPRESENTATION_CONTEXT('2D SPACE',''
  ) );
#155 = PCURVE('',#156,#161);
#156 = PLANE('',#157);
#157 = AXIS2_PLACEMENT_3D('',#158,#159,#160);
#158 = CARTESIAN_POINT('',(30.827757024962,-20.60463389346,
    1.174813206334E-02));
#159 = DIRECTION('',(-5.04832904239E-04,-0.999998824729,
    -1.447647980257E-03));
#160 = DIRECTION('',(2.399002979209E-23,1.447648164728E-03,
    -0.999998952157));
#161 = DEFINITIONAL_REPRESENTATION('',(#162),#166);
#162 = LINE('',#163,#164);
#163 = CARTESIAN_POINT('',(-21.69542882421,-61.60580789168));
#164 = VECTOR('',#165,1.);
#165 = DIRECTION('',(0.999999270308,1.208049766927E-03));
#166 = ( GEOMETRIC_REPRESENTATION_CONTEXT(2) 
PARAMETRIC_REPRESENTATION_CONTEXT() REPRESENTATION_CONTEXT('2D SPACE',''
  ) );
#167 = ADVANCED_FACE('',(#168),#156,.T.);
#168 = FACE_BOUND('',#169,.T.);
#169 = EDGE_LOOP('',(#170,#198,#199));
#170 = ORIENTED_EDGE('',*,*,#171,.F.);
#171 = EDGE_CURVE('',#115,#172,#174,.T.);
#172 = VERTEX_POINT('',#173);
#173 = CARTESIAN_POINT('',(30.827757024962,-20.60463389346,
    1.174813206334E-02));
#174 = SURFACE_CURVE('',#175,(#179,#186),.PCURVE_S1.);
#175 = LINE('',#176,#177);
#176 = CARTESIAN_POINT('',(-30.7780430164,-20.60494063486,
    21.707199245659));
#177 = VECTOR('',#178,1.);
#178 = DIRECTION('',(0.943219663551,4.696384322886E-06,-0.332169634778)
  );
#179 = PCURVE('',#156,#180);
#180 = DEFINITIONAL_REPRESENTATION('',(#181),#185);
#181 = LINE('',#182,#183);
#182 = CARTESIAN_POINT('',(-21.69542882421,-61.60580789168));
#183 = VECTOR('',#184,1.);
#184 = DIRECTION('',(0.332169293515,0.943219783744));
#185 = ( GEOMETRIC_REPRESENTATION_CONTEXT(2) 
PARAMETRIC_REPRESENTATION_CONTEXT() REPRESENTATION_CONTEXT('2D SPACE',''
  ) );
#186 = PCURVE('',#187,#192);
#187 = PLANE('',#188);
#188 = AXIS2_PLACEMENT_3D('',#189,#190,#191);
#189 = CARTESIAN_POINT('',(30.845637819265,-20.58347329235,
    21.756090680719));
#190 = DIRECTION('',(3.475898525523E-04,-0.999999466354,
    9.728679810763E-04));
#191 = DIRECTION('',(3.767491238207E-24,-9.728680398466E-04,
    -0.999999526764));
#192 = DEFINITIONAL_REPRESENTATION('',(#193),#197);
#193 = LINE('',#194,#195);
#194 = CARTESIAN_POINT('',(4.891229681442E-02,-61.62368455831));
#195 = VECTOR('',#196,1.);
#196 = DIRECTION('',(0.332169473014,0.94321972053));
#197 = ( GEOMETRIC_REPRESENTATION_CONTEXT(2) 
PARAMETRIC_REPRESENTATION_CONTEXT() REPRESENTATION_CONTEXT('2D SPACE',''
  ) );
#198 = ORIENTED_EDGE('',*,*,#142,.T.);
#199 = ORIENTED_EDGE('',*,*,#200,.T.);
#200 = EDGE_CURVE('',#24,#172,#201,.T.);
#201 = SURFACE_CURVE('',#202,(#206,#213),.PCURVE_S1.);
#202 = LINE('',#203,#204);
#203 = CARTESIAN_POINT('',(-30.75183729782,-20.57355065681,
    1.465306440269E-02));
#204 = VECTOR('',#205,1.);
#205 = DIRECTION('',(0.999999871493,-5.047651418146E-04,
    -4.717361323972E-05));
#206 = PCURVE('',#156,#207);
#207 = DEFINITIONAL_REPRESENTATION('',(#208),#212);
#208 = LINE('',#209,#210);
#209 = CARTESIAN_POINT('',(-2.859931704934E-03,-61.57960216976));
#210 = VECTOR('',#211,1.);
#211 = DIRECTION('',(4.644284147801E-05,0.999999998922));
#212 = ( GEOMETRIC_REPRESENTATION_CONTEXT(2) 
PARAMETRIC_REPRESENTATION_CONTEXT() REPRESENTATION_CONTEXT('2D SPACE',''
  ) );
#213 = PCURVE('',#98,#214);
#214 = DEFINITIONAL_REPRESENTATION('',(#215),#219);
#215 = LINE('',#216,#217);
#216 = CARTESIAN_POINT('',(-3.107909197515E-02,61.579594393401));
#217 = VECTOR('',#218,1.);
#218 = DIRECTION('',(5.046978357534E-04,-0.99999987264));
#219 = ( GEOMETRIC_REPRESENTATION_CONTEXT(2) 
PARAMETRIC_REPRESENTATION_CONTEXT() REPRESENTATION_CONTEXT('2D SPACE',''
  ) );
#220 = ADVANCED_FACE('',(#221),#187,.T.);
#221 = FACE_BOUND('',#222,.T.);
#222 = EDGE_LOOP('',(#223,#251,#252));
#223 = ORIENTED_EDGE('',*,*,#224,.F.);
#224 = EDGE_CURVE('',#115,#225,#227,.T.);
#225 = VERTEX_POINT('',#226);
#226 = CARTESIAN_POINT('',(30.845637819265,-20.58347329235,
    21.756090680719));
#227 = SURFACE_CURVE('',#228,(#232,#239),.PCURVE_S1.);
#228 = LINE('',#229,#230);
#229 = CARTESIAN_POINT('',(-30.7780430164,-20.60494063486,
    21.707199245659));
#230 = VECTOR('',#231,1.);
#231 = DIRECTION('',(0.999999624591,3.483617686076E-04,
    7.933868286165E-04));
#232 = PCURVE('',#187,#233);
#233 = DEFINITIONAL_REPRESENTATION('',(#234),#238);
#234 = LINE('',#235,#236);
#235 = CARTESIAN_POINT('',(4.891229681442E-02,-61.62368455831));
#236 = VECTOR('',#237,1.);
#237 = DIRECTION('',(-7.937253631881E-04,0.999999685));
#238 = ( GEOMETRIC_REPRESENTATION_CONTEXT(2) 
PARAMETRIC_REPRESENTATION_CONTEXT() REPRESENTATION_CONTEXT('2D SPACE',''
  ) );
#239 = PCURVE('',#240,#245);
#240 = PLANE('',#241);
#241 = AXIS2_PLACEMENT_3D('',#242,#243,#244);
#242 = CARTESIAN_POINT('',(30.845637819265,-20.58347329235,
    21.756090680719));
#243 = DIRECTION('',(-3.162205982411E-04,-0.705755922184,0.708454993847)
  );
#244 = DIRECTION('',(-7.838862199383E-21,0.708455029269,0.70575595747));
#245 = DEFINITIONAL_REPRESENTATION('',(#246),#250);
#246 = LINE('',#247,#248);
#247 = CARTESIAN_POINT('',(-4.971406832431E-02,61.623683916716));
#248 = VECTOR('',#249,1.);
#249 = DIRECTION('',(8.067361278491E-04,-0.999999674588));
#250 = ( GEOMETRIC_REPRESENTATION_CONTEXT(2) 
PARAMETRIC_REPRESENTATION_CONTEXT() REPRESENTATION_CONTEXT('2D SPACE',''
  ) );
#251 = ORIENTED_EDGE('',*,*,#171,.T.);
#252 = ORIENTED_EDGE('',*,*,#253,.T.);
#253 = EDGE_CURVE('',#172,#225,#254,.T.);
#254 = SURFACE_CURVE('',#255,(#259,#266),.PCURVE_S1.);
#255 = LINE('',#256,#257);
#256 = CARTESIAN_POINT('',(30.827757024962,-20.60463389346,
    1.174813206334E-02));
#257 = VECTOR('',#258,1.);
#258 = DIRECTION('',(8.223187134874E-04,9.731535404383E-04,
    0.999999188382));
#259 = PCURVE('',#187,#260);
#260 = DEFINITIONAL_REPRESENTATION('',(#261),#265);
#261 = LINE('',#262,#263);
#262 = CARTESIAN_POINT('',(21.744352844918,-1.788079538279E-02));
#263 = VECTOR('',#264,1.);
#264 = DIRECTION('',(-0.999999661896,8.223187631632E-04));
#265 = ( GEOMETRIC_REPRESENTATION_CONTEXT(2) 
PARAMETRIC_REPRESENTATION_CONTEXT() REPRESENTATION_CONTEXT('2D SPACE',''
  ) );
#266 = PCURVE('',#267,#272);
#267 = PLANE('',#268);
#268 = AXIS2_PLACEMENT_3D('',#269,#270,#271);
#269 = CARTESIAN_POINT('',(30.845637819265,-20.58347329235,
    21.756090680719));
#270 = DIRECTION('',(0.99999934338,7.973418062359E-04,
    -8.230947775772E-04));
#271 = DIRECTION('',(8.230950392202E-04,-2.877060781508E-23,
    0.999999661257));
#272 = DEFINITIONAL_REPRESENTATION('',(#273),#277);
#273 = LINE('',#274,#275);
#274 = CARTESIAN_POINT('',(-21.74434990051,2.116060783653E-02));
#275 = VECTOR('',#276,1.);
#276 = DIRECTION('',(0.999999526486,-9.731538497815E-04));
#277 = ( GEOMETRIC_REPRESENTATION_CONTEXT(2) 
PARAMETRIC_REPRESENTATION_CONTEXT() REPRESENTATION_CONTEXT('2D SPACE',''
  ) );
#278 = ADVANCED_FACE('',(#279),#130,.T.);
#279 = FACE_BOUND('',#280,.T.);
#280 = EDGE_LOOP('',(#281,#282,#305));
#281 = ORIENTED_EDGE('',*,*,#114,.F.);
#282 = ORIENTED_EDGE('',*,*,#283,.T.);
#283 = EDGE_CURVE('',#115,#284,#286,.T.);
#284 = VERTEX_POINT('',#285);
#285 = CARTESIAN_POINT('',(-26.62380941425,-16.45955400463,
    25.838647035114));
#286 = SURFACE_CURVE('',#287,(#291,#298),.PCURVE_S1.);
#287 = LINE('',#288,#289);
#288 = CARTESIAN_POINT('',(-30.7780430164,-20.60494063486,
    21.707199245659));
#289 = VECTOR('',#290,1.);
#290 = DIRECTION('',(0.578817943875,0.577585277013,0.575643149552));
#291 = PCURVE('',#130,#292);
#292 = DEFINITIONAL_REPRESENTATION('',(#293),#297);
#293 = LINE('',#294,#295);
#294 = CARTESIAN_POINT('',(-1.378591805349E-03,-41.18438728912));
#295 = VECTOR('',#296,1.);
#296 = DIRECTION('',(0.816330351319,0.577585281596));
#297 = ( GEOMETRIC_REPRESENTATION_CONTEXT(2) 
PARAMETRIC_REPRESENTATION_CONTEXT() REPRESENTATION_CONTEXT('2D SPACE',''
  ) );
#298 = PCURVE('',#240,#299);
#299 = DEFINITIONAL_REPRESENTATION('',(#300),#304);
#300 = LINE('',#301,#302);
#301 = CARTESIAN_POINT('',(-4.971406832431E-02,61.623683916716));
#302 = VECTOR('',#303,1.);
#303 = DIRECTION('',(0.815456776504,-0.578817972815));
#304 = ( GEOMETRIC_REPRESENTATION_CONTEXT(2) 
PARAMETRIC_REPRESENTATION_CONTEXT() REPRESENTATION_CONTEXT('2D SPACE',''
  ) );
#305 = ORIENTED_EDGE('',*,*,#306,.F.);
#306 = EDGE_CURVE('',#22,#284,#307,.T.);
#307 = SURFACE_CURVE('',#308,(#312,#319),.PCURVE_S1.);
#308 = LINE('',#309,#310);
#309 = CARTESIAN_POINT('',(-30.7734067651,20.579446327474,
    21.704493087142));
#310 = VECTOR('',#311,1.);
#311 = DIRECTION('',(0.110657977968,-0.987724961285,0.110246146267));
#312 = PCURVE('',#130,#313);
#313 = DEFINITIONAL_REPRESENTATION('',(#314),#318);
#314 = LINE('',#315,#316);
#315 = CARTESIAN_POINT('',(0.,0.));
#316 = VECTOR('',#317,1.);
#317 = DIRECTION('',(0.15620302613,-0.987724969122));
#318 = ( GEOMETRIC_REPRESENTATION_CONTEXT(2) 
PARAMETRIC_REPRESENTATION_CONTEXT() REPRESENTATION_CONTEXT('2D SPACE',''
  ) );
#319 = PCURVE('',#320,#325);
#320 = PLANE('',#321);
#321 = AXIS2_PLACEMENT_3D('',#322,#323,#324);
#322 = CARTESIAN_POINT('',(-26.65520096746,16.428610842583,
    25.829558468385));
#323 = DIRECTION('',(-0.707936599695,-4.80543519444E-04,0.706275824229)
  );
#324 = DIRECTION('',(-0.706275905776,-1.232510741198E-20,-0.707936681434
    ));
#325 = DEFINITIONAL_REPRESENTATION('',(#326),#330);
#326 = LINE('',#327,#328);
#327 = CARTESIAN_POINT('',(5.828874626596,-4.150835964151));
#328 = VECTOR('',#329,1.);
#329 = DIRECTION('',(-0.15620235455,0.987725075329));
#330 = ( GEOMETRIC_REPRESENTATION_CONTEXT(2) 
PARAMETRIC_REPRESENTATION_CONTEXT() REPRESENTATION_CONTEXT('2D SPACE',''
  ) );
#331 = ADVANCED_FACE('',(#332),#320,.T.);
#332 = FACE_BOUND('',#333,.T.);
#333 = EDGE_LOOP('',(#334,#362,#363));
#334 = ORIENTED_EDGE('',*,*,#335,.F.);
#335 = EDGE_CURVE('',#22,#336,#338,.T.);
#336 = VERTEX_POINT('',#337);
#337 = CARTESIAN_POINT('',(-26.65520096746,16.428610842583,
    25.829558468385));
#338 = SURFACE_CURVE('',#339,(#343,#350),.PCURVE_S1.);
#339 = LINE('',#340,#341);
#340 = CARTESIAN_POINT('',(-30.7734067651,20.579446327474,
    21.704493087142));
#341 = VECTOR('',#342,1.);
#342 = DIRECTION('',(0.575507427951,-0.580067332994,0.576466035051));
#343 = PCURVE('',#320,#344);
#344 = DEFINITIONAL_REPRESENTATION('',(#345),#349);
#345 = LINE('',#346,#347);
#346 = CARTESIAN_POINT('',(5.828874626596,-4.150835964151));
#347 = VECTOR('',#348,1.);
#348 = DIRECTION('',(-0.81456848177,0.580067399969));
#349 = ( GEOMETRIC_REPRESENTATION_CONTEXT(2) 
PARAMETRIC_REPRESENTATION_CONTEXT() REPRESENTATION_CONTEXT('2D SPACE',''
  ) );
#350 = PCURVE('',#351,#356);
#351 = PLANE('',#352);
#352 = AXIS2_PLACEMENT_3D('',#353,#354,#355);
#353 = CARTESIAN_POINT('',(30.812785378845,20.619385891329,
    21.756507783615));
#354 = DIRECTION('',(-1.056306506281E-03,0.704373670323,0.709828582668)
  );
#355 = DIRECTION('',(-2.241095201119E-21,0.709828978675,-0.704374063288)
  );
#356 = DEFINITIONAL_REPRESENTATION('',(#357),#361);
#357 = LINE('',#358,#359);
#358 = CARTESIAN_POINT('',(8.287543285671E-03,61.586226502402));
#359 = VECTOR('',#360,1.);
#360 = DIRECTION('',(-0.817796325998,-0.575507749022));
#361 = ( GEOMETRIC_REPRESENTATION_CONTEXT(2) 
PARAMETRIC_REPRESENTATION_CONTEXT() REPRESENTATION_CONTEXT('2D SPACE',''
  ) );
#362 = ORIENTED_EDGE('',*,*,#306,.T.);
#363 = ORIENTED_EDGE('',*,*,#364,.F.);
#364 = EDGE_CURVE('',#336,#284,#365,.T.);
#365 = SURFACE_CURVE('',#366,(#370,#377),.PCURVE_S1.);
#366 = LINE('',#367,#368);
#367 = CARTESIAN_POINT('',(-26.65520096746,16.428610842583,
    25.829558468385));
#368 = VECTOR('',#369,1.);
#369 = DIRECTION('',(9.544934434853E-04,-0.999999506287,
    2.763475032326E-04));
#370 = PCURVE('',#320,#371);
#371 = DEFINITIONAL_REPRESENTATION('',(#372),#376);
#372 = LINE('',#373,#374);
#373 = CARTESIAN_POINT('',(-0.,0.));
#374 = VECTOR('',#375,1.);
#375 = DIRECTION('',(-8.697722557159E-04,0.999999621748));
#376 = ( GEOMETRIC_REPRESENTATION_CONTEXT(2) 
PARAMETRIC_REPRESENTATION_CONTEXT() REPRESENTATION_CONTEXT('2D SPACE',''
  ) );
#377 = PCURVE('',#378,#383);
#378 = PLANE('',#379);
#379 = AXIS2_PLACEMENT_3D('',#380,#381,#382);
#380 = CARTESIAN_POINT('',(26.677006186421,-16.4312707907,
    25.843328819049));
#381 = DIRECTION('',(-8.798359479853E-05,2.762636482479E-04,
    0.999999957969));
#382 = DIRECTION('',(-3.398399806331E-24,0.999999961839,
    -2.762636493172E-04));
#383 = DEFINITIONAL_REPRESENTATION('',(#384),#388);
#384 = LINE('',#385,#386);
#385 = CARTESIAN_POINT('',(32.859884183575,53.332207360309));
#386 = VECTOR('',#387,1.);
#387 = DIRECTION('',(-0.999999544471,-9.544934471797E-04));
#388 = ( GEOMETRIC_REPRESENTATION_CONTEXT(2) 
PARAMETRIC_REPRESENTATION_CONTEXT() REPRESENTATION_CONTEXT('2D SPACE',''
  ) );
#389 = ADVANCED_FACE('',(#390),#98,.T.);
#390 = FACE_BOUND('',#391,.T.);
#391 = EDGE_LOOP('',(#392,#393,#394));
#392 = ORIENTED_EDGE('',*,*,#200,.F.);
#393 = ORIENTED_EDGE('',*,*,#84,.F.);
#394 = ORIENTED_EDGE('',*,*,#395,.T.);
#395 = EDGE_CURVE('',#57,#172,#396,.T.);
#396 = SURFACE_CURVE('',#397,(#401,#408),.PCURVE_S1.);
#397 = LINE('',#398,#399);
#398 = CARTESIAN_POINT('',(-30.78483575229,20.592566712907,
    -4.363851295495E-02));
#399 = VECTOR('',#400,1.);
#400 = DIRECTION('',(0.831288701827,-0.555840386961,7.472870424763E-04)
  );
#401 = PCURVE('',#98,#402);
#402 = DEFINITIONAL_REPRESENTATION('',(#403),#407);
#403 = LINE('',#404,#405);
#404 = CARTESIAN_POINT('',(-41.19723773236,61.612592847905));
#405 = VECTOR('',#406,1.);
#406 = DIRECTION('',(0.555840887872,-0.83128870278));
#407 = ( GEOMETRIC_REPRESENTATION_CONTEXT(2) 
PARAMETRIC_REPRESENTATION_CONTEXT() REPRESENTATION_CONTEXT('2D SPACE',''
  ) );
#408 = PCURVE('',#409,#414);
#409 = PLANE('',#410);
#410 = AXIS2_PLACEMENT_3D('',#411,#412,#413);
#411 = CARTESIAN_POINT('',(30.783764835383,20.584448613969,
    -3.378269883482E-02));
#412 = DIRECTION('',(1.599327488937E-04,-1.105238668685E-03,
    -0.999999376434));
#413 = DIRECTION('',(-3.416206545606E-24,-0.999999389224,
    1.10523868282E-03));
#414 = DEFINITIONAL_REPRESENTATION('',(#415),#419);
#415 = LINE('',#416,#417);
#416 = CARTESIAN_POINT('',(-8.128987006689E-03,61.568601375094));
#417 = VECTOR('',#418,1.);
#418 = DIRECTION('',(0.555840873397,-0.831288712459));
#419 = ( GEOMETRIC_REPRESENTATION_CONTEXT(2) 
PARAMETRIC_REPRESENTATION_CONTEXT() REPRESENTATION_CONTEXT('2D SPACE',''
  ) );
#420 = ADVANCED_FACE('',(#421),#409,.T.);
#421 = FACE_BOUND('',#422,.T.);
#422 = EDGE_LOOP('',(#423,#451,#452));
#423 = ORIENTED_EDGE('',*,*,#424,.T.);
#424 = EDGE_CURVE('',#425,#172,#427,.T.);
#425 = VERTEX_POINT('',#426);
#426 = CARTESIAN_POINT('',(30.783764835383,20.584448613969,
    -3.378269883482E-02));
#427 = SURFACE_CURVE('',#428,(#432,#439),.PCURVE_S1.);
#428 = LINE('',#429,#430);
#429 = CARTESIAN_POINT('',(30.783764835383,20.584448613969,
    -3.378269883482E-02));
#430 = VECTOR('',#431,1.);
#431 = DIRECTION('',(1.068053351308E-03,-0.999998818666,
    1.105408869033E-03));
#432 = PCURVE('',#409,#433);
#433 = DEFINITIONAL_REPRESENTATION('',(#434),#438);
#434 = LINE('',#435,#436);
#435 = CARTESIAN_POINT('',(0.,-0.));
#436 = VECTOR('',#437,1.);
#437 = DIRECTION('',(0.999999429631,-1.068053364968E-03));
#438 = ( GEOMETRIC_REPRESENTATION_CONTEXT(2) 
PARAMETRIC_REPRESENTATION_CONTEXT() REPRESENTATION_CONTEXT('2D SPACE',''
  ) );
#439 = PCURVE('',#440,#445);
#440 = PLANE('',#441);
#441 = AXIS2_PLACEMENT_3D('',#442,#443,#444);
#442 = CARTESIAN_POINT('',(30.827757024962,-20.60463389346,
    1.174813206334E-02));
#443 = DIRECTION('',(0.999998542067,1.066578970509E-03,
    -1.333518914777E-03));
#444 = DIRECTION('',(1.333519673277E-03,9.46213133397E-23,0.999999110862
    ));
#445 = DEFINITIONAL_REPRESENTATION('',(#446),#450);
#446 = LINE('',#447,#448);
#447 = CARTESIAN_POINT('',(-4.558945486525E-02,-41.18910593561));
#448 = VECTOR('',#449,1.);
#449 = DIRECTION('',(1.106832156328E-03,0.999999387461));
#450 = ( GEOMETRIC_REPRESENTATION_CONTEXT(2) 
PARAMETRIC_REPRESENTATION_CONTEXT() REPRESENTATION_CONTEXT('2D SPACE',''
  ) );
#451 = ORIENTED_EDGE('',*,*,#395,.F.);
#452 = ORIENTED_EDGE('',*,*,#453,.T.);
#453 = EDGE_CURVE('',#57,#425,#454,.T.);
#454 = SURFACE_CURVE('',#455,(#459,#466),.PCURVE_S1.);
#455 = LINE('',#456,#457);
#456 = CARTESIAN_POINT('',(-30.78483575229,20.592566712907,
    -4.363851295495E-02));
#457 = VECTOR('',#458,1.);
#458 = DIRECTION('',(0.999999978495,-1.318545278916E-04,
    1.600785759967E-04));
#459 = PCURVE('',#409,#460);
#460 = DEFINITIONAL_REPRESENTATION('',(#461),#465);
#461 = LINE('',#462,#463);
#462 = CARTESIAN_POINT('',(-8.128987006689E-03,61.568601375094));
#463 = VECTOR('',#464,1.);
#464 = DIRECTION('',(1.320313723924E-04,-0.999999991284));
#465 = ( GEOMETRIC_REPRESENTATION_CONTEXT(2) 
PARAMETRIC_REPRESENTATION_CONTEXT() REPRESENTATION_CONTEXT('2D SPACE',''
  ) );
#466 = PCURVE('',#72,#467);
#467 = DEFINITIONAL_REPRESENTATION('',(#468),#472);
#468 = LINE('',#469,#470);
#469 = CARTESIAN_POINT('',(21.748135557782,-1.142898729191E-02));
#470 = VECTOR('',#471,1.);
#471 = DIRECTION('',(-1.601580839744E-04,0.999999987175));
#472 = ( GEOMETRIC_REPRESENTATION_CONTEXT(2) 
PARAMETRIC_REPRESENTATION_CONTEXT() REPRESENTATION_CONTEXT('2D SPACE',''
  ) );
#473 = ADVANCED_FACE('',(#474),#72,.F.);
#474 = FACE_BOUND('',#475,.F.);
#475 = EDGE_LOOP('',(#476,#477,#478));
#476 = ORIENTED_EDGE('',*,*,#56,.F.);
#477 = ORIENTED_EDGE('',*,*,#453,.T.);
#478 = ORIENTED_EDGE('',*,*,#479,.F.);
#479 = EDGE_CURVE('',#22,#425,#480,.T.);
#480 = SURFACE_CURVE('',#481,(#485,#492),.PCURVE_S1.);
#481 = LINE('',#482,#483);
#482 = CARTESIAN_POINT('',(-30.7734067651,20.579446327474,
    21.704493087142));
#483 = VECTOR('',#484,1.);
#484 = DIRECTION('',(0.942931591589,7.662493002669E-05,-0.332986497793)
  );
#485 = PCURVE('',#72,#486);
#486 = DEFINITIONAL_REPRESENTATION('',(#487),#491);
#487 = LINE('',#488,#489);
#488 = CARTESIAN_POINT('',(0.,0.));
#489 = VECTOR('',#490,1.);
#490 = DIRECTION('',(0.332986483432,0.942931599774));
#491 = ( GEOMETRIC_REPRESENTATION_CONTEXT(2) 
PARAMETRIC_REPRESENTATION_CONTEXT() REPRESENTATION_CONTEXT('2D SPACE',''
  ) );
#492 = PCURVE('',#493,#498);
#493 = PLANE('',#494);
#494 = AXIS2_PLACEMENT_3D('',#495,#496,#497);
#495 = CARTESIAN_POINT('',(30.812785378845,20.619385891329,
    21.756507783615));
#496 = DIRECTION('',(-6.471605153024E-04,0.999998506624,
    -1.602477225497E-03));
#497 = DIRECTION('',(-2.131512453018E-23,1.602477561069E-03,
    0.999998716032));
#498 = DEFINITIONAL_REPRESENTATION('',(#499),#503);
#499 = LINE('',#500,#501);
#500 = CARTESIAN_POINT('',(-5.207863194268E-02,-61.58620504061));
#501 = VECTOR('',#502,1.);
#502 = DIRECTION('',(-0.332985947459,0.942931789047));
#503 = ( GEOMETRIC_REPRESENTATION_CONTEXT(2) 
PARAMETRIC_REPRESENTATION_CONTEXT() REPRESENTATION_CONTEXT('2D SPACE',''
  ) );
#504 = ADVANCED_FACE('',(#505),#493,.T.);
#505 = FACE_BOUND('',#506,.T.);
#506 = EDGE_LOOP('',(#507,#530,#531));
#507 = ORIENTED_EDGE('',*,*,#508,.F.);
#508 = EDGE_CURVE('',#425,#509,#511,.T.);
#509 = VERTEX_POINT('',#510);
#510 = CARTESIAN_POINT('',(30.812785378845,20.619385891329,
    21.756507783615));
#511 = SURFACE_CURVE('',#512,(#516,#523),.PCURVE_S1.);
#512 = LINE('',#513,#514);
#513 = CARTESIAN_POINT('',(30.783764835383,20.584448613969,
    -3.378269883482E-02));
#514 = VECTOR('',#515,1.);
#515 = DIRECTION('',(1.331807873159E-03,1.603338032444E-03,
    0.999997827795));
#516 = PCURVE('',#493,#517);
#517 = DEFINITIONAL_REPRESENTATION('',(#518),#522);
#518 = LINE('',#519,#520);
#519 = CARTESIAN_POINT('',(-21.79031849061,-2.902054953866E-02));
#520 = VECTOR('',#521,1.);
#521 = DIRECTION('',(0.999999113143,1.331808152051E-03));
#522 = ( GEOMETRIC_REPRESENTATION_CONTEXT(2) 
PARAMETRIC_REPRESENTATION_CONTEXT() REPRESENTATION_CONTEXT('2D SPACE',''
  ) );
#523 = PCURVE('',#440,#524);
#524 = DEFINITIONAL_REPRESENTATION('',(#525),#529);
#525 = LINE('',#526,#527);
#526 = CARTESIAN_POINT('',(-4.558945486525E-02,-41.18910593561));
#527 = VECTOR('',#528,1.);
#528 = DIRECTION('',(0.999998714651,-1.603338944416E-03));
#529 = ( GEOMETRIC_REPRESENTATION_CONTEXT(2) 
PARAMETRIC_REPRESENTATION_CONTEXT() REPRESENTATION_CONTEXT('2D SPACE',''
  ) );
#530 = ORIENTED_EDGE('',*,*,#479,.F.);
#531 = ORIENTED_EDGE('',*,*,#532,.T.);
#532 = EDGE_CURVE('',#22,#509,#533,.T.);
#533 = SURFACE_CURVE('',#534,(#538,#545),.PCURVE_S1.);
#534 = LINE('',#535,#536);
#535 = CARTESIAN_POINT('',(-30.7734067651,20.579446327474,
    21.704493087142));
#536 = VECTOR('',#537,1.);
#537 = DIRECTION('',(0.999999433054,6.485145423138E-04,
    8.445832608371E-04));
#538 = PCURVE('',#493,#539);
#539 = DEFINITIONAL_REPRESENTATION('',(#540),#544);
#540 = LINE('',#541,#542);
#541 = CARTESIAN_POINT('',(-5.207863194268E-02,-61.58620504061));
#542 = VECTOR('',#543,1.);
#543 = DIRECTION('',(8.456214064213E-04,0.999999642462));
#544 = ( GEOMETRIC_REPRESENTATION_CONTEXT(2) 
PARAMETRIC_REPRESENTATION_CONTEXT() REPRESENTATION_CONTEXT('2D SPACE',''
  ) );
#545 = PCURVE('',#351,#546);
#546 = DEFINITIONAL_REPRESENTATION('',(#547),#551);
#547 = LINE('',#548,#549);
#548 = CARTESIAN_POINT('',(8.287543285671E-03,61.586226502402));
#549 = VECTOR('',#550,1.);
#550 = DIRECTION('',(-1.345681279938E-04,-0.999999990946));
#551 = ( GEOMETRIC_REPRESENTATION_CONTEXT(2) 
PARAMETRIC_REPRESENTATION_CONTEXT() REPRESENTATION_CONTEXT('2D SPACE',''
  ) );
#552 = ADVANCED_FACE('',(#553),#440,.T.);
#553 = FACE_BOUND('',#554,.T.);
#554 = EDGE_LOOP('',(#555,#556,#557));
#555 = ORIENTED_EDGE('',*,*,#424,.F.);
#556 = ORIENTED_EDGE('',*,*,#508,.T.);
#557 = ORIENTED_EDGE('',*,*,#558,.T.);
#558 = EDGE_CURVE('',#509,#172,#559,.T.);
#559 = SURFACE_CURVE('',#560,(#564,#571),.PCURVE_S1.);
#560 = LINE('',#561,#562);
#561 = CARTESIAN_POINT('',(30.812785378845,20.619385891329,
    21.756507783615));
#562 = VECTOR('',#563,1.);
#563 = DIRECTION('',(3.212285889907E-04,-0.884494170128,-0.466551133127)
  );
#564 = PCURVE('',#440,#565);
#565 = DEFINITIONAL_REPRESENTATION('',(#566),#570);
#566 = LINE('',#567,#568);
#567 = CARTESIAN_POINT('',(21.744720352481,-41.22404323284));
#568 = VECTOR('',#569,1.);
#569 = DIRECTION('',(-0.466550289934,0.884494673225));
#570 = ( GEOMETRIC_REPRESENTATION_CONTEXT(2) 
PARAMETRIC_REPRESENTATION_CONTEXT() REPRESENTATION_CONTEXT('2D SPACE',''
  ) );
#571 = PCURVE('',#267,#572);
#572 = DEFINITIONAL_REPRESENTATION('',(#573),#577);
#573 = LINE('',#574,#575);
#574 = CARTESIAN_POINT('',(3.900620740213E-04,-41.20287228113));
#575 = VECTOR('',#576,1.);
#576 = DIRECTION('',(-0.466550710684,0.884494451288));
#577 = ( GEOMETRIC_REPRESENTATION_CONTEXT(2) 
PARAMETRIC_REPRESENTATION_CONTEXT() REPRESENTATION_CONTEXT('2D SPACE',''
  ) );
#578 = ADVANCED_FACE('',(#579),#267,.T.);
#579 = FACE_BOUND('',#580,.T.);
#580 = EDGE_LOOP('',(#581,#582,#583));
#581 = ORIENTED_EDGE('',*,*,#253,.F.);
#582 = ORIENTED_EDGE('',*,*,#558,.F.);
#583 = ORIENTED_EDGE('',*,*,#584,.T.);
#584 = EDGE_CURVE('',#509,#225,#585,.T.);
#585 = SURFACE_CURVE('',#586,(#590,#597),.PCURVE_S1.);
#586 = LINE('',#587,#588);
#587 = CARTESIAN_POINT('',(30.812785378845,20.619385891329,
    21.756507783615));
#588 = VECTOR('',#589,1.);
#589 = DIRECTION('',(7.973337439759E-04,-0.999999682078,
    -1.012315095858E-05));
#590 = PCURVE('',#267,#591);
#591 = DEFINITIONAL_REPRESENTATION('',(#592),#596);
#592 = LINE('',#593,#594);
#593 = CARTESIAN_POINT('',(3.900620740213E-04,-41.20287228113));
#594 = VECTOR('',#595,1.);
#595 = DIRECTION('',(-9.466866080169E-06,0.999999999955));
#596 = ( GEOMETRIC_REPRESENTATION_CONTEXT(2) 
PARAMETRIC_REPRESENTATION_CONTEXT() REPRESENTATION_CONTEXT('2D SPACE',''
  ) );
#597 = PCURVE('',#598,#603);
#598 = PLANE('',#599);
#599 = AXIS2_PLACEMENT_3D('',#600,#601,#602);
#600 = CARTESIAN_POINT('',(26.638318702897,16.478969368209,
    25.839295336086));
#601 = DIRECTION('',(0.698933784917,5.500437287996E-04,0.715186172792));
#602 = DIRECTION('',(0.715186280981,3.632342246367E-20,-0.698933890648)
  );
#603 = DEFINITIONAL_REPRESENTATION('',(#604),#608);
#604 = LINE('',#605,#606);
#605 = CARTESIAN_POINT('',(5.839119885788,4.140417149457));
#606 = VECTOR('',#607,1.);
#607 = DIRECTION('',(5.773175683401E-04,-0.999999833352));
#608 = ( GEOMETRIC_REPRESENTATION_CONTEXT(2) 
PARAMETRIC_REPRESENTATION_CONTEXT() REPRESENTATION_CONTEXT('2D SPACE',''
  ) );
#609 = ADVANCED_FACE('',(#610),#240,.T.);
#610 = FACE_BOUND('',#611,.T.);
#611 = EDGE_LOOP('',(#612,#638,#639));
#612 = ORIENTED_EDGE('',*,*,#613,.F.);
#613 = EDGE_CURVE('',#284,#225,#614,.T.);
#614 = SURFACE_CURVE('',#615,(#619,#626),.PCURVE_S1.);
#615 = LINE('',#616,#617);
#616 = CARTESIAN_POINT('',(-26.62380941425,-16.45955400463,
    25.838647035114));
#617 = VECTOR('',#618,1.);
#618 = DIRECTION('',(0.994940765464,-7.139542157364E-02,
    -7.067932509923E-02));
#619 = PCURVE('',#240,#620);
#620 = DEFINITIONAL_REPRESENTATION('',(#621),#625);
#621 = LINE('',#622,#623);
#622 = CARTESIAN_POINT('',(5.802899828507,57.469450106857));
#623 = VECTOR('',#624,1.);
#624 = DIRECTION('',(-0.100462800239,-0.994940815209));
#625 = ( GEOMETRIC_REPRESENTATION_CONTEXT(2) 
PARAMETRIC_REPRESENTATION_CONTEXT() REPRESENTATION_CONTEXT('2D SPACE',''
  ) );
#626 = PCURVE('',#627,#632);
#627 = PLANE('',#628);
#628 = AXIS2_PLACEMENT_3D('',#629,#630,#631);
#629 = CARTESIAN_POINT('',(26.677006186421,-16.4312707907,
    25.843328819049));
#630 = DIRECTION('',(3.095494498565E-04,-0.701351862514,0.712815171785)
  );
#631 = DIRECTION('',(-9.101874977602E-22,0.712815205936,0.701351896116)
  );
#632 = DEFINITIONAL_REPRESENTATION('',(#633),#637);
#633 = LINE('',#634,#635);
#634 = CARTESIAN_POINT('',(-2.344428300055E-02,53.300818154336));
#635 = VECTOR('',#636,1.);
#636 = DIRECTION('',(-0.100462820806,-0.994940813132));
#637 = ( GEOMETRIC_REPRESENTATION_CONTEXT(2) 
PARAMETRIC_REPRESENTATION_CONTEXT() REPRESENTATION_CONTEXT('2D SPACE',''
  ) );
#638 = ORIENTED_EDGE('',*,*,#283,.F.);
#639 = ORIENTED_EDGE('',*,*,#224,.T.);
#640 = ADVANCED_FACE('',(#641),#627,.T.);
#641 = FACE_BOUND('',#642,.T.);
#642 = EDGE_LOOP('',(#643,#666,#667));
#643 = ORIENTED_EDGE('',*,*,#644,.F.);
#644 = EDGE_CURVE('',#284,#645,#647,.T.);
#645 = VERTEX_POINT('',#646);
#646 = CARTESIAN_POINT('',(26.677006186421,-16.4312707907,
    25.843328819049));
#647 = SURFACE_CURVE('',#648,(#652,#659),.PCURVE_S1.);
#648 = LINE('',#649,#650);
#649 = CARTESIAN_POINT('',(-26.62380941425,-16.45955400463,
    25.838647035114));
#650 = VECTOR('',#651,1.);
#651 = DIRECTION('',(0.999999855356,5.306337157881E-04,
    8.783699095795E-05));
#652 = PCURVE('',#627,#653);
#653 = DEFINITIONAL_REPRESENTATION('',(#654),#658);
#654 = LINE('',#655,#656);
#655 = CARTESIAN_POINT('',(-2.344428300055E-02,53.300818154336));
#656 = VECTOR('',#657,1.);
#657 = DIRECTION('',(4.398484215537E-04,-0.999999903267));
#658 = ( GEOMETRIC_REPRESENTATION_CONTEXT(2) 
PARAMETRIC_REPRESENTATION_CONTEXT() REPRESENTATION_CONTEXT('2D SPACE',''
  ) );
#659 = PCURVE('',#378,#660);
#660 = DEFINITIONAL_REPRESENTATION('',(#661),#665);
#661 = LINE('',#662,#663);
#662 = CARTESIAN_POINT('',(-2.828191944168E-02,53.300815806974));
#663 = VECTOR('',#664,1.);
#664 = DIRECTION('',(5.30609429371E-04,-0.999999859227));
#665 = ( GEOMETRIC_REPRESENTATION_CONTEXT(2) 
PARAMETRIC_REPRESENTATION_CONTEXT() REPRESENTATION_CONTEXT('2D SPACE',''
  ) );
#666 = ORIENTED_EDGE('',*,*,#613,.T.);
#667 = ORIENTED_EDGE('',*,*,#668,.F.);
#668 = EDGE_CURVE('',#645,#225,#669,.T.);
#669 = SURFACE_CURVE('',#670,(#674,#681),.PCURVE_S1.);
#670 = LINE('',#671,#672);
#671 = CARTESIAN_POINT('',(26.677006186421,-16.4312707907,
    25.843328819049));
#672 = VECTOR('',#673,1.);
#673 = DIRECTION('',(0.581880972868,-0.579587702634,-0.570519612608));
#674 = PCURVE('',#627,#675);
#675 = DEFINITIONAL_REPRESENTATION('',(#676),#680);
#676 = LINE('',#677,#678);
#677 = CARTESIAN_POINT('',(0.,0.));
#678 = VECTOR('',#679,1.);
#679 = DIRECTION('',(-0.813273939685,-0.581881000746));
#680 = ( GEOMETRIC_REPRESENTATION_CONTEXT(2) 
PARAMETRIC_REPRESENTATION_CONTEXT() REPRESENTATION_CONTEXT('2D SPACE',''
  ) );
#681 = PCURVE('',#682,#687);
#682 = PLANE('',#683);
#683 = AXIS2_PLACEMENT_3D('',#684,#685,#686);
#684 = CARTESIAN_POINT('',(26.638318702897,16.478969368209,
    25.839295336086));
#685 = DIRECTION('',(0.700563702262,9.110020702335E-04,0.713589286038));
#686 = DIRECTION('',(0.713589582151,7.6952145998E-21,-0.70056399297));
#687 = DEFINITIONAL_REPRESENTATION('',(#688),#692);
#688 = LINE('',#689,#690);
#689 = CARTESIAN_POINT('',(2.478127227209E-02,-32.91025381543));
#690 = VECTOR('',#691,1.);
#691 = DIRECTION('',(0.814909698166,-0.579587943141));
#692 = ( GEOMETRIC_REPRESENTATION_CONTEXT(2) 
PARAMETRIC_REPRESENTATION_CONTEXT() REPRESENTATION_CONTEXT('2D SPACE',''
  ) );
#693 = ADVANCED_FACE('',(#694),#378,.T.);
#694 = FACE_BOUND('',#695,.T.);
#695 = EDGE_LOOP('',(#696,#722,#723));
#696 = ORIENTED_EDGE('',*,*,#697,.F.);
#697 = EDGE_CURVE('',#336,#645,#698,.T.);
#698 = SURFACE_CURVE('',#699,(#703,#710),.PCURVE_S1.);
#699 = LINE('',#700,#701);
#700 = CARTESIAN_POINT('',(-26.65520096746,16.428610842583,
    25.829558468385));
#701 = VECTOR('',#702,1.);
#702 = DIRECTION('',(0.851372714215,-0.524561200593,2.198240321546E-04)
  );
#703 = PCURVE('',#378,#704);
#704 = DEFINITIONAL_REPRESENTATION('',(#705),#709);
#705 = LINE('',#706,#707);
#706 = CARTESIAN_POINT('',(32.859884183575,53.332207360309));
#707 = VECTOR('',#708,1.);
#708 = DIRECTION('',(-0.524561241305,-0.85137271751));
#709 = ( GEOMETRIC_REPRESENTATION_CONTEXT(2) 
PARAMETRIC_REPRESENTATION_CONTEXT() REPRESENTATION_CONTEXT('2D SPACE',''
  ) );
#710 = PCURVE('',#711,#716);
#711 = PLANE('',#712);
#712 = AXIS2_PLACEMENT_3D('',#713,#714,#715);
#713 = CARTESIAN_POINT('',(26.638318702897,16.478969368209,
    25.839295336086));
#714 = DIRECTION('',(-1.828182610087E-04,1.223452052503E-04,
    0.999999975805));
#715 = DIRECTION('',(0.999999983289,3.818410118532E-24,
    1.828182623769E-04));
#716 = DEFINITIONAL_REPRESENTATION('',(#717),#721);
#717 = LINE('',#718,#719);
#718 = CARTESIAN_POINT('',(-53.29352055983,-5.035852600321E-02));
#719 = VECTOR('',#720,1.);
#720 = DIRECTION('',(0.851372740175,-0.524561204519));
#721 = ( GEOMETRIC_REPRESENTATION_CONTEXT(2) 
PARAMETRIC_REPRESENTATION_CONTEXT() REPRESENTATION_CONTEXT('2D SPACE',''
  ) );
#722 = ORIENTED_EDGE('',*,*,#364,.T.);
#723 = ORIENTED_EDGE('',*,*,#644,.T.);
#724 = ADVANCED_FACE('',(#725),#711,.T.);
#725 = FACE_BOUND('',#726,.T.);
#726 = EDGE_LOOP('',(#727,#755,#756));
#727 = ORIENTED_EDGE('',*,*,#728,.F.);
#728 = EDGE_CURVE('',#336,#729,#731,.T.);
#729 = VERTEX_POINT('',#730);
#730 = CARTESIAN_POINT('',(26.638318702897,16.478969368209,
    25.839295336086));
#731 = SURFACE_CURVE('',#732,(#736,#743),.PCURVE_S1.);
#732 = LINE('',#733,#734);
#733 = CARTESIAN_POINT('',(-26.65520096746,16.428610842583,
    25.829558468385));
#734 = VECTOR('',#735,1.);
#735 = DIRECTION('',(0.999999536866,9.449273122709E-04,
    1.827025734339E-04));
#736 = PCURVE('',#711,#737);
#737 = DEFINITIONAL_REPRESENTATION('',(#738),#742);
#738 = LINE('',#739,#740);
#739 = CARTESIAN_POINT('',(-53.29352055983,-5.035852600321E-02));
#740 = VECTOR('',#741,1.);
#741 = DIRECTION('',(0.999999553556,9.449273193429E-04));
#742 = ( GEOMETRIC_REPRESENTATION_CONTEXT(2) 
PARAMETRIC_REPRESENTATION_CONTEXT() REPRESENTATION_CONTEXT('2D SPACE',''
  ) );
#743 = PCURVE('',#744,#749);
#744 = PLANE('',#745);
#745 = AXIS2_PLACEMENT_3D('',#746,#747,#748);
#746 = CARTESIAN_POINT('',(26.638318702897,16.478969368209,
    25.839295336086));
#747 = DIRECTION('',(-7.938684078034E-04,0.702539542176,0.711644266085)
  );
#748 = DIRECTION('',(2.137530133E-20,0.711644490334,-0.702539763556));
#749 = DEFINITIONAL_REPRESENTATION('',(#750),#754);
#750 = LINE('',#751,#752);
#751 = CARTESIAN_POINT('',(-2.899683057114E-02,53.293536463877));
#752 = VECTOR('',#753,1.);
#753 = DIRECTION('',(5.440964928021E-04,-0.999999851979));
#754 = ( GEOMETRIC_REPRESENTATION_CONTEXT(2) 
PARAMETRIC_REPRESENTATION_CONTEXT() REPRESENTATION_CONTEXT('2D SPACE',''
  ) );
#755 = ORIENTED_EDGE('',*,*,#697,.T.);
#756 = ORIENTED_EDGE('',*,*,#757,.F.);
#757 = EDGE_CURVE('',#729,#645,#758,.T.);
#758 = SURFACE_CURVE('',#759,(#763,#770),.PCURVE_S1.);
#759 = LINE('',#760,#761);
#760 = CARTESIAN_POINT('',(26.638318702897,16.478969368209,
    25.839295336086));
#761 = VECTOR('',#762,1.);
#762 = DIRECTION('',(1.175544642499E-03,-0.999999301537,
    1.225600337893E-04));
#763 = PCURVE('',#711,#764);
#764 = DEFINITIONAL_REPRESENTATION('',(#765),#769);
#765 = LINE('',#766,#767);
#766 = CARTESIAN_POINT('',(0.,0.));
#767 = VECTOR('',#768,1.);
#768 = DIRECTION('',(1.175567029066E-03,-0.999999309021));
#769 = ( GEOMETRIC_REPRESENTATION_CONTEXT(2) 
PARAMETRIC_REPRESENTATION_CONTEXT() REPRESENTATION_CONTEXT('2D SPACE',''
  ) );
#770 = PCURVE('',#682,#771);
#771 = DEFINITIONAL_REPRESENTATION('',(#772),#776);
#772 = LINE('',#773,#774);
#773 = CARTESIAN_POINT('',(0.,0.));
#774 = VECTOR('',#775,1.);
#775 = DIRECTION('',(7.529952635903E-04,-0.999999716499));
#776 = ( GEOMETRIC_REPRESENTATION_CONTEXT(2) 
PARAMETRIC_REPRESENTATION_CONTEXT() REPRESENTATION_CONTEXT('2D SPACE',''
  ) );
#777 = ADVANCED_FACE('',(#778),#351,.T.);
#778 = FACE_BOUND('',#779,.T.);
#779 = EDGE_LOOP('',(#780,#781,#782));
#780 = ORIENTED_EDGE('',*,*,#532,.F.);
#781 = ORIENTED_EDGE('',*,*,#335,.T.);
#782 = ORIENTED_EDGE('',*,*,#783,.T.);
#783 = EDGE_CURVE('',#336,#509,#784,.T.);
#784 = SURFACE_CURVE('',#785,(#789,#796),.PCURVE_S1.);
#785 = LINE('',#786,#787);
#786 = CARTESIAN_POINT('',(-26.65520096746,16.428610842583,
    25.829558468385));
#787 = VECTOR('',#788,1.);
#788 = DIRECTION('',(0.994869189063,7.254948779948E-02,
    -7.051147759644E-02));
#789 = PCURVE('',#351,#790);
#790 = DEFINITIONAL_REPRESENTATION('',(#791),#795);
#791 = LINE('',#792,#793);
#792 = CARTESIAN_POINT('',(-5.843684833519,57.468018407248));
#793 = VECTOR('',#794,1.);
#794 = DIRECTION('',(0.101164184811,-0.994869744093));
#795 = ( GEOMETRIC_REPRESENTATION_CONTEXT(2) 
PARAMETRIC_REPRESENTATION_CONTEXT() REPRESENTATION_CONTEXT('2D SPACE',''
  ) );
#796 = PCURVE('',#744,#797);
#797 = DEFINITIONAL_REPRESENTATION('',(#798),#802);
#798 = LINE('',#799,#800);
#799 = CARTESIAN_POINT('',(-2.899683057114E-02,53.293536463877));
#800 = VECTOR('',#801,1.);
#801 = DIRECTION('',(0.101166560068,-0.99486950256));
#802 = ( GEOMETRIC_REPRESENTATION_CONTEXT(2) 
PARAMETRIC_REPRESENTATION_CONTEXT() REPRESENTATION_CONTEXT('2D SPACE',''
  ) );
#803 = ADVANCED_FACE('',(#804),#744,.T.);
#804 = FACE_BOUND('',#805,.T.);
#805 = EDGE_LOOP('',(#806,#827,#828));
#806 = ORIENTED_EDGE('',*,*,#807,.T.);
#807 = EDGE_CURVE('',#729,#509,#808,.T.);
#808 = SURFACE_CURVE('',#809,(#813,#820),.PCURVE_S1.);
#809 = LINE('',#810,#811);
#810 = CARTESIAN_POINT('',(26.638318702897,16.478969368209,
    25.839295336086));
#811 = VECTOR('',#812,1.);
#812 = DIRECTION('',(0.58318094283,0.578424071648,-0.570373194723));
#813 = PCURVE('',#744,#814);
#814 = DEFINITIONAL_REPRESENTATION('',(#815),#819);
#815 = LINE('',#816,#817);
#816 = CARTESIAN_POINT('',(0.,-0.));
#817 = VECTOR('',#818,1.);
#818 = DIRECTION('',(0.812342153024,-0.583181126598));
#819 = ( GEOMETRIC_REPRESENTATION_CONTEXT(2) 
PARAMETRIC_REPRESENTATION_CONTEXT() REPRESENTATION_CONTEXT('2D SPACE',''
  ) );
#820 = PCURVE('',#598,#821);
#821 = DEFINITIONAL_REPRESENTATION('',(#822),#826);
#822 = LINE('',#823,#824);
#823 = CARTESIAN_POINT('',(0.,0.));
#824 = VECTOR('',#825,1.);
#825 = DIRECTION('',(0.81573616575,0.578424159149));
#826 = ( GEOMETRIC_REPRESENTATION_CONTEXT(2) 
PARAMETRIC_REPRESENTATION_CONTEXT() REPRESENTATION_CONTEXT('2D SPACE',''
  ) );
#827 = ORIENTED_EDGE('',*,*,#783,.F.);
#828 = ORIENTED_EDGE('',*,*,#728,.T.);
#829 = ADVANCED_FACE('',(#830),#682,.T.);
#830 = FACE_BOUND('',#831,.T.);
#831 = EDGE_LOOP('',(#832,#833,#834));
#832 = ORIENTED_EDGE('',*,*,#757,.T.);
#833 = ORIENTED_EDGE('',*,*,#668,.T.);
#834 = ORIENTED_EDGE('',*,*,#835,.F.);
#835 = EDGE_CURVE('',#729,#225,#836,.T.);
#836 = SURFACE_CURVE('',#837,(#841,#848),.PCURVE_S1.);
#837 = LINE('',#838,#839);
#838 = CARTESIAN_POINT('',(26.638318702897,16.478969368209,
    25.839295336086));
#839 = VECTOR('',#840,1.);
#840 = DIRECTION('',(0.11212548095,-0.98771785395,-0.108817817983));
#841 = PCURVE('',#682,#842);
#842 = DEFINITIONAL_REPRESENTATION('',(#843),#847);
#843 = LINE('',#844,#845);
#844 = CARTESIAN_POINT('',(0.,0.));
#845 = VECTOR('',#846,1.);
#846 = DIRECTION('',(0.156245420172,-0.987718263816));
#847 = ( GEOMETRIC_REPRESENTATION_CONTEXT(2) 
PARAMETRIC_REPRESENTATION_CONTEXT() REPRESENTATION_CONTEXT('2D SPACE',''
  ) );
#848 = PCURVE('',#598,#849);
#849 = DEFINITIONAL_REPRESENTATION('',(#850),#854);
#850 = LINE('',#851,#852);
#851 = CARTESIAN_POINT('',(0.,0.));
#852 = VECTOR('',#853,1.);
#853 = DIRECTION('',(0.156247066618,-0.987718003366));
#854 = ( GEOMETRIC_REPRESENTATION_CONTEXT(2) 
PARAMETRIC_REPRESENTATION_CONTEXT() REPRESENTATION_CONTEXT('2D SPACE',''
  ) );
#855 = ADVANCED_FACE('',(#856),#598,.T.);
#856 = FACE_BOUND('',#857,.T.);
#857 = EDGE_LOOP('',(#858,#859,#860));
#858 = ORIENTED_EDGE('',*,*,#835,.T.);
#859 = ORIENTED_EDGE('',*,*,#584,.F.);
#860 = ORIENTED_EDGE('',*,*,#807,.F.);
#861 = ( GEOMETRIC_REPRESENTATION_CONTEXT(3) 
GLOBAL_UNCERTAINTY_ASSIGNED_CONTEXT((#865)) GLOBAL_UNIT_ASSIGNED_CONTEXT
((#862,#863,#864)) REPRESENTATION_CONTEXT('Context #1',
  '3D Context with UNIT and UNCERTAINTY') );
#862 = ( LENGTH_UNIT() NAMED_UNIT(*) SI_UNIT(.MILLI.,.METRE.) );
#863 = ( NAMED_UNIT(*) PLANE_ANGLE_UNIT() SI_UNIT($,.RADIAN.) );
#864 = ( NAMED_UNIT(*) SI_UNIT($,.STERADIAN.) SOLID_ANGLE_UNIT() );
#865 = UNCERTAINTY_MEASURE_WITH_UNIT(LENGTH_MEASURE(1.E-07),#862,
  'distance_accuracy_value','confusion accuracy');
#866 = PRODUCT_TYPE('part',$,(#7));
ENDSEC;
END-ISO-10303-21;
