ISO-10303-21;
HEADER;
FILE_DESCRIPTION(('Open CASCADE Model'),'2;1');
FILE_NAME('Open CASCADE Shape Model','2026-10-04T20:48:00',('Author'),(
    'Open CASCADE'),'Open CASCADE STEP processor 7.8','Open CASCADE 7.8'
  ,'Unknown');
FILE_SCHEMA(('AUTOMOTIVE_DESIGN_CC2 { 1 2 10303 214 -1 1 5 4 }'));
ENDSEC;
DATA;
#1 = APPLICATION_PROTOCOL_DEFINITION('committee draft',
  'automotive_design',1997,#2);
#2 = APPLICATION_CONTEXT(
  'core data for automotive mechanical design processes');
#3 = SHAPE_DEFINITION_REPRESENTATION(#4,#10);
#4 = PRODUCT_DEFINITION_SHAPE('','',#5);
#5 = PRODUCT_DEFINITION('design','',#6,#9);
#6 = PRODUCT_DEFINITION_FORMATION('','',#7);
#7 = PRODUCT('Open CASCADE STEP translator 7.8 69',
  'Open CASCADE STEP translator 7.8 69','',(#8));
#8 = MECHANICAL_CONTEXT('',#2,'mechanical');
#9 = PRODUCT_DEFINITION_CONTEXT('part definition',#2,'design');
#10 = ADVANCED_BREP_SHAPE_REPRESENTATION('',(#11,#15),#1029);
#11 = AXIS2_PLACEMENT_3D('',#12,#13,#14);
#12 = CARTESIAN_POINT('',(0.,0.,0.));
#13 = DIRECTION('',(0.,0.,1.));
#14 = DIRECTION('',(1.,0.,-0.));
#15 = MANIFOLD_SOLID_BREP('',#16);
#16 = CLOSED_SHELL('',(#17,#109,#167,#225,#283,#341,#394,#452,#505,#536,
    #587,#618,#671,#697,#723,#749,#775,#781,#834,#887,#918,#971,#997,
    #1023));
#17 = ADVANCED_FACE('',(#18),#32,.T.);
#18 = FACE_BOUND('',#19,.T.);
#19 = EDGE_LOOP('',(#20,#55,#83));
#20 = ORIENTED_EDGE('',*,*,#21,.F.);
#21 = EDGE_CURVE('',#22,#24,#26,.T.);
#22 = VERTEX_POINT('',#23);
#23 = CARTESIAN_POINT('',(-43.13240974944,40.293642346178,
    13.259514772568));
#24 = VERTEX_POINT('',#25);
#25 = CARTESIAN_POINT('',(52.243187140669,43.270503678005,
    13.226567426784));
#26 = SURFACE_CURVE('',#27,(#31,#43),.PCURVE_S1.);
#27 = LINE('',#28,#29);
#28 = CARTESIAN_POINT('',(-43.13240974944,40.293642346178,
    13.259514772568));
#29 = VECTOR('',#30,1.);
#30 = DIRECTION('',(0.999513202138,3.119678721931E-02,
    -3.452802200976E-04));
#31 = PCURVE('',#32,#37);
#32 = PLANE('',#33);
#33 = AXIS2_PLACEMENT_3D('',#34,#35,#36);
#34 = CARTESIAN_POINT('',(52.243187140669,43.270503678005,
    13.226567426784));
#35 = DIRECTION('',(9.615682303428E-04,-1.974201281523E-02,
    0.999804645076));
#36 = DIRECTION('',(1.358065620803E-21,0.999805107293,1.974202194211E-02
    ));
#37 = DEFINITIONAL_REPRESENTATION('',(#38),#42);
#38 = LINE('',#39,#40);
#39 = CARTESIAN_POINT('',(-2.975630716041,95.375640982921));
#40 = VECTOR('',#41,1.);
#41 = DIRECTION('',(3.118389066333E-02,-0.99951366422));
#42 = ( GEOMETRIC_REPRESENTATION_CONTEXT(2) 
PARAMETRIC_REPRESENTATION_CONTEXT() REPRESENTATION_CONTEXT('2D SPACE',''
  ) );
#43 = PCURVE('',#44,#49);
#44 = PLANE('',#45);
#45 = AXIS2_PLACEMENT_3D('',#46,#47,#48);
#46 = CARTESIAN_POINT('',(52.243187140669,43.270503678005,
    13.226567426784));
#47 = DIRECTION('',(-7.967190332992E-05,1.3619393276E-02,0.999907248588)
  );
#48 = DIRECTION('',(6.359799726836E-24,0.999907251762,
    -1.361939331922E-02));
#49 = DEFINITIONAL_REPRESENTATION('',(#50),#54);
#50 = LINE('',#51,#52);
#51 = CARTESIAN_POINT('',(-2.977033956044,95.375597192813));
#52 = VECTOR('',#53,1.);
#53 = DIRECTION('',(3.119859627938E-02,-0.999513205311));
#54 = ( GEOMETRIC_REPRESENTATION_CONTEXT(2) 
PARAMETRIC_REPRESENTATION_CONTEXT() REPRESENTATION_CONTEXT('2D SPACE',''
  ) );
#55 = ORIENTED_EDGE('',*,*,#56,.T.);
#56 = EDGE_CURVE('',#22,#57,#59,.T.);
#57 = VERTEX_POINT('',#58);
#58 = CARTESIAN_POINT('',(-42.28675073144,39.186307748135,13.23683616952
    ));
#59 = SURFACE_CURVE('',#60,(#64,#71),.PCURVE_S1.);
#60 = LINE('',#61,#62);
#61 = CARTESIAN_POINT('',(-43.13240974944,40.293642346178,
    13.259514772568));
#62 = VECTOR('',#63,1.);
#63 = DIRECTION('',(0.606859538089,-0.794642460354,-1.627455780295E-02)
  );
#64 = PCURVE('',#32,#65);
#65 = DEFINITIONAL_REPRESENTATION('',(#66),#70);
#66 = LINE('',#67,#68);
#67 = CARTESIAN_POINT('',(-2.975630716041,95.375640982921));
#68 = VECTOR('',#69,1.);
#69 = DIRECTION('',(-0.794808883012,-0.606859818645));
#70 = ( GEOMETRIC_REPRESENTATION_CONTEXT(2) 
PARAMETRIC_REPRESENTATION_CONTEXT() REPRESENTATION_CONTEXT('2D SPACE',''
  ) );
#71 = PCURVE('',#72,#77);
#72 = PLANE('',#73);
#73 = AXIS2_PLACEMENT_3D('',#74,#75,#76);
#74 = CARTESIAN_POINT('',(-42.27726802249,39.143676530502,
    20.436974837079));
#75 = DIRECTION('',(0.794770297068,0.606905008437,2.546690408441E-03));
#76 = DIRECTION('',(-0.606906976528,0.794772874375,1.897633930404E-19));
#77 = DEFINITIONAL_REPRESENTATION('',(#78),#82);
#78 = LINE('',#79,#80);
#79 = CARTESIAN_POINT('',(1.432953116763,-7.177483339807));
#80 = VECTOR('',#81,1.);
#81 = DIRECTION('',(-0.999867559755,-1.62746105786E-02));
#82 = ( GEOMETRIC_REPRESENTATION_CONTEXT(2) 
PARAMETRIC_REPRESENTATION_CONTEXT() REPRESENTATION_CONTEXT('2D SPACE',''
  ) );
#83 = ORIENTED_EDGE('',*,*,#84,.T.);
#84 = EDGE_CURVE('',#57,#24,#85,.T.);
#85 = SURFACE_CURVE('',#86,(#90,#97),.PCURVE_S1.);
#86 = LINE('',#87,#88);
#87 = CARTESIAN_POINT('',(-42.28675073144,39.186307748135,13.23683616952
    ));
#88 = VECTOR('',#89,1.);
#89 = DIRECTION('',(0.999067949092,4.316504742512E-02,
    -1.085282818977E-04));
#90 = PCURVE('',#32,#91);
#91 = DEFINITIONAL_REPRESENTATION('',(#92),#96);
#92 = LINE('',#93,#94);
#93 = CARTESIAN_POINT('',(-4.083197224126,94.529981573974));
#94 = VECTOR('',#95,1.);
#95 = DIRECTION('',(4.315449230447E-02,-0.999068410968));
#96 = ( GEOMETRIC_REPRESENTATION_CONTEXT(2) 
PARAMETRIC_REPRESENTATION_CONTEXT() REPRESENTATION_CONTEXT('2D SPACE',''
  ) );
#97 = PCURVE('',#98,#103);
#98 = PLANE('',#99);
#99 = AXIS2_PLACEMENT_3D('',#100,#101,#102);
#100 = CARTESIAN_POINT('',(52.243187140669,43.270503678005,
    13.226567426784));
#101 = DIRECTION('',(1.063415526226E-04,5.295590729644E-05,
    0.999999992944));
#102 = DIRECTION('',(0.999999994346,5.6538061263E-25,-1.063415527718E-04
    ));
#103 = DEFINITIONAL_REPRESENTATION('',(#104),#108);
#104 = LINE('',#105,#106);
#105 = CARTESIAN_POINT('',(-94.52993842961,-4.084195935596));
#106 = VECTOR('',#107,1.);
#107 = DIRECTION('',(0.999067954984,4.316504748565E-02));
#108 = ( GEOMETRIC_REPRESENTATION_CONTEXT(2) 
PARAMETRIC_REPRESENTATION_CONTEXT() REPRESENTATION_CONTEXT('2D SPACE',''
  ) );
#109 = ADVANCED_FACE('',(#110),#98,.T.);
#110 = FACE_BOUND('',#111,.T.);
#111 = EDGE_LOOP('',(#112,#113,#141));
#112 = ORIENTED_EDGE('',*,*,#84,.F.);
#113 = ORIENTED_EDGE('',*,*,#114,.T.);
#114 = EDGE_CURVE('',#57,#115,#117,.T.);
#115 = VERTEX_POINT('',#116);
#116 = CARTESIAN_POINT('',(52.16168191902,-43.2933477905,13.231160161502
    ));
#117 = SURFACE_CURVE('',#118,(#122,#129),.PCURVE_S1.);
#118 = LINE('',#119,#120);
#119 = CARTESIAN_POINT('',(-42.28675073144,39.186307748135,
    13.23683616952));
#120 = VECTOR('',#121,1.);
#121 = DIRECTION('',(0.753219445202,-0.657769310108,-4.526575497927E-05)
  );
#122 = PCURVE('',#98,#123);
#123 = DEFINITIONAL_REPRESENTATION('',(#124),#128);
#124 = LINE('',#125,#126);
#125 = CARTESIAN_POINT('',(-94.52993842961,-4.084195935596));
#126 = VECTOR('',#127,1.);
#127 = DIRECTION('',(0.753219445757,-0.65776931103));
#128 = ( GEOMETRIC_REPRESENTATION_CONTEXT(2) 
PARAMETRIC_REPRESENTATION_CONTEXT() REPRESENTATION_CONTEXT('2D SPACE',''
  ) );
#129 = PCURVE('',#130,#135);
#130 = PLANE('',#131);
#131 = AXIS2_PLACEMENT_3D('',#132,#133,#134);
#132 = CARTESIAN_POINT('',(52.16168191902,-43.2933477905,13.231160161502
    ));
#133 = DIRECTION('',(-2.310240902551E-04,-3.333654899623E-04,
    0.999999917748));
#134 = DIRECTION('',(-1.784652346971E-23,0.999999944434,
    3.333654988585E-04));
#135 = DEFINITIONAL_REPRESENTATION('',(#136),#140);
#136 = LINE('',#137,#138);
#137 = CARTESIAN_POINT('',(82.479652847737,94.448435170925));
#138 = VECTOR('',#139,1.);
#139 = DIRECTION('',(-0.657769288648,-0.753219465303));
#140 = ( GEOMETRIC_REPRESENTATION_CONTEXT(2) 
PARAMETRIC_REPRESENTATION_CONTEXT() REPRESENTATION_CONTEXT('2D SPACE',''
  ) );
#141 = ORIENTED_EDGE('',*,*,#142,.T.);
#142 = EDGE_CURVE('',#115,#24,#143,.T.);
#143 = SURFACE_CURVE('',#144,(#148,#155),.PCURVE_S1.);
#144 = LINE('',#145,#146);
#145 = CARTESIAN_POINT('',(52.16168191902,-43.2933477905,13.231160161502
    ));
#146 = VECTOR('',#147,1.);
#147 = DIRECTION('',(9.415614488413E-04,0.999999555323,
    -5.305601122893E-05));
#148 = PCURVE('',#98,#149);
#149 = DEFINITIONAL_REPRESENTATION('',(#150),#154);
#150 = LINE('',#151,#152);
#151 = CARTESIAN_POINT('',(-8.150570958712E-02,-86.56385158988));
#152 = VECTOR('',#153,1.);
#153 = DIRECTION('',(9.41567085576E-04,0.999999556726));
#154 = ( GEOMETRIC_REPRESENTATION_CONTEXT(2) 
PARAMETRIC_REPRESENTATION_CONTEXT() REPRESENTATION_CONTEXT('2D SPACE',''
  ) );
#155 = PCURVE('',#156,#161);
#156 = PLANE('',#157);
#157 = AXIS2_PLACEMENT_3D('',#158,#159,#160);
#158 = CARTESIAN_POINT('',(52.16168191902,-43.2933477905,13.231160161502
    ));
#159 = DIRECTION('',(0.999994208483,-9.417299340236E-04,
    -3.270496264119E-03));
#160 = DIRECTION('',(3.270497714349E-03,2.895890973076E-22,
    0.999994651908));
#161 = DEFINITIONAL_REPRESENTATION('',(#162),#166);
#162 = LINE('',#163,#164);
#163 = CARTESIAN_POINT('',(0.,0.));
#164 = VECTOR('',#165,1.);
#165 = DIRECTION('',(-4.997635291415E-05,-0.999999998751));
#166 = ( GEOMETRIC_REPRESENTATION_CONTEXT(2) 
PARAMETRIC_REPRESENTATION_CONTEXT() REPRESENTATION_CONTEXT('2D SPACE',''
  ) );
#167 = ADVANCED_FACE('',(#168),#130,.T.);
#168 = FACE_BOUND('',#169,.T.);
#169 = EDGE_LOOP('',(#170,#171,#199));
#170 = ORIENTED_EDGE('',*,*,#114,.F.);
#171 = ORIENTED_EDGE('',*,*,#172,.F.);
#172 = EDGE_CURVE('',#173,#57,#175,.T.);
#173 = VERTEX_POINT('',#174);
#174 = CARTESIAN_POINT('',(-52.17167479045,-43.24308479736,
    13.207073396651));
#175 = SURFACE_CURVE('',#176,(#180,#187),.PCURVE_S1.);
#176 = LINE('',#177,#178);
#177 = CARTESIAN_POINT('',(-52.17167479045,-43.24308479736,
    13.207073396651));
#178 = VECTOR('',#179,1.);
#179 = DIRECTION('',(0.119066806016,0.992886180376,3.585013180249E-04));
#180 = PCURVE('',#130,#181);
#181 = DEFINITIONAL_REPRESENTATION('',(#182),#186);
#182 = LINE('',#183,#184);
#183 = CARTESIAN_POINT('',(5.025496065236E-02,104.33335949372));
#184 = VECTOR('',#185,1.);
#185 = DIRECTION('',(0.992886244717,-0.119066809194));
#186 = ( GEOMETRIC_REPRESENTATION_CONTEXT(2) 
PARAMETRIC_REPRESENTATION_CONTEXT() REPRESENTATION_CONTEXT('2D SPACE',''
  ) );
#187 = PCURVE('',#188,#193);
#188 = PLANE('',#189);
#189 = AXIS2_PLACEMENT_3D('',#190,#191,#192);
#190 = CARTESIAN_POINT('',(-42.28675073144,39.186307748135,
    13.23683616952));
#191 = DIRECTION('',(-2.153994753052E-02,2.222082995556E-03,
    0.999765519013));
#192 = DIRECTION('',(0.99976798727,-5.089328181004E-22,
    2.154000070911E-02));
#193 = DEFINITIONAL_REPRESENTATION('',(#194),#198);
#194 = LINE('',#195,#196);
#195 = CARTESIAN_POINT('',(-9.88327172094,-82.42959605011));
#196 = VECTOR('',#197,1.);
#197 = DIRECTION('',(0.11904690312,0.992888631649));
#198 = ( GEOMETRIC_REPRESENTATION_CONTEXT(2) 
PARAMETRIC_REPRESENTATION_CONTEXT() REPRESENTATION_CONTEXT('2D SPACE',''
  ) );
#199 = ORIENTED_EDGE('',*,*,#200,.T.);
#200 = EDGE_CURVE('',#173,#115,#201,.T.);
#201 = SURFACE_CURVE('',#202,(#206,#213),.PCURVE_S1.);
#202 = LINE('',#203,#204);
#203 = CARTESIAN_POINT('',(-52.17167479045,-43.24308479736,
    13.207073396651));
#204 = VECTOR('',#205,1.);
#205 = DIRECTION('',(0.999999857308,-4.817537511947E-04,
    2.308634762035E-04));
#206 = PCURVE('',#130,#207);
#207 = DEFINITIONAL_REPRESENTATION('',(#208),#212);
#208 = LINE('',#209,#210);
#209 = CARTESIAN_POINT('',(5.025496065236E-02,104.33335949372));
#210 = VECTOR('',#211,1.);
#211 = DIRECTION('',(-4.816767625075E-04,-0.999999883994));
#212 = ( GEOMETRIC_REPRESENTATION_CONTEXT(2) 
PARAMETRIC_REPRESENTATION_CONTEXT() REPRESENTATION_CONTEXT('2D SPACE',''
  ) );
#213 = PCURVE('',#214,#219);
#214 = PLANE('',#215);
#215 = AXIS2_PLACEMENT_3D('',#216,#217,#218);
#216 = CARTESIAN_POINT('',(52.16168191902,-43.2933477905,13.231160161502
    ));
#217 = DIRECTION('',(-4.813982825208E-04,-0.999998702442,
    -1.537325298508E-03));
#218 = DIRECTION('',(-2.63969155674E-23,1.537325476641E-03,
    -0.999998818314));
#219 = DEFINITIONAL_REPRESENTATION('',(#220),#224);
#220 = LINE('',#221,#222);
#221 = CARTESIAN_POINT('',(2.416400696783E-02,-104.3333687988));
#222 = VECTOR('',#223,1.);
#223 = DIRECTION('',(-2.316038157106E-04,0.99999997318));
#224 = ( GEOMETRIC_REPRESENTATION_CONTEXT(2) 
PARAMETRIC_REPRESENTATION_CONTEXT() REPRESENTATION_CONTEXT('2D SPACE',''
  ) );
#225 = ADVANCED_FACE('',(#226),#214,.T.);
#226 = FACE_BOUND('',#227,.T.);
#227 = EDGE_LOOP('',(#228,#229,#257));
#228 = ORIENTED_EDGE('',*,*,#200,.F.);
#229 = ORIENTED_EDGE('',*,*,#230,.T.);
#230 = EDGE_CURVE('',#173,#231,#233,.T.);
#231 = VERTEX_POINT('',#232);
#232 = CARTESIAN_POINT('',(52.196170370694,-43.2730955345,
    4.668162663925E-02));
#233 = SURFACE_CURVE('',#234,(#238,#245),.PCURVE_S1.);
#234 = LINE('',#235,#236);
#235 = CARTESIAN_POINT('',(-52.17167479045,-43.24308479736,
    13.207073396651));
#236 = VECTOR('',#237,1.);
#237 = DIRECTION('',(0.992143397921,-2.85288583658E-04,-0.125105541736)
  );
#238 = PCURVE('',#214,#239);
#239 = DEFINITIONAL_REPRESENTATION('',(#240),#244);
#240 = LINE('',#241,#242);
#241 = CARTESIAN_POINT('',(2.416400696783E-02,-104.3333687988));
#242 = VECTOR('',#243,1.);
#243 = DIRECTION('',(0.125104955319,0.992143512882));
#244 = ( GEOMETRIC_REPRESENTATION_CONTEXT(2) 
PARAMETRIC_REPRESENTATION_CONTEXT() REPRESENTATION_CONTEXT('2D SPACE',''
  ) );
#245 = PCURVE('',#246,#251);
#246 = PLANE('',#247);
#247 = AXIS2_PLACEMENT_3D('',#248,#249,#250);
#248 = CARTESIAN_POINT('',(52.196170370694,-43.2730955345,
    4.668162663925E-02));
#249 = DIRECTION('',(-1.59825693786E-04,-0.999999474252,
    1.012892194881E-03));
#250 = DIRECTION('',(-1.572137246915E-23,-1.012892207818E-03,
    -0.999999487025));
#251 = DEFINITIONAL_REPRESENTATION('',(#252),#256);
#252 = LINE('',#253,#254);
#253 = CARTESIAN_POINT('',(-13.16041541669,-104.3678464941));
#254 = VECTOR('',#255,1.);
#255 = DIRECTION('',(0.125105766526,0.992143410592));
#256 = ( GEOMETRIC_REPRESENTATION_CONTEXT(2) 
PARAMETRIC_REPRESENTATION_CONTEXT() REPRESENTATION_CONTEXT('2D SPACE',''
  ) );
#257 = ORIENTED_EDGE('',*,*,#258,.F.);
#258 = EDGE_CURVE('',#115,#231,#259,.T.);
#259 = SURFACE_CURVE('',#260,(#264,#271),.PCURVE_S1.);
#260 = LINE('',#261,#262);
#261 = CARTESIAN_POINT('',(52.16168191902,-43.2933477905,13.231160161502
    ));
#262 = VECTOR('',#263,1.);
#263 = DIRECTION('',(2.615825335875E-03,1.536060964541E-03,
    -0.999995398977));
#264 = PCURVE('',#214,#265);
#265 = DEFINITIONAL_REPRESENTATION('',(#266),#270);
#266 = LINE('',#267,#268);
#267 = CARTESIAN_POINT('',(0.,0.));
#268 = VECTOR('',#269,1.);
#269 = DIRECTION('',(0.999996578722,2.615825638976E-03));
#270 = ( GEOMETRIC_REPRESENTATION_CONTEXT(2) 
PARAMETRIC_REPRESENTATION_CONTEXT() REPRESENTATION_CONTEXT('2D SPACE',''
  ) );
#271 = PCURVE('',#272,#277);
#272 = PLANE('',#273);
#273 = AXIS2_PLACEMENT_3D('',#274,#275,#276);
#274 = CARTESIAN_POINT('',(52.16168191902,-43.2933477905,13.231160161502
    ));
#275 = DIRECTION('',(0.999996577983,-4.250190391095E-05,
    2.615763134147E-03));
#276 = DIRECTION('',(-2.615763136509E-03,-1.263502186538E-23,
    0.999996578886));
#277 = DEFINITIONAL_REPRESENTATION('',(#278),#282);
#278 = LINE('',#279,#280);
#279 = CARTESIAN_POINT('',(0.,-0.));
#280 = VECTOR('',#281,1.);
#281 = DIRECTION('',(-0.999998820258,-1.536060965929E-03));
#282 = ( GEOMETRIC_REPRESENTATION_CONTEXT(2) 
PARAMETRIC_REPRESENTATION_CONTEXT() REPRESENTATION_CONTEXT('2D SPACE',''
  ) );
#283 = ADVANCED_FACE('',(#284),#246,.T.);
#284 = FACE_BOUND('',#285,.T.);
#285 = EDGE_LOOP('',(#286,#287,#315));
#286 = ORIENTED_EDGE('',*,*,#230,.F.);
#287 = ORIENTED_EDGE('',*,*,#288,.F.);
#288 = EDGE_CURVE('',#289,#173,#291,.T.);
#289 = VERTEX_POINT('',#290);
#290 = CARTESIAN_POINT('',(-52.21926732431,-43.25647979833,
    -2.4937380261E-02));
#291 = SURFACE_CURVE('',#292,(#296,#303),.PCURVE_S1.);
#292 = LINE('',#293,#294);
#293 = CARTESIAN_POINT('',(-52.21926732431,-43.25647979833,
    -2.4937380261E-02));
#294 = VECTOR('',#295,1.);
#295 = DIRECTION('',(3.596747495587E-03,1.012310803733E-03,
    0.999993019293));
#296 = PCURVE('',#246,#297);
#297 = DEFINITIONAL_REPRESENTATION('',(#298),#302);
#298 = LINE('',#299,#300);
#299 = CARTESIAN_POINT('',(7.160214021176E-02,-104.4154390286));
#300 = VECTOR('',#301,1.);
#301 = DIRECTION('',(-0.999993531683,3.596747541525E-03));
#302 = ( GEOMETRIC_REPRESENTATION_CONTEXT(2) 
PARAMETRIC_REPRESENTATION_CONTEXT() REPRESENTATION_CONTEXT('2D SPACE',''
  ) );
#303 = PCURVE('',#304,#309);
#304 = PLANE('',#305);
#305 = AXIS2_PLACEMENT_3D('',#306,#307,#308);
#306 = CARTESIAN_POINT('',(-52.17167479045,-43.24308479736,
    13.207073396651));
#307 = DIRECTION('',(-0.999993529442,-6.330972638928E-05,
    3.596813420044E-03));
#308 = DIRECTION('',(-3.596813427252E-03,8.523102918275E-24,
    -0.999993531446));
#309 = DEFINITIONAL_REPRESENTATION('',(#310),#314);
#310 = LINE('',#311,#312);
#311 = CARTESIAN_POINT('',(13.232096366396,1.339500099801E-02));
#312 = VECTOR('',#313,1.);
#313 = DIRECTION('',(-0.999999487613,-1.012310805762E-03));
#314 = ( GEOMETRIC_REPRESENTATION_CONTEXT(2) 
PARAMETRIC_REPRESENTATION_CONTEXT() REPRESENTATION_CONTEXT('2D SPACE',''
  ) );
#315 = ORIENTED_EDGE('',*,*,#316,.T.);
#316 = EDGE_CURVE('',#289,#231,#317,.T.);
#317 = SURFACE_CURVE('',#318,(#322,#329),.PCURVE_S1.);
#318 = LINE('',#319,#320);
#319 = CARTESIAN_POINT('',(-52.21926732431,-43.25647979833,
    -2.4937380261E-02));
#320 = VECTOR('',#321,1.);
#321 = DIRECTION('',(0.999999752106,-1.591309908E-04,6.859042180673E-04)
  );
#322 = PCURVE('',#246,#323);
#323 = DEFINITIONAL_REPRESENTATION('',(#324),#328);
#324 = LINE('',#325,#326);
#325 = CARTESIAN_POINT('',(7.160214021176E-02,-104.4154390286));
#326 = VECTOR('',#327,1.);
#327 = DIRECTION('',(-6.857426836747E-04,0.999999764878));
#328 = ( GEOMETRIC_REPRESENTATION_CONTEXT(2) 
PARAMETRIC_REPRESENTATION_CONTEXT() REPRESENTATION_CONTEXT('2D SPACE',''
  ) );
#329 = PCURVE('',#330,#335);
#330 = PLANE('',#331);
#331 = AXIS2_PLACEMENT_3D('',#332,#333,#334);
#332 = CARTESIAN_POINT('',(52.196170370694,-43.2730955345,
    4.668162663925E-02));
#333 = DIRECTION('',(6.859895496465E-04,5.368013916403E-04,
    -0.999999620631));
#334 = DIRECTION('',(-0.999999764709,3.163144560463E-23,
    -6.859896484824E-04));
#335 = DEFINITIONAL_REPRESENTATION('',(#336),#340);
#336 = LINE('',#337,#338);
#337 = CARTESIAN_POINT('',(104.41546225689,1.661573856812E-02));
#338 = VECTOR('',#339,1.);
#339 = DIRECTION('',(-0.999999987339,-1.591310137273E-04));
#340 = ( GEOMETRIC_REPRESENTATION_CONTEXT(2) 
PARAMETRIC_REPRESENTATION_CONTEXT() REPRESENTATION_CONTEXT('2D SPACE',''
  ) );
#341 = ADVANCED_FACE('',(#342),#304,.T.);
#342 = FACE_BOUND('',#343,.T.);
#343 = EDGE_LOOP('',(#344,#372,#393));
#344 = ORIENTED_EDGE('',*,*,#345,.F.);
#345 = EDGE_CURVE('',#346,#173,#348,.T.);
#346 = VERTEX_POINT('',#347);
#347 = CARTESIAN_POINT('',(-52.22458093393,43.313297414379,
    2.152976916829E-02));
#348 = SURFACE_CURVE('',#349,(#353,#360),.PCURVE_S1.);
#349 = LINE('',#350,#351);
#350 = CARTESIAN_POINT('',(-52.22458093393,43.313297414379,
    2.152976916829E-02));
#351 = VECTOR('',#352,1.);
#352 = DIRECTION('',(6.042621870687E-04,-0.988594998282,0.150597358007)
  );
#353 = PCURVE('',#304,#354);
#354 = DEFINITIONAL_REPRESENTATION('',(#355),#359);
#355 = LINE('',#356,#357);
#356 = CARTESIAN_POINT('',(13.185648629605,-86.5563823852));
#357 = VECTOR('',#358,1.);
#358 = DIRECTION('',(-0.150598557278,0.988595000263));
#359 = ( GEOMETRIC_REPRESENTATION_CONTEXT(2) 
PARAMETRIC_REPRESENTATION_CONTEXT() REPRESENTATION_CONTEXT('2D SPACE',''
  ) );
#360 = PCURVE('',#361,#366);
#361 = PLANE('',#362);
#362 = AXIS2_PLACEMENT_3D('',#363,#364,#365);
#363 = CARTESIAN_POINT('',(-52.17167479045,-43.24308479736,
    13.207073396651));
#364 = DIRECTION('',(-0.99999961227,-5.009026766198E-04,
    7.242628522091E-04));
#365 = DIRECTION('',(-7.242629430691E-04,2.441285921634E-25,
    -0.999999737722));
#366 = DEFINITIONAL_REPRESENTATION('',(#367),#371);
#367 = LINE('',#368,#369);
#368 = CARTESIAN_POINT('',(13.185578487158,-86.55639307039));
#369 = VECTOR('',#370,1.);
#370 = DIRECTION('',(-0.150597756154,0.988595122303));
#371 = ( GEOMETRIC_REPRESENTATION_CONTEXT(2) 
PARAMETRIC_REPRESENTATION_CONTEXT() REPRESENTATION_CONTEXT('2D SPACE',''
  ) );
#372 = ORIENTED_EDGE('',*,*,#373,.T.);
#373 = EDGE_CURVE('',#346,#289,#374,.T.);
#374 = SURFACE_CURVE('',#375,(#379,#386),.PCURVE_S1.);
#375 = LINE('',#376,#377);
#376 = CARTESIAN_POINT('',(-52.22458093393,43.313297414379,
    2.152976916829E-02));
#377 = VECTOR('',#378,1.);
#378 = DIRECTION('',(6.137949085582E-05,-0.999999854061,
    -5.367594112404E-04));
#379 = PCURVE('',#304,#380);
#380 = DEFINITIONAL_REPRESENTATION('',(#381),#385);
#381 = LINE('',#382,#383);
#382 = CARTESIAN_POINT('',(13.185648629605,-86.5563823852));
#383 = VECTOR('',#384,1.);
#384 = DIRECTION('',(5.365351686062E-04,0.999999856065));
#385 = ( GEOMETRIC_REPRESENTATION_CONTEXT(2) 
PARAMETRIC_REPRESENTATION_CONTEXT() REPRESENTATION_CONTEXT('2D SPACE',''
  ) );
#386 = PCURVE('',#330,#387);
#387 = DEFINITIONAL_REPRESENTATION('',(#388),#392);
#388 = LINE('',#389,#390);
#389 = CARTESIAN_POINT('',(104.42074398928,86.586405424072));
#390 = VECTOR('',#391,1.);
#391 = DIRECTION('',(-6.101126501394E-05,-0.999999998139));
#392 = ( GEOMETRIC_REPRESENTATION_CONTEXT(2) 
PARAMETRIC_REPRESENTATION_CONTEXT() REPRESENTATION_CONTEXT('2D SPACE',''
  ) );
#393 = ORIENTED_EDGE('',*,*,#288,.T.);
#394 = ADVANCED_FACE('',(#395),#361,.T.);
#395 = FACE_BOUND('',#396,.T.);
#396 = EDGE_LOOP('',(#397,#425,#451));
#397 = ORIENTED_EDGE('',*,*,#398,.F.);
#398 = EDGE_CURVE('',#399,#173,#401,.T.);
#399 = VERTEX_POINT('',#400);
#400 = CARTESIAN_POINT('',(-52.21499550838,43.25856820095,
    13.218406841604));
#401 = SURFACE_CURVE('',#402,(#406,#413),.PCURVE_S1.);
#402 = LINE('',#403,#404);
#403 = CARTESIAN_POINT('',(-52.21499550838,43.25856820095,
    13.218406841604));
#404 = VECTOR('',#405,1.);
#405 = DIRECTION('',(5.008079107909E-04,-0.999999866013,
    -1.310199636867E-04));
#406 = PCURVE('',#361,#407);
#407 = DEFINITIONAL_REPRESENTATION('',(#408),#412);
#408 = LINE('',#409,#410);
#409 = CARTESIAN_POINT('',(-1.130206639004E-02,-86.50166385009));
#410 = VECTOR('',#411,1.);
#411 = DIRECTION('',(1.306572127116E-04,0.999999991464));
#412 = ( GEOMETRIC_REPRESENTATION_CONTEXT(2) 
PARAMETRIC_REPRESENTATION_CONTEXT() REPRESENTATION_CONTEXT('2D SPACE',''
  ) );
#413 = PCURVE('',#414,#419);
#414 = PLANE('',#415);
#415 = AXIS2_PLACEMENT_3D('',#416,#417,#418);
#416 = CARTESIAN_POINT('',(-44.64031403255,39.095004616853,
    13.186331580274));
#417 = DIRECTION('',(4.163628480042E-03,-1.289336661197E-04,
    0.999991323749));
#418 = DIRECTION('',(0.999991332061,-9.143944912888E-23,
    -4.16362851465E-03));
#419 = DEFINITIONAL_REPRESENTATION('',(#420),#424);
#420 = LINE('',#421,#422);
#421 = CARTESIAN_POINT('',(-7.574749368424,4.163563618705));
#422 = VECTOR('',#423,1.);
#423 = DIRECTION('',(5.013490882754E-04,-0.999999874325));
#424 = ( GEOMETRIC_REPRESENTATION_CONTEXT(2) 
PARAMETRIC_REPRESENTATION_CONTEXT() REPRESENTATION_CONTEXT('2D SPACE',''
  ) );
#425 = ORIENTED_EDGE('',*,*,#426,.F.);
#426 = EDGE_CURVE('',#346,#399,#427,.T.);
#427 = SURFACE_CURVE('',#428,(#432,#439),.PCURVE_S1.);
#428 = LINE('',#429,#430);
#429 = CARTESIAN_POINT('',(-52.22458093393,43.313297414379,
    2.152976916829E-02));
#430 = VECTOR('',#431,1.);
#431 = DIRECTION('',(7.263340066212E-04,-4.147096927665E-03,
    0.999991136974));
#432 = PCURVE('',#361,#433);
#433 = DEFINITIONAL_REPRESENTATION('',(#434),#438);
#434 = LINE('',#435,#436);
#435 = CARTESIAN_POINT('',(13.185578487158,-86.55639307039));
#436 = VECTOR('',#437,1.);
#437 = DIRECTION('',(-0.999991400754,4.147097447925E-03));
#438 = ( GEOMETRIC_REPRESENTATION_CONTEXT(2) 
PARAMETRIC_REPRESENTATION_CONTEXT() REPRESENTATION_CONTEXT('2D SPACE',''
  ) );
#439 = PCURVE('',#440,#445);
#440 = PLANE('',#441);
#441 = AXIS2_PLACEMENT_3D('',#442,#443,#444);
#442 = CARTESIAN_POINT('',(52.199942159195,43.247334218022,
    1.055733049416E-02));
#443 = DIRECTION('',(6.321131554798E-04,0.999991202874,
    4.146638071612E-03));
#444 = DIRECTION('',(-3.680695334883E-22,-4.146638900042E-03,
    0.999991402656));
#445 = DEFINITIONAL_REPRESENTATION('',(#446),#450);
#446 = LINE('',#447,#448);
#447 = CARTESIAN_POINT('',(1.069881878431E-02,-104.4245439554));
#448 = VECTOR('',#449,1.);
#449 = DIRECTION('',(0.999999736219,7.263341517308E-04));
#450 = ( GEOMETRIC_REPRESENTATION_CONTEXT(2) 
PARAMETRIC_REPRESENTATION_CONTEXT() REPRESENTATION_CONTEXT('2D SPACE',''
  ) );
#451 = ORIENTED_EDGE('',*,*,#345,.T.);
#452 = ADVANCED_FACE('',(#453),#414,.T.);
#453 = FACE_BOUND('',#454,.T.);
#454 = EDGE_LOOP('',(#455,#483,#484));
#455 = ORIENTED_EDGE('',*,*,#456,.F.);
#456 = EDGE_CURVE('',#399,#457,#459,.T.);
#457 = VERTEX_POINT('',#458);
#458 = CARTESIAN_POINT('',(-44.64031403255,39.095004616853,
    13.186331580274));
#459 = SURFACE_CURVE('',#460,(#464,#471),.PCURVE_S1.);
#460 = LINE('',#461,#462);
#461 = CARTESIAN_POINT('',(-52.21499550838,43.25856820095,
    13.218406841604));
#462 = VECTOR('',#463,1.);
#463 = DIRECTION('',(0.876332527817,-0.481692360533,-3.710861629156E-03)
  );
#464 = PCURVE('',#414,#465);
#465 = DEFINITIONAL_REPRESENTATION('',(#466),#470);
#466 = LINE('',#467,#468);
#467 = CARTESIAN_POINT('',(-7.574749368424,4.163563618705));
#468 = VECTOR('',#469,1.);
#469 = DIRECTION('',(0.876340382469,-0.481692364537));
#470 = ( GEOMETRIC_REPRESENTATION_CONTEXT(2) 
PARAMETRIC_REPRESENTATION_CONTEXT() REPRESENTATION_CONTEXT('2D SPACE',''
  ) );
#471 = PCURVE('',#472,#477);
#472 = PLANE('',#473);
#473 = AXIS2_PLACEMENT_3D('',#474,#475,#476);
#474 = CARTESIAN_POINT('',(-43.13240974944,40.293642346178,
    13.259514772568));
#475 = DIRECTION('',(-1.732121750844E-02,-3.920883709932E-02,
    0.999080898885));
#476 = DIRECTION('',(3.890045388053E-20,0.99923080703,3.921472023053E-02
    ));
#477 = DEFINITIONAL_REPRESENTATION('',(#478),#482);
#478 = LINE('',#479,#480);
#479 = CARTESIAN_POINT('',(2.961033218635,9.083948565074));
#480 = VECTOR('',#481,1.);
#481 = DIRECTION('',(-0.481467366556,-0.876464018053));
#482 = ( GEOMETRIC_REPRESENTATION_CONTEXT(2) 
PARAMETRIC_REPRESENTATION_CONTEXT() REPRESENTATION_CONTEXT('2D SPACE',''
  ) );
#483 = ORIENTED_EDGE('',*,*,#398,.T.);
#484 = ORIENTED_EDGE('',*,*,#485,.T.);
#485 = EDGE_CURVE('',#173,#457,#486,.T.);
#486 = SURFACE_CURVE('',#487,(#491,#498),.PCURVE_S1.);
#487 = LINE('',#488,#489);
#488 = CARTESIAN_POINT('',(-52.17167479045,-43.24308479736,
    13.207073396651));
#489 = VECTOR('',#490,1.);
#490 = DIRECTION('',(9.108847711805E-02,0.995842771929,
    -2.508630946197E-04));
#491 = PCURVE('',#414,#492);
#492 = DEFINITIONAL_REPRESENTATION('',(#493),#497);
#493 = LINE('',#494,#495);
#494 = CARTESIAN_POINT('',(-7.531381837748,-82.3380900986));
#495 = VECTOR('',#496,1.);
#496 = DIRECTION('',(9.108873206945E-02,0.995842780207));
#497 = ( GEOMETRIC_REPRESENTATION_CONTEXT(2) 
PARAMETRIC_REPRESENTATION_CONTEXT() REPRESENTATION_CONTEXT('2D SPACE',''
  ) );
#498 = PCURVE('',#188,#499);
#499 = DEFINITIONAL_REPRESENTATION('',(#500),#504);
#500 = LINE('',#501,#502);
#501 = CARTESIAN_POINT('',(-9.88327172094,-82.42959605011));
#502 = VECTOR('',#503,1.);
#503 = DIRECTION('',(9.106193984055E-02,0.995845230501));
#504 = ( GEOMETRIC_REPRESENTATION_CONTEXT(2) 
PARAMETRIC_REPRESENTATION_CONTEXT() REPRESENTATION_CONTEXT('2D SPACE',''
  ) );
#505 = ADVANCED_FACE('',(#506),#188,.T.);
#506 = FACE_BOUND('',#507,.T.);
#507 = EDGE_LOOP('',(#508,#534,#535));
#508 = ORIENTED_EDGE('',*,*,#509,.F.);
#509 = EDGE_CURVE('',#457,#57,#510,.T.);
#510 = SURFACE_CURVE('',#511,(#515,#522),.PCURVE_S1.);
#511 = LINE('',#512,#513);
#512 = CARTESIAN_POINT('',(-44.64031403255,39.095004616853,
    13.186331580274));
#513 = VECTOR('',#514,1.);
#514 = DIRECTION('',(0.999018735984,3.875550692083E-02,
    2.143771993992E-02));
#515 = PCURVE('',#188,#516);
#516 = DEFINITIONAL_REPRESENTATION('',(#517),#521);
#517 = LINE('',#518,#519);
#518 = CARTESIAN_POINT('',(-2.354105113347,-9.130335669432E-02));
#519 = VECTOR('',#520,1.);
#520 = DIRECTION('',(0.999248719422,3.87556026018E-02));
#521 = ( GEOMETRIC_REPRESENTATION_CONTEXT(2) 
PARAMETRIC_REPRESENTATION_CONTEXT() REPRESENTATION_CONTEXT('2D SPACE',''
  ) );
#522 = PCURVE('',#523,#528);
#523 = PLANE('',#524);
#524 = AXIS2_PLACEMENT_3D('',#525,#526,#527);
#525 = CARTESIAN_POINT('',(-42.27726802249,39.143676530502,
    20.436974837079));
#526 = DIRECTION('',(3.889158833282E-02,-0.999225616671,
    -5.967524283343E-03));
#527 = DIRECTION('',(-0.99924340903,-3.889228084223E-02,
    8.36294699675E-21));
#528 = DEFINITIONAL_REPRESENTATION('',(#529),#533);
#529 = LINE('',#530,#531);
#530 = CARTESIAN_POINT('',(2.363151112525,7.250772362836));
#531 = VECTOR('',#532,1.);
#532 = DIRECTION('',(-0.999770177489,-2.143810166315E-02));
#533 = ( GEOMETRIC_REPRESENTATION_CONTEXT(2) 
PARAMETRIC_REPRESENTATION_CONTEXT() REPRESENTATION_CONTEXT('2D SPACE',''
  ) );
#534 = ORIENTED_EDGE('',*,*,#485,.F.);
#535 = ORIENTED_EDGE('',*,*,#172,.T.);
#536 = ADVANCED_FACE('',(#537),#472,.T.);
#537 = FACE_BOUND('',#538,.T.);
#538 = EDGE_LOOP('',(#539,#560,#561));
#539 = ORIENTED_EDGE('',*,*,#540,.F.);
#540 = EDGE_CURVE('',#399,#22,#541,.T.);
#541 = SURFACE_CURVE('',#542,(#546,#553),.PCURVE_S1.);
#542 = LINE('',#543,#544);
#543 = CARTESIAN_POINT('',(-52.21499550838,43.25856820095,
    13.218406841604));
#544 = VECTOR('',#545,1.);
#545 = DIRECTION('',(0.950621868741,-0.31032168939,4.30253004924E-03));
#546 = PCURVE('',#472,#547);
#547 = DEFINITIONAL_REPRESENTATION('',(#548),#552);
#548 = LINE('',#549,#550);
#549 = CARTESIAN_POINT('',(2.961033218635,9.083948565074));
#550 = VECTOR('',#551,1.);
#551 = DIRECTION('',(-0.309914269616,-0.9507645058));
#552 = ( GEOMETRIC_REPRESENTATION_CONTEXT(2) 
PARAMETRIC_REPRESENTATION_CONTEXT() REPRESENTATION_CONTEXT('2D SPACE',''
  ) );
#553 = PCURVE('',#44,#554);
#554 = DEFINITIONAL_REPRESENTATION('',(#555),#559);
#555 = LINE('',#556,#557);
#556 = CARTESIAN_POINT('',(-1.182322784063E-02,104.45818298057));
#557 = VECTOR('',#558,1.);
#558 = DIRECTION('',(-0.310351505449,-0.950621871758));
#559 = ( GEOMETRIC_REPRESENTATION_CONTEXT(2) 
PARAMETRIC_REPRESENTATION_CONTEXT() REPRESENTATION_CONTEXT('2D SPACE',''
  ) );
#560 = ORIENTED_EDGE('',*,*,#456,.T.);
#561 = ORIENTED_EDGE('',*,*,#562,.T.);
#562 = EDGE_CURVE('',#457,#22,#563,.T.);
#563 = SURFACE_CURVE('',#564,(#568,#575),.PCURVE_S1.);
#564 = LINE('',#565,#566);
#565 = CARTESIAN_POINT('',(-44.64031403255,39.095004616853,
    13.186331580274));
#566 = VECTOR('',#567,1.);
#567 = DIRECTION('',(0.782246985157,0.621810522432,3.796483117455E-02));
#568 = PCURVE('',#472,#569);
#569 = DEFINITIONAL_REPRESENTATION('',(#570),#574);
#570 = LINE('',#571,#572);
#571 = CARTESIAN_POINT('',(-1.200585604021,1.508130538198));
#572 = VECTOR('',#573,1.);
#573 = DIRECTION('',(0.622821010382,-0.782364358229));
#574 = ( GEOMETRIC_REPRESENTATION_CONTEXT(2) 
PARAMETRIC_REPRESENTATION_CONTEXT() REPRESENTATION_CONTEXT('2D SPACE',''
  ) );
#575 = PCURVE('',#576,#581);
#576 = PLANE('',#577);
#577 = AXIS2_PLACEMENT_3D('',#578,#579,#580);
#578 = CARTESIAN_POINT('',(-44.66157366638,39.128084185601,
    20.418778516031));
#579 = DIRECTION('',(-0.622089122048,0.782927749524,-5.40955220345E-03)
  );
#580 = DIRECTION('',(0.782939205282,0.622098224425,-2.834866351703E-20)
  );
#581 = DEFINITIONAL_REPRESENTATION('',(#582),#586);
#582 = LINE('',#583,#584);
#583 = CARTESIAN_POINT('',(-3.933740168771E-03,7.232552760549));
#584 = VECTOR('',#585,1.);
#585 = DIRECTION('',(0.999279054826,-3.796538667401E-02));
#586 = ( GEOMETRIC_REPRESENTATION_CONTEXT(2) 
PARAMETRIC_REPRESENTATION_CONTEXT() REPRESENTATION_CONTEXT('2D SPACE',''
  ) );
#587 = ADVANCED_FACE('',(#588),#44,.T.);
#588 = FACE_BOUND('',#589,.T.);
#589 = EDGE_LOOP('',(#590,#616,#617));
#590 = ORIENTED_EDGE('',*,*,#591,.F.);
#591 = EDGE_CURVE('',#399,#24,#592,.T.);
#592 = SURFACE_CURVE('',#593,(#597,#604),.PCURVE_S1.);
#593 = LINE('',#594,#595);
#594 = CARTESIAN_POINT('',(-52.21499550838,43.25856820095,
    13.218406841604));
#595 = VECTOR('',#596,1.);
#596 = DIRECTION('',(0.999999990421,1.142608136324E-04,
    7.812298562703E-05));
#597 = PCURVE('',#44,#598);
#598 = DEFINITIONAL_REPRESENTATION('',(#599),#603);
#599 = LINE('',#600,#601);
#600 = CARTESIAN_POINT('',(-1.182322784063E-02,104.45818298057));
#601 = VECTOR('',#602,1.);
#602 = DIRECTION('',(1.131862284747E-04,-0.999999993594));
#603 = ( GEOMETRIC_REPRESENTATION_CONTEXT(2) 
PARAMETRIC_REPRESENTATION_CONTEXT() REPRESENTATION_CONTEXT('2D SPACE',''
  ) );
#604 = PCURVE('',#605,#610);
#605 = PLANE('',#606);
#606 = AXIS2_PLACEMENT_3D('',#607,#608,#609);
#607 = CARTESIAN_POINT('',(52.243187140669,43.270503678005,
    13.226567426784));
#608 = DIRECTION('',(-1.14123707652E-04,0.999998457404,
    -1.752759629798E-03));
#609 = DIRECTION('',(-3.091106520671E-25,1.752759641212E-03,
    0.999998463916));
#610 = DEFINITIONAL_REPRESENTATION('',(#611),#615);
#611 = LINE('',#612,#613);
#612 = CARTESIAN_POINT('',(-8.181492667023E-03,-104.4581833292));
#613 = VECTOR('',#614,1.);
#614 = DIRECTION('',(7.832313736624E-05,0.999999996933));
#615 = ( GEOMETRIC_REPRESENTATION_CONTEXT(2) 
PARAMETRIC_REPRESENTATION_CONTEXT() REPRESENTATION_CONTEXT('2D SPACE',''
  ) );
#616 = ORIENTED_EDGE('',*,*,#540,.T.);
#617 = ORIENTED_EDGE('',*,*,#21,.T.);
#618 = ADVANCED_FACE('',(#619),#440,.T.);
#619 = FACE_BOUND('',#620,.T.);
#620 = EDGE_LOOP('',(#621,#649,#650));
#621 = ORIENTED_EDGE('',*,*,#622,.F.);
#622 = EDGE_CURVE('',#346,#623,#625,.T.);
#623 = VERTEX_POINT('',#624);
#624 = CARTESIAN_POINT('',(52.199942159195,43.247334218022,
    1.055733049416E-02));
#625 = SURFACE_CURVE('',#626,(#630,#637),.PCURVE_S1.);
#626 = LINE('',#627,#628);
#627 = CARTESIAN_POINT('',(-52.22458093393,43.313297414379,
    2.152976916829E-02));
#628 = VECTOR('',#629,1.);
#629 = DIRECTION('',(0.999999794968,-6.316828736969E-04,
    -1.050752840369E-04));
#630 = PCURVE('',#440,#631);
#631 = DEFINITIONAL_REPRESENTATION('',(#632),#636);
#632 = LINE('',#633,#634);
#633 = CARTESIAN_POINT('',(1.069881878431E-02,-104.4245439554));
#634 = VECTOR('',#635,1.);
#635 = DIRECTION('',(-1.024550198919E-04,0.999999994751));
#636 = ( GEOMETRIC_REPRESENTATION_CONTEXT(2) 
PARAMETRIC_REPRESENTATION_CONTEXT() REPRESENTATION_CONTEXT('2D SPACE',''
  ) );
#637 = PCURVE('',#638,#643);
#638 = PLANE('',#639);
#639 = AXIS2_PLACEMENT_3D('',#640,#641,#642);
#640 = CARTESIAN_POINT('',(52.199942159195,43.247334218022,
    1.055733049416E-02));
#641 = DIRECTION('',(-1.053390352919E-04,-4.175186783376E-04,
    -0.999999907291));
#642 = DIRECTION('',(2.064430105431E-24,-0.999999912839,
    4.17518680654E-04));
#643 = DEFINITIONAL_REPRESENTATION('',(#644),#648);
#644 = LINE('',#645,#646);
#645 = CARTESIAN_POINT('',(-6.595860940894E-02,104.42452367249));
#646 = VECTOR('',#647,1.);
#647 = DIRECTION('',(6.316389477449E-04,-0.999999800516));
#648 = ( GEOMETRIC_REPRESENTATION_CONTEXT(2) 
PARAMETRIC_REPRESENTATION_CONTEXT() REPRESENTATION_CONTEXT('2D SPACE',''
  ) );
#649 = ORIENTED_EDGE('',*,*,#426,.T.);
#650 = ORIENTED_EDGE('',*,*,#651,.T.);
#651 = EDGE_CURVE('',#399,#623,#652,.T.);
#652 = SURFACE_CURVE('',#653,(#657,#664),.PCURVE_S1.);
#653 = LINE('',#654,#655);
#654 = CARTESIAN_POINT('',(-52.21499550838,43.25856820095,
    13.218406841604));
#655 = VECTOR('',#656,1.);
#656 = DIRECTION('',(0.992094390713,-1.0673924342E-04,-0.125493858504));
#657 = PCURVE('',#440,#658);
#658 = DEFINITIONAL_REPRESENTATION('',(#659),#663);
#659 = LINE('',#660,#661);
#660 = CARTESIAN_POINT('',(13.207689375413,-104.4149585279));
#661 = VECTOR('',#662,1.);
#662 = DIRECTION('',(-0.125492336981,0.992094588917));
#663 = ( GEOMETRIC_REPRESENTATION_CONTEXT(2) 
PARAMETRIC_REPRESENTATION_CONTEXT() REPRESENTATION_CONTEXT('2D SPACE',''
  ) );
#664 = PCURVE('',#605,#665);
#665 = DEFINITIONAL_REPRESENTATION('',(#666),#670);
#666 = LINE('',#667,#668);
#667 = CARTESIAN_POINT('',(-8.181492667023E-03,-104.4581833292));
#668 = VECTOR('',#669,1.);
#669 = DIRECTION('',(-0.125493852823,0.992094397174));
#670 = ( GEOMETRIC_REPRESENTATION_CONTEXT(2) 
PARAMETRIC_REPRESENTATION_CONTEXT() REPRESENTATION_CONTEXT('2D SPACE',''
  ) );
#671 = ADVANCED_FACE('',(#672),#605,.T.);
#672 = FACE_BOUND('',#673,.T.);
#673 = EDGE_LOOP('',(#674,#695,#696));
#674 = ORIENTED_EDGE('',*,*,#675,.F.);
#675 = EDGE_CURVE('',#623,#24,#676,.T.);
#676 = SURFACE_CURVE('',#677,(#681,#688),.PCURVE_S1.);
#677 = LINE('',#678,#679);
#678 = CARTESIAN_POINT('',(52.199942159195,43.247334218022,
    1.055733049416E-02));
#679 = VECTOR('',#680,1.);
#680 = DIRECTION('',(3.272143649453E-03,1.753123686448E-03,
    0.999993109793));
#681 = PCURVE('',#605,#682);
#682 = DEFINITIONAL_REPRESENTATION('',(#683),#687);
#683 = LINE('',#684,#685);
#684 = CARTESIAN_POINT('',(-13.21603040587,-4.324498175617E-02));
#685 = VECTOR('',#686,1.);
#686 = DIRECTION('',(0.999994646524,3.272143670761E-03));
#687 = ( GEOMETRIC_REPRESENTATION_CONTEXT(2) 
PARAMETRIC_REPRESENTATION_CONTEXT() REPRESENTATION_CONTEXT('2D SPACE',''
  ) );
#688 = PCURVE('',#156,#689);
#689 = DEFINITIONAL_REPRESENTATION('',(#690),#694);
#690 = LINE('',#691,#692);
#691 = CARTESIAN_POINT('',(-13.22040699598,-86.54072038308));
#692 = VECTOR('',#693,1.);
#693 = DIRECTION('',(0.999998463276,-1.753124463832E-03));
#694 = ( GEOMETRIC_REPRESENTATION_CONTEXT(2) 
PARAMETRIC_REPRESENTATION_CONTEXT() REPRESENTATION_CONTEXT('2D SPACE',''
  ) );
#695 = ORIENTED_EDGE('',*,*,#651,.F.);
#696 = ORIENTED_EDGE('',*,*,#591,.T.);
#697 = ADVANCED_FACE('',(#698),#330,.T.);
#698 = FACE_BOUND('',#699,.T.);
#699 = EDGE_LOOP('',(#700,#701,#702));
#700 = ORIENTED_EDGE('',*,*,#316,.F.);
#701 = ORIENTED_EDGE('',*,*,#373,.F.);
#702 = ORIENTED_EDGE('',*,*,#703,.T.);
#703 = EDGE_CURVE('',#346,#231,#704,.T.);
#704 = SURFACE_CURVE('',#705,(#709,#716),.PCURVE_S1.);
#705 = LINE('',#706,#707);
#706 = CARTESIAN_POINT('',(-52.22458093393,43.313297414379,
    2.152976916829E-02));
#707 = VECTOR('',#708,1.);
#708 = DIRECTION('',(0.769781220648,-0.638307792493,1.854174319153E-04)
  );
#709 = PCURVE('',#330,#710);
#710 = DEFINITIONAL_REPRESENTATION('',(#711),#715);
#711 = LINE('',#712,#713);
#712 = CARTESIAN_POINT('',(104.42074398928,86.586405424072));
#713 = VECTOR('',#714,1.);
#714 = DIRECTION('',(-0.76978116672,-0.638307884459));
#715 = ( GEOMETRIC_REPRESENTATION_CONTEXT(2) 
PARAMETRIC_REPRESENTATION_CONTEXT() REPRESENTATION_CONTEXT('2D SPACE',''
  ) );
#716 = PCURVE('',#638,#717);
#717 = DEFINITIONAL_REPRESENTATION('',(#718),#722);
#718 = LINE('',#719,#720);
#719 = CARTESIAN_POINT('',(-6.595860940894E-02,104.42452367249));
#720 = VECTOR('',#721,1.);
#721 = DIRECTION('',(0.638307814273,-0.769781224919));
#722 = ( GEOMETRIC_REPRESENTATION_CONTEXT(2) 
PARAMETRIC_REPRESENTATION_CONTEXT() REPRESENTATION_CONTEXT('2D SPACE',''
  ) );
#723 = ADVANCED_FACE('',(#724),#638,.T.);
#724 = FACE_BOUND('',#725,.T.);
#725 = EDGE_LOOP('',(#726,#747,#748));
#726 = ORIENTED_EDGE('',*,*,#727,.F.);
#727 = EDGE_CURVE('',#231,#623,#728,.T.);
#728 = SURFACE_CURVE('',#729,(#733,#740),.PCURVE_S1.);
#729 = LINE('',#730,#731);
#730 = CARTESIAN_POINT('',(52.196170370694,-43.2730955345,
    4.668162663925E-02));
#731 = VECTOR('',#732,1.);
#732 = DIRECTION('',(4.359419132973E-05,0.999999911887,
    -4.17523272427E-04));
#733 = PCURVE('',#638,#734);
#734 = DEFINITIONAL_REPRESENTATION('',(#735),#739);
#735 = LINE('',#736,#737);
#736 = CARTESIAN_POINT('',(86.520437293898,3.771788521832E-03));
#737 = VECTOR('',#738,1.);
#738 = DIRECTION('',(-0.99999999905,-4.359419157159E-05));
#739 = ( GEOMETRIC_REPRESENTATION_CONTEXT(2) 
PARAMETRIC_REPRESENTATION_CONTEXT() REPRESENTATION_CONTEXT('2D SPACE',''
  ) );
#740 = PCURVE('',#272,#741);
#741 = DEFINITIONAL_REPRESENTATION('',(#742),#746);
#742 = LINE('',#743,#744);
#743 = CARTESIAN_POINT('',(-13.18452364287,-2.025225601463E-02));
#744 = VECTOR('',#745,1.);
#745 = DIRECTION('',(-4.176358761108E-04,-0.99999991279));
#746 = ( GEOMETRIC_REPRESENTATION_CONTEXT(2) 
PARAMETRIC_REPRESENTATION_CONTEXT() REPRESENTATION_CONTEXT('2D SPACE',''
  ) );
#747 = ORIENTED_EDGE('',*,*,#703,.F.);
#748 = ORIENTED_EDGE('',*,*,#622,.T.);
#749 = ADVANCED_FACE('',(#750),#272,.T.);
#750 = FACE_BOUND('',#751,.T.);
#751 = EDGE_LOOP('',(#752,#753,#754));
#752 = ORIENTED_EDGE('',*,*,#258,.T.);
#753 = ORIENTED_EDGE('',*,*,#727,.T.);
#754 = ORIENTED_EDGE('',*,*,#755,.F.);
#755 = EDGE_CURVE('',#115,#623,#756,.T.);
#756 = SURFACE_CURVE('',#757,(#761,#768),.PCURVE_S1.);
#757 = LINE('',#758,#759);
#758 = CARTESIAN_POINT('',(52.16168191902,-43.2933477905,13.231160161502
    ));
#759 = VECTOR('',#760,1.);
#760 = DIRECTION('',(4.370365974172E-04,0.988531306398,-0.151015447124)
  );
#761 = PCURVE('',#272,#762);
#762 = DEFINITIONAL_REPRESENTATION('',(#763),#767);
#763 = LINE('',#764,#765);
#764 = CARTESIAN_POINT('',(0.,-0.));
#765 = VECTOR('',#766,1.);
#766 = DIRECTION('',(-0.151016073667,-0.988531307291));
#767 = ( GEOMETRIC_REPRESENTATION_CONTEXT(2) 
PARAMETRIC_REPRESENTATION_CONTEXT() REPRESENTATION_CONTEXT('2D SPACE',''
  ) );
#768 = PCURVE('',#156,#769);
#769 = DEFINITIONAL_REPRESENTATION('',(#770),#774);
#770 = LINE('',#771,#772);
#771 = CARTESIAN_POINT('',(0.,0.));
#772 = VECTOR('',#773,1.);
#773 = DIRECTION('',(-0.151013210152,-0.98853174474));
#774 = ( GEOMETRIC_REPRESENTATION_CONTEXT(2) 
PARAMETRIC_REPRESENTATION_CONTEXT() REPRESENTATION_CONTEXT('2D SPACE',''
  ) );
#775 = ADVANCED_FACE('',(#776),#156,.T.);
#776 = FACE_BOUND('',#777,.T.);
#777 = EDGE_LOOP('',(#778,#779,#780));
#778 = ORIENTED_EDGE('',*,*,#755,.T.);
#779 = ORIENTED_EDGE('',*,*,#675,.T.);
#780 = ORIENTED_EDGE('',*,*,#142,.F.);
#781 = ADVANCED_FACE('',(#782),#72,.T.);
#782 = FACE_BOUND('',#783,.T.);
#783 = EDGE_LOOP('',(#784,#807,#808));
#784 = ORIENTED_EDGE('',*,*,#785,.F.);
#785 = EDGE_CURVE('',#57,#786,#788,.T.);
#786 = VERTEX_POINT('',#787);
#787 = CARTESIAN_POINT('',(-42.27726802249,39.143676530502,
    20.436974837079));
#788 = SURFACE_CURVE('',#789,(#793,#800),.PCURVE_S1.);
#789 = LINE('',#790,#791);
#790 = CARTESIAN_POINT('',(-42.28675073144,39.186307748135,
    13.23683616952));
#791 = VECTOR('',#792,1.);
#792 = DIRECTION('',(1.316993318672E-03,-5.920779500376E-03,
    0.99998160478));
#793 = PCURVE('',#72,#794);
#794 = DEFINITIONAL_REPRESENTATION('',(#795),#799);
#795 = LINE('',#796,#797);
#796 = CARTESIAN_POINT('',(3.963725759787E-02,-7.200162016398));
#797 = VECTOR('',#798,1.);
#798 = DIRECTION('',(-5.504967375196E-03,0.999984847552));
#799 = ( GEOMETRIC_REPRESENTATION_CONTEXT(2) 
PARAMETRIC_REPRESENTATION_CONTEXT() REPRESENTATION_CONTEXT('2D SPACE',''
  ) );
#800 = PCURVE('',#523,#801);
#801 = DEFINITIONAL_REPRESENTATION('',(#802),#806);
#802 = LINE('',#803,#804);
#803 = CARTESIAN_POINT('',(7.817509134399E-03,7.200266874298));
#804 = VECTOR('',#805,1.);
#805 = DIRECTION('',(-1.085724274287E-03,-0.999999410601));
#806 = ( GEOMETRIC_REPRESENTATION_CONTEXT(2) 
PARAMETRIC_REPRESENTATION_CONTEXT() REPRESENTATION_CONTEXT('2D SPACE',''
  ) );
#807 = ORIENTED_EDGE('',*,*,#56,.F.);
#808 = ORIENTED_EDGE('',*,*,#809,.T.);
#809 = EDGE_CURVE('',#22,#786,#810,.T.);
#810 = SURFACE_CURVE('',#811,(#815,#822),.PCURVE_S1.);
#811 = LINE('',#812,#813);
#812 = CARTESIAN_POINT('',(-43.13240974944,40.293642346178,
    13.259514772568));
#813 = VECTOR('',#814,1.);
#814 = DIRECTION('',(0.116836572653,-0.157117890915,0.980644269674));
#815 = PCURVE('',#72,#816);
#816 = DEFINITIONAL_REPRESENTATION('',(#817),#821);
#817 = LINE('',#818,#819);
#818 = CARTESIAN_POINT('',(1.432953116763,-7.177483339807));
#819 = VECTOR('',#820,1.);
#820 = DIRECTION('',(-0.195781968835,0.980647449739));
#821 = ( GEOMETRIC_REPRESENTATION_CONTEXT(2) 
PARAMETRIC_REPRESENTATION_CONTEXT() REPRESENTATION_CONTEXT('2D SPACE',''
  ) );
#822 = PCURVE('',#823,#828);
#823 = PLANE('',#824);
#824 = AXIS2_PLACEMENT_3D('',#825,#826,#827);
#825 = CARTESIAN_POINT('',(-44.66157366638,39.128084185601,
    20.418778516031));
#826 = DIRECTION('',(-7.670205108412E-03,0.987234667429,0.159087646852)
  );
#827 = DIRECTION('',(3.774453614212E-19,-0.159092326784,0.987263709228)
  );
#828 = DEFINITIONAL_REPRESENTATION('',(#829),#833);
#829 = LINE('',#830,#831);
#830 = CARTESIAN_POINT('',(-7.253512638481,1.529208900848));
#831 = VECTOR('',#832,1.);
#832 = DIRECTION('',(0.993150749957,0.116840009672));
#833 = ( GEOMETRIC_REPRESENTATION_CONTEXT(2) 
PARAMETRIC_REPRESENTATION_CONTEXT() REPRESENTATION_CONTEXT('2D SPACE',''
  ) );
#834 = ADVANCED_FACE('',(#835),#576,.T.);
#835 = FACE_BOUND('',#836,.T.);
#836 = EDGE_LOOP('',(#837,#860,#861));
#837 = ORIENTED_EDGE('',*,*,#838,.T.);
#838 = EDGE_CURVE('',#839,#22,#841,.T.);
#839 = VERTEX_POINT('',#840);
#840 = CARTESIAN_POINT('',(-44.66157366638,39.128084185601,
    20.418778516031));
#841 = SURFACE_CURVE('',#842,(#846,#853),.PCURVE_S1.);
#842 = LINE('',#843,#844);
#843 = CARTESIAN_POINT('',(-44.66157366638,39.128084185601,
    20.418778516031));
#844 = VECTOR('',#845,1.);
#845 = DIRECTION('',(0.206282594216,0.157232562454,-0.965777102973));
#846 = PCURVE('',#576,#847);
#847 = DEFINITIONAL_REPRESENTATION('',(#848),#852);
#848 = LINE('',#849,#850);
#849 = CARTESIAN_POINT('',(0.,0.));
#850 = VECTOR('',#851,1.);
#851 = DIRECTION('',(0.259320828303,0.965791234174));
#852 = ( GEOMETRIC_REPRESENTATION_CONTEXT(2) 
PARAMETRIC_REPRESENTATION_CONTEXT() REPRESENTATION_CONTEXT('2D SPACE',''
  ) );
#853 = PCURVE('',#823,#854);
#854 = DEFINITIONAL_REPRESENTATION('',(#855),#859);
#855 = LINE('',#856,#857);
#856 = CARTESIAN_POINT('',(0.,0.));
#857 = VECTOR('',#858,1.);
#858 = DIRECTION('',(-0.978491179176,0.206288662497));
#859 = ( GEOMETRIC_REPRESENTATION_CONTEXT(2) 
PARAMETRIC_REPRESENTATION_CONTEXT() REPRESENTATION_CONTEXT('2D SPACE',''
  ) );
#860 = ORIENTED_EDGE('',*,*,#562,.F.);
#861 = ORIENTED_EDGE('',*,*,#862,.F.);
#862 = EDGE_CURVE('',#839,#457,#863,.T.);
#863 = SURFACE_CURVE('',#864,(#868,#875),.PCURVE_S1.);
#864 = LINE('',#865,#866);
#865 = CARTESIAN_POINT('',(-44.66157366638,39.128084185601,
    20.418778516031));
#866 = VECTOR('',#867,1.);
#867 = DIRECTION('',(2.939436653579E-03,-4.573705156369E-03,
    -0.999985220357));
#868 = PCURVE('',#576,#869);
#869 = DEFINITIONAL_REPRESENTATION('',(#870),#874);
#870 = LINE('',#871,#872);
#871 = CARTESIAN_POINT('',(0.,0.));
#872 = VECTOR('',#873,1.);
#873 = DIRECTION('',(-5.438936592883E-04,0.99999985209));
#874 = ( GEOMETRIC_REPRESENTATION_CONTEXT(2) 
PARAMETRIC_REPRESENTATION_CONTEXT() REPRESENTATION_CONTEXT('2D SPACE',''
  ) );
#875 = PCURVE('',#876,#881);
#876 = PLANE('',#877);
#877 = AXIS2_PLACEMENT_3D('',#878,#879,#880);
#878 = CARTESIAN_POINT('',(-43.83278425806,38.038373731027,
    20.44424816092));
#879 = DIRECTION('',(-0.795952447617,-0.605358998459,4.290881154429E-04)
  );
#880 = DIRECTION('',(0.605359054187,-0.795952520891,-2.089382975384E-20)
  );
#881 = DEFINITIONAL_REPRESENTATION('',(#882),#886);
#882 = LINE('',#883,#884);
#883 = CARTESIAN_POINT('',(-1.369072955702,-2.546964723386E-02));
#884 = VECTOR('',#885,1.);
#885 = DIRECTION('',(5.41986674148E-03,-0.999985312414));
#886 = ( GEOMETRIC_REPRESENTATION_CONTEXT(2) 
PARAMETRIC_REPRESENTATION_CONTEXT() REPRESENTATION_CONTEXT('2D SPACE',''
  ) );
#887 = ADVANCED_FACE('',(#888),#823,.T.);
#888 = FACE_BOUND('',#889,.T.);
#889 = EDGE_LOOP('',(#890,#916,#917));
#890 = ORIENTED_EDGE('',*,*,#891,.T.);
#891 = EDGE_CURVE('',#839,#786,#892,.T.);
#892 = SURFACE_CURVE('',#893,(#897,#904),.PCURVE_S1.);
#893 = LINE('',#894,#895);
#894 = CARTESIAN_POINT('',(-44.66157366638,39.128084185601,
    20.418778516031));
#895 = VECTOR('',#896,1.);
#896 = DIRECTION('',(0.999949499334,6.539244461908E-03,
    7.631321164076E-03));
#897 = PCURVE('',#823,#898);
#898 = DEFINITIONAL_REPRESENTATION('',(#899),#903);
#899 = LINE('',#900,#901);
#900 = CARTESIAN_POINT('',(0.,0.));
#901 = VECTOR('',#902,1.);
#902 = DIRECTION('',(6.493782821899E-03,0.99997891517));
#903 = ( GEOMETRIC_REPRESENTATION_CONTEXT(2) 
PARAMETRIC_REPRESENTATION_CONTEXT() REPRESENTATION_CONTEXT('2D SPACE',''
  ) );
#904 = PCURVE('',#905,#910);
#905 = PLANE('',#906);
#906 = AXIS2_PLACEMENT_3D('',#907,#908,#909);
#907 = CARTESIAN_POINT('',(-42.27726802249,39.143676530502,
    20.436974837079));
#908 = DIRECTION('',(-7.744612811201E-03,1.747834674621E-02,
    0.999817247484));
#909 = DIRECTION('',(4.23496922753E-21,0.999847232866,
    -1.747887093692E-02));
#910 = DEFINITIONAL_REPRESENTATION('',(#911),#915);
#911 = LINE('',#912,#913);
#912 = CARTESIAN_POINT('',(-1.527191175613E-02,2.384377151273));
#913 = VECTOR('',#914,1.);
#914 = DIRECTION('',(6.404858602571E-03,-0.999979488683));
#915 = ( GEOMETRIC_REPRESENTATION_CONTEXT(2) 
PARAMETRIC_REPRESENTATION_CONTEXT() REPRESENTATION_CONTEXT('2D SPACE',''
  ) );
#916 = ORIENTED_EDGE('',*,*,#809,.F.);
#917 = ORIENTED_EDGE('',*,*,#838,.F.);
#918 = ADVANCED_FACE('',(#919),#876,.T.);
#919 = FACE_BOUND('',#920,.T.);
#920 = EDGE_LOOP('',(#921,#944,#945));
#921 = ORIENTED_EDGE('',*,*,#922,.F.);
#922 = EDGE_CURVE('',#839,#923,#925,.T.);
#923 = VERTEX_POINT('',#924);
#924 = CARTESIAN_POINT('',(-43.83278425806,38.038373731027,
    20.44424816092));
#925 = SURFACE_CURVE('',#926,(#930,#937),.PCURVE_S1.);
#926 = LINE('',#927,#928);
#927 = CARTESIAN_POINT('',(-44.66157366638,39.128084185601,
    20.418778516031));
#928 = VECTOR('',#929,1.);
#929 = DIRECTION('',(0.605260678788,-0.795809988394,1.860035178938E-02)
  );
#930 = PCURVE('',#876,#931);
#931 = DEFINITIONAL_REPRESENTATION('',(#932),#936);
#932 = LINE('',#933,#934);
#933 = CARTESIAN_POINT('',(-1.369072955702,-2.546964723386E-02));
#934 = VECTOR('',#935,1.);
#935 = DIRECTION('',(0.99982699846,1.860035350169E-02));
#936 = ( GEOMETRIC_REPRESENTATION_CONTEXT(2) 
PARAMETRIC_REPRESENTATION_CONTEXT() REPRESENTATION_CONTEXT('2D SPACE',''
  ) );
#937 = PCURVE('',#905,#938);
#938 = DEFINITIONAL_REPRESENTATION('',(#939),#943);
#939 = LINE('',#940,#941);
#940 = CARTESIAN_POINT('',(-1.527191175613E-02,2.384377151273));
#941 = VECTOR('',#942,1.);
#942 = DIRECTION('',(-0.796013527931,-0.605278831078));
#943 = ( GEOMETRIC_REPRESENTATION_CONTEXT(2) 
PARAMETRIC_REPRESENTATION_CONTEXT() REPRESENTATION_CONTEXT('2D SPACE',''
  ) );
#944 = ORIENTED_EDGE('',*,*,#862,.T.);
#945 = ORIENTED_EDGE('',*,*,#946,.T.);
#946 = EDGE_CURVE('',#457,#923,#947,.T.);
#947 = SURFACE_CURVE('',#948,(#952,#959),.PCURVE_S1.);
#948 = LINE('',#949,#950);
#949 = CARTESIAN_POINT('',(-44.64031403255,39.095004616853,
    13.186331580274));
#950 = VECTOR('',#951,1.);
#951 = DIRECTION('',(0.109439940661,-0.143199204659,0.98362436284));
#952 = PCURVE('',#876,#953);
#953 = DEFINITIONAL_REPRESENTATION('',(#954),#958);
#954 = LINE('',#955,#956);
#955 = CARTESIAN_POINT('',(-1.329873477741,-7.257917248798));
#956 = VECTOR('',#957,1.);
#957 = DIRECTION('',(0.180230226907,0.983624453391));
#958 = ( GEOMETRIC_REPRESENTATION_CONTEXT(2) 
PARAMETRIC_REPRESENTATION_CONTEXT() REPRESENTATION_CONTEXT('2D SPACE',''
  ) );
#959 = PCURVE('',#960,#965);
#960 = PLANE('',#961);
#961 = AXIS2_PLACEMENT_3D('',#962,#963,#964);
#962 = CARTESIAN_POINT('',(-42.27726802249,39.143676530502,
    20.436974837079));
#963 = DIRECTION('',(0.569197249934,-0.802228712772,-0.180121023405));
#964 = DIRECTION('',(-0.815567766808,-0.57866157445,1.082155944603E-17)
  );
#965 = DEFINITIONAL_REPRESENTATION('',(#966),#970);
#966 = LINE('',#967,#968);
#967 = CARTESIAN_POINT('',(1.955388723473,7.371203292436));
#968 = VECTOR('',#969,1.);
#969 = DIRECTION('',(-6.391810776965E-03,-0.999979572169));
#970 = ( GEOMETRIC_REPRESENTATION_CONTEXT(2) 
PARAMETRIC_REPRESENTATION_CONTEXT() REPRESENTATION_CONTEXT('2D SPACE',''
  ) );
#971 = ADVANCED_FACE('',(#972),#523,.T.);
#972 = FACE_BOUND('',#973,.T.);
#973 = EDGE_LOOP('',(#974,#995,#996));
#974 = ORIENTED_EDGE('',*,*,#975,.F.);
#975 = EDGE_CURVE('',#457,#786,#976,.T.);
#976 = SURFACE_CURVE('',#977,(#981,#988),.PCURVE_S1.);
#977 = LINE('',#978,#979);
#978 = CARTESIAN_POINT('',(-44.64031403255,39.095004616853,
    13.186331580274));
#979 = VECTOR('',#980,1.);
#980 = DIRECTION('',(0.309860889135,6.38223816838E-03,0.950760483203));
#981 = PCURVE('',#523,#982);
#982 = DEFINITIONAL_REPRESENTATION('',(#983),#987);
#983 = LINE('',#984,#985);
#984 = CARTESIAN_POINT('',(2.363151112525,7.250772362836));
#985 = VECTOR('',#986,1.);
#986 = DIRECTION('',(-0.309874670984,-0.950777412585));
#987 = ( GEOMETRIC_REPRESENTATION_CONTEXT(2) 
PARAMETRIC_REPRESENTATION_CONTEXT() REPRESENTATION_CONTEXT('2D SPACE',''
  ) );
#988 = PCURVE('',#960,#989);
#989 = DEFINITIONAL_REPRESENTATION('',(#990),#994);
#990 = LINE('',#991,#992);
#991 = CARTESIAN_POINT('',(1.955388723473,7.371203292436));
#992 = VECTOR('',#993,1.);
#993 = DIRECTION('',(-0.25640570936,-0.966569248532));
#994 = ( GEOMETRIC_REPRESENTATION_CONTEXT(2) 
PARAMETRIC_REPRESENTATION_CONTEXT() REPRESENTATION_CONTEXT('2D SPACE',''
  ) );
#995 = ORIENTED_EDGE('',*,*,#509,.T.);
#996 = ORIENTED_EDGE('',*,*,#785,.T.);
#997 = ADVANCED_FACE('',(#998),#960,.T.);
#998 = FACE_BOUND('',#999,.T.);
#999 = EDGE_LOOP('',(#1000,#1021,#1022));
#1000 = ORIENTED_EDGE('',*,*,#1001,.F.);
#1001 = EDGE_CURVE('',#923,#786,#1002,.T.);
#1002 = SURFACE_CURVE('',#1003,(#1007,#1014),.PCURVE_S1.);
#1003 = LINE('',#1004,#1005);
#1004 = CARTESIAN_POINT('',(-43.83278425806,38.038373731027,
    20.44424816092));
#1005 = VECTOR('',#1006,1.);
#1006 = DIRECTION('',(0.815157765233,0.579226458281,-3.811536178459E-03)
  );
#1007 = PCURVE('',#960,#1008);
#1008 = DEFINITIONAL_REPRESENTATION('',(#1009),#1013);
#1009 = LINE('',#1010,#1011);
#1010 = CARTESIAN_POINT('',(1.908225160663,-7.394260997936E-03));
#1011 = VECTOR('',#1012,1.);
#1012 = DIRECTION('',(-0.999992492498,3.874912477804E-03));
#1013 = ( GEOMETRIC_REPRESENTATION_CONTEXT(2) 
PARAMETRIC_REPRESENTATION_CONTEXT() REPRESENTATION_CONTEXT('2D SPACE',''
  ) );
#1014 = PCURVE('',#905,#1015);
#1015 = DEFINITIONAL_REPRESENTATION('',(#1016),#1020);
#1016 = LINE('',#1017,#1018);
#1017 = CARTESIAN_POINT('',(-1.105261075023,1.555562886842));
#1018 = VECTOR('',#1019,1.);
#1019 = DIRECTION('',(0.579204592864,-0.815182212518));
#1020 = ( GEOMETRIC_REPRESENTATION_CONTEXT(2) 
PARAMETRIC_REPRESENTATION_CONTEXT() REPRESENTATION_CONTEXT('2D SPACE',''
  ) );
#1021 = ORIENTED_EDGE('',*,*,#946,.F.);
#1022 = ORIENTED_EDGE('',*,*,#975,.T.);
#1023 = ADVANCED_FACE('',(#1024),#905,.T.);
#1024 = FACE_BOUND('',#1025,.T.);
#1025 = EDGE_LOOP('',(#1026,#1027,#1028));
#1026 = ORIENTED_EDGE('',*,*,#891,.F.);
#1027 = ORIENTED_EDGE('',*,*,#922,.T.);
#1028 = ORIENTED_EDGE('',*,*,#1001,.T.);
#1029 = ( GEOMETRIC_REPRESENTATION_CONTEXT(3) 
GLOBAL_UNCERTAINTY_ASSIGNED_CONTEXT((#1033)) 
GLOBAL_UNIT_ASSIGNED_CONTEXT((#1030,#1031,#1032)) REPRESENTATION_CONTEXT
('Context #1','3D Context with UNIT and UNCERTAINTY') );
#1030 = ( LENGTH_UNIT() NAMED_UNIT(*) SI_UNIT(.MILLI.,.METRE.) );
#1031 = ( NAMED_UNIT(*) PLANE_ANGLE_UNIT() SI_UNIT($,.RADIAN.) );
#1032 = ( NAMED_UNIT(*) SI_UNIT($,.STERADIAN.) SOLID_ANGLE_UNIT() );
#1033 = UNCERTAINTY_MEASURE_WITH_UNIT(LENGTH_MEASURE(1.E-07),#1030,
  'distance_accuracy_value','confusion accuracy');
#1034 = PRODUCT_TYPE('part',$,(#7));
ENDSEC;
END-ISO-10303-21;
