ISO-10303-21;
HEADER;
FILE_DESCRIPTION(('Open CASCADE Model'),'2;1');
FILE_NAME('Open CASCADE Shape Model','2026-10-04T20:47:58',('Author'),(
    'Open CASCADE'),'Open CASCADE STEP processor 7.8','Open CASCADE 7.8'
  ,'Unknown');
FILE_SCHEMA(('AUTOMOTIVE_DESIGN_CC2 { 1 2 10303 214 -1 1 5 4 }'));
ENDSEC;
DATA;
#1 = APPLICATION_PROTOCOL_DEFINITION('committee draft',
  'automotive_design',1997,#2);
#2 = APPLICATION_CONTEXT(
  'core data for automotive mechanical design processes');
#3 = SHAPE_DEFINITION_REPRESENTATION(#4,#10);
#4 = PRODUCT_DEFINITION_SHAPE('','',#5);
#5 = PRODUCT_DEFINITION('design','',#6,#9);
#6 = PRODUCT_DEFINITION_FORMATION('','',#7);
#7 = PRODUCT('Open CASCADE STEP translator 7.8 57',
  'Open CASCADE STEP translator 7.8 57','',(#8));
#8 = MECHANICAL_CONTEXT('',#2,'mechanical');
#9 = PRODUCT_DEFINITION_CONTEXT('part definition',#2,'design');
#10 = ADVANCED_BREP_SHAPE_REPRESENTATION('',(#11,#15),#1029);
#11 = AXIS2_PLACEMENT_3D('',#12,#13,#14);
#12 = CARTESIAN_POINT('',(0.,0.,0.));
#13 = DIRECTION('',(0.,0.,1.));
#14 = DIRECTION('',(1.,0.,-0.));
#15 = MANIFOLD_SOLID_BREP('',#16);
#16 = CLOSED_SHELL('',(#17,#109,#167,#225,#283,#341,#399,#457,#515,#573,
    #626,#684,#730,#756,#802,#808,#834,#860,#886,#892,#923,#971,#997,
    #1023));
#17 = ADVANCED_FACE('',(#18),#32,.T.);
#18 = FACE_BOUND('',#19,.T.);
#19 = EDGE_LOOP('',(#20,#55,#83));
#20 = ORIENTED_EDGE('',*,*,#21,.T.);
#21 = EDGE_CURVE('',#22,#24,#26,.T.);
#22 = VERTEX_POINT('',#23);
#23 = CARTESIAN_POINT('',(8.764278188146,-12.47967110839,22.348581638993
    ));
#24 = VERTEX_POINT('',#25);
#25 = CARTESIAN_POINT('',(10.233383405612,-14.11576753522,
    22.336163984646));
#26 = SURFACE_CURVE('',#27,(#31,#43),.PCURVE_S1.);
#27 = LINE('',#28,#29);
#28 = CARTESIAN_POINT('',(8.764278188146,-12.47967110839,22.348581638993
    ));
#29 = VECTOR('',#30,1.);
#30 = DIRECTION('',(0.668103996295,-0.74404647679,-5.647168354616E-03));
#31 = PCURVE('',#32,#37);
#32 = PLANE('',#33);
#33 = AXIS2_PLACEMENT_3D('',#34,#35,#36);
#34 = CARTESIAN_POINT('',(8.764278188146,-12.47967110839,22.348581638993
    ));
#35 = DIRECTION('',(0.744067020505,0.668095673295,3.527083984948E-03));
#36 = DIRECTION('',(-0.668099828996,0.744071648765,3.484246893309E-21));
#37 = DEFINITIONAL_REPRESENTATION('',(#38),#42);
#38 = LINE('',#39,#40);
#39 = CARTESIAN_POINT('',(0.,0.));
#40 = VECTOR('',#41,1.);
#41 = DIRECTION('',(-0.999984054419,-5.647203481239E-03));
#42 = ( GEOMETRIC_REPRESENTATION_CONTEXT(2) 
PARAMETRIC_REPRESENTATION_CONTEXT() REPRESENTATION_CONTEXT('2D SPACE',''
  ) );
#43 = PCURVE('',#44,#49);
#44 = PLANE('',#45);
#45 = AXIS2_PLACEMENT_3D('',#46,#47,#48);
#46 = CARTESIAN_POINT('',(8.764278188146,-12.47967110839,22.348581638993
    ));
#47 = DIRECTION('',(1.60727016697E-03,-6.146431586082E-03,0.999979818827
    ));
#48 = DIRECTION('',(7.600867073088E-22,0.999981110462,6.146439525189E-03
    ));
#49 = DEFINITIONAL_REPRESENTATION('',(#50),#54);
#50 = LINE('',#51,#52);
#51 = CARTESIAN_POINT('',(0.,0.));
#52 = VECTOR('',#53,1.);
#53 = DIRECTION('',(-0.744067132075,-0.668104859259));
#54 = ( GEOMETRIC_REPRESENTATION_CONTEXT(2) 
PARAMETRIC_REPRESENTATION_CONTEXT() REPRESENTATION_CONTEXT('2D SPACE',''
  ) );
#55 = ORIENTED_EDGE('',*,*,#56,.F.);
#56 = EDGE_CURVE('',#57,#24,#59,.T.);
#57 = VERTEX_POINT('',#58);
#58 = CARTESIAN_POINT('',(10.200075529056,-14.0515178041,17.192630409331
    ));
#59 = SURFACE_CURVE('',#60,(#64,#71),.PCURVE_S1.);
#60 = LINE('',#61,#62);
#61 = CARTESIAN_POINT('',(10.200075529056,-14.0515178041,17.192630409331
    ));
#62 = VECTOR('',#63,1.);
#63 = DIRECTION('',(6.47503892078E-03,-1.249012403759E-02,0.999901030439
    ));
#64 = PCURVE('',#32,#65);
#65 = DEFINITIONAL_REPRESENTATION('',(#66),#70);
#66 = LINE('',#67,#68);
#67 = CARTESIAN_POINT('',(-2.128822520421,-5.155983300807));
#68 = VECTOR('',#69,1.);
#69 = DIRECTION('',(-1.361951958164E-02,0.999907250042));
#70 = ( GEOMETRIC_REPRESENTATION_CONTEXT(2) 
PARAMETRIC_REPRESENTATION_CONTEXT() REPRESENTATION_CONTEXT('2D SPACE',''
  ) );
#71 = PCURVE('',#72,#77);
#72 = PLANE('',#73);
#73 = AXIS2_PLACEMENT_3D('',#74,#75,#76);
#74 = CARTESIAN_POINT('',(10.233383405612,-14.11576753522,
    22.336163984646));
#75 = DIRECTION('',(0.76651434867,-0.642095911732,-1.298435287825E-02));
#76 = DIRECTION('',(0.64215004515,0.766578971479,1.290557244096E-19));
#77 = DEFINITIONAL_REPRESENTATION('',(#78),#82);
#78 = LINE('',#79,#80);
#79 = CARTESIAN_POINT('',(2.786383836132E-02,-5.143967213105));
#80 = VECTOR('',#81,1.);
#81 = DIRECTION('',(-5.416719903058E-03,0.999985329465));
#82 = ( GEOMETRIC_REPRESENTATION_CONTEXT(2) 
PARAMETRIC_REPRESENTATION_CONTEXT() REPRESENTATION_CONTEXT('2D SPACE',''
  ) );
#83 = ORIENTED_EDGE('',*,*,#84,.F.);
#84 = EDGE_CURVE('',#22,#57,#85,.T.);
#85 = SURFACE_CURVE('',#86,(#90,#97),.PCURVE_S1.);
#86 = LINE('',#87,#88);
#87 = CARTESIAN_POINT('',(8.764278188146,-12.47967110839,22.348581638993
    ));
#88 = VECTOR('',#89,1.);
#89 = DIRECTION('',(0.257395482537,-0.281785059207,-0.924307711737));
#90 = PCURVE('',#32,#91);
#91 = DEFINITIONAL_REPRESENTATION('',(#92),#96);
#92 = LINE('',#93,#94);
#93 = CARTESIAN_POINT('',(0.,0.));
#94 = VECTOR('',#95,1.);
#95 = DIRECTION('',(-0.381634151469,-0.924313461134));
#96 = ( GEOMETRIC_REPRESENTATION_CONTEXT(2) 
PARAMETRIC_REPRESENTATION_CONTEXT() REPRESENTATION_CONTEXT('2D SPACE',''
  ) );
#97 = PCURVE('',#98,#103);
#98 = PLANE('',#99);
#99 = AXIS2_PLACEMENT_3D('',#100,#101,#102);
#100 = CARTESIAN_POINT('',(8.764278188146,-12.47967110839,
    22.348581638993));
#101 = DIRECTION('',(0.741895846217,0.670511577057,2.185954810819E-03));
#102 = DIRECTION('',(-0.670513179048,0.741897618761,4.517550315001E-20)
  );
#103 = DEFINITIONAL_REPRESENTATION('',(#104),#108);
#104 = LINE('',#105,#106);
#105 = CARTESIAN_POINT('',(0.,0.));
#106 = VECTOR('',#107,1.);
#107 = DIRECTION('',(-0.381642727696,-0.924309920101));
#108 = ( GEOMETRIC_REPRESENTATION_CONTEXT(2) 
PARAMETRIC_REPRESENTATION_CONTEXT() REPRESENTATION_CONTEXT('2D SPACE',''
  ) );
#109 = ADVANCED_FACE('',(#110),#98,.T.);
#110 = FACE_BOUND('',#111,.T.);
#111 = EDGE_LOOP('',(#112,#113,#141));
#112 = ORIENTED_EDGE('',*,*,#84,.T.);
#113 = ORIENTED_EDGE('',*,*,#114,.F.);
#114 = EDGE_CURVE('',#115,#57,#117,.T.);
#115 = VERTEX_POINT('',#116);
#116 = CARTESIAN_POINT('',(8.777614609024,-12.47770835942,
    17.220259174584));
#117 = SURFACE_CURVE('',#118,(#122,#129),.PCURVE_S1.);
#118 = LINE('',#119,#120);
#119 = CARTESIAN_POINT('',(8.777614609024,-12.47770835942,
    17.220259174584));
#120 = VECTOR('',#121,1.);
#121 = DIRECTION('',(0.670477438726,-0.741815617328,-1.302282790435E-02)
  );
#122 = PCURVE('',#98,#123);
#123 = DEFINITIONAL_REPRESENTATION('',(#124),#128);
#124 = LINE('',#125,#126);
#125 = CARTESIAN_POINT('',(-7.486087170105E-03,-5.128334717037));
#126 = VECTOR('',#127,1.);
#127 = DIRECTION('',(-0.999915198976,-1.302285901859E-02));
#128 = ( GEOMETRIC_REPRESENTATION_CONTEXT(2) 
PARAMETRIC_REPRESENTATION_CONTEXT() REPRESENTATION_CONTEXT('2D SPACE',''
  ) );
#129 = PCURVE('',#130,#135);
#130 = PLANE('',#131);
#131 = AXIS2_PLACEMENT_3D('',#132,#133,#134);
#132 = CARTESIAN_POINT('',(23.402097219178,-23.31703010571,
    17.228500721526));
#133 = DIRECTION('',(-4.102830708102E-02,-5.459709313634E-02,
    0.997665192055));
#134 = DIRECTION('',(-8.582567656213E-20,0.998505949528,
    5.464310347567E-02));
#135 = DEFINITIONAL_REPRESENTATION('',(#136),#140);
#136 = LINE('',#137,#138);
#137 = CARTESIAN_POINT('',(10.822676908823,14.636807028337));
#138 = VECTOR('',#139,1.);
#139 = DIRECTION('',(-0.741418915088,-0.671042466875));
#140 = ( GEOMETRIC_REPRESENTATION_CONTEXT(2) 
PARAMETRIC_REPRESENTATION_CONTEXT() REPRESENTATION_CONTEXT('2D SPACE',''
  ) );
#141 = ORIENTED_EDGE('',*,*,#142,.F.);
#142 = EDGE_CURVE('',#22,#115,#143,.T.);
#143 = SURFACE_CURVE('',#144,(#148,#155),.PCURVE_S1.);
#144 = LINE('',#145,#146);
#145 = CARTESIAN_POINT('',(8.764278188146,-12.47967110839,
    22.348581638993));
#146 = VECTOR('',#147,1.);
#147 = DIRECTION('',(2.600533585403E-03,3.827259706897E-04,
    -0.999996545367));
#148 = PCURVE('',#98,#149);
#149 = DEFINITIONAL_REPRESENTATION('',(#150),#154);
#150 = LINE('',#151,#152);
#151 = CARTESIAN_POINT('',(0.,0.));
#152 = VECTOR('',#153,1.);
#153 = DIRECTION('',(-1.459748555278E-03,-0.999998934567));
#154 = ( GEOMETRIC_REPRESENTATION_CONTEXT(2) 
PARAMETRIC_REPRESENTATION_CONTEXT() REPRESENTATION_CONTEXT('2D SPACE',''
  ) );
#155 = PCURVE('',#156,#161);
#156 = PLANE('',#157);
#157 = AXIS2_PLACEMENT_3D('',#158,#159,#160);
#158 = CARTESIAN_POINT('',(8.764278188146,-12.47967110839,
    22.348581638993));
#159 = DIRECTION('',(-0.986663976191,0.162751129679,-2.503572372429E-03)
  );
#160 = DIRECTION('',(-0.162751639734,-0.986667068349,-5.046486451515E-20
    ));
#161 = DEFINITIONAL_REPRESENTATION('',(#162),#166);
#162 = LINE('',#163,#164);
#163 = CARTESIAN_POINT('',(-0.,0.));
#164 = VECTOR('',#165,1.);
#165 = DIRECTION('',(-8.008642166881E-04,-0.999999679308));
#166 = ( GEOMETRIC_REPRESENTATION_CONTEXT(2) 
PARAMETRIC_REPRESENTATION_CONTEXT() REPRESENTATION_CONTEXT('2D SPACE',''
  ) );
#167 = ADVANCED_FACE('',(#168),#130,.T.);
#168 = FACE_BOUND('',#169,.T.);
#169 = EDGE_LOOP('',(#170,#198,#199));
#170 = ORIENTED_EDGE('',*,*,#171,.F.);
#171 = EDGE_CURVE('',#115,#172,#174,.T.);
#172 = VERTEX_POINT('',#173);
#173 = CARTESIAN_POINT('',(23.402097219178,-23.31703010571,
    17.228500721526));
#174 = SURFACE_CURVE('',#175,(#179,#186),.PCURVE_S1.);
#175 = LINE('',#176,#177);
#176 = CARTESIAN_POINT('',(8.777614609024,-12.47770835942,
    17.220259174584));
#177 = VECTOR('',#178,1.);
#178 = DIRECTION('',(0.803389662626,-0.595453478457,4.527458368293E-04)
  );
#179 = PCURVE('',#130,#180);
#180 = DEFINITIONAL_REPRESENTATION('',(#181),#185);
#181 = LINE('',#182,#183);
#182 = CARTESIAN_POINT('',(10.822676908823,14.636807028337));
#183 = VECTOR('',#184,1.);
#184 = DIRECTION('',(-0.594539101469,-0.804066699239));
#185 = ( GEOMETRIC_REPRESENTATION_CONTEXT(2) 
PARAMETRIC_REPRESENTATION_CONTEXT() REPRESENTATION_CONTEXT('2D SPACE',''
  ) );
#186 = PCURVE('',#187,#192);
#187 = PLANE('',#188);
#188 = AXIS2_PLACEMENT_3D('',#189,#190,#191);
#189 = CARTESIAN_POINT('',(23.45427286216,23.295089410885,
    17.213477014043));
#190 = DIRECTION('',(-3.243843148903E-04,3.226763988953E-04,
    0.999999895327));
#191 = DIRECTION('',(0.999999947387,5.000255212395E-24,
    3.243843317777E-04));
#192 = DEFINITIONAL_REPRESENTATION('',(#193),#197);
#193 = LINE('',#194,#195);
#194 = CARTESIAN_POINT('',(-14.67665528093,-35.77279963263));
#195 = VECTOR('',#196,1.);
#196 = DIRECTION('',(0.803389767221,-0.595453509457));
#197 = ( GEOMETRIC_REPRESENTATION_CONTEXT(2) 
PARAMETRIC_REPRESENTATION_CONTEXT() REPRESENTATION_CONTEXT('2D SPACE',''
  ) );
#198 = ORIENTED_EDGE('',*,*,#114,.T.);
#199 = ORIENTED_EDGE('',*,*,#200,.T.);
#200 = EDGE_CURVE('',#57,#172,#201,.T.);
#201 = SURFACE_CURVE('',#202,(#206,#213),.PCURVE_S1.);
#202 = LINE('',#203,#204);
#203 = CARTESIAN_POINT('',(10.200075529056,-14.0515178041,
    17.192630409331));
#204 = VECTOR('',#205,1.);
#205 = DIRECTION('',(0.818527389939,-0.574463198038,2.223964912873E-03)
  );
#206 = PCURVE('',#130,#207);
#207 = DEFINITIONAL_REPRESENTATION('',(#208),#212);
#208 = LINE('',#209,#210);
#209 = CARTESIAN_POINT('',(9.249709093399,13.213147364822));
#210 = VECTOR('',#211,1.);
#211 = DIRECTION('',(-0.573483396681,-0.819217183493));
#212 = ( GEOMETRIC_REPRESENTATION_CONTEXT(2) 
PARAMETRIC_REPRESENTATION_CONTEXT() REPRESENTATION_CONTEXT('2D SPACE',''
  ) );
#213 = PCURVE('',#214,#219);
#214 = PLANE('',#215);
#215 = AXIS2_PLACEMENT_3D('',#216,#217,#218);
#216 = CARTESIAN_POINT('',(23.402097219178,-23.31703010571,
    17.228500721526));
#217 = DIRECTION('',(1.183406484453E-02,2.073211546384E-02,
    0.999715026544));
#218 = DIRECTION('',(1.625195116049E-20,0.999785036488,
    -2.073356733183E-02));
#219 = DEFINITIONAL_REPRESENTATION('',(#220),#224);
#220 = LINE('',#221,#222);
#221 = CARTESIAN_POINT('',(9.264264274079,13.202946226393));
#222 = VECTOR('',#223,1.);
#223 = DIRECTION('',(-0.574385820138,-0.818584711331));
#224 = ( GEOMETRIC_REPRESENTATION_CONTEXT(2) 
PARAMETRIC_REPRESENTATION_CONTEXT() REPRESENTATION_CONTEXT('2D SPACE',''
  ) );
#225 = ADVANCED_FACE('',(#226),#214,.T.);
#226 = FACE_BOUND('',#227,.T.);
#227 = EDGE_LOOP('',(#228,#229,#257));
#228 = ORIENTED_EDGE('',*,*,#200,.F.);
#229 = ORIENTED_EDGE('',*,*,#230,.F.);
#230 = EDGE_CURVE('',#231,#57,#233,.T.);
#231 = VERTEX_POINT('',#232);
#232 = CARTESIAN_POINT('',(8.258899448374,-15.62194257123,
    17.248176469696));
#233 = SURFACE_CURVE('',#234,(#238,#245),.PCURVE_S1.);
#234 = LINE('',#235,#236);
#235 = CARTESIAN_POINT('',(8.258899448374,-15.62194257123,
    17.248176469696));
#236 = VECTOR('',#237,1.);
#237 = DIRECTION('',(0.777249073068,0.628799832595,-2.22407046745E-02));
#238 = PCURVE('',#214,#239);
#239 = DEFINITIONAL_REPRESENTATION('',(#240),#244);
#240 = LINE('',#241,#242);
#241 = CARTESIAN_POINT('',(7.693025422996,15.144258247444));
#242 = VECTOR('',#243,1.);
#243 = DIRECTION('',(0.629125792722,-0.777303503743));
#244 = ( GEOMETRIC_REPRESENTATION_CONTEXT(2) 
PARAMETRIC_REPRESENTATION_CONTEXT() REPRESENTATION_CONTEXT('2D SPACE',''
  ) );
#245 = PCURVE('',#246,#251);
#246 = PLANE('',#247);
#247 = AXIS2_PLACEMENT_3D('',#248,#249,#250);
#248 = CARTESIAN_POINT('',(8.928347289673,-15.67352830358,
    22.328686709372));
#249 = DIRECTION('',(0.624829771268,-0.775532373674,-9.020695272528E-02)
  );
#250 = DIRECTION('',(-0.778707129901,-0.62738760415,-8.043969884739E-18)
  );
#251 = DEFINITIONAL_REPRESENTATION('',(#252),#256);
#252 = LINE('',#253,#254);
#253 = CARTESIAN_POINT('',(0.48893955809,5.101308058134));
#254 = VECTOR('',#255,1.);
#255 = DIRECTION('',(-0.999750615368,2.233175028142E-02));
#256 = ( GEOMETRIC_REPRESENTATION_CONTEXT(2) 
PARAMETRIC_REPRESENTATION_CONTEXT() REPRESENTATION_CONTEXT('2D SPACE',''
  ) );
#257 = ORIENTED_EDGE('',*,*,#258,.T.);
#258 = EDGE_CURVE('',#231,#172,#259,.T.);
#259 = SURFACE_CURVE('',#260,(#264,#271),.PCURVE_S1.);
#260 = LINE('',#261,#262);
#261 = CARTESIAN_POINT('',(8.258899448374,-15.62194257123,
    17.248176469696));
#262 = VECTOR('',#263,1.);
#263 = DIRECTION('',(0.891499707021,-0.453019790557,-1.158336831778E-03)
  );
#264 = PCURVE('',#214,#265);
#265 = DEFINITIONAL_REPRESENTATION('',(#266),#270);
#266 = LINE('',#267,#268);
#267 = CARTESIAN_POINT('',(7.693025422996,15.144258247444));
#268 = VECTOR('',#269,1.);
#269 = DIRECTION('',(-0.452898391378,-0.891562138658));
#270 = ( GEOMETRIC_REPRESENTATION_CONTEXT(2) 
PARAMETRIC_REPRESENTATION_CONTEXT() REPRESENTATION_CONTEXT('2D SPACE',''
  ) );
#271 = PCURVE('',#272,#277);
#272 = PLANE('',#273);
#273 = AXIS2_PLACEMENT_3D('',#274,#275,#276);
#274 = CARTESIAN_POINT('',(23.402097219178,-23.31703010571,
    17.228500721526));
#275 = DIRECTION('',(-4.462103248815E-04,-3.435007231501E-03,
    0.999994000793));
#276 = DIRECTION('',(-5.004591124354E-25,0.999994100344,
    3.435007573462E-03));
#277 = DEFINITIONAL_REPRESENTATION('',(#278),#282);
#278 = LINE('',#279,#280);
#279 = CARTESIAN_POINT('',(7.69510972246,15.143199278337));
#280 = VECTOR('',#281,1.);
#281 = DIRECTION('',(-0.453021096792,-0.891499795772));
#282 = ( GEOMETRIC_REPRESENTATION_CONTEXT(2) 
PARAMETRIC_REPRESENTATION_CONTEXT() REPRESENTATION_CONTEXT('2D SPACE',''
  ) );
#283 = ADVANCED_FACE('',(#284),#272,.T.);
#284 = FACE_BOUND('',#285,.T.);
#285 = EDGE_LOOP('',(#286,#287,#315));
#286 = ORIENTED_EDGE('',*,*,#258,.F.);
#287 = ORIENTED_EDGE('',*,*,#288,.F.);
#288 = EDGE_CURVE('',#289,#231,#291,.T.);
#289 = VERTEX_POINT('',#290);
#290 = CARTESIAN_POINT('',(-23.39596507139,-23.31261337598,
    17.207633989263));
#291 = SURFACE_CURVE('',#292,(#296,#303),.PCURVE_S1.);
#292 = LINE('',#293,#294);
#293 = CARTESIAN_POINT('',(-23.39596507139,-23.31261337598,
    17.207633989263));
#294 = VECTOR('',#295,1.);
#295 = DIRECTION('',(0.971731399098,0.23608587225,1.2445607281E-03));
#296 = PCURVE('',#272,#297);
#297 = DEFINITIONAL_REPRESENTATION('',(#298),#302);
#298 = LINE('',#299,#300);
#299 = CARTESIAN_POINT('',(4.345026296805E-03,46.798066949403));
#300 = VECTOR('',#301,1.);
#301 = DIRECTION('',(0.2360887545,-0.971731495835));
#302 = ( GEOMETRIC_REPRESENTATION_CONTEXT(2) 
PARAMETRIC_REPRESENTATION_CONTEXT() REPRESENTATION_CONTEXT('2D SPACE',''
  ) );
#303 = PCURVE('',#304,#309);
#304 = PLANE('',#305);
#305 = AXIS2_PLACEMENT_3D('',#306,#307,#308);
#306 = CARTESIAN_POINT('',(8.258899448374,-15.62194257123,
    17.248176469696));
#307 = DIRECTION('',(-3.581290753347E-03,9.469248225255E-03,
    0.999948752534));
#308 = DIRECTION('',(6.141427783493E-23,0.999955165089,
    -9.469308950439E-03));
#309 = DEFINITIONAL_REPRESENTATION('',(#310),#314);
#310 = LINE('',#311,#312);
#311 = CARTESIAN_POINT('',(-7.689942084933,31.655067518722));
#312 = VECTOR('',#313,1.);
#313 = DIRECTION('',(0.236063502231,-0.971737630698));
#314 = ( GEOMETRIC_REPRESENTATION_CONTEXT(2) 
PARAMETRIC_REPRESENTATION_CONTEXT() REPRESENTATION_CONTEXT('2D SPACE',''
  ) );
#315 = ORIENTED_EDGE('',*,*,#316,.T.);
#316 = EDGE_CURVE('',#289,#172,#317,.T.);
#317 = SURFACE_CURVE('',#318,(#322,#329),.PCURVE_S1.);
#318 = LINE('',#319,#320);
#319 = CARTESIAN_POINT('',(-23.39596507139,-23.31261337598,
    17.207633989263));
#320 = VECTOR('',#321,1.);
#321 = DIRECTION('',(0.999999896138,-9.437846488593E-05,
    4.458887628069E-04));
#322 = PCURVE('',#272,#323);
#323 = DEFINITIONAL_REPRESENTATION('',(#324),#328);
#324 = LINE('',#325,#326);
#325 = CARTESIAN_POINT('',(4.345026296805E-03,46.798066949403));
#326 = VECTOR('',#327,1.);
#327 = DIRECTION('',(-9.284627680829E-05,-0.99999999569));
#328 = ( GEOMETRIC_REPRESENTATION_CONTEXT(2) 
PARAMETRIC_REPRESENTATION_CONTEXT() REPRESENTATION_CONTEXT('2D SPACE',''
  ) );
#329 = PCURVE('',#330,#335);
#330 = PLANE('',#331);
#331 = AXIS2_PLACEMENT_3D('',#332,#333,#334);
#332 = CARTESIAN_POINT('',(23.402097219178,-23.31703010571,
    17.228500721526));
#333 = DIRECTION('',(-9.285738742768E-05,-0.999994181184,
    -3.410128396387E-03));
#334 = DIRECTION('',(-1.326220286234E-23,3.410128411089E-03,
    -0.999994185495));
#335 = DEFINITIONAL_REPRESENTATION('',(#336),#340);
#336 = LINE('',#337,#338);
#337 = CARTESIAN_POINT('',(2.088167254961E-02,-46.79806249232));
#338 = VECTOR('',#339,1.);
#339 = DIRECTION('',(-4.46208012869E-04,0.999999900449));
#340 = ( GEOMETRIC_REPRESENTATION_CONTEXT(2) 
PARAMETRIC_REPRESENTATION_CONTEXT() REPRESENTATION_CONTEXT('2D SPACE',''
  ) );
#341 = ADVANCED_FACE('',(#342),#330,.T.);
#342 = FACE_BOUND('',#343,.T.);
#343 = EDGE_LOOP('',(#344,#345,#373));
#344 = ORIENTED_EDGE('',*,*,#316,.F.);
#345 = ORIENTED_EDGE('',*,*,#346,.F.);
#346 = EDGE_CURVE('',#347,#289,#349,.T.);
#347 = VERTEX_POINT('',#348);
#348 = CARTESIAN_POINT('',(-23.39939361087,-23.2539275623,
    -1.440570542975E-03));
#349 = SURFACE_CURVE('',#350,(#354,#361),.PCURVE_S1.);
#350 = LINE('',#351,#352);
#351 = CARTESIAN_POINT('',(-23.39939361087,-23.2539275623,
    -1.440570542975E-03));
#352 = VECTOR('',#353,1.);
#353 = DIRECTION('',(1.992274171321E-04,-3.410146843042E-03,
    0.999994165586));
#354 = PCURVE('',#330,#355);
#355 = DEFINITIONAL_REPRESENTATION('',(#356),#360);
#356 = LINE('',#357,#358);
#357 = CARTESIAN_POINT('',(17.230056296269,-46.80149103182));
#358 = VECTOR('',#359,1.);
#359 = DIRECTION('',(-0.999999980154,1.992274179911E-04));
#360 = ( GEOMETRIC_REPRESENTATION_CONTEXT(2) 
PARAMETRIC_REPRESENTATION_CONTEXT() REPRESENTATION_CONTEXT('2D SPACE',''
  ) );
#361 = PCURVE('',#362,#367);
#362 = PLANE('',#363);
#363 = AXIS2_PLACEMENT_3D('',#364,#365,#366);
#364 = CARTESIAN_POINT('',(-23.39596507139,-23.31261337598,
    17.207633989263));
#365 = DIRECTION('',(-0.999999579903,-8.953818242696E-04,
    1.961750945026E-04));
#366 = DIRECTION('',(8.953818414989E-04,-0.999999599146,
    -5.821876768462E-24));
#367 = DEFINITIONAL_REPRESENTATION('',(#368),#372);
#368 = LINE('',#369,#370);
#369 = CARTESIAN_POINT('',(-5.868886000663E-02,-17.20907489094));
#370 = VECTOR('',#371,1.);
#371 = DIRECTION('',(3.410323860681E-03,0.999994184829));
#372 = ( GEOMETRIC_REPRESENTATION_CONTEXT(2) 
PARAMETRIC_REPRESENTATION_CONTEXT() REPRESENTATION_CONTEXT('2D SPACE',''
  ) );
#373 = ORIENTED_EDGE('',*,*,#374,.T.);
#374 = EDGE_CURVE('',#347,#172,#375,.T.);
#375 = SURFACE_CURVE('',#376,(#380,#387),.PCURVE_S1.);
#376 = LINE('',#377,#378);
#377 = CARTESIAN_POINT('',(-23.39939361087,-23.2539275623,
    -1.440570542975E-03));
#378 = VECTOR('',#379,1.);
#379 = DIRECTION('',(0.938425030839,-1.265280340463E-03,0.345480622553)
  );
#380 = PCURVE('',#330,#381);
#381 = DEFINITIONAL_REPRESENTATION('',(#382),#386);
#382 = LINE('',#383,#384);
#383 = CARTESIAN_POINT('',(17.230056296269,-46.80149103182));
#384 = VECTOR('',#385,1.);
#385 = DIRECTION('',(-0.345482928523,0.938425034885));
#386 = ( GEOMETRIC_REPRESENTATION_CONTEXT(2) 
PARAMETRIC_REPRESENTATION_CONTEXT() REPRESENTATION_CONTEXT('2D SPACE',''
  ) );
#387 = PCURVE('',#388,#393);
#388 = PLANE('',#389);
#389 = AXIS2_PLACEMENT_3D('',#390,#391,#392);
#390 = CARTESIAN_POINT('',(23.402097219178,-23.31703010571,
    17.228500721526));
#391 = DIRECTION('',(2.460701584887E-04,-0.999990592025,
    -4.330740235877E-03));
#392 = DIRECTION('',(-2.485331868723E-22,4.330740366991E-03,
    -0.9999906223));
#393 = DEFINITIONAL_REPRESENTATION('',(#394),#398);
#394 = LINE('',#395,#396);
#395 = CARTESIAN_POINT('',(17.23005299558,-46.80149224697));
#396 = VECTOR('',#397,1.);
#397 = DIRECTION('',(-0.34548286234,0.938425059251));
#398 = ( GEOMETRIC_REPRESENTATION_CONTEXT(2) 
PARAMETRIC_REPRESENTATION_CONTEXT() REPRESENTATION_CONTEXT('2D SPACE',''
  ) );
#399 = ADVANCED_FACE('',(#400),#362,.T.);
#400 = FACE_BOUND('',#401,.T.);
#401 = EDGE_LOOP('',(#402,#430,#456));
#402 = ORIENTED_EDGE('',*,*,#403,.F.);
#403 = EDGE_CURVE('',#404,#289,#406,.T.);
#404 = VERTEX_POINT('',#405);
#405 = CARTESIAN_POINT('',(-23.43766606624,23.259104242417,
    17.199947704303));
#406 = SURFACE_CURVE('',#407,(#411,#418),.PCURVE_S1.);
#407 = LINE('',#408,#409);
#408 = CARTESIAN_POINT('',(-23.43766606624,23.259104242417,
    17.199947704303));
#409 = VECTOR('',#410,1.);
#410 = DIRECTION('',(8.954142063897E-04,-0.999999585497,
    1.650418358286E-04));
#411 = PCURVE('',#362,#412);
#412 = DEFINITIONAL_REPRESENTATION('',(#413),#417);
#413 = LINE('',#414,#415);
#414 = CARTESIAN_POINT('',(-46.57173628823,-7.686285107321E-03));
#415 = VECTOR('',#416,1.);
#416 = DIRECTION('',(0.999999986381,1.650418390044E-04));
#417 = ( GEOMETRIC_REPRESENTATION_CONTEXT(2) 
PARAMETRIC_REPRESENTATION_CONTEXT() REPRESENTATION_CONTEXT('2D SPACE',''
  ) );
#418 = PCURVE('',#419,#424);
#419 = PLANE('',#420);
#420 = AXIS2_PLACEMENT_3D('',#421,#422,#423);
#421 = CARTESIAN_POINT('',(-23.43766606624,23.259104242417,
    17.199947704303));
#422 = DIRECTION('',(-4.478535563892E-04,1.646408708476E-04,
    0.99999988616));
#423 = DIRECTION('',(0.999999899714,2.316058954424E-25,
    4.478535624591E-04));
#424 = DEFINITIONAL_REPRESENTATION('',(#425),#429);
#425 = LINE('',#426,#427);
#426 = CARTESIAN_POINT('',(0.,0.));
#427 = VECTOR('',#428,1.);
#428 = DIRECTION('',(8.954880311659E-04,-0.999999599051));
#429 = ( GEOMETRIC_REPRESENTATION_CONTEXT(2) 
PARAMETRIC_REPRESENTATION_CONTEXT() REPRESENTATION_CONTEXT('2D SPACE',''
  ) );
#430 = ORIENTED_EDGE('',*,*,#431,.T.);
#431 = EDGE_CURVE('',#404,#347,#432,.T.);
#432 = SURFACE_CURVE('',#433,(#437,#444),.PCURVE_S1.);
#433 = LINE('',#434,#435);
#434 = CARTESIAN_POINT('',(-23.43766606624,23.259104242417,
    17.199947704303));
#435 = VECTOR('',#436,1.);
#436 = DIRECTION('',(7.717489307004E-04,-0.937916896238,-0.346859193558)
  );
#437 = PCURVE('',#362,#438);
#438 = DEFINITIONAL_REPRESENTATION('',(#439),#443);
#439 = LINE('',#440,#441);
#440 = CARTESIAN_POINT('',(-46.57173628823,-7.686285107321E-03));
#441 = VECTOR('',#442,1.);
#442 = DIRECTION('',(0.937917211279,-0.346859200232));
#443 = ( GEOMETRIC_REPRESENTATION_CONTEXT(2) 
PARAMETRIC_REPRESENTATION_CONTEXT() REPRESENTATION_CONTEXT('2D SPACE',''
  ) );
#444 = PCURVE('',#445,#450);
#445 = PLANE('',#446);
#446 = AXIS2_PLACEMENT_3D('',#447,#448,#449);
#447 = CARTESIAN_POINT('',(-23.39939361087,-23.2539275623,
    -1.440570542975E-03));
#448 = DIRECTION('',(-0.999999646577,-6.081445243968E-04,
    -5.805226930695E-04));
#449 = DIRECTION('',(6.081446268712E-04,-0.99999981508,
    -2.967508288673E-23));
#450 = DEFINITIONAL_REPRESENTATION('',(#451),#455);
#451 = LINE('',#452,#453);
#452 = CARTESIAN_POINT('',(-46.51304647871,17.201391173337));
#453 = VECTOR('',#454,1.);
#454 = DIRECTION('',(0.937917192133,-0.346859252005));
#455 = ( GEOMETRIC_REPRESENTATION_CONTEXT(2) 
PARAMETRIC_REPRESENTATION_CONTEXT() REPRESENTATION_CONTEXT('2D SPACE',''
  ) );
#456 = ORIENTED_EDGE('',*,*,#346,.T.);
#457 = ADVANCED_FACE('',(#458),#445,.T.);
#458 = FACE_BOUND('',#459,.T.);
#459 = EDGE_LOOP('',(#460,#461,#489));
#460 = ORIENTED_EDGE('',*,*,#431,.F.);
#461 = ORIENTED_EDGE('',*,*,#462,.T.);
#462 = EDGE_CURVE('',#404,#463,#465,.T.);
#463 = VERTEX_POINT('',#464);
#464 = CARTESIAN_POINT('',(-23.42769094539,23.30161382425,
    -2.757745830163E-02));
#465 = SURFACE_CURVE('',#466,(#470,#477),.PCURVE_S1.);
#466 = LINE('',#467,#468);
#467 = CARTESIAN_POINT('',(-23.43766606624,23.259104242417,
    17.199947704303));
#468 = VECTOR('',#469,1.);
#469 = DIRECTION('',(5.790204178593E-04,2.467530587859E-03,
    -0.999996788009));
#470 = PCURVE('',#445,#471);
#471 = DEFINITIONAL_REPRESENTATION('',(#472),#476);
#472 = LINE('',#473,#474);
#473 = CARTESIAN_POINT('',(-46.51304647871,17.201391173337));
#474 = VECTOR('',#475,1.);
#475 = DIRECTION('',(-2.467178003408E-03,-0.999996956512));
#476 = ( GEOMETRIC_REPRESENTATION_CONTEXT(2) 
PARAMETRIC_REPRESENTATION_CONTEXT() REPRESENTATION_CONTEXT('2D SPACE',''
  ) );
#477 = PCURVE('',#478,#483);
#478 = PLANE('',#479);
#479 = AXIS2_PLACEMENT_3D('',#480,#481,#482);
#480 = CARTESIAN_POINT('',(23.45427286216,23.295089410885,
    17.213477014043));
#481 = DIRECTION('',(-7.681155253249E-04,0.999996661738,
    2.46708552028E-03));
#482 = DIRECTION('',(1.967205994685E-22,-2.467086248073E-03,
    0.999996956738));
#483 = DEFINITIONAL_REPRESENTATION('',(#484),#488);
#484 = LINE('',#485,#486);
#485 = CARTESIAN_POINT('',(-1.344049005282E-02,-46.89195276157));
#486 = VECTOR('',#487,1.);
#487 = DIRECTION('',(-0.999999832368,5.790205886708E-04));
#488 = ( GEOMETRIC_REPRESENTATION_CONTEXT(2) 
PARAMETRIC_REPRESENTATION_CONTEXT() REPRESENTATION_CONTEXT('2D SPACE',''
  ) );
#489 = ORIENTED_EDGE('',*,*,#490,.T.);
#490 = EDGE_CURVE('',#463,#347,#491,.T.);
#491 = SURFACE_CURVE('',#492,(#496,#503),.PCURVE_S1.);
#492 = LINE('',#493,#494);
#493 = CARTESIAN_POINT('',(-23.42769094539,23.30161382425,
    -2.757745830163E-02));
#494 = VECTOR('',#495,1.);
#495 = DIRECTION('',(6.078186181426E-04,-0.999999657686,
    5.614128422354E-04));
#496 = PCURVE('',#445,#497);
#497 = DEFINITIONAL_REPRESENTATION('',(#498),#502);
#498 = LINE('',#499,#500);
#499 = CARTESIAN_POINT('',(-46.55554998637,-2.613689216281E-02));
#500 = VECTOR('',#501,1.);
#501 = DIRECTION('',(0.999999842408,5.614129368353E-04));
#502 = ( GEOMETRIC_REPRESENTATION_CONTEXT(2) 
PARAMETRIC_REPRESENTATION_CONTEXT() REPRESENTATION_CONTEXT('2D SPACE',''
  ) );
#503 = PCURVE('',#504,#509);
#504 = PLANE('',#505);
#505 = AXIS2_PLACEMENT_3D('',#506,#507,#508);
#506 = CARTESIAN_POINT('',(23.412267042453,23.272589523277,
    -5.060016007075E-05));
#507 = DIRECTION('',(5.873311161871E-04,-5.610558583115E-04,
    -0.999999670129));
#508 = DIRECTION('',(-0.999999827521,5.260712466988E-23,
    -5.873312086282E-04));
#509 = DEFINITIONAL_REPRESENTATION('',(#510),#514);
#510 = LINE('',#511,#512);
#511 = CARTESIAN_POINT('',(46.839966076318,2.902430554046E-02));
#512 = VECTOR('',#513,1.);
#513 = DIRECTION('',(-6.081482485898E-04,-0.999999815078));
#514 = ( GEOMETRIC_REPRESENTATION_CONTEXT(2) 
PARAMETRIC_REPRESENTATION_CONTEXT() REPRESENTATION_CONTEXT('2D SPACE',''
  ) );
#515 = ADVANCED_FACE('',(#516),#478,.T.);
#516 = FACE_BOUND('',#517,.T.);
#517 = EDGE_LOOP('',(#518,#546,#547));
#518 = ORIENTED_EDGE('',*,*,#519,.F.);
#519 = EDGE_CURVE('',#463,#520,#522,.T.);
#520 = VERTEX_POINT('',#521);
#521 = CARTESIAN_POINT('',(23.45427286216,23.295089410885,
    17.213477014043));
#522 = SURFACE_CURVE('',#523,(#527,#534),.PCURVE_S1.);
#523 = LINE('',#524,#525);
#524 = CARTESIAN_POINT('',(-23.42769094539,23.30161382425,
    -2.757745830163E-02));
#525 = VECTOR('',#526,1.);
#526 = DIRECTION('',(0.938545873991,-1.306144356293E-04,0.345154494908)
  );
#527 = PCURVE('',#478,#528);
#528 = DEFINITIONAL_REPRESENTATION('',(#529),#533);
#529 = LINE('',#530,#531);
#530 = CARTESIAN_POINT('',(-17.24101809959,-46.88197763777));
#531 = VECTOR('',#532,1.);
#532 = DIRECTION('',(0.345153766749,0.938546150863));
#533 = ( GEOMETRIC_REPRESENTATION_CONTEXT(2) 
PARAMETRIC_REPRESENTATION_CONTEXT() REPRESENTATION_CONTEXT('2D SPACE',''
  ) );
#534 = PCURVE('',#535,#540);
#535 = PLANE('',#536);
#536 = AXIS2_PLACEMENT_3D('',#537,#538,#539);
#537 = CARTESIAN_POINT('',(23.45427286216,23.295089410885,
    17.213477014043));
#538 = DIRECTION('',(6.204167107277E-04,0.999998951301,
    -1.308617595941E-03));
#539 = DIRECTION('',(-6.366220210682E-25,1.308617847796E-03,
    0.999999143759));
#540 = DEFINITIONAL_REPRESENTATION('',(#541),#545);
#541 = LINE('',#542,#543);
#542 = CARTESIAN_POINT('',(-17.24103117188,-46.88197283038));
#543 = VECTOR('',#544,1.);
#544 = DIRECTION('',(0.345154028448,0.938546054622));
#545 = ( GEOMETRIC_REPRESENTATION_CONTEXT(2) 
PARAMETRIC_REPRESENTATION_CONTEXT() REPRESENTATION_CONTEXT('2D SPACE',''
  ) );
#546 = ORIENTED_EDGE('',*,*,#462,.F.);
#547 = ORIENTED_EDGE('',*,*,#548,.T.);
#548 = EDGE_CURVE('',#404,#520,#549,.T.);
#549 = SURFACE_CURVE('',#550,(#554,#561),.PCURVE_S1.);
#550 = LINE('',#551,#552);
#551 = CARTESIAN_POINT('',(-23.43766606624,23.259104242417,
    17.199947704303));
#552 = VECTOR('',#553,1.);
#553 = DIRECTION('',(0.999999663922,7.67406023205E-04,2.885209164429E-04
    ));
#554 = PCURVE('',#478,#555);
#555 = DEFINITIONAL_REPRESENTATION('',(#556),#560);
#556 = LINE('',#557,#558);
#557 = CARTESIAN_POINT('',(-1.344049005282E-02,-46.89195276157));
#558 = VECTOR('',#559,1.);
#559 = DIRECTION('',(2.866267815517E-04,0.999999958923));
#560 = ( GEOMETRIC_REPRESENTATION_CONTEXT(2) 
PARAMETRIC_REPRESENTATION_CONTEXT() REPRESENTATION_CONTEXT('2D SPACE',''
  ) );
#561 = PCURVE('',#562,#567);
#562 = PLANE('',#563);
#563 = AXIS2_PLACEMENT_3D('',#564,#565,#566);
#564 = CARTESIAN_POINT('',(23.45427286216,23.295089410885,
    17.213477014043));
#565 = DIRECTION('',(-2.887573945565E-04,3.080595933447E-04,
    0.999999910859));
#566 = DIRECTION('',(4.71764146803E-24,0.99999995255,-3.080596061878E-04
    ));
#567 = DEFINITIONAL_REPRESENTATION('',(#568),#572);
#568 = LINE('',#569,#570);
#569 = CARTESIAN_POINT('',(-3.598099892591E-02,46.891940883354));
#570 = VECTOR('',#571,1.);
#571 = DIRECTION('',(7.673171051514E-04,-0.999999705612));
#572 = ( GEOMETRIC_REPRESENTATION_CONTEXT(2) 
PARAMETRIC_REPRESENTATION_CONTEXT() REPRESENTATION_CONTEXT('2D SPACE',''
  ) );
#573 = ADVANCED_FACE('',(#574),#535,.T.);
#574 = FACE_BOUND('',#575,.T.);
#575 = EDGE_LOOP('',(#576,#604,#625));
#576 = ORIENTED_EDGE('',*,*,#577,.F.);
#577 = EDGE_CURVE('',#578,#520,#580,.T.);
#578 = VERTEX_POINT('',#579);
#579 = CARTESIAN_POINT('',(23.412267042453,23.272589523277,
    -5.060016007075E-05));
#580 = SURFACE_CURVE('',#581,(#585,#592),.PCURVE_S1.);
#581 = LINE('',#582,#583);
#582 = CARTESIAN_POINT('',(23.412267042453,23.272589523277,
    -5.060016007075E-05));
#583 = VECTOR('',#584,1.);
#584 = DIRECTION('',(2.440270216189E-03,1.307099968016E-03,
    0.999996168278));
#585 = PCURVE('',#535,#586);
#586 = DEFINITIONAL_REPRESENTATION('',(#587),#591);
#587 = LINE('',#588,#589);
#588 = CARTESIAN_POINT('',(-17.21354231903,-4.200582779148E-02));
#589 = VECTOR('',#590,1.);
#590 = DIRECTION('',(0.999997022535,2.44027068584E-03));
#591 = ( GEOMETRIC_REPRESENTATION_CONTEXT(2) 
PARAMETRIC_REPRESENTATION_CONTEXT() REPRESENTATION_CONTEXT('2D SPACE',''
  ) );
#592 = PCURVE('',#593,#598);
#593 = PLANE('',#594);
#594 = AXIS2_PLACEMENT_3D('',#595,#596,#597);
#595 = CARTESIAN_POINT('',(23.427454333558,-23.24236781391,
    -9.972539444862E-03));
#596 = DIRECTION('',(0.999996968016,3.270230137126E-04,
    -2.440699621182E-03));
#597 = DIRECTION('',(2.440699751691E-03,-1.066452749764E-24,
    0.999997021488));
#598 = DEFINITIONAL_REPRESENTATION('',(#599),#603);
#599 = LINE('',#600,#601);
#600 = CARTESIAN_POINT('',(9.884842114546E-03,-46.51495982443));
#601 = VECTOR('',#602,1.);
#602 = DIRECTION('',(0.999999145744,-1.30710003791E-03));
#603 = ( GEOMETRIC_REPRESENTATION_CONTEXT(2) 
PARAMETRIC_REPRESENTATION_CONTEXT() REPRESENTATION_CONTEXT('2D SPACE',''
  ) );
#604 = ORIENTED_EDGE('',*,*,#605,.F.);
#605 = EDGE_CURVE('',#463,#578,#606,.T.);
#606 = SURFACE_CURVE('',#607,(#611,#618),.PCURVE_S1.);
#607 = LINE('',#608,#609);
#608 = CARTESIAN_POINT('',(-23.42769094539,23.30161382425,
    -2.757745830163E-02));
#609 = VECTOR('',#610,1.);
#610 = DIRECTION('',(0.999999635335,-6.196480875507E-04,
    5.876787530556E-04));
#611 = PCURVE('',#535,#612);
#612 = DEFINITIONAL_REPRESENTATION('',(#613),#617);
#613 = LINE('',#614,#615);
#614 = CARTESIAN_POINT('',(-17.24103117188,-46.88197283038));
#615 = VECTOR('',#616,1.);
#616 = DIRECTION('',(5.868673673144E-04,0.999999827793));
#617 = ( GEOMETRIC_REPRESENTATION_CONTEXT(2) 
PARAMETRIC_REPRESENTATION_CONTEXT() REPRESENTATION_CONTEXT('2D SPACE',''
  ) );
#618 = PCURVE('',#504,#619);
#619 = DEFINITIONAL_REPRESENTATION('',(#620),#624);
#620 = LINE('',#621,#622);
#621 = CARTESIAN_POINT('',(46.839966076318,2.902430554046E-02));
#622 = VECTOR('',#623,1.);
#623 = DIRECTION('',(-0.999999808018,-6.196481850782E-04));
#624 = ( GEOMETRIC_REPRESENTATION_CONTEXT(2) 
PARAMETRIC_REPRESENTATION_CONTEXT() REPRESENTATION_CONTEXT('2D SPACE',''
  ) );
#625 = ORIENTED_EDGE('',*,*,#519,.T.);
#626 = ADVANCED_FACE('',(#627),#388,.T.);
#627 = FACE_BOUND('',#628,.T.);
#628 = EDGE_LOOP('',(#629,#630,#658));
#629 = ORIENTED_EDGE('',*,*,#374,.F.);
#630 = ORIENTED_EDGE('',*,*,#631,.T.);
#631 = EDGE_CURVE('',#347,#632,#634,.T.);
#632 = VERTEX_POINT('',#633);
#633 = CARTESIAN_POINT('',(23.427454333558,-23.24236781391,
    -9.972539444862E-03));
#634 = SURFACE_CURVE('',#635,(#639,#646),.PCURVE_S1.);
#635 = LINE('',#636,#637);
#636 = CARTESIAN_POINT('',(-23.39939361087,-23.2539275623,
    -1.440570542975E-03));
#637 = VECTOR('',#638,1.);
#638 = DIRECTION('',(0.999999952931,2.468615410472E-04,
    -1.822024943985E-04));
#639 = PCURVE('',#388,#640);
#640 = DEFINITIONAL_REPRESENTATION('',(#641),#645);
#641 = LINE('',#642,#643);
#642 = CARTESIAN_POINT('',(17.23005299558,-46.80149224697));
#643 = VECTOR('',#644,1.);
#644 = DIRECTION('',(1.83269878999E-04,0.999999983206));
#645 = ( GEOMETRIC_REPRESENTATION_CONTEXT(2) 
PARAMETRIC_REPRESENTATION_CONTEXT() REPRESENTATION_CONTEXT('2D SPACE',''
  ) );
#646 = PCURVE('',#647,#652);
#647 = PLANE('',#648);
#648 = AXIS2_PLACEMENT_3D('',#649,#650,#651);
#649 = CARTESIAN_POINT('',(23.412267042453,23.272589523277,
    -5.060016007075E-05));
#650 = DIRECTION('',(-1.822551382691E-04,2.1324691025E-04,
    -0.999999960654));
#651 = DIRECTION('',(-3.683792833513E-24,-0.999999977263,
    -2.132469137917E-04));
#652 = DEFINITIONAL_REPRESENTATION('',(#653),#657);
#653 = LINE('',#654,#655);
#654 = CARTESIAN_POINT('',(46.526516324107,46.811661430795));
#655 = VECTOR('',#656,1.);
#656 = DIRECTION('',(-2.468226813146E-04,-0.999999969539));
#657 = ( GEOMETRIC_REPRESENTATION_CONTEXT(2) 
PARAMETRIC_REPRESENTATION_CONTEXT() REPRESENTATION_CONTEXT('2D SPACE',''
  ) );
#658 = ORIENTED_EDGE('',*,*,#659,.F.);
#659 = EDGE_CURVE('',#172,#632,#660,.T.);
#660 = SURFACE_CURVE('',#661,(#665,#672),.PCURVE_S1.);
#661 = LINE('',#662,#663);
#662 = CARTESIAN_POINT('',(23.402097219178,-23.31703010571,
    17.228500721526));
#663 = VECTOR('',#664,1.);
#664 = DIRECTION('',(1.470945177891E-03,4.331097634151E-03,
    -0.999989538902));
#665 = PCURVE('',#388,#666);
#666 = DEFINITIONAL_REPRESENTATION('',(#667),#671);
#667 = LINE('',#668,#669);
#668 = CARTESIAN_POINT('',(0.,0.));
#669 = VECTOR('',#670,1.);
#670 = DIRECTION('',(0.999998918159,1.470945222424E-03));
#671 = ( GEOMETRIC_REPRESENTATION_CONTEXT(2) 
PARAMETRIC_REPRESENTATION_CONTEXT() REPRESENTATION_CONTEXT('2D SPACE',''
  ) );
#672 = PCURVE('',#673,#678);
#673 = PLANE('',#674);
#674 = AXIS2_PLACEMENT_3D('',#675,#676,#677);
#675 = CARTESIAN_POINT('',(23.402097219178,-23.31703010571,
    17.228500721526));
#676 = DIRECTION('',(0.999998299306,-1.11888342239E-03,
    1.466112020061E-03));
#677 = DIRECTION('',(-1.466112937775E-03,9.991450137834E-23,
    0.999998925256));
#678 = DEFINITIONAL_REPRESENTATION('',(#679),#683);
#679 = LINE('',#680,#681);
#680 = CARTESIAN_POINT('',(0.,-0.));
#681 = VECTOR('',#682,1.);
#682 = DIRECTION('',(-0.999990620741,-4.331100345204E-03));
#683 = ( GEOMETRIC_REPRESENTATION_CONTEXT(2) 
PARAMETRIC_REPRESENTATION_CONTEXT() REPRESENTATION_CONTEXT('2D SPACE',''
  ) );
#684 = ADVANCED_FACE('',(#685),#419,.T.);
#685 = FACE_BOUND('',#686,.T.);
#686 = EDGE_LOOP('',(#687,#688,#709));
#687 = ORIENTED_EDGE('',*,*,#403,.T.);
#688 = ORIENTED_EDGE('',*,*,#689,.T.);
#689 = EDGE_CURVE('',#289,#115,#690,.T.);
#690 = SURFACE_CURVE('',#691,(#695,#702),.PCURVE_S1.);
#691 = LINE('',#692,#693);
#692 = CARTESIAN_POINT('',(-23.39596507139,-23.31261337598,
    17.207633989263));
#693 = VECTOR('',#694,1.);
#694 = DIRECTION('',(0.947703328952,0.319152411857,3.718868175872E-04));
#695 = PCURVE('',#419,#696);
#696 = DEFINITIONAL_REPRESENTATION('',(#697),#701);
#697 = LINE('',#698,#699);
#698 = CARTESIAN_POINT('',(4.170443300472E-02,-46.57171824959));
#699 = VECTOR('',#700,1.);
#700 = DIRECTION('',(0.947703400461,0.319152416182));
#701 = ( GEOMETRIC_REPRESENTATION_CONTEXT(2) 
PARAMETRIC_REPRESENTATION_CONTEXT() REPRESENTATION_CONTEXT('2D SPACE',''
  ) );
#702 = PCURVE('',#304,#703);
#703 = DEFINITIONAL_REPRESENTATION('',(#704),#708);
#704 = LINE('',#705,#706);
#705 = CARTESIAN_POINT('',(-7.689942084933,31.655067518722));
#706 = VECTOR('',#707,1.);
#707 = DIRECTION('',(0.319134581176,-0.947709406463));
#708 = ( GEOMETRIC_REPRESENTATION_CONTEXT(2) 
PARAMETRIC_REPRESENTATION_CONTEXT() REPRESENTATION_CONTEXT('2D SPACE',''
  ) );
#709 = ORIENTED_EDGE('',*,*,#710,.F.);
#710 = EDGE_CURVE('',#404,#115,#711,.T.);
#711 = SURFACE_CURVE('',#712,(#716,#723),.PCURVE_S1.);
#712 = LINE('',#713,#714);
#713 = CARTESIAN_POINT('',(-23.43766606624,23.259104242417,
    17.199947704303));
#714 = VECTOR('',#715,1.);
#715 = DIRECTION('',(0.669563279881,-0.742754896329,4.221541571382E-04)
  );
#716 = PCURVE('',#419,#717);
#717 = DEFINITIONAL_REPRESENTATION('',(#718),#722);
#718 = LINE('',#719,#720);
#719 = CARTESIAN_POINT('',(0.,0.));
#720 = VECTOR('',#721,1.);
#721 = DIRECTION('',(0.669563401796,-0.742754906396));
#722 = ( GEOMETRIC_REPRESENTATION_CONTEXT(2) 
PARAMETRIC_REPRESENTATION_CONTEXT() REPRESENTATION_CONTEXT('2D SPACE',''
  ) );
#723 = PCURVE('',#562,#724);
#724 = DEFINITIONAL_REPRESENTATION('',(#725),#729);
#725 = LINE('',#726,#727);
#726 = CARTESIAN_POINT('',(-3.598099892591E-02,46.891940883354));
#727 = VECTOR('',#728,1.);
#728 = DIRECTION('',(-0.742754991134,-0.669563307795));
#729 = ( GEOMETRIC_REPRESENTATION_CONTEXT(2) 
PARAMETRIC_REPRESENTATION_CONTEXT() REPRESENTATION_CONTEXT('2D SPACE',''
  ) );
#730 = ADVANCED_FACE('',(#731),#304,.T.);
#731 = FACE_BOUND('',#732,.T.);
#732 = EDGE_LOOP('',(#733,#754,#755));
#733 = ORIENTED_EDGE('',*,*,#734,.T.);
#734 = EDGE_CURVE('',#231,#115,#735,.T.);
#735 = SURFACE_CURVE('',#736,(#740,#747),.PCURVE_S1.);
#736 = LINE('',#737,#738);
#737 = CARTESIAN_POINT('',(8.258899448374,-15.62194257123,
    17.248176469696));
#738 = VECTOR('',#739,1.);
#739 = DIRECTION('',(0.162767034085,0.986625639558,-8.760135947026E-03)
  );
#740 = PCURVE('',#304,#741);
#741 = DEFINITIONAL_REPRESENTATION('',(#742),#746);
#742 = LINE('',#743,#744);
#743 = CARTESIAN_POINT('',(0.,-0.));
#744 = VECTOR('',#745,1.);
#745 = DIRECTION('',(0.986664356719,-0.162768077891));
#746 = ( GEOMETRIC_REPRESENTATION_CONTEXT(2) 
PARAMETRIC_REPRESENTATION_CONTEXT() REPRESENTATION_CONTEXT('2D SPACE',''
  ) );
#747 = PCURVE('',#156,#748);
#748 = DEFINITIONAL_REPRESENTATION('',(#749),#753);
#749 = LINE('',#750,#751);
#750 = CARTESIAN_POINT('',(3.18262699078,-5.100421153722));
#751 = VECTOR('',#752,1.);
#752 = DIRECTION('',(-0.999961629032,-8.760163400872E-03));
#753 = ( GEOMETRIC_REPRESENTATION_CONTEXT(2) 
PARAMETRIC_REPRESENTATION_CONTEXT() REPRESENTATION_CONTEXT('2D SPACE',''
  ) );
#754 = ORIENTED_EDGE('',*,*,#689,.F.);
#755 = ORIENTED_EDGE('',*,*,#288,.T.);
#756 = ADVANCED_FACE('',(#757),#187,.T.);
#757 = FACE_BOUND('',#758,.T.);
#758 = EDGE_LOOP('',(#759,#780,#781));
#759 = ORIENTED_EDGE('',*,*,#760,.F.);
#760 = EDGE_CURVE('',#115,#520,#761,.T.);
#761 = SURFACE_CURVE('',#762,(#766,#773),.PCURVE_S1.);
#762 = LINE('',#763,#764);
#763 = CARTESIAN_POINT('',(8.777614609024,-12.47770835942,
    17.220259174584));
#764 = VECTOR('',#765,1.);
#765 = DIRECTION('',(0.379570487899,0.925162804025,-1.754015076846E-04)
  );
#766 = PCURVE('',#187,#767);
#767 = DEFINITIONAL_REPRESENTATION('',(#768),#772);
#768 = LINE('',#769,#770);
#769 = CARTESIAN_POINT('',(-14.67665528093,-35.77279963263));
#770 = VECTOR('',#771,1.);
#771 = DIRECTION('',(0.379570411031,0.925162852189));
#772 = ( GEOMETRIC_REPRESENTATION_CONTEXT(2) 
PARAMETRIC_REPRESENTATION_CONTEXT() REPRESENTATION_CONTEXT('2D SPACE',''
  ) );
#773 = PCURVE('',#562,#774);
#774 = DEFINITIONAL_REPRESENTATION('',(#775),#779);
#775 = LINE('',#776,#777);
#776 = CARTESIAN_POINT('',(-35.77279816218,14.676658865012));
#777 = VECTOR('',#778,1.);
#778 = DIRECTION('',(0.925162814159,-0.379570503723));
#779 = ( GEOMETRIC_REPRESENTATION_CONTEXT(2) 
PARAMETRIC_REPRESENTATION_CONTEXT() REPRESENTATION_CONTEXT('2D SPACE',''
  ) );
#780 = ORIENTED_EDGE('',*,*,#171,.T.);
#781 = ORIENTED_EDGE('',*,*,#782,.T.);
#782 = EDGE_CURVE('',#172,#520,#783,.T.);
#783 = SURFACE_CURVE('',#784,(#788,#795),.PCURVE_S1.);
#784 = LINE('',#785,#786);
#785 = CARTESIAN_POINT('',(23.402097219178,-23.31703010571,
    17.228500721526));
#786 = VECTOR('',#787,1.);
#787 = DIRECTION('',(1.119357114124E-03,0.999999321577,
    -3.223131118309E-04));
#788 = PCURVE('',#187,#789);
#789 = DEFINITIONAL_REPRESENTATION('',(#790),#794);
#790 = LINE('',#791,#792);
#791 = CARTESIAN_POINT('',(-5.217076678209E-02,-46.61212194323));
#792 = VECTOR('',#793,1.);
#793 = DIRECTION('',(1.119252501909E-03,0.999999373637));
#794 = ( GEOMETRIC_REPRESENTATION_CONTEXT(2) 
PARAMETRIC_REPRESENTATION_CONTEXT() REPRESENTATION_CONTEXT('2D SPACE',''
  ) );
#795 = PCURVE('',#673,#796);
#796 = DEFINITIONAL_REPRESENTATION('',(#797),#801);
#797 = LINE('',#798,#799);
#798 = CARTESIAN_POINT('',(0.,-0.));
#799 = VECTOR('',#800,1.);
#800 = DIRECTION('',(-3.239538693738E-04,-0.999999947527));
#801 = ( GEOMETRIC_REPRESENTATION_CONTEXT(2) 
PARAMETRIC_REPRESENTATION_CONTEXT() REPRESENTATION_CONTEXT('2D SPACE',''
  ) );
#802 = ADVANCED_FACE('',(#803),#562,.T.);
#803 = FACE_BOUND('',#804,.T.);
#804 = EDGE_LOOP('',(#805,#806,#807));
#805 = ORIENTED_EDGE('',*,*,#548,.F.);
#806 = ORIENTED_EDGE('',*,*,#710,.T.);
#807 = ORIENTED_EDGE('',*,*,#760,.T.);
#808 = ADVANCED_FACE('',(#809),#504,.T.);
#809 = FACE_BOUND('',#810,.T.);
#810 = EDGE_LOOP('',(#811,#832,#833));
#811 = ORIENTED_EDGE('',*,*,#812,.F.);
#812 = EDGE_CURVE('',#347,#578,#813,.T.);
#813 = SURFACE_CURVE('',#814,(#818,#825),.PCURVE_S1.);
#814 = LINE('',#815,#816);
#815 = CARTESIAN_POINT('',(-23.39939361087,-23.2539275623,
    -1.440570542975E-03));
#816 = VECTOR('',#817,1.);
#817 = DIRECTION('',(0.709263647987,0.704943314885,2.10600403962E-05));
#818 = PCURVE('',#504,#819);
#819 = DEFINITIONAL_REPRESENTATION('',(#820),#824);
#820 = LINE('',#821,#822);
#821 = CARTESIAN_POINT('',(46.81165339567,-46.52652440847));
#822 = VECTOR('',#823,1.);
#823 = DIRECTION('',(-0.709263538023,0.704943425837));
#824 = ( GEOMETRIC_REPRESENTATION_CONTEXT(2) 
PARAMETRIC_REPRESENTATION_CONTEXT() REPRESENTATION_CONTEXT('2D SPACE',''
  ) );
#825 = PCURVE('',#647,#826);
#826 = DEFINITIONAL_REPRESENTATION('',(#827),#831);
#827 = LINE('',#828,#829);
#828 = CARTESIAN_POINT('',(46.526516324107,46.811661430795));
#829 = VECTOR('',#830,1.);
#830 = DIRECTION('',(-0.704943303348,-0.709263659766));
#831 = ( GEOMETRIC_REPRESENTATION_CONTEXT(2) 
PARAMETRIC_REPRESENTATION_CONTEXT() REPRESENTATION_CONTEXT('2D SPACE',''
  ) );
#832 = ORIENTED_EDGE('',*,*,#490,.F.);
#833 = ORIENTED_EDGE('',*,*,#605,.T.);
#834 = ADVANCED_FACE('',(#835),#647,.T.);
#835 = FACE_BOUND('',#836,.T.);
#836 = EDGE_LOOP('',(#837,#858,#859));
#837 = ORIENTED_EDGE('',*,*,#838,.T.);
#838 = EDGE_CURVE('',#578,#632,#839,.T.);
#839 = SURFACE_CURVE('',#840,(#844,#851),.PCURVE_S1.);
#840 = LINE('',#841,#842);
#841 = CARTESIAN_POINT('',(23.412267042453,23.272589523277,
    -5.060016007075E-05));
#842 = VECTOR('',#843,1.);
#843 = DIRECTION('',(3.265033619223E-04,-0.999999923948,
    -2.133064093402E-04));
#844 = PCURVE('',#647,#845);
#845 = DEFINITIONAL_REPRESENTATION('',(#846),#850);
#846 = LINE('',#847,#848);
#847 = CARTESIAN_POINT('',(-0.,0.));
#848 = VECTOR('',#849,1.);
#849 = DIRECTION('',(0.999999946698,-3.26503367345E-04));
#850 = ( GEOMETRIC_REPRESENTATION_CONTEXT(2) 
PARAMETRIC_REPRESENTATION_CONTEXT() REPRESENTATION_CONTEXT('2D SPACE',''
  ) );
#851 = PCURVE('',#593,#852);
#852 = DEFINITIONAL_REPRESENTATION('',(#853),#857);
#853 = LINE('',#854,#855);
#854 = CARTESIAN_POINT('',(9.884842114546E-03,-46.51495982443));
#855 = VECTOR('',#856,1.);
#856 = DIRECTION('',(-2.125088773301E-04,0.99999997742));
#857 = ( GEOMETRIC_REPRESENTATION_CONTEXT(2) 
PARAMETRIC_REPRESENTATION_CONTEXT() REPRESENTATION_CONTEXT('2D SPACE',''
  ) );
#858 = ORIENTED_EDGE('',*,*,#631,.F.);
#859 = ORIENTED_EDGE('',*,*,#812,.T.);
#860 = ADVANCED_FACE('',(#861),#593,.T.);
#861 = FACE_BOUND('',#862,.T.);
#862 = EDGE_LOOP('',(#863,#864,#865));
#863 = ORIENTED_EDGE('',*,*,#838,.F.);
#864 = ORIENTED_EDGE('',*,*,#577,.T.);
#865 = ORIENTED_EDGE('',*,*,#866,.F.);
#866 = EDGE_CURVE('',#632,#520,#867,.T.);
#867 = SURFACE_CURVE('',#868,(#872,#879),.PCURVE_S1.);
#868 = LINE('',#869,#870);
#869 = CARTESIAN_POINT('',(23.427454333558,-23.24236781391,
    -9.972539444862E-03));
#870 = VECTOR('',#871,1.);
#871 = DIRECTION('',(5.404520356467E-04,0.937831596371,0.347090196865));
#872 = PCURVE('',#593,#873);
#873 = DEFINITIONAL_REPRESENTATION('',(#874),#878);
#874 = LINE('',#875,#876);
#875 = CARTESIAN_POINT('',(0.,0.));
#876 = VECTOR('',#877,1.);
#877 = DIRECTION('',(0.347090482134,-0.937831646519));
#878 = ( GEOMETRIC_REPRESENTATION_CONTEXT(2) 
PARAMETRIC_REPRESENTATION_CONTEXT() REPRESENTATION_CONTEXT('2D SPACE',''
  ) );
#879 = PCURVE('',#673,#880);
#880 = DEFINITIONAL_REPRESENTATION('',(#881),#885);
#881 = LINE('',#882,#883);
#882 = CARTESIAN_POINT('',(-17.23849191041,-7.466233854142E-02));
#883 = VECTOR('',#884,1.);
#884 = DIRECTION('',(0.347089031468,-0.937832183407));
#885 = ( GEOMETRIC_REPRESENTATION_CONTEXT(2) 
PARAMETRIC_REPRESENTATION_CONTEXT() REPRESENTATION_CONTEXT('2D SPACE',''
  ) );
#886 = ADVANCED_FACE('',(#887),#673,.T.);
#887 = FACE_BOUND('',#888,.T.);
#888 = EDGE_LOOP('',(#889,#890,#891));
#889 = ORIENTED_EDGE('',*,*,#659,.T.);
#890 = ORIENTED_EDGE('',*,*,#866,.T.);
#891 = ORIENTED_EDGE('',*,*,#782,.F.);
#892 = ADVANCED_FACE('',(#893),#156,.T.);
#893 = FACE_BOUND('',#894,.T.);
#894 = EDGE_LOOP('',(#895,#896,#897));
#895 = ORIENTED_EDGE('',*,*,#142,.T.);
#896 = ORIENTED_EDGE('',*,*,#734,.F.);
#897 = ORIENTED_EDGE('',*,*,#898,.T.);
#898 = EDGE_CURVE('',#231,#22,#899,.T.);
#899 = SURFACE_CURVE('',#900,(#904,#911),.PCURVE_S1.);
#900 = LINE('',#901,#902);
#901 = CARTESIAN_POINT('',(8.258899448374,-15.62194257123,
    17.248176469696));
#902 = VECTOR('',#903,1.);
#903 = DIRECTION('',(8.406251959571E-02,0.522671880774,0.848379394992));
#904 = PCURVE('',#156,#905);
#905 = DEFINITIONAL_REPRESENTATION('',(#906),#910);
#906 = LINE('',#907,#908);
#907 = CARTESIAN_POINT('',(3.18262699078,-5.100421153722));
#908 = VECTOR('',#909,1.);
#909 = DIRECTION('',(-0.529384445216,0.848382053773));
#910 = ( GEOMETRIC_REPRESENTATION_CONTEXT(2) 
PARAMETRIC_REPRESENTATION_CONTEXT() REPRESENTATION_CONTEXT('2D SPACE',''
  ) );
#911 = PCURVE('',#912,#917);
#912 = PLANE('',#913);
#913 = AXIS2_PLACEMENT_3D('',#914,#915,#916);
#914 = CARTESIAN_POINT('',(8.928347289673,-15.67352830358,
    22.328686709372));
#915 = DIRECTION('',(-0.990173291032,-5.167486975164E-02,0.129948303428)
  );
#916 = DIRECTION('',(-0.130122151643,2.710946690791E-19,-0.991497970574)
  );
#917 = DEFINITIONAL_REPRESENTATION('',(#918),#922);
#918 = LINE('',#919,#920);
#919 = CARTESIAN_POINT('',(5.12442558564,-5.165474508056E-02));
#920 = VECTOR('',#921,1.);
#921 = DIRECTION('',(-0.852104844334,-0.523371124789));
#922 = ( GEOMETRIC_REPRESENTATION_CONTEXT(2) 
PARAMETRIC_REPRESENTATION_CONTEXT() REPRESENTATION_CONTEXT('2D SPACE',''
  ) );
#923 = ADVANCED_FACE('',(#924),#912,.T.);
#924 = FACE_BOUND('',#925,.T.);
#925 = EDGE_LOOP('',(#926,#949,#950));
#926 = ORIENTED_EDGE('',*,*,#927,.F.);
#927 = EDGE_CURVE('',#22,#928,#930,.T.);
#928 = VERTEX_POINT('',#929);
#929 = CARTESIAN_POINT('',(8.928347289673,-15.67352830358,
    22.328686709372));
#930 = SURFACE_CURVE('',#931,(#935,#942),.PCURVE_S1.);
#931 = LINE('',#932,#933);
#932 = CARTESIAN_POINT('',(8.764278188146,-12.47967110839,
    22.348581638993));
#933 = VECTOR('',#934,1.);
#934 = DIRECTION('',(5.130156665081E-02,-0.998663832782,
    -6.220799946327E-03));
#935 = PCURVE('',#912,#936);
#936 = DEFINITIONAL_REPRESENTATION('',(#937),#941);
#937 = LINE('',#938,#939);
#938 = CARTESIAN_POINT('',(1.623242164686E-03,-3.198130020283));
#939 = VECTOR('',#940,1.);
#940 = DIRECTION('',(-5.075597131148E-04,0.999999871192));
#941 = ( GEOMETRIC_REPRESENTATION_CONTEXT(2) 
PARAMETRIC_REPRESENTATION_CONTEXT() REPRESENTATION_CONTEXT('2D SPACE',''
  ) );
#942 = PCURVE('',#44,#943);
#943 = DEFINITIONAL_REPRESENTATION('',(#944),#948);
#944 = LINE('',#945,#946);
#945 = CARTESIAN_POINT('',(0.,0.));
#946 = VECTOR('',#947,1.);
#947 = DIRECTION('',(-0.998683204255,-5.130163291505E-02));
#948 = ( GEOMETRIC_REPRESENTATION_CONTEXT(2) 
PARAMETRIC_REPRESENTATION_CONTEXT() REPRESENTATION_CONTEXT('2D SPACE',''
  ) );
#949 = ORIENTED_EDGE('',*,*,#898,.F.);
#950 = ORIENTED_EDGE('',*,*,#951,.T.);
#951 = EDGE_CURVE('',#231,#928,#952,.T.);
#952 = SURFACE_CURVE('',#953,(#957,#964),.PCURVE_S1.);
#953 = LINE('',#954,#955);
#954 = CARTESIAN_POINT('',(8.258899448374,-15.62194257123,
    17.248176469696));
#955 = VECTOR('',#956,1.);
#956 = DIRECTION('',(0.130631974629,-1.006612563911E-02,0.991379826464)
  );
#957 = PCURVE('',#912,#958);
#958 = DEFINITIONAL_REPRESENTATION('',(#959),#963);
#959 = LINE('',#960,#961);
#960 = CARTESIAN_POINT('',(5.12442558564,-5.165474508056E-02));
#961 = VECTOR('',#962,1.);
#962 = DIRECTION('',(-0.999949199619,1.007959236339E-02));
#963 = ( GEOMETRIC_REPRESENTATION_CONTEXT(2) 
PARAMETRIC_REPRESENTATION_CONTEXT() REPRESENTATION_CONTEXT('2D SPACE',''
  ) );
#964 = PCURVE('',#246,#965);
#965 = DEFINITIONAL_REPRESENTATION('',(#966),#970);
#966 = LINE('',#967,#968);
#967 = CARTESIAN_POINT('',(0.48893955809,5.101308058134));
#968 = VECTOR('',#969,1.);
#969 = DIRECTION('',(-9.540868758916E-02,-0.995438186093));
#970 = ( GEOMETRIC_REPRESENTATION_CONTEXT(2) 
PARAMETRIC_REPRESENTATION_CONTEXT() REPRESENTATION_CONTEXT('2D SPACE',''
  ) );
#971 = ADVANCED_FACE('',(#972),#246,.T.);
#972 = FACE_BOUND('',#973,.T.);
#973 = EDGE_LOOP('',(#974,#975,#976));
#974 = ORIENTED_EDGE('',*,*,#951,.F.);
#975 = ORIENTED_EDGE('',*,*,#230,.T.);
#976 = ORIENTED_EDGE('',*,*,#977,.F.);
#977 = EDGE_CURVE('',#928,#57,#978,.T.);
#978 = SURFACE_CURVE('',#979,(#983,#990),.PCURVE_S1.);
#979 = LINE('',#980,#981);
#980 = CARTESIAN_POINT('',(8.928347289673,-15.67352830358,
    22.328686709372));
#981 = VECTOR('',#982,1.);
#982 = DIRECTION('',(0.229794729989,0.293088926724,-0.928058868338));
#983 = PCURVE('',#246,#984);
#984 = DEFINITIONAL_REPRESENTATION('',(#985),#989);
#985 = LINE('',#986,#987);
#986 = CARTESIAN_POINT('',(-0.,0.));
#987 = VECTOR('',#988,1.);
#988 = DIRECTION('',(-0.362823154196,0.931858014281));
#989 = ( GEOMETRIC_REPRESENTATION_CONTEXT(2) 
PARAMETRIC_REPRESENTATION_CONTEXT() REPRESENTATION_CONTEXT('2D SPACE',''
  ) );
#990 = PCURVE('',#72,#991);
#991 = DEFINITIONAL_REPRESENTATION('',(#992),#996);
#992 = LINE('',#993,#994);
#993 = CARTESIAN_POINT('',(-2.03217564839,-7.477905663826E-03));
#994 = VECTOR('',#995,1.);
#995 = DIRECTION('',(0.372238504237,-0.928137110541));
#996 = ( GEOMETRIC_REPRESENTATION_CONTEXT(2) 
PARAMETRIC_REPRESENTATION_CONTEXT() REPRESENTATION_CONTEXT('2D SPACE',''
  ) );
#997 = ADVANCED_FACE('',(#998),#72,.T.);
#998 = FACE_BOUND('',#999,.T.);
#999 = EDGE_LOOP('',(#1000,#1021,#1022));
#1000 = ORIENTED_EDGE('',*,*,#1001,.F.);
#1001 = EDGE_CURVE('',#928,#24,#1002,.T.);
#1002 = SURFACE_CURVE('',#1003,(#1007,#1014),.PCURVE_S1.);
#1003 = LINE('',#1004,#1005);
#1004 = CARTESIAN_POINT('',(8.928347289673,-15.67352830358,
    22.328686709372));
#1005 = VECTOR('',#1006,1.);
#1006 = DIRECTION('',(0.642182323947,0.766543100347,3.679418488014E-03)
  );
#1007 = PCURVE('',#72,#1008);
#1008 = DEFINITIONAL_REPRESENTATION('',(#1009),#1013);
#1009 = LINE('',#1010,#1011);
#1010 = CARTESIAN_POINT('',(-2.03217564839,-7.477905663826E-03));
#1011 = VECTOR('',#1012,1.);
#1012 = DIRECTION('',(0.999993229775,3.67972869011E-03));
#1013 = ( GEOMETRIC_REPRESENTATION_CONTEXT(2) 
PARAMETRIC_REPRESENTATION_CONTEXT() REPRESENTATION_CONTEXT('2D SPACE',''
  ) );
#1014 = PCURVE('',#44,#1015);
#1015 = DEFINITIONAL_REPRESENTATION('',(#1016),#1020);
#1016 = LINE('',#1017,#1018);
#1017 = CARTESIAN_POINT('',(-3.193919147683,-0.164069313449));
#1018 = VECTOR('',#1019,1.);
#1019 = DIRECTION('',(0.766551236026,-0.642183153429));
#1020 = ( GEOMETRIC_REPRESENTATION_CONTEXT(2) 
PARAMETRIC_REPRESENTATION_CONTEXT() REPRESENTATION_CONTEXT('2D SPACE',''
  ) );
#1021 = ORIENTED_EDGE('',*,*,#977,.T.);
#1022 = ORIENTED_EDGE('',*,*,#56,.T.);
#1023 = ADVANCED_FACE('',(#1024),#44,.T.);
#1024 = FACE_BOUND('',#1025,.T.);
#1025 = EDGE_LOOP('',(#1026,#1027,#1028));
#1026 = ORIENTED_EDGE('',*,*,#927,.T.);
#1027 = ORIENTED_EDGE('',*,*,#1001,.T.);
#1028 = ORIENTED_EDGE('',*,*,#21,.F.);
#1029 = ( GEOMETRIC_REPRESENTATION_CONTEXT(3) 
GLOBAL_UNCERTAINTY_ASSIGNED_CONTEXT((#1033)) 
GLOBAL_UNIT_ASSIGNED_CONTEXT((#1030,#1031,#1032)) REPRESENTATION_CONTEXT
('Context #1','3D Context with UNIT and UNCERTAINTY') );
#1030 = ( LENGTH_UNIT() NAMED_UNIT(*) SI_UNIT(.MILLI.,.METRE.) );
#1031 = ( NAMED_UNIT(*) PLANE_ANGLE_UNIT() SI_UNIT($,.RADIAN.) );
#1032 = ( NAMED_UNIT(*) SI_UNIT($,.STERADIAN.) SOLID_ANGLE_UNIT() );
#1033 = UNCERTAINTY_MEASURE_WITH_UNIT(LENGTH_MEASURE(1.E-07),#1030,
  'distance_accuracy_value','confusion accuracy');
#1034 = PRODUCT_TYPE('part',$,(#7));
ENDSEC;
END-ISO-10303-21;
