ISO-10303-21;
HEADER;
FILE_DESCRIPTION(('Open CASCADE Model'),'2;1');
FILE_NAME('Open CASCADE Shape Model','2026-10-04T20:44:43',('Author'),(
    'Open CASCADE'),'Open CASCADE STEP processor 7.8','Open CASCADE 7.8'
  ,'Unknown');
FILE_SCHEMA(('AUTOMOTIVE_DESIGN_CC2 { 1 2 10303 214 -1 1 5 4 }'));
ENDSEC;
DATA;
#1 = APPLICATION_PROTOCOL_DEFINITION('committee draft',
  'automotive_design',1997,#2);
#2 = APPLICATION_CONTEXT(
  'core data for automotive mechanical design processes');
#3 = SHAPE_DEFINITION_REPRESENTATION(#4,#10);
#4 = PRODUCT_DEFINITION_SHAPE('','',#5);
#5 = PRODUCT_DEFINITION('design','',#6,#9);
#6 = PRODUCT_DEFINITION_FORMATION('','',#7);
#7 = PRODUCT('Open CASCADE STEP translator 7.8 117',
  'Open CASCADE STEP translator 7.8 117','',(#8));
#8 = MECHANICAL_CONTEXT('',#2,'mechanical');
#9 = PRODUCT_DEFINITION_CONTEXT('part definition',#2,'design');
#10 = ADVANCED_BREP_SHAPE_REPRESENTATION('',(#11,#15),#861);
#11 = AXIS2_PLACEMENT_3D('',#12,#13,#14);
#12 = CARTESIAN_POINT('',(0.,0.,0.));
#13 = DIRECTION('',(0.,0.,1.));
#14 = DIRECTION('',(1.,0.,-0.));
#15 = MANIFOLD_SOLID_BREP('',#16);
#16 = CLOSED_SHELL('',(#17,#109,#167,#225,#283,#336,#394,#447,#473,#526,
    #552,#578,#609,#640,#693,#724,#777,#803,#829,#855));
#17 = ADVANCED_FACE('',(#18),#32,.T.);
#18 = FACE_BOUND('',#19,.T.);
#19 = EDGE_LOOP('',(#20,#55,#83));
#20 = ORIENTED_EDGE('',*,*,#21,.T.);
#21 = EDGE_CURVE('',#22,#24,#26,.T.);
#22 = VERTEX_POINT('',#23);
#23 = CARTESIAN_POINT('',(-53.1777354644,-37.54922458248,27.04320033595)
  );
#24 = VERTEX_POINT('',#25);
#25 = CARTESIAN_POINT('',(-53.12486469881,37.496888499189,
    5.659493846361E-03));
#26 = SURFACE_CURVE('',#27,(#31,#43),.PCURVE_S1.);
#27 = LINE('',#28,#29);
#28 = CARTESIAN_POINT('',(-53.1777354644,-37.54922458248,27.04320033595)
  );
#29 = VECTOR('',#30,1.);
#30 = DIRECTION('',(6.628058408417E-04,0.940803514549,-0.33895177784));
#31 = PCURVE('',#32,#37);
#32 = PLANE('',#33);
#33 = AXIS2_PLACEMENT_3D('',#34,#35,#36);
#34 = CARTESIAN_POINT('',(-53.1777354644,-37.54922458248,27.04320033595)
  );
#35 = DIRECTION('',(-0.99999605299,-3.018821797881E-04,
    -2.793362072028E-03));
#36 = DIRECTION('',(2.793362199312E-03,-8.684704954719E-23,
    -0.999996098556));
#37 = DEFINITIONAL_REPRESENTATION('',(#38),#42);
#38 = LINE('',#39,#40);
#39 = CARTESIAN_POINT('',(0.,0.));
#40 = VECTOR('',#41,1.);
#41 = DIRECTION('',(0.338952306895,-0.940803557418));
#42 = ( GEOMETRIC_REPRESENTATION_CONTEXT(2) 
PARAMETRIC_REPRESENTATION_CONTEXT() REPRESENTATION_CONTEXT('2D SPACE',''
  ) );
#43 = PCURVE('',#44,#49);
#44 = PLANE('',#45);
#45 = AXIS2_PLACEMENT_3D('',#46,#47,#48);
#46 = CARTESIAN_POINT('',(-53.1777354644,-37.54922458248,27.04320033595)
  );
#47 = DIRECTION('',(-0.999998074366,-2.524986322996E-06,
    -1.962462285243E-03));
#48 = DIRECTION('',(1.962462285249E-03,2.789287616992E-25,
    -0.999998074369));
#49 = DEFINITIONAL_REPRESENTATION('',(#50),#54);
#50 = LINE('',#51,#52);
#51 = CARTESIAN_POINT('',(0.,0.));
#52 = VECTOR('',#53,1.);
#53 = DIRECTION('',(0.338952425875,-0.940803514552));
#54 = ( GEOMETRIC_REPRESENTATION_CONTEXT(2) 
PARAMETRIC_REPRESENTATION_CONTEXT() REPRESENTATION_CONTEXT('2D SPACE',''
  ) );
#55 = ORIENTED_EDGE('',*,*,#56,.T.);
#56 = EDGE_CURVE('',#24,#57,#59,.T.);
#57 = VERTEX_POINT('',#58);
#58 = CARTESIAN_POINT('',(-53.10219392752,-37.5316478994,
    -1.823851665162E-03));
#59 = SURFACE_CURVE('',#60,(#64,#71),.PCURVE_S1.);
#60 = LINE('',#61,#62);
#61 = CARTESIAN_POINT('',(-53.12486469881,37.496888499189,
    5.659493846361E-03));
#62 = VECTOR('',#63,1.);
#63 = DIRECTION('',(3.021619670342E-04,-0.999999949375,
    -9.973998550263E-05));
#64 = PCURVE('',#32,#65);
#65 = DEFINITIONAL_REPRESENTATION('',(#66),#70);
#66 = LINE('',#67,#68);
#67 = CARTESIAN_POINT('',(27.037583043856,-75.04611650125));
#68 = VECTOR('',#69,1.);
#69 = DIRECTION('',(1.005836441895E-04,0.999999994941));
#70 = ( GEOMETRIC_REPRESENTATION_CONTEXT(2) 
PARAMETRIC_REPRESENTATION_CONTEXT() REPRESENTATION_CONTEXT('2D SPACE',''
  ) );
#71 = PCURVE('',#72,#77);
#72 = PLANE('',#73);
#73 = AXIS2_PLACEMENT_3D('',#74,#75,#76);
#74 = CARTESIAN_POINT('',(53.149120972801,37.498697899181,
    -3.257812380779E-02));
#75 = DIRECTION('',(-3.598039070468E-04,9.963126453902E-05,
    -0.999999930307));
#76 = DIRECTION('',(-0.999999935271,4.259434548639E-24,
    3.598039088326E-04));
#77 = DEFINITIONAL_REPRESENTATION('',(#78),#82);
#78 = LINE('',#79,#80);
#79 = CARTESIAN_POINT('',(106.2739925506,-1.809400001149E-03));
#80 = VECTOR('',#81,1.);
#81 = DIRECTION('',(-3.021978343121E-04,-0.999999954338));
#82 = ( GEOMETRIC_REPRESENTATION_CONTEXT(2) 
PARAMETRIC_REPRESENTATION_CONTEXT() REPRESENTATION_CONTEXT('2D SPACE',''
  ) );
#83 = ORIENTED_EDGE('',*,*,#84,.F.);
#84 = EDGE_CURVE('',#22,#57,#85,.T.);
#85 = SURFACE_CURVE('',#86,(#90,#97),.PCURVE_S1.);
#86 = LINE('',#87,#88);
#87 = CARTESIAN_POINT('',(-53.1777354644,-37.54922458248,27.04320033595)
  );
#88 = VECTOR('',#89,1.);
#89 = DIRECTION('',(2.793165416367E-03,6.499018332064E-04,
    -0.999995887919));
#90 = PCURVE('',#32,#91);
#91 = DEFINITIONAL_REPRESENTATION('',(#92),#96);
#92 = LINE('',#93,#94);
#93 = CARTESIAN_POINT('',(0.,0.));
#94 = VECTOR('',#95,1.);
#95 = DIRECTION('',(0.999999788814,-6.499018628201E-04));
#96 = ( GEOMETRIC_REPRESENTATION_CONTEXT(2) 
PARAMETRIC_REPRESENTATION_CONTEXT() REPRESENTATION_CONTEXT('2D SPACE',''
  ) );
#97 = PCURVE('',#98,#103);
#98 = PLANE('',#99);
#99 = AXIS2_PLACEMENT_3D('',#100,#101,#102);
#100 = CARTESIAN_POINT('',(53.137827607917,-37.52466492123,
    27.039579699375));
#101 = DIRECTION('',(2.309850408608E-04,-0.999999762554,
    -6.492591692685E-04));
#102 = DIRECTION('',(-9.120742979899E-24,6.492591865888E-04,
    -0.999999789231));
#103 = DEFINITIONAL_REPRESENTATION('',(#104),#108);
#104 = LINE('',#105,#106);
#105 = CARTESIAN_POINT('',(-3.6365813978E-03,-106.3155659085));
#106 = VECTOR('',#107,1.);
#107 = DIRECTION('',(0.999996099106,2.79316549088E-03));
#108 = ( GEOMETRIC_REPRESENTATION_CONTEXT(2) 
PARAMETRIC_REPRESENTATION_CONTEXT() REPRESENTATION_CONTEXT('2D SPACE',''
  ) );
#109 = ADVANCED_FACE('',(#110),#44,.T.);
#110 = FACE_BOUND('',#111,.T.);
#111 = EDGE_LOOP('',(#112,#140,#166));
#112 = ORIENTED_EDGE('',*,*,#113,.F.);
#113 = EDGE_CURVE('',#114,#22,#116,.T.);
#114 = VERTEX_POINT('',#115);
#115 = CARTESIAN_POINT('',(-53.17793307473,37.51077004781,27.04731990088
    ));
#116 = SURFACE_CURVE('',#117,(#121,#128),.PCURVE_S1.);
#117 = LINE('',#118,#119);
#118 = CARTESIAN_POINT('',(-53.17793307473,37.51077004781,27.04731990088
    ));
#119 = VECTOR('',#120,1.);
#120 = DIRECTION('',(2.632698441462E-06,-0.99999999849,
    -5.488362934303E-05));
#121 = PCURVE('',#44,#122);
#122 = DEFINITIONAL_REPRESENTATION('',(#123),#127);
#123 = LINE('',#124,#125);
#124 = CARTESIAN_POINT('',(-4.119944800058E-03,-75.05999463053));
#125 = VECTOR('',#126,1.);
#126 = DIRECTION('',(5.488869022881E-05,0.999999998494));
#127 = ( GEOMETRIC_REPRESENTATION_CONTEXT(2) 
PARAMETRIC_REPRESENTATION_CONTEXT() REPRESENTATION_CONTEXT('2D SPACE',''
  ) );
#128 = PCURVE('',#129,#134);
#129 = PLANE('',#130);
#130 = AXIS2_PLACEMENT_3D('',#131,#132,#133);
#131 = CARTESIAN_POINT('',(-53.17793307473,37.51077004781,27.04731990088
    ));
#132 = DIRECTION('',(-0.705549654532,-4.075135893891E-05,0.708660485232)
  );
#133 = DIRECTION('',(0.708660485821,-2.101435413344E-21,0.705549655118)
  );
#134 = DEFINITIONAL_REPRESENTATION('',(#135),#139);
#135 = LINE('',#136,#137);
#136 = CARTESIAN_POINT('',(0.,0.));
#137 = VECTOR('',#138,1.);
#138 = DIRECTION('',(-3.685743639803E-05,-0.999999999321));
#139 = ( GEOMETRIC_REPRESENTATION_CONTEXT(2) 
PARAMETRIC_REPRESENTATION_CONTEXT() REPRESENTATION_CONTEXT('2D SPACE',''
  ) );
#140 = ORIENTED_EDGE('',*,*,#141,.T.);
#141 = EDGE_CURVE('',#114,#24,#142,.T.);
#142 = SURFACE_CURVE('',#143,(#147,#154),.PCURVE_S1.);
#143 = LINE('',#144,#145);
#144 = CARTESIAN_POINT('',(-53.17793307473,37.51077004781,27.04731990088
    ));
#145 = VECTOR('',#146,1.);
#146 = DIRECTION('',(1.962463322849E-03,-5.133383028969E-04,
    -0.999997942609));
#147 = PCURVE('',#44,#148);
#148 = DEFINITIONAL_REPRESENTATION('',(#149),#153);
#149 = LINE('',#150,#151);
#150 = CARTESIAN_POINT('',(-4.119944800058E-03,-75.05999463053));
#151 = VECTOR('',#152,1.);
#152 = DIRECTION('',(0.999999868242,5.133383028985E-04));
#153 = ( GEOMETRIC_REPRESENTATION_CONTEXT(2) 
PARAMETRIC_REPRESENTATION_CONTEXT() REPRESENTATION_CONTEXT('2D SPACE',''
  ) );
#154 = PCURVE('',#155,#160);
#155 = PLANE('',#156);
#156 = AXIS2_PLACEMENT_3D('',#157,#158,#159);
#157 = CARTESIAN_POINT('',(53.144352043085,37.520758805218,
    27.031063772928));
#158 = DIRECTION('',(-9.402642113338E-05,0.999999863726,
    -5.135238128646E-04));
#159 = DIRECTION('',(-6.817950911607E-24,5.135238151346E-04,
    0.999999868147));
#160 = DEFINITIONAL_REPRESENTATION('',(#161),#165);
#161 = LINE('',#162,#163);
#162 = CARTESIAN_POINT('',(1.62509963439E-02,-106.3222855878));
#163 = VECTOR('',#164,1.);
#164 = DIRECTION('',(-0.999998074367,1.962463331524E-03));
#165 = ( GEOMETRIC_REPRESENTATION_CONTEXT(2) 
PARAMETRIC_REPRESENTATION_CONTEXT() REPRESENTATION_CONTEXT('2D SPACE',''
  ) );
#166 = ORIENTED_EDGE('',*,*,#21,.F.);
#167 = ADVANCED_FACE('',(#168),#98,.T.);
#168 = FACE_BOUND('',#169,.T.);
#169 = EDGE_LOOP('',(#170,#198,#199));
#170 = ORIENTED_EDGE('',*,*,#171,.F.);
#171 = EDGE_CURVE('',#22,#172,#174,.T.);
#172 = VERTEX_POINT('',#173);
#173 = CARTESIAN_POINT('',(53.137827607917,-37.52466492123,
    27.039579699375));
#174 = SURFACE_CURVE('',#175,(#179,#186),.PCURVE_S1.);
#175 = LINE('',#176,#177);
#176 = CARTESIAN_POINT('',(-53.1777354644,-37.54922458248,27.04320033595
    ));
#177 = VECTOR('',#178,1.);
#178 = DIRECTION('',(0.999999972738,2.310072003026E-04,
    -3.405556413285E-05));
#179 = PCURVE('',#98,#180);
#180 = DEFINITIONAL_REPRESENTATION('',(#181),#185);
#181 = LINE('',#182,#183);
#182 = CARTESIAN_POINT('',(-3.6365813978E-03,-106.3155659085));
#183 = VECTOR('',#184,1.);
#184 = DIRECTION('',(3.420554050196E-05,0.999999999415));
#185 = ( GEOMETRIC_REPRESENTATION_CONTEXT(2) 
PARAMETRIC_REPRESENTATION_CONTEXT() REPRESENTATION_CONTEXT('2D SPACE',''
  ) );
#186 = PCURVE('',#187,#192);
#187 = PLANE('',#188);
#188 = AXIS2_PLACEMENT_3D('',#189,#190,#191);
#189 = CARTESIAN_POINT('',(53.137827607917,-37.52466492123,
    27.039579699375));
#190 = DIRECTION('',(1.869843077007E-04,-0.704856829362,0.709349571889)
  );
#191 = DIRECTION('',(-7.03726252772E-21,0.709349584289,0.704856841684));
#192 = DEFINITIONAL_REPRESENTATION('',(#193),#197);
#193 = LINE('',#194,#195);
#194 = CARTESIAN_POINT('',(-1.486935503204E-02,106.31556493088));
#195 = VECTOR('',#196,1.);
#196 = DIRECTION('',(1.39860564126E-04,-0.99999999022));
#197 = ( GEOMETRIC_REPRESENTATION_CONTEXT(2) 
PARAMETRIC_REPRESENTATION_CONTEXT() REPRESENTATION_CONTEXT('2D SPACE',''
  ) );
#198 = ORIENTED_EDGE('',*,*,#84,.T.);
#199 = ORIENTED_EDGE('',*,*,#200,.T.);
#200 = EDGE_CURVE('',#57,#172,#201,.T.);
#201 = SURFACE_CURVE('',#202,(#206,#213),.PCURVE_S1.);
#202 = LINE('',#203,#204);
#203 = CARTESIAN_POINT('',(-53.10219392752,-37.5316478994,
    -1.823851665162E-03));
#204 = VECTOR('',#205,1.);
#205 = DIRECTION('',(0.969100466839,6.369734592315E-05,0.246666335591));
#206 = PCURVE('',#98,#207);
#207 = DEFINITIONAL_REPRESENTATION('',(#208),#212);
#208 = LINE('',#209,#210);
#209 = CARTESIAN_POINT('',(27.041393317794,-106.2400243696));
#210 = VECTOR('',#211,1.);
#211 = DIRECTION('',(-0.246666242246,0.969100492692));
#212 = ( GEOMETRIC_REPRESENTATION_CONTEXT(2) 
PARAMETRIC_REPRESENTATION_CONTEXT() REPRESENTATION_CONTEXT('2D SPACE',''
  ) );
#213 = PCURVE('',#214,#219);
#214 = PLANE('',#215);
#215 = AXIS2_PLACEMENT_3D('',#216,#217,#218);
#216 = CARTESIAN_POINT('',(53.137827607917,-37.52466492123,
    27.039579699375));
#217 = DIRECTION('',(8.222976225102E-05,-0.999999994518,
    -6.483071706272E-05));
#218 = DIRECTION('',(-0.999999996619,-8.222976242383E-05,
    4.246592252109E-25));
#219 = DEFINITIONAL_REPRESENTATION('',(#220),#224);
#220 = LINE('',#221,#222);
#221 = CARTESIAN_POINT('',(106.24002175046,27.041403607868));
#222 = VECTOR('',#223,1.);
#223 = DIRECTION('',(-0.969100468801,-0.24666633611));
#224 = ( GEOMETRIC_REPRESENTATION_CONTEXT(2) 
PARAMETRIC_REPRESENTATION_CONTEXT() REPRESENTATION_CONTEXT('2D SPACE',''
  ) );
#225 = ADVANCED_FACE('',(#226),#214,.T.);
#226 = FACE_BOUND('',#227,.T.);
#227 = EDGE_LOOP('',(#228,#229,#257));
#228 = ORIENTED_EDGE('',*,*,#200,.F.);
#229 = ORIENTED_EDGE('',*,*,#230,.T.);
#230 = EDGE_CURVE('',#57,#231,#233,.T.);
#231 = VERTEX_POINT('',#232);
#232 = CARTESIAN_POINT('',(53.119215477696,-37.52291445834,
    1.545546299808E-02));
#233 = SURFACE_CURVE('',#234,(#238,#245),.PCURVE_S1.);
#234 = LINE('',#235,#236);
#235 = CARTESIAN_POINT('',(-53.10219392752,-37.5316478994,
    -1.823851665162E-03));
#236 = VECTOR('',#237,1.);
#237 = DIRECTION('',(0.999999983389,8.22192151536E-05,1.626726144284E-04
    ));
#238 = PCURVE('',#214,#239);
#239 = DEFINITIONAL_REPRESENTATION('',(#240),#244);
#240 = LINE('',#241,#242);
#241 = CARTESIAN_POINT('',(106.24002175046,27.041403607868));
#242 = VECTOR('',#243,1.);
#243 = DIRECTION('',(-0.999999986769,-1.626726147703E-04));
#244 = ( GEOMETRIC_REPRESENTATION_CONTEXT(2) 
PARAMETRIC_REPRESENTATION_CONTEXT() REPRESENTATION_CONTEXT('2D SPACE',''
  ) );
#245 = PCURVE('',#246,#251);
#246 = PLANE('',#247);
#247 = AXIS2_PLACEMENT_3D('',#248,#249,#250);
#248 = CARTESIAN_POINT('',(53.149120972801,37.498697899181,
    -3.257812380779E-02));
#249 = DIRECTION('',(1.627252288979E-04,-6.403280493647E-04,
    -0.99999978175));
#250 = DIRECTION('',(-1.535611627458E-23,-0.99999979499,
    6.403280578425E-04));
#251 = DEFINITIONAL_REPRESENTATION('',(#252),#256);
#252 = LINE('',#253,#254);
#253 = CARTESIAN_POINT('',(75.030350109437,106.25131630706));
#254 = VECTOR('',#255,1.);
#255 = DIRECTION('',(-8.211503445858E-05,-0.999999996629));
#256 = ( GEOMETRIC_REPRESENTATION_CONTEXT(2) 
PARAMETRIC_REPRESENTATION_CONTEXT() REPRESENTATION_CONTEXT('2D SPACE',''
  ) );
#257 = ORIENTED_EDGE('',*,*,#258,.T.);
#258 = EDGE_CURVE('',#231,#172,#259,.T.);
#259 = SURFACE_CURVE('',#260,(#264,#271),.PCURVE_S1.);
#260 = LINE('',#261,#262);
#261 = CARTESIAN_POINT('',(53.119215477696,-37.52291445834,
    1.545546299808E-02));
#262 = VECTOR('',#263,1.);
#263 = DIRECTION('',(6.887226244685E-04,-6.47740684083E-05,
    0.999999760733));
#264 = PCURVE('',#214,#265);
#265 = DEFINITIONAL_REPRESENTATION('',(#266),#270);
#266 = LINE('',#267,#268);
#267 = CARTESIAN_POINT('',(1.861198621824E-02,27.024124293168));
#268 = VECTOR('',#269,1.);
#269 = DIRECTION('',(-6.887172957837E-04,-0.999999762834));
#270 = ( GEOMETRIC_REPRESENTATION_CONTEXT(2) 
PARAMETRIC_REPRESENTATION_CONTEXT() REPRESENTATION_CONTEXT('2D SPACE',''
  ) );
#271 = PCURVE('',#272,#277);
#272 = PLANE('',#273);
#273 = AXIS2_PLACEMENT_3D('',#274,#275,#276);
#274 = CARTESIAN_POINT('',(53.137827607917,-37.52466492123,
    27.039579699375));
#275 = DIRECTION('',(0.999999683186,-3.99065919093E-04,
    -6.887484201896E-04));
#276 = DIRECTION('',(6.887484750324E-04,3.317082570286E-24,
    0.999999762813));
#277 = DEFINITIONAL_REPRESENTATION('',(#278),#282);
#278 = LINE('',#279,#280);
#279 = CARTESIAN_POINT('',(-27.02413064567,-1.750463030174E-03));
#280 = VECTOR('',#281,1.);
#281 = DIRECTION('',(0.999999997902,6.477407356606E-05));
#282 = ( GEOMETRIC_REPRESENTATION_CONTEXT(2) 
PARAMETRIC_REPRESENTATION_CONTEXT() REPRESENTATION_CONTEXT('2D SPACE',''
  ) );
#283 = ADVANCED_FACE('',(#284),#129,.T.);
#284 = FACE_BOUND('',#285,.T.);
#285 = EDGE_LOOP('',(#286,#287,#310));
#286 = ORIENTED_EDGE('',*,*,#113,.T.);
#287 = ORIENTED_EDGE('',*,*,#288,.T.);
#288 = EDGE_CURVE('',#22,#289,#291,.T.);
#289 = VERTEX_POINT('',#290);
#290 = CARTESIAN_POINT('',(-46.39906251634,-30.75509932193,
    33.79250741063));
#291 = SURFACE_CURVE('',#292,(#296,#303),.PCURVE_S1.);
#292 = LINE('',#293,#294);
#293 = CARTESIAN_POINT('',(-53.1777354644,-37.54922458248,27.04320033595
    ));
#294 = VECTOR('',#295,1.);
#295 = DIRECTION('',(0.577743377748,0.57906037169,0.575240536999));
#296 = PCURVE('',#129,#297);
#297 = DEFINITIONAL_REPRESENTATION('',(#298),#302);
#298 = LINE('',#299,#300);
#299 = CARTESIAN_POINT('',(-2.766518982299E-03,-75.05999469261));
#300 = VECTOR('',#301,1.);
#301 = DIRECTION('',(0.815284665244,0.579060372171));
#302 = ( GEOMETRIC_REPRESENTATION_CONTEXT(2) 
PARAMETRIC_REPRESENTATION_CONTEXT() REPRESENTATION_CONTEXT('2D SPACE',''
  ) );
#303 = PCURVE('',#187,#304);
#304 = DEFINITIONAL_REPRESENTATION('',(#305),#309);
#305 = LINE('',#306,#307);
#306 = CARTESIAN_POINT('',(-1.486935503204E-02,106.31556493088));
#307 = VECTOR('',#308,1.);
#308 = DIRECTION('',(0.816218462054,-0.577743387847));
#309 = ( GEOMETRIC_REPRESENTATION_CONTEXT(2) 
PARAMETRIC_REPRESENTATION_CONTEXT() REPRESENTATION_CONTEXT('2D SPACE',''
  ) );
#310 = ORIENTED_EDGE('',*,*,#311,.F.);
#311 = EDGE_CURVE('',#114,#289,#312,.T.);
#312 = SURFACE_CURVE('',#313,(#317,#324),.PCURVE_S1.);
#313 = LINE('',#314,#315);
#314 = CARTESIAN_POINT('',(-53.17793307473,37.51077004781,27.04731990088
    ));
#315 = VECTOR('',#316,1.);
#316 = DIRECTION('',(9.834080713518E-02,-0.990330267525,
    9.785216848049E-02));
#317 = PCURVE('',#129,#318);
#318 = DEFINITIONAL_REPRESENTATION('',(#319),#323);
#319 = LINE('',#320,#321);
#320 = CARTESIAN_POINT('',(0.,0.));
#321 = VECTOR('',#322,1.);
#322 = DIRECTION('',(0.138729807884,-0.990330268347));
#323 = ( GEOMETRIC_REPRESENTATION_CONTEXT(2) 
PARAMETRIC_REPRESENTATION_CONTEXT() REPRESENTATION_CONTEXT('2D SPACE',''
  ) );
#324 = PCURVE('',#325,#330);
#325 = PLANE('',#326);
#326 = AXIS2_PLACEMENT_3D('',#327,#328,#329);
#327 = CARTESIAN_POINT('',(-46.3659807938,30.812944627642,
    33.804421781277));
#328 = DIRECTION('',(-0.704123244751,2.409282392761E-04,0.710077740924)
  );
#329 = DIRECTION('',(0.710077761532,4.041601362646E-21,0.704123265187));
#330 = DEFINITIONAL_REPRESENTATION('',(#331),#335);
#331 = LINE('',#332,#333);
#332 = CARTESIAN_POINT('',(-9.594848466533,6.69782561456));
#333 = VECTOR('',#334,1.);
#334 = DIRECTION('',(0.138729608574,-0.990330296267));
#335 = ( GEOMETRIC_REPRESENTATION_CONTEXT(2) 
PARAMETRIC_REPRESENTATION_CONTEXT() REPRESENTATION_CONTEXT('2D SPACE',''
  ) );
#336 = ADVANCED_FACE('',(#337),#325,.T.);
#337 = FACE_BOUND('',#338,.T.);
#338 = EDGE_LOOP('',(#339,#367,#368));
#339 = ORIENTED_EDGE('',*,*,#340,.F.);
#340 = EDGE_CURVE('',#114,#341,#343,.T.);
#341 = VERTEX_POINT('',#342);
#342 = CARTESIAN_POINT('',(-46.3659807938,30.812944627642,
    33.804421781277));
#343 = SURFACE_CURVE('',#344,(#348,#355),.PCURVE_S1.);
#344 = LINE('',#345,#346);
#345 = CARTESIAN_POINT('',(-53.17793307473,37.51077004781,27.04731990088
    ));
#346 = VECTOR('',#347,1.);
#347 = DIRECTION('',(0.582150136442,-0.572396843285,0.57746261562));
#348 = PCURVE('',#325,#349);
#349 = DEFINITIONAL_REPRESENTATION('',(#350),#354);
#350 = LINE('',#351,#352);
#351 = CARTESIAN_POINT('',(-9.594848466533,6.69782561456));
#352 = VECTOR('',#353,1.);
#353 = DIRECTION('',(0.819976728194,-0.572396859898));
#354 = ( GEOMETRIC_REPRESENTATION_CONTEXT(2) 
PARAMETRIC_REPRESENTATION_CONTEXT() REPRESENTATION_CONTEXT('2D SPACE',''
  ) );
#355 = PCURVE('',#356,#361);
#356 = PLANE('',#357);
#357 = AXIS2_PLACEMENT_3D('',#358,#359,#360);
#358 = CARTESIAN_POINT('',(53.144352043085,37.520758805218,
    27.031063772928));
#359 = DIRECTION('',(4.0907283168E-05,0.710235706744,0.703963947367));
#360 = DIRECTION('',(-1.326584644147E-21,-0.703963947956,0.710235707339)
  );
#361 = DEFINITIONAL_REPRESENTATION('',(#362),#366);
#362 = LINE('',#363,#364);
#363 = CARTESIAN_POINT('',(1.857740763531E-02,-106.3222852067));
#364 = VECTOR('',#365,1.);
#365 = DIRECTION('',(0.813081310862,0.582150136929));
#366 = ( GEOMETRIC_REPRESENTATION_CONTEXT(2) 
PARAMETRIC_REPRESENTATION_CONTEXT() REPRESENTATION_CONTEXT('2D SPACE',''
  ) );
#367 = ORIENTED_EDGE('',*,*,#311,.T.);
#368 = ORIENTED_EDGE('',*,*,#369,.T.);
#369 = EDGE_CURVE('',#289,#341,#370,.T.);
#370 = SURFACE_CURVE('',#371,(#375,#382),.PCURVE_S1.);
#371 = LINE('',#372,#373);
#372 = CARTESIAN_POINT('',(-46.39906251634,-30.75509932193,
    33.79250741063));
#373 = VECTOR('',#374,1.);
#374 = DIRECTION('',(5.373196064798E-04,0.99999983692,1.935154658117E-04
    ));
#375 = PCURVE('',#325,#376);
#376 = DEFINITIONAL_REPRESENTATION('',(#377),#381);
#377 = LINE('',#378,#379);
#378 = CARTESIAN_POINT('',(-3.187978105266E-02,-61.56804573647));
#379 = VECTOR('',#380,1.);
#380 = DIRECTION('',(5.177974450481E-04,0.999999865943));
#381 = ( GEOMETRIC_REPRESENTATION_CONTEXT(2) 
PARAMETRIC_REPRESENTATION_CONTEXT() REPRESENTATION_CONTEXT('2D SPACE',''
  ) );
#382 = PCURVE('',#383,#388);
#383 = PLANE('',#384);
#384 = AXIS2_PLACEMENT_3D('',#385,#386,#387);
#385 = CARTESIAN_POINT('',(46.38235234519,-30.76653041351,
    33.777236248652));
#386 = DIRECTION('',(1.645690400786E-04,-1.936039173094E-04,
    0.999999967717));
#387 = DIRECTION('',(2.820972440823E-24,0.999999981259,
    1.936039199311E-04));
#388 = DEFINITIONAL_REPRESENTATION('',(#389),#393);
#389 = LINE('',#390,#391);
#390 = CARTESIAN_POINT('',(1.143404792482E-02,92.78141611793));
#391 = VECTOR('',#392,1.);
#392 = DIRECTION('',(0.999999855644,-5.373196137559E-04));
#393 = ( GEOMETRIC_REPRESENTATION_CONTEXT(2) 
PARAMETRIC_REPRESENTATION_CONTEXT() REPRESENTATION_CONTEXT('2D SPACE',''
  ) );
#394 = ADVANCED_FACE('',(#395),#72,.T.);
#395 = FACE_BOUND('',#396,.T.);
#396 = EDGE_LOOP('',(#397,#420,#421));
#397 = ORIENTED_EDGE('',*,*,#398,.F.);
#398 = EDGE_CURVE('',#57,#399,#401,.T.);
#399 = VERTEX_POINT('',#400);
#400 = CARTESIAN_POINT('',(53.149120972801,37.498697899181,
    -3.257812380779E-02));
#401 = SURFACE_CURVE('',#402,(#406,#413),.PCURVE_S1.);
#402 = LINE('',#403,#404);
#403 = CARTESIAN_POINT('',(-53.10219392752,-37.5316478994,
    -1.823851665162E-03));
#404 = VECTOR('',#405,1.);
#405 = DIRECTION('',(0.816861273896,0.576834121135,-2.364391814233E-04)
  );
#406 = PCURVE('',#72,#407);
#407 = DEFINITIONAL_REPRESENTATION('',(#408),#412);
#408 = LINE('',#409,#410);
#409 = CARTESIAN_POINT('',(106.25131908824,-75.03034617097));
#410 = VECTOR('',#411,1.);
#411 = DIRECTION('',(-0.816861306093,0.576834123997));
#412 = ( GEOMETRIC_REPRESENTATION_CONTEXT(2) 
PARAMETRIC_REPRESENTATION_CONTEXT() REPRESENTATION_CONTEXT('2D SPACE',''
  ) );
#413 = PCURVE('',#246,#414);
#414 = DEFINITIONAL_REPRESENTATION('',(#415),#419);
#415 = LINE('',#416,#417);
#416 = CARTESIAN_POINT('',(75.030350109437,106.25131630706));
#417 = VECTOR('',#418,1.);
#418 = DIRECTION('',(-0.576834154276,-0.816861284711));
#419 = ( GEOMETRIC_REPRESENTATION_CONTEXT(2) 
PARAMETRIC_REPRESENTATION_CONTEXT() REPRESENTATION_CONTEXT('2D SPACE',''
  ) );
#420 = ORIENTED_EDGE('',*,*,#56,.F.);
#421 = ORIENTED_EDGE('',*,*,#422,.T.);
#422 = EDGE_CURVE('',#24,#399,#423,.T.);
#423 = SURFACE_CURVE('',#424,(#428,#435),.PCURVE_S1.);
#424 = LINE('',#425,#426);
#425 = CARTESIAN_POINT('',(-53.12486469881,37.496888499189,
    5.659493846361E-03));
#426 = VECTOR('',#427,1.);
#427 = DIRECTION('',(0.999999935126,1.702580234807E-05,
    -3.598022124783E-04));
#428 = PCURVE('',#72,#429);
#429 = DEFINITIONAL_REPRESENTATION('',(#430),#434);
#430 = LINE('',#431,#432);
#431 = CARTESIAN_POINT('',(106.2739925506,-1.809400001149E-03));
#432 = VECTOR('',#433,1.);
#433 = DIRECTION('',(-0.999999999855,1.702580243257E-05));
#434 = ( GEOMETRIC_REPRESENTATION_CONTEXT(2) 
PARAMETRIC_REPRESENTATION_CONTEXT() REPRESENTATION_CONTEXT('2D SPACE',''
  ) );
#435 = PCURVE('',#436,#441);
#436 = PLANE('',#437);
#437 = AXIS2_PLACEMENT_3D('',#438,#439,#440);
#438 = CARTESIAN_POINT('',(53.144352043085,37.520758805218,
    27.031063772928));
#439 = DIRECTION('',(-1.731909129865E-05,0.999999667614,
    -8.151519807341E-04));
#440 = DIRECTION('',(-1.517290894789E-24,8.151519808563E-04,
    0.999999667764));
#441 = DEFINITIONAL_REPRESENTATION('',(#442),#446);
#442 = LINE('',#443,#444);
#443 = CARTESIAN_POINT('',(-27.02541475818,-106.2692167578));
#444 = VECTOR('',#445,1.);
#445 = DIRECTION('',(-3.597882143224E-04,0.999999935276));
#446 = ( GEOMETRIC_REPRESENTATION_CONTEXT(2) 
PARAMETRIC_REPRESENTATION_CONTEXT() REPRESENTATION_CONTEXT('2D SPACE',''
  ) );
#447 = ADVANCED_FACE('',(#448),#246,.T.);
#448 = FACE_BOUND('',#449,.T.);
#449 = EDGE_LOOP('',(#450,#471,#472));
#450 = ORIENTED_EDGE('',*,*,#451,.F.);
#451 = EDGE_CURVE('',#231,#399,#452,.T.);
#452 = SURFACE_CURVE('',#453,(#457,#464),.PCURVE_S1.);
#453 = LINE('',#454,#455);
#454 = CARTESIAN_POINT('',(53.119215477696,-37.52291445834,
    1.545546299808E-02));
#455 = VECTOR('',#456,1.);
#456 = DIRECTION('',(3.986249516543E-04,0.999999715581,
    -6.402631406438E-04));
#457 = PCURVE('',#246,#458);
#458 = DEFINITIONAL_REPRESENTATION('',(#459),#463);
#459 = LINE('',#460,#461);
#460 = CARTESIAN_POINT('',(75.021627734599,2.990549550069E-02));
#461 = VECTOR('',#462,1.);
#462 = DIRECTION('',(-0.999999920549,-3.98624956932E-04));
#463 = ( GEOMETRIC_REPRESENTATION_CONTEXT(2) 
PARAMETRIC_REPRESENTATION_CONTEXT() REPRESENTATION_CONTEXT('2D SPACE',''
  ) );
#464 = PCURVE('',#272,#465);
#465 = DEFINITIONAL_REPRESENTATION('',(#466),#470);
#466 = LINE('',#467,#468);
#467 = CARTESIAN_POINT('',(-27.02413064567,-1.750463030174E-03));
#468 = VECTOR('',#469,1.);
#469 = DIRECTION('',(-6.39988436454E-04,-0.999999795207));
#470 = ( GEOMETRIC_REPRESENTATION_CONTEXT(2) 
PARAMETRIC_REPRESENTATION_CONTEXT() REPRESENTATION_CONTEXT('2D SPACE',''
  ) );
#471 = ORIENTED_EDGE('',*,*,#230,.F.);
#472 = ORIENTED_EDGE('',*,*,#398,.T.);
#473 = ADVANCED_FACE('',(#474),#436,.T.);
#474 = FACE_BOUND('',#475,.T.);
#475 = EDGE_LOOP('',(#476,#504,#505));
#476 = ORIENTED_EDGE('',*,*,#477,.T.);
#477 = EDGE_CURVE('',#478,#399,#480,.T.);
#478 = VERTEX_POINT('',#479);
#479 = CARTESIAN_POINT('',(53.144352043085,37.520758805218,
    27.031063772928));
#480 = SURFACE_CURVE('',#481,(#485,#492),.PCURVE_S1.);
#481 = LINE('',#482,#483);
#482 = CARTESIAN_POINT('',(53.144352043085,37.520758805218,
    27.031063772928));
#483 = VECTOR('',#484,1.);
#484 = DIRECTION('',(1.762116154025E-04,-8.151489163768E-04,
    -0.999999652241));
#485 = PCURVE('',#436,#486);
#486 = DEFINITIONAL_REPRESENTATION('',(#487),#491);
#487 = LINE('',#488,#489);
#488 = CARTESIAN_POINT('',(0.,0.));
#489 = VECTOR('',#490,1.);
#490 = DIRECTION('',(-0.999999984475,1.762116154289E-04));
#491 = ( GEOMETRIC_REPRESENTATION_CONTEXT(2) 
PARAMETRIC_REPRESENTATION_CONTEXT() REPRESENTATION_CONTEXT('2D SPACE',''
  ) );
#492 = PCURVE('',#493,#498);
#493 = PLANE('',#494);
#494 = AXIS2_PLACEMENT_3D('',#495,#496,#497);
#495 = CARTESIAN_POINT('',(53.137827607917,-37.52466492123,
    27.039579699375));
#496 = DIRECTION('',(0.999999980685,-8.691980814751E-05,
    1.762825258902E-04));
#497 = DIRECTION('',(-1.762825265561E-04,8.058848358619E-25,
    0.999999984462));
#498 = DEFINITIONAL_REPRESENTATION('',(#499),#503);
#499 = LINE('',#500,#501);
#500 = CARTESIAN_POINT('',(-8.517076458505E-03,-75.04542400994));
#501 = VECTOR('',#502,1.);
#502 = DIRECTION('',(-0.999999667766,8.151489194561E-04));
#503 = ( GEOMETRIC_REPRESENTATION_CONTEXT(2) 
PARAMETRIC_REPRESENTATION_CONTEXT() REPRESENTATION_CONTEXT('2D SPACE',''
  ) );
#504 = ORIENTED_EDGE('',*,*,#422,.F.);
#505 = ORIENTED_EDGE('',*,*,#506,.T.);
#506 = EDGE_CURVE('',#24,#478,#507,.T.);
#507 = SURFACE_CURVE('',#508,(#512,#519),.PCURVE_S1.);
#508 = LINE('',#509,#510);
#509 = CARTESIAN_POINT('',(-53.12486469881,37.496888499189,
    5.659493846361E-03));
#510 = VECTOR('',#511,1.);
#511 = DIRECTION('',(0.969151504009,2.176918556361E-04,0.246465646464));
#512 = PCURVE('',#436,#513);
#513 = DEFINITIONAL_REPRESENTATION('',(#514),#518);
#514 = LINE('',#515,#516);
#515 = CARTESIAN_POINT('',(-27.02541475818,-106.2692167578));
#516 = VECTOR('',#517,1.);
#517 = DIRECTION('',(0.246465742031,0.969151504155));
#518 = ( GEOMETRIC_REPRESENTATION_CONTEXT(2) 
PARAMETRIC_REPRESENTATION_CONTEXT() REPRESENTATION_CONTEXT('2D SPACE',''
  ) );
#519 = PCURVE('',#155,#520);
#520 = DEFINITIONAL_REPRESENTATION('',(#521),#525);
#521 = LINE('',#522,#523);
#522 = CARTESIAN_POINT('',(-27.02541297366,-106.2692172116));
#523 = VECTOR('',#524,1.);
#524 = DIRECTION('',(0.246465725757,0.969151508293));
#525 = ( GEOMETRIC_REPRESENTATION_CONTEXT(2) 
PARAMETRIC_REPRESENTATION_CONTEXT() REPRESENTATION_CONTEXT('2D SPACE',''
  ) );
#526 = ADVANCED_FACE('',(#527),#155,.T.);
#527 = FACE_BOUND('',#528,.T.);
#528 = EDGE_LOOP('',(#529,#530,#531));
#529 = ORIENTED_EDGE('',*,*,#506,.F.);
#530 = ORIENTED_EDGE('',*,*,#141,.F.);
#531 = ORIENTED_EDGE('',*,*,#532,.T.);
#532 = EDGE_CURVE('',#114,#478,#533,.T.);
#533 = SURFACE_CURVE('',#534,(#538,#545),.PCURVE_S1.);
#534 = LINE('',#535,#536);
#535 = CARTESIAN_POINT('',(-53.17793307473,37.51077004781,27.04731990088
    ));
#536 = VECTOR('',#537,1.);
#537 = DIRECTION('',(0.999999983898,9.394791728607E-05,
    -1.528948298316E-04));
#538 = PCURVE('',#155,#539);
#539 = DEFINITIONAL_REPRESENTATION('',(#540),#544);
#540 = LINE('',#541,#542);
#541 = CARTESIAN_POINT('',(1.62509963439E-02,-106.3222855878));
#542 = VECTOR('',#543,1.);
#543 = DIRECTION('',(-1.52846565179E-04,0.999999988319));
#544 = ( GEOMETRIC_REPRESENTATION_CONTEXT(2) 
PARAMETRIC_REPRESENTATION_CONTEXT() REPRESENTATION_CONTEXT('2D SPACE',''
  ) );
#545 = PCURVE('',#356,#546);
#546 = DEFINITIONAL_REPRESENTATION('',(#547),#551);
#547 = LINE('',#548,#549);
#548 = CARTESIAN_POINT('',(1.857740763531E-02,-106.3222852067));
#549 = VECTOR('',#550,1.);
#550 = DIRECTION('',(-1.747273143687E-04,0.999999984735));
#551 = ( GEOMETRIC_REPRESENTATION_CONTEXT(2) 
PARAMETRIC_REPRESENTATION_CONTEXT() REPRESENTATION_CONTEXT('2D SPACE',''
  ) );
#552 = ADVANCED_FACE('',(#553),#272,.T.);
#553 = FACE_BOUND('',#554,.T.);
#554 = EDGE_LOOP('',(#555,#556,#557));
#555 = ORIENTED_EDGE('',*,*,#258,.F.);
#556 = ORIENTED_EDGE('',*,*,#451,.T.);
#557 = ORIENTED_EDGE('',*,*,#558,.F.);
#558 = EDGE_CURVE('',#172,#399,#559,.T.);
#559 = SURFACE_CURVE('',#560,(#564,#571),.PCURVE_S1.);
#560 = LINE('',#561,#562);
#561 = CARTESIAN_POINT('',(53.137827607917,-37.52466492123,
    27.039579699375));
#562 = VECTOR('',#563,1.);
#563 = DIRECTION('',(1.415946273861E-04,0.940632416773,-0.339426923603)
  );
#564 = PCURVE('',#272,#565);
#565 = DEFINITIONAL_REPRESENTATION('',(#566),#570);
#566 = LINE('',#567,#568);
#567 = CARTESIAN_POINT('',(0.,0.));
#568 = VECTOR('',#569,1.);
#569 = DIRECTION('',(-0.339426745572,-0.940632491673));
#570 = ( GEOMETRIC_REPRESENTATION_CONTEXT(2) 
PARAMETRIC_REPRESENTATION_CONTEXT() REPRESENTATION_CONTEXT('2D SPACE',''
  ) );
#571 = PCURVE('',#493,#572);
#572 = DEFINITIONAL_REPRESENTATION('',(#573),#577);
#573 = LINE('',#574,#575);
#574 = CARTESIAN_POINT('',(0.,-0.));
#575 = VECTOR('',#576,1.);
#576 = DIRECTION('',(-0.33942694329,-0.940632420326));
#577 = ( GEOMETRIC_REPRESENTATION_CONTEXT(2) 
PARAMETRIC_REPRESENTATION_CONTEXT() REPRESENTATION_CONTEXT('2D SPACE',''
  ) );
#578 = ADVANCED_FACE('',(#579),#493,.T.);
#579 = FACE_BOUND('',#580,.T.);
#580 = EDGE_LOOP('',(#581,#582,#583));
#581 = ORIENTED_EDGE('',*,*,#558,.T.);
#582 = ORIENTED_EDGE('',*,*,#477,.F.);
#583 = ORIENTED_EDGE('',*,*,#584,.F.);
#584 = EDGE_CURVE('',#172,#478,#585,.T.);
#585 = SURFACE_CURVE('',#586,(#590,#597),.PCURVE_S1.);
#586 = LINE('',#587,#588);
#587 = CARTESIAN_POINT('',(53.137827607917,-37.52466492123,
    27.039579699375));
#588 = VECTOR('',#589,1.);
#589 = DIRECTION('',(8.693981294335E-05,0.999999989782,
    -1.134769575149E-04));
#590 = PCURVE('',#493,#591);
#591 = DEFINITIONAL_REPRESENTATION('',(#592),#596);
#592 = LINE('',#593,#594);
#593 = CARTESIAN_POINT('',(0.,-0.));
#594 = VECTOR('',#595,1.);
#595 = DIRECTION('',(-1.134922817216E-04,-0.99999999356));
#596 = ( GEOMETRIC_REPRESENTATION_CONTEXT(2) 
PARAMETRIC_REPRESENTATION_CONTEXT() REPRESENTATION_CONTEXT('2D SPACE',''
  ) );
#597 = PCURVE('',#598,#603);
#598 = PLANE('',#599);
#599 = AXIS2_PLACEMENT_3D('',#600,#601,#602);
#600 = CARTESIAN_POINT('',(46.371727619296,30.789657823147,
    33.811513367202));
#601 = DIRECTION('',(0.707505652679,1.868462895981E-05,0.706707684321));
#602 = DIRECTION('',(-0.706707684444,4.87624913339E-22,0.707505652802));
#603 = DEFINITIONAL_REPRESENTATION('',(#604),#608);
#604 = LINE('',#605,#606);
#605 = CARTESIAN_POINT('',(-9.572836206067,68.314322756309));
#606 = VECTOR('',#607,1.);
#607 = DIRECTION('',(-1.417266227958E-04,-0.999999989957));
#608 = ( GEOMETRIC_REPRESENTATION_CONTEXT(2) 
PARAMETRIC_REPRESENTATION_CONTEXT() REPRESENTATION_CONTEXT('2D SPACE',''
  ) );
#609 = ADVANCED_FACE('',(#610),#187,.T.);
#610 = FACE_BOUND('',#611,.T.);
#611 = EDGE_LOOP('',(#612,#638,#639));
#612 = ORIENTED_EDGE('',*,*,#613,.F.);
#613 = EDGE_CURVE('',#289,#172,#614,.T.);
#614 = SURFACE_CURVE('',#615,(#619,#626),.PCURVE_S1.);
#615 = LINE('',#616,#617);
#616 = CARTESIAN_POINT('',(-46.39906251634,-30.75509932193,
    33.79250741063));
#617 = VECTOR('',#618,1.);
#618 = DIRECTION('',(0.995417600916,-6.769896808804E-02,
    -6.753258106726E-02));
#619 = PCURVE('',#187,#620);
#620 = DEFINITIONAL_REPRESENTATION('',(#621),#625);
#621 = LINE('',#622,#623);
#622 = CARTESIAN_POINT('',(9.56183584236,99.53689186432));
#623 = VECTOR('',#624,1.);
#624 = DIRECTION('',(-9.56230366719E-02,-0.995417618318));
#625 = ( GEOMETRIC_REPRESENTATION_CONTEXT(2) 
PARAMETRIC_REPRESENTATION_CONTEXT() REPRESENTATION_CONTEXT('2D SPACE',''
  ) );
#626 = PCURVE('',#627,#632);
#627 = PLANE('',#628);
#628 = AXIS2_PLACEMENT_3D('',#629,#630,#631);
#629 = CARTESIAN_POINT('',(46.38235234519,-30.76653041351,
    33.777236248652));
#630 = DIRECTION('',(2.957900249587E-05,-0.706018204644,0.708193683844)
  );
#631 = DIRECTION('',(6.5103460223E-22,0.708193684153,0.706018204953));
#632 = DEFINITIONAL_REPRESENTATION('',(#633),#637);
#633 = LINE('',#634,#635);
#634 = CARTESIAN_POINT('',(1.887714522877E-02,92.78141490212));
#635 = VECTOR('',#636,1.);
#636 = DIRECTION('',(-9.562321328461E-02,-0.995417601352));
#637 = ( GEOMETRIC_REPRESENTATION_CONTEXT(2) 
PARAMETRIC_REPRESENTATION_CONTEXT() REPRESENTATION_CONTEXT('2D SPACE',''
  ) );
#638 = ORIENTED_EDGE('',*,*,#288,.F.);
#639 = ORIENTED_EDGE('',*,*,#171,.T.);
#640 = ADVANCED_FACE('',(#641),#627,.T.);
#641 = FACE_BOUND('',#642,.T.);
#642 = EDGE_LOOP('',(#643,#666,#667));
#643 = ORIENTED_EDGE('',*,*,#644,.F.);
#644 = EDGE_CURVE('',#289,#645,#647,.T.);
#645 = VERTEX_POINT('',#646);
#646 = CARTESIAN_POINT('',(46.38235234519,-30.76653041351,
    33.777236248652));
#647 = SURFACE_CURVE('',#648,(#652,#659),.PCURVE_S1.);
#648 = LINE('',#649,#650);
#649 = CARTESIAN_POINT('',(-46.39906251634,-30.75509932193,
    33.79250741063));
#650 = VECTOR('',#651,1.);
#651 = DIRECTION('',(0.999999978865,-1.232045378667E-04,
    -1.645928947951E-04));
#652 = PCURVE('',#627,#653);
#653 = DEFINITIONAL_REPRESENTATION('',(#654),#658);
#654 = LINE('',#655,#656);
#655 = CARTESIAN_POINT('',(1.887714522877E-02,92.78141490212));
#656 = VECTOR('',#657,1.);
#657 = DIRECTION('',(-2.034582557075E-04,-0.999999979302));
#658 = ( GEOMETRIC_REPRESENTATION_CONTEXT(2) 
PARAMETRIC_REPRESENTATION_CONTEXT() REPRESENTATION_CONTEXT('2D SPACE',''
  ) );
#659 = PCURVE('',#383,#660);
#660 = DEFINITIONAL_REPRESENTATION('',(#661),#665);
#661 = LINE('',#662,#663);
#662 = CARTESIAN_POINT('',(1.143404792482E-02,92.78141611793));
#663 = VECTOR('',#664,1.);
#664 = DIRECTION('',(-1.232364013873E-04,-0.999999992406));
#665 = ( GEOMETRIC_REPRESENTATION_CONTEXT(2) 
PARAMETRIC_REPRESENTATION_CONTEXT() REPRESENTATION_CONTEXT('2D SPACE',''
  ) );
#666 = ORIENTED_EDGE('',*,*,#613,.T.);
#667 = ORIENTED_EDGE('',*,*,#668,.F.);
#668 = EDGE_CURVE('',#645,#172,#669,.T.);
#669 = SURFACE_CURVE('',#670,(#674,#681),.PCURVE_S1.);
#670 = LINE('',#671,#672);
#671 = CARTESIAN_POINT('',(46.38235234519,-30.76653041351,
    33.777236248652));
#672 = VECTOR('',#673,1.);
#673 = DIRECTION('',(0.577781931621,-0.578009371387,-0.576257933638));
#674 = PCURVE('',#627,#675);
#675 = DEFINITIONAL_REPRESENTATION('',(#676),#680);
#676 = LINE('',#677,#678);
#677 = CARTESIAN_POINT('',(0.,0.));
#678 = VECTOR('',#679,1.);
#679 = DIRECTION('',(-0.816191178095,-0.577781931874));
#680 = ( GEOMETRIC_REPRESENTATION_CONTEXT(2) 
PARAMETRIC_REPRESENTATION_CONTEXT() REPRESENTATION_CONTEXT('2D SPACE',''
  ) );
#681 = PCURVE('',#682,#687);
#682 = PLANE('',#683);
#683 = AXIS2_PLACEMENT_3D('',#684,#685,#686);
#684 = CARTESIAN_POINT('',(46.371727619296,30.789657823147,
    33.811513367202));
#685 = DIRECTION('',(0.706035684042,-2.724795772784E-04,0.708176205908)
  );
#686 = DIRECTION('',(0.708176232198,-6.611600407402E-21,-0.706035710252)
  );
#687 = DEFINITIONAL_REPRESENTATION('',(#688),#692);
#688 = LINE('',#689,#690);
#689 = CARTESIAN_POINT('',(3.172504809217E-02,-61.55619052178));
#690 = VECTOR('',#691,1.);
#691 = DIRECTION('',(0.816030110832,-0.578009392844));
#692 = ( GEOMETRIC_REPRESENTATION_CONTEXT(2) 
PARAMETRIC_REPRESENTATION_CONTEXT() REPRESENTATION_CONTEXT('2D SPACE',''
  ) );
#693 = ADVANCED_FACE('',(#694),#383,.T.);
#694 = FACE_BOUND('',#695,.T.);
#695 = EDGE_LOOP('',(#696,#722,#723));
#696 = ORIENTED_EDGE('',*,*,#697,.F.);
#697 = EDGE_CURVE('',#341,#645,#698,.T.);
#698 = SURFACE_CURVE('',#699,(#703,#710),.PCURVE_S1.);
#699 = LINE('',#700,#701);
#700 = CARTESIAN_POINT('',(-46.3659807938,30.812944627642,
    33.804421781277));
#701 = VECTOR('',#702,1.);
#702 = DIRECTION('',(0.833096596765,-0.553127472496,-2.441895605521E-04)
  );
#703 = PCURVE('',#383,#704);
#704 = DEFINITIONAL_REPRESENTATION('',(#705),#709);
#705 = LINE('',#706,#707);
#706 = CARTESIAN_POINT('',(61.579479150309,92.74833439494));
#707 = VECTOR('',#708,1.);
#708 = DIRECTION('',(-0.553127509406,-0.833096608047));
#709 = ( GEOMETRIC_REPRESENTATION_CONTEXT(2) 
PARAMETRIC_REPRESENTATION_CONTEXT() REPRESENTATION_CONTEXT('2D SPACE',''
  ) );
#710 = PCURVE('',#711,#716);
#711 = PLANE('',#712);
#712 = AXIS2_PLACEMENT_3D('',#713,#714,#715);
#713 = CARTESIAN_POINT('',(46.371727619296,30.789657823147,
    33.811513367202));
#714 = DIRECTION('',(-7.66090980725E-05,-5.568559078633E-04,
    0.999999842021));
#715 = DIRECTION('',(-5.736645416166E-24,0.999999844956,
    5.568559094974E-04));
#716 = DEFINITIONAL_REPRESENTATION('',(#717),#721);
#717 = LINE('',#718,#719);
#718 = CARTESIAN_POINT('',(2.32828518936E-02,92.737708685233));
#719 = VECTOR('',#720,1.);
#720 = DIRECTION('',(-0.553127522715,-0.83309659921));
#721 = ( GEOMETRIC_REPRESENTATION_CONTEXT(2) 
PARAMETRIC_REPRESENTATION_CONTEXT() REPRESENTATION_CONTEXT('2D SPACE',''
  ) );
#722 = ORIENTED_EDGE('',*,*,#369,.F.);
#723 = ORIENTED_EDGE('',*,*,#644,.T.);
#724 = ADVANCED_FACE('',(#725),#711,.T.);
#725 = FACE_BOUND('',#726,.T.);
#726 = EDGE_LOOP('',(#727,#755,#756));
#727 = ORIENTED_EDGE('',*,*,#728,.F.);
#728 = EDGE_CURVE('',#341,#729,#731,.T.);
#729 = VERTEX_POINT('',#730);
#730 = CARTESIAN_POINT('',(46.371727619296,30.789657823147,
    33.811513367202));
#731 = SURFACE_CURVE('',#732,(#736,#743),.PCURVE_S1.);
#732 = LINE('',#733,#734);
#733 = CARTESIAN_POINT('',(-46.3659807938,30.812944627642,
    33.804421781277));
#734 = VECTOR('',#735,1.);
#735 = DIRECTION('',(0.99999996555,-2.511039370268E-04,
    7.646927880299E-05));
#736 = PCURVE('',#711,#737);
#737 = DEFINITIONAL_REPRESENTATION('',(#738),#742);
#738 = LINE('',#739,#740);
#739 = CARTESIAN_POINT('',(2.32828518936E-02,92.737708685233));
#740 = VECTOR('',#741,1.);
#741 = DIRECTION('',(-2.510613157248E-04,-0.999999968484));
#742 = ( GEOMETRIC_REPRESENTATION_CONTEXT(2) 
PARAMETRIC_REPRESENTATION_CONTEXT() REPRESENTATION_CONTEXT('2D SPACE',''
  ) );
#743 = PCURVE('',#744,#749);
#744 = PLANE('',#745);
#745 = AXIS2_PLACEMENT_3D('',#746,#747,#748);
#746 = CARTESIAN_POINT('',(46.371727619296,30.789657823147,
    33.811513367202));
#747 = DIRECTION('',(1.243101394758E-04,0.709622543639,0.704582025108));
#748 = DIRECTION('',(3.411024988451E-21,-0.704582030552,0.709622549122)
  );
#749 = DEFINITIONAL_REPRESENTATION('',(#750),#754);
#750 = LINE('',#751,#752);
#751 = CARTESIAN_POINT('',(-2.143981327765E-02,-92.73770912963));
#752 = VECTOR('',#753,1.);
#753 = DIRECTION('',(2.311876463837E-04,0.999999973276));
#754 = ( GEOMETRIC_REPRESENTATION_CONTEXT(2) 
PARAMETRIC_REPRESENTATION_CONTEXT() REPRESENTATION_CONTEXT('2D SPACE',''
  ) );
#755 = ORIENTED_EDGE('',*,*,#697,.T.);
#756 = ORIENTED_EDGE('',*,*,#757,.F.);
#757 = EDGE_CURVE('',#729,#645,#758,.T.);
#758 = SURFACE_CURVE('',#759,(#763,#770),.PCURVE_S1.);
#759 = LINE('',#760,#761);
#760 = CARTESIAN_POINT('',(46.371727619296,30.789657823147,
    33.811513367202));
#761 = VECTOR('',#762,1.);
#762 = DIRECTION('',(1.726020468906E-04,-0.999999830067,
    -5.568426783175E-04));
#763 = PCURVE('',#711,#764);
#764 = DEFINITIONAL_REPRESENTATION('',(#765),#769);
#765 = LINE('',#766,#767);
#766 = CARTESIAN_POINT('',(0.,0.));
#767 = VECTOR('',#768,1.);
#768 = DIRECTION('',(-0.999999985104,-1.726020473971E-04));
#769 = ( GEOMETRIC_REPRESENTATION_CONTEXT(2) 
PARAMETRIC_REPRESENTATION_CONTEXT() REPRESENTATION_CONTEXT('2D SPACE',''
  ) );
#770 = PCURVE('',#682,#771);
#771 = DEFINITIONAL_REPRESENTATION('',(#772),#776);
#772 = LINE('',#773,#774);
#773 = CARTESIAN_POINT('',(0.,0.));
#774 = VECTOR('',#775,1.);
#775 = DIRECTION('',(5.153834831208E-04,-0.99999986719));
#776 = ( GEOMETRIC_REPRESENTATION_CONTEXT(2) 
PARAMETRIC_REPRESENTATION_CONTEXT() REPRESENTATION_CONTEXT('2D SPACE',''
  ) );
#777 = ADVANCED_FACE('',(#778),#356,.T.);
#778 = FACE_BOUND('',#779,.T.);
#779 = EDGE_LOOP('',(#780,#781,#782));
#780 = ORIENTED_EDGE('',*,*,#532,.F.);
#781 = ORIENTED_EDGE('',*,*,#340,.T.);
#782 = ORIENTED_EDGE('',*,*,#783,.T.);
#783 = EDGE_CURVE('',#341,#478,#784,.T.);
#784 = SURFACE_CURVE('',#785,(#789,#796),.PCURVE_S1.);
#785 = LINE('',#786,#787);
#786 = CARTESIAN_POINT('',(-46.3659807938,30.812944627642,
    33.804421781277));
#787 = VECTOR('',#788,1.);
#788 = DIRECTION('',(0.995442857618,6.710102883732E-02,
    -6.77566907806E-02));
#789 = PCURVE('',#356,#790);
#790 = DEFINITIONAL_REPRESENTATION('',(#791),#795);
#791 = LINE('',#792,#793);
#792 = CARTESIAN_POINT('',(9.532740066717,-99.51033292014));
#793 = VECTOR('',#794,1.);
#794 = DIRECTION('',(-9.535992637569E-02,0.995442858451));
#795 = ( GEOMETRIC_REPRESENTATION_CONTEXT(2) 
PARAMETRIC_REPRESENTATION_CONTEXT() REPRESENTATION_CONTEXT('2D SPACE',''
  ) );
#796 = PCURVE('',#744,#797);
#797 = DEFINITIONAL_REPRESENTATION('',(#798),#802);
#798 = LINE('',#799,#800);
#799 = CARTESIAN_POINT('',(-2.143981327765E-02,-92.73770912963));
#800 = VECTOR('',#801,1.);
#801 = DIRECTION('',(-9.535985478217E-02,0.99544286531));
#802 = ( GEOMETRIC_REPRESENTATION_CONTEXT(2) 
PARAMETRIC_REPRESENTATION_CONTEXT() REPRESENTATION_CONTEXT('2D SPACE',''
  ) );
#803 = ADVANCED_FACE('',(#804),#744,.T.);
#804 = FACE_BOUND('',#805,.T.);
#805 = EDGE_LOOP('',(#806,#827,#828));
#806 = ORIENTED_EDGE('',*,*,#807,.T.);
#807 = EDGE_CURVE('',#729,#478,#808,.T.);
#808 = SURFACE_CURVE('',#809,(#813,#820),.PCURVE_S1.);
#809 = LINE('',#810,#811);
#810 = CARTESIAN_POINT('',(46.371727619296,30.789657823147,
    33.811513367202));
#811 = VECTOR('',#812,1.);
#812 = DIRECTION('',(0.578306459882,0.574760821873,-0.578974642017));
#813 = PCURVE('',#744,#814);
#814 = DEFINITIONAL_REPRESENTATION('',(#815),#819);
#815 = LINE('',#816,#817);
#816 = CARTESIAN_POINT('',(0.,0.));
#817 = VECTOR('',#818,1.);
#818 = DIRECTION('',(-0.815819608302,0.578306464351));
#819 = ( GEOMETRIC_REPRESENTATION_CONTEXT(2) 
PARAMETRIC_REPRESENTATION_CONTEXT() REPRESENTATION_CONTEXT('2D SPACE',''
  ) );
#820 = PCURVE('',#598,#821);
#821 = DEFINITIONAL_REPRESENTATION('',(#822),#826);
#822 = LINE('',#823,#824);
#823 = CARTESIAN_POINT('',(0.,0.));
#824 = VECTOR('',#825,1.);
#825 = DIRECTION('',(-0.818321451219,-0.574760821973));
#826 = ( GEOMETRIC_REPRESENTATION_CONTEXT(2) 
PARAMETRIC_REPRESENTATION_CONTEXT() REPRESENTATION_CONTEXT('2D SPACE',''
  ) );
#827 = ORIENTED_EDGE('',*,*,#783,.F.);
#828 = ORIENTED_EDGE('',*,*,#728,.T.);
#829 = ADVANCED_FACE('',(#830),#682,.T.);
#830 = FACE_BOUND('',#831,.T.);
#831 = EDGE_LOOP('',(#832,#833,#834));
#832 = ORIENTED_EDGE('',*,*,#757,.T.);
#833 = ORIENTED_EDGE('',*,*,#668,.T.);
#834 = ORIENTED_EDGE('',*,*,#835,.F.);
#835 = EDGE_CURVE('',#729,#172,#836,.T.);
#836 = SURFACE_CURVE('',#837,(#841,#848),.PCURVE_S1.);
#837 = LINE('',#838,#839);
#838 = CARTESIAN_POINT('',(46.371727619296,30.789657823147,
    33.811513367202));
#839 = VECTOR('',#840,1.);
#840 = DIRECTION('',(9.808532121461E-02,-0.99032416033,
    -9.816988962178E-02));
#841 = PCURVE('',#682,#842);
#842 = DEFINITIONAL_REPRESENTATION('',(#843),#847);
#843 = LINE('',#844,#845);
#844 = CARTESIAN_POINT('',(0.,0.));
#845 = VECTOR('',#846,1.);
#846 = DIRECTION('',(0.138773140956,-0.990324197094));
#847 = ( GEOMETRIC_REPRESENTATION_CONTEXT(2) 
PARAMETRIC_REPRESENTATION_CONTEXT() REPRESENTATION_CONTEXT('2D SPACE',''
  ) );
#848 = PCURVE('',#598,#849);
#849 = DEFINITIONAL_REPRESENTATION('',(#850),#854);
#850 = LINE('',#851,#852);
#851 = CARTESIAN_POINT('',(0.,0.));
#852 = VECTOR('',#853,1.);
#853 = DIRECTION('',(-0.138773402076,0.990324160503));
#854 = ( GEOMETRIC_REPRESENTATION_CONTEXT(2) 
PARAMETRIC_REPRESENTATION_CONTEXT() REPRESENTATION_CONTEXT('2D SPACE',''
  ) );
#855 = ADVANCED_FACE('',(#856),#598,.T.);
#856 = FACE_BOUND('',#857,.T.);
#857 = EDGE_LOOP('',(#858,#859,#860));
#858 = ORIENTED_EDGE('',*,*,#835,.T.);
#859 = ORIENTED_EDGE('',*,*,#584,.T.);
#860 = ORIENTED_EDGE('',*,*,#807,.F.);
#861 = ( GEOMETRIC_REPRESENTATION_CONTEXT(3) 
GLOBAL_UNCERTAINTY_ASSIGNED_CONTEXT((#865)) GLOBAL_UNIT_ASSIGNED_CONTEXT
((#862,#863,#864)) REPRESENTATION_CONTEXT('Context #1',
  '3D Context with UNIT and UNCERTAINTY') );
#862 = ( LENGTH_UNIT() NAMED_UNIT(*) SI_UNIT(.MILLI.,.METRE.) );
#863 = ( NAMED_UNIT(*) PLANE_ANGLE_UNIT() SI_UNIT($,.RADIAN.) );
#864 = ( NAMED_UNIT(*) SI_UNIT($,.STERADIAN.) SOLID_ANGLE_UNIT() );
#865 = UNCERTAINTY_MEASURE_WITH_UNIT(LENGTH_MEASURE(1.E-07),#862,
  'distance_accuracy_value','confusion accuracy');
#866 = PRODUCT_TYPE('part',$,(#7));
ENDSEC;
END-ISO-10303-21;
